G75*
%MOIN*%
%OFA0B0*%
%FSLAX25Y25*%
%IPPOS*%
%LPD*%
%AMOC8*
5,1,8,0,0,1.08239X$1,22.5*
%
%ADD10C,0.00000*%
%ADD11R,0.06500X0.06500*%
%ADD12C,0.06500*%
%ADD13C,0.05118*%
%ADD14C,0.01600*%
%ADD15C,0.02381*%
%ADD16C,0.00800*%
D10*
X0037739Y0009674D02*
X0037739Y0159280D01*
X0136164Y0159280D01*
X0136164Y0009674D01*
X0037739Y0009674D01*
D11*
X0121203Y0051406D03*
X0121203Y0115383D03*
X0121203Y0149438D03*
D12*
X0121203Y0139438D03*
X0121203Y0129438D03*
X0121203Y0105383D03*
X0121203Y0095383D03*
X0121203Y0085383D03*
X0121203Y0075383D03*
X0121203Y0065383D03*
X0121203Y0041406D03*
X0121203Y0031406D03*
X0121203Y0021406D03*
D13*
X0103880Y0083139D03*
X0090101Y0083139D03*
X0076321Y0083139D03*
X0062542Y0083139D03*
X0048762Y0083139D03*
X0048762Y0103139D03*
X0062542Y0103139D03*
X0076321Y0103139D03*
X0090101Y0103139D03*
X0103880Y0103139D03*
D14*
X0100815Y0099191D02*
X0093166Y0099191D01*
X0092910Y0098934D02*
X0094305Y0100330D01*
X0094309Y0100339D01*
X0098689Y0100339D01*
X0099528Y0100686D01*
X0099676Y0100330D01*
X0101071Y0098934D01*
X0102894Y0098180D01*
X0104867Y0098180D01*
X0106689Y0098934D01*
X0108084Y0100330D01*
X0108839Y0102152D01*
X0108839Y0104125D01*
X0108084Y0105948D01*
X0106689Y0107343D01*
X0106680Y0107346D01*
X0106680Y0121113D01*
X0112205Y0126638D01*
X0116247Y0126638D01*
X0116413Y0126237D01*
X0118003Y0124648D01*
X0120079Y0123788D01*
X0122327Y0123788D01*
X0124404Y0124648D01*
X0125993Y0126237D01*
X0126853Y0128314D01*
X0126853Y0130562D01*
X0125993Y0132638D01*
X0124404Y0134228D01*
X0123896Y0134438D01*
X0124404Y0134648D01*
X0125993Y0136237D01*
X0126853Y0138314D01*
X0126853Y0140562D01*
X0125993Y0142638D01*
X0124843Y0143788D01*
X0124931Y0143788D01*
X0125813Y0144153D01*
X0126488Y0144828D01*
X0126853Y0145710D01*
X0126853Y0153165D01*
X0126488Y0154047D01*
X0125813Y0154722D01*
X0124931Y0155088D01*
X0117476Y0155088D01*
X0116594Y0154722D01*
X0115919Y0154047D01*
X0115553Y0153165D01*
X0115553Y0147748D01*
X0114105Y0146299D01*
X0113679Y0145270D01*
X0113679Y0136424D01*
X0112957Y0135702D01*
X0108441Y0135702D01*
X0107412Y0135276D01*
X0106625Y0134488D01*
X0097570Y0125433D01*
X0097143Y0124404D01*
X0097143Y0110112D01*
X0087575Y0110112D01*
X0086546Y0109686D01*
X0085759Y0108898D01*
X0082799Y0105939D01*
X0080529Y0105939D01*
X0080525Y0105948D01*
X0079130Y0107343D01*
X0077308Y0108098D01*
X0075335Y0108098D01*
X0073512Y0107343D01*
X0072117Y0105948D01*
X0071362Y0104125D01*
X0071362Y0102152D01*
X0072117Y0100330D01*
X0073512Y0098934D01*
X0075335Y0098180D01*
X0077308Y0098180D01*
X0079130Y0098934D01*
X0080525Y0100330D01*
X0080529Y0100339D01*
X0084516Y0100339D01*
X0085545Y0100765D01*
X0085666Y0100886D01*
X0085897Y0100330D01*
X0087292Y0098934D01*
X0089114Y0098180D01*
X0091087Y0098180D01*
X0092910Y0098934D01*
X0087036Y0099191D02*
X0079386Y0099191D01*
X0073256Y0099191D02*
X0065607Y0099191D01*
X0065351Y0098934D02*
X0066746Y0100330D01*
X0067501Y0102152D01*
X0067501Y0104125D01*
X0066746Y0105948D01*
X0065351Y0107343D01*
X0063528Y0108098D01*
X0061555Y0108098D01*
X0059733Y0107343D01*
X0058338Y0105948D01*
X0057583Y0104125D01*
X0057583Y0102152D01*
X0057586Y0102143D01*
X0047176Y0091733D01*
X0046388Y0090945D01*
X0045962Y0089916D01*
X0045962Y0087346D01*
X0045953Y0087343D01*
X0044558Y0085948D01*
X0043803Y0084125D01*
X0043803Y0082152D01*
X0044558Y0080330D01*
X0045953Y0078934D01*
X0047776Y0078180D01*
X0049749Y0078180D01*
X0051571Y0078934D01*
X0052966Y0080330D01*
X0053721Y0082152D01*
X0053721Y0084125D01*
X0052966Y0085948D01*
X0051571Y0087343D01*
X0051562Y0087346D01*
X0051562Y0088199D01*
X0061546Y0098183D01*
X0061555Y0098180D01*
X0063528Y0098180D01*
X0065351Y0098934D01*
X0066936Y0100789D02*
X0071927Y0100789D01*
X0071362Y0102388D02*
X0067501Y0102388D01*
X0067501Y0103986D02*
X0071362Y0103986D01*
X0071967Y0105585D02*
X0066896Y0105585D01*
X0065510Y0107183D02*
X0073353Y0107183D01*
X0079290Y0107183D02*
X0084044Y0107183D01*
X0085642Y0108782D02*
X0040139Y0108782D01*
X0040139Y0110380D02*
X0097143Y0110380D01*
X0097143Y0111979D02*
X0040139Y0111979D01*
X0040139Y0113577D02*
X0097143Y0113577D01*
X0097143Y0115176D02*
X0040139Y0115176D01*
X0040139Y0116774D02*
X0097143Y0116774D01*
X0097143Y0118373D02*
X0040139Y0118373D01*
X0040139Y0119971D02*
X0097143Y0119971D01*
X0097143Y0121570D02*
X0040139Y0121570D01*
X0040139Y0123168D02*
X0097143Y0123168D01*
X0097293Y0124767D02*
X0040139Y0124767D01*
X0040139Y0126365D02*
X0098502Y0126365D01*
X0100100Y0127964D02*
X0040139Y0127964D01*
X0040139Y0129562D02*
X0101699Y0129562D01*
X0103297Y0131161D02*
X0040139Y0131161D01*
X0040139Y0132759D02*
X0104896Y0132759D01*
X0106494Y0134358D02*
X0040139Y0134358D01*
X0040139Y0135956D02*
X0113211Y0135956D01*
X0113679Y0137555D02*
X0040139Y0137555D01*
X0040139Y0139153D02*
X0113679Y0139153D01*
X0113679Y0140752D02*
X0040139Y0140752D01*
X0040139Y0142350D02*
X0113679Y0142350D01*
X0113679Y0143949D02*
X0040139Y0143949D01*
X0040139Y0145547D02*
X0113794Y0145547D01*
X0114952Y0147146D02*
X0040139Y0147146D01*
X0040139Y0148745D02*
X0115553Y0148745D01*
X0115553Y0150343D02*
X0040139Y0150343D01*
X0040139Y0151942D02*
X0115553Y0151942D01*
X0115708Y0153540D02*
X0040139Y0153540D01*
X0040139Y0155139D02*
X0133764Y0155139D01*
X0133764Y0156737D02*
X0040139Y0156737D01*
X0040139Y0156880D02*
X0133764Y0156880D01*
X0133764Y0012074D01*
X0040139Y0012074D01*
X0040139Y0156880D01*
X0047776Y0108098D02*
X0045953Y0107343D01*
X0044558Y0105948D01*
X0043803Y0104125D01*
X0043803Y0102152D01*
X0044558Y0100330D01*
X0045953Y0098934D01*
X0047776Y0098180D01*
X0049749Y0098180D01*
X0051571Y0098934D01*
X0052966Y0100330D01*
X0053721Y0102152D01*
X0053721Y0104125D01*
X0052966Y0105948D01*
X0051571Y0107343D01*
X0049749Y0108098D01*
X0047776Y0108098D01*
X0045794Y0107183D02*
X0040139Y0107183D01*
X0040139Y0105585D02*
X0044408Y0105585D01*
X0043803Y0103986D02*
X0040139Y0103986D01*
X0040139Y0102388D02*
X0043803Y0102388D01*
X0044368Y0100789D02*
X0040139Y0100789D01*
X0040139Y0099191D02*
X0045697Y0099191D01*
X0049838Y0094395D02*
X0040139Y0094395D01*
X0040139Y0092797D02*
X0048240Y0092797D01*
X0046641Y0091198D02*
X0040139Y0091198D01*
X0040139Y0089600D02*
X0045962Y0089600D01*
X0045962Y0088001D02*
X0040139Y0088001D01*
X0040139Y0086403D02*
X0045013Y0086403D01*
X0044084Y0084804D02*
X0040139Y0084804D01*
X0040139Y0083206D02*
X0043803Y0083206D01*
X0044029Y0081607D02*
X0040139Y0081607D01*
X0040139Y0080009D02*
X0044879Y0080009D01*
X0047219Y0078410D02*
X0040139Y0078410D01*
X0040139Y0076811D02*
X0067452Y0076811D01*
X0068429Y0077788D02*
X0062169Y0071529D01*
X0061408Y0071529D01*
X0061408Y0071806D01*
X0060861Y0073125D01*
X0059851Y0074135D01*
X0058531Y0074682D01*
X0057103Y0074682D01*
X0055783Y0074135D01*
X0054773Y0073125D01*
X0054227Y0071806D01*
X0054227Y0070377D01*
X0054773Y0069057D01*
X0055783Y0068047D01*
X0057103Y0067501D01*
X0057448Y0067501D01*
X0058593Y0066355D01*
X0059134Y0066132D01*
X0053415Y0060412D01*
X0052232Y0060902D01*
X0050804Y0060902D01*
X0049484Y0060356D01*
X0048474Y0059346D01*
X0047928Y0058026D01*
X0047928Y0056598D01*
X0048447Y0055343D01*
X0047928Y0054089D01*
X0047928Y0052661D01*
X0048474Y0051341D01*
X0049484Y0050331D01*
X0050687Y0049833D01*
X0050687Y0044550D01*
X0051113Y0043521D01*
X0055408Y0039226D01*
X0055408Y0038881D01*
X0055954Y0037561D01*
X0056965Y0036551D01*
X0058284Y0036005D01*
X0058540Y0036005D01*
X0058710Y0035593D01*
X0059720Y0034583D01*
X0061040Y0034036D01*
X0062469Y0034036D01*
X0063696Y0034545D01*
X0064445Y0033795D01*
X0065765Y0033249D01*
X0067193Y0033249D01*
X0068513Y0033795D01*
X0069523Y0034805D01*
X0070069Y0036125D01*
X0070069Y0037554D01*
X0069523Y0038873D01*
X0068513Y0039883D01*
X0067193Y0040430D01*
X0066916Y0040430D01*
X0066916Y0040940D01*
X0066490Y0041969D01*
X0065703Y0042756D01*
X0061746Y0046713D01*
X0062042Y0047010D01*
X0062589Y0048330D01*
X0062589Y0049758D01*
X0062560Y0049827D01*
X0067639Y0054906D01*
X0070894Y0054906D01*
X0071138Y0054662D01*
X0072457Y0054115D01*
X0073886Y0054115D01*
X0075206Y0054662D01*
X0076216Y0055672D01*
X0076762Y0056991D01*
X0076762Y0058420D01*
X0076216Y0059739D01*
X0075206Y0060749D01*
X0073886Y0061296D01*
X0072457Y0061296D01*
X0071138Y0060749D01*
X0070894Y0060505D01*
X0070876Y0060505D01*
X0074725Y0064354D01*
X0076012Y0064354D01*
X0076256Y0064110D01*
X0077576Y0063564D01*
X0079004Y0063564D01*
X0080324Y0064110D01*
X0081334Y0065120D01*
X0081880Y0066440D01*
X0081880Y0066696D01*
X0082292Y0066866D01*
X0083302Y0067876D01*
X0083849Y0069196D01*
X0083849Y0070624D01*
X0083302Y0071944D01*
X0082292Y0072954D01*
X0082132Y0073021D01*
X0082668Y0074314D01*
X0082668Y0075743D01*
X0082121Y0077062D01*
X0081111Y0078072D01*
X0079791Y0078619D01*
X0079045Y0078619D01*
X0079121Y0078802D01*
X0079121Y0078931D01*
X0079130Y0078934D01*
X0080525Y0080330D01*
X0081280Y0082152D01*
X0081280Y0084125D01*
X0080525Y0085948D01*
X0079130Y0087343D01*
X0077308Y0088098D01*
X0075335Y0088098D01*
X0073512Y0087343D01*
X0072117Y0085948D01*
X0071362Y0084125D01*
X0071362Y0082162D01*
X0071276Y0082162D01*
X0069957Y0081616D01*
X0068947Y0080606D01*
X0068400Y0079286D01*
X0068400Y0077857D01*
X0068429Y0077788D01*
X0068400Y0078410D02*
X0064085Y0078410D01*
X0063528Y0078180D02*
X0065351Y0078934D01*
X0066746Y0080330D01*
X0067501Y0082152D01*
X0067501Y0084125D01*
X0066746Y0085948D01*
X0065351Y0087343D01*
X0063528Y0088098D01*
X0061555Y0088098D01*
X0059733Y0087343D01*
X0058338Y0085948D01*
X0057583Y0084125D01*
X0057583Y0082152D01*
X0058338Y0080330D01*
X0059733Y0078934D01*
X0061555Y0078180D01*
X0063528Y0078180D01*
X0060999Y0078410D02*
X0050305Y0078410D01*
X0052645Y0080009D02*
X0058659Y0080009D01*
X0057808Y0081607D02*
X0053495Y0081607D01*
X0053721Y0083206D02*
X0057583Y0083206D01*
X0057864Y0084804D02*
X0053440Y0084804D01*
X0052511Y0086403D02*
X0058793Y0086403D01*
X0061322Y0088001D02*
X0051562Y0088001D01*
X0052962Y0089600D02*
X0111342Y0089600D01*
X0111349Y0089607D02*
X0110562Y0088819D01*
X0110135Y0087790D01*
X0110135Y0079668D01*
X0109891Y0079424D01*
X0109345Y0078105D01*
X0109345Y0076676D01*
X0109891Y0075357D01*
X0110902Y0074347D01*
X0112221Y0073800D01*
X0113650Y0073800D01*
X0114969Y0074347D01*
X0115553Y0074930D01*
X0115553Y0074259D01*
X0115719Y0073858D01*
X0112602Y0070742D01*
X0106158Y0070742D01*
X0105914Y0070986D01*
X0104594Y0071532D01*
X0103166Y0071532D01*
X0101846Y0070986D01*
X0100836Y0069976D01*
X0100290Y0068656D01*
X0100290Y0068383D01*
X0100016Y0068383D01*
X0098697Y0067836D01*
X0097687Y0066826D01*
X0097140Y0065506D01*
X0097140Y0064078D01*
X0097687Y0062758D01*
X0098697Y0061748D01*
X0100016Y0061202D01*
X0101445Y0061202D01*
X0102765Y0061748D01*
X0103599Y0062583D01*
X0116247Y0062583D01*
X0116413Y0062182D01*
X0118003Y0060593D01*
X0120079Y0059733D01*
X0122327Y0059733D01*
X0124404Y0060593D01*
X0125993Y0062182D01*
X0126853Y0064259D01*
X0126853Y0066507D01*
X0125993Y0068583D01*
X0124404Y0070173D01*
X0123896Y0070383D01*
X0124404Y0070593D01*
X0125993Y0072182D01*
X0126853Y0074259D01*
X0126853Y0076507D01*
X0125993Y0078583D01*
X0124404Y0080173D01*
X0123896Y0080383D01*
X0124404Y0080593D01*
X0125993Y0082182D01*
X0126853Y0084259D01*
X0126853Y0086507D01*
X0125993Y0088583D01*
X0124404Y0090173D01*
X0123896Y0090383D01*
X0124404Y0090593D01*
X0125993Y0092182D01*
X0126853Y0094259D01*
X0126853Y0096507D01*
X0125993Y0098583D01*
X0124404Y0100173D01*
X0123896Y0100383D01*
X0124404Y0100593D01*
X0125993Y0102182D01*
X0126853Y0104259D01*
X0126853Y0106507D01*
X0125993Y0108583D01*
X0124843Y0109733D01*
X0124931Y0109733D01*
X0125813Y0110098D01*
X0126488Y0110773D01*
X0126853Y0111655D01*
X0126853Y0119110D01*
X0126488Y0119992D01*
X0125813Y0120667D01*
X0124931Y0121033D01*
X0117476Y0121033D01*
X0116594Y0120667D01*
X0115919Y0119992D01*
X0115553Y0119110D01*
X0115553Y0111655D01*
X0115919Y0110773D01*
X0116594Y0110098D01*
X0117476Y0109733D01*
X0117563Y0109733D01*
X0116413Y0108583D01*
X0115553Y0106507D01*
X0115553Y0104259D01*
X0115719Y0103858D01*
X0114499Y0102638D01*
X0113711Y0101851D01*
X0113285Y0100822D01*
X0113285Y0091542D01*
X0111349Y0089607D01*
X0110223Y0088001D02*
X0105100Y0088001D01*
X0104867Y0088098D02*
X0102894Y0088098D01*
X0101071Y0087343D01*
X0099676Y0085948D01*
X0098921Y0084125D01*
X0098921Y0082152D01*
X0099676Y0080330D01*
X0101071Y0078934D01*
X0102894Y0078180D01*
X0104867Y0078180D01*
X0106689Y0078934D01*
X0108084Y0080330D01*
X0108839Y0082152D01*
X0108839Y0084125D01*
X0108084Y0085948D01*
X0106689Y0087343D01*
X0104867Y0088098D01*
X0102661Y0088001D02*
X0091320Y0088001D01*
X0091087Y0088098D02*
X0089114Y0088098D01*
X0087292Y0087343D01*
X0085897Y0085948D01*
X0085142Y0084125D01*
X0085142Y0082152D01*
X0085897Y0080330D01*
X0087292Y0078934D01*
X0089114Y0078180D01*
X0091087Y0078180D01*
X0092910Y0078934D01*
X0094305Y0080330D01*
X0095060Y0082152D01*
X0095060Y0084125D01*
X0094305Y0085948D01*
X0092910Y0087343D01*
X0091087Y0088098D01*
X0088881Y0088001D02*
X0077541Y0088001D01*
X0080070Y0086403D02*
X0086352Y0086403D01*
X0085423Y0084804D02*
X0080999Y0084804D01*
X0081280Y0083206D02*
X0085142Y0083206D01*
X0085368Y0081607D02*
X0081054Y0081607D01*
X0080204Y0080009D02*
X0086218Y0080009D01*
X0088558Y0078410D02*
X0080296Y0078410D01*
X0082225Y0076811D02*
X0109345Y0076811D01*
X0109471Y0078410D02*
X0105423Y0078410D01*
X0107763Y0080009D02*
X0110135Y0080009D01*
X0110135Y0081607D02*
X0108614Y0081607D01*
X0108839Y0083206D02*
X0110135Y0083206D01*
X0110135Y0084804D02*
X0108558Y0084804D01*
X0107629Y0086403D02*
X0110135Y0086403D01*
X0112941Y0091198D02*
X0054561Y0091198D01*
X0056160Y0092797D02*
X0113285Y0092797D01*
X0113285Y0094395D02*
X0057758Y0094395D01*
X0059357Y0095994D02*
X0113285Y0095994D01*
X0113285Y0097592D02*
X0060955Y0097592D01*
X0057583Y0102388D02*
X0053721Y0102388D01*
X0053721Y0103986D02*
X0057583Y0103986D01*
X0058187Y0105585D02*
X0053117Y0105585D01*
X0051731Y0107183D02*
X0059573Y0107183D01*
X0056233Y0100789D02*
X0053157Y0100789D01*
X0051827Y0099191D02*
X0054634Y0099191D01*
X0053035Y0097592D02*
X0040139Y0097592D01*
X0040139Y0095994D02*
X0051437Y0095994D01*
X0063761Y0088001D02*
X0075102Y0088001D01*
X0072572Y0086403D02*
X0066291Y0086403D01*
X0067219Y0084804D02*
X0071643Y0084804D01*
X0071362Y0083206D02*
X0067501Y0083206D01*
X0067275Y0081607D02*
X0069948Y0081607D01*
X0068699Y0080009D02*
X0066425Y0080009D01*
X0065853Y0075213D02*
X0040139Y0075213D01*
X0040139Y0073614D02*
X0055263Y0073614D01*
X0054314Y0072016D02*
X0040139Y0072016D01*
X0040139Y0070417D02*
X0054227Y0070417D01*
X0055012Y0068819D02*
X0040139Y0068819D01*
X0040139Y0067220D02*
X0057728Y0067220D01*
X0058624Y0065622D02*
X0040139Y0065622D01*
X0040139Y0064023D02*
X0057026Y0064023D01*
X0055427Y0062425D02*
X0040139Y0062425D01*
X0040139Y0060826D02*
X0050620Y0060826D01*
X0052416Y0060826D02*
X0053829Y0060826D01*
X0048425Y0059228D02*
X0040139Y0059228D01*
X0040139Y0057629D02*
X0047928Y0057629D01*
X0048162Y0056031D02*
X0040139Y0056031D01*
X0040139Y0054432D02*
X0048070Y0054432D01*
X0047928Y0052834D02*
X0040139Y0052834D01*
X0040139Y0051235D02*
X0048580Y0051235D01*
X0050687Y0049637D02*
X0040139Y0049637D01*
X0040139Y0048038D02*
X0050687Y0048038D01*
X0050687Y0046440D02*
X0040139Y0046440D01*
X0040139Y0044841D02*
X0050687Y0044841D01*
X0051391Y0043243D02*
X0040139Y0043243D01*
X0040139Y0041644D02*
X0052990Y0041644D01*
X0054588Y0040046D02*
X0040139Y0040046D01*
X0040139Y0038447D02*
X0055588Y0038447D01*
X0056667Y0036849D02*
X0040139Y0036849D01*
X0040139Y0035250D02*
X0059053Y0035250D01*
X0064792Y0033652D02*
X0040139Y0033652D01*
X0040139Y0032053D02*
X0080691Y0032053D01*
X0079495Y0033249D02*
X0084971Y0027773D01*
X0086000Y0027346D01*
X0095697Y0027346D01*
X0095941Y0027103D01*
X0097261Y0026556D01*
X0098689Y0026556D01*
X0100009Y0027103D01*
X0101019Y0028113D01*
X0101565Y0029432D01*
X0101565Y0030861D01*
X0101019Y0032180D01*
X0100009Y0033190D01*
X0099991Y0033198D01*
X0099991Y0033617D01*
X0099444Y0034936D01*
X0098434Y0035946D01*
X0098416Y0035954D01*
X0098416Y0036766D01*
X0097869Y0038086D01*
X0096859Y0039096D01*
X0095539Y0039643D01*
X0094111Y0039643D01*
X0092791Y0039096D01*
X0092547Y0038852D01*
X0089751Y0038852D01*
X0089751Y0038972D01*
X0090560Y0039307D01*
X0091570Y0040317D01*
X0092116Y0041637D01*
X0092116Y0043065D01*
X0091570Y0044385D01*
X0091045Y0044910D01*
X0091176Y0045042D01*
X0091723Y0046361D01*
X0091723Y0047790D01*
X0091176Y0049109D01*
X0090978Y0049308D01*
X0092245Y0050575D01*
X0101681Y0050575D01*
X0102624Y0050965D01*
X0103020Y0050965D01*
X0104339Y0051512D01*
X0105349Y0052522D01*
X0105896Y0053842D01*
X0105896Y0055270D01*
X0105349Y0056590D01*
X0104339Y0057600D01*
X0103020Y0058146D01*
X0101591Y0058146D01*
X0100272Y0057600D01*
X0099262Y0056590D01*
X0099090Y0056175D01*
X0090528Y0056175D01*
X0089499Y0055749D01*
X0082448Y0048698D01*
X0082103Y0048698D01*
X0080783Y0048151D01*
X0079773Y0047141D01*
X0079227Y0045821D01*
X0079227Y0044393D01*
X0079773Y0043073D01*
X0080017Y0042829D01*
X0080017Y0040430D01*
X0079150Y0040430D01*
X0077831Y0039883D01*
X0076821Y0038873D01*
X0076274Y0037554D01*
X0076274Y0036125D01*
X0076821Y0034805D01*
X0077831Y0033795D01*
X0079150Y0033249D01*
X0079495Y0033249D01*
X0078178Y0033652D02*
X0068166Y0033652D01*
X0069707Y0035250D02*
X0076636Y0035250D01*
X0076274Y0036849D02*
X0070069Y0036849D01*
X0069699Y0038447D02*
X0076644Y0038447D01*
X0078223Y0040046D02*
X0068120Y0040046D01*
X0066625Y0041644D02*
X0080017Y0041644D01*
X0079703Y0043243D02*
X0065216Y0043243D01*
X0063618Y0044841D02*
X0079227Y0044841D01*
X0079483Y0046440D02*
X0062019Y0046440D01*
X0062468Y0048038D02*
X0080671Y0048038D01*
X0083387Y0049637D02*
X0062589Y0049637D01*
X0063968Y0051235D02*
X0084986Y0051235D01*
X0086584Y0052834D02*
X0065567Y0052834D01*
X0067165Y0054432D02*
X0071691Y0054432D01*
X0074652Y0054432D02*
X0088183Y0054432D01*
X0090181Y0056031D02*
X0076364Y0056031D01*
X0076762Y0057629D02*
X0100343Y0057629D01*
X0098020Y0062425D02*
X0072796Y0062425D01*
X0071324Y0060826D02*
X0071197Y0060826D01*
X0075020Y0060826D02*
X0117769Y0060826D01*
X0116313Y0062425D02*
X0103441Y0062425D01*
X0104268Y0057629D02*
X0133764Y0057629D01*
X0133764Y0056031D02*
X0125624Y0056031D01*
X0125558Y0056097D02*
X0125148Y0056334D01*
X0124690Y0056456D01*
X0121278Y0056456D01*
X0121278Y0051481D01*
X0126253Y0051481D01*
X0126253Y0054893D01*
X0126130Y0055351D01*
X0125893Y0055762D01*
X0125558Y0056097D01*
X0126253Y0054432D02*
X0133764Y0054432D01*
X0133764Y0052834D02*
X0126253Y0052834D01*
X0126253Y0051331D02*
X0121278Y0051331D01*
X0121278Y0051481D01*
X0121128Y0051481D01*
X0121128Y0051331D01*
X0116153Y0051331D01*
X0116153Y0047919D01*
X0116276Y0047462D01*
X0116513Y0047051D01*
X0116848Y0046716D01*
X0117258Y0046479D01*
X0117716Y0046356D01*
X0118389Y0046356D01*
X0118003Y0046196D01*
X0116413Y0044607D01*
X0115553Y0042530D01*
X0115553Y0040282D01*
X0116413Y0038206D01*
X0118003Y0036616D01*
X0118510Y0036406D01*
X0118003Y0036196D01*
X0116413Y0034607D01*
X0115553Y0032530D01*
X0115553Y0030282D01*
X0116413Y0028206D01*
X0118003Y0026616D01*
X0118510Y0026406D01*
X0118003Y0026196D01*
X0116413Y0024607D01*
X0115553Y0022530D01*
X0115553Y0020282D01*
X0116413Y0018206D01*
X0118003Y0016616D01*
X0120079Y0015756D01*
X0122327Y0015756D01*
X0124404Y0016616D01*
X0125993Y0018206D01*
X0126853Y0020282D01*
X0126853Y0022530D01*
X0125993Y0024607D01*
X0124404Y0026196D01*
X0123896Y0026406D01*
X0124404Y0026616D01*
X0125993Y0028206D01*
X0126853Y0030282D01*
X0126853Y0032530D01*
X0125993Y0034607D01*
X0124404Y0036196D01*
X0123896Y0036406D01*
X0124404Y0036616D01*
X0125993Y0038206D01*
X0126853Y0040282D01*
X0126853Y0042530D01*
X0125993Y0044607D01*
X0124404Y0046196D01*
X0124017Y0046356D01*
X0124690Y0046356D01*
X0125148Y0046479D01*
X0125558Y0046716D01*
X0125893Y0047051D01*
X0126130Y0047462D01*
X0126253Y0047919D01*
X0126253Y0051331D01*
X0126253Y0051235D02*
X0133764Y0051235D01*
X0133764Y0049637D02*
X0126253Y0049637D01*
X0126253Y0048038D02*
X0133764Y0048038D01*
X0133764Y0046440D02*
X0125002Y0046440D01*
X0125758Y0044841D02*
X0133764Y0044841D01*
X0133764Y0043243D02*
X0126558Y0043243D01*
X0126853Y0041644D02*
X0133764Y0041644D01*
X0133764Y0040046D02*
X0126755Y0040046D01*
X0126093Y0038447D02*
X0133764Y0038447D01*
X0133764Y0036849D02*
X0124636Y0036849D01*
X0125350Y0035250D02*
X0133764Y0035250D01*
X0133764Y0033652D02*
X0126389Y0033652D01*
X0126853Y0032053D02*
X0133764Y0032053D01*
X0133764Y0030455D02*
X0126853Y0030455D01*
X0126262Y0028856D02*
X0133764Y0028856D01*
X0133764Y0027258D02*
X0125045Y0027258D01*
X0124941Y0025659D02*
X0133764Y0025659D01*
X0133764Y0024061D02*
X0126219Y0024061D01*
X0126853Y0022462D02*
X0133764Y0022462D01*
X0133764Y0020864D02*
X0126853Y0020864D01*
X0126432Y0019265D02*
X0133764Y0019265D01*
X0133764Y0017667D02*
X0125454Y0017667D01*
X0123080Y0016068D02*
X0133764Y0016068D01*
X0133764Y0014470D02*
X0040139Y0014470D01*
X0040139Y0016068D02*
X0119327Y0016068D01*
X0116953Y0017667D02*
X0040139Y0017667D01*
X0040139Y0019265D02*
X0115975Y0019265D01*
X0115553Y0020864D02*
X0040139Y0020864D01*
X0040139Y0022462D02*
X0115553Y0022462D01*
X0116187Y0024061D02*
X0040139Y0024061D01*
X0040139Y0025659D02*
X0117466Y0025659D01*
X0117361Y0027258D02*
X0100164Y0027258D01*
X0101327Y0028856D02*
X0116144Y0028856D01*
X0115553Y0030455D02*
X0101565Y0030455D01*
X0101071Y0032053D02*
X0115553Y0032053D01*
X0116018Y0033652D02*
X0099976Y0033652D01*
X0099130Y0035250D02*
X0117057Y0035250D01*
X0117770Y0036849D02*
X0098382Y0036849D01*
X0097508Y0038447D02*
X0116313Y0038447D01*
X0115651Y0040046D02*
X0091298Y0040046D01*
X0092116Y0041644D02*
X0115553Y0041644D01*
X0115848Y0043243D02*
X0092043Y0043243D01*
X0091114Y0044841D02*
X0116648Y0044841D01*
X0117405Y0046440D02*
X0091723Y0046440D01*
X0091620Y0048038D02*
X0116153Y0048038D01*
X0116153Y0049637D02*
X0091307Y0049637D01*
X0097163Y0064023D02*
X0080114Y0064023D01*
X0081541Y0065622D02*
X0097188Y0065622D01*
X0098081Y0067220D02*
X0082646Y0067220D01*
X0083693Y0068819D02*
X0100357Y0068819D01*
X0101278Y0070417D02*
X0083849Y0070417D01*
X0083230Y0072016D02*
X0113877Y0072016D01*
X0115475Y0073614D02*
X0082378Y0073614D01*
X0082668Y0075213D02*
X0110035Y0075213D01*
X0102337Y0078410D02*
X0091644Y0078410D01*
X0093984Y0080009D02*
X0099997Y0080009D01*
X0099147Y0081607D02*
X0094834Y0081607D01*
X0095060Y0083206D02*
X0098921Y0083206D01*
X0099203Y0084804D02*
X0094779Y0084804D01*
X0093850Y0086403D02*
X0100131Y0086403D01*
X0106946Y0099191D02*
X0113285Y0099191D01*
X0113285Y0100789D02*
X0108275Y0100789D01*
X0108839Y0102388D02*
X0114248Y0102388D01*
X0115666Y0103986D02*
X0108839Y0103986D01*
X0108235Y0105585D02*
X0115553Y0105585D01*
X0115833Y0107183D02*
X0106849Y0107183D01*
X0106680Y0108782D02*
X0116612Y0108782D01*
X0116311Y0110380D02*
X0106680Y0110380D01*
X0106680Y0111979D02*
X0115553Y0111979D01*
X0115553Y0113577D02*
X0106680Y0113577D01*
X0106680Y0115176D02*
X0115553Y0115176D01*
X0115553Y0116774D02*
X0106680Y0116774D01*
X0106680Y0118373D02*
X0115553Y0118373D01*
X0115910Y0119971D02*
X0106680Y0119971D01*
X0107137Y0121570D02*
X0133764Y0121570D01*
X0133764Y0123168D02*
X0108736Y0123168D01*
X0110334Y0124767D02*
X0117884Y0124767D01*
X0116360Y0126365D02*
X0111933Y0126365D01*
X0124522Y0124767D02*
X0133764Y0124767D01*
X0133764Y0126365D02*
X0126046Y0126365D01*
X0126708Y0127964D02*
X0133764Y0127964D01*
X0133764Y0129562D02*
X0126853Y0129562D01*
X0126605Y0131161D02*
X0133764Y0131161D01*
X0133764Y0132759D02*
X0125872Y0132759D01*
X0124089Y0134358D02*
X0133764Y0134358D01*
X0133764Y0135956D02*
X0125712Y0135956D01*
X0126539Y0137555D02*
X0133764Y0137555D01*
X0133764Y0139153D02*
X0126853Y0139153D01*
X0126774Y0140752D02*
X0133764Y0140752D01*
X0133764Y0142350D02*
X0126112Y0142350D01*
X0125320Y0143949D02*
X0133764Y0143949D01*
X0133764Y0145547D02*
X0126786Y0145547D01*
X0126853Y0147146D02*
X0133764Y0147146D01*
X0133764Y0148745D02*
X0126853Y0148745D01*
X0126853Y0150343D02*
X0133764Y0150343D01*
X0133764Y0151942D02*
X0126853Y0151942D01*
X0126698Y0153540D02*
X0133764Y0153540D01*
X0133764Y0119971D02*
X0126496Y0119971D01*
X0126853Y0118373D02*
X0133764Y0118373D01*
X0133764Y0116774D02*
X0126853Y0116774D01*
X0126853Y0115176D02*
X0133764Y0115176D01*
X0133764Y0113577D02*
X0126853Y0113577D01*
X0126853Y0111979D02*
X0133764Y0111979D01*
X0133764Y0110380D02*
X0126095Y0110380D01*
X0125794Y0108782D02*
X0133764Y0108782D01*
X0133764Y0107183D02*
X0126573Y0107183D01*
X0126853Y0105585D02*
X0133764Y0105585D01*
X0133764Y0103986D02*
X0126740Y0103986D01*
X0126078Y0102388D02*
X0133764Y0102388D01*
X0133764Y0100789D02*
X0124600Y0100789D01*
X0125385Y0099191D02*
X0133764Y0099191D01*
X0133764Y0097592D02*
X0126403Y0097592D01*
X0126853Y0095994D02*
X0133764Y0095994D01*
X0133764Y0094395D02*
X0126853Y0094395D01*
X0126247Y0092797D02*
X0133764Y0092797D01*
X0133764Y0091198D02*
X0125009Y0091198D01*
X0124977Y0089600D02*
X0133764Y0089600D01*
X0133764Y0088001D02*
X0126234Y0088001D01*
X0126853Y0086403D02*
X0133764Y0086403D01*
X0133764Y0084804D02*
X0126853Y0084804D01*
X0126417Y0083206D02*
X0133764Y0083206D01*
X0133764Y0081607D02*
X0125418Y0081607D01*
X0124568Y0080009D02*
X0133764Y0080009D01*
X0133764Y0078410D02*
X0126065Y0078410D01*
X0126727Y0076811D02*
X0133764Y0076811D01*
X0133764Y0075213D02*
X0126853Y0075213D01*
X0126586Y0073614D02*
X0133764Y0073614D01*
X0133764Y0072016D02*
X0125827Y0072016D01*
X0123980Y0070417D02*
X0133764Y0070417D01*
X0133764Y0068819D02*
X0125757Y0068819D01*
X0126557Y0067220D02*
X0133764Y0067220D01*
X0133764Y0065622D02*
X0126853Y0065622D01*
X0126756Y0064023D02*
X0133764Y0064023D01*
X0133764Y0062425D02*
X0126093Y0062425D01*
X0124637Y0060826D02*
X0133764Y0060826D01*
X0133764Y0059228D02*
X0076427Y0059228D01*
X0076466Y0064023D02*
X0074394Y0064023D01*
X0064255Y0073614D02*
X0060372Y0073614D01*
X0061321Y0072016D02*
X0062656Y0072016D01*
X0085569Y0100789D02*
X0085706Y0100789D01*
X0105581Y0056031D02*
X0116782Y0056031D01*
X0116848Y0056097D02*
X0116513Y0055762D01*
X0116276Y0055351D01*
X0116153Y0054893D01*
X0116153Y0051481D01*
X0121128Y0051481D01*
X0121128Y0056456D01*
X0117716Y0056456D01*
X0117258Y0056334D01*
X0116848Y0056097D01*
X0116153Y0054432D02*
X0105896Y0054432D01*
X0105479Y0052834D02*
X0116153Y0052834D01*
X0116153Y0051235D02*
X0103671Y0051235D01*
X0121128Y0052834D02*
X0121278Y0052834D01*
X0121278Y0054432D02*
X0121128Y0054432D01*
X0121128Y0056031D02*
X0121278Y0056031D01*
X0095786Y0027258D02*
X0040139Y0027258D01*
X0040139Y0028856D02*
X0083888Y0028856D01*
X0082289Y0030455D02*
X0040139Y0030455D01*
X0040139Y0012871D02*
X0133764Y0012871D01*
D15*
X0102305Y0054556D03*
X0100731Y0064792D03*
X0103880Y0067942D03*
X0112935Y0077391D03*
X0115298Y0086052D03*
X0088132Y0047076D03*
X0088526Y0042351D03*
X0082817Y0045107D03*
X0079865Y0036839D03*
X0072384Y0044713D03*
X0066479Y0036839D03*
X0061754Y0037627D03*
X0058998Y0039595D03*
X0058998Y0049044D03*
X0051518Y0053375D03*
X0051518Y0057312D03*
X0057817Y0071091D03*
X0071991Y0078572D03*
X0076715Y0072666D03*
X0079077Y0075028D03*
X0080258Y0069910D03*
X0078290Y0067154D03*
X0073172Y0057706D03*
X0094825Y0036052D03*
X0096400Y0032902D03*
X0097975Y0030146D03*
D16*
X0088920Y0030146D01*
X0086557Y0030146D01*
X0079865Y0036839D01*
X0082817Y0036249D02*
X0082817Y0045107D01*
X0091085Y0053375D01*
X0101124Y0053375D01*
X0102305Y0054556D01*
X0100731Y0064792D02*
X0101321Y0065383D01*
X0121203Y0065383D01*
X0113762Y0067942D02*
X0121203Y0075383D01*
X0113762Y0067942D02*
X0103880Y0067942D01*
X0112935Y0077391D02*
X0112935Y0087233D01*
X0116085Y0090383D01*
X0116085Y0100265D01*
X0121203Y0105383D01*
X0121203Y0095383D02*
X0121203Y0091957D01*
X0115298Y0086052D01*
X0103880Y0103139D02*
X0103880Y0122272D01*
X0111046Y0129438D01*
X0121203Y0129438D01*
X0115691Y0131328D02*
X0121203Y0136839D01*
X0121203Y0139438D01*
X0116479Y0135265D02*
X0116479Y0144713D01*
X0121203Y0149438D01*
X0116479Y0135265D02*
X0114117Y0132902D01*
X0108998Y0132902D01*
X0099943Y0123847D01*
X0099943Y0108887D01*
X0098368Y0107312D01*
X0088132Y0107312D01*
X0083959Y0103139D01*
X0076321Y0103139D01*
X0090101Y0103139D02*
X0098132Y0103139D01*
X0101912Y0106918D01*
X0101912Y0123060D01*
X0110180Y0131328D01*
X0115691Y0131328D01*
X0076321Y0083139D02*
X0076321Y0079359D01*
X0054274Y0057312D01*
X0051518Y0057312D01*
X0053880Y0055737D02*
X0051518Y0053375D01*
X0053487Y0051800D02*
X0074353Y0072666D01*
X0076715Y0072666D01*
X0074353Y0075028D02*
X0079077Y0075028D01*
X0080258Y0069910D02*
X0073959Y0069910D01*
X0055061Y0051013D01*
X0055061Y0047076D01*
X0061754Y0040383D01*
X0061754Y0037627D01*
X0064117Y0038414D02*
X0065691Y0036839D01*
X0066479Y0036839D01*
X0064117Y0038414D02*
X0064117Y0040383D01*
X0056636Y0047863D01*
X0056636Y0050225D01*
X0073565Y0067154D01*
X0078290Y0067154D01*
X0074353Y0075028D02*
X0055061Y0055737D01*
X0053880Y0055737D01*
X0053487Y0051800D02*
X0053487Y0045107D01*
X0058998Y0039595D01*
X0058998Y0049044D02*
X0058998Y0050225D01*
X0066479Y0057706D01*
X0073172Y0057706D01*
X0063329Y0068729D02*
X0071991Y0077391D01*
X0071991Y0078572D01*
X0063329Y0068729D02*
X0060180Y0068729D01*
X0057817Y0071091D01*
X0048762Y0083139D02*
X0048762Y0089359D01*
X0062542Y0103139D01*
X0088132Y0047076D02*
X0088132Y0045501D01*
X0084983Y0042351D01*
X0084983Y0036839D01*
X0088920Y0032902D01*
X0096400Y0032902D01*
X0094825Y0036052D02*
X0088526Y0036052D01*
X0086951Y0037627D01*
X0086951Y0040776D01*
X0088526Y0042351D01*
X0082817Y0036249D02*
X0088920Y0030146D01*
M02*
