%
M48
M72
T01C0.01181
T02C0.02756
T03C0.03500
%
T01
X58998Y39595
X61754Y37627
X66479Y36839
X72384Y44713
X79865Y36839
X82817Y45107
X88132Y47076
X88526Y42351
X94825Y36052
X96400Y32902
X97975Y30146
X102305Y54556
X100731Y64792
X103880Y67942
X112935Y77391
X115298Y86052
X80258Y69910
X78290Y67154
X76715Y72666
X79077Y75028
X71991Y78572
X57817Y71091
X51518Y57312
X51518Y53375
X58998Y49044
X73172Y57706
T02
X48762Y83139
X62542Y83139
X76321Y83139
X90101Y83139
X103880Y83139
X103880Y103139
X90101Y103139
X76321Y103139
X62542Y103139
X48762Y103139
T03
X121203Y149438
X121203Y139438
X121203Y129438
X121203Y115383
X121203Y105383
X121203Y95383
X121203Y85383
X121203Y75383
X121203Y65383
X121203Y51406
X121203Y41406
X121203Y31406
X121203Y21406
M30
