G75*
%MOIN*%
%OFA0B0*%
%FSLAX25Y25*%
%IPPOS*%
%LPD*%
%AMOC8*
5,1,8,0,0,1.08239X$1,22.5*
%
%ADD10C,0.00000*%
%ADD11R,0.01102X0.03150*%
%ADD12R,0.05512X0.05906*%
%ADD13R,0.06500X0.06500*%
%ADD14C,0.06500*%
%ADD15R,0.01969X0.01378*%
%ADD16R,0.01181X0.01969*%
%ADD17C,0.00001*%
%ADD18C,0.40000*%
%ADD19R,0.10000X0.20000*%
%ADD20R,0.03150X0.02756*%
%ADD21R,0.02756X0.01969*%
%ADD22R,0.01969X0.02756*%
%ADD23R,0.03150X0.01969*%
%ADD24R,0.02756X0.03150*%
%ADD25R,0.03642X0.02756*%
%ADD26R,0.01969X0.01575*%
%ADD27C,0.05118*%
%ADD28C,0.00800*%
%ADD29C,0.01600*%
%ADD30C,0.02381*%
D10*
X0037739Y0009674D02*
X0037739Y0159280D01*
X0136164Y0159280D01*
X0136164Y0009674D01*
X0037739Y0009674D01*
X0064786Y0048060D02*
X0066518Y0048060D01*
X0066518Y0049241D01*
X0067857Y0049241D01*
X0067857Y0050422D01*
X0066518Y0050422D01*
X0066518Y0051603D01*
X0064786Y0051603D01*
X0064786Y0048060D01*
D11*
X0071006Y0040383D03*
X0072975Y0040383D03*
X0074943Y0040383D03*
X0076912Y0040383D03*
X0078880Y0040383D03*
X0080849Y0040383D03*
X0082817Y0040383D03*
X0084786Y0040383D03*
D12*
X0090888Y0028375D03*
X0064904Y0028375D03*
D13*
X0121203Y0051406D03*
X0121203Y0115383D03*
X0121203Y0149438D03*
D14*
X0121203Y0139438D03*
X0121203Y0129438D03*
X0121203Y0105383D03*
X0121203Y0095383D03*
X0121203Y0085383D03*
X0121203Y0075383D03*
X0121203Y0065383D03*
X0121203Y0041406D03*
X0121203Y0031406D03*
X0121203Y0021406D03*
D15*
X0062935Y0048552D03*
X0062935Y0051111D03*
D16*
X0065652Y0049831D03*
D17*
X0064786Y0049835D02*
X0067857Y0049835D01*
X0067857Y0049834D02*
X0064786Y0049834D01*
X0064786Y0049833D02*
X0067857Y0049833D01*
X0067857Y0049832D02*
X0064786Y0049832D01*
X0064786Y0049831D02*
X0067857Y0049831D01*
X0064786Y0049831D01*
X0064786Y0049830D02*
X0067857Y0049830D01*
X0067857Y0049829D02*
X0064786Y0049829D01*
X0064786Y0049828D02*
X0067857Y0049828D01*
X0067857Y0049827D02*
X0064786Y0049827D01*
X0064786Y0049826D02*
X0067857Y0049826D01*
X0067857Y0049825D02*
X0064786Y0049825D01*
X0064786Y0049824D02*
X0067857Y0049824D01*
X0067857Y0049823D02*
X0064786Y0049823D01*
X0064786Y0049822D02*
X0067857Y0049822D01*
X0067857Y0049821D02*
X0064786Y0049821D01*
X0064786Y0049820D02*
X0067857Y0049820D01*
X0067857Y0049819D02*
X0064786Y0049819D01*
X0064786Y0049818D02*
X0067857Y0049818D01*
X0067857Y0049817D02*
X0064786Y0049817D01*
X0064786Y0049816D02*
X0067857Y0049816D01*
X0067857Y0049815D02*
X0064786Y0049815D01*
X0064786Y0049814D02*
X0067857Y0049814D01*
X0067857Y0049813D02*
X0064786Y0049813D01*
X0064786Y0049812D02*
X0067857Y0049812D01*
X0067857Y0049811D02*
X0064786Y0049811D01*
X0064786Y0049810D02*
X0067857Y0049810D01*
X0067857Y0049809D02*
X0064786Y0049809D01*
X0064786Y0049808D02*
X0067857Y0049808D01*
X0067857Y0049807D02*
X0064786Y0049807D01*
X0064786Y0049806D02*
X0067857Y0049806D01*
X0067857Y0049805D02*
X0064786Y0049805D01*
X0064786Y0049804D02*
X0067857Y0049804D01*
X0067857Y0049803D02*
X0064786Y0049803D01*
X0064786Y0049802D02*
X0067857Y0049802D01*
X0067857Y0049801D02*
X0064786Y0049801D01*
X0064786Y0049800D02*
X0067857Y0049800D01*
X0067857Y0049799D02*
X0064786Y0049799D01*
X0064786Y0049798D02*
X0067857Y0049798D01*
X0067857Y0049797D02*
X0064786Y0049797D01*
X0064786Y0049796D02*
X0067857Y0049796D01*
X0067857Y0049795D02*
X0064786Y0049795D01*
X0064786Y0049794D02*
X0067857Y0049794D01*
X0067857Y0049793D02*
X0064786Y0049793D01*
X0064786Y0049792D02*
X0067857Y0049792D01*
X0067857Y0049791D02*
X0064786Y0049791D01*
X0064786Y0049790D02*
X0067857Y0049790D01*
X0067857Y0049789D02*
X0064786Y0049789D01*
X0064786Y0049788D02*
X0067857Y0049788D01*
X0067857Y0049787D02*
X0064786Y0049787D01*
X0064786Y0049786D02*
X0067857Y0049786D01*
X0067857Y0049785D02*
X0064786Y0049785D01*
X0064786Y0049784D02*
X0067857Y0049784D01*
X0067857Y0049783D02*
X0064786Y0049783D01*
X0064786Y0049782D02*
X0067857Y0049782D01*
X0067857Y0049781D02*
X0064786Y0049781D01*
X0064786Y0049780D02*
X0067857Y0049780D01*
X0067857Y0049779D02*
X0064786Y0049779D01*
X0064786Y0049778D02*
X0067857Y0049778D01*
X0067857Y0049777D02*
X0064786Y0049777D01*
X0064786Y0049776D02*
X0067857Y0049776D01*
X0067857Y0049775D02*
X0064786Y0049775D01*
X0064786Y0049774D02*
X0067857Y0049774D01*
X0067857Y0049773D02*
X0064786Y0049773D01*
X0064786Y0049772D02*
X0067857Y0049772D01*
X0067857Y0049771D02*
X0064786Y0049771D01*
X0064786Y0049770D02*
X0067857Y0049770D01*
X0067857Y0049769D02*
X0064786Y0049769D01*
X0067857Y0049769D01*
X0067857Y0049768D02*
X0064786Y0049768D01*
X0064786Y0049767D02*
X0067857Y0049767D01*
X0067857Y0049766D02*
X0064786Y0049766D01*
X0064786Y0049765D02*
X0067857Y0049765D01*
X0067857Y0049764D02*
X0064786Y0049764D01*
X0064786Y0049763D02*
X0067857Y0049763D01*
X0067857Y0049762D02*
X0064786Y0049762D01*
X0064786Y0049761D02*
X0067857Y0049761D01*
X0067857Y0049760D02*
X0064786Y0049760D01*
X0064786Y0049759D02*
X0067857Y0049759D01*
X0067857Y0049758D02*
X0064786Y0049758D01*
X0064786Y0049757D02*
X0067857Y0049757D01*
X0067857Y0049756D02*
X0064786Y0049756D01*
X0064786Y0049755D02*
X0067857Y0049755D01*
X0067857Y0049754D02*
X0064786Y0049754D01*
X0064786Y0049753D02*
X0067857Y0049753D01*
X0067857Y0049752D02*
X0064786Y0049752D01*
X0064786Y0049751D02*
X0067857Y0049751D01*
X0067857Y0049750D02*
X0064786Y0049750D01*
X0064786Y0049749D02*
X0067857Y0049749D01*
X0067857Y0049748D02*
X0064786Y0049748D01*
X0064786Y0049747D02*
X0067857Y0049747D01*
X0067857Y0049746D02*
X0064786Y0049746D01*
X0064786Y0049745D02*
X0067857Y0049745D01*
X0067857Y0049744D02*
X0064786Y0049744D01*
X0064786Y0049743D02*
X0067857Y0049743D01*
X0067857Y0049742D02*
X0064786Y0049742D01*
X0064786Y0049741D02*
X0067857Y0049741D01*
X0067857Y0049740D02*
X0064786Y0049740D01*
X0064786Y0049739D02*
X0067857Y0049739D01*
X0067857Y0049738D02*
X0064786Y0049738D01*
X0064786Y0049737D02*
X0067857Y0049737D01*
X0067857Y0049736D02*
X0064786Y0049736D01*
X0064786Y0049735D02*
X0067857Y0049735D01*
X0067857Y0049734D02*
X0064786Y0049734D01*
X0064786Y0049733D02*
X0067857Y0049733D01*
X0067857Y0049732D02*
X0064786Y0049732D01*
X0064786Y0049731D02*
X0067857Y0049731D01*
X0067857Y0049730D02*
X0064786Y0049730D01*
X0064786Y0049729D02*
X0067857Y0049729D01*
X0067857Y0049728D02*
X0064786Y0049728D01*
X0064786Y0049727D02*
X0067857Y0049727D01*
X0067857Y0049726D02*
X0064786Y0049726D01*
X0064786Y0049725D02*
X0067857Y0049725D01*
X0067857Y0049724D02*
X0064786Y0049724D01*
X0064786Y0049723D02*
X0067857Y0049723D01*
X0067857Y0049722D02*
X0064786Y0049722D01*
X0064786Y0049721D02*
X0067857Y0049721D01*
X0067857Y0049720D02*
X0064786Y0049720D01*
X0064786Y0049719D02*
X0067857Y0049719D01*
X0067857Y0049718D02*
X0064786Y0049718D01*
X0064786Y0049717D02*
X0067857Y0049717D01*
X0067857Y0049716D02*
X0064786Y0049716D01*
X0064786Y0049715D02*
X0067857Y0049715D01*
X0067857Y0049714D02*
X0064786Y0049714D01*
X0064786Y0049713D02*
X0067857Y0049713D01*
X0067857Y0049712D02*
X0064786Y0049712D01*
X0064786Y0049711D02*
X0067857Y0049711D01*
X0067857Y0049710D02*
X0064786Y0049710D01*
X0064786Y0049709D02*
X0067857Y0049709D01*
X0067857Y0049708D02*
X0064786Y0049708D01*
X0064786Y0049707D02*
X0067857Y0049707D01*
X0067857Y0049706D02*
X0064786Y0049706D01*
X0067857Y0049706D01*
X0067857Y0049705D02*
X0064786Y0049705D01*
X0064786Y0049704D02*
X0067857Y0049704D01*
X0067857Y0049703D02*
X0064786Y0049703D01*
X0064786Y0049702D02*
X0067857Y0049702D01*
X0067857Y0049701D02*
X0064786Y0049701D01*
X0064786Y0049700D02*
X0067857Y0049700D01*
X0067857Y0049699D02*
X0064786Y0049699D01*
X0064786Y0049698D02*
X0067857Y0049698D01*
X0067857Y0049697D02*
X0064786Y0049697D01*
X0064786Y0049696D02*
X0067857Y0049696D01*
X0067857Y0049695D02*
X0064786Y0049695D01*
X0064786Y0049694D02*
X0067857Y0049694D01*
X0067857Y0049693D02*
X0064786Y0049693D01*
X0064786Y0049692D02*
X0067857Y0049692D01*
X0067857Y0049691D02*
X0064786Y0049691D01*
X0064786Y0049690D02*
X0067857Y0049690D01*
X0067857Y0049689D02*
X0064786Y0049689D01*
X0064786Y0049688D02*
X0067857Y0049688D01*
X0067857Y0049687D02*
X0064786Y0049687D01*
X0064786Y0049686D02*
X0067857Y0049686D01*
X0067857Y0049685D02*
X0064786Y0049685D01*
X0064786Y0049684D02*
X0067857Y0049684D01*
X0067857Y0049683D02*
X0064786Y0049683D01*
X0064786Y0049682D02*
X0067857Y0049682D01*
X0067857Y0049681D02*
X0064786Y0049681D01*
X0064786Y0049680D02*
X0067857Y0049680D01*
X0067857Y0049679D02*
X0064786Y0049679D01*
X0064786Y0049678D02*
X0067857Y0049678D01*
X0067857Y0049677D02*
X0064786Y0049677D01*
X0064786Y0049676D02*
X0067857Y0049676D01*
X0067857Y0049675D02*
X0064786Y0049675D01*
X0064786Y0049674D02*
X0067857Y0049674D01*
X0067857Y0049673D02*
X0064786Y0049673D01*
X0064786Y0049672D02*
X0067857Y0049672D01*
X0067857Y0049671D02*
X0064786Y0049671D01*
X0064786Y0049670D02*
X0067857Y0049670D01*
X0067857Y0049669D02*
X0064786Y0049669D01*
X0064786Y0049668D02*
X0067857Y0049668D01*
X0067857Y0049667D02*
X0064786Y0049667D01*
X0064786Y0049666D02*
X0067857Y0049666D01*
X0067857Y0049665D02*
X0064786Y0049665D01*
X0064786Y0049664D02*
X0067857Y0049664D01*
X0067857Y0049663D02*
X0064786Y0049663D01*
X0064786Y0049662D02*
X0067857Y0049662D01*
X0067857Y0049661D02*
X0064786Y0049661D01*
X0064786Y0049660D02*
X0067857Y0049660D01*
X0067857Y0049659D02*
X0064786Y0049659D01*
X0064786Y0049658D02*
X0067857Y0049658D01*
X0067857Y0049657D02*
X0064786Y0049657D01*
X0064786Y0049656D02*
X0067857Y0049656D01*
X0067857Y0049655D02*
X0064786Y0049655D01*
X0064786Y0049654D02*
X0067857Y0049654D01*
X0067857Y0049653D02*
X0064786Y0049653D01*
X0064786Y0049652D02*
X0067857Y0049652D01*
X0067857Y0049651D02*
X0064786Y0049651D01*
X0064786Y0049650D02*
X0067857Y0049650D01*
X0067857Y0049649D02*
X0064786Y0049649D01*
X0064786Y0049648D02*
X0067857Y0049648D01*
X0067857Y0049647D02*
X0064786Y0049647D01*
X0064786Y0049646D02*
X0067857Y0049646D01*
X0067857Y0049645D02*
X0064786Y0049645D01*
X0064786Y0049644D02*
X0067857Y0049644D01*
X0064786Y0049644D01*
X0064786Y0049643D02*
X0067857Y0049643D01*
X0067857Y0049642D02*
X0064786Y0049642D01*
X0064786Y0049641D02*
X0067857Y0049641D01*
X0067857Y0049640D02*
X0064786Y0049640D01*
X0064786Y0049639D02*
X0067857Y0049639D01*
X0067857Y0049638D02*
X0064786Y0049638D01*
X0064786Y0049637D02*
X0067857Y0049637D01*
X0067857Y0049636D02*
X0064786Y0049636D01*
X0064786Y0049635D02*
X0067857Y0049635D01*
X0067857Y0049634D02*
X0064786Y0049634D01*
X0064786Y0049633D02*
X0067857Y0049633D01*
X0067857Y0049632D02*
X0064786Y0049632D01*
X0064786Y0049631D02*
X0067857Y0049631D01*
X0067857Y0049630D02*
X0064786Y0049630D01*
X0064786Y0049629D02*
X0067857Y0049629D01*
X0067857Y0049628D02*
X0064786Y0049628D01*
X0064786Y0049627D02*
X0067857Y0049627D01*
X0067857Y0049626D02*
X0064786Y0049626D01*
X0064786Y0049625D02*
X0067857Y0049625D01*
X0067857Y0049624D02*
X0064786Y0049624D01*
X0064786Y0049623D02*
X0067857Y0049623D01*
X0067857Y0049622D02*
X0064786Y0049622D01*
X0064786Y0049621D02*
X0067857Y0049621D01*
X0067857Y0049620D02*
X0064786Y0049620D01*
X0064786Y0049619D02*
X0067857Y0049619D01*
X0067857Y0049618D02*
X0064786Y0049618D01*
X0064786Y0049617D02*
X0067857Y0049617D01*
X0067857Y0049616D02*
X0064786Y0049616D01*
X0064786Y0049615D02*
X0067857Y0049615D01*
X0067857Y0049614D02*
X0064786Y0049614D01*
X0064786Y0049613D02*
X0067857Y0049613D01*
X0067857Y0049612D02*
X0064786Y0049612D01*
X0064786Y0049611D02*
X0067857Y0049611D01*
X0067857Y0049610D02*
X0064786Y0049610D01*
X0064786Y0049609D02*
X0067857Y0049609D01*
X0067857Y0049608D02*
X0064786Y0049608D01*
X0064786Y0049607D02*
X0067857Y0049607D01*
X0067857Y0049606D02*
X0064786Y0049606D01*
X0064786Y0049605D02*
X0067857Y0049605D01*
X0067857Y0049604D02*
X0064786Y0049604D01*
X0064786Y0049603D02*
X0067857Y0049603D01*
X0067857Y0049602D02*
X0064786Y0049602D01*
X0064786Y0049601D02*
X0067857Y0049601D01*
X0067857Y0049600D02*
X0064786Y0049600D01*
X0064786Y0049599D02*
X0067857Y0049599D01*
X0067857Y0049598D02*
X0064786Y0049598D01*
X0064786Y0049597D02*
X0067857Y0049597D01*
X0067857Y0049596D02*
X0064786Y0049596D01*
X0064786Y0049595D02*
X0067857Y0049595D01*
X0067857Y0049594D02*
X0064786Y0049594D01*
X0064786Y0049593D02*
X0067857Y0049593D01*
X0067857Y0049592D02*
X0064786Y0049592D01*
X0064786Y0049591D02*
X0067857Y0049591D01*
X0067857Y0049590D02*
X0064786Y0049590D01*
X0064786Y0049589D02*
X0067857Y0049589D01*
X0067857Y0049588D02*
X0064786Y0049588D01*
X0064786Y0049587D02*
X0067857Y0049587D01*
X0067857Y0049586D02*
X0064786Y0049586D01*
X0064786Y0049585D02*
X0067857Y0049585D01*
X0067857Y0049584D02*
X0064786Y0049584D01*
X0064786Y0049583D02*
X0067857Y0049583D01*
X0067857Y0049582D02*
X0064786Y0049582D01*
X0064786Y0049581D02*
X0067857Y0049581D01*
X0064786Y0049581D01*
X0064786Y0049580D02*
X0067857Y0049580D01*
X0067857Y0049579D02*
X0064786Y0049579D01*
X0064786Y0049578D02*
X0067857Y0049578D01*
X0067857Y0049577D02*
X0064786Y0049577D01*
X0064786Y0049576D02*
X0067857Y0049576D01*
X0067857Y0049575D02*
X0064786Y0049575D01*
X0064786Y0049574D02*
X0067857Y0049574D01*
X0067857Y0049573D02*
X0064786Y0049573D01*
X0064786Y0049572D02*
X0067857Y0049572D01*
X0067857Y0049571D02*
X0064786Y0049571D01*
X0064786Y0049570D02*
X0067857Y0049570D01*
X0067857Y0049569D02*
X0064786Y0049569D01*
X0064786Y0049568D02*
X0067857Y0049568D01*
X0067857Y0049567D02*
X0064786Y0049567D01*
X0064786Y0049566D02*
X0067857Y0049566D01*
X0067857Y0049565D02*
X0064786Y0049565D01*
X0064786Y0049564D02*
X0067857Y0049564D01*
X0067857Y0049563D02*
X0064786Y0049563D01*
X0064786Y0049562D02*
X0067857Y0049562D01*
X0067857Y0049561D02*
X0064786Y0049561D01*
X0064786Y0049560D02*
X0067857Y0049560D01*
X0067857Y0049559D02*
X0064786Y0049559D01*
X0064786Y0049558D02*
X0067857Y0049558D01*
X0067857Y0049557D02*
X0064786Y0049557D01*
X0064786Y0049556D02*
X0067857Y0049556D01*
X0067857Y0049555D02*
X0064786Y0049555D01*
X0064786Y0049554D02*
X0067857Y0049554D01*
X0067857Y0049553D02*
X0064786Y0049553D01*
X0064786Y0049552D02*
X0067857Y0049552D01*
X0067857Y0049551D02*
X0064786Y0049551D01*
X0064786Y0049550D02*
X0067857Y0049550D01*
X0067857Y0049549D02*
X0064786Y0049549D01*
X0064786Y0049548D02*
X0067857Y0049548D01*
X0067857Y0049547D02*
X0064786Y0049547D01*
X0064786Y0049546D02*
X0067857Y0049546D01*
X0067857Y0049545D02*
X0064786Y0049545D01*
X0064786Y0049544D02*
X0067857Y0049544D01*
X0067857Y0049543D02*
X0064786Y0049543D01*
X0064786Y0049542D02*
X0067857Y0049542D01*
X0067857Y0049541D02*
X0064786Y0049541D01*
X0064786Y0049540D02*
X0067857Y0049540D01*
X0067857Y0049539D02*
X0064786Y0049539D01*
X0064786Y0049538D02*
X0067857Y0049538D01*
X0067857Y0049537D02*
X0064786Y0049537D01*
X0064786Y0049536D02*
X0067857Y0049536D01*
X0067857Y0049535D02*
X0064786Y0049535D01*
X0064786Y0049534D02*
X0067857Y0049534D01*
X0067857Y0049533D02*
X0064786Y0049533D01*
X0064786Y0049532D02*
X0067857Y0049532D01*
X0067857Y0049531D02*
X0064786Y0049531D01*
X0064786Y0049530D02*
X0067857Y0049530D01*
X0067857Y0049529D02*
X0064786Y0049529D01*
X0064786Y0049528D02*
X0067857Y0049528D01*
X0067857Y0049527D02*
X0064786Y0049527D01*
X0064786Y0049526D02*
X0067857Y0049526D01*
X0067857Y0049525D02*
X0064786Y0049525D01*
X0064786Y0049524D02*
X0067857Y0049524D01*
X0067857Y0049523D02*
X0064786Y0049523D01*
X0064786Y0049522D02*
X0067857Y0049522D01*
X0067857Y0049521D02*
X0064786Y0049521D01*
X0064786Y0049520D02*
X0067857Y0049520D01*
X0067857Y0049519D02*
X0064786Y0049519D01*
X0067857Y0049519D01*
X0067857Y0049518D02*
X0064786Y0049518D01*
X0064786Y0049517D02*
X0067857Y0049517D01*
X0067857Y0049516D02*
X0064786Y0049516D01*
X0064786Y0049515D02*
X0067857Y0049515D01*
X0067857Y0049514D02*
X0064786Y0049514D01*
X0064786Y0049513D02*
X0067857Y0049513D01*
X0067857Y0049512D02*
X0064786Y0049512D01*
X0064786Y0049511D02*
X0067857Y0049511D01*
X0067857Y0049510D02*
X0064786Y0049510D01*
X0064786Y0049509D02*
X0067857Y0049509D01*
X0067857Y0049508D02*
X0064786Y0049508D01*
X0064786Y0049507D02*
X0067857Y0049507D01*
X0067857Y0049506D02*
X0064786Y0049506D01*
X0064786Y0049505D02*
X0067857Y0049505D01*
X0067857Y0049504D02*
X0064786Y0049504D01*
X0064786Y0049503D02*
X0067857Y0049503D01*
X0067857Y0049502D02*
X0064786Y0049502D01*
X0064786Y0049501D02*
X0067857Y0049501D01*
X0067857Y0049500D02*
X0064786Y0049500D01*
X0064786Y0049499D02*
X0067857Y0049499D01*
X0067857Y0049498D02*
X0064786Y0049498D01*
X0064786Y0049497D02*
X0067857Y0049497D01*
X0067857Y0049496D02*
X0064786Y0049496D01*
X0064786Y0049495D02*
X0067857Y0049495D01*
X0067857Y0049494D02*
X0064786Y0049494D01*
X0064786Y0049493D02*
X0067857Y0049493D01*
X0067857Y0049492D02*
X0064786Y0049492D01*
X0064786Y0049491D02*
X0067857Y0049491D01*
X0067857Y0049490D02*
X0064786Y0049490D01*
X0064786Y0049489D02*
X0067857Y0049489D01*
X0067857Y0049488D02*
X0064786Y0049488D01*
X0064786Y0049487D02*
X0067857Y0049487D01*
X0067857Y0049486D02*
X0064786Y0049486D01*
X0064786Y0049485D02*
X0067857Y0049485D01*
X0067857Y0049484D02*
X0064786Y0049484D01*
X0064786Y0049483D02*
X0067857Y0049483D01*
X0067857Y0049482D02*
X0064786Y0049482D01*
X0064786Y0049481D02*
X0067857Y0049481D01*
X0067857Y0049480D02*
X0064786Y0049480D01*
X0064786Y0049479D02*
X0067857Y0049479D01*
X0067857Y0049478D02*
X0064786Y0049478D01*
X0064786Y0049477D02*
X0067857Y0049477D01*
X0067857Y0049476D02*
X0064786Y0049476D01*
X0064786Y0049475D02*
X0067857Y0049475D01*
X0067857Y0049474D02*
X0064786Y0049474D01*
X0064786Y0049473D02*
X0067857Y0049473D01*
X0067857Y0049472D02*
X0064786Y0049472D01*
X0064786Y0049471D02*
X0067857Y0049471D01*
X0067857Y0049470D02*
X0064786Y0049470D01*
X0064786Y0049469D02*
X0067857Y0049469D01*
X0067857Y0049468D02*
X0064786Y0049468D01*
X0064786Y0049467D02*
X0067857Y0049467D01*
X0067857Y0049466D02*
X0064786Y0049466D01*
X0064786Y0049465D02*
X0067857Y0049465D01*
X0067857Y0049464D02*
X0064786Y0049464D01*
X0064786Y0049463D02*
X0067857Y0049463D01*
X0067857Y0049462D02*
X0064786Y0049462D01*
X0064786Y0049461D02*
X0067857Y0049461D01*
X0067857Y0049460D02*
X0064786Y0049460D01*
X0064786Y0049459D02*
X0067857Y0049459D01*
X0067857Y0049458D02*
X0064786Y0049458D01*
X0064786Y0049457D02*
X0067857Y0049457D01*
X0067857Y0049456D02*
X0064786Y0049456D01*
X0067857Y0049456D01*
X0067857Y0049455D02*
X0064786Y0049455D01*
X0064786Y0049454D02*
X0067857Y0049454D01*
X0067857Y0049453D02*
X0064786Y0049453D01*
X0064786Y0049452D02*
X0067857Y0049452D01*
X0067857Y0049451D02*
X0064786Y0049451D01*
X0064786Y0049450D02*
X0067857Y0049450D01*
X0067857Y0049449D02*
X0064786Y0049449D01*
X0064786Y0049448D02*
X0067857Y0049448D01*
X0067857Y0049447D02*
X0064786Y0049447D01*
X0064786Y0049446D02*
X0067857Y0049446D01*
X0067857Y0049445D02*
X0064786Y0049445D01*
X0064786Y0049444D02*
X0067857Y0049444D01*
X0067857Y0049443D02*
X0064786Y0049443D01*
X0064786Y0049442D02*
X0067857Y0049442D01*
X0067857Y0049441D02*
X0064786Y0049441D01*
X0064786Y0049440D02*
X0067857Y0049440D01*
X0067857Y0049439D02*
X0064786Y0049439D01*
X0064786Y0049438D02*
X0067857Y0049438D01*
X0067857Y0049437D02*
X0064786Y0049437D01*
X0064786Y0049436D02*
X0067857Y0049436D01*
X0067857Y0049435D02*
X0064786Y0049435D01*
X0064786Y0049434D02*
X0067857Y0049434D01*
X0067857Y0049433D02*
X0064786Y0049433D01*
X0064786Y0049432D02*
X0067857Y0049432D01*
X0067857Y0049431D02*
X0064786Y0049431D01*
X0064786Y0049430D02*
X0067857Y0049430D01*
X0067857Y0049429D02*
X0064786Y0049429D01*
X0064786Y0049428D02*
X0067857Y0049428D01*
X0067857Y0049427D02*
X0064786Y0049427D01*
X0064786Y0049426D02*
X0067857Y0049426D01*
X0067857Y0049425D02*
X0064786Y0049425D01*
X0064786Y0049424D02*
X0067857Y0049424D01*
X0067857Y0049423D02*
X0064786Y0049423D01*
X0064786Y0049422D02*
X0067857Y0049422D01*
X0067857Y0049421D02*
X0064786Y0049421D01*
X0064786Y0049420D02*
X0067857Y0049420D01*
X0067857Y0049419D02*
X0064786Y0049419D01*
X0064786Y0049418D02*
X0067857Y0049418D01*
X0067857Y0049417D02*
X0064786Y0049417D01*
X0064786Y0049416D02*
X0067857Y0049416D01*
X0067857Y0049415D02*
X0064786Y0049415D01*
X0064786Y0049414D02*
X0067857Y0049414D01*
X0067857Y0049413D02*
X0064786Y0049413D01*
X0064786Y0049412D02*
X0067857Y0049412D01*
X0067857Y0049411D02*
X0064786Y0049411D01*
X0064786Y0049410D02*
X0067857Y0049410D01*
X0067857Y0049409D02*
X0064786Y0049409D01*
X0064786Y0049408D02*
X0067857Y0049408D01*
X0067857Y0049407D02*
X0064786Y0049407D01*
X0064786Y0049406D02*
X0067857Y0049406D01*
X0067857Y0049405D02*
X0064786Y0049405D01*
X0064786Y0049404D02*
X0067857Y0049404D01*
X0067857Y0049403D02*
X0064786Y0049403D01*
X0064786Y0049402D02*
X0067857Y0049402D01*
X0067857Y0049401D02*
X0064786Y0049401D01*
X0064786Y0049400D02*
X0067857Y0049400D01*
X0067857Y0049399D02*
X0064786Y0049399D01*
X0064786Y0049398D02*
X0067857Y0049398D01*
X0067857Y0049397D02*
X0064786Y0049397D01*
X0064786Y0049396D02*
X0067857Y0049396D01*
X0067857Y0049395D02*
X0064786Y0049395D01*
X0064786Y0049394D02*
X0067857Y0049394D01*
X0064786Y0049394D01*
X0064786Y0049393D02*
X0067857Y0049393D01*
X0067857Y0049392D02*
X0064786Y0049392D01*
X0064786Y0049391D02*
X0067857Y0049391D01*
X0067857Y0049390D02*
X0064786Y0049390D01*
X0064786Y0049389D02*
X0067857Y0049389D01*
X0067857Y0049388D02*
X0064786Y0049388D01*
X0064786Y0049387D02*
X0067857Y0049387D01*
X0067857Y0049386D02*
X0064786Y0049386D01*
X0064786Y0049385D02*
X0067857Y0049385D01*
X0067857Y0049384D02*
X0064786Y0049384D01*
X0064786Y0049383D02*
X0067857Y0049383D01*
X0067857Y0049382D02*
X0064786Y0049382D01*
X0064786Y0049381D02*
X0067857Y0049381D01*
X0067857Y0049380D02*
X0064786Y0049380D01*
X0064786Y0049379D02*
X0067857Y0049379D01*
X0067857Y0049378D02*
X0064786Y0049378D01*
X0064786Y0049377D02*
X0067857Y0049377D01*
X0067857Y0049376D02*
X0064786Y0049376D01*
X0064786Y0049375D02*
X0067857Y0049375D01*
X0067857Y0049374D02*
X0064786Y0049374D01*
X0064786Y0049373D02*
X0067857Y0049373D01*
X0067857Y0049372D02*
X0064786Y0049372D01*
X0064786Y0049371D02*
X0067857Y0049371D01*
X0067857Y0049370D02*
X0064786Y0049370D01*
X0064786Y0049369D02*
X0067857Y0049369D01*
X0067857Y0049368D02*
X0064786Y0049368D01*
X0064786Y0049367D02*
X0067857Y0049367D01*
X0067857Y0049366D02*
X0064786Y0049366D01*
X0064786Y0049365D02*
X0067857Y0049365D01*
X0067857Y0049364D02*
X0064786Y0049364D01*
X0064786Y0049363D02*
X0067857Y0049363D01*
X0067857Y0049362D02*
X0064786Y0049362D01*
X0064786Y0049361D02*
X0067857Y0049361D01*
X0067857Y0049360D02*
X0064786Y0049360D01*
X0064786Y0049359D02*
X0067857Y0049359D01*
X0067857Y0049358D02*
X0064786Y0049358D01*
X0064786Y0049357D02*
X0067857Y0049357D01*
X0067857Y0049356D02*
X0064786Y0049356D01*
X0064786Y0049355D02*
X0067857Y0049355D01*
X0067857Y0049354D02*
X0064786Y0049354D01*
X0064786Y0049353D02*
X0067857Y0049353D01*
X0067857Y0049352D02*
X0064786Y0049352D01*
X0064786Y0049351D02*
X0067857Y0049351D01*
X0067857Y0049350D02*
X0064786Y0049350D01*
X0064786Y0049349D02*
X0067857Y0049349D01*
X0067857Y0049348D02*
X0064786Y0049348D01*
X0064786Y0049347D02*
X0067857Y0049347D01*
X0067857Y0049346D02*
X0064786Y0049346D01*
X0064786Y0049345D02*
X0067857Y0049345D01*
X0067857Y0049344D02*
X0064786Y0049344D01*
X0064786Y0049343D02*
X0067857Y0049343D01*
X0067857Y0049342D02*
X0064786Y0049342D01*
X0064786Y0049341D02*
X0067857Y0049341D01*
X0067857Y0049340D02*
X0064786Y0049340D01*
X0064786Y0049339D02*
X0067857Y0049339D01*
X0067857Y0049338D02*
X0064786Y0049338D01*
X0064786Y0049337D02*
X0067857Y0049337D01*
X0067857Y0049336D02*
X0064786Y0049336D01*
X0064786Y0049335D02*
X0067857Y0049335D01*
X0067857Y0049334D02*
X0064786Y0049334D01*
X0064786Y0049333D02*
X0067857Y0049333D01*
X0067857Y0049332D02*
X0064786Y0049332D01*
X0064786Y0049331D02*
X0067857Y0049331D01*
X0064786Y0049331D01*
X0064786Y0049330D02*
X0067857Y0049330D01*
X0067857Y0049329D02*
X0064786Y0049329D01*
X0064786Y0049328D02*
X0067857Y0049328D01*
X0067857Y0049327D02*
X0064786Y0049327D01*
X0064786Y0049326D02*
X0067857Y0049326D01*
X0067857Y0049325D02*
X0064786Y0049325D01*
X0064786Y0049324D02*
X0067857Y0049324D01*
X0067857Y0049323D02*
X0064786Y0049323D01*
X0064786Y0049322D02*
X0067857Y0049322D01*
X0067857Y0049321D02*
X0064786Y0049321D01*
X0064786Y0049320D02*
X0067857Y0049320D01*
X0067857Y0049319D02*
X0064786Y0049319D01*
X0064786Y0049318D02*
X0067857Y0049318D01*
X0067857Y0049317D02*
X0064786Y0049317D01*
X0064786Y0049316D02*
X0067857Y0049316D01*
X0067857Y0049315D02*
X0064786Y0049315D01*
X0064786Y0049314D02*
X0067857Y0049314D01*
X0067857Y0049313D02*
X0064786Y0049313D01*
X0064786Y0049312D02*
X0067857Y0049312D01*
X0067857Y0049311D02*
X0064786Y0049311D01*
X0064786Y0049310D02*
X0067857Y0049310D01*
X0067857Y0049309D02*
X0064786Y0049309D01*
X0064786Y0049308D02*
X0067857Y0049308D01*
X0067857Y0049307D02*
X0064786Y0049307D01*
X0064786Y0049306D02*
X0067857Y0049306D01*
X0067857Y0049305D02*
X0064786Y0049305D01*
X0064786Y0049304D02*
X0067857Y0049304D01*
X0067857Y0049303D02*
X0064786Y0049303D01*
X0064786Y0049302D02*
X0067857Y0049302D01*
X0067857Y0049301D02*
X0064786Y0049301D01*
X0064786Y0049300D02*
X0067857Y0049300D01*
X0067857Y0049299D02*
X0064786Y0049299D01*
X0064786Y0049298D02*
X0067857Y0049298D01*
X0067857Y0049297D02*
X0064786Y0049297D01*
X0064786Y0049296D02*
X0067857Y0049296D01*
X0067857Y0049295D02*
X0064786Y0049295D01*
X0064786Y0049294D02*
X0067857Y0049294D01*
X0067857Y0049293D02*
X0064786Y0049293D01*
X0064786Y0049292D02*
X0067857Y0049292D01*
X0067857Y0049291D02*
X0064786Y0049291D01*
X0064786Y0049290D02*
X0067857Y0049290D01*
X0067857Y0049289D02*
X0064786Y0049289D01*
X0064786Y0049288D02*
X0067857Y0049288D01*
X0067857Y0049287D02*
X0064786Y0049287D01*
X0064786Y0049286D02*
X0067857Y0049286D01*
X0067857Y0049285D02*
X0064786Y0049285D01*
X0064786Y0049284D02*
X0067857Y0049284D01*
X0067857Y0049283D02*
X0064786Y0049283D01*
X0064786Y0049282D02*
X0067857Y0049282D01*
X0067857Y0049281D02*
X0064786Y0049281D01*
X0064786Y0049280D02*
X0067857Y0049280D01*
X0067857Y0049279D02*
X0064786Y0049279D01*
X0064786Y0049278D02*
X0067857Y0049278D01*
X0067857Y0049277D02*
X0064786Y0049277D01*
X0064786Y0049276D02*
X0067857Y0049276D01*
X0067857Y0049275D02*
X0064786Y0049275D01*
X0064786Y0049274D02*
X0067857Y0049274D01*
X0067857Y0049273D02*
X0064786Y0049273D01*
X0064786Y0049272D02*
X0067857Y0049272D01*
X0067857Y0049271D02*
X0064786Y0049271D01*
X0064786Y0049270D02*
X0067857Y0049270D01*
X0067857Y0049269D02*
X0064786Y0049269D01*
X0067857Y0049269D01*
X0067857Y0049268D02*
X0064786Y0049268D01*
X0064786Y0049267D02*
X0067857Y0049267D01*
X0067857Y0049266D02*
X0064786Y0049266D01*
X0064786Y0049265D02*
X0067857Y0049265D01*
X0067857Y0049264D02*
X0064786Y0049264D01*
X0064786Y0049263D02*
X0067857Y0049263D01*
X0067857Y0049262D02*
X0064786Y0049262D01*
X0064786Y0049261D02*
X0067857Y0049261D01*
X0067857Y0049260D02*
X0064786Y0049260D01*
X0064786Y0049259D02*
X0067857Y0049259D01*
X0067857Y0049258D02*
X0064786Y0049258D01*
X0064786Y0049257D02*
X0067857Y0049257D01*
X0067857Y0049256D02*
X0064786Y0049256D01*
X0064786Y0049255D02*
X0067857Y0049255D01*
X0067857Y0049254D02*
X0064786Y0049254D01*
X0064786Y0049253D02*
X0067857Y0049253D01*
X0067857Y0049252D02*
X0064786Y0049252D01*
X0064786Y0049251D02*
X0067857Y0049251D01*
X0067857Y0049250D02*
X0064786Y0049250D01*
X0064786Y0049249D02*
X0067857Y0049249D01*
X0067857Y0049248D02*
X0064786Y0049248D01*
X0064786Y0049247D02*
X0067857Y0049247D01*
X0067857Y0049246D02*
X0064786Y0049246D01*
X0064786Y0049245D02*
X0067857Y0049245D01*
X0067857Y0049244D02*
X0064786Y0049244D01*
X0064786Y0049243D02*
X0067857Y0049243D01*
X0067857Y0049242D02*
X0064786Y0049242D01*
X0064786Y0049241D02*
X0067857Y0049241D01*
X0067857Y0049836D02*
X0064786Y0049836D01*
X0064786Y0049837D02*
X0067857Y0049837D01*
X0067857Y0049838D02*
X0064786Y0049838D01*
X0064786Y0049839D02*
X0067857Y0049839D01*
X0067857Y0049840D02*
X0064786Y0049840D01*
X0064786Y0049841D02*
X0067857Y0049841D01*
X0067857Y0049842D02*
X0064786Y0049842D01*
X0064786Y0049843D02*
X0067857Y0049843D01*
X0067857Y0049844D02*
X0064786Y0049844D01*
X0064786Y0049845D02*
X0067857Y0049845D01*
X0067857Y0049846D02*
X0064786Y0049846D01*
X0064786Y0049847D02*
X0067857Y0049847D01*
X0067857Y0049848D02*
X0064786Y0049848D01*
X0064786Y0049849D02*
X0067857Y0049849D01*
X0067857Y0049850D02*
X0064786Y0049850D01*
X0064786Y0049851D02*
X0067857Y0049851D01*
X0067857Y0049852D02*
X0064786Y0049852D01*
X0064786Y0049853D02*
X0067857Y0049853D01*
X0067857Y0049854D02*
X0064786Y0049854D01*
X0064786Y0049855D02*
X0067857Y0049855D01*
X0067857Y0049856D02*
X0064786Y0049856D01*
X0064786Y0049857D02*
X0067857Y0049857D01*
X0067857Y0049858D02*
X0064786Y0049858D01*
X0064786Y0049859D02*
X0067857Y0049859D01*
X0067857Y0049860D02*
X0064786Y0049860D01*
X0064786Y0049861D02*
X0067857Y0049861D01*
X0067857Y0049862D02*
X0064786Y0049862D01*
X0064786Y0049863D02*
X0067857Y0049863D01*
X0067857Y0049864D02*
X0064786Y0049864D01*
X0064786Y0049865D02*
X0067857Y0049865D01*
X0067857Y0049866D02*
X0064786Y0049866D01*
X0064786Y0049867D02*
X0067857Y0049867D01*
X0067857Y0049868D02*
X0064786Y0049868D01*
X0064786Y0049869D02*
X0067857Y0049869D01*
X0067857Y0049870D02*
X0064786Y0049870D01*
X0064786Y0049871D02*
X0067857Y0049871D01*
X0067857Y0049872D02*
X0064786Y0049872D01*
X0064786Y0049873D02*
X0067857Y0049873D01*
X0067857Y0049874D02*
X0064786Y0049874D01*
X0064786Y0049875D02*
X0067857Y0049875D01*
X0067857Y0049876D02*
X0064786Y0049876D01*
X0064786Y0049877D02*
X0067857Y0049877D01*
X0067857Y0049878D02*
X0064786Y0049878D01*
X0064786Y0049879D02*
X0067857Y0049879D01*
X0067857Y0049880D02*
X0064786Y0049880D01*
X0064786Y0049881D02*
X0067857Y0049881D01*
X0067857Y0049882D02*
X0064786Y0049882D01*
X0064786Y0049883D02*
X0067857Y0049883D01*
X0067857Y0049884D02*
X0064786Y0049884D01*
X0064786Y0049885D02*
X0067857Y0049885D01*
X0067857Y0049886D02*
X0064786Y0049886D01*
X0064786Y0049887D02*
X0067857Y0049887D01*
X0067857Y0049888D02*
X0064786Y0049888D01*
X0064786Y0049889D02*
X0067857Y0049889D01*
X0067857Y0049890D02*
X0064786Y0049890D01*
X0064786Y0049891D02*
X0067857Y0049891D01*
X0067857Y0049892D02*
X0064786Y0049892D01*
X0064786Y0049893D02*
X0067857Y0049893D01*
X0067857Y0049894D02*
X0064786Y0049894D01*
X0067857Y0049894D01*
X0067857Y0049895D02*
X0064786Y0049895D01*
X0064786Y0049896D02*
X0067857Y0049896D01*
X0067857Y0049897D02*
X0064786Y0049897D01*
X0064786Y0049898D02*
X0067857Y0049898D01*
X0067857Y0049899D02*
X0064786Y0049899D01*
X0064786Y0049900D02*
X0067857Y0049900D01*
X0067857Y0049901D02*
X0064786Y0049901D01*
X0064786Y0049902D02*
X0067857Y0049902D01*
X0067857Y0049903D02*
X0064786Y0049903D01*
X0064786Y0049904D02*
X0067857Y0049904D01*
X0067857Y0049905D02*
X0064786Y0049905D01*
X0064786Y0049906D02*
X0067857Y0049906D01*
X0067857Y0049907D02*
X0064786Y0049907D01*
X0064786Y0049908D02*
X0067857Y0049908D01*
X0067857Y0049909D02*
X0064786Y0049909D01*
X0064786Y0049910D02*
X0067857Y0049910D01*
X0067857Y0049911D02*
X0064786Y0049911D01*
X0064786Y0049912D02*
X0067857Y0049912D01*
X0067857Y0049913D02*
X0064786Y0049913D01*
X0064786Y0049914D02*
X0067857Y0049914D01*
X0067857Y0049915D02*
X0064786Y0049915D01*
X0064786Y0049916D02*
X0067857Y0049916D01*
X0067857Y0049917D02*
X0064786Y0049917D01*
X0064786Y0049918D02*
X0067857Y0049918D01*
X0067857Y0049919D02*
X0064786Y0049919D01*
X0064786Y0049920D02*
X0067857Y0049920D01*
X0067857Y0049921D02*
X0064786Y0049921D01*
X0064786Y0049922D02*
X0067857Y0049922D01*
X0067857Y0049923D02*
X0064786Y0049923D01*
X0064786Y0049924D02*
X0067857Y0049924D01*
X0067857Y0049925D02*
X0064786Y0049925D01*
X0064786Y0049926D02*
X0067857Y0049926D01*
X0067857Y0049927D02*
X0064786Y0049927D01*
X0064786Y0049928D02*
X0067857Y0049928D01*
X0067857Y0049929D02*
X0064786Y0049929D01*
X0064786Y0049930D02*
X0067857Y0049930D01*
X0067857Y0049931D02*
X0064786Y0049931D01*
X0064786Y0049932D02*
X0067857Y0049932D01*
X0067857Y0049933D02*
X0064786Y0049933D01*
X0064786Y0049934D02*
X0067857Y0049934D01*
X0067857Y0049935D02*
X0064786Y0049935D01*
X0064786Y0049936D02*
X0067857Y0049936D01*
X0067857Y0049937D02*
X0064786Y0049937D01*
X0064786Y0049938D02*
X0067857Y0049938D01*
X0067857Y0049939D02*
X0064786Y0049939D01*
X0064786Y0049940D02*
X0067857Y0049940D01*
X0067857Y0049941D02*
X0064786Y0049941D01*
X0064786Y0049942D02*
X0067857Y0049942D01*
X0067857Y0049943D02*
X0064786Y0049943D01*
X0064786Y0049944D02*
X0067857Y0049944D01*
X0067857Y0049945D02*
X0064786Y0049945D01*
X0064786Y0049946D02*
X0067857Y0049946D01*
X0067857Y0049947D02*
X0064786Y0049947D01*
X0064786Y0049948D02*
X0067857Y0049948D01*
X0067857Y0049949D02*
X0064786Y0049949D01*
X0064786Y0049950D02*
X0067857Y0049950D01*
X0067857Y0049951D02*
X0064786Y0049951D01*
X0064786Y0049952D02*
X0067857Y0049952D01*
X0067857Y0049953D02*
X0064786Y0049953D01*
X0064786Y0049954D02*
X0067857Y0049954D01*
X0067857Y0049955D02*
X0064786Y0049955D01*
X0064786Y0049956D02*
X0067857Y0049956D01*
X0064786Y0049956D01*
X0064786Y0049957D02*
X0067857Y0049957D01*
X0067857Y0049958D02*
X0064786Y0049958D01*
X0064786Y0049959D02*
X0067857Y0049959D01*
X0067857Y0049960D02*
X0064786Y0049960D01*
X0064786Y0049961D02*
X0067857Y0049961D01*
X0067857Y0049962D02*
X0064786Y0049962D01*
X0064786Y0049963D02*
X0067857Y0049963D01*
X0067857Y0049964D02*
X0064786Y0049964D01*
X0064786Y0049965D02*
X0067857Y0049965D01*
X0067857Y0049966D02*
X0064786Y0049966D01*
X0064786Y0049967D02*
X0067857Y0049967D01*
X0067857Y0049968D02*
X0064786Y0049968D01*
X0064786Y0049969D02*
X0067857Y0049969D01*
X0067857Y0049970D02*
X0064786Y0049970D01*
X0064786Y0049971D02*
X0067857Y0049971D01*
X0067857Y0049972D02*
X0064786Y0049972D01*
X0064786Y0049973D02*
X0067857Y0049973D01*
X0067857Y0049974D02*
X0064786Y0049974D01*
X0064786Y0049975D02*
X0067857Y0049975D01*
X0067857Y0049976D02*
X0064786Y0049976D01*
X0064786Y0049977D02*
X0067857Y0049977D01*
X0067857Y0049978D02*
X0064786Y0049978D01*
X0064786Y0049979D02*
X0067857Y0049979D01*
X0067857Y0049980D02*
X0064786Y0049980D01*
X0064786Y0049981D02*
X0067857Y0049981D01*
X0067857Y0049982D02*
X0064786Y0049982D01*
X0064786Y0049983D02*
X0067857Y0049983D01*
X0067857Y0049984D02*
X0064786Y0049984D01*
X0064786Y0049985D02*
X0067857Y0049985D01*
X0067857Y0049986D02*
X0064786Y0049986D01*
X0064786Y0049987D02*
X0067857Y0049987D01*
X0067857Y0049988D02*
X0064786Y0049988D01*
X0064786Y0049989D02*
X0067857Y0049989D01*
X0067857Y0049990D02*
X0064786Y0049990D01*
X0064786Y0049991D02*
X0067857Y0049991D01*
X0067857Y0049992D02*
X0064786Y0049992D01*
X0064786Y0049993D02*
X0067857Y0049993D01*
X0067857Y0049994D02*
X0064786Y0049994D01*
X0064786Y0049995D02*
X0067857Y0049995D01*
X0067857Y0049996D02*
X0064786Y0049996D01*
X0064786Y0049997D02*
X0067857Y0049997D01*
X0067857Y0049998D02*
X0064786Y0049998D01*
X0064786Y0049999D02*
X0067857Y0049999D01*
X0067857Y0050000D02*
X0064786Y0050000D01*
X0064786Y0050001D02*
X0067857Y0050001D01*
X0067857Y0050002D02*
X0064786Y0050002D01*
X0064786Y0050003D02*
X0067857Y0050003D01*
X0067857Y0050004D02*
X0064786Y0050004D01*
X0064786Y0050005D02*
X0067857Y0050005D01*
X0067857Y0050006D02*
X0064786Y0050006D01*
X0064786Y0050007D02*
X0067857Y0050007D01*
X0067857Y0050008D02*
X0064786Y0050008D01*
X0064786Y0050009D02*
X0067857Y0050009D01*
X0067857Y0050010D02*
X0064786Y0050010D01*
X0064786Y0050011D02*
X0067857Y0050011D01*
X0067857Y0050012D02*
X0064786Y0050012D01*
X0064786Y0050013D02*
X0067857Y0050013D01*
X0067857Y0050014D02*
X0064786Y0050014D01*
X0064786Y0050015D02*
X0067857Y0050015D01*
X0067857Y0050016D02*
X0064786Y0050016D01*
X0064786Y0050017D02*
X0067857Y0050017D01*
X0067857Y0050018D02*
X0064786Y0050018D01*
X0064786Y0050019D02*
X0067857Y0050019D01*
X0064786Y0050019D01*
X0064786Y0050020D02*
X0067857Y0050020D01*
X0067857Y0050021D02*
X0064786Y0050021D01*
X0064786Y0050022D02*
X0067857Y0050022D01*
X0067857Y0050023D02*
X0064786Y0050023D01*
X0064786Y0050024D02*
X0067857Y0050024D01*
X0067857Y0050025D02*
X0064786Y0050025D01*
X0064786Y0050026D02*
X0067857Y0050026D01*
X0067857Y0050027D02*
X0064786Y0050027D01*
X0064786Y0050028D02*
X0067857Y0050028D01*
X0067857Y0050029D02*
X0064786Y0050029D01*
X0064786Y0050030D02*
X0067857Y0050030D01*
X0067857Y0050031D02*
X0064786Y0050031D01*
X0064786Y0050032D02*
X0067857Y0050032D01*
X0067857Y0050033D02*
X0064786Y0050033D01*
X0064786Y0050034D02*
X0067857Y0050034D01*
X0067857Y0050035D02*
X0064786Y0050035D01*
X0064786Y0050036D02*
X0067857Y0050036D01*
X0067857Y0050037D02*
X0064786Y0050037D01*
X0064786Y0050038D02*
X0067857Y0050038D01*
X0067857Y0050039D02*
X0064786Y0050039D01*
X0064786Y0050040D02*
X0067857Y0050040D01*
X0067857Y0050041D02*
X0064786Y0050041D01*
X0064786Y0050042D02*
X0067857Y0050042D01*
X0067857Y0050043D02*
X0064786Y0050043D01*
X0064786Y0050044D02*
X0067857Y0050044D01*
X0067857Y0050045D02*
X0064786Y0050045D01*
X0064786Y0050046D02*
X0067857Y0050046D01*
X0067857Y0050047D02*
X0064786Y0050047D01*
X0064786Y0050048D02*
X0067857Y0050048D01*
X0067857Y0050049D02*
X0064786Y0050049D01*
X0064786Y0050050D02*
X0067857Y0050050D01*
X0067857Y0050051D02*
X0064786Y0050051D01*
X0064786Y0050052D02*
X0067857Y0050052D01*
X0067857Y0050053D02*
X0064786Y0050053D01*
X0064786Y0050054D02*
X0067857Y0050054D01*
X0067857Y0050055D02*
X0064786Y0050055D01*
X0064786Y0050056D02*
X0067857Y0050056D01*
X0067857Y0050057D02*
X0064786Y0050057D01*
X0064786Y0050058D02*
X0067857Y0050058D01*
X0067857Y0050059D02*
X0064786Y0050059D01*
X0064786Y0050060D02*
X0067857Y0050060D01*
X0067857Y0050061D02*
X0064786Y0050061D01*
X0064786Y0050062D02*
X0067857Y0050062D01*
X0067857Y0050063D02*
X0064786Y0050063D01*
X0064786Y0050064D02*
X0067857Y0050064D01*
X0067857Y0050065D02*
X0064786Y0050065D01*
X0064786Y0050066D02*
X0067857Y0050066D01*
X0067857Y0050067D02*
X0064786Y0050067D01*
X0064786Y0050068D02*
X0067857Y0050068D01*
X0067857Y0050069D02*
X0064786Y0050069D01*
X0064786Y0050070D02*
X0067857Y0050070D01*
X0067857Y0050071D02*
X0064786Y0050071D01*
X0064786Y0050072D02*
X0067857Y0050072D01*
X0067857Y0050073D02*
X0064786Y0050073D01*
X0064786Y0050074D02*
X0067857Y0050074D01*
X0067857Y0050075D02*
X0064786Y0050075D01*
X0064786Y0050076D02*
X0067857Y0050076D01*
X0067857Y0050077D02*
X0064786Y0050077D01*
X0064786Y0050078D02*
X0067857Y0050078D01*
X0067857Y0050079D02*
X0064786Y0050079D01*
X0064786Y0050080D02*
X0067857Y0050080D01*
X0067857Y0050081D02*
X0064786Y0050081D01*
X0067857Y0050081D01*
X0067857Y0050082D02*
X0064786Y0050082D01*
X0064786Y0050083D02*
X0067857Y0050083D01*
X0067857Y0050084D02*
X0064786Y0050084D01*
X0064786Y0050085D02*
X0067857Y0050085D01*
X0067857Y0050086D02*
X0064786Y0050086D01*
X0064786Y0050087D02*
X0067857Y0050087D01*
X0067857Y0050088D02*
X0064786Y0050088D01*
X0064786Y0050089D02*
X0067857Y0050089D01*
X0067857Y0050090D02*
X0064786Y0050090D01*
X0064786Y0050091D02*
X0067857Y0050091D01*
X0067857Y0050092D02*
X0064786Y0050092D01*
X0064786Y0050093D02*
X0067857Y0050093D01*
X0067857Y0050094D02*
X0064786Y0050094D01*
X0064786Y0050095D02*
X0067857Y0050095D01*
X0067857Y0050096D02*
X0064786Y0050096D01*
X0064786Y0050097D02*
X0067857Y0050097D01*
X0067857Y0050098D02*
X0064786Y0050098D01*
X0064786Y0050099D02*
X0067857Y0050099D01*
X0067857Y0050100D02*
X0064786Y0050100D01*
X0064786Y0050101D02*
X0067857Y0050101D01*
X0067857Y0050102D02*
X0064786Y0050102D01*
X0064786Y0050103D02*
X0067857Y0050103D01*
X0067857Y0050104D02*
X0064786Y0050104D01*
X0064786Y0050105D02*
X0067857Y0050105D01*
X0067857Y0050106D02*
X0064786Y0050106D01*
X0064786Y0050107D02*
X0067857Y0050107D01*
X0067857Y0050108D02*
X0064786Y0050108D01*
X0064786Y0050109D02*
X0067857Y0050109D01*
X0067857Y0050110D02*
X0064786Y0050110D01*
X0064786Y0050111D02*
X0067857Y0050111D01*
X0067857Y0050112D02*
X0064786Y0050112D01*
X0064786Y0050113D02*
X0067857Y0050113D01*
X0067857Y0050114D02*
X0064786Y0050114D01*
X0064786Y0050115D02*
X0067857Y0050115D01*
X0067857Y0050116D02*
X0064786Y0050116D01*
X0064786Y0050117D02*
X0067857Y0050117D01*
X0067857Y0050118D02*
X0064786Y0050118D01*
X0064786Y0050119D02*
X0067857Y0050119D01*
X0067857Y0050120D02*
X0064786Y0050120D01*
X0064786Y0050121D02*
X0067857Y0050121D01*
X0067857Y0050122D02*
X0064786Y0050122D01*
X0064786Y0050123D02*
X0067857Y0050123D01*
X0067857Y0050124D02*
X0064786Y0050124D01*
X0064786Y0050125D02*
X0067857Y0050125D01*
X0067857Y0050126D02*
X0064786Y0050126D01*
X0064786Y0050127D02*
X0067857Y0050127D01*
X0067857Y0050128D02*
X0064786Y0050128D01*
X0064786Y0050129D02*
X0067857Y0050129D01*
X0067857Y0050130D02*
X0064786Y0050130D01*
X0064786Y0050131D02*
X0067857Y0050131D01*
X0067857Y0050132D02*
X0064786Y0050132D01*
X0064786Y0050133D02*
X0067857Y0050133D01*
X0067857Y0050134D02*
X0064786Y0050134D01*
X0064786Y0050135D02*
X0067857Y0050135D01*
X0067857Y0050136D02*
X0064786Y0050136D01*
X0064786Y0050137D02*
X0067857Y0050137D01*
X0067857Y0050138D02*
X0064786Y0050138D01*
X0064786Y0050139D02*
X0067857Y0050139D01*
X0067857Y0050140D02*
X0064786Y0050140D01*
X0064786Y0050141D02*
X0067857Y0050141D01*
X0067857Y0050142D02*
X0064786Y0050142D01*
X0064786Y0050143D02*
X0067857Y0050143D01*
X0067857Y0050144D02*
X0064786Y0050144D01*
X0067857Y0050144D01*
X0067857Y0050145D02*
X0064786Y0050145D01*
X0064786Y0050146D02*
X0067857Y0050146D01*
X0067857Y0050147D02*
X0064786Y0050147D01*
X0064786Y0050148D02*
X0067857Y0050148D01*
X0067857Y0050149D02*
X0064786Y0050149D01*
X0064786Y0050150D02*
X0067857Y0050150D01*
X0067857Y0050151D02*
X0064786Y0050151D01*
X0064786Y0050152D02*
X0067857Y0050152D01*
X0067857Y0050153D02*
X0064786Y0050153D01*
X0064786Y0050154D02*
X0067857Y0050154D01*
X0067857Y0050155D02*
X0064786Y0050155D01*
X0064786Y0050156D02*
X0067857Y0050156D01*
X0067857Y0050157D02*
X0064786Y0050157D01*
X0064786Y0050158D02*
X0067857Y0050158D01*
X0067857Y0050159D02*
X0064786Y0050159D01*
X0064786Y0050160D02*
X0067857Y0050160D01*
X0067857Y0050161D02*
X0064786Y0050161D01*
X0064786Y0050162D02*
X0067857Y0050162D01*
X0067857Y0050163D02*
X0064786Y0050163D01*
X0064786Y0050164D02*
X0067857Y0050164D01*
X0067857Y0050165D02*
X0064786Y0050165D01*
X0064786Y0050166D02*
X0067857Y0050166D01*
X0067857Y0050167D02*
X0064786Y0050167D01*
X0064786Y0050168D02*
X0067857Y0050168D01*
X0067857Y0050169D02*
X0064786Y0050169D01*
X0064786Y0050170D02*
X0067857Y0050170D01*
X0067857Y0050171D02*
X0064786Y0050171D01*
X0064786Y0050172D02*
X0067857Y0050172D01*
X0067857Y0050173D02*
X0064786Y0050173D01*
X0064786Y0050174D02*
X0067857Y0050174D01*
X0067857Y0050175D02*
X0064786Y0050175D01*
X0064786Y0050176D02*
X0067857Y0050176D01*
X0067857Y0050177D02*
X0064786Y0050177D01*
X0064786Y0050178D02*
X0067857Y0050178D01*
X0067857Y0050179D02*
X0064786Y0050179D01*
X0064786Y0050180D02*
X0067857Y0050180D01*
X0067857Y0050181D02*
X0064786Y0050181D01*
X0064786Y0050182D02*
X0067857Y0050182D01*
X0067857Y0050183D02*
X0064786Y0050183D01*
X0064786Y0050184D02*
X0067857Y0050184D01*
X0067857Y0050185D02*
X0064786Y0050185D01*
X0064786Y0050186D02*
X0067857Y0050186D01*
X0067857Y0050187D02*
X0064786Y0050187D01*
X0064786Y0050188D02*
X0067857Y0050188D01*
X0067857Y0050189D02*
X0064786Y0050189D01*
X0064786Y0050190D02*
X0067857Y0050190D01*
X0067857Y0050191D02*
X0064786Y0050191D01*
X0064786Y0050192D02*
X0067857Y0050192D01*
X0067857Y0050193D02*
X0064786Y0050193D01*
X0064786Y0050194D02*
X0067857Y0050194D01*
X0067857Y0050195D02*
X0064786Y0050195D01*
X0064786Y0050196D02*
X0067857Y0050196D01*
X0067857Y0050197D02*
X0064786Y0050197D01*
X0064786Y0050198D02*
X0067857Y0050198D01*
X0067857Y0050199D02*
X0064786Y0050199D01*
X0064786Y0050200D02*
X0067857Y0050200D01*
X0067857Y0050201D02*
X0064786Y0050201D01*
X0064786Y0050202D02*
X0067857Y0050202D01*
X0067857Y0050203D02*
X0064786Y0050203D01*
X0064786Y0050204D02*
X0067857Y0050204D01*
X0067857Y0050205D02*
X0064786Y0050205D01*
X0064786Y0050206D02*
X0067857Y0050206D01*
X0064786Y0050206D01*
X0064786Y0050207D02*
X0067857Y0050207D01*
X0067857Y0050208D02*
X0064786Y0050208D01*
X0064786Y0050209D02*
X0067857Y0050209D01*
X0067857Y0050210D02*
X0064786Y0050210D01*
X0064786Y0050211D02*
X0067857Y0050211D01*
X0067857Y0050212D02*
X0064786Y0050212D01*
X0064786Y0050213D02*
X0067857Y0050213D01*
X0067857Y0050214D02*
X0064786Y0050214D01*
X0064786Y0050215D02*
X0067857Y0050215D01*
X0067857Y0050216D02*
X0064786Y0050216D01*
X0064786Y0050217D02*
X0067857Y0050217D01*
X0067857Y0050218D02*
X0064786Y0050218D01*
X0064786Y0050219D02*
X0067857Y0050219D01*
X0067857Y0050220D02*
X0064786Y0050220D01*
X0064786Y0050221D02*
X0067857Y0050221D01*
X0067857Y0050222D02*
X0064786Y0050222D01*
X0064786Y0050223D02*
X0067857Y0050223D01*
X0067857Y0050224D02*
X0064786Y0050224D01*
X0064786Y0050225D02*
X0067857Y0050225D01*
X0067857Y0050226D02*
X0064786Y0050226D01*
X0064786Y0050227D02*
X0067857Y0050227D01*
X0067857Y0050228D02*
X0064786Y0050228D01*
X0064786Y0050229D02*
X0067857Y0050229D01*
X0067857Y0050230D02*
X0064786Y0050230D01*
X0064786Y0050231D02*
X0067857Y0050231D01*
X0067857Y0050232D02*
X0064786Y0050232D01*
X0064786Y0050233D02*
X0067857Y0050233D01*
X0067857Y0050234D02*
X0064786Y0050234D01*
X0064786Y0050235D02*
X0067857Y0050235D01*
X0067857Y0050236D02*
X0064786Y0050236D01*
X0064786Y0050237D02*
X0067857Y0050237D01*
X0067857Y0050238D02*
X0064786Y0050238D01*
X0064786Y0050239D02*
X0067857Y0050239D01*
X0067857Y0050240D02*
X0064786Y0050240D01*
X0064786Y0050241D02*
X0067857Y0050241D01*
X0067857Y0050242D02*
X0064786Y0050242D01*
X0064786Y0050243D02*
X0067857Y0050243D01*
X0067857Y0050244D02*
X0064786Y0050244D01*
X0064786Y0050245D02*
X0067857Y0050245D01*
X0067857Y0050246D02*
X0064786Y0050246D01*
X0064786Y0050247D02*
X0067857Y0050247D01*
X0067857Y0050248D02*
X0064786Y0050248D01*
X0064786Y0050249D02*
X0067857Y0050249D01*
X0067857Y0050250D02*
X0064786Y0050250D01*
X0064786Y0050251D02*
X0067857Y0050251D01*
X0067857Y0050252D02*
X0064786Y0050252D01*
X0064786Y0050253D02*
X0067857Y0050253D01*
X0067857Y0050254D02*
X0064786Y0050254D01*
X0064786Y0050255D02*
X0067857Y0050255D01*
X0067857Y0050256D02*
X0064786Y0050256D01*
X0064786Y0050257D02*
X0067857Y0050257D01*
X0067857Y0050258D02*
X0064786Y0050258D01*
X0064786Y0050259D02*
X0067857Y0050259D01*
X0067857Y0050260D02*
X0064786Y0050260D01*
X0064786Y0050261D02*
X0067857Y0050261D01*
X0067857Y0050262D02*
X0064786Y0050262D01*
X0064786Y0050263D02*
X0067857Y0050263D01*
X0067857Y0050264D02*
X0064786Y0050264D01*
X0064786Y0050265D02*
X0067857Y0050265D01*
X0067857Y0050266D02*
X0064786Y0050266D01*
X0064786Y0050267D02*
X0067857Y0050267D01*
X0067857Y0050268D02*
X0064786Y0050268D01*
X0064786Y0050269D02*
X0067857Y0050269D01*
X0064786Y0050269D01*
X0064786Y0050270D02*
X0067857Y0050270D01*
X0067857Y0050271D02*
X0064786Y0050271D01*
X0064786Y0050272D02*
X0067857Y0050272D01*
X0067857Y0050273D02*
X0064786Y0050273D01*
X0064786Y0050274D02*
X0067857Y0050274D01*
X0067857Y0050275D02*
X0064786Y0050275D01*
X0064786Y0050276D02*
X0067857Y0050276D01*
X0067857Y0050277D02*
X0064786Y0050277D01*
X0064786Y0050278D02*
X0067857Y0050278D01*
X0067857Y0050279D02*
X0064786Y0050279D01*
X0064786Y0050280D02*
X0067857Y0050280D01*
X0067857Y0050281D02*
X0064786Y0050281D01*
X0064786Y0050282D02*
X0067857Y0050282D01*
X0067857Y0050283D02*
X0064786Y0050283D01*
X0064786Y0050284D02*
X0067857Y0050284D01*
X0067857Y0050285D02*
X0064786Y0050285D01*
X0064786Y0050286D02*
X0067857Y0050286D01*
X0067857Y0050287D02*
X0064786Y0050287D01*
X0064786Y0050288D02*
X0067857Y0050288D01*
X0067857Y0050289D02*
X0064786Y0050289D01*
X0064786Y0050290D02*
X0067857Y0050290D01*
X0067857Y0050291D02*
X0064786Y0050291D01*
X0064786Y0050292D02*
X0067857Y0050292D01*
X0067857Y0050293D02*
X0064786Y0050293D01*
X0064786Y0050294D02*
X0067857Y0050294D01*
X0067857Y0050295D02*
X0064786Y0050295D01*
X0064786Y0050296D02*
X0067857Y0050296D01*
X0067857Y0050297D02*
X0064786Y0050297D01*
X0064786Y0050298D02*
X0067857Y0050298D01*
X0067857Y0050299D02*
X0064786Y0050299D01*
X0064786Y0050300D02*
X0067857Y0050300D01*
X0067857Y0050301D02*
X0064786Y0050301D01*
X0064786Y0050302D02*
X0067857Y0050302D01*
X0067857Y0050303D02*
X0064786Y0050303D01*
X0064786Y0050304D02*
X0067857Y0050304D01*
X0067857Y0050305D02*
X0064786Y0050305D01*
X0064786Y0050306D02*
X0067857Y0050306D01*
X0067857Y0050307D02*
X0064786Y0050307D01*
X0064786Y0050308D02*
X0067857Y0050308D01*
X0067857Y0050309D02*
X0064786Y0050309D01*
X0064786Y0050310D02*
X0067857Y0050310D01*
X0067857Y0050311D02*
X0064786Y0050311D01*
X0064786Y0050312D02*
X0067857Y0050312D01*
X0067857Y0050313D02*
X0064786Y0050313D01*
X0064786Y0050314D02*
X0067857Y0050314D01*
X0067857Y0050315D02*
X0064786Y0050315D01*
X0064786Y0050316D02*
X0067857Y0050316D01*
X0067857Y0050317D02*
X0064786Y0050317D01*
X0064786Y0050318D02*
X0067857Y0050318D01*
X0067857Y0050319D02*
X0064786Y0050319D01*
X0064786Y0050320D02*
X0067857Y0050320D01*
X0067857Y0050321D02*
X0064786Y0050321D01*
X0064786Y0050322D02*
X0067857Y0050322D01*
X0067857Y0050323D02*
X0064786Y0050323D01*
X0064786Y0050324D02*
X0067857Y0050324D01*
X0067857Y0050325D02*
X0064786Y0050325D01*
X0064786Y0050326D02*
X0067857Y0050326D01*
X0067857Y0050327D02*
X0064786Y0050327D01*
X0064786Y0050328D02*
X0067857Y0050328D01*
X0067857Y0050329D02*
X0064786Y0050329D01*
X0064786Y0050330D02*
X0067857Y0050330D01*
X0067857Y0050331D02*
X0064786Y0050331D01*
X0067857Y0050331D01*
X0067857Y0050332D02*
X0064786Y0050332D01*
X0064786Y0050333D02*
X0067857Y0050333D01*
X0067857Y0050334D02*
X0064786Y0050334D01*
X0064786Y0050335D02*
X0067857Y0050335D01*
X0067857Y0050336D02*
X0064786Y0050336D01*
X0064786Y0050337D02*
X0067857Y0050337D01*
X0067857Y0050338D02*
X0064786Y0050338D01*
X0064786Y0050339D02*
X0067857Y0050339D01*
X0067857Y0050340D02*
X0064786Y0050340D01*
X0064786Y0050341D02*
X0067857Y0050341D01*
X0067857Y0050342D02*
X0064786Y0050342D01*
X0064786Y0050343D02*
X0067857Y0050343D01*
X0067857Y0050344D02*
X0064786Y0050344D01*
X0064786Y0050345D02*
X0067857Y0050345D01*
X0067857Y0050346D02*
X0064786Y0050346D01*
X0064786Y0050347D02*
X0067857Y0050347D01*
X0067857Y0050348D02*
X0064786Y0050348D01*
X0064786Y0050349D02*
X0067857Y0050349D01*
X0067857Y0050350D02*
X0064786Y0050350D01*
X0064786Y0050351D02*
X0067857Y0050351D01*
X0067857Y0050352D02*
X0064786Y0050352D01*
X0064786Y0050353D02*
X0067857Y0050353D01*
X0067857Y0050354D02*
X0064786Y0050354D01*
X0064786Y0050355D02*
X0067857Y0050355D01*
X0067857Y0050356D02*
X0064786Y0050356D01*
X0064786Y0050357D02*
X0067857Y0050357D01*
X0067857Y0050358D02*
X0064786Y0050358D01*
X0064786Y0050359D02*
X0067857Y0050359D01*
X0067857Y0050360D02*
X0064786Y0050360D01*
X0064786Y0050361D02*
X0067857Y0050361D01*
X0067857Y0050362D02*
X0064786Y0050362D01*
X0064786Y0050363D02*
X0067857Y0050363D01*
X0067857Y0050364D02*
X0064786Y0050364D01*
X0064786Y0050365D02*
X0067857Y0050365D01*
X0067857Y0050366D02*
X0064786Y0050366D01*
X0064786Y0050367D02*
X0067857Y0050367D01*
X0067857Y0050368D02*
X0064786Y0050368D01*
X0064786Y0050369D02*
X0067857Y0050369D01*
X0067857Y0050370D02*
X0064786Y0050370D01*
X0064786Y0050371D02*
X0067857Y0050371D01*
X0067857Y0050372D02*
X0064786Y0050372D01*
X0064786Y0050373D02*
X0067857Y0050373D01*
X0067857Y0050374D02*
X0064786Y0050374D01*
X0064786Y0050375D02*
X0067857Y0050375D01*
X0067857Y0050376D02*
X0064786Y0050376D01*
X0064786Y0050377D02*
X0067857Y0050377D01*
X0067857Y0050378D02*
X0064786Y0050378D01*
X0064786Y0050379D02*
X0067857Y0050379D01*
X0067857Y0050380D02*
X0064786Y0050380D01*
X0064786Y0050381D02*
X0067857Y0050381D01*
X0067857Y0050382D02*
X0064786Y0050382D01*
X0064786Y0050383D02*
X0067857Y0050383D01*
X0067857Y0050384D02*
X0064786Y0050384D01*
X0064786Y0050385D02*
X0067857Y0050385D01*
X0067857Y0050386D02*
X0064786Y0050386D01*
X0064786Y0050387D02*
X0067857Y0050387D01*
X0067857Y0050388D02*
X0064786Y0050388D01*
X0064786Y0050389D02*
X0067857Y0050389D01*
X0067857Y0050390D02*
X0064786Y0050390D01*
X0064786Y0050391D02*
X0067857Y0050391D01*
X0067857Y0050392D02*
X0064786Y0050392D01*
X0064786Y0050393D02*
X0067857Y0050393D01*
X0067857Y0050394D02*
X0064786Y0050394D01*
X0067857Y0050394D01*
X0067857Y0050395D02*
X0064786Y0050395D01*
X0064786Y0050396D02*
X0067857Y0050396D01*
X0067857Y0050397D02*
X0064786Y0050397D01*
X0064786Y0050398D02*
X0067857Y0050398D01*
X0067857Y0050399D02*
X0064786Y0050399D01*
X0064786Y0050400D02*
X0067857Y0050400D01*
X0067857Y0050401D02*
X0064786Y0050401D01*
X0064786Y0050402D02*
X0067857Y0050402D01*
X0067857Y0050403D02*
X0064786Y0050403D01*
X0064786Y0050404D02*
X0067857Y0050404D01*
X0067857Y0050405D02*
X0064786Y0050405D01*
X0064786Y0050406D02*
X0067857Y0050406D01*
X0067857Y0050407D02*
X0064786Y0050407D01*
X0064786Y0050408D02*
X0067857Y0050408D01*
X0067857Y0050409D02*
X0064786Y0050409D01*
X0064786Y0050410D02*
X0067857Y0050410D01*
X0067857Y0050411D02*
X0064786Y0050411D01*
X0064786Y0050412D02*
X0067857Y0050412D01*
X0067857Y0050413D02*
X0064786Y0050413D01*
X0064786Y0050414D02*
X0067857Y0050414D01*
X0067857Y0050415D02*
X0064786Y0050415D01*
X0064786Y0050416D02*
X0067857Y0050416D01*
X0067857Y0050417D02*
X0064786Y0050417D01*
X0064786Y0050418D02*
X0067857Y0050418D01*
X0067857Y0050419D02*
X0064786Y0050419D01*
X0064786Y0050420D02*
X0067857Y0050420D01*
X0067857Y0050421D02*
X0064786Y0050421D01*
X0064786Y0050422D02*
X0066518Y0050422D01*
X0066518Y0050423D02*
X0064786Y0050423D01*
X0064786Y0050424D02*
X0066518Y0050424D01*
X0066518Y0050425D02*
X0064786Y0050425D01*
X0064786Y0050426D02*
X0066518Y0050426D01*
X0066518Y0050427D02*
X0064786Y0050427D01*
X0064786Y0050428D02*
X0066518Y0050428D01*
X0066518Y0050429D02*
X0064786Y0050429D01*
X0064786Y0050430D02*
X0066518Y0050430D01*
X0066518Y0050431D02*
X0064786Y0050431D01*
X0064786Y0050432D02*
X0066518Y0050432D01*
X0066518Y0050433D02*
X0064786Y0050433D01*
X0064786Y0050434D02*
X0066518Y0050434D01*
X0066518Y0050435D02*
X0064786Y0050435D01*
X0064786Y0050436D02*
X0066518Y0050436D01*
X0066518Y0050437D02*
X0064786Y0050437D01*
X0064786Y0050438D02*
X0066518Y0050438D01*
X0066518Y0050439D02*
X0064786Y0050439D01*
X0064786Y0050440D02*
X0066518Y0050440D01*
X0066518Y0050441D02*
X0064786Y0050441D01*
X0064786Y0050442D02*
X0066518Y0050442D01*
X0066518Y0050443D02*
X0064786Y0050443D01*
X0064786Y0050444D02*
X0066518Y0050444D01*
X0066518Y0050445D02*
X0064786Y0050445D01*
X0064786Y0050446D02*
X0066518Y0050446D01*
X0066518Y0050447D02*
X0064786Y0050447D01*
X0064786Y0050448D02*
X0066518Y0050448D01*
X0066518Y0050449D02*
X0064786Y0050449D01*
X0064786Y0050450D02*
X0066518Y0050450D01*
X0066518Y0050451D02*
X0064786Y0050451D01*
X0064786Y0050452D02*
X0066518Y0050452D01*
X0066518Y0050453D02*
X0064786Y0050453D01*
X0064786Y0050454D02*
X0066518Y0050454D01*
X0066518Y0050455D02*
X0064786Y0050455D01*
X0064786Y0050456D02*
X0066518Y0050456D01*
X0064786Y0050456D01*
X0064786Y0050457D02*
X0066518Y0050457D01*
X0066518Y0050458D02*
X0064786Y0050458D01*
X0064786Y0050459D02*
X0066518Y0050459D01*
X0066518Y0050460D02*
X0064786Y0050460D01*
X0064786Y0050461D02*
X0066518Y0050461D01*
X0066518Y0050462D02*
X0064786Y0050462D01*
X0064786Y0050463D02*
X0066518Y0050463D01*
X0066518Y0050464D02*
X0064786Y0050464D01*
X0064786Y0050465D02*
X0066518Y0050465D01*
X0066518Y0050466D02*
X0064786Y0050466D01*
X0064786Y0050467D02*
X0066518Y0050467D01*
X0066518Y0050468D02*
X0064786Y0050468D01*
X0064786Y0050469D02*
X0066518Y0050469D01*
X0066518Y0050470D02*
X0064786Y0050470D01*
X0064786Y0050471D02*
X0066518Y0050471D01*
X0066518Y0050472D02*
X0064786Y0050472D01*
X0064786Y0050473D02*
X0066518Y0050473D01*
X0066518Y0050474D02*
X0064786Y0050474D01*
X0064786Y0050475D02*
X0066518Y0050475D01*
X0066518Y0050476D02*
X0064786Y0050476D01*
X0064786Y0050477D02*
X0066518Y0050477D01*
X0066518Y0050478D02*
X0064786Y0050478D01*
X0064786Y0050479D02*
X0066518Y0050479D01*
X0066518Y0050480D02*
X0064786Y0050480D01*
X0064786Y0050481D02*
X0066518Y0050481D01*
X0066518Y0050482D02*
X0064786Y0050482D01*
X0064786Y0050483D02*
X0066518Y0050483D01*
X0066518Y0050484D02*
X0064786Y0050484D01*
X0064786Y0050485D02*
X0066518Y0050485D01*
X0066518Y0050486D02*
X0064786Y0050486D01*
X0064786Y0050487D02*
X0066518Y0050487D01*
X0066518Y0050488D02*
X0064786Y0050488D01*
X0064786Y0050489D02*
X0066518Y0050489D01*
X0066518Y0050490D02*
X0064786Y0050490D01*
X0064786Y0050491D02*
X0066518Y0050491D01*
X0066518Y0050492D02*
X0064786Y0050492D01*
X0064786Y0050493D02*
X0066518Y0050493D01*
X0066518Y0050494D02*
X0064786Y0050494D01*
X0064786Y0050495D02*
X0066518Y0050495D01*
X0066518Y0050496D02*
X0064786Y0050496D01*
X0064786Y0050497D02*
X0066518Y0050497D01*
X0066518Y0050498D02*
X0064786Y0050498D01*
X0064786Y0050499D02*
X0066518Y0050499D01*
X0066518Y0050500D02*
X0064786Y0050500D01*
X0064786Y0050501D02*
X0066518Y0050501D01*
X0066518Y0050502D02*
X0064786Y0050502D01*
X0064786Y0050503D02*
X0066518Y0050503D01*
X0066518Y0050504D02*
X0064786Y0050504D01*
X0064786Y0050505D02*
X0066518Y0050505D01*
X0066518Y0050506D02*
X0064786Y0050506D01*
X0064786Y0050507D02*
X0066518Y0050507D01*
X0066518Y0050508D02*
X0064786Y0050508D01*
X0064786Y0050509D02*
X0066518Y0050509D01*
X0066518Y0050510D02*
X0064786Y0050510D01*
X0064786Y0050511D02*
X0066518Y0050511D01*
X0066518Y0050512D02*
X0064786Y0050512D01*
X0064786Y0050513D02*
X0066518Y0050513D01*
X0066518Y0050514D02*
X0064786Y0050514D01*
X0064786Y0050515D02*
X0066518Y0050515D01*
X0066518Y0050516D02*
X0064786Y0050516D01*
X0064786Y0050517D02*
X0066518Y0050517D01*
X0066518Y0050518D02*
X0064786Y0050518D01*
X0064786Y0050519D02*
X0066518Y0050519D01*
X0064786Y0050519D01*
X0064786Y0050520D02*
X0066518Y0050520D01*
X0066518Y0050521D02*
X0064786Y0050521D01*
X0064786Y0050522D02*
X0066518Y0050522D01*
X0066518Y0050523D02*
X0064786Y0050523D01*
X0064786Y0050524D02*
X0066518Y0050524D01*
X0066518Y0050525D02*
X0064786Y0050525D01*
X0064786Y0050526D02*
X0066518Y0050526D01*
X0066518Y0050527D02*
X0064786Y0050527D01*
X0064786Y0050528D02*
X0066518Y0050528D01*
X0066518Y0050529D02*
X0064786Y0050529D01*
X0064786Y0050530D02*
X0066518Y0050530D01*
X0066518Y0050531D02*
X0064786Y0050531D01*
X0064786Y0050532D02*
X0066518Y0050532D01*
X0066518Y0050533D02*
X0064786Y0050533D01*
X0064786Y0050534D02*
X0066518Y0050534D01*
X0066518Y0050535D02*
X0064786Y0050535D01*
X0064786Y0050536D02*
X0066518Y0050536D01*
X0066518Y0050537D02*
X0064786Y0050537D01*
X0064786Y0050538D02*
X0066518Y0050538D01*
X0066518Y0050539D02*
X0064786Y0050539D01*
X0064786Y0050540D02*
X0066518Y0050540D01*
X0066518Y0050541D02*
X0064786Y0050541D01*
X0064786Y0050542D02*
X0066518Y0050542D01*
X0066518Y0050543D02*
X0064786Y0050543D01*
X0064786Y0050544D02*
X0066518Y0050544D01*
X0066518Y0050545D02*
X0064786Y0050545D01*
X0064786Y0050546D02*
X0066518Y0050546D01*
X0066518Y0050547D02*
X0064786Y0050547D01*
X0064786Y0050548D02*
X0066518Y0050548D01*
X0066518Y0050549D02*
X0064786Y0050549D01*
X0064786Y0050550D02*
X0066518Y0050550D01*
X0066518Y0050551D02*
X0064786Y0050551D01*
X0064786Y0050552D02*
X0066518Y0050552D01*
X0066518Y0050553D02*
X0064786Y0050553D01*
X0064786Y0050554D02*
X0066518Y0050554D01*
X0066518Y0050555D02*
X0064786Y0050555D01*
X0064786Y0050556D02*
X0066518Y0050556D01*
X0066518Y0050557D02*
X0064786Y0050557D01*
X0064786Y0050558D02*
X0066518Y0050558D01*
X0066518Y0050559D02*
X0064786Y0050559D01*
X0064786Y0050560D02*
X0066518Y0050560D01*
X0066518Y0050561D02*
X0064786Y0050561D01*
X0064786Y0050562D02*
X0066518Y0050562D01*
X0066518Y0050563D02*
X0064786Y0050563D01*
X0064786Y0050564D02*
X0066518Y0050564D01*
X0066518Y0050565D02*
X0064786Y0050565D01*
X0064786Y0050566D02*
X0066518Y0050566D01*
X0066518Y0050567D02*
X0064786Y0050567D01*
X0064786Y0050568D02*
X0066518Y0050568D01*
X0066518Y0050569D02*
X0064786Y0050569D01*
X0064786Y0050570D02*
X0066518Y0050570D01*
X0066518Y0050571D02*
X0064786Y0050571D01*
X0064786Y0050572D02*
X0066518Y0050572D01*
X0066518Y0050573D02*
X0064786Y0050573D01*
X0064786Y0050574D02*
X0066518Y0050574D01*
X0066518Y0050575D02*
X0064786Y0050575D01*
X0064786Y0050576D02*
X0066518Y0050576D01*
X0066518Y0050577D02*
X0064786Y0050577D01*
X0064786Y0050578D02*
X0066518Y0050578D01*
X0066518Y0050579D02*
X0064786Y0050579D01*
X0064786Y0050580D02*
X0066518Y0050580D01*
X0066518Y0050581D02*
X0064786Y0050581D01*
X0066518Y0050581D01*
X0066518Y0050582D02*
X0064786Y0050582D01*
X0064786Y0050583D02*
X0066518Y0050583D01*
X0066518Y0050584D02*
X0064786Y0050584D01*
X0064786Y0050585D02*
X0066518Y0050585D01*
X0066518Y0050586D02*
X0064786Y0050586D01*
X0064786Y0050587D02*
X0066518Y0050587D01*
X0066518Y0050588D02*
X0064786Y0050588D01*
X0064786Y0050589D02*
X0066518Y0050589D01*
X0066518Y0050590D02*
X0064786Y0050590D01*
X0064786Y0050591D02*
X0066518Y0050591D01*
X0066518Y0050592D02*
X0064786Y0050592D01*
X0064786Y0050593D02*
X0066518Y0050593D01*
X0066518Y0050594D02*
X0064786Y0050594D01*
X0064786Y0050595D02*
X0066518Y0050595D01*
X0066518Y0050596D02*
X0064786Y0050596D01*
X0064786Y0050597D02*
X0066518Y0050597D01*
X0066518Y0050598D02*
X0064786Y0050598D01*
X0064786Y0050599D02*
X0066518Y0050599D01*
X0066518Y0050600D02*
X0064786Y0050600D01*
X0064786Y0050601D02*
X0066518Y0050601D01*
X0066518Y0050602D02*
X0064786Y0050602D01*
X0064786Y0050603D02*
X0066518Y0050603D01*
X0066518Y0050604D02*
X0064786Y0050604D01*
X0064786Y0050605D02*
X0066518Y0050605D01*
X0066518Y0050606D02*
X0064786Y0050606D01*
X0064786Y0050607D02*
X0066518Y0050607D01*
X0066518Y0050608D02*
X0064786Y0050608D01*
X0064786Y0050609D02*
X0066518Y0050609D01*
X0066518Y0050610D02*
X0064786Y0050610D01*
X0064786Y0050611D02*
X0066518Y0050611D01*
X0066518Y0050612D02*
X0064786Y0050612D01*
X0064786Y0050613D02*
X0066518Y0050613D01*
X0066518Y0050614D02*
X0064786Y0050614D01*
X0064786Y0050615D02*
X0066518Y0050615D01*
X0066518Y0050616D02*
X0064786Y0050616D01*
X0064786Y0050617D02*
X0066518Y0050617D01*
X0066518Y0050618D02*
X0064786Y0050618D01*
X0064786Y0050619D02*
X0066518Y0050619D01*
X0066518Y0050620D02*
X0064786Y0050620D01*
X0064786Y0050621D02*
X0066518Y0050621D01*
X0066518Y0050622D02*
X0064786Y0050622D01*
X0064786Y0050623D02*
X0066518Y0050623D01*
X0066518Y0050624D02*
X0064786Y0050624D01*
X0064786Y0050625D02*
X0066518Y0050625D01*
X0066518Y0050626D02*
X0064786Y0050626D01*
X0064786Y0050627D02*
X0066518Y0050627D01*
X0066518Y0050628D02*
X0064786Y0050628D01*
X0064786Y0050629D02*
X0066518Y0050629D01*
X0066518Y0050630D02*
X0064786Y0050630D01*
X0064786Y0050631D02*
X0066518Y0050631D01*
X0066518Y0050632D02*
X0064786Y0050632D01*
X0064786Y0050633D02*
X0066518Y0050633D01*
X0066518Y0050634D02*
X0064786Y0050634D01*
X0064786Y0050635D02*
X0066518Y0050635D01*
X0066518Y0050636D02*
X0064786Y0050636D01*
X0064786Y0050637D02*
X0066518Y0050637D01*
X0066518Y0050638D02*
X0064786Y0050638D01*
X0064786Y0050639D02*
X0066518Y0050639D01*
X0066518Y0050640D02*
X0064786Y0050640D01*
X0064786Y0050641D02*
X0066518Y0050641D01*
X0066518Y0050642D02*
X0064786Y0050642D01*
X0064786Y0050643D02*
X0066518Y0050643D01*
X0066518Y0050644D02*
X0064786Y0050644D01*
X0066518Y0050644D01*
X0066518Y0050645D02*
X0064786Y0050645D01*
X0064786Y0050646D02*
X0066518Y0050646D01*
X0066518Y0050647D02*
X0064786Y0050647D01*
X0064786Y0050648D02*
X0066518Y0050648D01*
X0066518Y0050649D02*
X0064786Y0050649D01*
X0064786Y0050650D02*
X0066518Y0050650D01*
X0066518Y0050651D02*
X0064786Y0050651D01*
X0064786Y0050652D02*
X0066518Y0050652D01*
X0066518Y0050653D02*
X0064786Y0050653D01*
X0064786Y0050654D02*
X0066518Y0050654D01*
X0066518Y0050655D02*
X0064786Y0050655D01*
X0064786Y0050656D02*
X0066518Y0050656D01*
X0066518Y0050657D02*
X0064786Y0050657D01*
X0064786Y0050658D02*
X0066518Y0050658D01*
X0066518Y0050659D02*
X0064786Y0050659D01*
X0064786Y0050660D02*
X0066518Y0050660D01*
X0066518Y0050661D02*
X0064786Y0050661D01*
X0064786Y0050662D02*
X0066518Y0050662D01*
X0066518Y0050663D02*
X0064786Y0050663D01*
X0064786Y0050664D02*
X0066518Y0050664D01*
X0066518Y0050665D02*
X0064786Y0050665D01*
X0064786Y0050666D02*
X0066518Y0050666D01*
X0066518Y0050667D02*
X0064786Y0050667D01*
X0064786Y0050668D02*
X0066518Y0050668D01*
X0066518Y0050669D02*
X0064786Y0050669D01*
X0064786Y0050670D02*
X0066518Y0050670D01*
X0066518Y0050671D02*
X0064786Y0050671D01*
X0064786Y0050672D02*
X0066518Y0050672D01*
X0066518Y0050673D02*
X0064786Y0050673D01*
X0064786Y0050674D02*
X0066518Y0050674D01*
X0066518Y0050675D02*
X0064786Y0050675D01*
X0064786Y0050676D02*
X0066518Y0050676D01*
X0066518Y0050677D02*
X0064786Y0050677D01*
X0064786Y0050678D02*
X0066518Y0050678D01*
X0066518Y0050679D02*
X0064786Y0050679D01*
X0064786Y0050680D02*
X0066518Y0050680D01*
X0066518Y0050681D02*
X0064786Y0050681D01*
X0064786Y0050682D02*
X0066518Y0050682D01*
X0066518Y0050683D02*
X0064786Y0050683D01*
X0064786Y0050684D02*
X0066518Y0050684D01*
X0066518Y0050685D02*
X0064786Y0050685D01*
X0064786Y0050686D02*
X0066518Y0050686D01*
X0066518Y0050687D02*
X0064786Y0050687D01*
X0064786Y0050688D02*
X0066518Y0050688D01*
X0066518Y0050689D02*
X0064786Y0050689D01*
X0064786Y0050690D02*
X0066518Y0050690D01*
X0066518Y0050691D02*
X0064786Y0050691D01*
X0064786Y0050692D02*
X0066518Y0050692D01*
X0066518Y0050693D02*
X0064786Y0050693D01*
X0064786Y0050694D02*
X0066518Y0050694D01*
X0066518Y0050695D02*
X0064786Y0050695D01*
X0064786Y0050696D02*
X0066518Y0050696D01*
X0066518Y0050697D02*
X0064786Y0050697D01*
X0064786Y0050698D02*
X0066518Y0050698D01*
X0066518Y0050699D02*
X0064786Y0050699D01*
X0064786Y0050700D02*
X0066518Y0050700D01*
X0066518Y0050701D02*
X0064786Y0050701D01*
X0064786Y0050702D02*
X0066518Y0050702D01*
X0066518Y0050703D02*
X0064786Y0050703D01*
X0064786Y0050704D02*
X0066518Y0050704D01*
X0066518Y0050705D02*
X0064786Y0050705D01*
X0064786Y0050706D02*
X0066518Y0050706D01*
X0064786Y0050706D01*
X0064786Y0050707D02*
X0066518Y0050707D01*
X0066518Y0050708D02*
X0064786Y0050708D01*
X0064786Y0050709D02*
X0066518Y0050709D01*
X0066518Y0050710D02*
X0064786Y0050710D01*
X0064786Y0050711D02*
X0066518Y0050711D01*
X0066518Y0050712D02*
X0064786Y0050712D01*
X0064786Y0050713D02*
X0066518Y0050713D01*
X0066518Y0050714D02*
X0064786Y0050714D01*
X0064786Y0050715D02*
X0066518Y0050715D01*
X0066518Y0050716D02*
X0064786Y0050716D01*
X0064786Y0050717D02*
X0066518Y0050717D01*
X0066518Y0050718D02*
X0064786Y0050718D01*
X0064786Y0050719D02*
X0066518Y0050719D01*
X0066518Y0050720D02*
X0064786Y0050720D01*
X0064786Y0050721D02*
X0066518Y0050721D01*
X0066518Y0050722D02*
X0064786Y0050722D01*
X0064786Y0050723D02*
X0066518Y0050723D01*
X0066518Y0050724D02*
X0064786Y0050724D01*
X0064786Y0050725D02*
X0066518Y0050725D01*
X0066518Y0050726D02*
X0064786Y0050726D01*
X0064786Y0050727D02*
X0066518Y0050727D01*
X0066518Y0050728D02*
X0064786Y0050728D01*
X0064786Y0050729D02*
X0066518Y0050729D01*
X0066518Y0050730D02*
X0064786Y0050730D01*
X0064786Y0050731D02*
X0066518Y0050731D01*
X0066518Y0050732D02*
X0064786Y0050732D01*
X0064786Y0050733D02*
X0066518Y0050733D01*
X0066518Y0050734D02*
X0064786Y0050734D01*
X0064786Y0050735D02*
X0066518Y0050735D01*
X0066518Y0050736D02*
X0064786Y0050736D01*
X0064786Y0050737D02*
X0066518Y0050737D01*
X0066518Y0050738D02*
X0064786Y0050738D01*
X0064786Y0050739D02*
X0066518Y0050739D01*
X0066518Y0050740D02*
X0064786Y0050740D01*
X0064786Y0050741D02*
X0066518Y0050741D01*
X0066518Y0050742D02*
X0064786Y0050742D01*
X0064786Y0050743D02*
X0066518Y0050743D01*
X0066518Y0050744D02*
X0064786Y0050744D01*
X0064786Y0050745D02*
X0066518Y0050745D01*
X0066518Y0050746D02*
X0064786Y0050746D01*
X0064786Y0050747D02*
X0066518Y0050747D01*
X0066518Y0050748D02*
X0064786Y0050748D01*
X0064786Y0050749D02*
X0066518Y0050749D01*
X0066518Y0050750D02*
X0064786Y0050750D01*
X0064786Y0050751D02*
X0066518Y0050751D01*
X0066518Y0050752D02*
X0064786Y0050752D01*
X0064786Y0050753D02*
X0066518Y0050753D01*
X0066518Y0050754D02*
X0064786Y0050754D01*
X0064786Y0050755D02*
X0066518Y0050755D01*
X0066518Y0050756D02*
X0064786Y0050756D01*
X0064786Y0050757D02*
X0066518Y0050757D01*
X0066518Y0050758D02*
X0064786Y0050758D01*
X0064786Y0050759D02*
X0066518Y0050759D01*
X0066518Y0050760D02*
X0064786Y0050760D01*
X0064786Y0050761D02*
X0066518Y0050761D01*
X0066518Y0050762D02*
X0064786Y0050762D01*
X0064786Y0050763D02*
X0066518Y0050763D01*
X0066518Y0050764D02*
X0064786Y0050764D01*
X0064786Y0050765D02*
X0066518Y0050765D01*
X0066518Y0050766D02*
X0064786Y0050766D01*
X0064786Y0050767D02*
X0066518Y0050767D01*
X0066518Y0050768D02*
X0064786Y0050768D01*
X0064786Y0050769D02*
X0066518Y0050769D01*
X0064786Y0050769D01*
X0064786Y0050770D02*
X0066518Y0050770D01*
X0066518Y0050771D02*
X0064786Y0050771D01*
X0064786Y0050772D02*
X0066518Y0050772D01*
X0066518Y0050773D02*
X0064786Y0050773D01*
X0064786Y0050774D02*
X0066518Y0050774D01*
X0066518Y0050775D02*
X0064786Y0050775D01*
X0064786Y0050776D02*
X0066518Y0050776D01*
X0066518Y0050777D02*
X0064786Y0050777D01*
X0064786Y0050778D02*
X0066518Y0050778D01*
X0066518Y0050779D02*
X0064786Y0050779D01*
X0064786Y0050780D02*
X0066518Y0050780D01*
X0066518Y0050781D02*
X0064786Y0050781D01*
X0064786Y0050782D02*
X0066518Y0050782D01*
X0066518Y0050783D02*
X0064786Y0050783D01*
X0064786Y0050784D02*
X0066518Y0050784D01*
X0066518Y0050785D02*
X0064786Y0050785D01*
X0064786Y0050786D02*
X0066518Y0050786D01*
X0066518Y0050787D02*
X0064786Y0050787D01*
X0064786Y0050788D02*
X0066518Y0050788D01*
X0066518Y0050789D02*
X0064786Y0050789D01*
X0064786Y0050790D02*
X0066518Y0050790D01*
X0066518Y0050791D02*
X0064786Y0050791D01*
X0064786Y0050792D02*
X0066518Y0050792D01*
X0066518Y0050793D02*
X0064786Y0050793D01*
X0064786Y0050794D02*
X0066518Y0050794D01*
X0066518Y0050795D02*
X0064786Y0050795D01*
X0064786Y0050796D02*
X0066518Y0050796D01*
X0066518Y0050797D02*
X0064786Y0050797D01*
X0064786Y0050798D02*
X0066518Y0050798D01*
X0066518Y0050799D02*
X0064786Y0050799D01*
X0064786Y0050800D02*
X0066518Y0050800D01*
X0066518Y0050801D02*
X0064786Y0050801D01*
X0064786Y0050802D02*
X0066518Y0050802D01*
X0066518Y0050803D02*
X0064786Y0050803D01*
X0064786Y0050804D02*
X0066518Y0050804D01*
X0066518Y0050805D02*
X0064786Y0050805D01*
X0064786Y0050806D02*
X0066518Y0050806D01*
X0066518Y0050807D02*
X0064786Y0050807D01*
X0064786Y0050808D02*
X0066518Y0050808D01*
X0066518Y0050809D02*
X0064786Y0050809D01*
X0064786Y0050810D02*
X0066518Y0050810D01*
X0066518Y0050811D02*
X0064786Y0050811D01*
X0064786Y0050812D02*
X0066518Y0050812D01*
X0066518Y0050813D02*
X0064786Y0050813D01*
X0064786Y0050814D02*
X0066518Y0050814D01*
X0066518Y0050815D02*
X0064786Y0050815D01*
X0064786Y0050816D02*
X0066518Y0050816D01*
X0066518Y0050817D02*
X0064786Y0050817D01*
X0064786Y0050818D02*
X0066518Y0050818D01*
X0066518Y0050819D02*
X0064786Y0050819D01*
X0064786Y0050820D02*
X0066518Y0050820D01*
X0066518Y0050821D02*
X0064786Y0050821D01*
X0064786Y0050822D02*
X0066518Y0050822D01*
X0066518Y0050823D02*
X0064786Y0050823D01*
X0064786Y0050824D02*
X0066518Y0050824D01*
X0066518Y0050825D02*
X0064786Y0050825D01*
X0064786Y0050826D02*
X0066518Y0050826D01*
X0066518Y0050827D02*
X0064786Y0050827D01*
X0064786Y0050828D02*
X0066518Y0050828D01*
X0066518Y0050829D02*
X0064786Y0050829D01*
X0064786Y0050830D02*
X0066518Y0050830D01*
X0066518Y0050831D02*
X0064786Y0050831D01*
X0066518Y0050831D01*
X0066518Y0050832D02*
X0064786Y0050832D01*
X0064786Y0050833D02*
X0066518Y0050833D01*
X0066518Y0050834D02*
X0064786Y0050834D01*
X0064786Y0050835D02*
X0066518Y0050835D01*
X0066518Y0050836D02*
X0064786Y0050836D01*
X0064786Y0050837D02*
X0066518Y0050837D01*
X0066518Y0050838D02*
X0064786Y0050838D01*
X0064786Y0050839D02*
X0066518Y0050839D01*
X0066518Y0050840D02*
X0064786Y0050840D01*
X0064786Y0050841D02*
X0066518Y0050841D01*
X0066518Y0050842D02*
X0064786Y0050842D01*
X0064786Y0050843D02*
X0066518Y0050843D01*
X0066518Y0050844D02*
X0064786Y0050844D01*
X0064786Y0050845D02*
X0066518Y0050845D01*
X0066518Y0050846D02*
X0064786Y0050846D01*
X0064786Y0050847D02*
X0066518Y0050847D01*
X0066518Y0050848D02*
X0064786Y0050848D01*
X0064786Y0050849D02*
X0066518Y0050849D01*
X0066518Y0050850D02*
X0064786Y0050850D01*
X0064786Y0050851D02*
X0066518Y0050851D01*
X0066518Y0050852D02*
X0064786Y0050852D01*
X0064786Y0050853D02*
X0066518Y0050853D01*
X0066518Y0050854D02*
X0064786Y0050854D01*
X0064786Y0050855D02*
X0066518Y0050855D01*
X0066518Y0050856D02*
X0064786Y0050856D01*
X0064786Y0050857D02*
X0066518Y0050857D01*
X0066518Y0050858D02*
X0064786Y0050858D01*
X0064786Y0050859D02*
X0066518Y0050859D01*
X0066518Y0050860D02*
X0064786Y0050860D01*
X0064786Y0050861D02*
X0066518Y0050861D01*
X0066518Y0050862D02*
X0064786Y0050862D01*
X0064786Y0050863D02*
X0066518Y0050863D01*
X0066518Y0050864D02*
X0064786Y0050864D01*
X0064786Y0050865D02*
X0066518Y0050865D01*
X0066518Y0050866D02*
X0064786Y0050866D01*
X0064786Y0050867D02*
X0066518Y0050867D01*
X0066518Y0050868D02*
X0064786Y0050868D01*
X0064786Y0050869D02*
X0066518Y0050869D01*
X0066518Y0050870D02*
X0064786Y0050870D01*
X0064786Y0050871D02*
X0066518Y0050871D01*
X0066518Y0050872D02*
X0064786Y0050872D01*
X0064786Y0050873D02*
X0066518Y0050873D01*
X0066518Y0050874D02*
X0064786Y0050874D01*
X0064786Y0050875D02*
X0066518Y0050875D01*
X0066518Y0050876D02*
X0064786Y0050876D01*
X0064786Y0050877D02*
X0066518Y0050877D01*
X0066518Y0050878D02*
X0064786Y0050878D01*
X0064786Y0050879D02*
X0066518Y0050879D01*
X0066518Y0050880D02*
X0064786Y0050880D01*
X0064786Y0050881D02*
X0066518Y0050881D01*
X0066518Y0050882D02*
X0064786Y0050882D01*
X0064786Y0050883D02*
X0066518Y0050883D01*
X0066518Y0050884D02*
X0064786Y0050884D01*
X0064786Y0050885D02*
X0066518Y0050885D01*
X0066518Y0050886D02*
X0064786Y0050886D01*
X0064786Y0050887D02*
X0066518Y0050887D01*
X0066518Y0050888D02*
X0064786Y0050888D01*
X0064786Y0050889D02*
X0066518Y0050889D01*
X0066518Y0050890D02*
X0064786Y0050890D01*
X0064786Y0050891D02*
X0066518Y0050891D01*
X0066518Y0050892D02*
X0064786Y0050892D01*
X0064786Y0050893D02*
X0066518Y0050893D01*
X0066518Y0050894D02*
X0064786Y0050894D01*
X0066518Y0050894D01*
X0066518Y0050895D02*
X0064786Y0050895D01*
X0064786Y0050896D02*
X0066518Y0050896D01*
X0066518Y0050897D02*
X0064786Y0050897D01*
X0064786Y0050898D02*
X0066518Y0050898D01*
X0066518Y0050899D02*
X0064786Y0050899D01*
X0064786Y0050900D02*
X0066518Y0050900D01*
X0066518Y0050901D02*
X0064786Y0050901D01*
X0064786Y0050902D02*
X0066518Y0050902D01*
X0066518Y0050903D02*
X0064786Y0050903D01*
X0064786Y0050904D02*
X0066518Y0050904D01*
X0066518Y0050905D02*
X0064786Y0050905D01*
X0064786Y0050906D02*
X0066518Y0050906D01*
X0066518Y0050907D02*
X0064786Y0050907D01*
X0064786Y0050908D02*
X0066518Y0050908D01*
X0066518Y0050909D02*
X0064786Y0050909D01*
X0064786Y0050910D02*
X0066518Y0050910D01*
X0066518Y0050911D02*
X0064786Y0050911D01*
X0064786Y0050912D02*
X0066518Y0050912D01*
X0066518Y0050913D02*
X0064786Y0050913D01*
X0064786Y0050914D02*
X0066518Y0050914D01*
X0066518Y0050915D02*
X0064786Y0050915D01*
X0064786Y0050916D02*
X0066518Y0050916D01*
X0066518Y0050917D02*
X0064786Y0050917D01*
X0064786Y0050918D02*
X0066518Y0050918D01*
X0066518Y0050919D02*
X0064786Y0050919D01*
X0064786Y0050920D02*
X0066518Y0050920D01*
X0066518Y0050921D02*
X0064786Y0050921D01*
X0064786Y0050922D02*
X0066518Y0050922D01*
X0066518Y0050923D02*
X0064786Y0050923D01*
X0064786Y0050924D02*
X0066518Y0050924D01*
X0066518Y0050925D02*
X0064786Y0050925D01*
X0064786Y0050926D02*
X0066518Y0050926D01*
X0066518Y0050927D02*
X0064786Y0050927D01*
X0064786Y0050928D02*
X0066518Y0050928D01*
X0066518Y0050929D02*
X0064786Y0050929D01*
X0064786Y0050930D02*
X0066518Y0050930D01*
X0066518Y0050931D02*
X0064786Y0050931D01*
X0064786Y0050932D02*
X0066518Y0050932D01*
X0066518Y0050933D02*
X0064786Y0050933D01*
X0064786Y0050934D02*
X0066518Y0050934D01*
X0066518Y0050935D02*
X0064786Y0050935D01*
X0064786Y0050936D02*
X0066518Y0050936D01*
X0066518Y0050937D02*
X0064786Y0050937D01*
X0064786Y0050938D02*
X0066518Y0050938D01*
X0066518Y0050939D02*
X0064786Y0050939D01*
X0064786Y0050940D02*
X0066518Y0050940D01*
X0066518Y0050941D02*
X0064786Y0050941D01*
X0064786Y0050942D02*
X0066518Y0050942D01*
X0066518Y0050943D02*
X0064786Y0050943D01*
X0064786Y0050944D02*
X0066518Y0050944D01*
X0066518Y0050945D02*
X0064786Y0050945D01*
X0064786Y0050946D02*
X0066518Y0050946D01*
X0066518Y0050947D02*
X0064786Y0050947D01*
X0064786Y0050948D02*
X0066518Y0050948D01*
X0066518Y0050949D02*
X0064786Y0050949D01*
X0064786Y0050950D02*
X0066518Y0050950D01*
X0066518Y0050951D02*
X0064786Y0050951D01*
X0064786Y0050952D02*
X0066518Y0050952D01*
X0066518Y0050953D02*
X0064786Y0050953D01*
X0064786Y0050954D02*
X0066518Y0050954D01*
X0066518Y0050955D02*
X0064786Y0050955D01*
X0064786Y0050956D02*
X0066518Y0050956D01*
X0064786Y0050956D01*
X0064786Y0050957D02*
X0066518Y0050957D01*
X0066518Y0050958D02*
X0064786Y0050958D01*
X0064786Y0050959D02*
X0066518Y0050959D01*
X0066518Y0050960D02*
X0064786Y0050960D01*
X0064786Y0050961D02*
X0066518Y0050961D01*
X0066518Y0050962D02*
X0064786Y0050962D01*
X0064786Y0050963D02*
X0066518Y0050963D01*
X0066518Y0050964D02*
X0064786Y0050964D01*
X0064786Y0050965D02*
X0066518Y0050965D01*
X0066518Y0050966D02*
X0064786Y0050966D01*
X0064786Y0050967D02*
X0066518Y0050967D01*
X0066518Y0050968D02*
X0064786Y0050968D01*
X0064786Y0050969D02*
X0066518Y0050969D01*
X0066518Y0050970D02*
X0064786Y0050970D01*
X0064786Y0050971D02*
X0066518Y0050971D01*
X0066518Y0050972D02*
X0064786Y0050972D01*
X0064786Y0050973D02*
X0066518Y0050973D01*
X0066518Y0050974D02*
X0064786Y0050974D01*
X0064786Y0050975D02*
X0066518Y0050975D01*
X0066518Y0050976D02*
X0064786Y0050976D01*
X0064786Y0050977D02*
X0066518Y0050977D01*
X0066518Y0050978D02*
X0064786Y0050978D01*
X0064786Y0050979D02*
X0066518Y0050979D01*
X0066518Y0050980D02*
X0064786Y0050980D01*
X0064786Y0050981D02*
X0066518Y0050981D01*
X0066518Y0050982D02*
X0064786Y0050982D01*
X0064786Y0050983D02*
X0066518Y0050983D01*
X0066518Y0050984D02*
X0064786Y0050984D01*
X0064786Y0050985D02*
X0066518Y0050985D01*
X0066518Y0050986D02*
X0064786Y0050986D01*
X0064786Y0050987D02*
X0066518Y0050987D01*
X0066518Y0050988D02*
X0064786Y0050988D01*
X0064786Y0050989D02*
X0066518Y0050989D01*
X0066518Y0050990D02*
X0064786Y0050990D01*
X0064786Y0050991D02*
X0066518Y0050991D01*
X0066518Y0050992D02*
X0064786Y0050992D01*
X0064786Y0050993D02*
X0066518Y0050993D01*
X0066518Y0050994D02*
X0064786Y0050994D01*
X0064786Y0050995D02*
X0066518Y0050995D01*
X0066518Y0050996D02*
X0064786Y0050996D01*
X0064786Y0050997D02*
X0066518Y0050997D01*
X0066518Y0050998D02*
X0064786Y0050998D01*
X0064786Y0050999D02*
X0066518Y0050999D01*
X0066518Y0051000D02*
X0064786Y0051000D01*
X0064786Y0051001D02*
X0066518Y0051001D01*
X0066518Y0051002D02*
X0064786Y0051002D01*
X0064786Y0051003D02*
X0066518Y0051003D01*
X0066518Y0051004D02*
X0064786Y0051004D01*
X0064786Y0051005D02*
X0066518Y0051005D01*
X0066518Y0051006D02*
X0064786Y0051006D01*
X0064786Y0051007D02*
X0066518Y0051007D01*
X0066518Y0051008D02*
X0064786Y0051008D01*
X0064786Y0051009D02*
X0066518Y0051009D01*
X0066518Y0051010D02*
X0064786Y0051010D01*
X0064786Y0051011D02*
X0066518Y0051011D01*
X0066518Y0051012D02*
X0064786Y0051012D01*
X0064786Y0051013D02*
X0066518Y0051013D01*
X0066518Y0051014D02*
X0064786Y0051014D01*
X0064786Y0051015D02*
X0066518Y0051015D01*
X0066518Y0051016D02*
X0064786Y0051016D01*
X0064786Y0051017D02*
X0066518Y0051017D01*
X0066518Y0051018D02*
X0064786Y0051018D01*
X0064786Y0051019D02*
X0066518Y0051019D01*
X0064786Y0051019D01*
X0064786Y0051020D02*
X0066518Y0051020D01*
X0066518Y0051021D02*
X0064786Y0051021D01*
X0064786Y0051022D02*
X0066518Y0051022D01*
X0066518Y0051023D02*
X0064786Y0051023D01*
X0064786Y0051024D02*
X0066518Y0051024D01*
X0066518Y0051025D02*
X0064786Y0051025D01*
X0064786Y0051026D02*
X0066518Y0051026D01*
X0066518Y0051027D02*
X0064786Y0051027D01*
X0064786Y0051028D02*
X0066518Y0051028D01*
X0066518Y0051029D02*
X0064786Y0051029D01*
X0064786Y0051030D02*
X0066518Y0051030D01*
X0066518Y0051031D02*
X0064786Y0051031D01*
X0064786Y0051032D02*
X0066518Y0051032D01*
X0066518Y0051033D02*
X0064786Y0051033D01*
X0064786Y0051034D02*
X0066518Y0051034D01*
X0066518Y0051035D02*
X0064786Y0051035D01*
X0064786Y0051036D02*
X0066518Y0051036D01*
X0066518Y0051037D02*
X0064786Y0051037D01*
X0064786Y0051038D02*
X0066518Y0051038D01*
X0066518Y0051039D02*
X0064786Y0051039D01*
X0064786Y0051040D02*
X0066518Y0051040D01*
X0066518Y0051041D02*
X0064786Y0051041D01*
X0064786Y0051042D02*
X0066518Y0051042D01*
X0066518Y0051043D02*
X0064786Y0051043D01*
X0064786Y0051044D02*
X0066518Y0051044D01*
X0066518Y0051045D02*
X0064786Y0051045D01*
X0064786Y0051046D02*
X0066518Y0051046D01*
X0066518Y0051047D02*
X0064786Y0051047D01*
X0064786Y0051048D02*
X0066518Y0051048D01*
X0066518Y0051049D02*
X0064786Y0051049D01*
X0064786Y0051050D02*
X0066518Y0051050D01*
X0066518Y0051051D02*
X0064786Y0051051D01*
X0064786Y0051052D02*
X0066518Y0051052D01*
X0066518Y0051053D02*
X0064786Y0051053D01*
X0064786Y0051054D02*
X0066518Y0051054D01*
X0066518Y0051055D02*
X0064786Y0051055D01*
X0064786Y0051056D02*
X0066518Y0051056D01*
X0066518Y0051057D02*
X0064786Y0051057D01*
X0064786Y0051058D02*
X0066518Y0051058D01*
X0066518Y0051059D02*
X0064786Y0051059D01*
X0064786Y0051060D02*
X0066518Y0051060D01*
X0066518Y0051061D02*
X0064786Y0051061D01*
X0064786Y0051062D02*
X0066518Y0051062D01*
X0066518Y0051063D02*
X0064786Y0051063D01*
X0064786Y0051064D02*
X0066518Y0051064D01*
X0066518Y0051065D02*
X0064786Y0051065D01*
X0064786Y0051066D02*
X0066518Y0051066D01*
X0066518Y0051067D02*
X0064786Y0051067D01*
X0064786Y0051068D02*
X0066518Y0051068D01*
X0066518Y0051069D02*
X0064786Y0051069D01*
X0064786Y0051070D02*
X0066518Y0051070D01*
X0066518Y0051071D02*
X0064786Y0051071D01*
X0064786Y0051072D02*
X0066518Y0051072D01*
X0066518Y0051073D02*
X0064786Y0051073D01*
X0064786Y0051074D02*
X0066518Y0051074D01*
X0066518Y0051075D02*
X0064786Y0051075D01*
X0064786Y0051076D02*
X0066518Y0051076D01*
X0066518Y0051077D02*
X0064786Y0051077D01*
X0064786Y0051078D02*
X0066518Y0051078D01*
X0066518Y0051079D02*
X0064786Y0051079D01*
X0064786Y0051080D02*
X0066518Y0051080D01*
X0066518Y0051081D02*
X0064786Y0051081D01*
X0066518Y0051081D01*
X0066518Y0051082D02*
X0064786Y0051082D01*
X0064786Y0051083D02*
X0066518Y0051083D01*
X0066518Y0051084D02*
X0064786Y0051084D01*
X0064786Y0051085D02*
X0066518Y0051085D01*
X0066518Y0051086D02*
X0064786Y0051086D01*
X0064786Y0051087D02*
X0066518Y0051087D01*
X0066518Y0051088D02*
X0064786Y0051088D01*
X0064786Y0051089D02*
X0066518Y0051089D01*
X0066518Y0051090D02*
X0064786Y0051090D01*
X0064786Y0051091D02*
X0066518Y0051091D01*
X0066518Y0051092D02*
X0064786Y0051092D01*
X0064786Y0051093D02*
X0066518Y0051093D01*
X0066518Y0051094D02*
X0064786Y0051094D01*
X0064786Y0051095D02*
X0066518Y0051095D01*
X0066518Y0051096D02*
X0064786Y0051096D01*
X0064786Y0051097D02*
X0066518Y0051097D01*
X0066518Y0051098D02*
X0064786Y0051098D01*
X0064786Y0051099D02*
X0066518Y0051099D01*
X0066518Y0051100D02*
X0064786Y0051100D01*
X0064786Y0051101D02*
X0066518Y0051101D01*
X0066518Y0051102D02*
X0064786Y0051102D01*
X0064786Y0051103D02*
X0066518Y0051103D01*
X0066518Y0051104D02*
X0064786Y0051104D01*
X0064786Y0051105D02*
X0066518Y0051105D01*
X0066518Y0051106D02*
X0064786Y0051106D01*
X0064786Y0051107D02*
X0066518Y0051107D01*
X0066518Y0051108D02*
X0064786Y0051108D01*
X0064786Y0051109D02*
X0066518Y0051109D01*
X0066518Y0051110D02*
X0064786Y0051110D01*
X0064786Y0051111D02*
X0066518Y0051111D01*
X0066518Y0051112D02*
X0064786Y0051112D01*
X0064786Y0051113D02*
X0066518Y0051113D01*
X0066518Y0051114D02*
X0064786Y0051114D01*
X0064786Y0051115D02*
X0066518Y0051115D01*
X0066518Y0051116D02*
X0064786Y0051116D01*
X0064786Y0051117D02*
X0066518Y0051117D01*
X0066518Y0051118D02*
X0064786Y0051118D01*
X0064786Y0051119D02*
X0066518Y0051119D01*
X0066518Y0051120D02*
X0064786Y0051120D01*
X0064786Y0051121D02*
X0066518Y0051121D01*
X0066518Y0051122D02*
X0064786Y0051122D01*
X0064786Y0051123D02*
X0066518Y0051123D01*
X0066518Y0051124D02*
X0064786Y0051124D01*
X0064786Y0051125D02*
X0066518Y0051125D01*
X0066518Y0051126D02*
X0064786Y0051126D01*
X0064786Y0051127D02*
X0066518Y0051127D01*
X0066518Y0051128D02*
X0064786Y0051128D01*
X0064786Y0051129D02*
X0066518Y0051129D01*
X0066518Y0051130D02*
X0064786Y0051130D01*
X0064786Y0051131D02*
X0066518Y0051131D01*
X0066518Y0051132D02*
X0064786Y0051132D01*
X0064786Y0051133D02*
X0066518Y0051133D01*
X0066518Y0051134D02*
X0064786Y0051134D01*
X0064786Y0051135D02*
X0066518Y0051135D01*
X0066518Y0051136D02*
X0064786Y0051136D01*
X0064786Y0051137D02*
X0066518Y0051137D01*
X0066518Y0051138D02*
X0064786Y0051138D01*
X0064786Y0051139D02*
X0066518Y0051139D01*
X0066518Y0051140D02*
X0064786Y0051140D01*
X0064786Y0051141D02*
X0066518Y0051141D01*
X0066518Y0051142D02*
X0064786Y0051142D01*
X0064786Y0051143D02*
X0066518Y0051143D01*
X0066518Y0051144D02*
X0064786Y0051144D01*
X0066518Y0051144D01*
X0066518Y0051145D02*
X0064786Y0051145D01*
X0064786Y0051146D02*
X0066518Y0051146D01*
X0066518Y0051147D02*
X0064786Y0051147D01*
X0064786Y0051148D02*
X0066518Y0051148D01*
X0066518Y0051149D02*
X0064786Y0051149D01*
X0064786Y0051150D02*
X0066518Y0051150D01*
X0066518Y0051151D02*
X0064786Y0051151D01*
X0064786Y0051152D02*
X0066518Y0051152D01*
X0066518Y0051153D02*
X0064786Y0051153D01*
X0064786Y0051154D02*
X0066518Y0051154D01*
X0066518Y0051155D02*
X0064786Y0051155D01*
X0064786Y0051156D02*
X0066518Y0051156D01*
X0066518Y0051157D02*
X0064786Y0051157D01*
X0064786Y0051158D02*
X0066518Y0051158D01*
X0066518Y0051159D02*
X0064786Y0051159D01*
X0064786Y0051160D02*
X0066518Y0051160D01*
X0066518Y0051161D02*
X0064786Y0051161D01*
X0064786Y0051162D02*
X0066518Y0051162D01*
X0066518Y0051163D02*
X0064786Y0051163D01*
X0064786Y0051164D02*
X0066518Y0051164D01*
X0066518Y0051165D02*
X0064786Y0051165D01*
X0064786Y0051166D02*
X0066518Y0051166D01*
X0066518Y0051167D02*
X0064786Y0051167D01*
X0064786Y0051168D02*
X0066518Y0051168D01*
X0066518Y0051169D02*
X0064786Y0051169D01*
X0064786Y0051170D02*
X0066518Y0051170D01*
X0066518Y0051171D02*
X0064786Y0051171D01*
X0064786Y0051172D02*
X0066518Y0051172D01*
X0066518Y0051173D02*
X0064786Y0051173D01*
X0064786Y0051174D02*
X0066518Y0051174D01*
X0066518Y0051175D02*
X0064786Y0051175D01*
X0064786Y0051176D02*
X0066518Y0051176D01*
X0066518Y0051177D02*
X0064786Y0051177D01*
X0064786Y0051178D02*
X0066518Y0051178D01*
X0066518Y0051179D02*
X0064786Y0051179D01*
X0064786Y0051180D02*
X0066518Y0051180D01*
X0066518Y0051181D02*
X0064786Y0051181D01*
X0064786Y0051182D02*
X0066518Y0051182D01*
X0066518Y0051183D02*
X0064786Y0051183D01*
X0064786Y0051184D02*
X0066518Y0051184D01*
X0066518Y0051185D02*
X0064786Y0051185D01*
X0064786Y0051186D02*
X0066518Y0051186D01*
X0066518Y0051187D02*
X0064786Y0051187D01*
X0064786Y0051188D02*
X0066518Y0051188D01*
X0066518Y0051189D02*
X0064786Y0051189D01*
X0064786Y0051190D02*
X0066518Y0051190D01*
X0066518Y0051191D02*
X0064786Y0051191D01*
X0064786Y0051192D02*
X0066518Y0051192D01*
X0066518Y0051193D02*
X0064786Y0051193D01*
X0064786Y0051194D02*
X0066518Y0051194D01*
X0066518Y0051195D02*
X0064786Y0051195D01*
X0064786Y0051196D02*
X0066518Y0051196D01*
X0066518Y0051197D02*
X0064786Y0051197D01*
X0064786Y0051198D02*
X0066518Y0051198D01*
X0066518Y0051199D02*
X0064786Y0051199D01*
X0064786Y0051200D02*
X0066518Y0051200D01*
X0066518Y0051201D02*
X0064786Y0051201D01*
X0064786Y0051202D02*
X0066518Y0051202D01*
X0066518Y0051203D02*
X0064786Y0051203D01*
X0064786Y0051204D02*
X0066518Y0051204D01*
X0066518Y0051205D02*
X0064786Y0051205D01*
X0064786Y0051206D02*
X0066518Y0051206D01*
X0064786Y0051206D01*
X0064786Y0051207D02*
X0066518Y0051207D01*
X0066518Y0051208D02*
X0064786Y0051208D01*
X0064786Y0051209D02*
X0066518Y0051209D01*
X0066518Y0051210D02*
X0064786Y0051210D01*
X0064786Y0051211D02*
X0066518Y0051211D01*
X0066518Y0051212D02*
X0064786Y0051212D01*
X0064786Y0051213D02*
X0066518Y0051213D01*
X0066518Y0051214D02*
X0064786Y0051214D01*
X0064786Y0051215D02*
X0066518Y0051215D01*
X0066518Y0051216D02*
X0064786Y0051216D01*
X0064786Y0051217D02*
X0066518Y0051217D01*
X0066518Y0051218D02*
X0064786Y0051218D01*
X0064786Y0051219D02*
X0066518Y0051219D01*
X0066518Y0051220D02*
X0064786Y0051220D01*
X0064786Y0051221D02*
X0066518Y0051221D01*
X0066518Y0051222D02*
X0064786Y0051222D01*
X0064786Y0051223D02*
X0066518Y0051223D01*
X0066518Y0051224D02*
X0064786Y0051224D01*
X0064786Y0051225D02*
X0066518Y0051225D01*
X0066518Y0051226D02*
X0064786Y0051226D01*
X0064786Y0051227D02*
X0066518Y0051227D01*
X0066518Y0051228D02*
X0064786Y0051228D01*
X0064786Y0051229D02*
X0066518Y0051229D01*
X0066518Y0051230D02*
X0064786Y0051230D01*
X0064786Y0051231D02*
X0066518Y0051231D01*
X0066518Y0051232D02*
X0064786Y0051232D01*
X0064786Y0051233D02*
X0066518Y0051233D01*
X0066518Y0051234D02*
X0064786Y0051234D01*
X0064786Y0051235D02*
X0066518Y0051235D01*
X0066518Y0051236D02*
X0064786Y0051236D01*
X0064786Y0051237D02*
X0066518Y0051237D01*
X0066518Y0051238D02*
X0064786Y0051238D01*
X0064786Y0051239D02*
X0066518Y0051239D01*
X0066518Y0051240D02*
X0064786Y0051240D01*
X0064786Y0051241D02*
X0066518Y0051241D01*
X0066518Y0051242D02*
X0064786Y0051242D01*
X0064786Y0051243D02*
X0066518Y0051243D01*
X0066518Y0051244D02*
X0064786Y0051244D01*
X0064786Y0051245D02*
X0066518Y0051245D01*
X0066518Y0051246D02*
X0064786Y0051246D01*
X0064786Y0051247D02*
X0066518Y0051247D01*
X0066518Y0051248D02*
X0064786Y0051248D01*
X0064786Y0051249D02*
X0066518Y0051249D01*
X0066518Y0051250D02*
X0064786Y0051250D01*
X0064786Y0051251D02*
X0066518Y0051251D01*
X0066518Y0051252D02*
X0064786Y0051252D01*
X0064786Y0051253D02*
X0066518Y0051253D01*
X0066518Y0051254D02*
X0064786Y0051254D01*
X0064786Y0051255D02*
X0066518Y0051255D01*
X0066518Y0051256D02*
X0064786Y0051256D01*
X0064786Y0051257D02*
X0066518Y0051257D01*
X0066518Y0051258D02*
X0064786Y0051258D01*
X0064786Y0051259D02*
X0066518Y0051259D01*
X0066518Y0051260D02*
X0064786Y0051260D01*
X0064786Y0051261D02*
X0066518Y0051261D01*
X0066518Y0051262D02*
X0064786Y0051262D01*
X0064786Y0051263D02*
X0066518Y0051263D01*
X0066518Y0051264D02*
X0064786Y0051264D01*
X0064786Y0051265D02*
X0066518Y0051265D01*
X0066518Y0051266D02*
X0064786Y0051266D01*
X0064786Y0051267D02*
X0066518Y0051267D01*
X0066518Y0051268D02*
X0064786Y0051268D01*
X0064786Y0051269D02*
X0066518Y0051269D01*
X0064786Y0051269D01*
X0064786Y0051270D02*
X0066518Y0051270D01*
X0066518Y0051271D02*
X0064786Y0051271D01*
X0064786Y0051272D02*
X0066518Y0051272D01*
X0066518Y0051273D02*
X0064786Y0051273D01*
X0064786Y0051274D02*
X0066518Y0051274D01*
X0066518Y0051275D02*
X0064786Y0051275D01*
X0064786Y0051276D02*
X0066518Y0051276D01*
X0066518Y0051277D02*
X0064786Y0051277D01*
X0064786Y0051278D02*
X0066518Y0051278D01*
X0066518Y0051279D02*
X0064786Y0051279D01*
X0064786Y0051280D02*
X0066518Y0051280D01*
X0066518Y0051281D02*
X0064786Y0051281D01*
X0064786Y0051282D02*
X0066518Y0051282D01*
X0066518Y0051283D02*
X0064786Y0051283D01*
X0064786Y0051284D02*
X0066518Y0051284D01*
X0066518Y0051285D02*
X0064786Y0051285D01*
X0064786Y0051286D02*
X0066518Y0051286D01*
X0066518Y0051287D02*
X0064786Y0051287D01*
X0064786Y0051288D02*
X0066518Y0051288D01*
X0066518Y0051289D02*
X0064786Y0051289D01*
X0064786Y0051290D02*
X0066518Y0051290D01*
X0066518Y0051291D02*
X0064786Y0051291D01*
X0064786Y0051292D02*
X0066518Y0051292D01*
X0066518Y0051293D02*
X0064786Y0051293D01*
X0064786Y0051294D02*
X0066518Y0051294D01*
X0066518Y0051295D02*
X0064786Y0051295D01*
X0064786Y0051296D02*
X0066518Y0051296D01*
X0066518Y0051297D02*
X0064786Y0051297D01*
X0064786Y0051298D02*
X0066518Y0051298D01*
X0066518Y0051299D02*
X0064786Y0051299D01*
X0064786Y0051300D02*
X0066518Y0051300D01*
X0066518Y0051301D02*
X0064786Y0051301D01*
X0064786Y0051302D02*
X0066518Y0051302D01*
X0066518Y0051303D02*
X0064786Y0051303D01*
X0064786Y0051304D02*
X0066518Y0051304D01*
X0066518Y0051305D02*
X0064786Y0051305D01*
X0064786Y0051306D02*
X0066518Y0051306D01*
X0066518Y0051307D02*
X0064786Y0051307D01*
X0064786Y0051308D02*
X0066518Y0051308D01*
X0066518Y0051309D02*
X0064786Y0051309D01*
X0064786Y0051310D02*
X0066518Y0051310D01*
X0066518Y0051311D02*
X0064786Y0051311D01*
X0064786Y0051312D02*
X0066518Y0051312D01*
X0066518Y0051313D02*
X0064786Y0051313D01*
X0064786Y0051314D02*
X0066518Y0051314D01*
X0066518Y0051315D02*
X0064786Y0051315D01*
X0064786Y0051316D02*
X0066518Y0051316D01*
X0066518Y0051317D02*
X0064786Y0051317D01*
X0064786Y0051318D02*
X0066518Y0051318D01*
X0066518Y0051319D02*
X0064786Y0051319D01*
X0064786Y0051320D02*
X0066518Y0051320D01*
X0066518Y0051321D02*
X0064786Y0051321D01*
X0064786Y0051322D02*
X0066518Y0051322D01*
X0066518Y0051323D02*
X0064786Y0051323D01*
X0064786Y0051324D02*
X0066518Y0051324D01*
X0066518Y0051325D02*
X0064786Y0051325D01*
X0064786Y0051326D02*
X0066518Y0051326D01*
X0066518Y0051327D02*
X0064786Y0051327D01*
X0064786Y0051328D02*
X0066518Y0051328D01*
X0066518Y0051329D02*
X0064786Y0051329D01*
X0064786Y0051330D02*
X0066518Y0051330D01*
X0066518Y0051331D02*
X0064786Y0051331D01*
X0066518Y0051331D01*
X0066518Y0051332D02*
X0064786Y0051332D01*
X0064786Y0051333D02*
X0066518Y0051333D01*
X0066518Y0051334D02*
X0064786Y0051334D01*
X0064786Y0051335D02*
X0066518Y0051335D01*
X0066518Y0051336D02*
X0064786Y0051336D01*
X0064786Y0051337D02*
X0066518Y0051337D01*
X0066518Y0051338D02*
X0064786Y0051338D01*
X0064786Y0051339D02*
X0066518Y0051339D01*
X0066518Y0051340D02*
X0064786Y0051340D01*
X0064786Y0051341D02*
X0066518Y0051341D01*
X0066518Y0051342D02*
X0064786Y0051342D01*
X0064786Y0051343D02*
X0066518Y0051343D01*
X0066518Y0051344D02*
X0064786Y0051344D01*
X0064786Y0051345D02*
X0066518Y0051345D01*
X0066518Y0051346D02*
X0064786Y0051346D01*
X0064786Y0051347D02*
X0066518Y0051347D01*
X0066518Y0051348D02*
X0064786Y0051348D01*
X0064786Y0051349D02*
X0066518Y0051349D01*
X0066518Y0051350D02*
X0064786Y0051350D01*
X0064786Y0051351D02*
X0066518Y0051351D01*
X0066518Y0051352D02*
X0064786Y0051352D01*
X0064786Y0051353D02*
X0066518Y0051353D01*
X0066518Y0051354D02*
X0064786Y0051354D01*
X0064786Y0051355D02*
X0066518Y0051355D01*
X0066518Y0051356D02*
X0064786Y0051356D01*
X0064786Y0051357D02*
X0066518Y0051357D01*
X0066518Y0051358D02*
X0064786Y0051358D01*
X0064786Y0051359D02*
X0066518Y0051359D01*
X0066518Y0051360D02*
X0064786Y0051360D01*
X0064786Y0051361D02*
X0066518Y0051361D01*
X0066518Y0051362D02*
X0064786Y0051362D01*
X0064786Y0051363D02*
X0066518Y0051363D01*
X0066518Y0051364D02*
X0064786Y0051364D01*
X0064786Y0051365D02*
X0066518Y0051365D01*
X0066518Y0051366D02*
X0064786Y0051366D01*
X0064786Y0051367D02*
X0066518Y0051367D01*
X0066518Y0051368D02*
X0064786Y0051368D01*
X0064786Y0051369D02*
X0066518Y0051369D01*
X0066518Y0051370D02*
X0064786Y0051370D01*
X0064786Y0051371D02*
X0066518Y0051371D01*
X0066518Y0051372D02*
X0064786Y0051372D01*
X0064786Y0051373D02*
X0066518Y0051373D01*
X0066518Y0051374D02*
X0064786Y0051374D01*
X0064786Y0051375D02*
X0066518Y0051375D01*
X0066518Y0051376D02*
X0064786Y0051376D01*
X0064786Y0051377D02*
X0066518Y0051377D01*
X0066518Y0051378D02*
X0064786Y0051378D01*
X0064786Y0051379D02*
X0066518Y0051379D01*
X0066518Y0051380D02*
X0064786Y0051380D01*
X0064786Y0051381D02*
X0066518Y0051381D01*
X0066518Y0051382D02*
X0064786Y0051382D01*
X0064786Y0051383D02*
X0066518Y0051383D01*
X0066518Y0051384D02*
X0064786Y0051384D01*
X0064786Y0051385D02*
X0066518Y0051385D01*
X0066518Y0051386D02*
X0064786Y0051386D01*
X0064786Y0051387D02*
X0066518Y0051387D01*
X0066518Y0051388D02*
X0064786Y0051388D01*
X0064786Y0051389D02*
X0066518Y0051389D01*
X0066518Y0051390D02*
X0064786Y0051390D01*
X0064786Y0051391D02*
X0066518Y0051391D01*
X0066518Y0051392D02*
X0064786Y0051392D01*
X0064786Y0051393D02*
X0066518Y0051393D01*
X0066518Y0051394D02*
X0064786Y0051394D01*
X0066518Y0051394D01*
X0066518Y0051395D02*
X0064786Y0051395D01*
X0064786Y0051396D02*
X0066518Y0051396D01*
X0066518Y0051397D02*
X0064786Y0051397D01*
X0064786Y0051398D02*
X0066518Y0051398D01*
X0066518Y0051399D02*
X0064786Y0051399D01*
X0064786Y0051400D02*
X0066518Y0051400D01*
X0066518Y0051401D02*
X0064786Y0051401D01*
X0064786Y0051402D02*
X0066518Y0051402D01*
X0066518Y0051403D02*
X0064786Y0051403D01*
X0064786Y0051404D02*
X0066518Y0051404D01*
X0066518Y0051405D02*
X0064786Y0051405D01*
X0064786Y0051406D02*
X0066518Y0051406D01*
X0066518Y0051407D02*
X0064786Y0051407D01*
X0064786Y0051408D02*
X0066518Y0051408D01*
X0066518Y0051409D02*
X0064786Y0051409D01*
X0064786Y0051410D02*
X0066518Y0051410D01*
X0066518Y0051411D02*
X0064786Y0051411D01*
X0064786Y0051412D02*
X0066518Y0051412D01*
X0066518Y0051413D02*
X0064786Y0051413D01*
X0064786Y0051414D02*
X0066518Y0051414D01*
X0066518Y0051415D02*
X0064786Y0051415D01*
X0064786Y0051416D02*
X0066518Y0051416D01*
X0066518Y0051417D02*
X0064786Y0051417D01*
X0064786Y0051418D02*
X0066518Y0051418D01*
X0066518Y0051419D02*
X0064786Y0051419D01*
X0064786Y0051420D02*
X0066518Y0051420D01*
X0066518Y0051421D02*
X0064786Y0051421D01*
X0064786Y0051422D02*
X0066518Y0051422D01*
X0066518Y0051423D02*
X0064786Y0051423D01*
X0064786Y0051424D02*
X0066518Y0051424D01*
X0066518Y0051425D02*
X0064786Y0051425D01*
X0064786Y0051426D02*
X0066518Y0051426D01*
X0066518Y0051427D02*
X0064786Y0051427D01*
X0064786Y0051428D02*
X0066518Y0051428D01*
X0066518Y0051429D02*
X0064786Y0051429D01*
X0064786Y0051430D02*
X0066518Y0051430D01*
X0066518Y0051431D02*
X0064786Y0051431D01*
X0064786Y0051432D02*
X0066518Y0051432D01*
X0066518Y0051433D02*
X0064786Y0051433D01*
X0064786Y0051434D02*
X0066518Y0051434D01*
X0066518Y0051435D02*
X0064786Y0051435D01*
X0064786Y0051436D02*
X0066518Y0051436D01*
X0066518Y0051437D02*
X0064786Y0051437D01*
X0064786Y0051438D02*
X0066518Y0051438D01*
X0066518Y0051439D02*
X0064786Y0051439D01*
X0064786Y0051440D02*
X0066518Y0051440D01*
X0066518Y0051441D02*
X0064786Y0051441D01*
X0064786Y0051442D02*
X0066518Y0051442D01*
X0066518Y0051443D02*
X0064786Y0051443D01*
X0064786Y0051444D02*
X0066518Y0051444D01*
X0066518Y0051445D02*
X0064786Y0051445D01*
X0064786Y0051446D02*
X0066518Y0051446D01*
X0066518Y0051447D02*
X0064786Y0051447D01*
X0064786Y0051448D02*
X0066518Y0051448D01*
X0066518Y0051449D02*
X0064786Y0051449D01*
X0064786Y0051450D02*
X0066518Y0051450D01*
X0066518Y0051451D02*
X0064786Y0051451D01*
X0064786Y0051452D02*
X0066518Y0051452D01*
X0066518Y0051453D02*
X0064786Y0051453D01*
X0064786Y0051454D02*
X0066518Y0051454D01*
X0066518Y0051455D02*
X0064786Y0051455D01*
X0064786Y0051456D02*
X0066518Y0051456D01*
X0064786Y0051456D01*
X0064786Y0051457D02*
X0066518Y0051457D01*
X0066518Y0051458D02*
X0064786Y0051458D01*
X0064786Y0051459D02*
X0066518Y0051459D01*
X0066518Y0051460D02*
X0064786Y0051460D01*
X0064786Y0051461D02*
X0066518Y0051461D01*
X0066518Y0051462D02*
X0064786Y0051462D01*
X0064786Y0051463D02*
X0066518Y0051463D01*
X0066518Y0051464D02*
X0064786Y0051464D01*
X0064786Y0051465D02*
X0066518Y0051465D01*
X0066518Y0051466D02*
X0064786Y0051466D01*
X0064786Y0051467D02*
X0066518Y0051467D01*
X0066518Y0051468D02*
X0064786Y0051468D01*
X0064786Y0051469D02*
X0066518Y0051469D01*
X0066518Y0051470D02*
X0064786Y0051470D01*
X0064786Y0051471D02*
X0066518Y0051471D01*
X0066518Y0051472D02*
X0064786Y0051472D01*
X0064786Y0051473D02*
X0066518Y0051473D01*
X0066518Y0051474D02*
X0064786Y0051474D01*
X0064786Y0051475D02*
X0066518Y0051475D01*
X0066518Y0051476D02*
X0064786Y0051476D01*
X0064786Y0051477D02*
X0066518Y0051477D01*
X0066518Y0051478D02*
X0064786Y0051478D01*
X0064786Y0051479D02*
X0066518Y0051479D01*
X0066518Y0051480D02*
X0064786Y0051480D01*
X0064786Y0051481D02*
X0066518Y0051481D01*
X0066518Y0051482D02*
X0064786Y0051482D01*
X0064786Y0051483D02*
X0066518Y0051483D01*
X0066518Y0051484D02*
X0064786Y0051484D01*
X0064786Y0051485D02*
X0066518Y0051485D01*
X0066518Y0051486D02*
X0064786Y0051486D01*
X0064786Y0051487D02*
X0066518Y0051487D01*
X0066518Y0051488D02*
X0064786Y0051488D01*
X0064786Y0051489D02*
X0066518Y0051489D01*
X0066518Y0051490D02*
X0064786Y0051490D01*
X0064786Y0051491D02*
X0066518Y0051491D01*
X0066518Y0051492D02*
X0064786Y0051492D01*
X0064786Y0051493D02*
X0066518Y0051493D01*
X0066518Y0051494D02*
X0064786Y0051494D01*
X0064786Y0051495D02*
X0066518Y0051495D01*
X0066518Y0051496D02*
X0064786Y0051496D01*
X0064786Y0051497D02*
X0066518Y0051497D01*
X0066518Y0051498D02*
X0064786Y0051498D01*
X0064786Y0051499D02*
X0066518Y0051499D01*
X0066518Y0051500D02*
X0064786Y0051500D01*
X0064786Y0051501D02*
X0066518Y0051501D01*
X0066518Y0051502D02*
X0064786Y0051502D01*
X0064786Y0051503D02*
X0066518Y0051503D01*
X0066518Y0051504D02*
X0064786Y0051504D01*
X0064786Y0051505D02*
X0066518Y0051505D01*
X0066518Y0051506D02*
X0064786Y0051506D01*
X0064786Y0051507D02*
X0066518Y0051507D01*
X0066518Y0051508D02*
X0064786Y0051508D01*
X0064786Y0051509D02*
X0066518Y0051509D01*
X0066518Y0051510D02*
X0064786Y0051510D01*
X0064786Y0051511D02*
X0066518Y0051511D01*
X0066518Y0051512D02*
X0064786Y0051512D01*
X0064786Y0051513D02*
X0066518Y0051513D01*
X0066518Y0051514D02*
X0064786Y0051514D01*
X0064786Y0051515D02*
X0066518Y0051515D01*
X0066518Y0051516D02*
X0064786Y0051516D01*
X0064786Y0051517D02*
X0066518Y0051517D01*
X0066518Y0051518D02*
X0064786Y0051518D01*
X0064786Y0051519D02*
X0066518Y0051519D01*
X0064786Y0051519D01*
X0064786Y0051520D02*
X0066518Y0051520D01*
X0066518Y0051521D02*
X0064786Y0051521D01*
X0064786Y0051522D02*
X0066518Y0051522D01*
X0066518Y0051523D02*
X0064786Y0051523D01*
X0064786Y0051524D02*
X0066518Y0051524D01*
X0066518Y0051525D02*
X0064786Y0051525D01*
X0064786Y0051526D02*
X0066518Y0051526D01*
X0066518Y0051527D02*
X0064786Y0051527D01*
X0064786Y0051528D02*
X0066518Y0051528D01*
X0066518Y0051529D02*
X0064786Y0051529D01*
X0064786Y0051530D02*
X0066518Y0051530D01*
X0066518Y0051531D02*
X0064786Y0051531D01*
X0064786Y0051532D02*
X0066518Y0051532D01*
X0066518Y0051533D02*
X0064786Y0051533D01*
X0064786Y0051534D02*
X0066518Y0051534D01*
X0066518Y0051535D02*
X0064786Y0051535D01*
X0064786Y0051536D02*
X0066518Y0051536D01*
X0066518Y0051537D02*
X0064786Y0051537D01*
X0064786Y0051538D02*
X0066518Y0051538D01*
X0066518Y0051539D02*
X0064786Y0051539D01*
X0064786Y0051540D02*
X0066518Y0051540D01*
X0066518Y0051541D02*
X0064786Y0051541D01*
X0064786Y0051542D02*
X0066518Y0051542D01*
X0066518Y0051543D02*
X0064786Y0051543D01*
X0064786Y0051544D02*
X0066518Y0051544D01*
X0066518Y0051545D02*
X0064786Y0051545D01*
X0064786Y0051546D02*
X0066518Y0051546D01*
X0066518Y0051547D02*
X0064786Y0051547D01*
X0064786Y0051548D02*
X0066518Y0051548D01*
X0066518Y0051549D02*
X0064786Y0051549D01*
X0064786Y0051550D02*
X0066518Y0051550D01*
X0066518Y0051551D02*
X0064786Y0051551D01*
X0064786Y0051552D02*
X0066518Y0051552D01*
X0066518Y0051553D02*
X0064786Y0051553D01*
X0064786Y0051554D02*
X0066518Y0051554D01*
X0066518Y0051555D02*
X0064786Y0051555D01*
X0064786Y0051556D02*
X0066518Y0051556D01*
X0066518Y0051557D02*
X0064786Y0051557D01*
X0064786Y0051558D02*
X0066518Y0051558D01*
X0066518Y0051559D02*
X0064786Y0051559D01*
X0064786Y0051560D02*
X0066518Y0051560D01*
X0066518Y0051561D02*
X0064786Y0051561D01*
X0064786Y0051562D02*
X0066518Y0051562D01*
X0066518Y0051563D02*
X0064786Y0051563D01*
X0064786Y0051564D02*
X0066518Y0051564D01*
X0066518Y0051565D02*
X0064786Y0051565D01*
X0064786Y0051566D02*
X0066518Y0051566D01*
X0066518Y0051567D02*
X0064786Y0051567D01*
X0064786Y0051568D02*
X0066518Y0051568D01*
X0066518Y0051569D02*
X0064786Y0051569D01*
X0064786Y0051570D02*
X0066518Y0051570D01*
X0066518Y0051571D02*
X0064786Y0051571D01*
X0064786Y0051572D02*
X0066518Y0051572D01*
X0066518Y0051573D02*
X0064786Y0051573D01*
X0064786Y0051574D02*
X0066518Y0051574D01*
X0066518Y0051575D02*
X0064786Y0051575D01*
X0064786Y0051576D02*
X0066518Y0051576D01*
X0066518Y0051577D02*
X0064786Y0051577D01*
X0064786Y0051578D02*
X0066518Y0051578D01*
X0066518Y0051579D02*
X0064786Y0051579D01*
X0064786Y0051580D02*
X0066518Y0051580D01*
X0066518Y0051581D02*
X0064786Y0051581D01*
X0066518Y0051581D01*
X0066518Y0051582D02*
X0064786Y0051582D01*
X0064786Y0051583D02*
X0066518Y0051583D01*
X0066518Y0051584D02*
X0064786Y0051584D01*
X0064786Y0051585D02*
X0066518Y0051585D01*
X0066518Y0051586D02*
X0064786Y0051586D01*
X0064786Y0051587D02*
X0066518Y0051587D01*
X0066518Y0051588D02*
X0064786Y0051588D01*
X0064786Y0051589D02*
X0066518Y0051589D01*
X0066518Y0051590D02*
X0064786Y0051590D01*
X0064786Y0051591D02*
X0066518Y0051591D01*
X0066518Y0051592D02*
X0064786Y0051592D01*
X0064786Y0051593D02*
X0066518Y0051593D01*
X0066518Y0051594D02*
X0064786Y0051594D01*
X0064786Y0051595D02*
X0066518Y0051595D01*
X0066518Y0051596D02*
X0064786Y0051596D01*
X0064786Y0051597D02*
X0066518Y0051597D01*
X0066518Y0051598D02*
X0064786Y0051598D01*
X0064786Y0051599D02*
X0066518Y0051599D01*
X0066518Y0051600D02*
X0064786Y0051600D01*
X0064786Y0051601D02*
X0066518Y0051601D01*
X0066518Y0051602D02*
X0064786Y0051602D01*
X0064786Y0049240D02*
X0066518Y0049240D01*
X0066518Y0049239D02*
X0064786Y0049239D01*
X0064786Y0049238D02*
X0066518Y0049238D01*
X0066518Y0049237D02*
X0064786Y0049237D01*
X0064786Y0049236D02*
X0066518Y0049236D01*
X0066518Y0049235D02*
X0064786Y0049235D01*
X0064786Y0049234D02*
X0066518Y0049234D01*
X0066518Y0049233D02*
X0064786Y0049233D01*
X0064786Y0049232D02*
X0066518Y0049232D01*
X0066518Y0049231D02*
X0064786Y0049231D01*
X0064786Y0049230D02*
X0066518Y0049230D01*
X0066518Y0049229D02*
X0064786Y0049229D01*
X0064786Y0049228D02*
X0066518Y0049228D01*
X0066518Y0049227D02*
X0064786Y0049227D01*
X0064786Y0049226D02*
X0066518Y0049226D01*
X0066518Y0049225D02*
X0064786Y0049225D01*
X0064786Y0049224D02*
X0066518Y0049224D01*
X0066518Y0049223D02*
X0064786Y0049223D01*
X0064786Y0049222D02*
X0066518Y0049222D01*
X0066518Y0049221D02*
X0064786Y0049221D01*
X0064786Y0049220D02*
X0066518Y0049220D01*
X0066518Y0049219D02*
X0064786Y0049219D01*
X0064786Y0049218D02*
X0066518Y0049218D01*
X0066518Y0049217D02*
X0064786Y0049217D01*
X0064786Y0049216D02*
X0066518Y0049216D01*
X0066518Y0049215D02*
X0064786Y0049215D01*
X0064786Y0049214D02*
X0066518Y0049214D01*
X0066518Y0049213D02*
X0064786Y0049213D01*
X0064786Y0049212D02*
X0066518Y0049212D01*
X0066518Y0049211D02*
X0064786Y0049211D01*
X0064786Y0049210D02*
X0066518Y0049210D01*
X0066518Y0049209D02*
X0064786Y0049209D01*
X0064786Y0049208D02*
X0066518Y0049208D01*
X0066518Y0049207D02*
X0064786Y0049207D01*
X0064786Y0049206D02*
X0066518Y0049206D01*
X0064786Y0049206D01*
X0064786Y0049205D02*
X0066518Y0049205D01*
X0066518Y0049204D02*
X0064786Y0049204D01*
X0064786Y0049203D02*
X0066518Y0049203D01*
X0066518Y0049202D02*
X0064786Y0049202D01*
X0064786Y0049201D02*
X0066518Y0049201D01*
X0066518Y0049200D02*
X0064786Y0049200D01*
X0064786Y0049199D02*
X0066518Y0049199D01*
X0066518Y0049198D02*
X0064786Y0049198D01*
X0064786Y0049197D02*
X0066518Y0049197D01*
X0066518Y0049196D02*
X0064786Y0049196D01*
X0064786Y0049195D02*
X0066518Y0049195D01*
X0066518Y0049194D02*
X0064786Y0049194D01*
X0064786Y0049193D02*
X0066518Y0049193D01*
X0066518Y0049192D02*
X0064786Y0049192D01*
X0064786Y0049191D02*
X0066518Y0049191D01*
X0066518Y0049190D02*
X0064786Y0049190D01*
X0064786Y0049189D02*
X0066518Y0049189D01*
X0066518Y0049188D02*
X0064786Y0049188D01*
X0064786Y0049187D02*
X0066518Y0049187D01*
X0066518Y0049186D02*
X0064786Y0049186D01*
X0064786Y0049185D02*
X0066518Y0049185D01*
X0066518Y0049184D02*
X0064786Y0049184D01*
X0064786Y0049183D02*
X0066518Y0049183D01*
X0066518Y0049182D02*
X0064786Y0049182D01*
X0064786Y0049181D02*
X0066518Y0049181D01*
X0066518Y0049180D02*
X0064786Y0049180D01*
X0064786Y0049179D02*
X0066518Y0049179D01*
X0066518Y0049178D02*
X0064786Y0049178D01*
X0064786Y0049177D02*
X0066518Y0049177D01*
X0066518Y0049176D02*
X0064786Y0049176D01*
X0064786Y0049175D02*
X0066518Y0049175D01*
X0066518Y0049174D02*
X0064786Y0049174D01*
X0064786Y0049173D02*
X0066518Y0049173D01*
X0066518Y0049172D02*
X0064786Y0049172D01*
X0064786Y0049171D02*
X0066518Y0049171D01*
X0066518Y0049170D02*
X0064786Y0049170D01*
X0064786Y0049169D02*
X0066518Y0049169D01*
X0066518Y0049168D02*
X0064786Y0049168D01*
X0064786Y0049167D02*
X0066518Y0049167D01*
X0066518Y0049166D02*
X0064786Y0049166D01*
X0064786Y0049165D02*
X0066518Y0049165D01*
X0066518Y0049164D02*
X0064786Y0049164D01*
X0064786Y0049163D02*
X0066518Y0049163D01*
X0066518Y0049162D02*
X0064786Y0049162D01*
X0064786Y0049161D02*
X0066518Y0049161D01*
X0066518Y0049160D02*
X0064786Y0049160D01*
X0064786Y0049159D02*
X0066518Y0049159D01*
X0066518Y0049158D02*
X0064786Y0049158D01*
X0064786Y0049157D02*
X0066518Y0049157D01*
X0066518Y0049156D02*
X0064786Y0049156D01*
X0064786Y0049155D02*
X0066518Y0049155D01*
X0066518Y0049154D02*
X0064786Y0049154D01*
X0064786Y0049153D02*
X0066518Y0049153D01*
X0066518Y0049152D02*
X0064786Y0049152D01*
X0064786Y0049151D02*
X0066518Y0049151D01*
X0066518Y0049150D02*
X0064786Y0049150D01*
X0064786Y0049149D02*
X0066518Y0049149D01*
X0066518Y0049148D02*
X0064786Y0049148D01*
X0064786Y0049147D02*
X0066518Y0049147D01*
X0066518Y0049146D02*
X0064786Y0049146D01*
X0064786Y0049145D02*
X0066518Y0049145D01*
X0066518Y0049144D02*
X0064786Y0049144D01*
X0066518Y0049144D01*
X0066518Y0049143D02*
X0064786Y0049143D01*
X0064786Y0049142D02*
X0066518Y0049142D01*
X0066518Y0049141D02*
X0064786Y0049141D01*
X0064786Y0049140D02*
X0066518Y0049140D01*
X0066518Y0049139D02*
X0064786Y0049139D01*
X0064786Y0049138D02*
X0066518Y0049138D01*
X0066518Y0049137D02*
X0064786Y0049137D01*
X0064786Y0049136D02*
X0066518Y0049136D01*
X0066518Y0049135D02*
X0064786Y0049135D01*
X0064786Y0049134D02*
X0066518Y0049134D01*
X0066518Y0049133D02*
X0064786Y0049133D01*
X0064786Y0049132D02*
X0066518Y0049132D01*
X0066518Y0049131D02*
X0064786Y0049131D01*
X0064786Y0049130D02*
X0066518Y0049130D01*
X0066518Y0049129D02*
X0064786Y0049129D01*
X0064786Y0049128D02*
X0066518Y0049128D01*
X0066518Y0049127D02*
X0064786Y0049127D01*
X0064786Y0049126D02*
X0066518Y0049126D01*
X0066518Y0049125D02*
X0064786Y0049125D01*
X0064786Y0049124D02*
X0066518Y0049124D01*
X0066518Y0049123D02*
X0064786Y0049123D01*
X0064786Y0049122D02*
X0066518Y0049122D01*
X0066518Y0049121D02*
X0064786Y0049121D01*
X0064786Y0049120D02*
X0066518Y0049120D01*
X0066518Y0049119D02*
X0064786Y0049119D01*
X0064786Y0049118D02*
X0066518Y0049118D01*
X0066518Y0049117D02*
X0064786Y0049117D01*
X0064786Y0049116D02*
X0066518Y0049116D01*
X0066518Y0049115D02*
X0064786Y0049115D01*
X0064786Y0049114D02*
X0066518Y0049114D01*
X0066518Y0049113D02*
X0064786Y0049113D01*
X0064786Y0049112D02*
X0066518Y0049112D01*
X0066518Y0049111D02*
X0064786Y0049111D01*
X0064786Y0049110D02*
X0066518Y0049110D01*
X0066518Y0049109D02*
X0064786Y0049109D01*
X0064786Y0049108D02*
X0066518Y0049108D01*
X0066518Y0049107D02*
X0064786Y0049107D01*
X0064786Y0049106D02*
X0066518Y0049106D01*
X0066518Y0049105D02*
X0064786Y0049105D01*
X0064786Y0049104D02*
X0066518Y0049104D01*
X0066518Y0049103D02*
X0064786Y0049103D01*
X0064786Y0049102D02*
X0066518Y0049102D01*
X0066518Y0049101D02*
X0064786Y0049101D01*
X0064786Y0049100D02*
X0066518Y0049100D01*
X0066518Y0049099D02*
X0064786Y0049099D01*
X0064786Y0049098D02*
X0066518Y0049098D01*
X0066518Y0049097D02*
X0064786Y0049097D01*
X0064786Y0049096D02*
X0066518Y0049096D01*
X0066518Y0049095D02*
X0064786Y0049095D01*
X0064786Y0049094D02*
X0066518Y0049094D01*
X0066518Y0049093D02*
X0064786Y0049093D01*
X0064786Y0049092D02*
X0066518Y0049092D01*
X0066518Y0049091D02*
X0064786Y0049091D01*
X0064786Y0049090D02*
X0066518Y0049090D01*
X0066518Y0049089D02*
X0064786Y0049089D01*
X0064786Y0049088D02*
X0066518Y0049088D01*
X0066518Y0049087D02*
X0064786Y0049087D01*
X0064786Y0049086D02*
X0066518Y0049086D01*
X0066518Y0049085D02*
X0064786Y0049085D01*
X0064786Y0049084D02*
X0066518Y0049084D01*
X0066518Y0049083D02*
X0064786Y0049083D01*
X0064786Y0049082D02*
X0066518Y0049082D01*
X0066518Y0049081D02*
X0064786Y0049081D01*
X0066518Y0049081D01*
X0066518Y0049080D02*
X0064786Y0049080D01*
X0064786Y0049079D02*
X0066518Y0049079D01*
X0066518Y0049078D02*
X0064786Y0049078D01*
X0064786Y0049077D02*
X0066518Y0049077D01*
X0066518Y0049076D02*
X0064786Y0049076D01*
X0064786Y0049075D02*
X0066518Y0049075D01*
X0066518Y0049074D02*
X0064786Y0049074D01*
X0064786Y0049073D02*
X0066518Y0049073D01*
X0066518Y0049072D02*
X0064786Y0049072D01*
X0064786Y0049071D02*
X0066518Y0049071D01*
X0066518Y0049070D02*
X0064786Y0049070D01*
X0064786Y0049069D02*
X0066518Y0049069D01*
X0066518Y0049068D02*
X0064786Y0049068D01*
X0064786Y0049067D02*
X0066518Y0049067D01*
X0066518Y0049066D02*
X0064786Y0049066D01*
X0064786Y0049065D02*
X0066518Y0049065D01*
X0066518Y0049064D02*
X0064786Y0049064D01*
X0064786Y0049063D02*
X0066518Y0049063D01*
X0066518Y0049062D02*
X0064786Y0049062D01*
X0064786Y0049061D02*
X0066518Y0049061D01*
X0066518Y0049060D02*
X0064786Y0049060D01*
X0064786Y0049059D02*
X0066518Y0049059D01*
X0066518Y0049058D02*
X0064786Y0049058D01*
X0064786Y0049057D02*
X0066518Y0049057D01*
X0066518Y0049056D02*
X0064786Y0049056D01*
X0064786Y0049055D02*
X0066518Y0049055D01*
X0066518Y0049054D02*
X0064786Y0049054D01*
X0064786Y0049053D02*
X0066518Y0049053D01*
X0066518Y0049052D02*
X0064786Y0049052D01*
X0064786Y0049051D02*
X0066518Y0049051D01*
X0066518Y0049050D02*
X0064786Y0049050D01*
X0064786Y0049049D02*
X0066518Y0049049D01*
X0066518Y0049048D02*
X0064786Y0049048D01*
X0064786Y0049047D02*
X0066518Y0049047D01*
X0066518Y0049046D02*
X0064786Y0049046D01*
X0064786Y0049045D02*
X0066518Y0049045D01*
X0066518Y0049044D02*
X0064786Y0049044D01*
X0064786Y0049043D02*
X0066518Y0049043D01*
X0066518Y0049042D02*
X0064786Y0049042D01*
X0064786Y0049041D02*
X0066518Y0049041D01*
X0066518Y0049040D02*
X0064786Y0049040D01*
X0064786Y0049039D02*
X0066518Y0049039D01*
X0066518Y0049038D02*
X0064786Y0049038D01*
X0064786Y0049037D02*
X0066518Y0049037D01*
X0066518Y0049036D02*
X0064786Y0049036D01*
X0064786Y0049035D02*
X0066518Y0049035D01*
X0066518Y0049034D02*
X0064786Y0049034D01*
X0064786Y0049033D02*
X0066518Y0049033D01*
X0066518Y0049032D02*
X0064786Y0049032D01*
X0064786Y0049031D02*
X0066518Y0049031D01*
X0066518Y0049030D02*
X0064786Y0049030D01*
X0064786Y0049029D02*
X0066518Y0049029D01*
X0066518Y0049028D02*
X0064786Y0049028D01*
X0064786Y0049027D02*
X0066518Y0049027D01*
X0066518Y0049026D02*
X0064786Y0049026D01*
X0064786Y0049025D02*
X0066518Y0049025D01*
X0066518Y0049024D02*
X0064786Y0049024D01*
X0064786Y0049023D02*
X0066518Y0049023D01*
X0066518Y0049022D02*
X0064786Y0049022D01*
X0064786Y0049021D02*
X0066518Y0049021D01*
X0066518Y0049020D02*
X0064786Y0049020D01*
X0064786Y0049019D02*
X0066518Y0049019D01*
X0064786Y0049019D01*
X0064786Y0049018D02*
X0066518Y0049018D01*
X0066518Y0049017D02*
X0064786Y0049017D01*
X0064786Y0049016D02*
X0066518Y0049016D01*
X0066518Y0049015D02*
X0064786Y0049015D01*
X0064786Y0049014D02*
X0066518Y0049014D01*
X0066518Y0049013D02*
X0064786Y0049013D01*
X0064786Y0049012D02*
X0066518Y0049012D01*
X0066518Y0049011D02*
X0064786Y0049011D01*
X0064786Y0049010D02*
X0066518Y0049010D01*
X0066518Y0049009D02*
X0064786Y0049009D01*
X0064786Y0049008D02*
X0066518Y0049008D01*
X0066518Y0049007D02*
X0064786Y0049007D01*
X0064786Y0049006D02*
X0066518Y0049006D01*
X0066518Y0049005D02*
X0064786Y0049005D01*
X0064786Y0049004D02*
X0066518Y0049004D01*
X0066518Y0049003D02*
X0064786Y0049003D01*
X0064786Y0049002D02*
X0066518Y0049002D01*
X0066518Y0049001D02*
X0064786Y0049001D01*
X0064786Y0049000D02*
X0066518Y0049000D01*
X0066518Y0048999D02*
X0064786Y0048999D01*
X0064786Y0048998D02*
X0066518Y0048998D01*
X0066518Y0048997D02*
X0064786Y0048997D01*
X0064786Y0048996D02*
X0066518Y0048996D01*
X0066518Y0048995D02*
X0064786Y0048995D01*
X0064786Y0048994D02*
X0066518Y0048994D01*
X0066518Y0048993D02*
X0064786Y0048993D01*
X0064786Y0048992D02*
X0066518Y0048992D01*
X0066518Y0048991D02*
X0064786Y0048991D01*
X0064786Y0048990D02*
X0066518Y0048990D01*
X0066518Y0048989D02*
X0064786Y0048989D01*
X0064786Y0048988D02*
X0066518Y0048988D01*
X0066518Y0048987D02*
X0064786Y0048987D01*
X0064786Y0048986D02*
X0066518Y0048986D01*
X0066518Y0048985D02*
X0064786Y0048985D01*
X0064786Y0048984D02*
X0066518Y0048984D01*
X0066518Y0048983D02*
X0064786Y0048983D01*
X0064786Y0048982D02*
X0066518Y0048982D01*
X0066518Y0048981D02*
X0064786Y0048981D01*
X0064786Y0048980D02*
X0066518Y0048980D01*
X0066518Y0048979D02*
X0064786Y0048979D01*
X0064786Y0048978D02*
X0066518Y0048978D01*
X0066518Y0048977D02*
X0064786Y0048977D01*
X0064786Y0048976D02*
X0066518Y0048976D01*
X0066518Y0048975D02*
X0064786Y0048975D01*
X0064786Y0048974D02*
X0066518Y0048974D01*
X0066518Y0048973D02*
X0064786Y0048973D01*
X0064786Y0048972D02*
X0066518Y0048972D01*
X0066518Y0048971D02*
X0064786Y0048971D01*
X0064786Y0048970D02*
X0066518Y0048970D01*
X0066518Y0048969D02*
X0064786Y0048969D01*
X0064786Y0048968D02*
X0066518Y0048968D01*
X0066518Y0048967D02*
X0064786Y0048967D01*
X0064786Y0048966D02*
X0066518Y0048966D01*
X0066518Y0048965D02*
X0064786Y0048965D01*
X0064786Y0048964D02*
X0066518Y0048964D01*
X0066518Y0048963D02*
X0064786Y0048963D01*
X0064786Y0048962D02*
X0066518Y0048962D01*
X0066518Y0048961D02*
X0064786Y0048961D01*
X0064786Y0048960D02*
X0066518Y0048960D01*
X0066518Y0048959D02*
X0064786Y0048959D01*
X0064786Y0048958D02*
X0066518Y0048958D01*
X0066518Y0048957D02*
X0064786Y0048957D01*
X0064786Y0048956D02*
X0066518Y0048956D01*
X0064786Y0048956D01*
X0064786Y0048955D02*
X0066518Y0048955D01*
X0066518Y0048954D02*
X0064786Y0048954D01*
X0064786Y0048953D02*
X0066518Y0048953D01*
X0066518Y0048952D02*
X0064786Y0048952D01*
X0064786Y0048951D02*
X0066518Y0048951D01*
X0066518Y0048950D02*
X0064786Y0048950D01*
X0064786Y0048949D02*
X0066518Y0048949D01*
X0066518Y0048948D02*
X0064786Y0048948D01*
X0064786Y0048947D02*
X0066518Y0048947D01*
X0066518Y0048946D02*
X0064786Y0048946D01*
X0064786Y0048945D02*
X0066518Y0048945D01*
X0066518Y0048944D02*
X0064786Y0048944D01*
X0064786Y0048943D02*
X0066518Y0048943D01*
X0066518Y0048942D02*
X0064786Y0048942D01*
X0064786Y0048941D02*
X0066518Y0048941D01*
X0066518Y0048940D02*
X0064786Y0048940D01*
X0064786Y0048939D02*
X0066518Y0048939D01*
X0066518Y0048938D02*
X0064786Y0048938D01*
X0064786Y0048937D02*
X0066518Y0048937D01*
X0066518Y0048936D02*
X0064786Y0048936D01*
X0064786Y0048935D02*
X0066518Y0048935D01*
X0066518Y0048934D02*
X0064786Y0048934D01*
X0064786Y0048933D02*
X0066518Y0048933D01*
X0066518Y0048932D02*
X0064786Y0048932D01*
X0064786Y0048931D02*
X0066518Y0048931D01*
X0066518Y0048930D02*
X0064786Y0048930D01*
X0064786Y0048929D02*
X0066518Y0048929D01*
X0066518Y0048928D02*
X0064786Y0048928D01*
X0064786Y0048927D02*
X0066518Y0048927D01*
X0066518Y0048926D02*
X0064786Y0048926D01*
X0064786Y0048925D02*
X0066518Y0048925D01*
X0066518Y0048924D02*
X0064786Y0048924D01*
X0064786Y0048923D02*
X0066518Y0048923D01*
X0066518Y0048922D02*
X0064786Y0048922D01*
X0064786Y0048921D02*
X0066518Y0048921D01*
X0066518Y0048920D02*
X0064786Y0048920D01*
X0064786Y0048919D02*
X0066518Y0048919D01*
X0066518Y0048918D02*
X0064786Y0048918D01*
X0064786Y0048917D02*
X0066518Y0048917D01*
X0066518Y0048916D02*
X0064786Y0048916D01*
X0064786Y0048915D02*
X0066518Y0048915D01*
X0066518Y0048914D02*
X0064786Y0048914D01*
X0064786Y0048913D02*
X0066518Y0048913D01*
X0066518Y0048912D02*
X0064786Y0048912D01*
X0064786Y0048911D02*
X0066518Y0048911D01*
X0066518Y0048910D02*
X0064786Y0048910D01*
X0064786Y0048909D02*
X0066518Y0048909D01*
X0066518Y0048908D02*
X0064786Y0048908D01*
X0064786Y0048907D02*
X0066518Y0048907D01*
X0066518Y0048906D02*
X0064786Y0048906D01*
X0064786Y0048905D02*
X0066518Y0048905D01*
X0066518Y0048904D02*
X0064786Y0048904D01*
X0064786Y0048903D02*
X0066518Y0048903D01*
X0066518Y0048902D02*
X0064786Y0048902D01*
X0064786Y0048901D02*
X0066518Y0048901D01*
X0066518Y0048900D02*
X0064786Y0048900D01*
X0064786Y0048899D02*
X0066518Y0048899D01*
X0066518Y0048898D02*
X0064786Y0048898D01*
X0064786Y0048897D02*
X0066518Y0048897D01*
X0066518Y0048896D02*
X0064786Y0048896D01*
X0064786Y0048895D02*
X0066518Y0048895D01*
X0066518Y0048894D02*
X0064786Y0048894D01*
X0066518Y0048894D01*
X0066518Y0048893D02*
X0064786Y0048893D01*
X0064786Y0048892D02*
X0066518Y0048892D01*
X0066518Y0048891D02*
X0064786Y0048891D01*
X0064786Y0048890D02*
X0066518Y0048890D01*
X0066518Y0048889D02*
X0064786Y0048889D01*
X0064786Y0048888D02*
X0066518Y0048888D01*
X0066518Y0048887D02*
X0064786Y0048887D01*
X0064786Y0048886D02*
X0066518Y0048886D01*
X0066518Y0048885D02*
X0064786Y0048885D01*
X0064786Y0048884D02*
X0066518Y0048884D01*
X0066518Y0048883D02*
X0064786Y0048883D01*
X0064786Y0048882D02*
X0066518Y0048882D01*
X0066518Y0048881D02*
X0064786Y0048881D01*
X0064786Y0048880D02*
X0066518Y0048880D01*
X0066518Y0048879D02*
X0064786Y0048879D01*
X0064786Y0048878D02*
X0066518Y0048878D01*
X0066518Y0048877D02*
X0064786Y0048877D01*
X0064786Y0048876D02*
X0066518Y0048876D01*
X0066518Y0048875D02*
X0064786Y0048875D01*
X0064786Y0048874D02*
X0066518Y0048874D01*
X0066518Y0048873D02*
X0064786Y0048873D01*
X0064786Y0048872D02*
X0066518Y0048872D01*
X0066518Y0048871D02*
X0064786Y0048871D01*
X0064786Y0048870D02*
X0066518Y0048870D01*
X0066518Y0048869D02*
X0064786Y0048869D01*
X0064786Y0048868D02*
X0066518Y0048868D01*
X0066518Y0048867D02*
X0064786Y0048867D01*
X0064786Y0048866D02*
X0066518Y0048866D01*
X0066518Y0048865D02*
X0064786Y0048865D01*
X0064786Y0048864D02*
X0066518Y0048864D01*
X0066518Y0048863D02*
X0064786Y0048863D01*
X0064786Y0048862D02*
X0066518Y0048862D01*
X0066518Y0048861D02*
X0064786Y0048861D01*
X0064786Y0048860D02*
X0066518Y0048860D01*
X0066518Y0048859D02*
X0064786Y0048859D01*
X0064786Y0048858D02*
X0066518Y0048858D01*
X0066518Y0048857D02*
X0064786Y0048857D01*
X0064786Y0048856D02*
X0066518Y0048856D01*
X0066518Y0048855D02*
X0064786Y0048855D01*
X0064786Y0048854D02*
X0066518Y0048854D01*
X0066518Y0048853D02*
X0064786Y0048853D01*
X0064786Y0048852D02*
X0066518Y0048852D01*
X0066518Y0048851D02*
X0064786Y0048851D01*
X0064786Y0048850D02*
X0066518Y0048850D01*
X0066518Y0048849D02*
X0064786Y0048849D01*
X0064786Y0048848D02*
X0066518Y0048848D01*
X0066518Y0048847D02*
X0064786Y0048847D01*
X0064786Y0048846D02*
X0066518Y0048846D01*
X0066518Y0048845D02*
X0064786Y0048845D01*
X0064786Y0048844D02*
X0066518Y0048844D01*
X0066518Y0048843D02*
X0064786Y0048843D01*
X0064786Y0048842D02*
X0066518Y0048842D01*
X0066518Y0048841D02*
X0064786Y0048841D01*
X0064786Y0048840D02*
X0066518Y0048840D01*
X0066518Y0048839D02*
X0064786Y0048839D01*
X0064786Y0048838D02*
X0066518Y0048838D01*
X0066518Y0048837D02*
X0064786Y0048837D01*
X0064786Y0048836D02*
X0066518Y0048836D01*
X0066518Y0048835D02*
X0064786Y0048835D01*
X0064786Y0048834D02*
X0066518Y0048834D01*
X0066518Y0048833D02*
X0064786Y0048833D01*
X0064786Y0048832D02*
X0066518Y0048832D01*
X0066518Y0048831D02*
X0064786Y0048831D01*
X0066518Y0048831D01*
X0066518Y0048830D02*
X0064786Y0048830D01*
X0064786Y0048829D02*
X0066518Y0048829D01*
X0066518Y0048828D02*
X0064786Y0048828D01*
X0064786Y0048827D02*
X0066518Y0048827D01*
X0066518Y0048826D02*
X0064786Y0048826D01*
X0064786Y0048825D02*
X0066518Y0048825D01*
X0066518Y0048824D02*
X0064786Y0048824D01*
X0064786Y0048823D02*
X0066518Y0048823D01*
X0066518Y0048822D02*
X0064786Y0048822D01*
X0064786Y0048821D02*
X0066518Y0048821D01*
X0066518Y0048820D02*
X0064786Y0048820D01*
X0064786Y0048819D02*
X0066518Y0048819D01*
X0066518Y0048818D02*
X0064786Y0048818D01*
X0064786Y0048817D02*
X0066518Y0048817D01*
X0066518Y0048816D02*
X0064786Y0048816D01*
X0064786Y0048815D02*
X0066518Y0048815D01*
X0066518Y0048814D02*
X0064786Y0048814D01*
X0064786Y0048813D02*
X0066518Y0048813D01*
X0066518Y0048812D02*
X0064786Y0048812D01*
X0064786Y0048811D02*
X0066518Y0048811D01*
X0066518Y0048810D02*
X0064786Y0048810D01*
X0064786Y0048809D02*
X0066518Y0048809D01*
X0066518Y0048808D02*
X0064786Y0048808D01*
X0064786Y0048807D02*
X0066518Y0048807D01*
X0066518Y0048806D02*
X0064786Y0048806D01*
X0064786Y0048805D02*
X0066518Y0048805D01*
X0066518Y0048804D02*
X0064786Y0048804D01*
X0064786Y0048803D02*
X0066518Y0048803D01*
X0066518Y0048802D02*
X0064786Y0048802D01*
X0064786Y0048801D02*
X0066518Y0048801D01*
X0066518Y0048800D02*
X0064786Y0048800D01*
X0064786Y0048799D02*
X0066518Y0048799D01*
X0066518Y0048798D02*
X0064786Y0048798D01*
X0064786Y0048797D02*
X0066518Y0048797D01*
X0066518Y0048796D02*
X0064786Y0048796D01*
X0064786Y0048795D02*
X0066518Y0048795D01*
X0066518Y0048794D02*
X0064786Y0048794D01*
X0064786Y0048793D02*
X0066518Y0048793D01*
X0066518Y0048792D02*
X0064786Y0048792D01*
X0064786Y0048791D02*
X0066518Y0048791D01*
X0066518Y0048790D02*
X0064786Y0048790D01*
X0064786Y0048789D02*
X0066518Y0048789D01*
X0066518Y0048788D02*
X0064786Y0048788D01*
X0064786Y0048787D02*
X0066518Y0048787D01*
X0066518Y0048786D02*
X0064786Y0048786D01*
X0064786Y0048785D02*
X0066518Y0048785D01*
X0066518Y0048784D02*
X0064786Y0048784D01*
X0064786Y0048783D02*
X0066518Y0048783D01*
X0066518Y0048782D02*
X0064786Y0048782D01*
X0064786Y0048781D02*
X0066518Y0048781D01*
X0066518Y0048780D02*
X0064786Y0048780D01*
X0064786Y0048779D02*
X0066518Y0048779D01*
X0066518Y0048778D02*
X0064786Y0048778D01*
X0064786Y0048777D02*
X0066518Y0048777D01*
X0066518Y0048776D02*
X0064786Y0048776D01*
X0064786Y0048775D02*
X0066518Y0048775D01*
X0066518Y0048774D02*
X0064786Y0048774D01*
X0064786Y0048773D02*
X0066518Y0048773D01*
X0066518Y0048772D02*
X0064786Y0048772D01*
X0064786Y0048771D02*
X0066518Y0048771D01*
X0066518Y0048770D02*
X0064786Y0048770D01*
X0064786Y0048769D02*
X0066518Y0048769D01*
X0064786Y0048769D01*
X0064786Y0048768D02*
X0066518Y0048768D01*
X0066518Y0048767D02*
X0064786Y0048767D01*
X0064786Y0048766D02*
X0066518Y0048766D01*
X0066518Y0048765D02*
X0064786Y0048765D01*
X0064786Y0048764D02*
X0066518Y0048764D01*
X0066518Y0048763D02*
X0064786Y0048763D01*
X0064786Y0048762D02*
X0066518Y0048762D01*
X0066518Y0048761D02*
X0064786Y0048761D01*
X0064786Y0048760D02*
X0066518Y0048760D01*
X0066518Y0048759D02*
X0064786Y0048759D01*
X0064786Y0048758D02*
X0066518Y0048758D01*
X0066518Y0048757D02*
X0064786Y0048757D01*
X0064786Y0048756D02*
X0066518Y0048756D01*
X0066518Y0048755D02*
X0064786Y0048755D01*
X0064786Y0048754D02*
X0066518Y0048754D01*
X0066518Y0048753D02*
X0064786Y0048753D01*
X0064786Y0048752D02*
X0066518Y0048752D01*
X0066518Y0048751D02*
X0064786Y0048751D01*
X0064786Y0048750D02*
X0066518Y0048750D01*
X0066518Y0048749D02*
X0064786Y0048749D01*
X0064786Y0048748D02*
X0066518Y0048748D01*
X0066518Y0048747D02*
X0064786Y0048747D01*
X0064786Y0048746D02*
X0066518Y0048746D01*
X0066518Y0048745D02*
X0064786Y0048745D01*
X0064786Y0048744D02*
X0066518Y0048744D01*
X0066518Y0048743D02*
X0064786Y0048743D01*
X0064786Y0048742D02*
X0066518Y0048742D01*
X0066518Y0048741D02*
X0064786Y0048741D01*
X0064786Y0048740D02*
X0066518Y0048740D01*
X0066518Y0048739D02*
X0064786Y0048739D01*
X0064786Y0048738D02*
X0066518Y0048738D01*
X0066518Y0048737D02*
X0064786Y0048737D01*
X0064786Y0048736D02*
X0066518Y0048736D01*
X0066518Y0048735D02*
X0064786Y0048735D01*
X0064786Y0048734D02*
X0066518Y0048734D01*
X0066518Y0048733D02*
X0064786Y0048733D01*
X0064786Y0048732D02*
X0066518Y0048732D01*
X0066518Y0048731D02*
X0064786Y0048731D01*
X0064786Y0048730D02*
X0066518Y0048730D01*
X0066518Y0048729D02*
X0064786Y0048729D01*
X0064786Y0048728D02*
X0066518Y0048728D01*
X0066518Y0048727D02*
X0064786Y0048727D01*
X0064786Y0048726D02*
X0066518Y0048726D01*
X0066518Y0048725D02*
X0064786Y0048725D01*
X0064786Y0048724D02*
X0066518Y0048724D01*
X0066518Y0048723D02*
X0064786Y0048723D01*
X0064786Y0048722D02*
X0066518Y0048722D01*
X0066518Y0048721D02*
X0064786Y0048721D01*
X0064786Y0048720D02*
X0066518Y0048720D01*
X0066518Y0048719D02*
X0064786Y0048719D01*
X0064786Y0048718D02*
X0066518Y0048718D01*
X0066518Y0048717D02*
X0064786Y0048717D01*
X0064786Y0048716D02*
X0066518Y0048716D01*
X0066518Y0048715D02*
X0064786Y0048715D01*
X0064786Y0048714D02*
X0066518Y0048714D01*
X0066518Y0048713D02*
X0064786Y0048713D01*
X0064786Y0048712D02*
X0066518Y0048712D01*
X0066518Y0048711D02*
X0064786Y0048711D01*
X0064786Y0048710D02*
X0066518Y0048710D01*
X0066518Y0048709D02*
X0064786Y0048709D01*
X0064786Y0048708D02*
X0066518Y0048708D01*
X0066518Y0048707D02*
X0064786Y0048707D01*
X0064786Y0048706D02*
X0066518Y0048706D01*
X0064786Y0048706D01*
X0064786Y0048705D02*
X0066518Y0048705D01*
X0066518Y0048704D02*
X0064786Y0048704D01*
X0064786Y0048703D02*
X0066518Y0048703D01*
X0066518Y0048702D02*
X0064786Y0048702D01*
X0064786Y0048701D02*
X0066518Y0048701D01*
X0066518Y0048700D02*
X0064786Y0048700D01*
X0064786Y0048699D02*
X0066518Y0048699D01*
X0066518Y0048698D02*
X0064786Y0048698D01*
X0064786Y0048697D02*
X0066518Y0048697D01*
X0066518Y0048696D02*
X0064786Y0048696D01*
X0064786Y0048695D02*
X0066518Y0048695D01*
X0066518Y0048694D02*
X0064786Y0048694D01*
X0064786Y0048693D02*
X0066518Y0048693D01*
X0066518Y0048692D02*
X0064786Y0048692D01*
X0064786Y0048691D02*
X0066518Y0048691D01*
X0066518Y0048690D02*
X0064786Y0048690D01*
X0064786Y0048689D02*
X0066518Y0048689D01*
X0066518Y0048688D02*
X0064786Y0048688D01*
X0064786Y0048687D02*
X0066518Y0048687D01*
X0066518Y0048686D02*
X0064786Y0048686D01*
X0064786Y0048685D02*
X0066518Y0048685D01*
X0066518Y0048684D02*
X0064786Y0048684D01*
X0064786Y0048683D02*
X0066518Y0048683D01*
X0066518Y0048682D02*
X0064786Y0048682D01*
X0064786Y0048681D02*
X0066518Y0048681D01*
X0066518Y0048680D02*
X0064786Y0048680D01*
X0064786Y0048679D02*
X0066518Y0048679D01*
X0066518Y0048678D02*
X0064786Y0048678D01*
X0064786Y0048677D02*
X0066518Y0048677D01*
X0066518Y0048676D02*
X0064786Y0048676D01*
X0064786Y0048675D02*
X0066518Y0048675D01*
X0066518Y0048674D02*
X0064786Y0048674D01*
X0064786Y0048673D02*
X0066518Y0048673D01*
X0066518Y0048672D02*
X0064786Y0048672D01*
X0064786Y0048671D02*
X0066518Y0048671D01*
X0066518Y0048670D02*
X0064786Y0048670D01*
X0064786Y0048669D02*
X0066518Y0048669D01*
X0066518Y0048668D02*
X0064786Y0048668D01*
X0064786Y0048667D02*
X0066518Y0048667D01*
X0066518Y0048666D02*
X0064786Y0048666D01*
X0064786Y0048665D02*
X0066518Y0048665D01*
X0066518Y0048664D02*
X0064786Y0048664D01*
X0064786Y0048663D02*
X0066518Y0048663D01*
X0066518Y0048662D02*
X0064786Y0048662D01*
X0064786Y0048661D02*
X0066518Y0048661D01*
X0066518Y0048660D02*
X0064786Y0048660D01*
X0064786Y0048659D02*
X0066518Y0048659D01*
X0066518Y0048658D02*
X0064786Y0048658D01*
X0064786Y0048657D02*
X0066518Y0048657D01*
X0066518Y0048656D02*
X0064786Y0048656D01*
X0064786Y0048655D02*
X0066518Y0048655D01*
X0066518Y0048654D02*
X0064786Y0048654D01*
X0064786Y0048653D02*
X0066518Y0048653D01*
X0066518Y0048652D02*
X0064786Y0048652D01*
X0064786Y0048651D02*
X0066518Y0048651D01*
X0066518Y0048650D02*
X0064786Y0048650D01*
X0064786Y0048649D02*
X0066518Y0048649D01*
X0066518Y0048648D02*
X0064786Y0048648D01*
X0064786Y0048647D02*
X0066518Y0048647D01*
X0066518Y0048646D02*
X0064786Y0048646D01*
X0064786Y0048645D02*
X0066518Y0048645D01*
X0066518Y0048644D02*
X0064786Y0048644D01*
X0066518Y0048644D01*
X0066518Y0048643D02*
X0064786Y0048643D01*
X0064786Y0048642D02*
X0066518Y0048642D01*
X0066518Y0048641D02*
X0064786Y0048641D01*
X0064786Y0048640D02*
X0066518Y0048640D01*
X0066518Y0048639D02*
X0064786Y0048639D01*
X0064786Y0048638D02*
X0066518Y0048638D01*
X0066518Y0048637D02*
X0064786Y0048637D01*
X0064786Y0048636D02*
X0066518Y0048636D01*
X0066518Y0048635D02*
X0064786Y0048635D01*
X0064786Y0048634D02*
X0066518Y0048634D01*
X0066518Y0048633D02*
X0064786Y0048633D01*
X0064786Y0048632D02*
X0066518Y0048632D01*
X0066518Y0048631D02*
X0064786Y0048631D01*
X0064786Y0048630D02*
X0066518Y0048630D01*
X0066518Y0048629D02*
X0064786Y0048629D01*
X0064786Y0048628D02*
X0066518Y0048628D01*
X0066518Y0048627D02*
X0064786Y0048627D01*
X0064786Y0048626D02*
X0066518Y0048626D01*
X0066518Y0048625D02*
X0064786Y0048625D01*
X0064786Y0048624D02*
X0066518Y0048624D01*
X0066518Y0048623D02*
X0064786Y0048623D01*
X0064786Y0048622D02*
X0066518Y0048622D01*
X0066518Y0048621D02*
X0064786Y0048621D01*
X0064786Y0048620D02*
X0066518Y0048620D01*
X0066518Y0048619D02*
X0064786Y0048619D01*
X0064786Y0048618D02*
X0066518Y0048618D01*
X0066518Y0048617D02*
X0064786Y0048617D01*
X0064786Y0048616D02*
X0066518Y0048616D01*
X0066518Y0048615D02*
X0064786Y0048615D01*
X0064786Y0048614D02*
X0066518Y0048614D01*
X0066518Y0048613D02*
X0064786Y0048613D01*
X0064786Y0048612D02*
X0066518Y0048612D01*
X0066518Y0048611D02*
X0064786Y0048611D01*
X0064786Y0048610D02*
X0066518Y0048610D01*
X0066518Y0048609D02*
X0064786Y0048609D01*
X0064786Y0048608D02*
X0066518Y0048608D01*
X0066518Y0048607D02*
X0064786Y0048607D01*
X0064786Y0048606D02*
X0066518Y0048606D01*
X0066518Y0048605D02*
X0064786Y0048605D01*
X0064786Y0048604D02*
X0066518Y0048604D01*
X0066518Y0048603D02*
X0064786Y0048603D01*
X0064786Y0048602D02*
X0066518Y0048602D01*
X0066518Y0048601D02*
X0064786Y0048601D01*
X0064786Y0048600D02*
X0066518Y0048600D01*
X0066518Y0048599D02*
X0064786Y0048599D01*
X0064786Y0048598D02*
X0066518Y0048598D01*
X0066518Y0048597D02*
X0064786Y0048597D01*
X0064786Y0048596D02*
X0066518Y0048596D01*
X0066518Y0048595D02*
X0064786Y0048595D01*
X0064786Y0048594D02*
X0066518Y0048594D01*
X0066518Y0048593D02*
X0064786Y0048593D01*
X0064786Y0048592D02*
X0066518Y0048592D01*
X0066518Y0048591D02*
X0064786Y0048591D01*
X0064786Y0048590D02*
X0066518Y0048590D01*
X0066518Y0048589D02*
X0064786Y0048589D01*
X0064786Y0048588D02*
X0066518Y0048588D01*
X0066518Y0048587D02*
X0064786Y0048587D01*
X0064786Y0048586D02*
X0066518Y0048586D01*
X0066518Y0048585D02*
X0064786Y0048585D01*
X0064786Y0048584D02*
X0066518Y0048584D01*
X0066518Y0048583D02*
X0064786Y0048583D01*
X0064786Y0048582D02*
X0066518Y0048582D01*
X0066518Y0048581D02*
X0064786Y0048581D01*
X0066518Y0048581D01*
X0066518Y0048580D02*
X0064786Y0048580D01*
X0064786Y0048579D02*
X0066518Y0048579D01*
X0066518Y0048578D02*
X0064786Y0048578D01*
X0064786Y0048577D02*
X0066518Y0048577D01*
X0066518Y0048576D02*
X0064786Y0048576D01*
X0064786Y0048575D02*
X0066518Y0048575D01*
X0066518Y0048574D02*
X0064786Y0048574D01*
X0064786Y0048573D02*
X0066518Y0048573D01*
X0066518Y0048572D02*
X0064786Y0048572D01*
X0064786Y0048571D02*
X0066518Y0048571D01*
X0066518Y0048570D02*
X0064786Y0048570D01*
X0064786Y0048569D02*
X0066518Y0048569D01*
X0066518Y0048568D02*
X0064786Y0048568D01*
X0064786Y0048567D02*
X0066518Y0048567D01*
X0066518Y0048566D02*
X0064786Y0048566D01*
X0064786Y0048565D02*
X0066518Y0048565D01*
X0066518Y0048564D02*
X0064786Y0048564D01*
X0064786Y0048563D02*
X0066518Y0048563D01*
X0066518Y0048562D02*
X0064786Y0048562D01*
X0064786Y0048561D02*
X0066518Y0048561D01*
X0066518Y0048560D02*
X0064786Y0048560D01*
X0064786Y0048559D02*
X0066518Y0048559D01*
X0066518Y0048558D02*
X0064786Y0048558D01*
X0064786Y0048557D02*
X0066518Y0048557D01*
X0066518Y0048556D02*
X0064786Y0048556D01*
X0064786Y0048555D02*
X0066518Y0048555D01*
X0066518Y0048554D02*
X0064786Y0048554D01*
X0064786Y0048553D02*
X0066518Y0048553D01*
X0066518Y0048552D02*
X0064786Y0048552D01*
X0064786Y0048551D02*
X0066518Y0048551D01*
X0066518Y0048550D02*
X0064786Y0048550D01*
X0064786Y0048549D02*
X0066518Y0048549D01*
X0066518Y0048548D02*
X0064786Y0048548D01*
X0064786Y0048547D02*
X0066518Y0048547D01*
X0066518Y0048546D02*
X0064786Y0048546D01*
X0064786Y0048545D02*
X0066518Y0048545D01*
X0066518Y0048544D02*
X0064786Y0048544D01*
X0064786Y0048543D02*
X0066518Y0048543D01*
X0066518Y0048542D02*
X0064786Y0048542D01*
X0064786Y0048541D02*
X0066518Y0048541D01*
X0066518Y0048540D02*
X0064786Y0048540D01*
X0064786Y0048539D02*
X0066518Y0048539D01*
X0066518Y0048538D02*
X0064786Y0048538D01*
X0064786Y0048537D02*
X0066518Y0048537D01*
X0066518Y0048536D02*
X0064786Y0048536D01*
X0064786Y0048535D02*
X0066518Y0048535D01*
X0066518Y0048534D02*
X0064786Y0048534D01*
X0064786Y0048533D02*
X0066518Y0048533D01*
X0066518Y0048532D02*
X0064786Y0048532D01*
X0064786Y0048531D02*
X0066518Y0048531D01*
X0066518Y0048530D02*
X0064786Y0048530D01*
X0064786Y0048529D02*
X0066518Y0048529D01*
X0066518Y0048528D02*
X0064786Y0048528D01*
X0064786Y0048527D02*
X0066518Y0048527D01*
X0066518Y0048526D02*
X0064786Y0048526D01*
X0064786Y0048525D02*
X0066518Y0048525D01*
X0066518Y0048524D02*
X0064786Y0048524D01*
X0064786Y0048523D02*
X0066518Y0048523D01*
X0066518Y0048522D02*
X0064786Y0048522D01*
X0064786Y0048521D02*
X0066518Y0048521D01*
X0066518Y0048520D02*
X0064786Y0048520D01*
X0064786Y0048519D02*
X0066518Y0048519D01*
X0064786Y0048519D01*
X0064786Y0048518D02*
X0066518Y0048518D01*
X0066518Y0048517D02*
X0064786Y0048517D01*
X0064786Y0048516D02*
X0066518Y0048516D01*
X0066518Y0048515D02*
X0064786Y0048515D01*
X0064786Y0048514D02*
X0066518Y0048514D01*
X0066518Y0048513D02*
X0064786Y0048513D01*
X0064786Y0048512D02*
X0066518Y0048512D01*
X0066518Y0048511D02*
X0064786Y0048511D01*
X0064786Y0048510D02*
X0066518Y0048510D01*
X0066518Y0048509D02*
X0064786Y0048509D01*
X0064786Y0048508D02*
X0066518Y0048508D01*
X0066518Y0048507D02*
X0064786Y0048507D01*
X0064786Y0048506D02*
X0066518Y0048506D01*
X0066518Y0048505D02*
X0064786Y0048505D01*
X0064786Y0048504D02*
X0066518Y0048504D01*
X0066518Y0048503D02*
X0064786Y0048503D01*
X0064786Y0048502D02*
X0066518Y0048502D01*
X0066518Y0048501D02*
X0064786Y0048501D01*
X0064786Y0048500D02*
X0066518Y0048500D01*
X0066518Y0048499D02*
X0064786Y0048499D01*
X0064786Y0048498D02*
X0066518Y0048498D01*
X0066518Y0048497D02*
X0064786Y0048497D01*
X0064786Y0048496D02*
X0066518Y0048496D01*
X0066518Y0048495D02*
X0064786Y0048495D01*
X0064786Y0048494D02*
X0066518Y0048494D01*
X0066518Y0048493D02*
X0064786Y0048493D01*
X0064786Y0048492D02*
X0066518Y0048492D01*
X0066518Y0048491D02*
X0064786Y0048491D01*
X0064786Y0048490D02*
X0066518Y0048490D01*
X0066518Y0048489D02*
X0064786Y0048489D01*
X0064786Y0048488D02*
X0066518Y0048488D01*
X0066518Y0048487D02*
X0064786Y0048487D01*
X0064786Y0048486D02*
X0066518Y0048486D01*
X0066518Y0048485D02*
X0064786Y0048485D01*
X0064786Y0048484D02*
X0066518Y0048484D01*
X0066518Y0048483D02*
X0064786Y0048483D01*
X0064786Y0048482D02*
X0066518Y0048482D01*
X0066518Y0048481D02*
X0064786Y0048481D01*
X0064786Y0048480D02*
X0066518Y0048480D01*
X0066518Y0048479D02*
X0064786Y0048479D01*
X0064786Y0048478D02*
X0066518Y0048478D01*
X0066518Y0048477D02*
X0064786Y0048477D01*
X0064786Y0048476D02*
X0066518Y0048476D01*
X0066518Y0048475D02*
X0064786Y0048475D01*
X0064786Y0048474D02*
X0066518Y0048474D01*
X0066518Y0048473D02*
X0064786Y0048473D01*
X0064786Y0048472D02*
X0066518Y0048472D01*
X0066518Y0048471D02*
X0064786Y0048471D01*
X0064786Y0048470D02*
X0066518Y0048470D01*
X0066518Y0048469D02*
X0064786Y0048469D01*
X0064786Y0048468D02*
X0066518Y0048468D01*
X0066518Y0048467D02*
X0064786Y0048467D01*
X0064786Y0048466D02*
X0066518Y0048466D01*
X0066518Y0048465D02*
X0064786Y0048465D01*
X0064786Y0048464D02*
X0066518Y0048464D01*
X0066518Y0048463D02*
X0064786Y0048463D01*
X0064786Y0048462D02*
X0066518Y0048462D01*
X0066518Y0048461D02*
X0064786Y0048461D01*
X0064786Y0048460D02*
X0066518Y0048460D01*
X0066518Y0048459D02*
X0064786Y0048459D01*
X0064786Y0048458D02*
X0066518Y0048458D01*
X0066518Y0048457D02*
X0064786Y0048457D01*
X0064786Y0048456D02*
X0066518Y0048456D01*
X0064786Y0048456D01*
X0064786Y0048455D02*
X0066518Y0048455D01*
X0066518Y0048454D02*
X0064786Y0048454D01*
X0064786Y0048453D02*
X0066518Y0048453D01*
X0066518Y0048452D02*
X0064786Y0048452D01*
X0064786Y0048451D02*
X0066518Y0048451D01*
X0066518Y0048450D02*
X0064786Y0048450D01*
X0064786Y0048449D02*
X0066518Y0048449D01*
X0066518Y0048448D02*
X0064786Y0048448D01*
X0064786Y0048447D02*
X0066518Y0048447D01*
X0066518Y0048446D02*
X0064786Y0048446D01*
X0064786Y0048445D02*
X0066518Y0048445D01*
X0066518Y0048444D02*
X0064786Y0048444D01*
X0064786Y0048443D02*
X0066518Y0048443D01*
X0066518Y0048442D02*
X0064786Y0048442D01*
X0064786Y0048441D02*
X0066518Y0048441D01*
X0066518Y0048440D02*
X0064786Y0048440D01*
X0064786Y0048439D02*
X0066518Y0048439D01*
X0066518Y0048438D02*
X0064786Y0048438D01*
X0064786Y0048437D02*
X0066518Y0048437D01*
X0066518Y0048436D02*
X0064786Y0048436D01*
X0064786Y0048435D02*
X0066518Y0048435D01*
X0066518Y0048434D02*
X0064786Y0048434D01*
X0064786Y0048433D02*
X0066518Y0048433D01*
X0066518Y0048432D02*
X0064786Y0048432D01*
X0064786Y0048431D02*
X0066518Y0048431D01*
X0066518Y0048430D02*
X0064786Y0048430D01*
X0064786Y0048429D02*
X0066518Y0048429D01*
X0066518Y0048428D02*
X0064786Y0048428D01*
X0064786Y0048427D02*
X0066518Y0048427D01*
X0066518Y0048426D02*
X0064786Y0048426D01*
X0064786Y0048425D02*
X0066518Y0048425D01*
X0066518Y0048424D02*
X0064786Y0048424D01*
X0064786Y0048423D02*
X0066518Y0048423D01*
X0066518Y0048422D02*
X0064786Y0048422D01*
X0064786Y0048421D02*
X0066518Y0048421D01*
X0066518Y0048420D02*
X0064786Y0048420D01*
X0064786Y0048419D02*
X0066518Y0048419D01*
X0066518Y0048418D02*
X0064786Y0048418D01*
X0064786Y0048417D02*
X0066518Y0048417D01*
X0066518Y0048416D02*
X0064786Y0048416D01*
X0064786Y0048415D02*
X0066518Y0048415D01*
X0066518Y0048414D02*
X0064786Y0048414D01*
X0064786Y0048413D02*
X0066518Y0048413D01*
X0066518Y0048412D02*
X0064786Y0048412D01*
X0064786Y0048411D02*
X0066518Y0048411D01*
X0066518Y0048410D02*
X0064786Y0048410D01*
X0064786Y0048409D02*
X0066518Y0048409D01*
X0066518Y0048408D02*
X0064786Y0048408D01*
X0064786Y0048407D02*
X0066518Y0048407D01*
X0066518Y0048406D02*
X0064786Y0048406D01*
X0064786Y0048405D02*
X0066518Y0048405D01*
X0066518Y0048404D02*
X0064786Y0048404D01*
X0064786Y0048403D02*
X0066518Y0048403D01*
X0066518Y0048402D02*
X0064786Y0048402D01*
X0064786Y0048401D02*
X0066518Y0048401D01*
X0066518Y0048400D02*
X0064786Y0048400D01*
X0064786Y0048399D02*
X0066518Y0048399D01*
X0066518Y0048398D02*
X0064786Y0048398D01*
X0064786Y0048397D02*
X0066518Y0048397D01*
X0066518Y0048396D02*
X0064786Y0048396D01*
X0064786Y0048395D02*
X0066518Y0048395D01*
X0066518Y0048394D02*
X0064786Y0048394D01*
X0066518Y0048394D01*
X0066518Y0048393D02*
X0064786Y0048393D01*
X0064786Y0048392D02*
X0066518Y0048392D01*
X0066518Y0048391D02*
X0064786Y0048391D01*
X0064786Y0048390D02*
X0066518Y0048390D01*
X0066518Y0048389D02*
X0064786Y0048389D01*
X0064786Y0048388D02*
X0066518Y0048388D01*
X0066518Y0048387D02*
X0064786Y0048387D01*
X0064786Y0048386D02*
X0066518Y0048386D01*
X0066518Y0048385D02*
X0064786Y0048385D01*
X0064786Y0048384D02*
X0066518Y0048384D01*
X0066518Y0048383D02*
X0064786Y0048383D01*
X0064786Y0048382D02*
X0066518Y0048382D01*
X0066518Y0048381D02*
X0064786Y0048381D01*
X0064786Y0048380D02*
X0066518Y0048380D01*
X0066518Y0048379D02*
X0064786Y0048379D01*
X0064786Y0048378D02*
X0066518Y0048378D01*
X0066518Y0048377D02*
X0064786Y0048377D01*
X0064786Y0048376D02*
X0066518Y0048376D01*
X0066518Y0048375D02*
X0064786Y0048375D01*
X0064786Y0048374D02*
X0066518Y0048374D01*
X0066518Y0048373D02*
X0064786Y0048373D01*
X0064786Y0048372D02*
X0066518Y0048372D01*
X0066518Y0048371D02*
X0064786Y0048371D01*
X0064786Y0048370D02*
X0066518Y0048370D01*
X0066518Y0048369D02*
X0064786Y0048369D01*
X0064786Y0048368D02*
X0066518Y0048368D01*
X0066518Y0048367D02*
X0064786Y0048367D01*
X0064786Y0048366D02*
X0066518Y0048366D01*
X0066518Y0048365D02*
X0064786Y0048365D01*
X0064786Y0048364D02*
X0066518Y0048364D01*
X0066518Y0048363D02*
X0064786Y0048363D01*
X0064786Y0048362D02*
X0066518Y0048362D01*
X0066518Y0048361D02*
X0064786Y0048361D01*
X0064786Y0048360D02*
X0066518Y0048360D01*
X0066518Y0048359D02*
X0064786Y0048359D01*
X0064786Y0048358D02*
X0066518Y0048358D01*
X0066518Y0048357D02*
X0064786Y0048357D01*
X0064786Y0048356D02*
X0066518Y0048356D01*
X0066518Y0048355D02*
X0064786Y0048355D01*
X0064786Y0048354D02*
X0066518Y0048354D01*
X0066518Y0048353D02*
X0064786Y0048353D01*
X0064786Y0048352D02*
X0066518Y0048352D01*
X0066518Y0048351D02*
X0064786Y0048351D01*
X0064786Y0048350D02*
X0066518Y0048350D01*
X0066518Y0048349D02*
X0064786Y0048349D01*
X0064786Y0048348D02*
X0066518Y0048348D01*
X0066518Y0048347D02*
X0064786Y0048347D01*
X0064786Y0048346D02*
X0066518Y0048346D01*
X0066518Y0048345D02*
X0064786Y0048345D01*
X0064786Y0048344D02*
X0066518Y0048344D01*
X0066518Y0048343D02*
X0064786Y0048343D01*
X0064786Y0048342D02*
X0066518Y0048342D01*
X0066518Y0048341D02*
X0064786Y0048341D01*
X0064786Y0048340D02*
X0066518Y0048340D01*
X0066518Y0048339D02*
X0064786Y0048339D01*
X0064786Y0048338D02*
X0066518Y0048338D01*
X0066518Y0048337D02*
X0064786Y0048337D01*
X0064786Y0048336D02*
X0066518Y0048336D01*
X0066518Y0048335D02*
X0064786Y0048335D01*
X0064786Y0048334D02*
X0066518Y0048334D01*
X0066518Y0048333D02*
X0064786Y0048333D01*
X0064786Y0048332D02*
X0066518Y0048332D01*
X0066518Y0048331D02*
X0064786Y0048331D01*
X0066518Y0048331D01*
X0066518Y0048330D02*
X0064786Y0048330D01*
X0064786Y0048329D02*
X0066518Y0048329D01*
X0066518Y0048328D02*
X0064786Y0048328D01*
X0064786Y0048327D02*
X0066518Y0048327D01*
X0066518Y0048326D02*
X0064786Y0048326D01*
X0064786Y0048325D02*
X0066518Y0048325D01*
X0066518Y0048324D02*
X0064786Y0048324D01*
X0064786Y0048323D02*
X0066518Y0048323D01*
X0066518Y0048322D02*
X0064786Y0048322D01*
X0064786Y0048321D02*
X0066518Y0048321D01*
X0066518Y0048320D02*
X0064786Y0048320D01*
X0064786Y0048319D02*
X0066518Y0048319D01*
X0066518Y0048318D02*
X0064786Y0048318D01*
X0064786Y0048317D02*
X0066518Y0048317D01*
X0066518Y0048316D02*
X0064786Y0048316D01*
X0064786Y0048315D02*
X0066518Y0048315D01*
X0066518Y0048314D02*
X0064786Y0048314D01*
X0064786Y0048313D02*
X0066518Y0048313D01*
X0066518Y0048312D02*
X0064786Y0048312D01*
X0064786Y0048311D02*
X0066518Y0048311D01*
X0066518Y0048310D02*
X0064786Y0048310D01*
X0064786Y0048309D02*
X0066518Y0048309D01*
X0066518Y0048308D02*
X0064786Y0048308D01*
X0064786Y0048307D02*
X0066518Y0048307D01*
X0066518Y0048306D02*
X0064786Y0048306D01*
X0064786Y0048305D02*
X0066518Y0048305D01*
X0066518Y0048304D02*
X0064786Y0048304D01*
X0064786Y0048303D02*
X0066518Y0048303D01*
X0066518Y0048302D02*
X0064786Y0048302D01*
X0064786Y0048301D02*
X0066518Y0048301D01*
X0066518Y0048300D02*
X0064786Y0048300D01*
X0064786Y0048299D02*
X0066518Y0048299D01*
X0066518Y0048298D02*
X0064786Y0048298D01*
X0064786Y0048297D02*
X0066518Y0048297D01*
X0066518Y0048296D02*
X0064786Y0048296D01*
X0064786Y0048295D02*
X0066518Y0048295D01*
X0066518Y0048294D02*
X0064786Y0048294D01*
X0064786Y0048293D02*
X0066518Y0048293D01*
X0066518Y0048292D02*
X0064786Y0048292D01*
X0064786Y0048291D02*
X0066518Y0048291D01*
X0066518Y0048290D02*
X0064786Y0048290D01*
X0064786Y0048289D02*
X0066518Y0048289D01*
X0066518Y0048288D02*
X0064786Y0048288D01*
X0064786Y0048287D02*
X0066518Y0048287D01*
X0066518Y0048286D02*
X0064786Y0048286D01*
X0064786Y0048285D02*
X0066518Y0048285D01*
X0066518Y0048284D02*
X0064786Y0048284D01*
X0064786Y0048283D02*
X0066518Y0048283D01*
X0066518Y0048282D02*
X0064786Y0048282D01*
X0064786Y0048281D02*
X0066518Y0048281D01*
X0066518Y0048280D02*
X0064786Y0048280D01*
X0064786Y0048279D02*
X0066518Y0048279D01*
X0066518Y0048278D02*
X0064786Y0048278D01*
X0064786Y0048277D02*
X0066518Y0048277D01*
X0066518Y0048276D02*
X0064786Y0048276D01*
X0064786Y0048275D02*
X0066518Y0048275D01*
X0066518Y0048274D02*
X0064786Y0048274D01*
X0064786Y0048273D02*
X0066518Y0048273D01*
X0066518Y0048272D02*
X0064786Y0048272D01*
X0064786Y0048271D02*
X0066518Y0048271D01*
X0066518Y0048270D02*
X0064786Y0048270D01*
X0064786Y0048269D02*
X0066518Y0048269D01*
X0064786Y0048269D01*
X0064786Y0048268D02*
X0066518Y0048268D01*
X0066518Y0048267D02*
X0064786Y0048267D01*
X0064786Y0048266D02*
X0066518Y0048266D01*
X0066518Y0048265D02*
X0064786Y0048265D01*
X0064786Y0048264D02*
X0066518Y0048264D01*
X0066518Y0048263D02*
X0064786Y0048263D01*
X0064786Y0048262D02*
X0066518Y0048262D01*
X0066518Y0048261D02*
X0064786Y0048261D01*
X0064786Y0048260D02*
X0066518Y0048260D01*
X0066518Y0048259D02*
X0064786Y0048259D01*
X0064786Y0048258D02*
X0066518Y0048258D01*
X0066518Y0048257D02*
X0064786Y0048257D01*
X0064786Y0048256D02*
X0066518Y0048256D01*
X0066518Y0048255D02*
X0064786Y0048255D01*
X0064786Y0048254D02*
X0066518Y0048254D01*
X0066518Y0048253D02*
X0064786Y0048253D01*
X0064786Y0048252D02*
X0066518Y0048252D01*
X0066518Y0048251D02*
X0064786Y0048251D01*
X0064786Y0048250D02*
X0066518Y0048250D01*
X0066518Y0048249D02*
X0064786Y0048249D01*
X0064786Y0048248D02*
X0066518Y0048248D01*
X0066518Y0048247D02*
X0064786Y0048247D01*
X0064786Y0048246D02*
X0066518Y0048246D01*
X0066518Y0048245D02*
X0064786Y0048245D01*
X0064786Y0048244D02*
X0066518Y0048244D01*
X0066518Y0048243D02*
X0064786Y0048243D01*
X0064786Y0048242D02*
X0066518Y0048242D01*
X0066518Y0048241D02*
X0064786Y0048241D01*
X0064786Y0048240D02*
X0066518Y0048240D01*
X0066518Y0048239D02*
X0064786Y0048239D01*
X0064786Y0048238D02*
X0066518Y0048238D01*
X0066518Y0048237D02*
X0064786Y0048237D01*
X0064786Y0048236D02*
X0066518Y0048236D01*
X0066518Y0048235D02*
X0064786Y0048235D01*
X0064786Y0048234D02*
X0066518Y0048234D01*
X0066518Y0048233D02*
X0064786Y0048233D01*
X0064786Y0048232D02*
X0066518Y0048232D01*
X0066518Y0048231D02*
X0064786Y0048231D01*
X0064786Y0048230D02*
X0066518Y0048230D01*
X0066518Y0048229D02*
X0064786Y0048229D01*
X0064786Y0048228D02*
X0066518Y0048228D01*
X0066518Y0048227D02*
X0064786Y0048227D01*
X0064786Y0048226D02*
X0066518Y0048226D01*
X0066518Y0048225D02*
X0064786Y0048225D01*
X0064786Y0048224D02*
X0066518Y0048224D01*
X0066518Y0048223D02*
X0064786Y0048223D01*
X0064786Y0048222D02*
X0066518Y0048222D01*
X0066518Y0048221D02*
X0064786Y0048221D01*
X0064786Y0048220D02*
X0066518Y0048220D01*
X0066518Y0048219D02*
X0064786Y0048219D01*
X0064786Y0048218D02*
X0066518Y0048218D01*
X0066518Y0048217D02*
X0064786Y0048217D01*
X0064786Y0048216D02*
X0066518Y0048216D01*
X0066518Y0048215D02*
X0064786Y0048215D01*
X0064786Y0048214D02*
X0066518Y0048214D01*
X0066518Y0048213D02*
X0064786Y0048213D01*
X0064786Y0048212D02*
X0066518Y0048212D01*
X0066518Y0048211D02*
X0064786Y0048211D01*
X0064786Y0048210D02*
X0066518Y0048210D01*
X0066518Y0048209D02*
X0064786Y0048209D01*
X0064786Y0048208D02*
X0066518Y0048208D01*
X0066518Y0048207D02*
X0064786Y0048207D01*
X0064786Y0048206D02*
X0066518Y0048206D01*
X0064786Y0048206D01*
X0064786Y0048205D02*
X0066518Y0048205D01*
X0066518Y0048204D02*
X0064786Y0048204D01*
X0064786Y0048203D02*
X0066518Y0048203D01*
X0066518Y0048202D02*
X0064786Y0048202D01*
X0064786Y0048201D02*
X0066518Y0048201D01*
X0066518Y0048200D02*
X0064786Y0048200D01*
X0064786Y0048199D02*
X0066518Y0048199D01*
X0066518Y0048198D02*
X0064786Y0048198D01*
X0064786Y0048197D02*
X0066518Y0048197D01*
X0066518Y0048196D02*
X0064786Y0048196D01*
X0064786Y0048195D02*
X0066518Y0048195D01*
X0066518Y0048194D02*
X0064786Y0048194D01*
X0064786Y0048193D02*
X0066518Y0048193D01*
X0066518Y0048192D02*
X0064786Y0048192D01*
X0064786Y0048191D02*
X0066518Y0048191D01*
X0066518Y0048190D02*
X0064786Y0048190D01*
X0064786Y0048189D02*
X0066518Y0048189D01*
X0066518Y0048188D02*
X0064786Y0048188D01*
X0064786Y0048187D02*
X0066518Y0048187D01*
X0066518Y0048186D02*
X0064786Y0048186D01*
X0064786Y0048185D02*
X0066518Y0048185D01*
X0066518Y0048184D02*
X0064786Y0048184D01*
X0064786Y0048183D02*
X0066518Y0048183D01*
X0066518Y0048182D02*
X0064786Y0048182D01*
X0064786Y0048181D02*
X0066518Y0048181D01*
X0066518Y0048180D02*
X0064786Y0048180D01*
X0064786Y0048179D02*
X0066518Y0048179D01*
X0066518Y0048178D02*
X0064786Y0048178D01*
X0064786Y0048177D02*
X0066518Y0048177D01*
X0066518Y0048176D02*
X0064786Y0048176D01*
X0064786Y0048175D02*
X0066518Y0048175D01*
X0066518Y0048174D02*
X0064786Y0048174D01*
X0064786Y0048173D02*
X0066518Y0048173D01*
X0066518Y0048172D02*
X0064786Y0048172D01*
X0064786Y0048171D02*
X0066518Y0048171D01*
X0066518Y0048170D02*
X0064786Y0048170D01*
X0064786Y0048169D02*
X0066518Y0048169D01*
X0066518Y0048168D02*
X0064786Y0048168D01*
X0064786Y0048167D02*
X0066518Y0048167D01*
X0066518Y0048166D02*
X0064786Y0048166D01*
X0064786Y0048165D02*
X0066518Y0048165D01*
X0066518Y0048164D02*
X0064786Y0048164D01*
X0064786Y0048163D02*
X0066518Y0048163D01*
X0066518Y0048162D02*
X0064786Y0048162D01*
X0064786Y0048161D02*
X0066518Y0048161D01*
X0066518Y0048160D02*
X0064786Y0048160D01*
X0064786Y0048159D02*
X0066518Y0048159D01*
X0066518Y0048158D02*
X0064786Y0048158D01*
X0064786Y0048157D02*
X0066518Y0048157D01*
X0066518Y0048156D02*
X0064786Y0048156D01*
X0064786Y0048155D02*
X0066518Y0048155D01*
X0066518Y0048154D02*
X0064786Y0048154D01*
X0064786Y0048153D02*
X0066518Y0048153D01*
X0066518Y0048152D02*
X0064786Y0048152D01*
X0064786Y0048151D02*
X0066518Y0048151D01*
X0066518Y0048150D02*
X0064786Y0048150D01*
X0064786Y0048149D02*
X0066518Y0048149D01*
X0066518Y0048148D02*
X0064786Y0048148D01*
X0064786Y0048147D02*
X0066518Y0048147D01*
X0066518Y0048146D02*
X0064786Y0048146D01*
X0064786Y0048145D02*
X0066518Y0048145D01*
X0066518Y0048144D02*
X0064786Y0048144D01*
X0066518Y0048144D01*
X0066518Y0048143D02*
X0064786Y0048143D01*
X0064786Y0048142D02*
X0066518Y0048142D01*
X0066518Y0048141D02*
X0064786Y0048141D01*
X0064786Y0048140D02*
X0066518Y0048140D01*
X0066518Y0048139D02*
X0064786Y0048139D01*
X0064786Y0048138D02*
X0066518Y0048138D01*
X0066518Y0048137D02*
X0064786Y0048137D01*
X0064786Y0048136D02*
X0066518Y0048136D01*
X0066518Y0048135D02*
X0064786Y0048135D01*
X0064786Y0048134D02*
X0066518Y0048134D01*
X0066518Y0048133D02*
X0064786Y0048133D01*
X0064786Y0048132D02*
X0066518Y0048132D01*
X0066518Y0048131D02*
X0064786Y0048131D01*
X0064786Y0048130D02*
X0066518Y0048130D01*
X0066518Y0048129D02*
X0064786Y0048129D01*
X0064786Y0048128D02*
X0066518Y0048128D01*
X0066518Y0048127D02*
X0064786Y0048127D01*
X0064786Y0048126D02*
X0066518Y0048126D01*
X0066518Y0048125D02*
X0064786Y0048125D01*
X0064786Y0048124D02*
X0066518Y0048124D01*
X0066518Y0048123D02*
X0064786Y0048123D01*
X0064786Y0048122D02*
X0066518Y0048122D01*
X0066518Y0048121D02*
X0064786Y0048121D01*
X0064786Y0048120D02*
X0066518Y0048120D01*
X0066518Y0048119D02*
X0064786Y0048119D01*
X0064786Y0048118D02*
X0066518Y0048118D01*
X0066518Y0048117D02*
X0064786Y0048117D01*
X0064786Y0048116D02*
X0066518Y0048116D01*
X0066518Y0048115D02*
X0064786Y0048115D01*
X0064786Y0048114D02*
X0066518Y0048114D01*
X0066518Y0048113D02*
X0064786Y0048113D01*
X0064786Y0048112D02*
X0066518Y0048112D01*
X0066518Y0048111D02*
X0064786Y0048111D01*
X0064786Y0048110D02*
X0066518Y0048110D01*
X0066518Y0048109D02*
X0064786Y0048109D01*
X0064786Y0048108D02*
X0066518Y0048108D01*
X0066518Y0048107D02*
X0064786Y0048107D01*
X0064786Y0048106D02*
X0066518Y0048106D01*
X0066518Y0048105D02*
X0064786Y0048105D01*
X0064786Y0048104D02*
X0066518Y0048104D01*
X0066518Y0048103D02*
X0064786Y0048103D01*
X0064786Y0048102D02*
X0066518Y0048102D01*
X0066518Y0048101D02*
X0064786Y0048101D01*
X0064786Y0048100D02*
X0066518Y0048100D01*
X0066518Y0048099D02*
X0064786Y0048099D01*
X0064786Y0048098D02*
X0066518Y0048098D01*
X0066518Y0048097D02*
X0064786Y0048097D01*
X0064786Y0048096D02*
X0066518Y0048096D01*
X0066518Y0048095D02*
X0064786Y0048095D01*
X0064786Y0048094D02*
X0066518Y0048094D01*
X0066518Y0048093D02*
X0064786Y0048093D01*
X0064786Y0048092D02*
X0066518Y0048092D01*
X0066518Y0048091D02*
X0064786Y0048091D01*
X0064786Y0048090D02*
X0066518Y0048090D01*
X0066518Y0048089D02*
X0064786Y0048089D01*
X0064786Y0048088D02*
X0066518Y0048088D01*
X0066518Y0048087D02*
X0064786Y0048087D01*
X0064786Y0048086D02*
X0066518Y0048086D01*
X0066518Y0048085D02*
X0064786Y0048085D01*
X0064786Y0048084D02*
X0066518Y0048084D01*
X0066518Y0048083D02*
X0064786Y0048083D01*
X0064786Y0048082D02*
X0066518Y0048082D01*
X0066518Y0048081D02*
X0064786Y0048081D01*
X0066518Y0048081D01*
X0066518Y0048080D02*
X0064786Y0048080D01*
X0064786Y0048079D02*
X0066518Y0048079D01*
X0066518Y0048078D02*
X0064786Y0048078D01*
X0064786Y0048077D02*
X0066518Y0048077D01*
X0066518Y0048076D02*
X0064786Y0048076D01*
X0064786Y0048075D02*
X0066518Y0048075D01*
X0066518Y0048074D02*
X0064786Y0048074D01*
X0064786Y0048073D02*
X0066518Y0048073D01*
X0066518Y0048072D02*
X0064786Y0048072D01*
X0064786Y0048071D02*
X0066518Y0048071D01*
X0066518Y0048070D02*
X0064786Y0048070D01*
X0064786Y0048069D02*
X0066518Y0048069D01*
X0066518Y0048068D02*
X0064786Y0048068D01*
X0064786Y0048067D02*
X0066518Y0048067D01*
X0066518Y0048066D02*
X0064786Y0048066D01*
X0064786Y0048065D02*
X0066518Y0048065D01*
X0066518Y0048064D02*
X0064786Y0048064D01*
X0064786Y0048063D02*
X0066518Y0048063D01*
X0066518Y0048062D02*
X0064786Y0048062D01*
X0064786Y0048061D02*
X0066518Y0048061D01*
X0066518Y0048060D02*
X0064786Y0048060D01*
D18*
X0078683Y0133690D03*
D19*
X0048683Y0133690D03*
X0108683Y0133690D03*
D20*
X0067660Y0064005D03*
X0067660Y0057706D03*
X0062148Y0057706D03*
X0062148Y0064005D03*
X0054274Y0048650D03*
X0048762Y0048650D03*
X0048762Y0041564D03*
X0054274Y0041564D03*
X0054274Y0034477D03*
X0048762Y0034477D03*
X0103093Y0045107D03*
X0108605Y0045107D03*
X0108605Y0058099D03*
X0103093Y0058099D03*
D21*
X0048762Y0114005D03*
X0048762Y0117154D03*
D22*
X0100731Y0021091D03*
X0103880Y0021091D03*
D23*
X0097187Y0045698D03*
X0097187Y0049241D03*
X0097187Y0052784D03*
X0097187Y0056328D03*
X0092463Y0056328D03*
X0092463Y0052784D03*
X0092463Y0049241D03*
X0092463Y0045698D03*
D24*
X0107424Y0033690D03*
X0107424Y0028178D03*
X0112542Y0028178D03*
X0112542Y0033690D03*
D25*
X0108408Y0050225D03*
X0103290Y0050225D03*
D26*
X0056046Y0028769D03*
X0056046Y0026013D03*
X0050928Y0026013D03*
X0050928Y0028769D03*
D27*
X0048762Y0083139D03*
X0062542Y0083139D03*
X0076321Y0083139D03*
X0090101Y0083139D03*
X0103880Y0083139D03*
X0103880Y0103139D03*
X0090101Y0103139D03*
X0076321Y0103139D03*
X0062542Y0103139D03*
X0048762Y0103139D03*
D28*
X0053093Y0098808D01*
X0053093Y0082115D01*
X0064904Y0070304D01*
X0064904Y0058493D01*
X0065691Y0057706D01*
X0067660Y0057706D01*
X0073172Y0057706D01*
X0077896Y0058099D02*
X0077896Y0052194D01*
X0074943Y0049241D01*
X0074943Y0040383D01*
X0072975Y0040383D02*
X0072975Y0044123D01*
X0072384Y0044713D01*
X0071006Y0042942D02*
X0068841Y0045107D01*
X0067266Y0045107D01*
X0065652Y0046721D01*
X0065652Y0049831D01*
X0062935Y0048552D02*
X0059491Y0048552D01*
X0059491Y0046583D01*
X0062542Y0043532D01*
X0067266Y0043532D01*
X0068841Y0041957D01*
X0068841Y0038020D01*
X0070022Y0036839D01*
X0066872Y0033690D01*
X0061754Y0033690D01*
X0060278Y0032213D01*
X0060278Y0027489D01*
X0058802Y0026013D01*
X0056046Y0026013D01*
X0056046Y0028769D02*
X0054077Y0028769D01*
X0053487Y0028178D01*
X0053487Y0024635D01*
X0052699Y0023847D01*
X0047975Y0023847D01*
X0044431Y0027391D01*
X0044431Y0042745D01*
X0048762Y0047076D01*
X0048762Y0048650D01*
X0048762Y0054556D01*
X0051518Y0057312D01*
X0054274Y0054556D02*
X0058998Y0059280D01*
X0058998Y0069910D01*
X0057817Y0071091D01*
X0062148Y0070304D02*
X0052305Y0080146D01*
X0048762Y0083139D01*
X0062542Y0083139D02*
X0062542Y0075816D01*
X0067660Y0070698D01*
X0067660Y0064005D01*
X0081046Y0064005D01*
X0088920Y0071879D01*
X0094038Y0071879D01*
X0096794Y0074635D01*
X0105849Y0074635D01*
X0108211Y0076997D01*
X0108211Y0078965D01*
X0112935Y0083690D01*
X0112935Y0087233D01*
X0116085Y0090383D01*
X0116085Y0110068D01*
X0121203Y0115186D01*
X0121203Y0115383D01*
X0114510Y0117548D02*
X0121203Y0124241D01*
X0121203Y0129438D01*
X0114510Y0117548D02*
X0114510Y0091170D01*
X0111361Y0088020D01*
X0111361Y0084477D01*
X0103487Y0076603D01*
X0096006Y0076603D01*
X0093250Y0073847D01*
X0088132Y0073847D01*
X0081439Y0067154D01*
X0078290Y0067154D01*
X0080258Y0069910D02*
X0081439Y0069910D01*
X0086951Y0075422D01*
X0092463Y0075422D01*
X0095219Y0078178D01*
X0101124Y0078178D01*
X0103880Y0080934D01*
X0103880Y0083139D01*
X0110180Y0078178D02*
X0110180Y0076209D01*
X0106636Y0072666D01*
X0097975Y0072666D01*
X0095219Y0069910D01*
X0089707Y0069910D01*
X0077896Y0058099D01*
X0079865Y0057312D02*
X0090494Y0067942D01*
X0096400Y0067942D01*
X0099156Y0070698D01*
X0107424Y0070698D01*
X0112935Y0076209D01*
X0112935Y0077391D01*
X0110180Y0078178D02*
X0115298Y0083296D01*
X0115298Y0086052D01*
X0116479Y0080658D02*
X0121203Y0085383D01*
X0116479Y0080658D02*
X0116479Y0076997D01*
X0101124Y0061643D01*
X0092463Y0061643D01*
X0085770Y0054950D01*
X0085770Y0044320D01*
X0084786Y0043335D01*
X0084786Y0040383D01*
X0082817Y0040383D02*
X0082817Y0045107D01*
X0080258Y0046288D02*
X0080258Y0043139D01*
X0080849Y0042548D01*
X0080849Y0040383D01*
X0078880Y0040383D02*
X0078880Y0042548D01*
X0078683Y0042745D01*
X0078683Y0047469D01*
X0081833Y0050619D01*
X0081833Y0056524D01*
X0091282Y0065973D01*
X0097975Y0065973D01*
X0099943Y0067942D01*
X0103880Y0067942D01*
X0100731Y0064792D02*
X0099943Y0064005D01*
X0092069Y0064005D01*
X0083802Y0055737D01*
X0083802Y0049831D01*
X0080258Y0046288D01*
X0076912Y0048060D02*
X0076912Y0040383D01*
X0079865Y0036839D02*
X0070022Y0036839D01*
X0071006Y0040383D02*
X0071006Y0042942D01*
X0066479Y0036839D02*
X0064510Y0036839D01*
X0062935Y0035265D01*
X0055061Y0035265D01*
X0054274Y0034477D01*
X0057030Y0038020D02*
X0049550Y0038020D01*
X0048762Y0037233D01*
X0048762Y0034477D01*
X0048762Y0029753D01*
X0049746Y0028769D01*
X0050928Y0028769D01*
X0050928Y0026013D02*
X0048172Y0026013D01*
X0046006Y0028178D01*
X0046006Y0039202D01*
X0047581Y0040776D01*
X0048762Y0041564D01*
X0049156Y0041564D01*
X0051518Y0043926D01*
X0051518Y0053375D01*
X0054274Y0054556D02*
X0054274Y0048650D01*
X0058998Y0049044D02*
X0059491Y0048552D01*
X0060475Y0051111D02*
X0058998Y0052587D01*
X0058998Y0056524D01*
X0060180Y0057706D01*
X0062148Y0057706D01*
X0062148Y0064005D01*
X0062148Y0070304D01*
X0071991Y0078572D02*
X0071991Y0084871D01*
X0076321Y0089202D01*
X0076321Y0103139D01*
X0090101Y0103139D02*
X0094825Y0098414D01*
X0094825Y0080146D01*
X0091676Y0076997D01*
X0085770Y0076997D01*
X0081439Y0072666D01*
X0076715Y0072666D01*
X0079077Y0075028D02*
X0081046Y0075028D01*
X0089156Y0083139D01*
X0090101Y0083139D01*
X0101518Y0058099D02*
X0099746Y0056328D01*
X0097187Y0056328D01*
X0097187Y0052784D02*
X0100534Y0052784D01*
X0100731Y0052784D01*
X0103290Y0050225D01*
X0099943Y0048650D02*
X0099943Y0047076D01*
X0101912Y0045107D01*
X0103093Y0045107D01*
X0099943Y0048650D02*
X0099353Y0049241D01*
X0097187Y0049241D01*
X0100534Y0052784D02*
X0102305Y0054556D01*
X0103093Y0058099D02*
X0101518Y0058099D01*
X0092463Y0049241D02*
X0090298Y0049241D01*
X0088132Y0047076D01*
X0090298Y0045698D02*
X0088526Y0043926D01*
X0088526Y0042351D01*
X0090298Y0045698D02*
X0092463Y0045698D01*
X0094825Y0036052D02*
X0098762Y0036052D01*
X0101124Y0033690D01*
X0107424Y0033690D01*
X0110573Y0036839D01*
X0116636Y0036839D01*
X0121203Y0041406D01*
X0118920Y0033690D02*
X0121203Y0031406D01*
X0118920Y0033690D02*
X0112542Y0033690D01*
X0109786Y0030934D01*
X0101124Y0030934D01*
X0099156Y0032902D01*
X0096400Y0032902D01*
X0097975Y0030146D02*
X0099156Y0028965D01*
X0106636Y0028965D01*
X0107424Y0028178D01*
X0112542Y0028178D01*
X0120888Y0021091D02*
X0121203Y0021406D01*
X0120888Y0021091D02*
X0103880Y0021091D01*
X0103959Y0021013D01*
X0100731Y0021091D02*
X0100731Y0027391D01*
X0097975Y0030146D01*
X0079865Y0051013D02*
X0079865Y0057312D01*
X0079865Y0051013D02*
X0076912Y0048060D01*
X0062935Y0051111D02*
X0060475Y0051111D01*
X0057030Y0041564D02*
X0054274Y0041564D01*
X0057030Y0041564D02*
X0058998Y0039595D01*
X0057030Y0038020D02*
X0058211Y0036839D01*
X0060967Y0036839D01*
X0061754Y0037627D01*
X0048762Y0103139D02*
X0048762Y0114005D01*
X0048762Y0117154D02*
X0048683Y0117233D01*
X0048683Y0133690D01*
D29*
X0041283Y0134358D02*
X0040139Y0134358D01*
X0040139Y0135956D02*
X0041283Y0135956D01*
X0041283Y0137555D02*
X0040139Y0137555D01*
X0040139Y0139153D02*
X0041283Y0139153D01*
X0041283Y0140752D02*
X0040139Y0140752D01*
X0040139Y0142350D02*
X0041283Y0142350D01*
X0041283Y0143949D02*
X0040139Y0143949D01*
X0041283Y0144167D02*
X0041283Y0123212D01*
X0041649Y0122330D01*
X0042324Y0121655D01*
X0043206Y0121290D01*
X0045883Y0121290D01*
X0045883Y0120032D01*
X0045350Y0119498D01*
X0044984Y0118616D01*
X0044984Y0115693D01*
X0045031Y0115580D01*
X0044984Y0115466D01*
X0044984Y0112543D01*
X0045350Y0111661D01*
X0045962Y0111048D01*
X0045962Y0107346D01*
X0045953Y0107343D01*
X0044558Y0105948D01*
X0043803Y0104125D01*
X0043803Y0102152D01*
X0044558Y0100330D01*
X0045953Y0098934D01*
X0047776Y0098180D01*
X0049749Y0098180D01*
X0049758Y0098183D01*
X0050293Y0097648D01*
X0050293Y0087872D01*
X0049749Y0088098D01*
X0047776Y0088098D01*
X0045953Y0087343D01*
X0044558Y0085948D01*
X0043803Y0084125D01*
X0043803Y0082152D01*
X0044558Y0080330D01*
X0045953Y0078934D01*
X0047776Y0078180D01*
X0049749Y0078180D01*
X0050115Y0078331D01*
X0050409Y0078083D01*
X0055070Y0073422D01*
X0054773Y0073125D01*
X0054227Y0071806D01*
X0054227Y0070377D01*
X0054773Y0069057D01*
X0055783Y0068047D01*
X0056198Y0067876D01*
X0056198Y0060440D01*
X0054721Y0058962D01*
X0054562Y0059346D01*
X0053552Y0060356D01*
X0052232Y0060902D01*
X0050804Y0060902D01*
X0049484Y0060356D01*
X0048474Y0059346D01*
X0047928Y0058026D01*
X0047928Y0057681D01*
X0046388Y0056142D01*
X0045962Y0055113D01*
X0045962Y0052119D01*
X0045828Y0052063D01*
X0045153Y0051388D01*
X0044787Y0050506D01*
X0044787Y0047061D01*
X0042058Y0044331D01*
X0041631Y0043302D01*
X0041631Y0026834D01*
X0042058Y0025804D01*
X0042845Y0025017D01*
X0046389Y0021474D01*
X0047418Y0021047D01*
X0053256Y0021047D01*
X0054285Y0021474D01*
X0055073Y0022261D01*
X0055637Y0022825D01*
X0057507Y0022825D01*
X0058389Y0023191D01*
X0058411Y0023213D01*
X0059359Y0023213D01*
X0060388Y0023639D01*
X0060462Y0023714D01*
X0060789Y0023387D01*
X0061671Y0023022D01*
X0068137Y0023022D01*
X0069019Y0023387D01*
X0069694Y0024063D01*
X0070060Y0024945D01*
X0070060Y0031805D01*
X0069734Y0032592D01*
X0071182Y0034039D01*
X0077587Y0034039D01*
X0077831Y0033795D01*
X0079150Y0033249D01*
X0080579Y0033249D01*
X0081898Y0033795D01*
X0082908Y0034805D01*
X0083455Y0036125D01*
X0083455Y0036408D01*
X0085814Y0036408D01*
X0086696Y0036773D01*
X0087372Y0037448D01*
X0087737Y0038330D01*
X0087737Y0038792D01*
X0087812Y0038761D01*
X0089240Y0038761D01*
X0090560Y0039307D01*
X0091570Y0040317D01*
X0092116Y0041637D01*
X0092116Y0042313D01*
X0094515Y0042313D01*
X0095397Y0042679D01*
X0095632Y0042913D01*
X0097187Y0042913D01*
X0097187Y0045698D01*
X0097187Y0045698D01*
X0097187Y0042913D01*
X0098999Y0042913D01*
X0099232Y0042976D01*
X0099483Y0042370D01*
X0100159Y0041695D01*
X0101041Y0041329D01*
X0105145Y0041329D01*
X0106027Y0041695D01*
X0106374Y0042041D01*
X0106793Y0041929D01*
X0108605Y0041929D01*
X0110416Y0041929D01*
X0110874Y0042052D01*
X0111285Y0042289D01*
X0111620Y0042624D01*
X0111857Y0043034D01*
X0111979Y0043492D01*
X0111979Y0045107D01*
X0108605Y0045107D01*
X0108605Y0045107D01*
X0111979Y0045107D01*
X0111979Y0046722D01*
X0111857Y0047180D01*
X0111620Y0047590D01*
X0111569Y0047642D01*
X0111669Y0047742D01*
X0111906Y0048152D01*
X0112029Y0048610D01*
X0112029Y0050225D01*
X0108408Y0050225D01*
X0108408Y0050225D01*
X0112029Y0050225D01*
X0112029Y0051840D01*
X0111906Y0052298D01*
X0111669Y0052708D01*
X0111334Y0053044D01*
X0110923Y0053280D01*
X0110466Y0053403D01*
X0108408Y0053403D01*
X0108408Y0050225D01*
X0108408Y0050225D01*
X0108408Y0053403D01*
X0106705Y0053403D01*
X0106470Y0053638D01*
X0105896Y0053876D01*
X0105896Y0054632D01*
X0106027Y0054687D01*
X0106374Y0055034D01*
X0106793Y0054921D01*
X0108605Y0054921D01*
X0110416Y0054921D01*
X0110874Y0055044D01*
X0111285Y0055281D01*
X0111620Y0055616D01*
X0111857Y0056026D01*
X0111979Y0056484D01*
X0111979Y0058099D01*
X0108605Y0058099D01*
X0108605Y0058099D01*
X0108605Y0054921D01*
X0108605Y0058099D01*
X0108605Y0058099D01*
X0111979Y0058099D01*
X0111979Y0059714D01*
X0111857Y0060172D01*
X0111620Y0060582D01*
X0111285Y0060918D01*
X0110874Y0061154D01*
X0110416Y0061277D01*
X0108605Y0061277D01*
X0108605Y0058099D01*
X0108605Y0058099D01*
X0108605Y0061277D01*
X0106793Y0061277D01*
X0106374Y0061165D01*
X0106027Y0061512D01*
X0105268Y0061826D01*
X0116182Y0072740D01*
X0116413Y0072182D01*
X0118003Y0070593D01*
X0118510Y0070383D01*
X0118003Y0070173D01*
X0116413Y0068583D01*
X0115553Y0066507D01*
X0115553Y0064259D01*
X0116413Y0062182D01*
X0118003Y0060593D01*
X0120079Y0059733D01*
X0122327Y0059733D01*
X0124404Y0060593D01*
X0125993Y0062182D01*
X0126853Y0064259D01*
X0126853Y0066507D01*
X0125993Y0068583D01*
X0124404Y0070173D01*
X0123896Y0070383D01*
X0124404Y0070593D01*
X0125993Y0072182D01*
X0126853Y0074259D01*
X0126853Y0076507D01*
X0125993Y0078583D01*
X0124404Y0080173D01*
X0123896Y0080383D01*
X0124404Y0080593D01*
X0125993Y0082182D01*
X0126853Y0084259D01*
X0126853Y0086507D01*
X0125993Y0088583D01*
X0124404Y0090173D01*
X0123896Y0090383D01*
X0124404Y0090593D01*
X0125993Y0092182D01*
X0126853Y0094259D01*
X0126853Y0096507D01*
X0125993Y0098583D01*
X0124404Y0100173D01*
X0123896Y0100383D01*
X0124404Y0100593D01*
X0125993Y0102182D01*
X0126853Y0104259D01*
X0126853Y0106507D01*
X0125993Y0108583D01*
X0124843Y0109733D01*
X0124931Y0109733D01*
X0125813Y0110098D01*
X0126488Y0110773D01*
X0126853Y0111655D01*
X0126853Y0119110D01*
X0126488Y0119992D01*
X0125813Y0120667D01*
X0124931Y0121033D01*
X0121955Y0121033D01*
X0122789Y0121867D01*
X0123577Y0122655D01*
X0124003Y0123684D01*
X0124003Y0124482D01*
X0124404Y0124648D01*
X0125993Y0126237D01*
X0126853Y0128314D01*
X0126853Y0130562D01*
X0125993Y0132638D01*
X0124404Y0134228D01*
X0123896Y0134438D01*
X0124404Y0134648D01*
X0125993Y0136237D01*
X0126853Y0138314D01*
X0126853Y0140562D01*
X0125993Y0142638D01*
X0124843Y0143788D01*
X0124931Y0143788D01*
X0125813Y0144153D01*
X0126488Y0144828D01*
X0126853Y0145710D01*
X0126853Y0153165D01*
X0126488Y0154047D01*
X0125813Y0154722D01*
X0124931Y0155088D01*
X0117476Y0155088D01*
X0116594Y0154722D01*
X0115919Y0154047D01*
X0115553Y0153165D01*
X0115553Y0145710D01*
X0115919Y0144828D01*
X0116594Y0144153D01*
X0117476Y0143788D01*
X0117563Y0143788D01*
X0116413Y0142638D01*
X0116083Y0141842D01*
X0116083Y0144167D01*
X0115718Y0145049D01*
X0115043Y0145724D01*
X0114161Y0146090D01*
X0103206Y0146090D01*
X0102324Y0145724D01*
X0101649Y0145049D01*
X0101283Y0144167D01*
X0101283Y0123212D01*
X0101649Y0122330D01*
X0102324Y0121655D01*
X0103206Y0121290D01*
X0114161Y0121290D01*
X0114385Y0121383D01*
X0112136Y0119134D01*
X0111710Y0118105D01*
X0111710Y0092330D01*
X0108987Y0089607D01*
X0108561Y0088577D01*
X0108561Y0085637D01*
X0108315Y0085391D01*
X0108084Y0085948D01*
X0106689Y0087343D01*
X0104867Y0088098D01*
X0102894Y0088098D01*
X0101071Y0087343D01*
X0099676Y0085948D01*
X0098921Y0084125D01*
X0098921Y0082152D01*
X0099408Y0080978D01*
X0097625Y0080978D01*
X0097625Y0098971D01*
X0097199Y0100000D01*
X0095056Y0102143D01*
X0095060Y0102152D01*
X0095060Y0104125D01*
X0094305Y0105948D01*
X0092910Y0107343D01*
X0091087Y0108098D01*
X0089114Y0108098D01*
X0087292Y0107343D01*
X0085897Y0105948D01*
X0085142Y0104125D01*
X0085142Y0102152D01*
X0085897Y0100330D01*
X0087292Y0098934D01*
X0089114Y0098180D01*
X0091087Y0098180D01*
X0091096Y0098183D01*
X0092025Y0097254D01*
X0092025Y0087709D01*
X0091087Y0088098D01*
X0089114Y0088098D01*
X0087292Y0087343D01*
X0085897Y0085948D01*
X0085142Y0084125D01*
X0085142Y0083084D01*
X0080417Y0078360D01*
X0079791Y0078619D01*
X0078368Y0078619D01*
X0079130Y0078934D01*
X0080525Y0080330D01*
X0081280Y0082152D01*
X0081280Y0084125D01*
X0080525Y0085948D01*
X0079130Y0087343D01*
X0078630Y0087550D01*
X0078695Y0087616D01*
X0079121Y0088645D01*
X0079121Y0098931D01*
X0079130Y0098934D01*
X0080525Y0100330D01*
X0081280Y0102152D01*
X0081280Y0104125D01*
X0080525Y0105948D01*
X0079130Y0107343D01*
X0077308Y0108098D01*
X0075335Y0108098D01*
X0073512Y0107343D01*
X0072117Y0105948D01*
X0071362Y0104125D01*
X0071362Y0102152D01*
X0072117Y0100330D01*
X0073512Y0098934D01*
X0073521Y0098931D01*
X0073521Y0090361D01*
X0069617Y0086457D01*
X0069191Y0085428D01*
X0069191Y0080849D01*
X0068947Y0080606D01*
X0068400Y0079286D01*
X0068400Y0077857D01*
X0068947Y0076538D01*
X0069957Y0075528D01*
X0071276Y0074981D01*
X0072705Y0074981D01*
X0074024Y0075528D01*
X0075034Y0076538D01*
X0075581Y0077857D01*
X0075581Y0078180D01*
X0077302Y0078180D01*
X0077043Y0078072D01*
X0076033Y0077062D01*
X0075637Y0076106D01*
X0074681Y0075710D01*
X0073671Y0074700D01*
X0073124Y0073380D01*
X0073124Y0071952D01*
X0073671Y0070632D01*
X0074681Y0069622D01*
X0075387Y0069330D01*
X0075246Y0069188D01*
X0074699Y0067869D01*
X0074699Y0066805D01*
X0071207Y0066805D01*
X0070594Y0067417D01*
X0070460Y0067473D01*
X0070460Y0071255D01*
X0070034Y0072284D01*
X0065342Y0076976D01*
X0065342Y0078931D01*
X0065351Y0078934D01*
X0066746Y0080330D01*
X0067501Y0082152D01*
X0067501Y0084125D01*
X0066746Y0085948D01*
X0065351Y0087343D01*
X0063528Y0088098D01*
X0061555Y0088098D01*
X0059733Y0087343D01*
X0058338Y0085948D01*
X0057583Y0084125D01*
X0057583Y0082152D01*
X0057984Y0081184D01*
X0055893Y0083275D01*
X0055893Y0099365D01*
X0055467Y0100394D01*
X0053717Y0102143D01*
X0053721Y0102152D01*
X0053721Y0104125D01*
X0052966Y0105948D01*
X0051571Y0107343D01*
X0051562Y0107346D01*
X0051562Y0111048D01*
X0052175Y0111661D01*
X0052540Y0112543D01*
X0052540Y0115466D01*
X0052493Y0115580D01*
X0052540Y0115693D01*
X0052540Y0118616D01*
X0052175Y0119498D01*
X0051500Y0120173D01*
X0051483Y0120180D01*
X0051483Y0121290D01*
X0054161Y0121290D01*
X0055043Y0121655D01*
X0055718Y0122330D01*
X0056083Y0123212D01*
X0056083Y0144167D01*
X0055718Y0145049D01*
X0055043Y0145724D01*
X0054161Y0146090D01*
X0043206Y0146090D01*
X0042324Y0145724D01*
X0041649Y0145049D01*
X0041283Y0144167D01*
X0042147Y0145547D02*
X0040139Y0145547D01*
X0040139Y0147146D02*
X0061514Y0147146D01*
X0061550Y0147196D02*
X0060543Y0145811D01*
X0059648Y0144350D01*
X0058871Y0142824D01*
X0058215Y0141241D01*
X0057686Y0139612D01*
X0057286Y0137946D01*
X0057018Y0136254D01*
X0056883Y0134546D01*
X0056883Y0134490D01*
X0077883Y0134490D01*
X0077883Y0132890D01*
X0056883Y0132890D01*
X0056883Y0132833D01*
X0057018Y0131125D01*
X0057286Y0129434D01*
X0057686Y0127768D01*
X0058215Y0126139D01*
X0058871Y0124556D01*
X0059648Y0123030D01*
X0060543Y0121569D01*
X0061550Y0120183D01*
X0062663Y0118880D01*
X0063874Y0117669D01*
X0065177Y0116557D01*
X0066563Y0115550D01*
X0068023Y0114655D01*
X0069550Y0113877D01*
X0071132Y0113221D01*
X0072761Y0112692D01*
X0074427Y0112292D01*
X0076119Y0112024D01*
X0077827Y0111890D01*
X0077883Y0111890D01*
X0077883Y0132890D01*
X0079483Y0132890D01*
X0079483Y0111890D01*
X0079540Y0111890D01*
X0081248Y0112024D01*
X0082940Y0112292D01*
X0084605Y0112692D01*
X0086235Y0113221D01*
X0087817Y0113877D01*
X0089344Y0114655D01*
X0090804Y0115550D01*
X0092190Y0116557D01*
X0093493Y0117669D01*
X0094704Y0118880D01*
X0095817Y0120183D01*
X0096823Y0121569D01*
X0097719Y0123030D01*
X0098496Y0124556D01*
X0099152Y0126139D01*
X0099681Y0127768D01*
X0100081Y0129434D01*
X0100349Y0131125D01*
X0100483Y0132833D01*
X0100483Y0132890D01*
X0079483Y0132890D01*
X0079483Y0134490D01*
X0077883Y0134490D01*
X0077883Y0155490D01*
X0077827Y0155490D01*
X0076119Y0155355D01*
X0074427Y0155087D01*
X0072761Y0154687D01*
X0071132Y0154158D01*
X0069550Y0153503D01*
X0068023Y0152725D01*
X0066563Y0151830D01*
X0065177Y0150823D01*
X0063874Y0149710D01*
X0062663Y0148499D01*
X0061550Y0147196D01*
X0060382Y0145547D02*
X0055220Y0145547D01*
X0056083Y0143949D02*
X0059444Y0143949D01*
X0058675Y0142350D02*
X0056083Y0142350D01*
X0056083Y0140752D02*
X0058056Y0140752D01*
X0057576Y0139153D02*
X0056083Y0139153D01*
X0056083Y0137555D02*
X0057224Y0137555D01*
X0056994Y0135956D02*
X0056083Y0135956D01*
X0056083Y0134358D02*
X0077883Y0134358D01*
X0077883Y0135956D02*
X0079483Y0135956D01*
X0079483Y0134490D02*
X0079483Y0155490D01*
X0079540Y0155490D01*
X0081248Y0155355D01*
X0082940Y0155087D01*
X0084605Y0154687D01*
X0086235Y0154158D01*
X0087817Y0153503D01*
X0089344Y0152725D01*
X0090804Y0151830D01*
X0092190Y0150823D01*
X0093493Y0149710D01*
X0094704Y0148499D01*
X0095817Y0147196D01*
X0096823Y0145811D01*
X0097719Y0144350D01*
X0098496Y0142824D01*
X0099152Y0141241D01*
X0099681Y0139612D01*
X0100081Y0137946D01*
X0100349Y0136254D01*
X0100483Y0134546D01*
X0100483Y0134490D01*
X0079483Y0134490D01*
X0079483Y0134358D02*
X0101283Y0134358D01*
X0101283Y0135956D02*
X0100372Y0135956D01*
X0100143Y0137555D02*
X0101283Y0137555D01*
X0101283Y0139153D02*
X0099791Y0139153D01*
X0099311Y0140752D02*
X0101283Y0140752D01*
X0101283Y0142350D02*
X0098692Y0142350D01*
X0097923Y0143949D02*
X0101283Y0143949D01*
X0102147Y0145547D02*
X0096985Y0145547D01*
X0095853Y0147146D02*
X0115553Y0147146D01*
X0115553Y0148745D02*
X0094459Y0148745D01*
X0092752Y0150343D02*
X0115553Y0150343D01*
X0115553Y0151942D02*
X0090622Y0151942D01*
X0087727Y0153540D02*
X0115708Y0153540D01*
X0115621Y0145547D02*
X0115220Y0145547D01*
X0116083Y0143949D02*
X0117087Y0143949D01*
X0116294Y0142350D02*
X0116083Y0142350D01*
X0125320Y0143949D02*
X0133764Y0143949D01*
X0133764Y0145547D02*
X0126786Y0145547D01*
X0126853Y0147146D02*
X0133764Y0147146D01*
X0133764Y0148745D02*
X0126853Y0148745D01*
X0126853Y0150343D02*
X0133764Y0150343D01*
X0133764Y0151942D02*
X0126853Y0151942D01*
X0126698Y0153540D02*
X0133764Y0153540D01*
X0133764Y0155139D02*
X0082617Y0155139D01*
X0079483Y0155139D02*
X0077883Y0155139D01*
X0077883Y0153540D02*
X0079483Y0153540D01*
X0079483Y0151942D02*
X0077883Y0151942D01*
X0077883Y0150343D02*
X0079483Y0150343D01*
X0079483Y0148745D02*
X0077883Y0148745D01*
X0077883Y0147146D02*
X0079483Y0147146D01*
X0079483Y0145547D02*
X0077883Y0145547D01*
X0077883Y0143949D02*
X0079483Y0143949D01*
X0079483Y0142350D02*
X0077883Y0142350D01*
X0077883Y0140752D02*
X0079483Y0140752D01*
X0079483Y0139153D02*
X0077883Y0139153D01*
X0077883Y0137555D02*
X0079483Y0137555D01*
X0079483Y0132759D02*
X0077883Y0132759D01*
X0077883Y0131161D02*
X0079483Y0131161D01*
X0079483Y0129562D02*
X0077883Y0129562D01*
X0077883Y0127964D02*
X0079483Y0127964D01*
X0079483Y0126365D02*
X0077883Y0126365D01*
X0077883Y0124767D02*
X0079483Y0124767D01*
X0079483Y0123168D02*
X0077883Y0123168D01*
X0077883Y0121570D02*
X0079483Y0121570D01*
X0079483Y0119971D02*
X0077883Y0119971D01*
X0077883Y0118373D02*
X0079483Y0118373D01*
X0079483Y0116774D02*
X0077883Y0116774D01*
X0077883Y0115176D02*
X0079483Y0115176D01*
X0079483Y0113577D02*
X0077883Y0113577D01*
X0077883Y0111979D02*
X0079483Y0111979D01*
X0080671Y0111979D02*
X0111710Y0111979D01*
X0111710Y0113577D02*
X0087094Y0113577D01*
X0090194Y0115176D02*
X0111710Y0115176D01*
X0111710Y0116774D02*
X0092445Y0116774D01*
X0094196Y0118373D02*
X0111821Y0118373D01*
X0112974Y0119971D02*
X0095636Y0119971D01*
X0096824Y0121570D02*
X0102530Y0121570D01*
X0101302Y0123168D02*
X0097789Y0123168D01*
X0098584Y0124767D02*
X0101283Y0124767D01*
X0101283Y0126365D02*
X0099225Y0126365D01*
X0099728Y0127964D02*
X0101283Y0127964D01*
X0101283Y0129562D02*
X0100101Y0129562D01*
X0100352Y0131161D02*
X0101283Y0131161D01*
X0101283Y0132759D02*
X0100478Y0132759D01*
X0111710Y0110380D02*
X0051562Y0110380D01*
X0051562Y0108782D02*
X0111710Y0108782D01*
X0111710Y0107183D02*
X0106849Y0107183D01*
X0106689Y0107343D02*
X0104867Y0108098D01*
X0102894Y0108098D01*
X0101071Y0107343D01*
X0099676Y0105948D01*
X0098921Y0104125D01*
X0098921Y0102152D01*
X0099676Y0100330D01*
X0101071Y0098934D01*
X0102894Y0098180D01*
X0104867Y0098180D01*
X0106689Y0098934D01*
X0108084Y0100330D01*
X0108839Y0102152D01*
X0108839Y0104125D01*
X0108084Y0105948D01*
X0106689Y0107343D01*
X0108235Y0105585D02*
X0111710Y0105585D01*
X0111710Y0103986D02*
X0108839Y0103986D01*
X0108839Y0102388D02*
X0111710Y0102388D01*
X0111710Y0100789D02*
X0108275Y0100789D01*
X0106946Y0099191D02*
X0111710Y0099191D01*
X0111710Y0097592D02*
X0097625Y0097592D01*
X0097625Y0095994D02*
X0111710Y0095994D01*
X0111710Y0094395D02*
X0097625Y0094395D01*
X0097625Y0092797D02*
X0111710Y0092797D01*
X0110578Y0091198D02*
X0097625Y0091198D01*
X0097625Y0089600D02*
X0108984Y0089600D01*
X0108561Y0088001D02*
X0105100Y0088001D01*
X0107629Y0086403D02*
X0108561Y0086403D01*
X0102661Y0088001D02*
X0097625Y0088001D01*
X0097625Y0086403D02*
X0100131Y0086403D01*
X0099203Y0084804D02*
X0097625Y0084804D01*
X0097625Y0083206D02*
X0098921Y0083206D01*
X0099147Y0081607D02*
X0097625Y0081607D01*
X0092025Y0088001D02*
X0091320Y0088001D01*
X0092025Y0089600D02*
X0079121Y0089600D01*
X0079121Y0091198D02*
X0092025Y0091198D01*
X0092025Y0092797D02*
X0079121Y0092797D01*
X0079121Y0094395D02*
X0092025Y0094395D01*
X0092025Y0095994D02*
X0079121Y0095994D01*
X0079121Y0097592D02*
X0091687Y0097592D01*
X0087036Y0099191D02*
X0079386Y0099191D01*
X0080716Y0100789D02*
X0085706Y0100789D01*
X0085142Y0102388D02*
X0081280Y0102388D01*
X0081280Y0103986D02*
X0085142Y0103986D01*
X0085746Y0105585D02*
X0080676Y0105585D01*
X0079290Y0107183D02*
X0087132Y0107183D01*
X0093069Y0107183D02*
X0100912Y0107183D01*
X0099526Y0105585D02*
X0094455Y0105585D01*
X0095060Y0103986D02*
X0098921Y0103986D01*
X0098921Y0102388D02*
X0095060Y0102388D01*
X0096410Y0100789D02*
X0099486Y0100789D01*
X0100815Y0099191D02*
X0097534Y0099191D01*
X0088881Y0088001D02*
X0078855Y0088001D01*
X0080070Y0086403D02*
X0086352Y0086403D01*
X0085423Y0084804D02*
X0080999Y0084804D01*
X0081280Y0083206D02*
X0085142Y0083206D01*
X0083665Y0081607D02*
X0081054Y0081607D01*
X0080204Y0080009D02*
X0082066Y0080009D01*
X0080468Y0078410D02*
X0080296Y0078410D01*
X0075929Y0076811D02*
X0075148Y0076811D01*
X0074184Y0075213D02*
X0073265Y0075213D01*
X0073221Y0073614D02*
X0068703Y0073614D01*
X0070144Y0072016D02*
X0073124Y0072016D01*
X0073886Y0070417D02*
X0070460Y0070417D01*
X0070460Y0068819D02*
X0075093Y0068819D01*
X0074699Y0067220D02*
X0070791Y0067220D01*
X0070717Y0075213D02*
X0067104Y0075213D01*
X0065506Y0076811D02*
X0068833Y0076811D01*
X0068400Y0078410D02*
X0065342Y0078410D01*
X0066425Y0080009D02*
X0068699Y0080009D01*
X0069191Y0081607D02*
X0067275Y0081607D01*
X0067501Y0083206D02*
X0069191Y0083206D01*
X0069191Y0084804D02*
X0067219Y0084804D01*
X0066291Y0086403D02*
X0069594Y0086403D01*
X0071161Y0088001D02*
X0063761Y0088001D01*
X0061322Y0088001D02*
X0055893Y0088001D01*
X0055893Y0086403D02*
X0058793Y0086403D01*
X0057864Y0084804D02*
X0055893Y0084804D01*
X0055962Y0083206D02*
X0057583Y0083206D01*
X0057561Y0081607D02*
X0057808Y0081607D01*
X0051681Y0076811D02*
X0040139Y0076811D01*
X0040139Y0075213D02*
X0053279Y0075213D01*
X0054878Y0073614D02*
X0040139Y0073614D01*
X0040139Y0072016D02*
X0054314Y0072016D01*
X0054227Y0070417D02*
X0040139Y0070417D01*
X0040139Y0068819D02*
X0055012Y0068819D01*
X0056198Y0067220D02*
X0040139Y0067220D01*
X0040139Y0065622D02*
X0056198Y0065622D01*
X0056198Y0064023D02*
X0040139Y0064023D01*
X0040139Y0062425D02*
X0056198Y0062425D01*
X0056198Y0060826D02*
X0052416Y0060826D01*
X0050620Y0060826D02*
X0040139Y0060826D01*
X0040139Y0059228D02*
X0048425Y0059228D01*
X0047876Y0057629D02*
X0040139Y0057629D01*
X0040139Y0056031D02*
X0046342Y0056031D01*
X0045962Y0054432D02*
X0040139Y0054432D01*
X0040139Y0052834D02*
X0045962Y0052834D01*
X0045090Y0051235D02*
X0040139Y0051235D01*
X0040139Y0049637D02*
X0044787Y0049637D01*
X0044787Y0048038D02*
X0040139Y0048038D01*
X0040139Y0046440D02*
X0044167Y0046440D01*
X0042568Y0044841D02*
X0040139Y0044841D01*
X0040139Y0043243D02*
X0041631Y0043243D01*
X0041631Y0041644D02*
X0040139Y0041644D01*
X0040139Y0040046D02*
X0041631Y0040046D01*
X0041631Y0038447D02*
X0040139Y0038447D01*
X0040139Y0036849D02*
X0041631Y0036849D01*
X0041631Y0035250D02*
X0040139Y0035250D01*
X0040139Y0033652D02*
X0041631Y0033652D01*
X0041631Y0032053D02*
X0040139Y0032053D01*
X0040139Y0030455D02*
X0041631Y0030455D01*
X0041631Y0028856D02*
X0040139Y0028856D01*
X0040139Y0027258D02*
X0041631Y0027258D01*
X0042203Y0025659D02*
X0040139Y0025659D01*
X0040139Y0024061D02*
X0043802Y0024061D01*
X0045400Y0022462D02*
X0040139Y0022462D01*
X0040139Y0020864D02*
X0097346Y0020864D01*
X0097346Y0022462D02*
X0055274Y0022462D01*
X0069692Y0024061D02*
X0086100Y0024061D01*
X0086098Y0024063D02*
X0086773Y0023387D01*
X0087655Y0023022D01*
X0094121Y0023022D01*
X0095004Y0023387D01*
X0095679Y0024063D01*
X0096044Y0024945D01*
X0096044Y0027060D01*
X0097261Y0026556D01*
X0097606Y0026556D01*
X0097931Y0026231D01*
X0097931Y0024048D01*
X0097712Y0023829D01*
X0097346Y0022947D01*
X0097346Y0019236D01*
X0097712Y0018354D01*
X0098387Y0017679D01*
X0099269Y0017313D01*
X0102192Y0017313D01*
X0102305Y0017360D01*
X0102419Y0017313D01*
X0105342Y0017313D01*
X0106224Y0017679D01*
X0106837Y0018291D01*
X0116378Y0018291D01*
X0116413Y0018206D01*
X0118003Y0016616D01*
X0120079Y0015756D01*
X0122327Y0015756D01*
X0124404Y0016616D01*
X0125993Y0018206D01*
X0126853Y0020282D01*
X0126853Y0022530D01*
X0125993Y0024607D01*
X0124404Y0026196D01*
X0123896Y0026406D01*
X0124404Y0026616D01*
X0125993Y0028206D01*
X0126853Y0030282D01*
X0126853Y0032530D01*
X0125993Y0034607D01*
X0124404Y0036196D01*
X0123896Y0036406D01*
X0124404Y0036616D01*
X0125993Y0038206D01*
X0126853Y0040282D01*
X0126853Y0042530D01*
X0125993Y0044607D01*
X0124404Y0046196D01*
X0124017Y0046356D01*
X0124690Y0046356D01*
X0125148Y0046479D01*
X0125558Y0046716D01*
X0125893Y0047051D01*
X0126130Y0047462D01*
X0126253Y0047919D01*
X0126253Y0051331D01*
X0121278Y0051331D01*
X0121278Y0051481D01*
X0126253Y0051481D01*
X0126253Y0054893D01*
X0126130Y0055351D01*
X0125893Y0055762D01*
X0125558Y0056097D01*
X0125148Y0056334D01*
X0124690Y0056456D01*
X0121278Y0056456D01*
X0121278Y0051481D01*
X0121128Y0051481D01*
X0121128Y0051331D01*
X0116153Y0051331D01*
X0116153Y0047919D01*
X0116276Y0047462D01*
X0116513Y0047051D01*
X0116848Y0046716D01*
X0117258Y0046479D01*
X0117716Y0046356D01*
X0118389Y0046356D01*
X0118003Y0046196D01*
X0116413Y0044607D01*
X0115553Y0042530D01*
X0115553Y0040282D01*
X0115719Y0039882D01*
X0115476Y0039639D01*
X0110016Y0039639D01*
X0108987Y0039213D01*
X0107439Y0037665D01*
X0105568Y0037665D01*
X0104686Y0037299D01*
X0104011Y0036624D01*
X0103955Y0036490D01*
X0102284Y0036490D01*
X0101136Y0037638D01*
X0100348Y0038426D01*
X0099319Y0038852D01*
X0097103Y0038852D01*
X0096859Y0039096D01*
X0095539Y0039643D01*
X0094111Y0039643D01*
X0092791Y0039096D01*
X0091781Y0038086D01*
X0091235Y0036766D01*
X0091235Y0035338D01*
X0091781Y0034018D01*
X0092072Y0033728D01*
X0087655Y0033728D01*
X0086773Y0033362D01*
X0086098Y0032687D01*
X0085732Y0031805D01*
X0085732Y0024945D01*
X0086098Y0024063D01*
X0085732Y0025659D02*
X0070060Y0025659D01*
X0070060Y0027258D02*
X0085732Y0027258D01*
X0085732Y0028856D02*
X0070060Y0028856D01*
X0070060Y0030455D02*
X0085732Y0030455D01*
X0085835Y0032053D02*
X0069957Y0032053D01*
X0070794Y0033652D02*
X0078178Y0033652D01*
X0081551Y0033652D02*
X0087472Y0033652D01*
X0086772Y0036849D02*
X0091269Y0036849D01*
X0091271Y0035250D02*
X0083093Y0035250D01*
X0087737Y0038447D02*
X0092143Y0038447D01*
X0091298Y0040046D02*
X0115651Y0040046D01*
X0115553Y0041644D02*
X0105906Y0041644D01*
X0108605Y0041929D02*
X0108605Y0045107D01*
X0108605Y0041929D01*
X0108605Y0043243D02*
X0108605Y0043243D01*
X0108605Y0044841D02*
X0108605Y0044841D01*
X0108605Y0045107D02*
X0108605Y0045107D01*
X0111979Y0044841D02*
X0116648Y0044841D01*
X0117405Y0046440D02*
X0111979Y0046440D01*
X0111840Y0048038D02*
X0116153Y0048038D01*
X0116153Y0049637D02*
X0112029Y0049637D01*
X0112029Y0051235D02*
X0116153Y0051235D01*
X0116153Y0051481D02*
X0121128Y0051481D01*
X0121128Y0056456D01*
X0117716Y0056456D01*
X0117258Y0056334D01*
X0116848Y0056097D01*
X0116513Y0055762D01*
X0116276Y0055351D01*
X0116153Y0054893D01*
X0116153Y0051481D01*
X0116153Y0052834D02*
X0111544Y0052834D01*
X0108408Y0052834D02*
X0108408Y0052834D01*
X0108408Y0051235D02*
X0108408Y0051235D01*
X0105896Y0054432D02*
X0116153Y0054432D01*
X0116782Y0056031D02*
X0111858Y0056031D01*
X0111979Y0057629D02*
X0133764Y0057629D01*
X0133764Y0056031D02*
X0125624Y0056031D01*
X0126253Y0054432D02*
X0133764Y0054432D01*
X0133764Y0052834D02*
X0126253Y0052834D01*
X0126253Y0051235D02*
X0133764Y0051235D01*
X0133764Y0049637D02*
X0126253Y0049637D01*
X0126253Y0048038D02*
X0133764Y0048038D01*
X0133764Y0046440D02*
X0125002Y0046440D01*
X0125758Y0044841D02*
X0133764Y0044841D01*
X0133764Y0043243D02*
X0126558Y0043243D01*
X0126853Y0041644D02*
X0133764Y0041644D01*
X0133764Y0040046D02*
X0126755Y0040046D01*
X0126093Y0038447D02*
X0133764Y0038447D01*
X0133764Y0036849D02*
X0124636Y0036849D01*
X0125350Y0035250D02*
X0133764Y0035250D01*
X0133764Y0033652D02*
X0126389Y0033652D01*
X0126853Y0032053D02*
X0133764Y0032053D01*
X0133764Y0030455D02*
X0126853Y0030455D01*
X0126262Y0028856D02*
X0133764Y0028856D01*
X0133764Y0027258D02*
X0125045Y0027258D01*
X0124941Y0025659D02*
X0133764Y0025659D01*
X0133764Y0024061D02*
X0126219Y0024061D01*
X0126853Y0022462D02*
X0133764Y0022462D01*
X0133764Y0020864D02*
X0126853Y0020864D01*
X0126432Y0019265D02*
X0133764Y0019265D01*
X0133764Y0017667D02*
X0125454Y0017667D01*
X0123080Y0016068D02*
X0133764Y0016068D01*
X0133764Y0014470D02*
X0040139Y0014470D01*
X0040139Y0016068D02*
X0119327Y0016068D01*
X0116953Y0017667D02*
X0106195Y0017667D01*
X0098416Y0017667D02*
X0040139Y0017667D01*
X0040139Y0019265D02*
X0097346Y0019265D01*
X0097931Y0024061D02*
X0095677Y0024061D01*
X0096044Y0025659D02*
X0097931Y0025659D01*
X0101925Y0036849D02*
X0104236Y0036849D01*
X0100296Y0038447D02*
X0108221Y0038447D01*
X0111913Y0043243D02*
X0115848Y0043243D01*
X0121128Y0052834D02*
X0121278Y0052834D01*
X0121278Y0054432D02*
X0121128Y0054432D01*
X0121128Y0056031D02*
X0121278Y0056031D01*
X0124637Y0060826D02*
X0133764Y0060826D01*
X0133764Y0059228D02*
X0111979Y0059228D01*
X0111376Y0060826D02*
X0117769Y0060826D01*
X0116313Y0062425D02*
X0105867Y0062425D01*
X0107465Y0064023D02*
X0115651Y0064023D01*
X0115553Y0065622D02*
X0109064Y0065622D01*
X0110662Y0067220D02*
X0115849Y0067220D01*
X0116649Y0068819D02*
X0112261Y0068819D01*
X0113859Y0070417D02*
X0118426Y0070417D01*
X0116580Y0072016D02*
X0115458Y0072016D01*
X0123980Y0070417D02*
X0133764Y0070417D01*
X0133764Y0068819D02*
X0125757Y0068819D01*
X0126557Y0067220D02*
X0133764Y0067220D01*
X0133764Y0065622D02*
X0126853Y0065622D01*
X0126756Y0064023D02*
X0133764Y0064023D01*
X0133764Y0062425D02*
X0126093Y0062425D01*
X0125827Y0072016D02*
X0133764Y0072016D01*
X0133764Y0073614D02*
X0126586Y0073614D01*
X0126853Y0075213D02*
X0133764Y0075213D01*
X0133764Y0076811D02*
X0126727Y0076811D01*
X0126065Y0078410D02*
X0133764Y0078410D01*
X0133764Y0080009D02*
X0124568Y0080009D01*
X0125418Y0081607D02*
X0133764Y0081607D01*
X0133764Y0083206D02*
X0126417Y0083206D01*
X0126853Y0084804D02*
X0133764Y0084804D01*
X0133764Y0086403D02*
X0126853Y0086403D01*
X0126234Y0088001D02*
X0133764Y0088001D01*
X0133764Y0089600D02*
X0124977Y0089600D01*
X0125009Y0091198D02*
X0133764Y0091198D01*
X0133764Y0092797D02*
X0126247Y0092797D01*
X0126853Y0094395D02*
X0133764Y0094395D01*
X0133764Y0095994D02*
X0126853Y0095994D01*
X0126403Y0097592D02*
X0133764Y0097592D01*
X0133764Y0099191D02*
X0125385Y0099191D01*
X0124600Y0100789D02*
X0133764Y0100789D01*
X0133764Y0102388D02*
X0126078Y0102388D01*
X0126740Y0103986D02*
X0133764Y0103986D01*
X0133764Y0105585D02*
X0126853Y0105585D01*
X0126573Y0107183D02*
X0133764Y0107183D01*
X0133764Y0108782D02*
X0125794Y0108782D01*
X0126095Y0110380D02*
X0133764Y0110380D01*
X0133764Y0111979D02*
X0126853Y0111979D01*
X0126853Y0113577D02*
X0133764Y0113577D01*
X0133764Y0115176D02*
X0126853Y0115176D01*
X0126853Y0116774D02*
X0133764Y0116774D01*
X0133764Y0118373D02*
X0126853Y0118373D01*
X0126496Y0119971D02*
X0133764Y0119971D01*
X0133764Y0121570D02*
X0122492Y0121570D01*
X0123790Y0123168D02*
X0133764Y0123168D01*
X0133764Y0124767D02*
X0124522Y0124767D01*
X0126046Y0126365D02*
X0133764Y0126365D01*
X0133764Y0127964D02*
X0126708Y0127964D01*
X0126853Y0129562D02*
X0133764Y0129562D01*
X0133764Y0131161D02*
X0126605Y0131161D01*
X0125872Y0132759D02*
X0133764Y0132759D01*
X0133764Y0134358D02*
X0124089Y0134358D01*
X0125712Y0135956D02*
X0133764Y0135956D01*
X0133764Y0137555D02*
X0126539Y0137555D01*
X0126853Y0139153D02*
X0133764Y0139153D01*
X0133764Y0140752D02*
X0126774Y0140752D01*
X0126112Y0142350D02*
X0133764Y0142350D01*
X0133764Y0156737D02*
X0040139Y0156737D01*
X0040139Y0156880D02*
X0133764Y0156880D01*
X0133764Y0012074D01*
X0040139Y0012074D01*
X0040139Y0156880D01*
X0040139Y0155139D02*
X0074750Y0155139D01*
X0069640Y0153540D02*
X0040139Y0153540D01*
X0040139Y0151942D02*
X0066745Y0151942D01*
X0064615Y0150343D02*
X0040139Y0150343D01*
X0040139Y0148745D02*
X0062908Y0148745D01*
X0056889Y0132759D02*
X0056083Y0132759D01*
X0056083Y0131161D02*
X0057015Y0131161D01*
X0057265Y0129562D02*
X0056083Y0129562D01*
X0056083Y0127964D02*
X0057639Y0127964D01*
X0058141Y0126365D02*
X0056083Y0126365D01*
X0056083Y0124767D02*
X0058783Y0124767D01*
X0059578Y0123168D02*
X0056065Y0123168D01*
X0054837Y0121570D02*
X0060543Y0121570D01*
X0061731Y0119971D02*
X0051702Y0119971D01*
X0052540Y0118373D02*
X0063171Y0118373D01*
X0064922Y0116774D02*
X0052540Y0116774D01*
X0052540Y0115176D02*
X0067173Y0115176D01*
X0070273Y0113577D02*
X0052540Y0113577D01*
X0052306Y0111979D02*
X0076696Y0111979D01*
X0073353Y0107183D02*
X0065510Y0107183D01*
X0065351Y0107343D02*
X0063528Y0108098D01*
X0061555Y0108098D01*
X0059733Y0107343D01*
X0058338Y0105948D01*
X0057583Y0104125D01*
X0057583Y0102152D01*
X0058338Y0100330D01*
X0059733Y0098934D01*
X0061555Y0098180D01*
X0063528Y0098180D01*
X0065351Y0098934D01*
X0066746Y0100330D01*
X0067501Y0102152D01*
X0067501Y0104125D01*
X0066746Y0105948D01*
X0065351Y0107343D01*
X0066896Y0105585D02*
X0071967Y0105585D01*
X0071362Y0103986D02*
X0067501Y0103986D01*
X0067501Y0102388D02*
X0071362Y0102388D01*
X0071927Y0100789D02*
X0066936Y0100789D01*
X0065607Y0099191D02*
X0073256Y0099191D01*
X0073521Y0097592D02*
X0055893Y0097592D01*
X0055893Y0095994D02*
X0073521Y0095994D01*
X0073521Y0094395D02*
X0055893Y0094395D01*
X0055893Y0092797D02*
X0073521Y0092797D01*
X0073521Y0091198D02*
X0055893Y0091198D01*
X0055893Y0089600D02*
X0072759Y0089600D01*
X0059476Y0099191D02*
X0055893Y0099191D01*
X0055071Y0100789D02*
X0058147Y0100789D01*
X0057583Y0102388D02*
X0053721Y0102388D01*
X0053721Y0103986D02*
X0057583Y0103986D01*
X0058187Y0105585D02*
X0053117Y0105585D01*
X0051731Y0107183D02*
X0059573Y0107183D01*
X0050293Y0097592D02*
X0040139Y0097592D01*
X0040139Y0095994D02*
X0050293Y0095994D01*
X0050293Y0094395D02*
X0040139Y0094395D01*
X0040139Y0092797D02*
X0050293Y0092797D01*
X0050293Y0091198D02*
X0040139Y0091198D01*
X0040139Y0089600D02*
X0050293Y0089600D01*
X0050293Y0088001D02*
X0049982Y0088001D01*
X0047543Y0088001D02*
X0040139Y0088001D01*
X0040139Y0086403D02*
X0045013Y0086403D01*
X0044084Y0084804D02*
X0040139Y0084804D01*
X0040139Y0083206D02*
X0043803Y0083206D01*
X0044029Y0081607D02*
X0040139Y0081607D01*
X0040139Y0080009D02*
X0044879Y0080009D01*
X0047219Y0078410D02*
X0040139Y0078410D01*
X0054611Y0059228D02*
X0054986Y0059228D01*
X0045697Y0099191D02*
X0040139Y0099191D01*
X0040139Y0100789D02*
X0044368Y0100789D01*
X0043803Y0102388D02*
X0040139Y0102388D01*
X0040139Y0103986D02*
X0043803Y0103986D01*
X0044408Y0105585D02*
X0040139Y0105585D01*
X0040139Y0107183D02*
X0045794Y0107183D01*
X0045962Y0108782D02*
X0040139Y0108782D01*
X0040139Y0110380D02*
X0045962Y0110380D01*
X0045218Y0111979D02*
X0040139Y0111979D01*
X0040139Y0113577D02*
X0044984Y0113577D01*
X0044984Y0115176D02*
X0040139Y0115176D01*
X0040139Y0116774D02*
X0044984Y0116774D01*
X0044984Y0118373D02*
X0040139Y0118373D01*
X0040139Y0119971D02*
X0045823Y0119971D01*
X0042530Y0121570D02*
X0040139Y0121570D01*
X0040139Y0123168D02*
X0041302Y0123168D01*
X0041283Y0124767D02*
X0040139Y0124767D01*
X0040139Y0126365D02*
X0041283Y0126365D01*
X0041283Y0127964D02*
X0040139Y0127964D01*
X0040139Y0129562D02*
X0041283Y0129562D01*
X0041283Y0131161D02*
X0040139Y0131161D01*
X0040139Y0132759D02*
X0041283Y0132759D01*
X0108605Y0060826D02*
X0108605Y0060826D01*
X0108605Y0059228D02*
X0108605Y0059228D01*
X0108605Y0057629D02*
X0108605Y0057629D01*
X0108605Y0056031D02*
X0108605Y0056031D01*
X0097187Y0044841D02*
X0097187Y0044841D01*
X0097187Y0043243D02*
X0097187Y0043243D01*
X0100280Y0041644D02*
X0092116Y0041644D01*
X0133764Y0012871D02*
X0040139Y0012871D01*
D30*
X0058998Y0039595D03*
X0061754Y0037627D03*
X0066479Y0036839D03*
X0072384Y0044713D03*
X0079865Y0036839D03*
X0082817Y0045107D03*
X0088132Y0047076D03*
X0088526Y0042351D03*
X0094825Y0036052D03*
X0096400Y0032902D03*
X0097975Y0030146D03*
X0102305Y0054556D03*
X0100731Y0064792D03*
X0103880Y0067942D03*
X0112935Y0077391D03*
X0115298Y0086052D03*
X0080258Y0069910D03*
X0078290Y0067154D03*
X0076715Y0072666D03*
X0079077Y0075028D03*
X0071991Y0078572D03*
X0057817Y0071091D03*
X0051518Y0057312D03*
X0051518Y0053375D03*
X0058998Y0049044D03*
X0073172Y0057706D03*
M02*
