G75*
%MOIN*%
%OFA0B0*%
%FSLAX25Y25*%
%IPPOS*%
%LPD*%
%AMOC8*
5,1,8,0,0,1.08239X$1,22.5*
%
%ADD10C,0.00000*%
%ADD11C,0.00200*%
%ADD12R,0.01575X0.01575*%
%ADD13C,0.00500*%
%ADD14C,0.00300*%
%ADD15C,0.00400*%
%ADD16C,0.00600*%
D10*
X0037739Y0009674D02*
X0037739Y0159280D01*
X0136164Y0159280D01*
X0136164Y0009674D01*
X0037739Y0009674D01*
D11*
X0044118Y0026309D02*
X0045200Y0026309D01*
X0045561Y0026670D01*
X0045561Y0028113D01*
X0045200Y0028473D01*
X0044118Y0028473D01*
X0044118Y0026309D01*
X0046293Y0026670D02*
X0046654Y0026309D01*
X0047375Y0026309D01*
X0047736Y0026670D01*
X0047736Y0027031D01*
X0047375Y0027391D01*
X0047015Y0027391D01*
X0047375Y0027391D02*
X0047736Y0027752D01*
X0047736Y0028113D01*
X0047375Y0028473D01*
X0046654Y0028473D01*
X0046293Y0028113D01*
X0045013Y0033002D02*
X0044292Y0033002D01*
X0043931Y0033363D01*
X0043931Y0034084D02*
X0044653Y0034445D01*
X0045013Y0034445D01*
X0045374Y0034084D01*
X0045374Y0033363D01*
X0045013Y0033002D01*
X0043931Y0034084D02*
X0043931Y0035166D01*
X0045374Y0035166D01*
X0043199Y0034806D02*
X0043199Y0034084D01*
X0042838Y0033724D01*
X0041756Y0033724D01*
X0042477Y0033724D02*
X0043199Y0033002D01*
X0041756Y0033002D02*
X0041756Y0035166D01*
X0042838Y0035166D01*
X0043199Y0034806D01*
X0043199Y0040089D02*
X0042477Y0040810D01*
X0042838Y0040810D02*
X0041756Y0040810D01*
X0041756Y0040089D02*
X0041756Y0042253D01*
X0042838Y0042253D01*
X0043199Y0041892D01*
X0043199Y0041171D01*
X0042838Y0040810D01*
X0043931Y0041171D02*
X0045013Y0042253D01*
X0045013Y0040089D01*
X0045374Y0041171D02*
X0043931Y0041171D01*
X0044292Y0047176D02*
X0043931Y0047536D01*
X0044292Y0047176D02*
X0045013Y0047176D01*
X0045374Y0047536D01*
X0045374Y0047897D01*
X0045013Y0048258D01*
X0044653Y0048258D01*
X0045013Y0048258D02*
X0045374Y0048618D01*
X0045374Y0048979D01*
X0045013Y0049340D01*
X0044292Y0049340D01*
X0043931Y0048979D01*
X0043199Y0048979D02*
X0043199Y0048258D01*
X0042838Y0047897D01*
X0041756Y0047897D01*
X0041756Y0047176D02*
X0041756Y0049340D01*
X0042838Y0049340D01*
X0043199Y0048979D01*
X0042477Y0047897D02*
X0043199Y0047176D01*
X0054748Y0056231D02*
X0054748Y0058395D01*
X0055830Y0058395D01*
X0056191Y0058034D01*
X0056191Y0057313D01*
X0055830Y0056952D01*
X0054748Y0056952D01*
X0055470Y0056952D02*
X0056191Y0056231D01*
X0056923Y0056231D02*
X0058366Y0057673D01*
X0058366Y0058034D01*
X0058005Y0058395D01*
X0057284Y0058395D01*
X0056923Y0058034D01*
X0056923Y0056231D02*
X0058366Y0056231D01*
X0058366Y0062530D02*
X0056923Y0062530D01*
X0057645Y0062530D02*
X0057645Y0064694D01*
X0056923Y0063973D01*
X0056191Y0064333D02*
X0056191Y0063612D01*
X0055830Y0063251D01*
X0054748Y0063251D01*
X0054748Y0062530D02*
X0054748Y0064694D01*
X0055830Y0064694D01*
X0056191Y0064333D01*
X0055470Y0063251D02*
X0056191Y0062530D01*
X0063377Y0045009D02*
X0064098Y0045009D01*
X0064459Y0044648D01*
X0064459Y0043206D01*
X0064098Y0042845D01*
X0063377Y0042845D01*
X0063016Y0043206D01*
X0063016Y0044648D01*
X0063377Y0045009D01*
X0063737Y0043566D02*
X0064459Y0042845D01*
X0065191Y0042845D02*
X0066634Y0042845D01*
X0065912Y0042845D02*
X0065912Y0045009D01*
X0065191Y0044288D01*
X0092131Y0042844D02*
X0092131Y0040675D01*
X0092565Y0040242D01*
X0093432Y0040242D01*
X0093866Y0040675D01*
X0093866Y0042844D01*
X0094709Y0041977D02*
X0095577Y0042844D01*
X0095577Y0040242D01*
X0096444Y0040242D02*
X0094709Y0040242D01*
X0099650Y0026111D02*
X0100732Y0026111D01*
X0101092Y0025751D01*
X0101092Y0024308D01*
X0100732Y0023947D01*
X0099650Y0023947D01*
X0099650Y0026111D01*
X0101825Y0025751D02*
X0102185Y0026111D01*
X0102907Y0026111D01*
X0103267Y0025751D01*
X0103267Y0025390D01*
X0101825Y0023947D01*
X0103267Y0023947D01*
X0106734Y0024396D02*
X0107095Y0023675D01*
X0107816Y0022953D01*
X0107816Y0024035D01*
X0108177Y0024396D01*
X0108538Y0024396D01*
X0108898Y0024035D01*
X0108898Y0023314D01*
X0108538Y0022953D01*
X0107816Y0022953D01*
X0107816Y0022221D02*
X0108177Y0021860D01*
X0108177Y0020778D01*
X0108898Y0020778D02*
X0106734Y0020778D01*
X0106734Y0021860D01*
X0107095Y0022221D01*
X0107816Y0022221D01*
X0108177Y0021500D02*
X0108898Y0022221D01*
X0111852Y0021860D02*
X0111852Y0020778D01*
X0114017Y0020778D01*
X0113295Y0020778D02*
X0113295Y0021860D01*
X0112934Y0022221D01*
X0112213Y0022221D01*
X0111852Y0021860D01*
X0111852Y0022953D02*
X0111852Y0024396D01*
X0112213Y0024396D01*
X0113656Y0022953D01*
X0114017Y0022953D01*
X0114017Y0022221D02*
X0113295Y0021500D01*
X0126419Y0021580D02*
X0126419Y0020498D01*
X0128583Y0020498D01*
X0128583Y0021580D01*
X0128223Y0021940D01*
X0126780Y0021940D01*
X0126419Y0021580D01*
X0126419Y0022673D02*
X0126419Y0023755D01*
X0126780Y0024115D01*
X0128223Y0024115D01*
X0128583Y0023755D01*
X0128583Y0022673D01*
X0126419Y0022673D01*
X0126419Y0019765D02*
X0127862Y0019765D01*
X0128583Y0019044D01*
X0127862Y0018322D01*
X0126419Y0018322D01*
X0126780Y0028165D02*
X0127141Y0028165D01*
X0127501Y0028526D01*
X0127501Y0029247D01*
X0127862Y0029608D01*
X0128223Y0029608D01*
X0128583Y0029247D01*
X0128583Y0028526D01*
X0128223Y0028165D01*
X0126780Y0028165D02*
X0126419Y0028526D01*
X0126419Y0029247D01*
X0126780Y0029608D01*
X0126780Y0030340D02*
X0128223Y0030340D01*
X0128583Y0030701D01*
X0128583Y0031422D01*
X0128223Y0031783D01*
X0128583Y0032515D02*
X0126419Y0032515D01*
X0126780Y0031783D02*
X0126419Y0031422D01*
X0126419Y0030701D01*
X0126780Y0030340D01*
X0128583Y0032515D02*
X0128583Y0033958D01*
X0130356Y0034008D02*
X0130356Y0035713D01*
X0130356Y0034861D02*
X0132914Y0034861D01*
X0132914Y0033176D02*
X0132061Y0032323D01*
X0132061Y0032750D02*
X0132061Y0031470D01*
X0132914Y0031470D02*
X0130356Y0031470D01*
X0130356Y0032750D01*
X0130782Y0033176D01*
X0131635Y0033176D01*
X0132061Y0032750D01*
X0132488Y0036546D02*
X0130782Y0036546D01*
X0130356Y0036972D01*
X0130356Y0037825D01*
X0130782Y0038251D01*
X0130782Y0039083D02*
X0132488Y0039083D01*
X0132914Y0039510D01*
X0132914Y0040362D01*
X0132488Y0040789D01*
X0130782Y0040789D02*
X0130356Y0040362D01*
X0130356Y0039510D01*
X0130782Y0039083D01*
X0132488Y0038251D02*
X0132914Y0037825D01*
X0132914Y0036972D01*
X0132488Y0036546D01*
X0128583Y0038368D02*
X0128223Y0038007D01*
X0128583Y0038368D02*
X0128583Y0039089D01*
X0128223Y0039450D01*
X0127862Y0039450D01*
X0127501Y0039089D01*
X0127501Y0038368D01*
X0127141Y0038007D01*
X0126780Y0038007D01*
X0126419Y0038368D01*
X0126419Y0039089D01*
X0126780Y0039450D01*
X0126419Y0040183D02*
X0126419Y0041265D01*
X0126780Y0041625D01*
X0128223Y0041625D01*
X0128583Y0041265D01*
X0128583Y0040183D01*
X0126419Y0040183D01*
X0127141Y0042358D02*
X0126419Y0043079D01*
X0127141Y0043800D01*
X0128583Y0043800D01*
X0127501Y0043800D02*
X0127501Y0042358D01*
X0127141Y0042358D02*
X0128583Y0042358D01*
X0128223Y0048244D02*
X0126780Y0048244D01*
X0126419Y0048604D01*
X0126419Y0049326D01*
X0126780Y0049686D01*
X0127501Y0049686D02*
X0127501Y0048965D01*
X0127501Y0049686D02*
X0128223Y0049686D01*
X0128583Y0049326D01*
X0128583Y0048604D01*
X0128223Y0048244D01*
X0128583Y0050419D02*
X0126419Y0050419D01*
X0128583Y0051861D01*
X0126419Y0051861D01*
X0126419Y0052594D02*
X0126419Y0053676D01*
X0126780Y0054037D01*
X0128223Y0054037D01*
X0128583Y0053676D01*
X0128583Y0052594D01*
X0126419Y0052594D01*
X0126780Y0061329D02*
X0127141Y0061329D01*
X0127501Y0061690D01*
X0127501Y0062411D01*
X0127862Y0062772D01*
X0128223Y0062772D01*
X0128583Y0062411D01*
X0128583Y0061690D01*
X0128223Y0061329D01*
X0126780Y0061329D02*
X0126419Y0061690D01*
X0126419Y0062411D01*
X0126780Y0062772D01*
X0126780Y0063504D02*
X0128223Y0063504D01*
X0128583Y0063865D01*
X0128583Y0064586D01*
X0128223Y0064947D01*
X0128583Y0065680D02*
X0128583Y0067122D01*
X0128583Y0067855D02*
X0126419Y0067855D01*
X0127501Y0068215D02*
X0128583Y0069297D01*
X0127862Y0067855D02*
X0126419Y0069297D01*
X0126419Y0071534D02*
X0127141Y0072256D01*
X0126419Y0072977D01*
X0128583Y0072977D01*
X0128223Y0073709D02*
X0128583Y0074070D01*
X0128583Y0074791D01*
X0128223Y0075152D01*
X0126780Y0075152D01*
X0126419Y0074791D01*
X0126419Y0074070D01*
X0126780Y0073709D01*
X0128223Y0073709D01*
X0128223Y0075885D02*
X0128583Y0076245D01*
X0128583Y0076967D01*
X0128223Y0077327D01*
X0127862Y0077327D01*
X0127501Y0076967D01*
X0127501Y0076245D01*
X0127141Y0075885D01*
X0126780Y0075885D01*
X0126419Y0076245D01*
X0126419Y0076967D01*
X0126780Y0077327D01*
X0126419Y0078060D02*
X0126419Y0078781D01*
X0126419Y0078420D02*
X0128583Y0078420D01*
X0128583Y0078060D02*
X0128583Y0078781D01*
X0130356Y0079070D02*
X0132914Y0079070D01*
X0132914Y0080755D02*
X0130356Y0080755D01*
X0130356Y0082461D01*
X0130356Y0083293D02*
X0130356Y0084998D01*
X0130356Y0084145D02*
X0132914Y0084145D01*
X0131635Y0081608D02*
X0131635Y0080755D01*
X0130356Y0079923D02*
X0130356Y0078218D01*
X0128223Y0082102D02*
X0128583Y0082463D01*
X0128583Y0083184D01*
X0128223Y0083545D01*
X0128944Y0084277D02*
X0128944Y0085720D01*
X0128223Y0086452D02*
X0128583Y0086813D01*
X0128583Y0087534D01*
X0128223Y0087895D01*
X0127862Y0087895D01*
X0127501Y0087534D01*
X0127501Y0086813D01*
X0127141Y0086452D01*
X0126780Y0086452D01*
X0126419Y0086813D01*
X0126419Y0087534D01*
X0126780Y0087895D01*
X0126780Y0083545D02*
X0126419Y0083184D01*
X0126419Y0082463D01*
X0126780Y0082102D01*
X0128223Y0082102D01*
X0130356Y0088368D02*
X0131209Y0089221D01*
X0130356Y0090073D01*
X0132914Y0090073D01*
X0132488Y0090906D02*
X0132914Y0091332D01*
X0132914Y0092185D01*
X0132488Y0092611D01*
X0131635Y0092611D01*
X0131209Y0092185D01*
X0131209Y0091332D01*
X0131635Y0090906D01*
X0132488Y0090906D01*
X0132488Y0093443D02*
X0131635Y0093443D01*
X0131209Y0093870D01*
X0131209Y0095149D01*
X0131209Y0095981D02*
X0132488Y0095981D01*
X0132914Y0096407D01*
X0132914Y0097686D01*
X0131209Y0097686D01*
X0130356Y0098518D02*
X0130356Y0098945D01*
X0132914Y0098945D01*
X0132914Y0099371D02*
X0132914Y0098518D01*
X0132488Y0100210D02*
X0131635Y0100210D01*
X0131209Y0100636D01*
X0131209Y0101489D01*
X0131635Y0101916D01*
X0132061Y0101916D01*
X0132061Y0100210D01*
X0132488Y0100210D02*
X0132914Y0100636D01*
X0132914Y0101489D01*
X0128583Y0102181D02*
X0128583Y0103263D01*
X0128223Y0103623D01*
X0126780Y0103623D01*
X0126419Y0103263D01*
X0126419Y0102181D01*
X0128583Y0102181D01*
X0128944Y0104356D02*
X0128944Y0105798D01*
X0128223Y0106531D02*
X0128583Y0106892D01*
X0128583Y0107613D01*
X0128223Y0107974D01*
X0126780Y0107974D02*
X0126419Y0107613D01*
X0126419Y0106892D01*
X0126780Y0106531D01*
X0128223Y0106531D01*
X0128583Y0112023D02*
X0126419Y0112023D01*
X0126419Y0114198D02*
X0128583Y0114198D01*
X0128583Y0115641D01*
X0128583Y0116373D02*
X0128583Y0117455D01*
X0128223Y0117816D01*
X0126780Y0117816D01*
X0126419Y0117455D01*
X0126419Y0116373D01*
X0128583Y0116373D01*
X0127501Y0114920D02*
X0127501Y0114198D01*
X0126419Y0114198D02*
X0126419Y0115641D01*
X0128583Y0113466D02*
X0128583Y0112023D01*
X0130356Y0123412D02*
X0130356Y0125118D01*
X0131209Y0125950D02*
X0132488Y0125950D01*
X0132914Y0126376D01*
X0132914Y0127655D01*
X0131209Y0127655D01*
X0130356Y0128488D02*
X0130356Y0128914D01*
X0132914Y0128914D01*
X0132914Y0128488D02*
X0132914Y0129340D01*
X0132914Y0130179D02*
X0132914Y0131032D01*
X0132914Y0130606D02*
X0130356Y0130606D01*
X0130356Y0130179D01*
X0128583Y0129820D02*
X0128583Y0130541D01*
X0128223Y0130902D01*
X0126419Y0130902D01*
X0126419Y0131634D02*
X0128583Y0131634D01*
X0128583Y0133077D01*
X0127501Y0132355D02*
X0127501Y0131634D01*
X0126419Y0131634D02*
X0126419Y0133077D01*
X0126780Y0136433D02*
X0128223Y0136433D01*
X0128583Y0136793D01*
X0128583Y0137515D01*
X0128223Y0137875D01*
X0127501Y0137875D01*
X0127501Y0137154D01*
X0126780Y0136433D02*
X0126419Y0136793D01*
X0126419Y0137515D01*
X0126780Y0137875D01*
X0126419Y0138608D02*
X0126419Y0139690D01*
X0126780Y0140050D01*
X0127501Y0140050D01*
X0127862Y0139690D01*
X0127862Y0138608D01*
X0127862Y0139329D02*
X0128583Y0140050D01*
X0128583Y0140783D02*
X0126419Y0140783D01*
X0128583Y0142226D01*
X0126419Y0142226D01*
X0126419Y0138608D02*
X0128583Y0138608D01*
X0130356Y0139484D02*
X0130356Y0139910D01*
X0132914Y0139910D01*
X0132914Y0139484D02*
X0132914Y0140336D01*
X0132488Y0141176D02*
X0132914Y0141602D01*
X0132914Y0142455D01*
X0132488Y0142881D01*
X0131635Y0142881D01*
X0131209Y0142455D01*
X0131209Y0141602D01*
X0131635Y0141176D01*
X0132488Y0141176D01*
X0132488Y0138652D02*
X0131635Y0138652D01*
X0131209Y0138225D01*
X0131209Y0137373D01*
X0131635Y0136946D01*
X0132488Y0136946D01*
X0132914Y0137373D01*
X0132914Y0138225D01*
X0132488Y0138652D01*
X0132488Y0136114D02*
X0132914Y0135688D01*
X0132914Y0134835D01*
X0132488Y0134409D01*
X0130782Y0134409D01*
X0130356Y0134835D01*
X0130356Y0135688D01*
X0130782Y0136114D01*
X0128583Y0129820D02*
X0128223Y0129459D01*
X0126419Y0129459D01*
X0126419Y0127284D02*
X0128583Y0127284D01*
X0128583Y0128727D01*
X0128223Y0126552D02*
X0128583Y0126191D01*
X0128583Y0125109D01*
X0126419Y0125109D01*
X0126419Y0126191D01*
X0126780Y0126552D01*
X0127141Y0126552D01*
X0127501Y0126191D01*
X0127501Y0125109D01*
X0127501Y0126191D02*
X0127862Y0126552D01*
X0128223Y0126552D01*
X0130356Y0123412D02*
X0132914Y0123412D01*
X0131635Y0123412D02*
X0131635Y0124265D01*
X0131209Y0143713D02*
X0132914Y0143713D01*
X0132061Y0143713D02*
X0131209Y0144566D01*
X0131209Y0144992D01*
X0128583Y0146275D02*
X0126419Y0146275D01*
X0126419Y0147357D01*
X0126780Y0147718D01*
X0127501Y0147718D01*
X0127862Y0147357D01*
X0127862Y0146275D01*
X0127862Y0146997D02*
X0128583Y0147718D01*
X0128583Y0148450D02*
X0128583Y0149893D01*
X0128583Y0150625D02*
X0128583Y0151707D01*
X0128223Y0152068D01*
X0126780Y0152068D01*
X0126419Y0151707D01*
X0126419Y0150625D01*
X0128583Y0150625D01*
X0130356Y0150903D02*
X0130356Y0152608D01*
X0130356Y0153441D02*
X0130356Y0154720D01*
X0130782Y0155146D01*
X0132488Y0155146D01*
X0132914Y0154720D01*
X0132914Y0153441D01*
X0130356Y0153441D01*
X0131635Y0151756D02*
X0131635Y0150903D01*
X0130356Y0150903D02*
X0132914Y0150903D01*
X0132914Y0152608D01*
X0132914Y0150071D02*
X0132914Y0148365D01*
X0130356Y0148365D01*
X0128583Y0148450D02*
X0126419Y0148450D01*
X0126419Y0149893D01*
X0127501Y0149172D02*
X0127501Y0148450D01*
X0126419Y0098131D02*
X0126419Y0096688D01*
X0126419Y0097410D02*
X0128583Y0097410D01*
X0128223Y0095956D02*
X0128583Y0095595D01*
X0128583Y0094874D01*
X0128223Y0094513D01*
X0127501Y0094874D02*
X0127501Y0095595D01*
X0127862Y0095956D01*
X0128223Y0095956D01*
X0127501Y0094874D02*
X0127141Y0094513D01*
X0126780Y0094513D01*
X0126419Y0094874D01*
X0126419Y0095595D01*
X0126780Y0095956D01*
X0126780Y0093781D02*
X0127501Y0093781D01*
X0127862Y0093420D01*
X0127862Y0092338D01*
X0128583Y0092338D02*
X0126419Y0092338D01*
X0126419Y0093420D01*
X0126780Y0093781D01*
X0127862Y0093060D02*
X0128583Y0093781D01*
X0130356Y0095149D02*
X0132914Y0095149D01*
X0132914Y0093870D01*
X0132488Y0093443D01*
X0132914Y0088368D02*
X0130356Y0088368D01*
X0128583Y0071534D02*
X0126419Y0071534D01*
X0126419Y0065680D02*
X0128583Y0065680D01*
X0126780Y0064947D02*
X0126419Y0064586D01*
X0126419Y0063865D01*
X0126780Y0063504D01*
X0115078Y0058821D02*
X0115078Y0058461D01*
X0114718Y0058100D01*
X0113996Y0058100D01*
X0113636Y0058461D01*
X0113636Y0058821D01*
X0113996Y0059182D01*
X0114718Y0059182D01*
X0115078Y0058821D01*
X0114718Y0058100D02*
X0115078Y0057739D01*
X0115078Y0057379D01*
X0114718Y0057018D01*
X0113996Y0057018D01*
X0113636Y0057379D01*
X0113636Y0057739D01*
X0113996Y0058100D01*
X0112903Y0058100D02*
X0112543Y0057739D01*
X0111461Y0057739D01*
X0111461Y0057018D02*
X0111461Y0059182D01*
X0112543Y0059182D01*
X0112903Y0058821D01*
X0112903Y0058100D01*
X0112182Y0057739D02*
X0112903Y0057018D01*
X0112543Y0051308D02*
X0111821Y0051308D01*
X0111461Y0050947D01*
X0111461Y0049505D01*
X0111821Y0049144D01*
X0112543Y0049144D01*
X0112903Y0049505D01*
X0113636Y0049144D02*
X0115078Y0049144D01*
X0114357Y0049144D02*
X0114357Y0051308D01*
X0113636Y0050587D01*
X0112903Y0050947D02*
X0112543Y0051308D01*
X0112543Y0046190D02*
X0111461Y0046190D01*
X0111461Y0044026D01*
X0111461Y0044747D02*
X0112543Y0044747D01*
X0112903Y0045108D01*
X0112903Y0045829D01*
X0112543Y0046190D01*
X0113636Y0045829D02*
X0113636Y0045469D01*
X0113996Y0045108D01*
X0115078Y0045108D01*
X0115078Y0044387D02*
X0115078Y0045829D01*
X0114718Y0046190D01*
X0113996Y0046190D01*
X0113636Y0045829D01*
X0113636Y0044387D02*
X0113996Y0044026D01*
X0114718Y0044026D01*
X0115078Y0044387D01*
X0112903Y0044026D02*
X0112182Y0044747D01*
X0045906Y0113711D02*
X0045906Y0114793D01*
X0045546Y0115154D01*
X0044103Y0115154D01*
X0043742Y0114793D01*
X0043742Y0113711D01*
X0045906Y0113711D01*
X0045906Y0115886D02*
X0045906Y0117329D01*
X0045906Y0116607D02*
X0043742Y0116607D01*
X0044464Y0115886D01*
D12*
X0052305Y0112036D03*
X0091676Y0059477D03*
X0057817Y0023060D03*
X0098762Y0017548D03*
D13*
X0086361Y0024241D02*
X0086361Y0025422D01*
X0086361Y0024241D02*
X0069431Y0024241D01*
X0069431Y0025422D01*
X0062739Y0032509D02*
X0062739Y0035658D01*
X0064904Y0035658D01*
X0064904Y0039989D01*
X0068644Y0039989D01*
X0068644Y0039202D01*
X0069235Y0046682D02*
X0069235Y0052981D01*
X0060573Y0052981D01*
X0060573Y0046682D01*
X0069235Y0046682D01*
X0087148Y0039989D02*
X0087148Y0039202D01*
X0087148Y0039989D02*
X0090888Y0039989D01*
X0090888Y0035658D01*
X0093054Y0035658D01*
X0093054Y0032509D01*
X0090683Y0115690D02*
X0097683Y0115690D01*
X0103683Y0121690D01*
X0103684Y0145690D02*
X0103457Y0146013D01*
X0103222Y0146330D01*
X0102980Y0146642D01*
X0102730Y0146947D01*
X0102473Y0147247D01*
X0102209Y0147540D01*
X0101937Y0147827D01*
X0101659Y0148107D01*
X0101374Y0148380D01*
X0101083Y0148646D01*
X0100785Y0148905D01*
X0100481Y0149156D01*
X0100171Y0149401D01*
X0099855Y0149637D01*
X0099533Y0149866D01*
X0099206Y0150087D01*
X0098874Y0150300D01*
X0098537Y0150505D01*
X0098194Y0150702D01*
X0097848Y0150890D01*
X0097496Y0151070D01*
X0097141Y0151241D01*
X0096781Y0151404D01*
X0096418Y0151557D01*
X0096050Y0151702D01*
X0095680Y0151838D01*
X0095306Y0151965D01*
X0094929Y0152083D01*
X0094550Y0152192D01*
X0094168Y0152291D01*
X0093784Y0152381D01*
X0093397Y0152462D01*
X0093009Y0152533D01*
X0092620Y0152595D01*
X0092228Y0152648D01*
X0091836Y0152691D01*
X0091443Y0152724D01*
X0091049Y0152748D01*
X0090654Y0152762D01*
X0090260Y0152767D01*
X0089865Y0152762D01*
X0089471Y0152748D01*
X0089077Y0152724D01*
X0088683Y0152690D01*
X0068684Y0152690D02*
X0068290Y0152724D01*
X0067896Y0152748D01*
X0067502Y0152762D01*
X0067107Y0152767D01*
X0066713Y0152762D01*
X0066318Y0152748D01*
X0065924Y0152724D01*
X0065531Y0152691D01*
X0065139Y0152648D01*
X0064747Y0152595D01*
X0064358Y0152533D01*
X0063970Y0152462D01*
X0063583Y0152381D01*
X0063199Y0152291D01*
X0062817Y0152192D01*
X0062438Y0152083D01*
X0062061Y0151965D01*
X0061687Y0151838D01*
X0061317Y0151702D01*
X0060949Y0151557D01*
X0060586Y0151404D01*
X0060226Y0151241D01*
X0059871Y0151070D01*
X0059519Y0150890D01*
X0059173Y0150702D01*
X0058830Y0150505D01*
X0058493Y0150300D01*
X0058161Y0150087D01*
X0057834Y0149866D01*
X0057512Y0149637D01*
X0057196Y0149401D01*
X0056886Y0149156D01*
X0056582Y0148905D01*
X0056284Y0148646D01*
X0055993Y0148380D01*
X0055708Y0148107D01*
X0055430Y0147827D01*
X0055158Y0147540D01*
X0054894Y0147247D01*
X0054637Y0146947D01*
X0054387Y0146642D01*
X0054145Y0146330D01*
X0053910Y0146013D01*
X0053683Y0145690D01*
X0053683Y0121690D02*
X0059683Y0115690D01*
X0066683Y0115690D01*
D14*
X0069398Y0096459D02*
X0068989Y0096049D01*
X0068989Y0095230D01*
X0069398Y0094820D01*
X0069398Y0096459D02*
X0069808Y0096459D01*
X0071447Y0094820D01*
X0071447Y0096459D01*
X0071447Y0093922D02*
X0071447Y0092283D01*
X0071447Y0093102D02*
X0068989Y0093102D01*
X0069808Y0092283D01*
X0069398Y0091384D02*
X0070218Y0091384D01*
X0070627Y0090974D01*
X0070627Y0089745D01*
X0070627Y0090565D02*
X0071447Y0091384D01*
X0071447Y0089745D02*
X0068989Y0089745D01*
X0068989Y0090974D01*
X0069398Y0091384D01*
X0057667Y0091384D02*
X0056848Y0090565D01*
X0056848Y0090974D02*
X0056848Y0089745D01*
X0057667Y0089745D02*
X0055209Y0089745D01*
X0055209Y0090974D01*
X0055619Y0091384D01*
X0056438Y0091384D01*
X0056848Y0090974D01*
X0057667Y0092283D02*
X0057667Y0093922D01*
X0057667Y0093102D02*
X0055209Y0093102D01*
X0056029Y0092283D01*
X0055619Y0094820D02*
X0055209Y0095230D01*
X0055209Y0096049D01*
X0055619Y0096459D01*
X0057258Y0094820D01*
X0057667Y0095230D01*
X0057667Y0096049D01*
X0057258Y0096459D01*
X0055619Y0096459D01*
X0055619Y0094820D02*
X0057258Y0094820D01*
X0043888Y0094820D02*
X0043888Y0096459D01*
X0043888Y0095640D02*
X0041430Y0095640D01*
X0042249Y0094820D01*
X0041430Y0093102D02*
X0043888Y0093102D01*
X0043888Y0092283D02*
X0043888Y0093922D01*
X0042249Y0092283D02*
X0041430Y0093102D01*
X0041839Y0091384D02*
X0042659Y0091384D01*
X0043068Y0090974D01*
X0043068Y0089745D01*
X0043068Y0090565D02*
X0043888Y0091384D01*
X0043888Y0089745D02*
X0041430Y0089745D01*
X0041430Y0090974D01*
X0041839Y0091384D01*
X0082768Y0090974D02*
X0082768Y0089745D01*
X0085226Y0089745D01*
X0084407Y0089745D02*
X0084407Y0090974D01*
X0083997Y0091384D01*
X0083178Y0091384D01*
X0082768Y0090974D01*
X0083588Y0092283D02*
X0082768Y0093102D01*
X0085226Y0093102D01*
X0085226Y0092283D02*
X0085226Y0093922D01*
X0084817Y0094820D02*
X0085226Y0095230D01*
X0085226Y0096049D01*
X0084817Y0096459D01*
X0084407Y0096459D01*
X0083997Y0096049D01*
X0083997Y0095640D01*
X0083997Y0096049D02*
X0083588Y0096459D01*
X0083178Y0096459D01*
X0082768Y0096049D01*
X0082768Y0095230D01*
X0083178Y0094820D01*
X0085226Y0091384D02*
X0084407Y0090565D01*
X0096548Y0090974D02*
X0096548Y0089745D01*
X0099006Y0089745D01*
X0098187Y0089745D02*
X0098187Y0090974D01*
X0097777Y0091384D01*
X0096958Y0091384D01*
X0096548Y0090974D01*
X0097367Y0092283D02*
X0096548Y0093102D01*
X0099006Y0093102D01*
X0099006Y0092283D02*
X0099006Y0093922D01*
X0097777Y0094820D02*
X0097777Y0096459D01*
X0099006Y0096049D02*
X0096548Y0096049D01*
X0097777Y0094820D01*
X0099006Y0091384D02*
X0098187Y0090565D01*
X0055431Y0150021D02*
X0053267Y0150021D01*
X0054349Y0150021D02*
X0054349Y0153267D01*
X0053267Y0152185D01*
X0052168Y0153267D02*
X0050004Y0153267D01*
X0051086Y0153267D02*
X0051086Y0150021D01*
X0048906Y0150021D02*
X0048906Y0152185D01*
X0047824Y0153267D01*
X0046742Y0152185D01*
X0046742Y0150021D01*
X0045643Y0150562D02*
X0045643Y0151103D01*
X0045102Y0151644D01*
X0043479Y0151644D01*
X0043479Y0150021D02*
X0043479Y0153267D01*
X0045102Y0153267D01*
X0045643Y0152726D01*
X0045643Y0152185D01*
X0045102Y0151644D01*
X0045643Y0150562D02*
X0045102Y0150021D01*
X0043479Y0150021D01*
X0046742Y0151644D02*
X0048906Y0151644D01*
X0072895Y0020551D02*
X0072289Y0019944D01*
X0072289Y0017517D01*
X0072895Y0016911D01*
X0074109Y0016911D01*
X0074715Y0017517D01*
X0075914Y0016911D02*
X0075914Y0020551D01*
X0078341Y0016911D01*
X0078341Y0020551D01*
X0079539Y0019337D02*
X0080752Y0020551D01*
X0080752Y0016911D01*
X0079539Y0016911D02*
X0081966Y0016911D01*
X0074715Y0019944D02*
X0074109Y0020551D01*
X0072895Y0020551D01*
D15*
X0116459Y0015259D02*
X0116459Y0013190D01*
X0116976Y0012673D01*
X0118011Y0012673D01*
X0118528Y0013190D01*
X0119682Y0012673D02*
X0119682Y0015776D01*
X0121750Y0012673D01*
X0121750Y0015776D01*
X0122905Y0014225D02*
X0124973Y0014225D01*
X0124456Y0015776D02*
X0124456Y0012673D01*
X0122905Y0014225D02*
X0124456Y0015776D01*
X0118528Y0015259D02*
X0118011Y0015776D01*
X0116976Y0015776D01*
X0116459Y0015259D01*
X0113786Y0090976D02*
X0111689Y0090976D01*
X0111164Y0091501D01*
X0111164Y0092549D01*
X0111689Y0093074D01*
X0111164Y0094239D02*
X0114310Y0096336D01*
X0111164Y0096336D01*
X0111689Y0097502D02*
X0111164Y0098026D01*
X0111164Y0099075D01*
X0111689Y0099599D01*
X0112213Y0099599D01*
X0114310Y0097502D01*
X0114310Y0099599D01*
X0114310Y0094239D02*
X0111164Y0094239D01*
X0113786Y0093074D02*
X0114310Y0092549D01*
X0114310Y0091501D01*
X0113786Y0090976D01*
X0113547Y0149638D02*
X0113022Y0150162D01*
X0113547Y0149638D02*
X0114595Y0149638D01*
X0115120Y0150162D01*
X0115120Y0150686D01*
X0114595Y0151211D01*
X0114071Y0151211D01*
X0114595Y0151211D02*
X0115120Y0151735D01*
X0115120Y0152259D01*
X0114595Y0152784D01*
X0113547Y0152784D01*
X0113022Y0152259D01*
X0111857Y0152784D02*
X0111857Y0149638D01*
X0109760Y0152784D01*
X0109760Y0149638D01*
X0108594Y0150162D02*
X0108070Y0149638D01*
X0107021Y0149638D01*
X0106497Y0150162D01*
X0106497Y0152259D01*
X0107021Y0152784D01*
X0108070Y0152784D01*
X0108594Y0152259D01*
D16*
X0107380Y0099139D02*
X0107380Y0098139D01*
X0106880Y0097639D01*
X0106880Y0088639D01*
X0107380Y0088139D01*
X0107380Y0087139D01*
X0107378Y0087079D01*
X0107373Y0087018D01*
X0107364Y0086959D01*
X0107351Y0086900D01*
X0107335Y0086841D01*
X0107315Y0086784D01*
X0107292Y0086729D01*
X0107265Y0086674D01*
X0107236Y0086622D01*
X0107203Y0086571D01*
X0107167Y0086522D01*
X0107129Y0086476D01*
X0107087Y0086432D01*
X0107043Y0086390D01*
X0106997Y0086352D01*
X0106948Y0086316D01*
X0106897Y0086283D01*
X0106845Y0086254D01*
X0106790Y0086227D01*
X0106735Y0086204D01*
X0106678Y0086184D01*
X0106619Y0086168D01*
X0106560Y0086155D01*
X0106501Y0086146D01*
X0106440Y0086141D01*
X0106380Y0086139D01*
X0101380Y0086139D02*
X0101320Y0086141D01*
X0101259Y0086146D01*
X0101200Y0086155D01*
X0101141Y0086168D01*
X0101082Y0086184D01*
X0101025Y0086204D01*
X0100970Y0086227D01*
X0100915Y0086254D01*
X0100863Y0086283D01*
X0100812Y0086316D01*
X0100763Y0086352D01*
X0100717Y0086390D01*
X0100673Y0086432D01*
X0100631Y0086476D01*
X0100593Y0086522D01*
X0100557Y0086571D01*
X0100524Y0086622D01*
X0100495Y0086674D01*
X0100468Y0086729D01*
X0100445Y0086784D01*
X0100425Y0086841D01*
X0100409Y0086900D01*
X0100396Y0086959D01*
X0100387Y0087018D01*
X0100382Y0087079D01*
X0100380Y0087139D01*
X0100380Y0088139D01*
X0100880Y0088639D01*
X0100880Y0097639D01*
X0100380Y0098139D01*
X0100380Y0099139D01*
X0100382Y0099199D01*
X0100387Y0099260D01*
X0100396Y0099319D01*
X0100409Y0099378D01*
X0100425Y0099437D01*
X0100445Y0099494D01*
X0100468Y0099549D01*
X0100495Y0099604D01*
X0100524Y0099656D01*
X0100557Y0099707D01*
X0100593Y0099756D01*
X0100631Y0099802D01*
X0100673Y0099846D01*
X0100717Y0099888D01*
X0100763Y0099926D01*
X0100812Y0099962D01*
X0100863Y0099995D01*
X0100915Y0100024D01*
X0100970Y0100051D01*
X0101025Y0100074D01*
X0101082Y0100094D01*
X0101141Y0100110D01*
X0101200Y0100123D01*
X0101259Y0100132D01*
X0101320Y0100137D01*
X0101380Y0100139D01*
X0106380Y0100139D02*
X0106440Y0100137D01*
X0106501Y0100132D01*
X0106560Y0100123D01*
X0106619Y0100110D01*
X0106678Y0100094D01*
X0106735Y0100074D01*
X0106790Y0100051D01*
X0106845Y0100024D01*
X0106897Y0099995D01*
X0106948Y0099962D01*
X0106997Y0099926D01*
X0107043Y0099888D01*
X0107087Y0099846D01*
X0107129Y0099802D01*
X0107167Y0099756D01*
X0107203Y0099707D01*
X0107236Y0099656D01*
X0107265Y0099604D01*
X0107292Y0099549D01*
X0107315Y0099494D01*
X0107335Y0099437D01*
X0107351Y0099378D01*
X0107364Y0099319D01*
X0107373Y0099260D01*
X0107378Y0099199D01*
X0107380Y0099139D01*
X0093601Y0099139D02*
X0093601Y0098139D01*
X0093101Y0097639D01*
X0093101Y0088639D01*
X0093601Y0088139D01*
X0093601Y0087139D01*
X0093599Y0087079D01*
X0093594Y0087018D01*
X0093585Y0086959D01*
X0093572Y0086900D01*
X0093556Y0086841D01*
X0093536Y0086784D01*
X0093513Y0086729D01*
X0093486Y0086674D01*
X0093457Y0086622D01*
X0093424Y0086571D01*
X0093388Y0086522D01*
X0093350Y0086476D01*
X0093308Y0086432D01*
X0093264Y0086390D01*
X0093218Y0086352D01*
X0093169Y0086316D01*
X0093118Y0086283D01*
X0093066Y0086254D01*
X0093011Y0086227D01*
X0092956Y0086204D01*
X0092899Y0086184D01*
X0092840Y0086168D01*
X0092781Y0086155D01*
X0092722Y0086146D01*
X0092661Y0086141D01*
X0092601Y0086139D01*
X0087601Y0086139D02*
X0087541Y0086141D01*
X0087480Y0086146D01*
X0087421Y0086155D01*
X0087362Y0086168D01*
X0087303Y0086184D01*
X0087246Y0086204D01*
X0087191Y0086227D01*
X0087136Y0086254D01*
X0087084Y0086283D01*
X0087033Y0086316D01*
X0086984Y0086352D01*
X0086938Y0086390D01*
X0086894Y0086432D01*
X0086852Y0086476D01*
X0086814Y0086522D01*
X0086778Y0086571D01*
X0086745Y0086622D01*
X0086716Y0086674D01*
X0086689Y0086729D01*
X0086666Y0086784D01*
X0086646Y0086841D01*
X0086630Y0086900D01*
X0086617Y0086959D01*
X0086608Y0087018D01*
X0086603Y0087079D01*
X0086601Y0087139D01*
X0086601Y0088139D01*
X0087101Y0088639D01*
X0087101Y0097639D01*
X0086601Y0098139D01*
X0086601Y0099139D01*
X0086603Y0099199D01*
X0086608Y0099260D01*
X0086617Y0099319D01*
X0086630Y0099378D01*
X0086646Y0099437D01*
X0086666Y0099494D01*
X0086689Y0099549D01*
X0086716Y0099604D01*
X0086745Y0099656D01*
X0086778Y0099707D01*
X0086814Y0099756D01*
X0086852Y0099802D01*
X0086894Y0099846D01*
X0086938Y0099888D01*
X0086984Y0099926D01*
X0087033Y0099962D01*
X0087084Y0099995D01*
X0087136Y0100024D01*
X0087191Y0100051D01*
X0087246Y0100074D01*
X0087303Y0100094D01*
X0087362Y0100110D01*
X0087421Y0100123D01*
X0087480Y0100132D01*
X0087541Y0100137D01*
X0087601Y0100139D01*
X0092601Y0100139D02*
X0092661Y0100137D01*
X0092722Y0100132D01*
X0092781Y0100123D01*
X0092840Y0100110D01*
X0092899Y0100094D01*
X0092956Y0100074D01*
X0093011Y0100051D01*
X0093066Y0100024D01*
X0093118Y0099995D01*
X0093169Y0099962D01*
X0093218Y0099926D01*
X0093264Y0099888D01*
X0093308Y0099846D01*
X0093350Y0099802D01*
X0093388Y0099756D01*
X0093424Y0099707D01*
X0093457Y0099656D01*
X0093486Y0099604D01*
X0093513Y0099549D01*
X0093536Y0099494D01*
X0093556Y0099437D01*
X0093572Y0099378D01*
X0093585Y0099319D01*
X0093594Y0099260D01*
X0093599Y0099199D01*
X0093601Y0099139D01*
X0079821Y0099139D02*
X0079821Y0098139D01*
X0079321Y0097639D01*
X0079321Y0088639D01*
X0079821Y0088139D01*
X0079821Y0087139D01*
X0079819Y0087079D01*
X0079814Y0087018D01*
X0079805Y0086959D01*
X0079792Y0086900D01*
X0079776Y0086841D01*
X0079756Y0086784D01*
X0079733Y0086729D01*
X0079706Y0086674D01*
X0079677Y0086622D01*
X0079644Y0086571D01*
X0079608Y0086522D01*
X0079570Y0086476D01*
X0079528Y0086432D01*
X0079484Y0086390D01*
X0079438Y0086352D01*
X0079389Y0086316D01*
X0079338Y0086283D01*
X0079286Y0086254D01*
X0079231Y0086227D01*
X0079176Y0086204D01*
X0079119Y0086184D01*
X0079060Y0086168D01*
X0079001Y0086155D01*
X0078942Y0086146D01*
X0078881Y0086141D01*
X0078821Y0086139D01*
X0073821Y0086139D02*
X0073761Y0086141D01*
X0073700Y0086146D01*
X0073641Y0086155D01*
X0073582Y0086168D01*
X0073523Y0086184D01*
X0073466Y0086204D01*
X0073411Y0086227D01*
X0073356Y0086254D01*
X0073304Y0086283D01*
X0073253Y0086316D01*
X0073204Y0086352D01*
X0073158Y0086390D01*
X0073114Y0086432D01*
X0073072Y0086476D01*
X0073034Y0086522D01*
X0072998Y0086571D01*
X0072965Y0086622D01*
X0072936Y0086674D01*
X0072909Y0086729D01*
X0072886Y0086784D01*
X0072866Y0086841D01*
X0072850Y0086900D01*
X0072837Y0086959D01*
X0072828Y0087018D01*
X0072823Y0087079D01*
X0072821Y0087139D01*
X0072821Y0088139D01*
X0073321Y0088639D01*
X0073321Y0097639D01*
X0072821Y0098139D01*
X0072821Y0099139D01*
X0072823Y0099199D01*
X0072828Y0099260D01*
X0072837Y0099319D01*
X0072850Y0099378D01*
X0072866Y0099437D01*
X0072886Y0099494D01*
X0072909Y0099549D01*
X0072936Y0099604D01*
X0072965Y0099656D01*
X0072998Y0099707D01*
X0073034Y0099756D01*
X0073072Y0099802D01*
X0073114Y0099846D01*
X0073158Y0099888D01*
X0073204Y0099926D01*
X0073253Y0099962D01*
X0073304Y0099995D01*
X0073356Y0100024D01*
X0073411Y0100051D01*
X0073466Y0100074D01*
X0073523Y0100094D01*
X0073582Y0100110D01*
X0073641Y0100123D01*
X0073700Y0100132D01*
X0073761Y0100137D01*
X0073821Y0100139D01*
X0078821Y0100139D02*
X0078881Y0100137D01*
X0078942Y0100132D01*
X0079001Y0100123D01*
X0079060Y0100110D01*
X0079119Y0100094D01*
X0079176Y0100074D01*
X0079231Y0100051D01*
X0079286Y0100024D01*
X0079338Y0099995D01*
X0079389Y0099962D01*
X0079438Y0099926D01*
X0079484Y0099888D01*
X0079528Y0099846D01*
X0079570Y0099802D01*
X0079608Y0099756D01*
X0079644Y0099707D01*
X0079677Y0099656D01*
X0079706Y0099604D01*
X0079733Y0099549D01*
X0079756Y0099494D01*
X0079776Y0099437D01*
X0079792Y0099378D01*
X0079805Y0099319D01*
X0079814Y0099260D01*
X0079819Y0099199D01*
X0079821Y0099139D01*
X0066042Y0099139D02*
X0066042Y0098139D01*
X0065542Y0097639D01*
X0065542Y0088639D01*
X0066042Y0088139D01*
X0066042Y0087139D01*
X0066040Y0087079D01*
X0066035Y0087018D01*
X0066026Y0086959D01*
X0066013Y0086900D01*
X0065997Y0086841D01*
X0065977Y0086784D01*
X0065954Y0086729D01*
X0065927Y0086674D01*
X0065898Y0086622D01*
X0065865Y0086571D01*
X0065829Y0086522D01*
X0065791Y0086476D01*
X0065749Y0086432D01*
X0065705Y0086390D01*
X0065659Y0086352D01*
X0065610Y0086316D01*
X0065559Y0086283D01*
X0065507Y0086254D01*
X0065452Y0086227D01*
X0065397Y0086204D01*
X0065340Y0086184D01*
X0065281Y0086168D01*
X0065222Y0086155D01*
X0065163Y0086146D01*
X0065102Y0086141D01*
X0065042Y0086139D01*
X0060042Y0086139D02*
X0059982Y0086141D01*
X0059921Y0086146D01*
X0059862Y0086155D01*
X0059803Y0086168D01*
X0059744Y0086184D01*
X0059687Y0086204D01*
X0059632Y0086227D01*
X0059577Y0086254D01*
X0059525Y0086283D01*
X0059474Y0086316D01*
X0059425Y0086352D01*
X0059379Y0086390D01*
X0059335Y0086432D01*
X0059293Y0086476D01*
X0059255Y0086522D01*
X0059219Y0086571D01*
X0059186Y0086622D01*
X0059157Y0086674D01*
X0059130Y0086729D01*
X0059107Y0086784D01*
X0059087Y0086841D01*
X0059071Y0086900D01*
X0059058Y0086959D01*
X0059049Y0087018D01*
X0059044Y0087079D01*
X0059042Y0087139D01*
X0059042Y0088139D01*
X0059542Y0088639D01*
X0059542Y0097639D01*
X0059042Y0098139D01*
X0059042Y0099139D01*
X0059044Y0099199D01*
X0059049Y0099260D01*
X0059058Y0099319D01*
X0059071Y0099378D01*
X0059087Y0099437D01*
X0059107Y0099494D01*
X0059130Y0099549D01*
X0059157Y0099604D01*
X0059186Y0099656D01*
X0059219Y0099707D01*
X0059255Y0099756D01*
X0059293Y0099802D01*
X0059335Y0099846D01*
X0059379Y0099888D01*
X0059425Y0099926D01*
X0059474Y0099962D01*
X0059525Y0099995D01*
X0059577Y0100024D01*
X0059632Y0100051D01*
X0059687Y0100074D01*
X0059744Y0100094D01*
X0059803Y0100110D01*
X0059862Y0100123D01*
X0059921Y0100132D01*
X0059982Y0100137D01*
X0060042Y0100139D01*
X0065042Y0100139D02*
X0065102Y0100137D01*
X0065163Y0100132D01*
X0065222Y0100123D01*
X0065281Y0100110D01*
X0065340Y0100094D01*
X0065397Y0100074D01*
X0065452Y0100051D01*
X0065507Y0100024D01*
X0065559Y0099995D01*
X0065610Y0099962D01*
X0065659Y0099926D01*
X0065705Y0099888D01*
X0065749Y0099846D01*
X0065791Y0099802D01*
X0065829Y0099756D01*
X0065865Y0099707D01*
X0065898Y0099656D01*
X0065927Y0099604D01*
X0065954Y0099549D01*
X0065977Y0099494D01*
X0065997Y0099437D01*
X0066013Y0099378D01*
X0066026Y0099319D01*
X0066035Y0099260D01*
X0066040Y0099199D01*
X0066042Y0099139D01*
X0052262Y0099139D02*
X0052262Y0098139D01*
X0051762Y0097639D01*
X0051762Y0088639D01*
X0052262Y0088139D01*
X0052262Y0087139D01*
X0052260Y0087079D01*
X0052255Y0087018D01*
X0052246Y0086959D01*
X0052233Y0086900D01*
X0052217Y0086841D01*
X0052197Y0086784D01*
X0052174Y0086729D01*
X0052147Y0086674D01*
X0052118Y0086622D01*
X0052085Y0086571D01*
X0052049Y0086522D01*
X0052011Y0086476D01*
X0051969Y0086432D01*
X0051925Y0086390D01*
X0051879Y0086352D01*
X0051830Y0086316D01*
X0051779Y0086283D01*
X0051727Y0086254D01*
X0051672Y0086227D01*
X0051617Y0086204D01*
X0051560Y0086184D01*
X0051501Y0086168D01*
X0051442Y0086155D01*
X0051383Y0086146D01*
X0051322Y0086141D01*
X0051262Y0086139D01*
X0046262Y0086139D02*
X0046202Y0086141D01*
X0046141Y0086146D01*
X0046082Y0086155D01*
X0046023Y0086168D01*
X0045964Y0086184D01*
X0045907Y0086204D01*
X0045852Y0086227D01*
X0045797Y0086254D01*
X0045745Y0086283D01*
X0045694Y0086316D01*
X0045645Y0086352D01*
X0045599Y0086390D01*
X0045555Y0086432D01*
X0045513Y0086476D01*
X0045475Y0086522D01*
X0045439Y0086571D01*
X0045406Y0086622D01*
X0045377Y0086674D01*
X0045350Y0086729D01*
X0045327Y0086784D01*
X0045307Y0086841D01*
X0045291Y0086900D01*
X0045278Y0086959D01*
X0045269Y0087018D01*
X0045264Y0087079D01*
X0045262Y0087139D01*
X0045262Y0088139D01*
X0045762Y0088639D01*
X0045762Y0097639D01*
X0045262Y0098139D01*
X0045262Y0099139D01*
X0045264Y0099199D01*
X0045269Y0099260D01*
X0045278Y0099319D01*
X0045291Y0099378D01*
X0045307Y0099437D01*
X0045327Y0099494D01*
X0045350Y0099549D01*
X0045377Y0099604D01*
X0045406Y0099656D01*
X0045439Y0099707D01*
X0045475Y0099756D01*
X0045513Y0099802D01*
X0045555Y0099846D01*
X0045599Y0099888D01*
X0045645Y0099926D01*
X0045694Y0099962D01*
X0045745Y0099995D01*
X0045797Y0100024D01*
X0045852Y0100051D01*
X0045907Y0100074D01*
X0045964Y0100094D01*
X0046023Y0100110D01*
X0046082Y0100123D01*
X0046141Y0100132D01*
X0046202Y0100137D01*
X0046262Y0100139D01*
X0051262Y0100139D02*
X0051322Y0100137D01*
X0051383Y0100132D01*
X0051442Y0100123D01*
X0051501Y0100110D01*
X0051560Y0100094D01*
X0051617Y0100074D01*
X0051672Y0100051D01*
X0051727Y0100024D01*
X0051779Y0099995D01*
X0051830Y0099962D01*
X0051879Y0099926D01*
X0051925Y0099888D01*
X0051969Y0099846D01*
X0052011Y0099802D01*
X0052049Y0099756D01*
X0052085Y0099707D01*
X0052118Y0099656D01*
X0052147Y0099604D01*
X0052174Y0099549D01*
X0052197Y0099494D01*
X0052217Y0099437D01*
X0052233Y0099378D01*
X0052246Y0099319D01*
X0052255Y0099260D01*
X0052260Y0099199D01*
X0052262Y0099139D01*
M02*
