G75*
%MOIN*%
%OFA0B0*%
%FSLAX25Y25*%
%IPPOS*%
%LPD*%
%AMOC8*
5,1,8,0,0,1.08239X$1,22.5*
%
%ADD10C,0.00000*%
%ADD11R,0.01102X0.03150*%
%ADD12R,0.05512X0.05906*%
%ADD13R,0.06500X0.06500*%
%ADD14C,0.06500*%
%ADD15R,0.01969X0.01378*%
%ADD16R,0.01181X0.01969*%
%ADD17C,0.00001*%
%ADD18C,0.40000*%
%ADD19R,0.10000X0.20000*%
%ADD20R,0.03150X0.02756*%
%ADD21R,0.03150X0.01969*%
%ADD22R,0.02756X0.03150*%
%ADD23R,0.03642X0.02756*%
%ADD24R,0.02756X0.01969*%
%ADD25R,0.01969X0.02756*%
%ADD26C,0.00800*%
%ADD27C,0.01600*%
%ADD28C,0.02381*%
D10*
X0038526Y0009674D02*
X0038526Y0127784D01*
X0136951Y0127784D01*
X0136951Y0009674D01*
X0038526Y0009674D01*
X0065573Y0048060D02*
X0067305Y0048060D01*
X0067305Y0049241D01*
X0068644Y0049241D01*
X0068644Y0050422D01*
X0067305Y0050422D01*
X0067305Y0051603D01*
X0065573Y0051603D01*
X0065573Y0048060D01*
D11*
X0071794Y0040383D03*
X0073762Y0040383D03*
X0075731Y0040383D03*
X0077699Y0040383D03*
X0079668Y0040383D03*
X0081636Y0040383D03*
X0083605Y0040383D03*
X0085573Y0040383D03*
D12*
X0091676Y0028375D03*
X0065691Y0028375D03*
D13*
X0121991Y0051013D03*
X0121991Y0115383D03*
D14*
X0121991Y0105383D03*
X0121991Y0095383D03*
X0121991Y0085383D03*
X0121991Y0075383D03*
X0121991Y0065383D03*
X0121991Y0041013D03*
X0121991Y0031013D03*
X0121991Y0021013D03*
D15*
X0063723Y0048552D03*
X0063723Y0051111D03*
D16*
X0066439Y0049831D03*
D17*
X0065573Y0049835D02*
X0068644Y0049835D01*
X0068644Y0049834D02*
X0065573Y0049834D01*
X0065573Y0049833D02*
X0068644Y0049833D01*
X0068644Y0049832D02*
X0065573Y0049832D01*
X0065573Y0049831D02*
X0068644Y0049831D01*
X0065573Y0049831D01*
X0065573Y0049830D02*
X0068644Y0049830D01*
X0068644Y0049829D02*
X0065573Y0049829D01*
X0065573Y0049828D02*
X0068644Y0049828D01*
X0068644Y0049827D02*
X0065573Y0049827D01*
X0065573Y0049826D02*
X0068644Y0049826D01*
X0068644Y0049825D02*
X0065573Y0049825D01*
X0065573Y0049824D02*
X0068644Y0049824D01*
X0068644Y0049823D02*
X0065573Y0049823D01*
X0065573Y0049822D02*
X0068644Y0049822D01*
X0068644Y0049821D02*
X0065573Y0049821D01*
X0065573Y0049820D02*
X0068644Y0049820D01*
X0068644Y0049819D02*
X0065573Y0049819D01*
X0065573Y0049818D02*
X0068644Y0049818D01*
X0068644Y0049817D02*
X0065573Y0049817D01*
X0065573Y0049816D02*
X0068644Y0049816D01*
X0068644Y0049815D02*
X0065573Y0049815D01*
X0065573Y0049814D02*
X0068644Y0049814D01*
X0068644Y0049813D02*
X0065573Y0049813D01*
X0065573Y0049812D02*
X0068644Y0049812D01*
X0068644Y0049811D02*
X0065573Y0049811D01*
X0065573Y0049810D02*
X0068644Y0049810D01*
X0068644Y0049809D02*
X0065573Y0049809D01*
X0065573Y0049808D02*
X0068644Y0049808D01*
X0068644Y0049807D02*
X0065573Y0049807D01*
X0065573Y0049806D02*
X0068644Y0049806D01*
X0068644Y0049805D02*
X0065573Y0049805D01*
X0065573Y0049804D02*
X0068644Y0049804D01*
X0068644Y0049803D02*
X0065573Y0049803D01*
X0065573Y0049802D02*
X0068644Y0049802D01*
X0068644Y0049801D02*
X0065573Y0049801D01*
X0065573Y0049800D02*
X0068644Y0049800D01*
X0068644Y0049799D02*
X0065573Y0049799D01*
X0065573Y0049798D02*
X0068644Y0049798D01*
X0068644Y0049797D02*
X0065573Y0049797D01*
X0065573Y0049796D02*
X0068644Y0049796D01*
X0068644Y0049795D02*
X0065573Y0049795D01*
X0065573Y0049794D02*
X0068644Y0049794D01*
X0068644Y0049793D02*
X0065573Y0049793D01*
X0065573Y0049792D02*
X0068644Y0049792D01*
X0068644Y0049791D02*
X0065573Y0049791D01*
X0065573Y0049790D02*
X0068644Y0049790D01*
X0068644Y0049789D02*
X0065573Y0049789D01*
X0065573Y0049788D02*
X0068644Y0049788D01*
X0068644Y0049787D02*
X0065573Y0049787D01*
X0065573Y0049786D02*
X0068644Y0049786D01*
X0068644Y0049785D02*
X0065573Y0049785D01*
X0065573Y0049784D02*
X0068644Y0049784D01*
X0068644Y0049783D02*
X0065573Y0049783D01*
X0065573Y0049782D02*
X0068644Y0049782D01*
X0068644Y0049781D02*
X0065573Y0049781D01*
X0065573Y0049780D02*
X0068644Y0049780D01*
X0068644Y0049779D02*
X0065573Y0049779D01*
X0065573Y0049778D02*
X0068644Y0049778D01*
X0068644Y0049777D02*
X0065573Y0049777D01*
X0065573Y0049776D02*
X0068644Y0049776D01*
X0068644Y0049775D02*
X0065573Y0049775D01*
X0065573Y0049774D02*
X0068644Y0049774D01*
X0068644Y0049773D02*
X0065573Y0049773D01*
X0065573Y0049772D02*
X0068644Y0049772D01*
X0068644Y0049771D02*
X0065573Y0049771D01*
X0065573Y0049770D02*
X0068644Y0049770D01*
X0068644Y0049769D02*
X0065573Y0049769D01*
X0068644Y0049769D01*
X0068644Y0049768D02*
X0065573Y0049768D01*
X0065573Y0049767D02*
X0068644Y0049767D01*
X0068644Y0049766D02*
X0065573Y0049766D01*
X0065573Y0049765D02*
X0068644Y0049765D01*
X0068644Y0049764D02*
X0065573Y0049764D01*
X0065573Y0049763D02*
X0068644Y0049763D01*
X0068644Y0049762D02*
X0065573Y0049762D01*
X0065573Y0049761D02*
X0068644Y0049761D01*
X0068644Y0049760D02*
X0065573Y0049760D01*
X0065573Y0049759D02*
X0068644Y0049759D01*
X0068644Y0049758D02*
X0065573Y0049758D01*
X0065573Y0049757D02*
X0068644Y0049757D01*
X0068644Y0049756D02*
X0065573Y0049756D01*
X0065573Y0049755D02*
X0068644Y0049755D01*
X0068644Y0049754D02*
X0065573Y0049754D01*
X0065573Y0049753D02*
X0068644Y0049753D01*
X0068644Y0049752D02*
X0065573Y0049752D01*
X0065573Y0049751D02*
X0068644Y0049751D01*
X0068644Y0049750D02*
X0065573Y0049750D01*
X0065573Y0049749D02*
X0068644Y0049749D01*
X0068644Y0049748D02*
X0065573Y0049748D01*
X0065573Y0049747D02*
X0068644Y0049747D01*
X0068644Y0049746D02*
X0065573Y0049746D01*
X0065573Y0049745D02*
X0068644Y0049745D01*
X0068644Y0049744D02*
X0065573Y0049744D01*
X0065573Y0049743D02*
X0068644Y0049743D01*
X0068644Y0049742D02*
X0065573Y0049742D01*
X0065573Y0049741D02*
X0068644Y0049741D01*
X0068644Y0049740D02*
X0065573Y0049740D01*
X0065573Y0049739D02*
X0068644Y0049739D01*
X0068644Y0049738D02*
X0065573Y0049738D01*
X0065573Y0049737D02*
X0068644Y0049737D01*
X0068644Y0049736D02*
X0065573Y0049736D01*
X0065573Y0049735D02*
X0068644Y0049735D01*
X0068644Y0049734D02*
X0065573Y0049734D01*
X0065573Y0049733D02*
X0068644Y0049733D01*
X0068644Y0049732D02*
X0065573Y0049732D01*
X0065573Y0049731D02*
X0068644Y0049731D01*
X0068644Y0049730D02*
X0065573Y0049730D01*
X0065573Y0049729D02*
X0068644Y0049729D01*
X0068644Y0049728D02*
X0065573Y0049728D01*
X0065573Y0049727D02*
X0068644Y0049727D01*
X0068644Y0049726D02*
X0065573Y0049726D01*
X0065573Y0049725D02*
X0068644Y0049725D01*
X0068644Y0049724D02*
X0065573Y0049724D01*
X0065573Y0049723D02*
X0068644Y0049723D01*
X0068644Y0049722D02*
X0065573Y0049722D01*
X0065573Y0049721D02*
X0068644Y0049721D01*
X0068644Y0049720D02*
X0065573Y0049720D01*
X0065573Y0049719D02*
X0068644Y0049719D01*
X0068644Y0049718D02*
X0065573Y0049718D01*
X0065573Y0049717D02*
X0068644Y0049717D01*
X0068644Y0049716D02*
X0065573Y0049716D01*
X0065573Y0049715D02*
X0068644Y0049715D01*
X0068644Y0049714D02*
X0065573Y0049714D01*
X0065573Y0049713D02*
X0068644Y0049713D01*
X0068644Y0049712D02*
X0065573Y0049712D01*
X0065573Y0049711D02*
X0068644Y0049711D01*
X0068644Y0049710D02*
X0065573Y0049710D01*
X0065573Y0049709D02*
X0068644Y0049709D01*
X0068644Y0049708D02*
X0065573Y0049708D01*
X0065573Y0049707D02*
X0068644Y0049707D01*
X0068644Y0049706D02*
X0065573Y0049706D01*
X0068644Y0049706D01*
X0068644Y0049705D02*
X0065573Y0049705D01*
X0065573Y0049704D02*
X0068644Y0049704D01*
X0068644Y0049703D02*
X0065573Y0049703D01*
X0065573Y0049702D02*
X0068644Y0049702D01*
X0068644Y0049701D02*
X0065573Y0049701D01*
X0065573Y0049700D02*
X0068644Y0049700D01*
X0068644Y0049699D02*
X0065573Y0049699D01*
X0065573Y0049698D02*
X0068644Y0049698D01*
X0068644Y0049697D02*
X0065573Y0049697D01*
X0065573Y0049696D02*
X0068644Y0049696D01*
X0068644Y0049695D02*
X0065573Y0049695D01*
X0065573Y0049694D02*
X0068644Y0049694D01*
X0068644Y0049693D02*
X0065573Y0049693D01*
X0065573Y0049692D02*
X0068644Y0049692D01*
X0068644Y0049691D02*
X0065573Y0049691D01*
X0065573Y0049690D02*
X0068644Y0049690D01*
X0068644Y0049689D02*
X0065573Y0049689D01*
X0065573Y0049688D02*
X0068644Y0049688D01*
X0068644Y0049687D02*
X0065573Y0049687D01*
X0065573Y0049686D02*
X0068644Y0049686D01*
X0068644Y0049685D02*
X0065573Y0049685D01*
X0065573Y0049684D02*
X0068644Y0049684D01*
X0068644Y0049683D02*
X0065573Y0049683D01*
X0065573Y0049682D02*
X0068644Y0049682D01*
X0068644Y0049681D02*
X0065573Y0049681D01*
X0065573Y0049680D02*
X0068644Y0049680D01*
X0068644Y0049679D02*
X0065573Y0049679D01*
X0065573Y0049678D02*
X0068644Y0049678D01*
X0068644Y0049677D02*
X0065573Y0049677D01*
X0065573Y0049676D02*
X0068644Y0049676D01*
X0068644Y0049675D02*
X0065573Y0049675D01*
X0065573Y0049674D02*
X0068644Y0049674D01*
X0068644Y0049673D02*
X0065573Y0049673D01*
X0065573Y0049672D02*
X0068644Y0049672D01*
X0068644Y0049671D02*
X0065573Y0049671D01*
X0065573Y0049670D02*
X0068644Y0049670D01*
X0068644Y0049669D02*
X0065573Y0049669D01*
X0065573Y0049668D02*
X0068644Y0049668D01*
X0068644Y0049667D02*
X0065573Y0049667D01*
X0065573Y0049666D02*
X0068644Y0049666D01*
X0068644Y0049665D02*
X0065573Y0049665D01*
X0065573Y0049664D02*
X0068644Y0049664D01*
X0068644Y0049663D02*
X0065573Y0049663D01*
X0065573Y0049662D02*
X0068644Y0049662D01*
X0068644Y0049661D02*
X0065573Y0049661D01*
X0065573Y0049660D02*
X0068644Y0049660D01*
X0068644Y0049659D02*
X0065573Y0049659D01*
X0065573Y0049658D02*
X0068644Y0049658D01*
X0068644Y0049657D02*
X0065573Y0049657D01*
X0065573Y0049656D02*
X0068644Y0049656D01*
X0068644Y0049655D02*
X0065573Y0049655D01*
X0065573Y0049654D02*
X0068644Y0049654D01*
X0068644Y0049653D02*
X0065573Y0049653D01*
X0065573Y0049652D02*
X0068644Y0049652D01*
X0068644Y0049651D02*
X0065573Y0049651D01*
X0065573Y0049650D02*
X0068644Y0049650D01*
X0068644Y0049649D02*
X0065573Y0049649D01*
X0065573Y0049648D02*
X0068644Y0049648D01*
X0068644Y0049647D02*
X0065573Y0049647D01*
X0065573Y0049646D02*
X0068644Y0049646D01*
X0068644Y0049645D02*
X0065573Y0049645D01*
X0065573Y0049644D02*
X0068644Y0049644D01*
X0065573Y0049644D01*
X0065573Y0049643D02*
X0068644Y0049643D01*
X0068644Y0049642D02*
X0065573Y0049642D01*
X0065573Y0049641D02*
X0068644Y0049641D01*
X0068644Y0049640D02*
X0065573Y0049640D01*
X0065573Y0049639D02*
X0068644Y0049639D01*
X0068644Y0049638D02*
X0065573Y0049638D01*
X0065573Y0049637D02*
X0068644Y0049637D01*
X0068644Y0049636D02*
X0065573Y0049636D01*
X0065573Y0049635D02*
X0068644Y0049635D01*
X0068644Y0049634D02*
X0065573Y0049634D01*
X0065573Y0049633D02*
X0068644Y0049633D01*
X0068644Y0049632D02*
X0065573Y0049632D01*
X0065573Y0049631D02*
X0068644Y0049631D01*
X0068644Y0049630D02*
X0065573Y0049630D01*
X0065573Y0049629D02*
X0068644Y0049629D01*
X0068644Y0049628D02*
X0065573Y0049628D01*
X0065573Y0049627D02*
X0068644Y0049627D01*
X0068644Y0049626D02*
X0065573Y0049626D01*
X0065573Y0049625D02*
X0068644Y0049625D01*
X0068644Y0049624D02*
X0065573Y0049624D01*
X0065573Y0049623D02*
X0068644Y0049623D01*
X0068644Y0049622D02*
X0065573Y0049622D01*
X0065573Y0049621D02*
X0068644Y0049621D01*
X0068644Y0049620D02*
X0065573Y0049620D01*
X0065573Y0049619D02*
X0068644Y0049619D01*
X0068644Y0049618D02*
X0065573Y0049618D01*
X0065573Y0049617D02*
X0068644Y0049617D01*
X0068644Y0049616D02*
X0065573Y0049616D01*
X0065573Y0049615D02*
X0068644Y0049615D01*
X0068644Y0049614D02*
X0065573Y0049614D01*
X0065573Y0049613D02*
X0068644Y0049613D01*
X0068644Y0049612D02*
X0065573Y0049612D01*
X0065573Y0049611D02*
X0068644Y0049611D01*
X0068644Y0049610D02*
X0065573Y0049610D01*
X0065573Y0049609D02*
X0068644Y0049609D01*
X0068644Y0049608D02*
X0065573Y0049608D01*
X0065573Y0049607D02*
X0068644Y0049607D01*
X0068644Y0049606D02*
X0065573Y0049606D01*
X0065573Y0049605D02*
X0068644Y0049605D01*
X0068644Y0049604D02*
X0065573Y0049604D01*
X0065573Y0049603D02*
X0068644Y0049603D01*
X0068644Y0049602D02*
X0065573Y0049602D01*
X0065573Y0049601D02*
X0068644Y0049601D01*
X0068644Y0049600D02*
X0065573Y0049600D01*
X0065573Y0049599D02*
X0068644Y0049599D01*
X0068644Y0049598D02*
X0065573Y0049598D01*
X0065573Y0049597D02*
X0068644Y0049597D01*
X0068644Y0049596D02*
X0065573Y0049596D01*
X0065573Y0049595D02*
X0068644Y0049595D01*
X0068644Y0049594D02*
X0065573Y0049594D01*
X0065573Y0049593D02*
X0068644Y0049593D01*
X0068644Y0049592D02*
X0065573Y0049592D01*
X0065573Y0049591D02*
X0068644Y0049591D01*
X0068644Y0049590D02*
X0065573Y0049590D01*
X0065573Y0049589D02*
X0068644Y0049589D01*
X0068644Y0049588D02*
X0065573Y0049588D01*
X0065573Y0049587D02*
X0068644Y0049587D01*
X0068644Y0049586D02*
X0065573Y0049586D01*
X0065573Y0049585D02*
X0068644Y0049585D01*
X0068644Y0049584D02*
X0065573Y0049584D01*
X0065573Y0049583D02*
X0068644Y0049583D01*
X0068644Y0049582D02*
X0065573Y0049582D01*
X0065573Y0049581D02*
X0068644Y0049581D01*
X0065573Y0049581D01*
X0065573Y0049580D02*
X0068644Y0049580D01*
X0068644Y0049579D02*
X0065573Y0049579D01*
X0065573Y0049578D02*
X0068644Y0049578D01*
X0068644Y0049577D02*
X0065573Y0049577D01*
X0065573Y0049576D02*
X0068644Y0049576D01*
X0068644Y0049575D02*
X0065573Y0049575D01*
X0065573Y0049574D02*
X0068644Y0049574D01*
X0068644Y0049573D02*
X0065573Y0049573D01*
X0065573Y0049572D02*
X0068644Y0049572D01*
X0068644Y0049571D02*
X0065573Y0049571D01*
X0065573Y0049570D02*
X0068644Y0049570D01*
X0068644Y0049569D02*
X0065573Y0049569D01*
X0065573Y0049568D02*
X0068644Y0049568D01*
X0068644Y0049567D02*
X0065573Y0049567D01*
X0065573Y0049566D02*
X0068644Y0049566D01*
X0068644Y0049565D02*
X0065573Y0049565D01*
X0065573Y0049564D02*
X0068644Y0049564D01*
X0068644Y0049563D02*
X0065573Y0049563D01*
X0065573Y0049562D02*
X0068644Y0049562D01*
X0068644Y0049561D02*
X0065573Y0049561D01*
X0065573Y0049560D02*
X0068644Y0049560D01*
X0068644Y0049559D02*
X0065573Y0049559D01*
X0065573Y0049558D02*
X0068644Y0049558D01*
X0068644Y0049557D02*
X0065573Y0049557D01*
X0065573Y0049556D02*
X0068644Y0049556D01*
X0068644Y0049555D02*
X0065573Y0049555D01*
X0065573Y0049554D02*
X0068644Y0049554D01*
X0068644Y0049553D02*
X0065573Y0049553D01*
X0065573Y0049552D02*
X0068644Y0049552D01*
X0068644Y0049551D02*
X0065573Y0049551D01*
X0065573Y0049550D02*
X0068644Y0049550D01*
X0068644Y0049549D02*
X0065573Y0049549D01*
X0065573Y0049548D02*
X0068644Y0049548D01*
X0068644Y0049547D02*
X0065573Y0049547D01*
X0065573Y0049546D02*
X0068644Y0049546D01*
X0068644Y0049545D02*
X0065573Y0049545D01*
X0065573Y0049544D02*
X0068644Y0049544D01*
X0068644Y0049543D02*
X0065573Y0049543D01*
X0065573Y0049542D02*
X0068644Y0049542D01*
X0068644Y0049541D02*
X0065573Y0049541D01*
X0065573Y0049540D02*
X0068644Y0049540D01*
X0068644Y0049539D02*
X0065573Y0049539D01*
X0065573Y0049538D02*
X0068644Y0049538D01*
X0068644Y0049537D02*
X0065573Y0049537D01*
X0065573Y0049536D02*
X0068644Y0049536D01*
X0068644Y0049535D02*
X0065573Y0049535D01*
X0065573Y0049534D02*
X0068644Y0049534D01*
X0068644Y0049533D02*
X0065573Y0049533D01*
X0065573Y0049532D02*
X0068644Y0049532D01*
X0068644Y0049531D02*
X0065573Y0049531D01*
X0065573Y0049530D02*
X0068644Y0049530D01*
X0068644Y0049529D02*
X0065573Y0049529D01*
X0065573Y0049528D02*
X0068644Y0049528D01*
X0068644Y0049527D02*
X0065573Y0049527D01*
X0065573Y0049526D02*
X0068644Y0049526D01*
X0068644Y0049525D02*
X0065573Y0049525D01*
X0065573Y0049524D02*
X0068644Y0049524D01*
X0068644Y0049523D02*
X0065573Y0049523D01*
X0065573Y0049522D02*
X0068644Y0049522D01*
X0068644Y0049521D02*
X0065573Y0049521D01*
X0065573Y0049520D02*
X0068644Y0049520D01*
X0068644Y0049519D02*
X0065573Y0049519D01*
X0068644Y0049519D01*
X0068644Y0049518D02*
X0065573Y0049518D01*
X0065573Y0049517D02*
X0068644Y0049517D01*
X0068644Y0049516D02*
X0065573Y0049516D01*
X0065573Y0049515D02*
X0068644Y0049515D01*
X0068644Y0049514D02*
X0065573Y0049514D01*
X0065573Y0049513D02*
X0068644Y0049513D01*
X0068644Y0049512D02*
X0065573Y0049512D01*
X0065573Y0049511D02*
X0068644Y0049511D01*
X0068644Y0049510D02*
X0065573Y0049510D01*
X0065573Y0049509D02*
X0068644Y0049509D01*
X0068644Y0049508D02*
X0065573Y0049508D01*
X0065573Y0049507D02*
X0068644Y0049507D01*
X0068644Y0049506D02*
X0065573Y0049506D01*
X0065573Y0049505D02*
X0068644Y0049505D01*
X0068644Y0049504D02*
X0065573Y0049504D01*
X0065573Y0049503D02*
X0068644Y0049503D01*
X0068644Y0049502D02*
X0065573Y0049502D01*
X0065573Y0049501D02*
X0068644Y0049501D01*
X0068644Y0049500D02*
X0065573Y0049500D01*
X0065573Y0049499D02*
X0068644Y0049499D01*
X0068644Y0049498D02*
X0065573Y0049498D01*
X0065573Y0049497D02*
X0068644Y0049497D01*
X0068644Y0049496D02*
X0065573Y0049496D01*
X0065573Y0049495D02*
X0068644Y0049495D01*
X0068644Y0049494D02*
X0065573Y0049494D01*
X0065573Y0049493D02*
X0068644Y0049493D01*
X0068644Y0049492D02*
X0065573Y0049492D01*
X0065573Y0049491D02*
X0068644Y0049491D01*
X0068644Y0049490D02*
X0065573Y0049490D01*
X0065573Y0049489D02*
X0068644Y0049489D01*
X0068644Y0049488D02*
X0065573Y0049488D01*
X0065573Y0049487D02*
X0068644Y0049487D01*
X0068644Y0049486D02*
X0065573Y0049486D01*
X0065573Y0049485D02*
X0068644Y0049485D01*
X0068644Y0049484D02*
X0065573Y0049484D01*
X0065573Y0049483D02*
X0068644Y0049483D01*
X0068644Y0049482D02*
X0065573Y0049482D01*
X0065573Y0049481D02*
X0068644Y0049481D01*
X0068644Y0049480D02*
X0065573Y0049480D01*
X0065573Y0049479D02*
X0068644Y0049479D01*
X0068644Y0049478D02*
X0065573Y0049478D01*
X0065573Y0049477D02*
X0068644Y0049477D01*
X0068644Y0049476D02*
X0065573Y0049476D01*
X0065573Y0049475D02*
X0068644Y0049475D01*
X0068644Y0049474D02*
X0065573Y0049474D01*
X0065573Y0049473D02*
X0068644Y0049473D01*
X0068644Y0049472D02*
X0065573Y0049472D01*
X0065573Y0049471D02*
X0068644Y0049471D01*
X0068644Y0049470D02*
X0065573Y0049470D01*
X0065573Y0049469D02*
X0068644Y0049469D01*
X0068644Y0049468D02*
X0065573Y0049468D01*
X0065573Y0049467D02*
X0068644Y0049467D01*
X0068644Y0049466D02*
X0065573Y0049466D01*
X0065573Y0049465D02*
X0068644Y0049465D01*
X0068644Y0049464D02*
X0065573Y0049464D01*
X0065573Y0049463D02*
X0068644Y0049463D01*
X0068644Y0049462D02*
X0065573Y0049462D01*
X0065573Y0049461D02*
X0068644Y0049461D01*
X0068644Y0049460D02*
X0065573Y0049460D01*
X0065573Y0049459D02*
X0068644Y0049459D01*
X0068644Y0049458D02*
X0065573Y0049458D01*
X0065573Y0049457D02*
X0068644Y0049457D01*
X0068644Y0049456D02*
X0065573Y0049456D01*
X0068644Y0049456D01*
X0068644Y0049455D02*
X0065573Y0049455D01*
X0065573Y0049454D02*
X0068644Y0049454D01*
X0068644Y0049453D02*
X0065573Y0049453D01*
X0065573Y0049452D02*
X0068644Y0049452D01*
X0068644Y0049451D02*
X0065573Y0049451D01*
X0065573Y0049450D02*
X0068644Y0049450D01*
X0068644Y0049449D02*
X0065573Y0049449D01*
X0065573Y0049448D02*
X0068644Y0049448D01*
X0068644Y0049447D02*
X0065573Y0049447D01*
X0065573Y0049446D02*
X0068644Y0049446D01*
X0068644Y0049445D02*
X0065573Y0049445D01*
X0065573Y0049444D02*
X0068644Y0049444D01*
X0068644Y0049443D02*
X0065573Y0049443D01*
X0065573Y0049442D02*
X0068644Y0049442D01*
X0068644Y0049441D02*
X0065573Y0049441D01*
X0065573Y0049440D02*
X0068644Y0049440D01*
X0068644Y0049439D02*
X0065573Y0049439D01*
X0065573Y0049438D02*
X0068644Y0049438D01*
X0068644Y0049437D02*
X0065573Y0049437D01*
X0065573Y0049436D02*
X0068644Y0049436D01*
X0068644Y0049435D02*
X0065573Y0049435D01*
X0065573Y0049434D02*
X0068644Y0049434D01*
X0068644Y0049433D02*
X0065573Y0049433D01*
X0065573Y0049432D02*
X0068644Y0049432D01*
X0068644Y0049431D02*
X0065573Y0049431D01*
X0065573Y0049430D02*
X0068644Y0049430D01*
X0068644Y0049429D02*
X0065573Y0049429D01*
X0065573Y0049428D02*
X0068644Y0049428D01*
X0068644Y0049427D02*
X0065573Y0049427D01*
X0065573Y0049426D02*
X0068644Y0049426D01*
X0068644Y0049425D02*
X0065573Y0049425D01*
X0065573Y0049424D02*
X0068644Y0049424D01*
X0068644Y0049423D02*
X0065573Y0049423D01*
X0065573Y0049422D02*
X0068644Y0049422D01*
X0068644Y0049421D02*
X0065573Y0049421D01*
X0065573Y0049420D02*
X0068644Y0049420D01*
X0068644Y0049419D02*
X0065573Y0049419D01*
X0065573Y0049418D02*
X0068644Y0049418D01*
X0068644Y0049417D02*
X0065573Y0049417D01*
X0065573Y0049416D02*
X0068644Y0049416D01*
X0068644Y0049415D02*
X0065573Y0049415D01*
X0065573Y0049414D02*
X0068644Y0049414D01*
X0068644Y0049413D02*
X0065573Y0049413D01*
X0065573Y0049412D02*
X0068644Y0049412D01*
X0068644Y0049411D02*
X0065573Y0049411D01*
X0065573Y0049410D02*
X0068644Y0049410D01*
X0068644Y0049409D02*
X0065573Y0049409D01*
X0065573Y0049408D02*
X0068644Y0049408D01*
X0068644Y0049407D02*
X0065573Y0049407D01*
X0065573Y0049406D02*
X0068644Y0049406D01*
X0068644Y0049405D02*
X0065573Y0049405D01*
X0065573Y0049404D02*
X0068644Y0049404D01*
X0068644Y0049403D02*
X0065573Y0049403D01*
X0065573Y0049402D02*
X0068644Y0049402D01*
X0068644Y0049401D02*
X0065573Y0049401D01*
X0065573Y0049400D02*
X0068644Y0049400D01*
X0068644Y0049399D02*
X0065573Y0049399D01*
X0065573Y0049398D02*
X0068644Y0049398D01*
X0068644Y0049397D02*
X0065573Y0049397D01*
X0065573Y0049396D02*
X0068644Y0049396D01*
X0068644Y0049395D02*
X0065573Y0049395D01*
X0065573Y0049394D02*
X0068644Y0049394D01*
X0065573Y0049394D01*
X0065573Y0049393D02*
X0068644Y0049393D01*
X0068644Y0049392D02*
X0065573Y0049392D01*
X0065573Y0049391D02*
X0068644Y0049391D01*
X0068644Y0049390D02*
X0065573Y0049390D01*
X0065573Y0049389D02*
X0068644Y0049389D01*
X0068644Y0049388D02*
X0065573Y0049388D01*
X0065573Y0049387D02*
X0068644Y0049387D01*
X0068644Y0049386D02*
X0065573Y0049386D01*
X0065573Y0049385D02*
X0068644Y0049385D01*
X0068644Y0049384D02*
X0065573Y0049384D01*
X0065573Y0049383D02*
X0068644Y0049383D01*
X0068644Y0049382D02*
X0065573Y0049382D01*
X0065573Y0049381D02*
X0068644Y0049381D01*
X0068644Y0049380D02*
X0065573Y0049380D01*
X0065573Y0049379D02*
X0068644Y0049379D01*
X0068644Y0049378D02*
X0065573Y0049378D01*
X0065573Y0049377D02*
X0068644Y0049377D01*
X0068644Y0049376D02*
X0065573Y0049376D01*
X0065573Y0049375D02*
X0068644Y0049375D01*
X0068644Y0049374D02*
X0065573Y0049374D01*
X0065573Y0049373D02*
X0068644Y0049373D01*
X0068644Y0049372D02*
X0065573Y0049372D01*
X0065573Y0049371D02*
X0068644Y0049371D01*
X0068644Y0049370D02*
X0065573Y0049370D01*
X0065573Y0049369D02*
X0068644Y0049369D01*
X0068644Y0049368D02*
X0065573Y0049368D01*
X0065573Y0049367D02*
X0068644Y0049367D01*
X0068644Y0049366D02*
X0065573Y0049366D01*
X0065573Y0049365D02*
X0068644Y0049365D01*
X0068644Y0049364D02*
X0065573Y0049364D01*
X0065573Y0049363D02*
X0068644Y0049363D01*
X0068644Y0049362D02*
X0065573Y0049362D01*
X0065573Y0049361D02*
X0068644Y0049361D01*
X0068644Y0049360D02*
X0065573Y0049360D01*
X0065573Y0049359D02*
X0068644Y0049359D01*
X0068644Y0049358D02*
X0065573Y0049358D01*
X0065573Y0049357D02*
X0068644Y0049357D01*
X0068644Y0049356D02*
X0065573Y0049356D01*
X0065573Y0049355D02*
X0068644Y0049355D01*
X0068644Y0049354D02*
X0065573Y0049354D01*
X0065573Y0049353D02*
X0068644Y0049353D01*
X0068644Y0049352D02*
X0065573Y0049352D01*
X0065573Y0049351D02*
X0068644Y0049351D01*
X0068644Y0049350D02*
X0065573Y0049350D01*
X0065573Y0049349D02*
X0068644Y0049349D01*
X0068644Y0049348D02*
X0065573Y0049348D01*
X0065573Y0049347D02*
X0068644Y0049347D01*
X0068644Y0049346D02*
X0065573Y0049346D01*
X0065573Y0049345D02*
X0068644Y0049345D01*
X0068644Y0049344D02*
X0065573Y0049344D01*
X0065573Y0049343D02*
X0068644Y0049343D01*
X0068644Y0049342D02*
X0065573Y0049342D01*
X0065573Y0049341D02*
X0068644Y0049341D01*
X0068644Y0049340D02*
X0065573Y0049340D01*
X0065573Y0049339D02*
X0068644Y0049339D01*
X0068644Y0049338D02*
X0065573Y0049338D01*
X0065573Y0049337D02*
X0068644Y0049337D01*
X0068644Y0049336D02*
X0065573Y0049336D01*
X0065573Y0049335D02*
X0068644Y0049335D01*
X0068644Y0049334D02*
X0065573Y0049334D01*
X0065573Y0049333D02*
X0068644Y0049333D01*
X0068644Y0049332D02*
X0065573Y0049332D01*
X0065573Y0049331D02*
X0068644Y0049331D01*
X0065573Y0049331D01*
X0065573Y0049330D02*
X0068644Y0049330D01*
X0068644Y0049329D02*
X0065573Y0049329D01*
X0065573Y0049328D02*
X0068644Y0049328D01*
X0068644Y0049327D02*
X0065573Y0049327D01*
X0065573Y0049326D02*
X0068644Y0049326D01*
X0068644Y0049325D02*
X0065573Y0049325D01*
X0065573Y0049324D02*
X0068644Y0049324D01*
X0068644Y0049323D02*
X0065573Y0049323D01*
X0065573Y0049322D02*
X0068644Y0049322D01*
X0068644Y0049321D02*
X0065573Y0049321D01*
X0065573Y0049320D02*
X0068644Y0049320D01*
X0068644Y0049319D02*
X0065573Y0049319D01*
X0065573Y0049318D02*
X0068644Y0049318D01*
X0068644Y0049317D02*
X0065573Y0049317D01*
X0065573Y0049316D02*
X0068644Y0049316D01*
X0068644Y0049315D02*
X0065573Y0049315D01*
X0065573Y0049314D02*
X0068644Y0049314D01*
X0068644Y0049313D02*
X0065573Y0049313D01*
X0065573Y0049312D02*
X0068644Y0049312D01*
X0068644Y0049311D02*
X0065573Y0049311D01*
X0065573Y0049310D02*
X0068644Y0049310D01*
X0068644Y0049309D02*
X0065573Y0049309D01*
X0065573Y0049308D02*
X0068644Y0049308D01*
X0068644Y0049307D02*
X0065573Y0049307D01*
X0065573Y0049306D02*
X0068644Y0049306D01*
X0068644Y0049305D02*
X0065573Y0049305D01*
X0065573Y0049304D02*
X0068644Y0049304D01*
X0068644Y0049303D02*
X0065573Y0049303D01*
X0065573Y0049302D02*
X0068644Y0049302D01*
X0068644Y0049301D02*
X0065573Y0049301D01*
X0065573Y0049300D02*
X0068644Y0049300D01*
X0068644Y0049299D02*
X0065573Y0049299D01*
X0065573Y0049298D02*
X0068644Y0049298D01*
X0068644Y0049297D02*
X0065573Y0049297D01*
X0065573Y0049296D02*
X0068644Y0049296D01*
X0068644Y0049295D02*
X0065573Y0049295D01*
X0065573Y0049294D02*
X0068644Y0049294D01*
X0068644Y0049293D02*
X0065573Y0049293D01*
X0065573Y0049292D02*
X0068644Y0049292D01*
X0068644Y0049291D02*
X0065573Y0049291D01*
X0065573Y0049290D02*
X0068644Y0049290D01*
X0068644Y0049289D02*
X0065573Y0049289D01*
X0065573Y0049288D02*
X0068644Y0049288D01*
X0068644Y0049287D02*
X0065573Y0049287D01*
X0065573Y0049286D02*
X0068644Y0049286D01*
X0068644Y0049285D02*
X0065573Y0049285D01*
X0065573Y0049284D02*
X0068644Y0049284D01*
X0068644Y0049283D02*
X0065573Y0049283D01*
X0065573Y0049282D02*
X0068644Y0049282D01*
X0068644Y0049281D02*
X0065573Y0049281D01*
X0065573Y0049280D02*
X0068644Y0049280D01*
X0068644Y0049279D02*
X0065573Y0049279D01*
X0065573Y0049278D02*
X0068644Y0049278D01*
X0068644Y0049277D02*
X0065573Y0049277D01*
X0065573Y0049276D02*
X0068644Y0049276D01*
X0068644Y0049275D02*
X0065573Y0049275D01*
X0065573Y0049274D02*
X0068644Y0049274D01*
X0068644Y0049273D02*
X0065573Y0049273D01*
X0065573Y0049272D02*
X0068644Y0049272D01*
X0068644Y0049271D02*
X0065573Y0049271D01*
X0065573Y0049270D02*
X0068644Y0049270D01*
X0068644Y0049269D02*
X0065573Y0049269D01*
X0068644Y0049269D01*
X0068644Y0049268D02*
X0065573Y0049268D01*
X0065573Y0049267D02*
X0068644Y0049267D01*
X0068644Y0049266D02*
X0065573Y0049266D01*
X0065573Y0049265D02*
X0068644Y0049265D01*
X0068644Y0049264D02*
X0065573Y0049264D01*
X0065573Y0049263D02*
X0068644Y0049263D01*
X0068644Y0049262D02*
X0065573Y0049262D01*
X0065573Y0049261D02*
X0068644Y0049261D01*
X0068644Y0049260D02*
X0065573Y0049260D01*
X0065573Y0049259D02*
X0068644Y0049259D01*
X0068644Y0049258D02*
X0065573Y0049258D01*
X0065573Y0049257D02*
X0068644Y0049257D01*
X0068644Y0049256D02*
X0065573Y0049256D01*
X0065573Y0049255D02*
X0068644Y0049255D01*
X0068644Y0049254D02*
X0065573Y0049254D01*
X0065573Y0049253D02*
X0068644Y0049253D01*
X0068644Y0049252D02*
X0065573Y0049252D01*
X0065573Y0049251D02*
X0068644Y0049251D01*
X0068644Y0049250D02*
X0065573Y0049250D01*
X0065573Y0049249D02*
X0068644Y0049249D01*
X0068644Y0049248D02*
X0065573Y0049248D01*
X0065573Y0049247D02*
X0068644Y0049247D01*
X0068644Y0049246D02*
X0065573Y0049246D01*
X0065573Y0049245D02*
X0068644Y0049245D01*
X0068644Y0049244D02*
X0065573Y0049244D01*
X0065573Y0049243D02*
X0068644Y0049243D01*
X0068644Y0049242D02*
X0065573Y0049242D01*
X0065573Y0049241D02*
X0068644Y0049241D01*
X0068644Y0049836D02*
X0065573Y0049836D01*
X0065573Y0049837D02*
X0068644Y0049837D01*
X0068644Y0049838D02*
X0065573Y0049838D01*
X0065573Y0049839D02*
X0068644Y0049839D01*
X0068644Y0049840D02*
X0065573Y0049840D01*
X0065573Y0049841D02*
X0068644Y0049841D01*
X0068644Y0049842D02*
X0065573Y0049842D01*
X0065573Y0049843D02*
X0068644Y0049843D01*
X0068644Y0049844D02*
X0065573Y0049844D01*
X0065573Y0049845D02*
X0068644Y0049845D01*
X0068644Y0049846D02*
X0065573Y0049846D01*
X0065573Y0049847D02*
X0068644Y0049847D01*
X0068644Y0049848D02*
X0065573Y0049848D01*
X0065573Y0049849D02*
X0068644Y0049849D01*
X0068644Y0049850D02*
X0065573Y0049850D01*
X0065573Y0049851D02*
X0068644Y0049851D01*
X0068644Y0049852D02*
X0065573Y0049852D01*
X0065573Y0049853D02*
X0068644Y0049853D01*
X0068644Y0049854D02*
X0065573Y0049854D01*
X0065573Y0049855D02*
X0068644Y0049855D01*
X0068644Y0049856D02*
X0065573Y0049856D01*
X0065573Y0049857D02*
X0068644Y0049857D01*
X0068644Y0049858D02*
X0065573Y0049858D01*
X0065573Y0049859D02*
X0068644Y0049859D01*
X0068644Y0049860D02*
X0065573Y0049860D01*
X0065573Y0049861D02*
X0068644Y0049861D01*
X0068644Y0049862D02*
X0065573Y0049862D01*
X0065573Y0049863D02*
X0068644Y0049863D01*
X0068644Y0049864D02*
X0065573Y0049864D01*
X0065573Y0049865D02*
X0068644Y0049865D01*
X0068644Y0049866D02*
X0065573Y0049866D01*
X0065573Y0049867D02*
X0068644Y0049867D01*
X0068644Y0049868D02*
X0065573Y0049868D01*
X0065573Y0049869D02*
X0068644Y0049869D01*
X0068644Y0049870D02*
X0065573Y0049870D01*
X0065573Y0049871D02*
X0068644Y0049871D01*
X0068644Y0049872D02*
X0065573Y0049872D01*
X0065573Y0049873D02*
X0068644Y0049873D01*
X0068644Y0049874D02*
X0065573Y0049874D01*
X0065573Y0049875D02*
X0068644Y0049875D01*
X0068644Y0049876D02*
X0065573Y0049876D01*
X0065573Y0049877D02*
X0068644Y0049877D01*
X0068644Y0049878D02*
X0065573Y0049878D01*
X0065573Y0049879D02*
X0068644Y0049879D01*
X0068644Y0049880D02*
X0065573Y0049880D01*
X0065573Y0049881D02*
X0068644Y0049881D01*
X0068644Y0049882D02*
X0065573Y0049882D01*
X0065573Y0049883D02*
X0068644Y0049883D01*
X0068644Y0049884D02*
X0065573Y0049884D01*
X0065573Y0049885D02*
X0068644Y0049885D01*
X0068644Y0049886D02*
X0065573Y0049886D01*
X0065573Y0049887D02*
X0068644Y0049887D01*
X0068644Y0049888D02*
X0065573Y0049888D01*
X0065573Y0049889D02*
X0068644Y0049889D01*
X0068644Y0049890D02*
X0065573Y0049890D01*
X0065573Y0049891D02*
X0068644Y0049891D01*
X0068644Y0049892D02*
X0065573Y0049892D01*
X0065573Y0049893D02*
X0068644Y0049893D01*
X0068644Y0049894D02*
X0065573Y0049894D01*
X0068644Y0049894D01*
X0068644Y0049895D02*
X0065573Y0049895D01*
X0065573Y0049896D02*
X0068644Y0049896D01*
X0068644Y0049897D02*
X0065573Y0049897D01*
X0065573Y0049898D02*
X0068644Y0049898D01*
X0068644Y0049899D02*
X0065573Y0049899D01*
X0065573Y0049900D02*
X0068644Y0049900D01*
X0068644Y0049901D02*
X0065573Y0049901D01*
X0065573Y0049902D02*
X0068644Y0049902D01*
X0068644Y0049903D02*
X0065573Y0049903D01*
X0065573Y0049904D02*
X0068644Y0049904D01*
X0068644Y0049905D02*
X0065573Y0049905D01*
X0065573Y0049906D02*
X0068644Y0049906D01*
X0068644Y0049907D02*
X0065573Y0049907D01*
X0065573Y0049908D02*
X0068644Y0049908D01*
X0068644Y0049909D02*
X0065573Y0049909D01*
X0065573Y0049910D02*
X0068644Y0049910D01*
X0068644Y0049911D02*
X0065573Y0049911D01*
X0065573Y0049912D02*
X0068644Y0049912D01*
X0068644Y0049913D02*
X0065573Y0049913D01*
X0065573Y0049914D02*
X0068644Y0049914D01*
X0068644Y0049915D02*
X0065573Y0049915D01*
X0065573Y0049916D02*
X0068644Y0049916D01*
X0068644Y0049917D02*
X0065573Y0049917D01*
X0065573Y0049918D02*
X0068644Y0049918D01*
X0068644Y0049919D02*
X0065573Y0049919D01*
X0065573Y0049920D02*
X0068644Y0049920D01*
X0068644Y0049921D02*
X0065573Y0049921D01*
X0065573Y0049922D02*
X0068644Y0049922D01*
X0068644Y0049923D02*
X0065573Y0049923D01*
X0065573Y0049924D02*
X0068644Y0049924D01*
X0068644Y0049925D02*
X0065573Y0049925D01*
X0065573Y0049926D02*
X0068644Y0049926D01*
X0068644Y0049927D02*
X0065573Y0049927D01*
X0065573Y0049928D02*
X0068644Y0049928D01*
X0068644Y0049929D02*
X0065573Y0049929D01*
X0065573Y0049930D02*
X0068644Y0049930D01*
X0068644Y0049931D02*
X0065573Y0049931D01*
X0065573Y0049932D02*
X0068644Y0049932D01*
X0068644Y0049933D02*
X0065573Y0049933D01*
X0065573Y0049934D02*
X0068644Y0049934D01*
X0068644Y0049935D02*
X0065573Y0049935D01*
X0065573Y0049936D02*
X0068644Y0049936D01*
X0068644Y0049937D02*
X0065573Y0049937D01*
X0065573Y0049938D02*
X0068644Y0049938D01*
X0068644Y0049939D02*
X0065573Y0049939D01*
X0065573Y0049940D02*
X0068644Y0049940D01*
X0068644Y0049941D02*
X0065573Y0049941D01*
X0065573Y0049942D02*
X0068644Y0049942D01*
X0068644Y0049943D02*
X0065573Y0049943D01*
X0065573Y0049944D02*
X0068644Y0049944D01*
X0068644Y0049945D02*
X0065573Y0049945D01*
X0065573Y0049946D02*
X0068644Y0049946D01*
X0068644Y0049947D02*
X0065573Y0049947D01*
X0065573Y0049948D02*
X0068644Y0049948D01*
X0068644Y0049949D02*
X0065573Y0049949D01*
X0065573Y0049950D02*
X0068644Y0049950D01*
X0068644Y0049951D02*
X0065573Y0049951D01*
X0065573Y0049952D02*
X0068644Y0049952D01*
X0068644Y0049953D02*
X0065573Y0049953D01*
X0065573Y0049954D02*
X0068644Y0049954D01*
X0068644Y0049955D02*
X0065573Y0049955D01*
X0065573Y0049956D02*
X0068644Y0049956D01*
X0065573Y0049956D01*
X0065573Y0049957D02*
X0068644Y0049957D01*
X0068644Y0049958D02*
X0065573Y0049958D01*
X0065573Y0049959D02*
X0068644Y0049959D01*
X0068644Y0049960D02*
X0065573Y0049960D01*
X0065573Y0049961D02*
X0068644Y0049961D01*
X0068644Y0049962D02*
X0065573Y0049962D01*
X0065573Y0049963D02*
X0068644Y0049963D01*
X0068644Y0049964D02*
X0065573Y0049964D01*
X0065573Y0049965D02*
X0068644Y0049965D01*
X0068644Y0049966D02*
X0065573Y0049966D01*
X0065573Y0049967D02*
X0068644Y0049967D01*
X0068644Y0049968D02*
X0065573Y0049968D01*
X0065573Y0049969D02*
X0068644Y0049969D01*
X0068644Y0049970D02*
X0065573Y0049970D01*
X0065573Y0049971D02*
X0068644Y0049971D01*
X0068644Y0049972D02*
X0065573Y0049972D01*
X0065573Y0049973D02*
X0068644Y0049973D01*
X0068644Y0049974D02*
X0065573Y0049974D01*
X0065573Y0049975D02*
X0068644Y0049975D01*
X0068644Y0049976D02*
X0065573Y0049976D01*
X0065573Y0049977D02*
X0068644Y0049977D01*
X0068644Y0049978D02*
X0065573Y0049978D01*
X0065573Y0049979D02*
X0068644Y0049979D01*
X0068644Y0049980D02*
X0065573Y0049980D01*
X0065573Y0049981D02*
X0068644Y0049981D01*
X0068644Y0049982D02*
X0065573Y0049982D01*
X0065573Y0049983D02*
X0068644Y0049983D01*
X0068644Y0049984D02*
X0065573Y0049984D01*
X0065573Y0049985D02*
X0068644Y0049985D01*
X0068644Y0049986D02*
X0065573Y0049986D01*
X0065573Y0049987D02*
X0068644Y0049987D01*
X0068644Y0049988D02*
X0065573Y0049988D01*
X0065573Y0049989D02*
X0068644Y0049989D01*
X0068644Y0049990D02*
X0065573Y0049990D01*
X0065573Y0049991D02*
X0068644Y0049991D01*
X0068644Y0049992D02*
X0065573Y0049992D01*
X0065573Y0049993D02*
X0068644Y0049993D01*
X0068644Y0049994D02*
X0065573Y0049994D01*
X0065573Y0049995D02*
X0068644Y0049995D01*
X0068644Y0049996D02*
X0065573Y0049996D01*
X0065573Y0049997D02*
X0068644Y0049997D01*
X0068644Y0049998D02*
X0065573Y0049998D01*
X0065573Y0049999D02*
X0068644Y0049999D01*
X0068644Y0050000D02*
X0065573Y0050000D01*
X0065573Y0050001D02*
X0068644Y0050001D01*
X0068644Y0050002D02*
X0065573Y0050002D01*
X0065573Y0050003D02*
X0068644Y0050003D01*
X0068644Y0050004D02*
X0065573Y0050004D01*
X0065573Y0050005D02*
X0068644Y0050005D01*
X0068644Y0050006D02*
X0065573Y0050006D01*
X0065573Y0050007D02*
X0068644Y0050007D01*
X0068644Y0050008D02*
X0065573Y0050008D01*
X0065573Y0050009D02*
X0068644Y0050009D01*
X0068644Y0050010D02*
X0065573Y0050010D01*
X0065573Y0050011D02*
X0068644Y0050011D01*
X0068644Y0050012D02*
X0065573Y0050012D01*
X0065573Y0050013D02*
X0068644Y0050013D01*
X0068644Y0050014D02*
X0065573Y0050014D01*
X0065573Y0050015D02*
X0068644Y0050015D01*
X0068644Y0050016D02*
X0065573Y0050016D01*
X0065573Y0050017D02*
X0068644Y0050017D01*
X0068644Y0050018D02*
X0065573Y0050018D01*
X0065573Y0050019D02*
X0068644Y0050019D01*
X0065573Y0050019D01*
X0065573Y0050020D02*
X0068644Y0050020D01*
X0068644Y0050021D02*
X0065573Y0050021D01*
X0065573Y0050022D02*
X0068644Y0050022D01*
X0068644Y0050023D02*
X0065573Y0050023D01*
X0065573Y0050024D02*
X0068644Y0050024D01*
X0068644Y0050025D02*
X0065573Y0050025D01*
X0065573Y0050026D02*
X0068644Y0050026D01*
X0068644Y0050027D02*
X0065573Y0050027D01*
X0065573Y0050028D02*
X0068644Y0050028D01*
X0068644Y0050029D02*
X0065573Y0050029D01*
X0065573Y0050030D02*
X0068644Y0050030D01*
X0068644Y0050031D02*
X0065573Y0050031D01*
X0065573Y0050032D02*
X0068644Y0050032D01*
X0068644Y0050033D02*
X0065573Y0050033D01*
X0065573Y0050034D02*
X0068644Y0050034D01*
X0068644Y0050035D02*
X0065573Y0050035D01*
X0065573Y0050036D02*
X0068644Y0050036D01*
X0068644Y0050037D02*
X0065573Y0050037D01*
X0065573Y0050038D02*
X0068644Y0050038D01*
X0068644Y0050039D02*
X0065573Y0050039D01*
X0065573Y0050040D02*
X0068644Y0050040D01*
X0068644Y0050041D02*
X0065573Y0050041D01*
X0065573Y0050042D02*
X0068644Y0050042D01*
X0068644Y0050043D02*
X0065573Y0050043D01*
X0065573Y0050044D02*
X0068644Y0050044D01*
X0068644Y0050045D02*
X0065573Y0050045D01*
X0065573Y0050046D02*
X0068644Y0050046D01*
X0068644Y0050047D02*
X0065573Y0050047D01*
X0065573Y0050048D02*
X0068644Y0050048D01*
X0068644Y0050049D02*
X0065573Y0050049D01*
X0065573Y0050050D02*
X0068644Y0050050D01*
X0068644Y0050051D02*
X0065573Y0050051D01*
X0065573Y0050052D02*
X0068644Y0050052D01*
X0068644Y0050053D02*
X0065573Y0050053D01*
X0065573Y0050054D02*
X0068644Y0050054D01*
X0068644Y0050055D02*
X0065573Y0050055D01*
X0065573Y0050056D02*
X0068644Y0050056D01*
X0068644Y0050057D02*
X0065573Y0050057D01*
X0065573Y0050058D02*
X0068644Y0050058D01*
X0068644Y0050059D02*
X0065573Y0050059D01*
X0065573Y0050060D02*
X0068644Y0050060D01*
X0068644Y0050061D02*
X0065573Y0050061D01*
X0065573Y0050062D02*
X0068644Y0050062D01*
X0068644Y0050063D02*
X0065573Y0050063D01*
X0065573Y0050064D02*
X0068644Y0050064D01*
X0068644Y0050065D02*
X0065573Y0050065D01*
X0065573Y0050066D02*
X0068644Y0050066D01*
X0068644Y0050067D02*
X0065573Y0050067D01*
X0065573Y0050068D02*
X0068644Y0050068D01*
X0068644Y0050069D02*
X0065573Y0050069D01*
X0065573Y0050070D02*
X0068644Y0050070D01*
X0068644Y0050071D02*
X0065573Y0050071D01*
X0065573Y0050072D02*
X0068644Y0050072D01*
X0068644Y0050073D02*
X0065573Y0050073D01*
X0065573Y0050074D02*
X0068644Y0050074D01*
X0068644Y0050075D02*
X0065573Y0050075D01*
X0065573Y0050076D02*
X0068644Y0050076D01*
X0068644Y0050077D02*
X0065573Y0050077D01*
X0065573Y0050078D02*
X0068644Y0050078D01*
X0068644Y0050079D02*
X0065573Y0050079D01*
X0065573Y0050080D02*
X0068644Y0050080D01*
X0068644Y0050081D02*
X0065573Y0050081D01*
X0068644Y0050081D01*
X0068644Y0050082D02*
X0065573Y0050082D01*
X0065573Y0050083D02*
X0068644Y0050083D01*
X0068644Y0050084D02*
X0065573Y0050084D01*
X0065573Y0050085D02*
X0068644Y0050085D01*
X0068644Y0050086D02*
X0065573Y0050086D01*
X0065573Y0050087D02*
X0068644Y0050087D01*
X0068644Y0050088D02*
X0065573Y0050088D01*
X0065573Y0050089D02*
X0068644Y0050089D01*
X0068644Y0050090D02*
X0065573Y0050090D01*
X0065573Y0050091D02*
X0068644Y0050091D01*
X0068644Y0050092D02*
X0065573Y0050092D01*
X0065573Y0050093D02*
X0068644Y0050093D01*
X0068644Y0050094D02*
X0065573Y0050094D01*
X0065573Y0050095D02*
X0068644Y0050095D01*
X0068644Y0050096D02*
X0065573Y0050096D01*
X0065573Y0050097D02*
X0068644Y0050097D01*
X0068644Y0050098D02*
X0065573Y0050098D01*
X0065573Y0050099D02*
X0068644Y0050099D01*
X0068644Y0050100D02*
X0065573Y0050100D01*
X0065573Y0050101D02*
X0068644Y0050101D01*
X0068644Y0050102D02*
X0065573Y0050102D01*
X0065573Y0050103D02*
X0068644Y0050103D01*
X0068644Y0050104D02*
X0065573Y0050104D01*
X0065573Y0050105D02*
X0068644Y0050105D01*
X0068644Y0050106D02*
X0065573Y0050106D01*
X0065573Y0050107D02*
X0068644Y0050107D01*
X0068644Y0050108D02*
X0065573Y0050108D01*
X0065573Y0050109D02*
X0068644Y0050109D01*
X0068644Y0050110D02*
X0065573Y0050110D01*
X0065573Y0050111D02*
X0068644Y0050111D01*
X0068644Y0050112D02*
X0065573Y0050112D01*
X0065573Y0050113D02*
X0068644Y0050113D01*
X0068644Y0050114D02*
X0065573Y0050114D01*
X0065573Y0050115D02*
X0068644Y0050115D01*
X0068644Y0050116D02*
X0065573Y0050116D01*
X0065573Y0050117D02*
X0068644Y0050117D01*
X0068644Y0050118D02*
X0065573Y0050118D01*
X0065573Y0050119D02*
X0068644Y0050119D01*
X0068644Y0050120D02*
X0065573Y0050120D01*
X0065573Y0050121D02*
X0068644Y0050121D01*
X0068644Y0050122D02*
X0065573Y0050122D01*
X0065573Y0050123D02*
X0068644Y0050123D01*
X0068644Y0050124D02*
X0065573Y0050124D01*
X0065573Y0050125D02*
X0068644Y0050125D01*
X0068644Y0050126D02*
X0065573Y0050126D01*
X0065573Y0050127D02*
X0068644Y0050127D01*
X0068644Y0050128D02*
X0065573Y0050128D01*
X0065573Y0050129D02*
X0068644Y0050129D01*
X0068644Y0050130D02*
X0065573Y0050130D01*
X0065573Y0050131D02*
X0068644Y0050131D01*
X0068644Y0050132D02*
X0065573Y0050132D01*
X0065573Y0050133D02*
X0068644Y0050133D01*
X0068644Y0050134D02*
X0065573Y0050134D01*
X0065573Y0050135D02*
X0068644Y0050135D01*
X0068644Y0050136D02*
X0065573Y0050136D01*
X0065573Y0050137D02*
X0068644Y0050137D01*
X0068644Y0050138D02*
X0065573Y0050138D01*
X0065573Y0050139D02*
X0068644Y0050139D01*
X0068644Y0050140D02*
X0065573Y0050140D01*
X0065573Y0050141D02*
X0068644Y0050141D01*
X0068644Y0050142D02*
X0065573Y0050142D01*
X0065573Y0050143D02*
X0068644Y0050143D01*
X0068644Y0050144D02*
X0065573Y0050144D01*
X0068644Y0050144D01*
X0068644Y0050145D02*
X0065573Y0050145D01*
X0065573Y0050146D02*
X0068644Y0050146D01*
X0068644Y0050147D02*
X0065573Y0050147D01*
X0065573Y0050148D02*
X0068644Y0050148D01*
X0068644Y0050149D02*
X0065573Y0050149D01*
X0065573Y0050150D02*
X0068644Y0050150D01*
X0068644Y0050151D02*
X0065573Y0050151D01*
X0065573Y0050152D02*
X0068644Y0050152D01*
X0068644Y0050153D02*
X0065573Y0050153D01*
X0065573Y0050154D02*
X0068644Y0050154D01*
X0068644Y0050155D02*
X0065573Y0050155D01*
X0065573Y0050156D02*
X0068644Y0050156D01*
X0068644Y0050157D02*
X0065573Y0050157D01*
X0065573Y0050158D02*
X0068644Y0050158D01*
X0068644Y0050159D02*
X0065573Y0050159D01*
X0065573Y0050160D02*
X0068644Y0050160D01*
X0068644Y0050161D02*
X0065573Y0050161D01*
X0065573Y0050162D02*
X0068644Y0050162D01*
X0068644Y0050163D02*
X0065573Y0050163D01*
X0065573Y0050164D02*
X0068644Y0050164D01*
X0068644Y0050165D02*
X0065573Y0050165D01*
X0065573Y0050166D02*
X0068644Y0050166D01*
X0068644Y0050167D02*
X0065573Y0050167D01*
X0065573Y0050168D02*
X0068644Y0050168D01*
X0068644Y0050169D02*
X0065573Y0050169D01*
X0065573Y0050170D02*
X0068644Y0050170D01*
X0068644Y0050171D02*
X0065573Y0050171D01*
X0065573Y0050172D02*
X0068644Y0050172D01*
X0068644Y0050173D02*
X0065573Y0050173D01*
X0065573Y0050174D02*
X0068644Y0050174D01*
X0068644Y0050175D02*
X0065573Y0050175D01*
X0065573Y0050176D02*
X0068644Y0050176D01*
X0068644Y0050177D02*
X0065573Y0050177D01*
X0065573Y0050178D02*
X0068644Y0050178D01*
X0068644Y0050179D02*
X0065573Y0050179D01*
X0065573Y0050180D02*
X0068644Y0050180D01*
X0068644Y0050181D02*
X0065573Y0050181D01*
X0065573Y0050182D02*
X0068644Y0050182D01*
X0068644Y0050183D02*
X0065573Y0050183D01*
X0065573Y0050184D02*
X0068644Y0050184D01*
X0068644Y0050185D02*
X0065573Y0050185D01*
X0065573Y0050186D02*
X0068644Y0050186D01*
X0068644Y0050187D02*
X0065573Y0050187D01*
X0065573Y0050188D02*
X0068644Y0050188D01*
X0068644Y0050189D02*
X0065573Y0050189D01*
X0065573Y0050190D02*
X0068644Y0050190D01*
X0068644Y0050191D02*
X0065573Y0050191D01*
X0065573Y0050192D02*
X0068644Y0050192D01*
X0068644Y0050193D02*
X0065573Y0050193D01*
X0065573Y0050194D02*
X0068644Y0050194D01*
X0068644Y0050195D02*
X0065573Y0050195D01*
X0065573Y0050196D02*
X0068644Y0050196D01*
X0068644Y0050197D02*
X0065573Y0050197D01*
X0065573Y0050198D02*
X0068644Y0050198D01*
X0068644Y0050199D02*
X0065573Y0050199D01*
X0065573Y0050200D02*
X0068644Y0050200D01*
X0068644Y0050201D02*
X0065573Y0050201D01*
X0065573Y0050202D02*
X0068644Y0050202D01*
X0068644Y0050203D02*
X0065573Y0050203D01*
X0065573Y0050204D02*
X0068644Y0050204D01*
X0068644Y0050205D02*
X0065573Y0050205D01*
X0065573Y0050206D02*
X0068644Y0050206D01*
X0065573Y0050206D01*
X0065573Y0050207D02*
X0068644Y0050207D01*
X0068644Y0050208D02*
X0065573Y0050208D01*
X0065573Y0050209D02*
X0068644Y0050209D01*
X0068644Y0050210D02*
X0065573Y0050210D01*
X0065573Y0050211D02*
X0068644Y0050211D01*
X0068644Y0050212D02*
X0065573Y0050212D01*
X0065573Y0050213D02*
X0068644Y0050213D01*
X0068644Y0050214D02*
X0065573Y0050214D01*
X0065573Y0050215D02*
X0068644Y0050215D01*
X0068644Y0050216D02*
X0065573Y0050216D01*
X0065573Y0050217D02*
X0068644Y0050217D01*
X0068644Y0050218D02*
X0065573Y0050218D01*
X0065573Y0050219D02*
X0068644Y0050219D01*
X0068644Y0050220D02*
X0065573Y0050220D01*
X0065573Y0050221D02*
X0068644Y0050221D01*
X0068644Y0050222D02*
X0065573Y0050222D01*
X0065573Y0050223D02*
X0068644Y0050223D01*
X0068644Y0050224D02*
X0065573Y0050224D01*
X0065573Y0050225D02*
X0068644Y0050225D01*
X0068644Y0050226D02*
X0065573Y0050226D01*
X0065573Y0050227D02*
X0068644Y0050227D01*
X0068644Y0050228D02*
X0065573Y0050228D01*
X0065573Y0050229D02*
X0068644Y0050229D01*
X0068644Y0050230D02*
X0065573Y0050230D01*
X0065573Y0050231D02*
X0068644Y0050231D01*
X0068644Y0050232D02*
X0065573Y0050232D01*
X0065573Y0050233D02*
X0068644Y0050233D01*
X0068644Y0050234D02*
X0065573Y0050234D01*
X0065573Y0050235D02*
X0068644Y0050235D01*
X0068644Y0050236D02*
X0065573Y0050236D01*
X0065573Y0050237D02*
X0068644Y0050237D01*
X0068644Y0050238D02*
X0065573Y0050238D01*
X0065573Y0050239D02*
X0068644Y0050239D01*
X0068644Y0050240D02*
X0065573Y0050240D01*
X0065573Y0050241D02*
X0068644Y0050241D01*
X0068644Y0050242D02*
X0065573Y0050242D01*
X0065573Y0050243D02*
X0068644Y0050243D01*
X0068644Y0050244D02*
X0065573Y0050244D01*
X0065573Y0050245D02*
X0068644Y0050245D01*
X0068644Y0050246D02*
X0065573Y0050246D01*
X0065573Y0050247D02*
X0068644Y0050247D01*
X0068644Y0050248D02*
X0065573Y0050248D01*
X0065573Y0050249D02*
X0068644Y0050249D01*
X0068644Y0050250D02*
X0065573Y0050250D01*
X0065573Y0050251D02*
X0068644Y0050251D01*
X0068644Y0050252D02*
X0065573Y0050252D01*
X0065573Y0050253D02*
X0068644Y0050253D01*
X0068644Y0050254D02*
X0065573Y0050254D01*
X0065573Y0050255D02*
X0068644Y0050255D01*
X0068644Y0050256D02*
X0065573Y0050256D01*
X0065573Y0050257D02*
X0068644Y0050257D01*
X0068644Y0050258D02*
X0065573Y0050258D01*
X0065573Y0050259D02*
X0068644Y0050259D01*
X0068644Y0050260D02*
X0065573Y0050260D01*
X0065573Y0050261D02*
X0068644Y0050261D01*
X0068644Y0050262D02*
X0065573Y0050262D01*
X0065573Y0050263D02*
X0068644Y0050263D01*
X0068644Y0050264D02*
X0065573Y0050264D01*
X0065573Y0050265D02*
X0068644Y0050265D01*
X0068644Y0050266D02*
X0065573Y0050266D01*
X0065573Y0050267D02*
X0068644Y0050267D01*
X0068644Y0050268D02*
X0065573Y0050268D01*
X0065573Y0050269D02*
X0068644Y0050269D01*
X0065573Y0050269D01*
X0065573Y0050270D02*
X0068644Y0050270D01*
X0068644Y0050271D02*
X0065573Y0050271D01*
X0065573Y0050272D02*
X0068644Y0050272D01*
X0068644Y0050273D02*
X0065573Y0050273D01*
X0065573Y0050274D02*
X0068644Y0050274D01*
X0068644Y0050275D02*
X0065573Y0050275D01*
X0065573Y0050276D02*
X0068644Y0050276D01*
X0068644Y0050277D02*
X0065573Y0050277D01*
X0065573Y0050278D02*
X0068644Y0050278D01*
X0068644Y0050279D02*
X0065573Y0050279D01*
X0065573Y0050280D02*
X0068644Y0050280D01*
X0068644Y0050281D02*
X0065573Y0050281D01*
X0065573Y0050282D02*
X0068644Y0050282D01*
X0068644Y0050283D02*
X0065573Y0050283D01*
X0065573Y0050284D02*
X0068644Y0050284D01*
X0068644Y0050285D02*
X0065573Y0050285D01*
X0065573Y0050286D02*
X0068644Y0050286D01*
X0068644Y0050287D02*
X0065573Y0050287D01*
X0065573Y0050288D02*
X0068644Y0050288D01*
X0068644Y0050289D02*
X0065573Y0050289D01*
X0065573Y0050290D02*
X0068644Y0050290D01*
X0068644Y0050291D02*
X0065573Y0050291D01*
X0065573Y0050292D02*
X0068644Y0050292D01*
X0068644Y0050293D02*
X0065573Y0050293D01*
X0065573Y0050294D02*
X0068644Y0050294D01*
X0068644Y0050295D02*
X0065573Y0050295D01*
X0065573Y0050296D02*
X0068644Y0050296D01*
X0068644Y0050297D02*
X0065573Y0050297D01*
X0065573Y0050298D02*
X0068644Y0050298D01*
X0068644Y0050299D02*
X0065573Y0050299D01*
X0065573Y0050300D02*
X0068644Y0050300D01*
X0068644Y0050301D02*
X0065573Y0050301D01*
X0065573Y0050302D02*
X0068644Y0050302D01*
X0068644Y0050303D02*
X0065573Y0050303D01*
X0065573Y0050304D02*
X0068644Y0050304D01*
X0068644Y0050305D02*
X0065573Y0050305D01*
X0065573Y0050306D02*
X0068644Y0050306D01*
X0068644Y0050307D02*
X0065573Y0050307D01*
X0065573Y0050308D02*
X0068644Y0050308D01*
X0068644Y0050309D02*
X0065573Y0050309D01*
X0065573Y0050310D02*
X0068644Y0050310D01*
X0068644Y0050311D02*
X0065573Y0050311D01*
X0065573Y0050312D02*
X0068644Y0050312D01*
X0068644Y0050313D02*
X0065573Y0050313D01*
X0065573Y0050314D02*
X0068644Y0050314D01*
X0068644Y0050315D02*
X0065573Y0050315D01*
X0065573Y0050316D02*
X0068644Y0050316D01*
X0068644Y0050317D02*
X0065573Y0050317D01*
X0065573Y0050318D02*
X0068644Y0050318D01*
X0068644Y0050319D02*
X0065573Y0050319D01*
X0065573Y0050320D02*
X0068644Y0050320D01*
X0068644Y0050321D02*
X0065573Y0050321D01*
X0065573Y0050322D02*
X0068644Y0050322D01*
X0068644Y0050323D02*
X0065573Y0050323D01*
X0065573Y0050324D02*
X0068644Y0050324D01*
X0068644Y0050325D02*
X0065573Y0050325D01*
X0065573Y0050326D02*
X0068644Y0050326D01*
X0068644Y0050327D02*
X0065573Y0050327D01*
X0065573Y0050328D02*
X0068644Y0050328D01*
X0068644Y0050329D02*
X0065573Y0050329D01*
X0065573Y0050330D02*
X0068644Y0050330D01*
X0068644Y0050331D02*
X0065573Y0050331D01*
X0068644Y0050331D01*
X0068644Y0050332D02*
X0065573Y0050332D01*
X0065573Y0050333D02*
X0068644Y0050333D01*
X0068644Y0050334D02*
X0065573Y0050334D01*
X0065573Y0050335D02*
X0068644Y0050335D01*
X0068644Y0050336D02*
X0065573Y0050336D01*
X0065573Y0050337D02*
X0068644Y0050337D01*
X0068644Y0050338D02*
X0065573Y0050338D01*
X0065573Y0050339D02*
X0068644Y0050339D01*
X0068644Y0050340D02*
X0065573Y0050340D01*
X0065573Y0050341D02*
X0068644Y0050341D01*
X0068644Y0050342D02*
X0065573Y0050342D01*
X0065573Y0050343D02*
X0068644Y0050343D01*
X0068644Y0050344D02*
X0065573Y0050344D01*
X0065573Y0050345D02*
X0068644Y0050345D01*
X0068644Y0050346D02*
X0065573Y0050346D01*
X0065573Y0050347D02*
X0068644Y0050347D01*
X0068644Y0050348D02*
X0065573Y0050348D01*
X0065573Y0050349D02*
X0068644Y0050349D01*
X0068644Y0050350D02*
X0065573Y0050350D01*
X0065573Y0050351D02*
X0068644Y0050351D01*
X0068644Y0050352D02*
X0065573Y0050352D01*
X0065573Y0050353D02*
X0068644Y0050353D01*
X0068644Y0050354D02*
X0065573Y0050354D01*
X0065573Y0050355D02*
X0068644Y0050355D01*
X0068644Y0050356D02*
X0065573Y0050356D01*
X0065573Y0050357D02*
X0068644Y0050357D01*
X0068644Y0050358D02*
X0065573Y0050358D01*
X0065573Y0050359D02*
X0068644Y0050359D01*
X0068644Y0050360D02*
X0065573Y0050360D01*
X0065573Y0050361D02*
X0068644Y0050361D01*
X0068644Y0050362D02*
X0065573Y0050362D01*
X0065573Y0050363D02*
X0068644Y0050363D01*
X0068644Y0050364D02*
X0065573Y0050364D01*
X0065573Y0050365D02*
X0068644Y0050365D01*
X0068644Y0050366D02*
X0065573Y0050366D01*
X0065573Y0050367D02*
X0068644Y0050367D01*
X0068644Y0050368D02*
X0065573Y0050368D01*
X0065573Y0050369D02*
X0068644Y0050369D01*
X0068644Y0050370D02*
X0065573Y0050370D01*
X0065573Y0050371D02*
X0068644Y0050371D01*
X0068644Y0050372D02*
X0065573Y0050372D01*
X0065573Y0050373D02*
X0068644Y0050373D01*
X0068644Y0050374D02*
X0065573Y0050374D01*
X0065573Y0050375D02*
X0068644Y0050375D01*
X0068644Y0050376D02*
X0065573Y0050376D01*
X0065573Y0050377D02*
X0068644Y0050377D01*
X0068644Y0050378D02*
X0065573Y0050378D01*
X0065573Y0050379D02*
X0068644Y0050379D01*
X0068644Y0050380D02*
X0065573Y0050380D01*
X0065573Y0050381D02*
X0068644Y0050381D01*
X0068644Y0050382D02*
X0065573Y0050382D01*
X0065573Y0050383D02*
X0068644Y0050383D01*
X0068644Y0050384D02*
X0065573Y0050384D01*
X0065573Y0050385D02*
X0068644Y0050385D01*
X0068644Y0050386D02*
X0065573Y0050386D01*
X0065573Y0050387D02*
X0068644Y0050387D01*
X0068644Y0050388D02*
X0065573Y0050388D01*
X0065573Y0050389D02*
X0068644Y0050389D01*
X0068644Y0050390D02*
X0065573Y0050390D01*
X0065573Y0050391D02*
X0068644Y0050391D01*
X0068644Y0050392D02*
X0065573Y0050392D01*
X0065573Y0050393D02*
X0068644Y0050393D01*
X0068644Y0050394D02*
X0065573Y0050394D01*
X0068644Y0050394D01*
X0068644Y0050395D02*
X0065573Y0050395D01*
X0065573Y0050396D02*
X0068644Y0050396D01*
X0068644Y0050397D02*
X0065573Y0050397D01*
X0065573Y0050398D02*
X0068644Y0050398D01*
X0068644Y0050399D02*
X0065573Y0050399D01*
X0065573Y0050400D02*
X0068644Y0050400D01*
X0068644Y0050401D02*
X0065573Y0050401D01*
X0065573Y0050402D02*
X0068644Y0050402D01*
X0068644Y0050403D02*
X0065573Y0050403D01*
X0065573Y0050404D02*
X0068644Y0050404D01*
X0068644Y0050405D02*
X0065573Y0050405D01*
X0065573Y0050406D02*
X0068644Y0050406D01*
X0068644Y0050407D02*
X0065573Y0050407D01*
X0065573Y0050408D02*
X0068644Y0050408D01*
X0068644Y0050409D02*
X0065573Y0050409D01*
X0065573Y0050410D02*
X0068644Y0050410D01*
X0068644Y0050411D02*
X0065573Y0050411D01*
X0065573Y0050412D02*
X0068644Y0050412D01*
X0068644Y0050413D02*
X0065573Y0050413D01*
X0065573Y0050414D02*
X0068644Y0050414D01*
X0068644Y0050415D02*
X0065573Y0050415D01*
X0065573Y0050416D02*
X0068644Y0050416D01*
X0068644Y0050417D02*
X0065573Y0050417D01*
X0065573Y0050418D02*
X0068644Y0050418D01*
X0068644Y0050419D02*
X0065573Y0050419D01*
X0065573Y0050420D02*
X0068644Y0050420D01*
X0068644Y0050421D02*
X0065573Y0050421D01*
X0065573Y0050422D02*
X0067305Y0050422D01*
X0067305Y0050423D02*
X0065573Y0050423D01*
X0065573Y0050424D02*
X0067305Y0050424D01*
X0067305Y0050425D02*
X0065573Y0050425D01*
X0065573Y0050426D02*
X0067305Y0050426D01*
X0067305Y0050427D02*
X0065573Y0050427D01*
X0065573Y0050428D02*
X0067305Y0050428D01*
X0067305Y0050429D02*
X0065573Y0050429D01*
X0065573Y0050430D02*
X0067305Y0050430D01*
X0067305Y0050431D02*
X0065573Y0050431D01*
X0065573Y0050432D02*
X0067305Y0050432D01*
X0067305Y0050433D02*
X0065573Y0050433D01*
X0065573Y0050434D02*
X0067305Y0050434D01*
X0067305Y0050435D02*
X0065573Y0050435D01*
X0065573Y0050436D02*
X0067305Y0050436D01*
X0067305Y0050437D02*
X0065573Y0050437D01*
X0065573Y0050438D02*
X0067305Y0050438D01*
X0067305Y0050439D02*
X0065573Y0050439D01*
X0065573Y0050440D02*
X0067305Y0050440D01*
X0067305Y0050441D02*
X0065573Y0050441D01*
X0065573Y0050442D02*
X0067305Y0050442D01*
X0067305Y0050443D02*
X0065573Y0050443D01*
X0065573Y0050444D02*
X0067305Y0050444D01*
X0067305Y0050445D02*
X0065573Y0050445D01*
X0065573Y0050446D02*
X0067305Y0050446D01*
X0067305Y0050447D02*
X0065573Y0050447D01*
X0065573Y0050448D02*
X0067305Y0050448D01*
X0067305Y0050449D02*
X0065573Y0050449D01*
X0065573Y0050450D02*
X0067305Y0050450D01*
X0067305Y0050451D02*
X0065573Y0050451D01*
X0065573Y0050452D02*
X0067305Y0050452D01*
X0067305Y0050453D02*
X0065573Y0050453D01*
X0065573Y0050454D02*
X0067305Y0050454D01*
X0067305Y0050455D02*
X0065573Y0050455D01*
X0065573Y0050456D02*
X0067305Y0050456D01*
X0065573Y0050456D01*
X0065573Y0050457D02*
X0067305Y0050457D01*
X0067305Y0050458D02*
X0065573Y0050458D01*
X0065573Y0050459D02*
X0067305Y0050459D01*
X0067305Y0050460D02*
X0065573Y0050460D01*
X0065573Y0050461D02*
X0067305Y0050461D01*
X0067305Y0050462D02*
X0065573Y0050462D01*
X0065573Y0050463D02*
X0067305Y0050463D01*
X0067305Y0050464D02*
X0065573Y0050464D01*
X0065573Y0050465D02*
X0067305Y0050465D01*
X0067305Y0050466D02*
X0065573Y0050466D01*
X0065573Y0050467D02*
X0067305Y0050467D01*
X0067305Y0050468D02*
X0065573Y0050468D01*
X0065573Y0050469D02*
X0067305Y0050469D01*
X0067305Y0050470D02*
X0065573Y0050470D01*
X0065573Y0050471D02*
X0067305Y0050471D01*
X0067305Y0050472D02*
X0065573Y0050472D01*
X0065573Y0050473D02*
X0067305Y0050473D01*
X0067305Y0050474D02*
X0065573Y0050474D01*
X0065573Y0050475D02*
X0067305Y0050475D01*
X0067305Y0050476D02*
X0065573Y0050476D01*
X0065573Y0050477D02*
X0067305Y0050477D01*
X0067305Y0050478D02*
X0065573Y0050478D01*
X0065573Y0050479D02*
X0067305Y0050479D01*
X0067305Y0050480D02*
X0065573Y0050480D01*
X0065573Y0050481D02*
X0067305Y0050481D01*
X0067305Y0050482D02*
X0065573Y0050482D01*
X0065573Y0050483D02*
X0067305Y0050483D01*
X0067305Y0050484D02*
X0065573Y0050484D01*
X0065573Y0050485D02*
X0067305Y0050485D01*
X0067305Y0050486D02*
X0065573Y0050486D01*
X0065573Y0050487D02*
X0067305Y0050487D01*
X0067305Y0050488D02*
X0065573Y0050488D01*
X0065573Y0050489D02*
X0067305Y0050489D01*
X0067305Y0050490D02*
X0065573Y0050490D01*
X0065573Y0050491D02*
X0067305Y0050491D01*
X0067305Y0050492D02*
X0065573Y0050492D01*
X0065573Y0050493D02*
X0067305Y0050493D01*
X0067305Y0050494D02*
X0065573Y0050494D01*
X0065573Y0050495D02*
X0067305Y0050495D01*
X0067305Y0050496D02*
X0065573Y0050496D01*
X0065573Y0050497D02*
X0067305Y0050497D01*
X0067305Y0050498D02*
X0065573Y0050498D01*
X0065573Y0050499D02*
X0067305Y0050499D01*
X0067305Y0050500D02*
X0065573Y0050500D01*
X0065573Y0050501D02*
X0067305Y0050501D01*
X0067305Y0050502D02*
X0065573Y0050502D01*
X0065573Y0050503D02*
X0067305Y0050503D01*
X0067305Y0050504D02*
X0065573Y0050504D01*
X0065573Y0050505D02*
X0067305Y0050505D01*
X0067305Y0050506D02*
X0065573Y0050506D01*
X0065573Y0050507D02*
X0067305Y0050507D01*
X0067305Y0050508D02*
X0065573Y0050508D01*
X0065573Y0050509D02*
X0067305Y0050509D01*
X0067305Y0050510D02*
X0065573Y0050510D01*
X0065573Y0050511D02*
X0067305Y0050511D01*
X0067305Y0050512D02*
X0065573Y0050512D01*
X0065573Y0050513D02*
X0067305Y0050513D01*
X0067305Y0050514D02*
X0065573Y0050514D01*
X0065573Y0050515D02*
X0067305Y0050515D01*
X0067305Y0050516D02*
X0065573Y0050516D01*
X0065573Y0050517D02*
X0067305Y0050517D01*
X0067305Y0050518D02*
X0065573Y0050518D01*
X0065573Y0050519D02*
X0067305Y0050519D01*
X0065573Y0050519D01*
X0065573Y0050520D02*
X0067305Y0050520D01*
X0067305Y0050521D02*
X0065573Y0050521D01*
X0065573Y0050522D02*
X0067305Y0050522D01*
X0067305Y0050523D02*
X0065573Y0050523D01*
X0065573Y0050524D02*
X0067305Y0050524D01*
X0067305Y0050525D02*
X0065573Y0050525D01*
X0065573Y0050526D02*
X0067305Y0050526D01*
X0067305Y0050527D02*
X0065573Y0050527D01*
X0065573Y0050528D02*
X0067305Y0050528D01*
X0067305Y0050529D02*
X0065573Y0050529D01*
X0065573Y0050530D02*
X0067305Y0050530D01*
X0067305Y0050531D02*
X0065573Y0050531D01*
X0065573Y0050532D02*
X0067305Y0050532D01*
X0067305Y0050533D02*
X0065573Y0050533D01*
X0065573Y0050534D02*
X0067305Y0050534D01*
X0067305Y0050535D02*
X0065573Y0050535D01*
X0065573Y0050536D02*
X0067305Y0050536D01*
X0067305Y0050537D02*
X0065573Y0050537D01*
X0065573Y0050538D02*
X0067305Y0050538D01*
X0067305Y0050539D02*
X0065573Y0050539D01*
X0065573Y0050540D02*
X0067305Y0050540D01*
X0067305Y0050541D02*
X0065573Y0050541D01*
X0065573Y0050542D02*
X0067305Y0050542D01*
X0067305Y0050543D02*
X0065573Y0050543D01*
X0065573Y0050544D02*
X0067305Y0050544D01*
X0067305Y0050545D02*
X0065573Y0050545D01*
X0065573Y0050546D02*
X0067305Y0050546D01*
X0067305Y0050547D02*
X0065573Y0050547D01*
X0065573Y0050548D02*
X0067305Y0050548D01*
X0067305Y0050549D02*
X0065573Y0050549D01*
X0065573Y0050550D02*
X0067305Y0050550D01*
X0067305Y0050551D02*
X0065573Y0050551D01*
X0065573Y0050552D02*
X0067305Y0050552D01*
X0067305Y0050553D02*
X0065573Y0050553D01*
X0065573Y0050554D02*
X0067305Y0050554D01*
X0067305Y0050555D02*
X0065573Y0050555D01*
X0065573Y0050556D02*
X0067305Y0050556D01*
X0067305Y0050557D02*
X0065573Y0050557D01*
X0065573Y0050558D02*
X0067305Y0050558D01*
X0067305Y0050559D02*
X0065573Y0050559D01*
X0065573Y0050560D02*
X0067305Y0050560D01*
X0067305Y0050561D02*
X0065573Y0050561D01*
X0065573Y0050562D02*
X0067305Y0050562D01*
X0067305Y0050563D02*
X0065573Y0050563D01*
X0065573Y0050564D02*
X0067305Y0050564D01*
X0067305Y0050565D02*
X0065573Y0050565D01*
X0065573Y0050566D02*
X0067305Y0050566D01*
X0067305Y0050567D02*
X0065573Y0050567D01*
X0065573Y0050568D02*
X0067305Y0050568D01*
X0067305Y0050569D02*
X0065573Y0050569D01*
X0065573Y0050570D02*
X0067305Y0050570D01*
X0067305Y0050571D02*
X0065573Y0050571D01*
X0065573Y0050572D02*
X0067305Y0050572D01*
X0067305Y0050573D02*
X0065573Y0050573D01*
X0065573Y0050574D02*
X0067305Y0050574D01*
X0067305Y0050575D02*
X0065573Y0050575D01*
X0065573Y0050576D02*
X0067305Y0050576D01*
X0067305Y0050577D02*
X0065573Y0050577D01*
X0065573Y0050578D02*
X0067305Y0050578D01*
X0067305Y0050579D02*
X0065573Y0050579D01*
X0065573Y0050580D02*
X0067305Y0050580D01*
X0067305Y0050581D02*
X0065573Y0050581D01*
X0067305Y0050581D01*
X0067305Y0050582D02*
X0065573Y0050582D01*
X0065573Y0050583D02*
X0067305Y0050583D01*
X0067305Y0050584D02*
X0065573Y0050584D01*
X0065573Y0050585D02*
X0067305Y0050585D01*
X0067305Y0050586D02*
X0065573Y0050586D01*
X0065573Y0050587D02*
X0067305Y0050587D01*
X0067305Y0050588D02*
X0065573Y0050588D01*
X0065573Y0050589D02*
X0067305Y0050589D01*
X0067305Y0050590D02*
X0065573Y0050590D01*
X0065573Y0050591D02*
X0067305Y0050591D01*
X0067305Y0050592D02*
X0065573Y0050592D01*
X0065573Y0050593D02*
X0067305Y0050593D01*
X0067305Y0050594D02*
X0065573Y0050594D01*
X0065573Y0050595D02*
X0067305Y0050595D01*
X0067305Y0050596D02*
X0065573Y0050596D01*
X0065573Y0050597D02*
X0067305Y0050597D01*
X0067305Y0050598D02*
X0065573Y0050598D01*
X0065573Y0050599D02*
X0067305Y0050599D01*
X0067305Y0050600D02*
X0065573Y0050600D01*
X0065573Y0050601D02*
X0067305Y0050601D01*
X0067305Y0050602D02*
X0065573Y0050602D01*
X0065573Y0050603D02*
X0067305Y0050603D01*
X0067305Y0050604D02*
X0065573Y0050604D01*
X0065573Y0050605D02*
X0067305Y0050605D01*
X0067305Y0050606D02*
X0065573Y0050606D01*
X0065573Y0050607D02*
X0067305Y0050607D01*
X0067305Y0050608D02*
X0065573Y0050608D01*
X0065573Y0050609D02*
X0067305Y0050609D01*
X0067305Y0050610D02*
X0065573Y0050610D01*
X0065573Y0050611D02*
X0067305Y0050611D01*
X0067305Y0050612D02*
X0065573Y0050612D01*
X0065573Y0050613D02*
X0067305Y0050613D01*
X0067305Y0050614D02*
X0065573Y0050614D01*
X0065573Y0050615D02*
X0067305Y0050615D01*
X0067305Y0050616D02*
X0065573Y0050616D01*
X0065573Y0050617D02*
X0067305Y0050617D01*
X0067305Y0050618D02*
X0065573Y0050618D01*
X0065573Y0050619D02*
X0067305Y0050619D01*
X0067305Y0050620D02*
X0065573Y0050620D01*
X0065573Y0050621D02*
X0067305Y0050621D01*
X0067305Y0050622D02*
X0065573Y0050622D01*
X0065573Y0050623D02*
X0067305Y0050623D01*
X0067305Y0050624D02*
X0065573Y0050624D01*
X0065573Y0050625D02*
X0067305Y0050625D01*
X0067305Y0050626D02*
X0065573Y0050626D01*
X0065573Y0050627D02*
X0067305Y0050627D01*
X0067305Y0050628D02*
X0065573Y0050628D01*
X0065573Y0050629D02*
X0067305Y0050629D01*
X0067305Y0050630D02*
X0065573Y0050630D01*
X0065573Y0050631D02*
X0067305Y0050631D01*
X0067305Y0050632D02*
X0065573Y0050632D01*
X0065573Y0050633D02*
X0067305Y0050633D01*
X0067305Y0050634D02*
X0065573Y0050634D01*
X0065573Y0050635D02*
X0067305Y0050635D01*
X0067305Y0050636D02*
X0065573Y0050636D01*
X0065573Y0050637D02*
X0067305Y0050637D01*
X0067305Y0050638D02*
X0065573Y0050638D01*
X0065573Y0050639D02*
X0067305Y0050639D01*
X0067305Y0050640D02*
X0065573Y0050640D01*
X0065573Y0050641D02*
X0067305Y0050641D01*
X0067305Y0050642D02*
X0065573Y0050642D01*
X0065573Y0050643D02*
X0067305Y0050643D01*
X0067305Y0050644D02*
X0065573Y0050644D01*
X0067305Y0050644D01*
X0067305Y0050645D02*
X0065573Y0050645D01*
X0065573Y0050646D02*
X0067305Y0050646D01*
X0067305Y0050647D02*
X0065573Y0050647D01*
X0065573Y0050648D02*
X0067305Y0050648D01*
X0067305Y0050649D02*
X0065573Y0050649D01*
X0065573Y0050650D02*
X0067305Y0050650D01*
X0067305Y0050651D02*
X0065573Y0050651D01*
X0065573Y0050652D02*
X0067305Y0050652D01*
X0067305Y0050653D02*
X0065573Y0050653D01*
X0065573Y0050654D02*
X0067305Y0050654D01*
X0067305Y0050655D02*
X0065573Y0050655D01*
X0065573Y0050656D02*
X0067305Y0050656D01*
X0067305Y0050657D02*
X0065573Y0050657D01*
X0065573Y0050658D02*
X0067305Y0050658D01*
X0067305Y0050659D02*
X0065573Y0050659D01*
X0065573Y0050660D02*
X0067305Y0050660D01*
X0067305Y0050661D02*
X0065573Y0050661D01*
X0065573Y0050662D02*
X0067305Y0050662D01*
X0067305Y0050663D02*
X0065573Y0050663D01*
X0065573Y0050664D02*
X0067305Y0050664D01*
X0067305Y0050665D02*
X0065573Y0050665D01*
X0065573Y0050666D02*
X0067305Y0050666D01*
X0067305Y0050667D02*
X0065573Y0050667D01*
X0065573Y0050668D02*
X0067305Y0050668D01*
X0067305Y0050669D02*
X0065573Y0050669D01*
X0065573Y0050670D02*
X0067305Y0050670D01*
X0067305Y0050671D02*
X0065573Y0050671D01*
X0065573Y0050672D02*
X0067305Y0050672D01*
X0067305Y0050673D02*
X0065573Y0050673D01*
X0065573Y0050674D02*
X0067305Y0050674D01*
X0067305Y0050675D02*
X0065573Y0050675D01*
X0065573Y0050676D02*
X0067305Y0050676D01*
X0067305Y0050677D02*
X0065573Y0050677D01*
X0065573Y0050678D02*
X0067305Y0050678D01*
X0067305Y0050679D02*
X0065573Y0050679D01*
X0065573Y0050680D02*
X0067305Y0050680D01*
X0067305Y0050681D02*
X0065573Y0050681D01*
X0065573Y0050682D02*
X0067305Y0050682D01*
X0067305Y0050683D02*
X0065573Y0050683D01*
X0065573Y0050684D02*
X0067305Y0050684D01*
X0067305Y0050685D02*
X0065573Y0050685D01*
X0065573Y0050686D02*
X0067305Y0050686D01*
X0067305Y0050687D02*
X0065573Y0050687D01*
X0065573Y0050688D02*
X0067305Y0050688D01*
X0067305Y0050689D02*
X0065573Y0050689D01*
X0065573Y0050690D02*
X0067305Y0050690D01*
X0067305Y0050691D02*
X0065573Y0050691D01*
X0065573Y0050692D02*
X0067305Y0050692D01*
X0067305Y0050693D02*
X0065573Y0050693D01*
X0065573Y0050694D02*
X0067305Y0050694D01*
X0067305Y0050695D02*
X0065573Y0050695D01*
X0065573Y0050696D02*
X0067305Y0050696D01*
X0067305Y0050697D02*
X0065573Y0050697D01*
X0065573Y0050698D02*
X0067305Y0050698D01*
X0067305Y0050699D02*
X0065573Y0050699D01*
X0065573Y0050700D02*
X0067305Y0050700D01*
X0067305Y0050701D02*
X0065573Y0050701D01*
X0065573Y0050702D02*
X0067305Y0050702D01*
X0067305Y0050703D02*
X0065573Y0050703D01*
X0065573Y0050704D02*
X0067305Y0050704D01*
X0067305Y0050705D02*
X0065573Y0050705D01*
X0065573Y0050706D02*
X0067305Y0050706D01*
X0065573Y0050706D01*
X0065573Y0050707D02*
X0067305Y0050707D01*
X0067305Y0050708D02*
X0065573Y0050708D01*
X0065573Y0050709D02*
X0067305Y0050709D01*
X0067305Y0050710D02*
X0065573Y0050710D01*
X0065573Y0050711D02*
X0067305Y0050711D01*
X0067305Y0050712D02*
X0065573Y0050712D01*
X0065573Y0050713D02*
X0067305Y0050713D01*
X0067305Y0050714D02*
X0065573Y0050714D01*
X0065573Y0050715D02*
X0067305Y0050715D01*
X0067305Y0050716D02*
X0065573Y0050716D01*
X0065573Y0050717D02*
X0067305Y0050717D01*
X0067305Y0050718D02*
X0065573Y0050718D01*
X0065573Y0050719D02*
X0067305Y0050719D01*
X0067305Y0050720D02*
X0065573Y0050720D01*
X0065573Y0050721D02*
X0067305Y0050721D01*
X0067305Y0050722D02*
X0065573Y0050722D01*
X0065573Y0050723D02*
X0067305Y0050723D01*
X0067305Y0050724D02*
X0065573Y0050724D01*
X0065573Y0050725D02*
X0067305Y0050725D01*
X0067305Y0050726D02*
X0065573Y0050726D01*
X0065573Y0050727D02*
X0067305Y0050727D01*
X0067305Y0050728D02*
X0065573Y0050728D01*
X0065573Y0050729D02*
X0067305Y0050729D01*
X0067305Y0050730D02*
X0065573Y0050730D01*
X0065573Y0050731D02*
X0067305Y0050731D01*
X0067305Y0050732D02*
X0065573Y0050732D01*
X0065573Y0050733D02*
X0067305Y0050733D01*
X0067305Y0050734D02*
X0065573Y0050734D01*
X0065573Y0050735D02*
X0067305Y0050735D01*
X0067305Y0050736D02*
X0065573Y0050736D01*
X0065573Y0050737D02*
X0067305Y0050737D01*
X0067305Y0050738D02*
X0065573Y0050738D01*
X0065573Y0050739D02*
X0067305Y0050739D01*
X0067305Y0050740D02*
X0065573Y0050740D01*
X0065573Y0050741D02*
X0067305Y0050741D01*
X0067305Y0050742D02*
X0065573Y0050742D01*
X0065573Y0050743D02*
X0067305Y0050743D01*
X0067305Y0050744D02*
X0065573Y0050744D01*
X0065573Y0050745D02*
X0067305Y0050745D01*
X0067305Y0050746D02*
X0065573Y0050746D01*
X0065573Y0050747D02*
X0067305Y0050747D01*
X0067305Y0050748D02*
X0065573Y0050748D01*
X0065573Y0050749D02*
X0067305Y0050749D01*
X0067305Y0050750D02*
X0065573Y0050750D01*
X0065573Y0050751D02*
X0067305Y0050751D01*
X0067305Y0050752D02*
X0065573Y0050752D01*
X0065573Y0050753D02*
X0067305Y0050753D01*
X0067305Y0050754D02*
X0065573Y0050754D01*
X0065573Y0050755D02*
X0067305Y0050755D01*
X0067305Y0050756D02*
X0065573Y0050756D01*
X0065573Y0050757D02*
X0067305Y0050757D01*
X0067305Y0050758D02*
X0065573Y0050758D01*
X0065573Y0050759D02*
X0067305Y0050759D01*
X0067305Y0050760D02*
X0065573Y0050760D01*
X0065573Y0050761D02*
X0067305Y0050761D01*
X0067305Y0050762D02*
X0065573Y0050762D01*
X0065573Y0050763D02*
X0067305Y0050763D01*
X0067305Y0050764D02*
X0065573Y0050764D01*
X0065573Y0050765D02*
X0067305Y0050765D01*
X0067305Y0050766D02*
X0065573Y0050766D01*
X0065573Y0050767D02*
X0067305Y0050767D01*
X0067305Y0050768D02*
X0065573Y0050768D01*
X0065573Y0050769D02*
X0067305Y0050769D01*
X0065573Y0050769D01*
X0065573Y0050770D02*
X0067305Y0050770D01*
X0067305Y0050771D02*
X0065573Y0050771D01*
X0065573Y0050772D02*
X0067305Y0050772D01*
X0067305Y0050773D02*
X0065573Y0050773D01*
X0065573Y0050774D02*
X0067305Y0050774D01*
X0067305Y0050775D02*
X0065573Y0050775D01*
X0065573Y0050776D02*
X0067305Y0050776D01*
X0067305Y0050777D02*
X0065573Y0050777D01*
X0065573Y0050778D02*
X0067305Y0050778D01*
X0067305Y0050779D02*
X0065573Y0050779D01*
X0065573Y0050780D02*
X0067305Y0050780D01*
X0067305Y0050781D02*
X0065573Y0050781D01*
X0065573Y0050782D02*
X0067305Y0050782D01*
X0067305Y0050783D02*
X0065573Y0050783D01*
X0065573Y0050784D02*
X0067305Y0050784D01*
X0067305Y0050785D02*
X0065573Y0050785D01*
X0065573Y0050786D02*
X0067305Y0050786D01*
X0067305Y0050787D02*
X0065573Y0050787D01*
X0065573Y0050788D02*
X0067305Y0050788D01*
X0067305Y0050789D02*
X0065573Y0050789D01*
X0065573Y0050790D02*
X0067305Y0050790D01*
X0067305Y0050791D02*
X0065573Y0050791D01*
X0065573Y0050792D02*
X0067305Y0050792D01*
X0067305Y0050793D02*
X0065573Y0050793D01*
X0065573Y0050794D02*
X0067305Y0050794D01*
X0067305Y0050795D02*
X0065573Y0050795D01*
X0065573Y0050796D02*
X0067305Y0050796D01*
X0067305Y0050797D02*
X0065573Y0050797D01*
X0065573Y0050798D02*
X0067305Y0050798D01*
X0067305Y0050799D02*
X0065573Y0050799D01*
X0065573Y0050800D02*
X0067305Y0050800D01*
X0067305Y0050801D02*
X0065573Y0050801D01*
X0065573Y0050802D02*
X0067305Y0050802D01*
X0067305Y0050803D02*
X0065573Y0050803D01*
X0065573Y0050804D02*
X0067305Y0050804D01*
X0067305Y0050805D02*
X0065573Y0050805D01*
X0065573Y0050806D02*
X0067305Y0050806D01*
X0067305Y0050807D02*
X0065573Y0050807D01*
X0065573Y0050808D02*
X0067305Y0050808D01*
X0067305Y0050809D02*
X0065573Y0050809D01*
X0065573Y0050810D02*
X0067305Y0050810D01*
X0067305Y0050811D02*
X0065573Y0050811D01*
X0065573Y0050812D02*
X0067305Y0050812D01*
X0067305Y0050813D02*
X0065573Y0050813D01*
X0065573Y0050814D02*
X0067305Y0050814D01*
X0067305Y0050815D02*
X0065573Y0050815D01*
X0065573Y0050816D02*
X0067305Y0050816D01*
X0067305Y0050817D02*
X0065573Y0050817D01*
X0065573Y0050818D02*
X0067305Y0050818D01*
X0067305Y0050819D02*
X0065573Y0050819D01*
X0065573Y0050820D02*
X0067305Y0050820D01*
X0067305Y0050821D02*
X0065573Y0050821D01*
X0065573Y0050822D02*
X0067305Y0050822D01*
X0067305Y0050823D02*
X0065573Y0050823D01*
X0065573Y0050824D02*
X0067305Y0050824D01*
X0067305Y0050825D02*
X0065573Y0050825D01*
X0065573Y0050826D02*
X0067305Y0050826D01*
X0067305Y0050827D02*
X0065573Y0050827D01*
X0065573Y0050828D02*
X0067305Y0050828D01*
X0067305Y0050829D02*
X0065573Y0050829D01*
X0065573Y0050830D02*
X0067305Y0050830D01*
X0067305Y0050831D02*
X0065573Y0050831D01*
X0067305Y0050831D01*
X0067305Y0050832D02*
X0065573Y0050832D01*
X0065573Y0050833D02*
X0067305Y0050833D01*
X0067305Y0050834D02*
X0065573Y0050834D01*
X0065573Y0050835D02*
X0067305Y0050835D01*
X0067305Y0050836D02*
X0065573Y0050836D01*
X0065573Y0050837D02*
X0067305Y0050837D01*
X0067305Y0050838D02*
X0065573Y0050838D01*
X0065573Y0050839D02*
X0067305Y0050839D01*
X0067305Y0050840D02*
X0065573Y0050840D01*
X0065573Y0050841D02*
X0067305Y0050841D01*
X0067305Y0050842D02*
X0065573Y0050842D01*
X0065573Y0050843D02*
X0067305Y0050843D01*
X0067305Y0050844D02*
X0065573Y0050844D01*
X0065573Y0050845D02*
X0067305Y0050845D01*
X0067305Y0050846D02*
X0065573Y0050846D01*
X0065573Y0050847D02*
X0067305Y0050847D01*
X0067305Y0050848D02*
X0065573Y0050848D01*
X0065573Y0050849D02*
X0067305Y0050849D01*
X0067305Y0050850D02*
X0065573Y0050850D01*
X0065573Y0050851D02*
X0067305Y0050851D01*
X0067305Y0050852D02*
X0065573Y0050852D01*
X0065573Y0050853D02*
X0067305Y0050853D01*
X0067305Y0050854D02*
X0065573Y0050854D01*
X0065573Y0050855D02*
X0067305Y0050855D01*
X0067305Y0050856D02*
X0065573Y0050856D01*
X0065573Y0050857D02*
X0067305Y0050857D01*
X0067305Y0050858D02*
X0065573Y0050858D01*
X0065573Y0050859D02*
X0067305Y0050859D01*
X0067305Y0050860D02*
X0065573Y0050860D01*
X0065573Y0050861D02*
X0067305Y0050861D01*
X0067305Y0050862D02*
X0065573Y0050862D01*
X0065573Y0050863D02*
X0067305Y0050863D01*
X0067305Y0050864D02*
X0065573Y0050864D01*
X0065573Y0050865D02*
X0067305Y0050865D01*
X0067305Y0050866D02*
X0065573Y0050866D01*
X0065573Y0050867D02*
X0067305Y0050867D01*
X0067305Y0050868D02*
X0065573Y0050868D01*
X0065573Y0050869D02*
X0067305Y0050869D01*
X0067305Y0050870D02*
X0065573Y0050870D01*
X0065573Y0050871D02*
X0067305Y0050871D01*
X0067305Y0050872D02*
X0065573Y0050872D01*
X0065573Y0050873D02*
X0067305Y0050873D01*
X0067305Y0050874D02*
X0065573Y0050874D01*
X0065573Y0050875D02*
X0067305Y0050875D01*
X0067305Y0050876D02*
X0065573Y0050876D01*
X0065573Y0050877D02*
X0067305Y0050877D01*
X0067305Y0050878D02*
X0065573Y0050878D01*
X0065573Y0050879D02*
X0067305Y0050879D01*
X0067305Y0050880D02*
X0065573Y0050880D01*
X0065573Y0050881D02*
X0067305Y0050881D01*
X0067305Y0050882D02*
X0065573Y0050882D01*
X0065573Y0050883D02*
X0067305Y0050883D01*
X0067305Y0050884D02*
X0065573Y0050884D01*
X0065573Y0050885D02*
X0067305Y0050885D01*
X0067305Y0050886D02*
X0065573Y0050886D01*
X0065573Y0050887D02*
X0067305Y0050887D01*
X0067305Y0050888D02*
X0065573Y0050888D01*
X0065573Y0050889D02*
X0067305Y0050889D01*
X0067305Y0050890D02*
X0065573Y0050890D01*
X0065573Y0050891D02*
X0067305Y0050891D01*
X0067305Y0050892D02*
X0065573Y0050892D01*
X0065573Y0050893D02*
X0067305Y0050893D01*
X0067305Y0050894D02*
X0065573Y0050894D01*
X0067305Y0050894D01*
X0067305Y0050895D02*
X0065573Y0050895D01*
X0065573Y0050896D02*
X0067305Y0050896D01*
X0067305Y0050897D02*
X0065573Y0050897D01*
X0065573Y0050898D02*
X0067305Y0050898D01*
X0067305Y0050899D02*
X0065573Y0050899D01*
X0065573Y0050900D02*
X0067305Y0050900D01*
X0067305Y0050901D02*
X0065573Y0050901D01*
X0065573Y0050902D02*
X0067305Y0050902D01*
X0067305Y0050903D02*
X0065573Y0050903D01*
X0065573Y0050904D02*
X0067305Y0050904D01*
X0067305Y0050905D02*
X0065573Y0050905D01*
X0065573Y0050906D02*
X0067305Y0050906D01*
X0067305Y0050907D02*
X0065573Y0050907D01*
X0065573Y0050908D02*
X0067305Y0050908D01*
X0067305Y0050909D02*
X0065573Y0050909D01*
X0065573Y0050910D02*
X0067305Y0050910D01*
X0067305Y0050911D02*
X0065573Y0050911D01*
X0065573Y0050912D02*
X0067305Y0050912D01*
X0067305Y0050913D02*
X0065573Y0050913D01*
X0065573Y0050914D02*
X0067305Y0050914D01*
X0067305Y0050915D02*
X0065573Y0050915D01*
X0065573Y0050916D02*
X0067305Y0050916D01*
X0067305Y0050917D02*
X0065573Y0050917D01*
X0065573Y0050918D02*
X0067305Y0050918D01*
X0067305Y0050919D02*
X0065573Y0050919D01*
X0065573Y0050920D02*
X0067305Y0050920D01*
X0067305Y0050921D02*
X0065573Y0050921D01*
X0065573Y0050922D02*
X0067305Y0050922D01*
X0067305Y0050923D02*
X0065573Y0050923D01*
X0065573Y0050924D02*
X0067305Y0050924D01*
X0067305Y0050925D02*
X0065573Y0050925D01*
X0065573Y0050926D02*
X0067305Y0050926D01*
X0067305Y0050927D02*
X0065573Y0050927D01*
X0065573Y0050928D02*
X0067305Y0050928D01*
X0067305Y0050929D02*
X0065573Y0050929D01*
X0065573Y0050930D02*
X0067305Y0050930D01*
X0067305Y0050931D02*
X0065573Y0050931D01*
X0065573Y0050932D02*
X0067305Y0050932D01*
X0067305Y0050933D02*
X0065573Y0050933D01*
X0065573Y0050934D02*
X0067305Y0050934D01*
X0067305Y0050935D02*
X0065573Y0050935D01*
X0065573Y0050936D02*
X0067305Y0050936D01*
X0067305Y0050937D02*
X0065573Y0050937D01*
X0065573Y0050938D02*
X0067305Y0050938D01*
X0067305Y0050939D02*
X0065573Y0050939D01*
X0065573Y0050940D02*
X0067305Y0050940D01*
X0067305Y0050941D02*
X0065573Y0050941D01*
X0065573Y0050942D02*
X0067305Y0050942D01*
X0067305Y0050943D02*
X0065573Y0050943D01*
X0065573Y0050944D02*
X0067305Y0050944D01*
X0067305Y0050945D02*
X0065573Y0050945D01*
X0065573Y0050946D02*
X0067305Y0050946D01*
X0067305Y0050947D02*
X0065573Y0050947D01*
X0065573Y0050948D02*
X0067305Y0050948D01*
X0067305Y0050949D02*
X0065573Y0050949D01*
X0065573Y0050950D02*
X0067305Y0050950D01*
X0067305Y0050951D02*
X0065573Y0050951D01*
X0065573Y0050952D02*
X0067305Y0050952D01*
X0067305Y0050953D02*
X0065573Y0050953D01*
X0065573Y0050954D02*
X0067305Y0050954D01*
X0067305Y0050955D02*
X0065573Y0050955D01*
X0065573Y0050956D02*
X0067305Y0050956D01*
X0065573Y0050956D01*
X0065573Y0050957D02*
X0067305Y0050957D01*
X0067305Y0050958D02*
X0065573Y0050958D01*
X0065573Y0050959D02*
X0067305Y0050959D01*
X0067305Y0050960D02*
X0065573Y0050960D01*
X0065573Y0050961D02*
X0067305Y0050961D01*
X0067305Y0050962D02*
X0065573Y0050962D01*
X0065573Y0050963D02*
X0067305Y0050963D01*
X0067305Y0050964D02*
X0065573Y0050964D01*
X0065573Y0050965D02*
X0067305Y0050965D01*
X0067305Y0050966D02*
X0065573Y0050966D01*
X0065573Y0050967D02*
X0067305Y0050967D01*
X0067305Y0050968D02*
X0065573Y0050968D01*
X0065573Y0050969D02*
X0067305Y0050969D01*
X0067305Y0050970D02*
X0065573Y0050970D01*
X0065573Y0050971D02*
X0067305Y0050971D01*
X0067305Y0050972D02*
X0065573Y0050972D01*
X0065573Y0050973D02*
X0067305Y0050973D01*
X0067305Y0050974D02*
X0065573Y0050974D01*
X0065573Y0050975D02*
X0067305Y0050975D01*
X0067305Y0050976D02*
X0065573Y0050976D01*
X0065573Y0050977D02*
X0067305Y0050977D01*
X0067305Y0050978D02*
X0065573Y0050978D01*
X0065573Y0050979D02*
X0067305Y0050979D01*
X0067305Y0050980D02*
X0065573Y0050980D01*
X0065573Y0050981D02*
X0067305Y0050981D01*
X0067305Y0050982D02*
X0065573Y0050982D01*
X0065573Y0050983D02*
X0067305Y0050983D01*
X0067305Y0050984D02*
X0065573Y0050984D01*
X0065573Y0050985D02*
X0067305Y0050985D01*
X0067305Y0050986D02*
X0065573Y0050986D01*
X0065573Y0050987D02*
X0067305Y0050987D01*
X0067305Y0050988D02*
X0065573Y0050988D01*
X0065573Y0050989D02*
X0067305Y0050989D01*
X0067305Y0050990D02*
X0065573Y0050990D01*
X0065573Y0050991D02*
X0067305Y0050991D01*
X0067305Y0050992D02*
X0065573Y0050992D01*
X0065573Y0050993D02*
X0067305Y0050993D01*
X0067305Y0050994D02*
X0065573Y0050994D01*
X0065573Y0050995D02*
X0067305Y0050995D01*
X0067305Y0050996D02*
X0065573Y0050996D01*
X0065573Y0050997D02*
X0067305Y0050997D01*
X0067305Y0050998D02*
X0065573Y0050998D01*
X0065573Y0050999D02*
X0067305Y0050999D01*
X0067305Y0051000D02*
X0065573Y0051000D01*
X0065573Y0051001D02*
X0067305Y0051001D01*
X0067305Y0051002D02*
X0065573Y0051002D01*
X0065573Y0051003D02*
X0067305Y0051003D01*
X0067305Y0051004D02*
X0065573Y0051004D01*
X0065573Y0051005D02*
X0067305Y0051005D01*
X0067305Y0051006D02*
X0065573Y0051006D01*
X0065573Y0051007D02*
X0067305Y0051007D01*
X0067305Y0051008D02*
X0065573Y0051008D01*
X0065573Y0051009D02*
X0067305Y0051009D01*
X0067305Y0051010D02*
X0065573Y0051010D01*
X0065573Y0051011D02*
X0067305Y0051011D01*
X0067305Y0051012D02*
X0065573Y0051012D01*
X0065573Y0051013D02*
X0067305Y0051013D01*
X0067305Y0051014D02*
X0065573Y0051014D01*
X0065573Y0051015D02*
X0067305Y0051015D01*
X0067305Y0051016D02*
X0065573Y0051016D01*
X0065573Y0051017D02*
X0067305Y0051017D01*
X0067305Y0051018D02*
X0065573Y0051018D01*
X0065573Y0051019D02*
X0067305Y0051019D01*
X0065573Y0051019D01*
X0065573Y0051020D02*
X0067305Y0051020D01*
X0067305Y0051021D02*
X0065573Y0051021D01*
X0065573Y0051022D02*
X0067305Y0051022D01*
X0067305Y0051023D02*
X0065573Y0051023D01*
X0065573Y0051024D02*
X0067305Y0051024D01*
X0067305Y0051025D02*
X0065573Y0051025D01*
X0065573Y0051026D02*
X0067305Y0051026D01*
X0067305Y0051027D02*
X0065573Y0051027D01*
X0065573Y0051028D02*
X0067305Y0051028D01*
X0067305Y0051029D02*
X0065573Y0051029D01*
X0065573Y0051030D02*
X0067305Y0051030D01*
X0067305Y0051031D02*
X0065573Y0051031D01*
X0065573Y0051032D02*
X0067305Y0051032D01*
X0067305Y0051033D02*
X0065573Y0051033D01*
X0065573Y0051034D02*
X0067305Y0051034D01*
X0067305Y0051035D02*
X0065573Y0051035D01*
X0065573Y0051036D02*
X0067305Y0051036D01*
X0067305Y0051037D02*
X0065573Y0051037D01*
X0065573Y0051038D02*
X0067305Y0051038D01*
X0067305Y0051039D02*
X0065573Y0051039D01*
X0065573Y0051040D02*
X0067305Y0051040D01*
X0067305Y0051041D02*
X0065573Y0051041D01*
X0065573Y0051042D02*
X0067305Y0051042D01*
X0067305Y0051043D02*
X0065573Y0051043D01*
X0065573Y0051044D02*
X0067305Y0051044D01*
X0067305Y0051045D02*
X0065573Y0051045D01*
X0065573Y0051046D02*
X0067305Y0051046D01*
X0067305Y0051047D02*
X0065573Y0051047D01*
X0065573Y0051048D02*
X0067305Y0051048D01*
X0067305Y0051049D02*
X0065573Y0051049D01*
X0065573Y0051050D02*
X0067305Y0051050D01*
X0067305Y0051051D02*
X0065573Y0051051D01*
X0065573Y0051052D02*
X0067305Y0051052D01*
X0067305Y0051053D02*
X0065573Y0051053D01*
X0065573Y0051054D02*
X0067305Y0051054D01*
X0067305Y0051055D02*
X0065573Y0051055D01*
X0065573Y0051056D02*
X0067305Y0051056D01*
X0067305Y0051057D02*
X0065573Y0051057D01*
X0065573Y0051058D02*
X0067305Y0051058D01*
X0067305Y0051059D02*
X0065573Y0051059D01*
X0065573Y0051060D02*
X0067305Y0051060D01*
X0067305Y0051061D02*
X0065573Y0051061D01*
X0065573Y0051062D02*
X0067305Y0051062D01*
X0067305Y0051063D02*
X0065573Y0051063D01*
X0065573Y0051064D02*
X0067305Y0051064D01*
X0067305Y0051065D02*
X0065573Y0051065D01*
X0065573Y0051066D02*
X0067305Y0051066D01*
X0067305Y0051067D02*
X0065573Y0051067D01*
X0065573Y0051068D02*
X0067305Y0051068D01*
X0067305Y0051069D02*
X0065573Y0051069D01*
X0065573Y0051070D02*
X0067305Y0051070D01*
X0067305Y0051071D02*
X0065573Y0051071D01*
X0065573Y0051072D02*
X0067305Y0051072D01*
X0067305Y0051073D02*
X0065573Y0051073D01*
X0065573Y0051074D02*
X0067305Y0051074D01*
X0067305Y0051075D02*
X0065573Y0051075D01*
X0065573Y0051076D02*
X0067305Y0051076D01*
X0067305Y0051077D02*
X0065573Y0051077D01*
X0065573Y0051078D02*
X0067305Y0051078D01*
X0067305Y0051079D02*
X0065573Y0051079D01*
X0065573Y0051080D02*
X0067305Y0051080D01*
X0067305Y0051081D02*
X0065573Y0051081D01*
X0067305Y0051081D01*
X0067305Y0051082D02*
X0065573Y0051082D01*
X0065573Y0051083D02*
X0067305Y0051083D01*
X0067305Y0051084D02*
X0065573Y0051084D01*
X0065573Y0051085D02*
X0067305Y0051085D01*
X0067305Y0051086D02*
X0065573Y0051086D01*
X0065573Y0051087D02*
X0067305Y0051087D01*
X0067305Y0051088D02*
X0065573Y0051088D01*
X0065573Y0051089D02*
X0067305Y0051089D01*
X0067305Y0051090D02*
X0065573Y0051090D01*
X0065573Y0051091D02*
X0067305Y0051091D01*
X0067305Y0051092D02*
X0065573Y0051092D01*
X0065573Y0051093D02*
X0067305Y0051093D01*
X0067305Y0051094D02*
X0065573Y0051094D01*
X0065573Y0051095D02*
X0067305Y0051095D01*
X0067305Y0051096D02*
X0065573Y0051096D01*
X0065573Y0051097D02*
X0067305Y0051097D01*
X0067305Y0051098D02*
X0065573Y0051098D01*
X0065573Y0051099D02*
X0067305Y0051099D01*
X0067305Y0051100D02*
X0065573Y0051100D01*
X0065573Y0051101D02*
X0067305Y0051101D01*
X0067305Y0051102D02*
X0065573Y0051102D01*
X0065573Y0051103D02*
X0067305Y0051103D01*
X0067305Y0051104D02*
X0065573Y0051104D01*
X0065573Y0051105D02*
X0067305Y0051105D01*
X0067305Y0051106D02*
X0065573Y0051106D01*
X0065573Y0051107D02*
X0067305Y0051107D01*
X0067305Y0051108D02*
X0065573Y0051108D01*
X0065573Y0051109D02*
X0067305Y0051109D01*
X0067305Y0051110D02*
X0065573Y0051110D01*
X0065573Y0051111D02*
X0067305Y0051111D01*
X0067305Y0051112D02*
X0065573Y0051112D01*
X0065573Y0051113D02*
X0067305Y0051113D01*
X0067305Y0051114D02*
X0065573Y0051114D01*
X0065573Y0051115D02*
X0067305Y0051115D01*
X0067305Y0051116D02*
X0065573Y0051116D01*
X0065573Y0051117D02*
X0067305Y0051117D01*
X0067305Y0051118D02*
X0065573Y0051118D01*
X0065573Y0051119D02*
X0067305Y0051119D01*
X0067305Y0051120D02*
X0065573Y0051120D01*
X0065573Y0051121D02*
X0067305Y0051121D01*
X0067305Y0051122D02*
X0065573Y0051122D01*
X0065573Y0051123D02*
X0067305Y0051123D01*
X0067305Y0051124D02*
X0065573Y0051124D01*
X0065573Y0051125D02*
X0067305Y0051125D01*
X0067305Y0051126D02*
X0065573Y0051126D01*
X0065573Y0051127D02*
X0067305Y0051127D01*
X0067305Y0051128D02*
X0065573Y0051128D01*
X0065573Y0051129D02*
X0067305Y0051129D01*
X0067305Y0051130D02*
X0065573Y0051130D01*
X0065573Y0051131D02*
X0067305Y0051131D01*
X0067305Y0051132D02*
X0065573Y0051132D01*
X0065573Y0051133D02*
X0067305Y0051133D01*
X0067305Y0051134D02*
X0065573Y0051134D01*
X0065573Y0051135D02*
X0067305Y0051135D01*
X0067305Y0051136D02*
X0065573Y0051136D01*
X0065573Y0051137D02*
X0067305Y0051137D01*
X0067305Y0051138D02*
X0065573Y0051138D01*
X0065573Y0051139D02*
X0067305Y0051139D01*
X0067305Y0051140D02*
X0065573Y0051140D01*
X0065573Y0051141D02*
X0067305Y0051141D01*
X0067305Y0051142D02*
X0065573Y0051142D01*
X0065573Y0051143D02*
X0067305Y0051143D01*
X0067305Y0051144D02*
X0065573Y0051144D01*
X0067305Y0051144D01*
X0067305Y0051145D02*
X0065573Y0051145D01*
X0065573Y0051146D02*
X0067305Y0051146D01*
X0067305Y0051147D02*
X0065573Y0051147D01*
X0065573Y0051148D02*
X0067305Y0051148D01*
X0067305Y0051149D02*
X0065573Y0051149D01*
X0065573Y0051150D02*
X0067305Y0051150D01*
X0067305Y0051151D02*
X0065573Y0051151D01*
X0065573Y0051152D02*
X0067305Y0051152D01*
X0067305Y0051153D02*
X0065573Y0051153D01*
X0065573Y0051154D02*
X0067305Y0051154D01*
X0067305Y0051155D02*
X0065573Y0051155D01*
X0065573Y0051156D02*
X0067305Y0051156D01*
X0067305Y0051157D02*
X0065573Y0051157D01*
X0065573Y0051158D02*
X0067305Y0051158D01*
X0067305Y0051159D02*
X0065573Y0051159D01*
X0065573Y0051160D02*
X0067305Y0051160D01*
X0067305Y0051161D02*
X0065573Y0051161D01*
X0065573Y0051162D02*
X0067305Y0051162D01*
X0067305Y0051163D02*
X0065573Y0051163D01*
X0065573Y0051164D02*
X0067305Y0051164D01*
X0067305Y0051165D02*
X0065573Y0051165D01*
X0065573Y0051166D02*
X0067305Y0051166D01*
X0067305Y0051167D02*
X0065573Y0051167D01*
X0065573Y0051168D02*
X0067305Y0051168D01*
X0067305Y0051169D02*
X0065573Y0051169D01*
X0065573Y0051170D02*
X0067305Y0051170D01*
X0067305Y0051171D02*
X0065573Y0051171D01*
X0065573Y0051172D02*
X0067305Y0051172D01*
X0067305Y0051173D02*
X0065573Y0051173D01*
X0065573Y0051174D02*
X0067305Y0051174D01*
X0067305Y0051175D02*
X0065573Y0051175D01*
X0065573Y0051176D02*
X0067305Y0051176D01*
X0067305Y0051177D02*
X0065573Y0051177D01*
X0065573Y0051178D02*
X0067305Y0051178D01*
X0067305Y0051179D02*
X0065573Y0051179D01*
X0065573Y0051180D02*
X0067305Y0051180D01*
X0067305Y0051181D02*
X0065573Y0051181D01*
X0065573Y0051182D02*
X0067305Y0051182D01*
X0067305Y0051183D02*
X0065573Y0051183D01*
X0065573Y0051184D02*
X0067305Y0051184D01*
X0067305Y0051185D02*
X0065573Y0051185D01*
X0065573Y0051186D02*
X0067305Y0051186D01*
X0067305Y0051187D02*
X0065573Y0051187D01*
X0065573Y0051188D02*
X0067305Y0051188D01*
X0067305Y0051189D02*
X0065573Y0051189D01*
X0065573Y0051190D02*
X0067305Y0051190D01*
X0067305Y0051191D02*
X0065573Y0051191D01*
X0065573Y0051192D02*
X0067305Y0051192D01*
X0067305Y0051193D02*
X0065573Y0051193D01*
X0065573Y0051194D02*
X0067305Y0051194D01*
X0067305Y0051195D02*
X0065573Y0051195D01*
X0065573Y0051196D02*
X0067305Y0051196D01*
X0067305Y0051197D02*
X0065573Y0051197D01*
X0065573Y0051198D02*
X0067305Y0051198D01*
X0067305Y0051199D02*
X0065573Y0051199D01*
X0065573Y0051200D02*
X0067305Y0051200D01*
X0067305Y0051201D02*
X0065573Y0051201D01*
X0065573Y0051202D02*
X0067305Y0051202D01*
X0067305Y0051203D02*
X0065573Y0051203D01*
X0065573Y0051204D02*
X0067305Y0051204D01*
X0067305Y0051205D02*
X0065573Y0051205D01*
X0065573Y0051206D02*
X0067305Y0051206D01*
X0065573Y0051206D01*
X0065573Y0051207D02*
X0067305Y0051207D01*
X0067305Y0051208D02*
X0065573Y0051208D01*
X0065573Y0051209D02*
X0067305Y0051209D01*
X0067305Y0051210D02*
X0065573Y0051210D01*
X0065573Y0051211D02*
X0067305Y0051211D01*
X0067305Y0051212D02*
X0065573Y0051212D01*
X0065573Y0051213D02*
X0067305Y0051213D01*
X0067305Y0051214D02*
X0065573Y0051214D01*
X0065573Y0051215D02*
X0067305Y0051215D01*
X0067305Y0051216D02*
X0065573Y0051216D01*
X0065573Y0051217D02*
X0067305Y0051217D01*
X0067305Y0051218D02*
X0065573Y0051218D01*
X0065573Y0051219D02*
X0067305Y0051219D01*
X0067305Y0051220D02*
X0065573Y0051220D01*
X0065573Y0051221D02*
X0067305Y0051221D01*
X0067305Y0051222D02*
X0065573Y0051222D01*
X0065573Y0051223D02*
X0067305Y0051223D01*
X0067305Y0051224D02*
X0065573Y0051224D01*
X0065573Y0051225D02*
X0067305Y0051225D01*
X0067305Y0051226D02*
X0065573Y0051226D01*
X0065573Y0051227D02*
X0067305Y0051227D01*
X0067305Y0051228D02*
X0065573Y0051228D01*
X0065573Y0051229D02*
X0067305Y0051229D01*
X0067305Y0051230D02*
X0065573Y0051230D01*
X0065573Y0051231D02*
X0067305Y0051231D01*
X0067305Y0051232D02*
X0065573Y0051232D01*
X0065573Y0051233D02*
X0067305Y0051233D01*
X0067305Y0051234D02*
X0065573Y0051234D01*
X0065573Y0051235D02*
X0067305Y0051235D01*
X0067305Y0051236D02*
X0065573Y0051236D01*
X0065573Y0051237D02*
X0067305Y0051237D01*
X0067305Y0051238D02*
X0065573Y0051238D01*
X0065573Y0051239D02*
X0067305Y0051239D01*
X0067305Y0051240D02*
X0065573Y0051240D01*
X0065573Y0051241D02*
X0067305Y0051241D01*
X0067305Y0051242D02*
X0065573Y0051242D01*
X0065573Y0051243D02*
X0067305Y0051243D01*
X0067305Y0051244D02*
X0065573Y0051244D01*
X0065573Y0051245D02*
X0067305Y0051245D01*
X0067305Y0051246D02*
X0065573Y0051246D01*
X0065573Y0051247D02*
X0067305Y0051247D01*
X0067305Y0051248D02*
X0065573Y0051248D01*
X0065573Y0051249D02*
X0067305Y0051249D01*
X0067305Y0051250D02*
X0065573Y0051250D01*
X0065573Y0051251D02*
X0067305Y0051251D01*
X0067305Y0051252D02*
X0065573Y0051252D01*
X0065573Y0051253D02*
X0067305Y0051253D01*
X0067305Y0051254D02*
X0065573Y0051254D01*
X0065573Y0051255D02*
X0067305Y0051255D01*
X0067305Y0051256D02*
X0065573Y0051256D01*
X0065573Y0051257D02*
X0067305Y0051257D01*
X0067305Y0051258D02*
X0065573Y0051258D01*
X0065573Y0051259D02*
X0067305Y0051259D01*
X0067305Y0051260D02*
X0065573Y0051260D01*
X0065573Y0051261D02*
X0067305Y0051261D01*
X0067305Y0051262D02*
X0065573Y0051262D01*
X0065573Y0051263D02*
X0067305Y0051263D01*
X0067305Y0051264D02*
X0065573Y0051264D01*
X0065573Y0051265D02*
X0067305Y0051265D01*
X0067305Y0051266D02*
X0065573Y0051266D01*
X0065573Y0051267D02*
X0067305Y0051267D01*
X0067305Y0051268D02*
X0065573Y0051268D01*
X0065573Y0051269D02*
X0067305Y0051269D01*
X0065573Y0051269D01*
X0065573Y0051270D02*
X0067305Y0051270D01*
X0067305Y0051271D02*
X0065573Y0051271D01*
X0065573Y0051272D02*
X0067305Y0051272D01*
X0067305Y0051273D02*
X0065573Y0051273D01*
X0065573Y0051274D02*
X0067305Y0051274D01*
X0067305Y0051275D02*
X0065573Y0051275D01*
X0065573Y0051276D02*
X0067305Y0051276D01*
X0067305Y0051277D02*
X0065573Y0051277D01*
X0065573Y0051278D02*
X0067305Y0051278D01*
X0067305Y0051279D02*
X0065573Y0051279D01*
X0065573Y0051280D02*
X0067305Y0051280D01*
X0067305Y0051281D02*
X0065573Y0051281D01*
X0065573Y0051282D02*
X0067305Y0051282D01*
X0067305Y0051283D02*
X0065573Y0051283D01*
X0065573Y0051284D02*
X0067305Y0051284D01*
X0067305Y0051285D02*
X0065573Y0051285D01*
X0065573Y0051286D02*
X0067305Y0051286D01*
X0067305Y0051287D02*
X0065573Y0051287D01*
X0065573Y0051288D02*
X0067305Y0051288D01*
X0067305Y0051289D02*
X0065573Y0051289D01*
X0065573Y0051290D02*
X0067305Y0051290D01*
X0067305Y0051291D02*
X0065573Y0051291D01*
X0065573Y0051292D02*
X0067305Y0051292D01*
X0067305Y0051293D02*
X0065573Y0051293D01*
X0065573Y0051294D02*
X0067305Y0051294D01*
X0067305Y0051295D02*
X0065573Y0051295D01*
X0065573Y0051296D02*
X0067305Y0051296D01*
X0067305Y0051297D02*
X0065573Y0051297D01*
X0065573Y0051298D02*
X0067305Y0051298D01*
X0067305Y0051299D02*
X0065573Y0051299D01*
X0065573Y0051300D02*
X0067305Y0051300D01*
X0067305Y0051301D02*
X0065573Y0051301D01*
X0065573Y0051302D02*
X0067305Y0051302D01*
X0067305Y0051303D02*
X0065573Y0051303D01*
X0065573Y0051304D02*
X0067305Y0051304D01*
X0067305Y0051305D02*
X0065573Y0051305D01*
X0065573Y0051306D02*
X0067305Y0051306D01*
X0067305Y0051307D02*
X0065573Y0051307D01*
X0065573Y0051308D02*
X0067305Y0051308D01*
X0067305Y0051309D02*
X0065573Y0051309D01*
X0065573Y0051310D02*
X0067305Y0051310D01*
X0067305Y0051311D02*
X0065573Y0051311D01*
X0065573Y0051312D02*
X0067305Y0051312D01*
X0067305Y0051313D02*
X0065573Y0051313D01*
X0065573Y0051314D02*
X0067305Y0051314D01*
X0067305Y0051315D02*
X0065573Y0051315D01*
X0065573Y0051316D02*
X0067305Y0051316D01*
X0067305Y0051317D02*
X0065573Y0051317D01*
X0065573Y0051318D02*
X0067305Y0051318D01*
X0067305Y0051319D02*
X0065573Y0051319D01*
X0065573Y0051320D02*
X0067305Y0051320D01*
X0067305Y0051321D02*
X0065573Y0051321D01*
X0065573Y0051322D02*
X0067305Y0051322D01*
X0067305Y0051323D02*
X0065573Y0051323D01*
X0065573Y0051324D02*
X0067305Y0051324D01*
X0067305Y0051325D02*
X0065573Y0051325D01*
X0065573Y0051326D02*
X0067305Y0051326D01*
X0067305Y0051327D02*
X0065573Y0051327D01*
X0065573Y0051328D02*
X0067305Y0051328D01*
X0067305Y0051329D02*
X0065573Y0051329D01*
X0065573Y0051330D02*
X0067305Y0051330D01*
X0067305Y0051331D02*
X0065573Y0051331D01*
X0067305Y0051331D01*
X0067305Y0051332D02*
X0065573Y0051332D01*
X0065573Y0051333D02*
X0067305Y0051333D01*
X0067305Y0051334D02*
X0065573Y0051334D01*
X0065573Y0051335D02*
X0067305Y0051335D01*
X0067305Y0051336D02*
X0065573Y0051336D01*
X0065573Y0051337D02*
X0067305Y0051337D01*
X0067305Y0051338D02*
X0065573Y0051338D01*
X0065573Y0051339D02*
X0067305Y0051339D01*
X0067305Y0051340D02*
X0065573Y0051340D01*
X0065573Y0051341D02*
X0067305Y0051341D01*
X0067305Y0051342D02*
X0065573Y0051342D01*
X0065573Y0051343D02*
X0067305Y0051343D01*
X0067305Y0051344D02*
X0065573Y0051344D01*
X0065573Y0051345D02*
X0067305Y0051345D01*
X0067305Y0051346D02*
X0065573Y0051346D01*
X0065573Y0051347D02*
X0067305Y0051347D01*
X0067305Y0051348D02*
X0065573Y0051348D01*
X0065573Y0051349D02*
X0067305Y0051349D01*
X0067305Y0051350D02*
X0065573Y0051350D01*
X0065573Y0051351D02*
X0067305Y0051351D01*
X0067305Y0051352D02*
X0065573Y0051352D01*
X0065573Y0051353D02*
X0067305Y0051353D01*
X0067305Y0051354D02*
X0065573Y0051354D01*
X0065573Y0051355D02*
X0067305Y0051355D01*
X0067305Y0051356D02*
X0065573Y0051356D01*
X0065573Y0051357D02*
X0067305Y0051357D01*
X0067305Y0051358D02*
X0065573Y0051358D01*
X0065573Y0051359D02*
X0067305Y0051359D01*
X0067305Y0051360D02*
X0065573Y0051360D01*
X0065573Y0051361D02*
X0067305Y0051361D01*
X0067305Y0051362D02*
X0065573Y0051362D01*
X0065573Y0051363D02*
X0067305Y0051363D01*
X0067305Y0051364D02*
X0065573Y0051364D01*
X0065573Y0051365D02*
X0067305Y0051365D01*
X0067305Y0051366D02*
X0065573Y0051366D01*
X0065573Y0051367D02*
X0067305Y0051367D01*
X0067305Y0051368D02*
X0065573Y0051368D01*
X0065573Y0051369D02*
X0067305Y0051369D01*
X0067305Y0051370D02*
X0065573Y0051370D01*
X0065573Y0051371D02*
X0067305Y0051371D01*
X0067305Y0051372D02*
X0065573Y0051372D01*
X0065573Y0051373D02*
X0067305Y0051373D01*
X0067305Y0051374D02*
X0065573Y0051374D01*
X0065573Y0051375D02*
X0067305Y0051375D01*
X0067305Y0051376D02*
X0065573Y0051376D01*
X0065573Y0051377D02*
X0067305Y0051377D01*
X0067305Y0051378D02*
X0065573Y0051378D01*
X0065573Y0051379D02*
X0067305Y0051379D01*
X0067305Y0051380D02*
X0065573Y0051380D01*
X0065573Y0051381D02*
X0067305Y0051381D01*
X0067305Y0051382D02*
X0065573Y0051382D01*
X0065573Y0051383D02*
X0067305Y0051383D01*
X0067305Y0051384D02*
X0065573Y0051384D01*
X0065573Y0051385D02*
X0067305Y0051385D01*
X0067305Y0051386D02*
X0065573Y0051386D01*
X0065573Y0051387D02*
X0067305Y0051387D01*
X0067305Y0051388D02*
X0065573Y0051388D01*
X0065573Y0051389D02*
X0067305Y0051389D01*
X0067305Y0051390D02*
X0065573Y0051390D01*
X0065573Y0051391D02*
X0067305Y0051391D01*
X0067305Y0051392D02*
X0065573Y0051392D01*
X0065573Y0051393D02*
X0067305Y0051393D01*
X0067305Y0051394D02*
X0065573Y0051394D01*
X0067305Y0051394D01*
X0067305Y0051395D02*
X0065573Y0051395D01*
X0065573Y0051396D02*
X0067305Y0051396D01*
X0067305Y0051397D02*
X0065573Y0051397D01*
X0065573Y0051398D02*
X0067305Y0051398D01*
X0067305Y0051399D02*
X0065573Y0051399D01*
X0065573Y0051400D02*
X0067305Y0051400D01*
X0067305Y0051401D02*
X0065573Y0051401D01*
X0065573Y0051402D02*
X0067305Y0051402D01*
X0067305Y0051403D02*
X0065573Y0051403D01*
X0065573Y0051404D02*
X0067305Y0051404D01*
X0067305Y0051405D02*
X0065573Y0051405D01*
X0065573Y0051406D02*
X0067305Y0051406D01*
X0067305Y0051407D02*
X0065573Y0051407D01*
X0065573Y0051408D02*
X0067305Y0051408D01*
X0067305Y0051409D02*
X0065573Y0051409D01*
X0065573Y0051410D02*
X0067305Y0051410D01*
X0067305Y0051411D02*
X0065573Y0051411D01*
X0065573Y0051412D02*
X0067305Y0051412D01*
X0067305Y0051413D02*
X0065573Y0051413D01*
X0065573Y0051414D02*
X0067305Y0051414D01*
X0067305Y0051415D02*
X0065573Y0051415D01*
X0065573Y0051416D02*
X0067305Y0051416D01*
X0067305Y0051417D02*
X0065573Y0051417D01*
X0065573Y0051418D02*
X0067305Y0051418D01*
X0067305Y0051419D02*
X0065573Y0051419D01*
X0065573Y0051420D02*
X0067305Y0051420D01*
X0067305Y0051421D02*
X0065573Y0051421D01*
X0065573Y0051422D02*
X0067305Y0051422D01*
X0067305Y0051423D02*
X0065573Y0051423D01*
X0065573Y0051424D02*
X0067305Y0051424D01*
X0067305Y0051425D02*
X0065573Y0051425D01*
X0065573Y0051426D02*
X0067305Y0051426D01*
X0067305Y0051427D02*
X0065573Y0051427D01*
X0065573Y0051428D02*
X0067305Y0051428D01*
X0067305Y0051429D02*
X0065573Y0051429D01*
X0065573Y0051430D02*
X0067305Y0051430D01*
X0067305Y0051431D02*
X0065573Y0051431D01*
X0065573Y0051432D02*
X0067305Y0051432D01*
X0067305Y0051433D02*
X0065573Y0051433D01*
X0065573Y0051434D02*
X0067305Y0051434D01*
X0067305Y0051435D02*
X0065573Y0051435D01*
X0065573Y0051436D02*
X0067305Y0051436D01*
X0067305Y0051437D02*
X0065573Y0051437D01*
X0065573Y0051438D02*
X0067305Y0051438D01*
X0067305Y0051439D02*
X0065573Y0051439D01*
X0065573Y0051440D02*
X0067305Y0051440D01*
X0067305Y0051441D02*
X0065573Y0051441D01*
X0065573Y0051442D02*
X0067305Y0051442D01*
X0067305Y0051443D02*
X0065573Y0051443D01*
X0065573Y0051444D02*
X0067305Y0051444D01*
X0067305Y0051445D02*
X0065573Y0051445D01*
X0065573Y0051446D02*
X0067305Y0051446D01*
X0067305Y0051447D02*
X0065573Y0051447D01*
X0065573Y0051448D02*
X0067305Y0051448D01*
X0067305Y0051449D02*
X0065573Y0051449D01*
X0065573Y0051450D02*
X0067305Y0051450D01*
X0067305Y0051451D02*
X0065573Y0051451D01*
X0065573Y0051452D02*
X0067305Y0051452D01*
X0067305Y0051453D02*
X0065573Y0051453D01*
X0065573Y0051454D02*
X0067305Y0051454D01*
X0067305Y0051455D02*
X0065573Y0051455D01*
X0065573Y0051456D02*
X0067305Y0051456D01*
X0065573Y0051456D01*
X0065573Y0051457D02*
X0067305Y0051457D01*
X0067305Y0051458D02*
X0065573Y0051458D01*
X0065573Y0051459D02*
X0067305Y0051459D01*
X0067305Y0051460D02*
X0065573Y0051460D01*
X0065573Y0051461D02*
X0067305Y0051461D01*
X0067305Y0051462D02*
X0065573Y0051462D01*
X0065573Y0051463D02*
X0067305Y0051463D01*
X0067305Y0051464D02*
X0065573Y0051464D01*
X0065573Y0051465D02*
X0067305Y0051465D01*
X0067305Y0051466D02*
X0065573Y0051466D01*
X0065573Y0051467D02*
X0067305Y0051467D01*
X0067305Y0051468D02*
X0065573Y0051468D01*
X0065573Y0051469D02*
X0067305Y0051469D01*
X0067305Y0051470D02*
X0065573Y0051470D01*
X0065573Y0051471D02*
X0067305Y0051471D01*
X0067305Y0051472D02*
X0065573Y0051472D01*
X0065573Y0051473D02*
X0067305Y0051473D01*
X0067305Y0051474D02*
X0065573Y0051474D01*
X0065573Y0051475D02*
X0067305Y0051475D01*
X0067305Y0051476D02*
X0065573Y0051476D01*
X0065573Y0051477D02*
X0067305Y0051477D01*
X0067305Y0051478D02*
X0065573Y0051478D01*
X0065573Y0051479D02*
X0067305Y0051479D01*
X0067305Y0051480D02*
X0065573Y0051480D01*
X0065573Y0051481D02*
X0067305Y0051481D01*
X0067305Y0051482D02*
X0065573Y0051482D01*
X0065573Y0051483D02*
X0067305Y0051483D01*
X0067305Y0051484D02*
X0065573Y0051484D01*
X0065573Y0051485D02*
X0067305Y0051485D01*
X0067305Y0051486D02*
X0065573Y0051486D01*
X0065573Y0051487D02*
X0067305Y0051487D01*
X0067305Y0051488D02*
X0065573Y0051488D01*
X0065573Y0051489D02*
X0067305Y0051489D01*
X0067305Y0051490D02*
X0065573Y0051490D01*
X0065573Y0051491D02*
X0067305Y0051491D01*
X0067305Y0051492D02*
X0065573Y0051492D01*
X0065573Y0051493D02*
X0067305Y0051493D01*
X0067305Y0051494D02*
X0065573Y0051494D01*
X0065573Y0051495D02*
X0067305Y0051495D01*
X0067305Y0051496D02*
X0065573Y0051496D01*
X0065573Y0051497D02*
X0067305Y0051497D01*
X0067305Y0051498D02*
X0065573Y0051498D01*
X0065573Y0051499D02*
X0067305Y0051499D01*
X0067305Y0051500D02*
X0065573Y0051500D01*
X0065573Y0051501D02*
X0067305Y0051501D01*
X0067305Y0051502D02*
X0065573Y0051502D01*
X0065573Y0051503D02*
X0067305Y0051503D01*
X0067305Y0051504D02*
X0065573Y0051504D01*
X0065573Y0051505D02*
X0067305Y0051505D01*
X0067305Y0051506D02*
X0065573Y0051506D01*
X0065573Y0051507D02*
X0067305Y0051507D01*
X0067305Y0051508D02*
X0065573Y0051508D01*
X0065573Y0051509D02*
X0067305Y0051509D01*
X0067305Y0051510D02*
X0065573Y0051510D01*
X0065573Y0051511D02*
X0067305Y0051511D01*
X0067305Y0051512D02*
X0065573Y0051512D01*
X0065573Y0051513D02*
X0067305Y0051513D01*
X0067305Y0051514D02*
X0065573Y0051514D01*
X0065573Y0051515D02*
X0067305Y0051515D01*
X0067305Y0051516D02*
X0065573Y0051516D01*
X0065573Y0051517D02*
X0067305Y0051517D01*
X0067305Y0051518D02*
X0065573Y0051518D01*
X0065573Y0051519D02*
X0067305Y0051519D01*
X0065573Y0051519D01*
X0065573Y0051520D02*
X0067305Y0051520D01*
X0067305Y0051521D02*
X0065573Y0051521D01*
X0065573Y0051522D02*
X0067305Y0051522D01*
X0067305Y0051523D02*
X0065573Y0051523D01*
X0065573Y0051524D02*
X0067305Y0051524D01*
X0067305Y0051525D02*
X0065573Y0051525D01*
X0065573Y0051526D02*
X0067305Y0051526D01*
X0067305Y0051527D02*
X0065573Y0051527D01*
X0065573Y0051528D02*
X0067305Y0051528D01*
X0067305Y0051529D02*
X0065573Y0051529D01*
X0065573Y0051530D02*
X0067305Y0051530D01*
X0067305Y0051531D02*
X0065573Y0051531D01*
X0065573Y0051532D02*
X0067305Y0051532D01*
X0067305Y0051533D02*
X0065573Y0051533D01*
X0065573Y0051534D02*
X0067305Y0051534D01*
X0067305Y0051535D02*
X0065573Y0051535D01*
X0065573Y0051536D02*
X0067305Y0051536D01*
X0067305Y0051537D02*
X0065573Y0051537D01*
X0065573Y0051538D02*
X0067305Y0051538D01*
X0067305Y0051539D02*
X0065573Y0051539D01*
X0065573Y0051540D02*
X0067305Y0051540D01*
X0067305Y0051541D02*
X0065573Y0051541D01*
X0065573Y0051542D02*
X0067305Y0051542D01*
X0067305Y0051543D02*
X0065573Y0051543D01*
X0065573Y0051544D02*
X0067305Y0051544D01*
X0067305Y0051545D02*
X0065573Y0051545D01*
X0065573Y0051546D02*
X0067305Y0051546D01*
X0067305Y0051547D02*
X0065573Y0051547D01*
X0065573Y0051548D02*
X0067305Y0051548D01*
X0067305Y0051549D02*
X0065573Y0051549D01*
X0065573Y0051550D02*
X0067305Y0051550D01*
X0067305Y0051551D02*
X0065573Y0051551D01*
X0065573Y0051552D02*
X0067305Y0051552D01*
X0067305Y0051553D02*
X0065573Y0051553D01*
X0065573Y0051554D02*
X0067305Y0051554D01*
X0067305Y0051555D02*
X0065573Y0051555D01*
X0065573Y0051556D02*
X0067305Y0051556D01*
X0067305Y0051557D02*
X0065573Y0051557D01*
X0065573Y0051558D02*
X0067305Y0051558D01*
X0067305Y0051559D02*
X0065573Y0051559D01*
X0065573Y0051560D02*
X0067305Y0051560D01*
X0067305Y0051561D02*
X0065573Y0051561D01*
X0065573Y0051562D02*
X0067305Y0051562D01*
X0067305Y0051563D02*
X0065573Y0051563D01*
X0065573Y0051564D02*
X0067305Y0051564D01*
X0067305Y0051565D02*
X0065573Y0051565D01*
X0065573Y0051566D02*
X0067305Y0051566D01*
X0067305Y0051567D02*
X0065573Y0051567D01*
X0065573Y0051568D02*
X0067305Y0051568D01*
X0067305Y0051569D02*
X0065573Y0051569D01*
X0065573Y0051570D02*
X0067305Y0051570D01*
X0067305Y0051571D02*
X0065573Y0051571D01*
X0065573Y0051572D02*
X0067305Y0051572D01*
X0067305Y0051573D02*
X0065573Y0051573D01*
X0065573Y0051574D02*
X0067305Y0051574D01*
X0067305Y0051575D02*
X0065573Y0051575D01*
X0065573Y0051576D02*
X0067305Y0051576D01*
X0067305Y0051577D02*
X0065573Y0051577D01*
X0065573Y0051578D02*
X0067305Y0051578D01*
X0067305Y0051579D02*
X0065573Y0051579D01*
X0065573Y0051580D02*
X0067305Y0051580D01*
X0067305Y0051581D02*
X0065573Y0051581D01*
X0067305Y0051581D01*
X0067305Y0051582D02*
X0065573Y0051582D01*
X0065573Y0051583D02*
X0067305Y0051583D01*
X0067305Y0051584D02*
X0065573Y0051584D01*
X0065573Y0051585D02*
X0067305Y0051585D01*
X0067305Y0051586D02*
X0065573Y0051586D01*
X0065573Y0051587D02*
X0067305Y0051587D01*
X0067305Y0051588D02*
X0065573Y0051588D01*
X0065573Y0051589D02*
X0067305Y0051589D01*
X0067305Y0051590D02*
X0065573Y0051590D01*
X0065573Y0051591D02*
X0067305Y0051591D01*
X0067305Y0051592D02*
X0065573Y0051592D01*
X0065573Y0051593D02*
X0067305Y0051593D01*
X0067305Y0051594D02*
X0065573Y0051594D01*
X0065573Y0051595D02*
X0067305Y0051595D01*
X0067305Y0051596D02*
X0065573Y0051596D01*
X0065573Y0051597D02*
X0067305Y0051597D01*
X0067305Y0051598D02*
X0065573Y0051598D01*
X0065573Y0051599D02*
X0067305Y0051599D01*
X0067305Y0051600D02*
X0065573Y0051600D01*
X0065573Y0051601D02*
X0067305Y0051601D01*
X0067305Y0051602D02*
X0065573Y0051602D01*
X0065573Y0049240D02*
X0067305Y0049240D01*
X0067305Y0049239D02*
X0065573Y0049239D01*
X0065573Y0049238D02*
X0067305Y0049238D01*
X0067305Y0049237D02*
X0065573Y0049237D01*
X0065573Y0049236D02*
X0067305Y0049236D01*
X0067305Y0049235D02*
X0065573Y0049235D01*
X0065573Y0049234D02*
X0067305Y0049234D01*
X0067305Y0049233D02*
X0065573Y0049233D01*
X0065573Y0049232D02*
X0067305Y0049232D01*
X0067305Y0049231D02*
X0065573Y0049231D01*
X0065573Y0049230D02*
X0067305Y0049230D01*
X0067305Y0049229D02*
X0065573Y0049229D01*
X0065573Y0049228D02*
X0067305Y0049228D01*
X0067305Y0049227D02*
X0065573Y0049227D01*
X0065573Y0049226D02*
X0067305Y0049226D01*
X0067305Y0049225D02*
X0065573Y0049225D01*
X0065573Y0049224D02*
X0067305Y0049224D01*
X0067305Y0049223D02*
X0065573Y0049223D01*
X0065573Y0049222D02*
X0067305Y0049222D01*
X0067305Y0049221D02*
X0065573Y0049221D01*
X0065573Y0049220D02*
X0067305Y0049220D01*
X0067305Y0049219D02*
X0065573Y0049219D01*
X0065573Y0049218D02*
X0067305Y0049218D01*
X0067305Y0049217D02*
X0065573Y0049217D01*
X0065573Y0049216D02*
X0067305Y0049216D01*
X0067305Y0049215D02*
X0065573Y0049215D01*
X0065573Y0049214D02*
X0067305Y0049214D01*
X0067305Y0049213D02*
X0065573Y0049213D01*
X0065573Y0049212D02*
X0067305Y0049212D01*
X0067305Y0049211D02*
X0065573Y0049211D01*
X0065573Y0049210D02*
X0067305Y0049210D01*
X0067305Y0049209D02*
X0065573Y0049209D01*
X0065573Y0049208D02*
X0067305Y0049208D01*
X0067305Y0049207D02*
X0065573Y0049207D01*
X0065573Y0049206D02*
X0067305Y0049206D01*
X0065573Y0049206D01*
X0065573Y0049205D02*
X0067305Y0049205D01*
X0067305Y0049204D02*
X0065573Y0049204D01*
X0065573Y0049203D02*
X0067305Y0049203D01*
X0067305Y0049202D02*
X0065573Y0049202D01*
X0065573Y0049201D02*
X0067305Y0049201D01*
X0067305Y0049200D02*
X0065573Y0049200D01*
X0065573Y0049199D02*
X0067305Y0049199D01*
X0067305Y0049198D02*
X0065573Y0049198D01*
X0065573Y0049197D02*
X0067305Y0049197D01*
X0067305Y0049196D02*
X0065573Y0049196D01*
X0065573Y0049195D02*
X0067305Y0049195D01*
X0067305Y0049194D02*
X0065573Y0049194D01*
X0065573Y0049193D02*
X0067305Y0049193D01*
X0067305Y0049192D02*
X0065573Y0049192D01*
X0065573Y0049191D02*
X0067305Y0049191D01*
X0067305Y0049190D02*
X0065573Y0049190D01*
X0065573Y0049189D02*
X0067305Y0049189D01*
X0067305Y0049188D02*
X0065573Y0049188D01*
X0065573Y0049187D02*
X0067305Y0049187D01*
X0067305Y0049186D02*
X0065573Y0049186D01*
X0065573Y0049185D02*
X0067305Y0049185D01*
X0067305Y0049184D02*
X0065573Y0049184D01*
X0065573Y0049183D02*
X0067305Y0049183D01*
X0067305Y0049182D02*
X0065573Y0049182D01*
X0065573Y0049181D02*
X0067305Y0049181D01*
X0067305Y0049180D02*
X0065573Y0049180D01*
X0065573Y0049179D02*
X0067305Y0049179D01*
X0067305Y0049178D02*
X0065573Y0049178D01*
X0065573Y0049177D02*
X0067305Y0049177D01*
X0067305Y0049176D02*
X0065573Y0049176D01*
X0065573Y0049175D02*
X0067305Y0049175D01*
X0067305Y0049174D02*
X0065573Y0049174D01*
X0065573Y0049173D02*
X0067305Y0049173D01*
X0067305Y0049172D02*
X0065573Y0049172D01*
X0065573Y0049171D02*
X0067305Y0049171D01*
X0067305Y0049170D02*
X0065573Y0049170D01*
X0065573Y0049169D02*
X0067305Y0049169D01*
X0067305Y0049168D02*
X0065573Y0049168D01*
X0065573Y0049167D02*
X0067305Y0049167D01*
X0067305Y0049166D02*
X0065573Y0049166D01*
X0065573Y0049165D02*
X0067305Y0049165D01*
X0067305Y0049164D02*
X0065573Y0049164D01*
X0065573Y0049163D02*
X0067305Y0049163D01*
X0067305Y0049162D02*
X0065573Y0049162D01*
X0065573Y0049161D02*
X0067305Y0049161D01*
X0067305Y0049160D02*
X0065573Y0049160D01*
X0065573Y0049159D02*
X0067305Y0049159D01*
X0067305Y0049158D02*
X0065573Y0049158D01*
X0065573Y0049157D02*
X0067305Y0049157D01*
X0067305Y0049156D02*
X0065573Y0049156D01*
X0065573Y0049155D02*
X0067305Y0049155D01*
X0067305Y0049154D02*
X0065573Y0049154D01*
X0065573Y0049153D02*
X0067305Y0049153D01*
X0067305Y0049152D02*
X0065573Y0049152D01*
X0065573Y0049151D02*
X0067305Y0049151D01*
X0067305Y0049150D02*
X0065573Y0049150D01*
X0065573Y0049149D02*
X0067305Y0049149D01*
X0067305Y0049148D02*
X0065573Y0049148D01*
X0065573Y0049147D02*
X0067305Y0049147D01*
X0067305Y0049146D02*
X0065573Y0049146D01*
X0065573Y0049145D02*
X0067305Y0049145D01*
X0067305Y0049144D02*
X0065573Y0049144D01*
X0067305Y0049144D01*
X0067305Y0049143D02*
X0065573Y0049143D01*
X0065573Y0049142D02*
X0067305Y0049142D01*
X0067305Y0049141D02*
X0065573Y0049141D01*
X0065573Y0049140D02*
X0067305Y0049140D01*
X0067305Y0049139D02*
X0065573Y0049139D01*
X0065573Y0049138D02*
X0067305Y0049138D01*
X0067305Y0049137D02*
X0065573Y0049137D01*
X0065573Y0049136D02*
X0067305Y0049136D01*
X0067305Y0049135D02*
X0065573Y0049135D01*
X0065573Y0049134D02*
X0067305Y0049134D01*
X0067305Y0049133D02*
X0065573Y0049133D01*
X0065573Y0049132D02*
X0067305Y0049132D01*
X0067305Y0049131D02*
X0065573Y0049131D01*
X0065573Y0049130D02*
X0067305Y0049130D01*
X0067305Y0049129D02*
X0065573Y0049129D01*
X0065573Y0049128D02*
X0067305Y0049128D01*
X0067305Y0049127D02*
X0065573Y0049127D01*
X0065573Y0049126D02*
X0067305Y0049126D01*
X0067305Y0049125D02*
X0065573Y0049125D01*
X0065573Y0049124D02*
X0067305Y0049124D01*
X0067305Y0049123D02*
X0065573Y0049123D01*
X0065573Y0049122D02*
X0067305Y0049122D01*
X0067305Y0049121D02*
X0065573Y0049121D01*
X0065573Y0049120D02*
X0067305Y0049120D01*
X0067305Y0049119D02*
X0065573Y0049119D01*
X0065573Y0049118D02*
X0067305Y0049118D01*
X0067305Y0049117D02*
X0065573Y0049117D01*
X0065573Y0049116D02*
X0067305Y0049116D01*
X0067305Y0049115D02*
X0065573Y0049115D01*
X0065573Y0049114D02*
X0067305Y0049114D01*
X0067305Y0049113D02*
X0065573Y0049113D01*
X0065573Y0049112D02*
X0067305Y0049112D01*
X0067305Y0049111D02*
X0065573Y0049111D01*
X0065573Y0049110D02*
X0067305Y0049110D01*
X0067305Y0049109D02*
X0065573Y0049109D01*
X0065573Y0049108D02*
X0067305Y0049108D01*
X0067305Y0049107D02*
X0065573Y0049107D01*
X0065573Y0049106D02*
X0067305Y0049106D01*
X0067305Y0049105D02*
X0065573Y0049105D01*
X0065573Y0049104D02*
X0067305Y0049104D01*
X0067305Y0049103D02*
X0065573Y0049103D01*
X0065573Y0049102D02*
X0067305Y0049102D01*
X0067305Y0049101D02*
X0065573Y0049101D01*
X0065573Y0049100D02*
X0067305Y0049100D01*
X0067305Y0049099D02*
X0065573Y0049099D01*
X0065573Y0049098D02*
X0067305Y0049098D01*
X0067305Y0049097D02*
X0065573Y0049097D01*
X0065573Y0049096D02*
X0067305Y0049096D01*
X0067305Y0049095D02*
X0065573Y0049095D01*
X0065573Y0049094D02*
X0067305Y0049094D01*
X0067305Y0049093D02*
X0065573Y0049093D01*
X0065573Y0049092D02*
X0067305Y0049092D01*
X0067305Y0049091D02*
X0065573Y0049091D01*
X0065573Y0049090D02*
X0067305Y0049090D01*
X0067305Y0049089D02*
X0065573Y0049089D01*
X0065573Y0049088D02*
X0067305Y0049088D01*
X0067305Y0049087D02*
X0065573Y0049087D01*
X0065573Y0049086D02*
X0067305Y0049086D01*
X0067305Y0049085D02*
X0065573Y0049085D01*
X0065573Y0049084D02*
X0067305Y0049084D01*
X0067305Y0049083D02*
X0065573Y0049083D01*
X0065573Y0049082D02*
X0067305Y0049082D01*
X0067305Y0049081D02*
X0065573Y0049081D01*
X0067305Y0049081D01*
X0067305Y0049080D02*
X0065573Y0049080D01*
X0065573Y0049079D02*
X0067305Y0049079D01*
X0067305Y0049078D02*
X0065573Y0049078D01*
X0065573Y0049077D02*
X0067305Y0049077D01*
X0067305Y0049076D02*
X0065573Y0049076D01*
X0065573Y0049075D02*
X0067305Y0049075D01*
X0067305Y0049074D02*
X0065573Y0049074D01*
X0065573Y0049073D02*
X0067305Y0049073D01*
X0067305Y0049072D02*
X0065573Y0049072D01*
X0065573Y0049071D02*
X0067305Y0049071D01*
X0067305Y0049070D02*
X0065573Y0049070D01*
X0065573Y0049069D02*
X0067305Y0049069D01*
X0067305Y0049068D02*
X0065573Y0049068D01*
X0065573Y0049067D02*
X0067305Y0049067D01*
X0067305Y0049066D02*
X0065573Y0049066D01*
X0065573Y0049065D02*
X0067305Y0049065D01*
X0067305Y0049064D02*
X0065573Y0049064D01*
X0065573Y0049063D02*
X0067305Y0049063D01*
X0067305Y0049062D02*
X0065573Y0049062D01*
X0065573Y0049061D02*
X0067305Y0049061D01*
X0067305Y0049060D02*
X0065573Y0049060D01*
X0065573Y0049059D02*
X0067305Y0049059D01*
X0067305Y0049058D02*
X0065573Y0049058D01*
X0065573Y0049057D02*
X0067305Y0049057D01*
X0067305Y0049056D02*
X0065573Y0049056D01*
X0065573Y0049055D02*
X0067305Y0049055D01*
X0067305Y0049054D02*
X0065573Y0049054D01*
X0065573Y0049053D02*
X0067305Y0049053D01*
X0067305Y0049052D02*
X0065573Y0049052D01*
X0065573Y0049051D02*
X0067305Y0049051D01*
X0067305Y0049050D02*
X0065573Y0049050D01*
X0065573Y0049049D02*
X0067305Y0049049D01*
X0067305Y0049048D02*
X0065573Y0049048D01*
X0065573Y0049047D02*
X0067305Y0049047D01*
X0067305Y0049046D02*
X0065573Y0049046D01*
X0065573Y0049045D02*
X0067305Y0049045D01*
X0067305Y0049044D02*
X0065573Y0049044D01*
X0065573Y0049043D02*
X0067305Y0049043D01*
X0067305Y0049042D02*
X0065573Y0049042D01*
X0065573Y0049041D02*
X0067305Y0049041D01*
X0067305Y0049040D02*
X0065573Y0049040D01*
X0065573Y0049039D02*
X0067305Y0049039D01*
X0067305Y0049038D02*
X0065573Y0049038D01*
X0065573Y0049037D02*
X0067305Y0049037D01*
X0067305Y0049036D02*
X0065573Y0049036D01*
X0065573Y0049035D02*
X0067305Y0049035D01*
X0067305Y0049034D02*
X0065573Y0049034D01*
X0065573Y0049033D02*
X0067305Y0049033D01*
X0067305Y0049032D02*
X0065573Y0049032D01*
X0065573Y0049031D02*
X0067305Y0049031D01*
X0067305Y0049030D02*
X0065573Y0049030D01*
X0065573Y0049029D02*
X0067305Y0049029D01*
X0067305Y0049028D02*
X0065573Y0049028D01*
X0065573Y0049027D02*
X0067305Y0049027D01*
X0067305Y0049026D02*
X0065573Y0049026D01*
X0065573Y0049025D02*
X0067305Y0049025D01*
X0067305Y0049024D02*
X0065573Y0049024D01*
X0065573Y0049023D02*
X0067305Y0049023D01*
X0067305Y0049022D02*
X0065573Y0049022D01*
X0065573Y0049021D02*
X0067305Y0049021D01*
X0067305Y0049020D02*
X0065573Y0049020D01*
X0065573Y0049019D02*
X0067305Y0049019D01*
X0065573Y0049019D01*
X0065573Y0049018D02*
X0067305Y0049018D01*
X0067305Y0049017D02*
X0065573Y0049017D01*
X0065573Y0049016D02*
X0067305Y0049016D01*
X0067305Y0049015D02*
X0065573Y0049015D01*
X0065573Y0049014D02*
X0067305Y0049014D01*
X0067305Y0049013D02*
X0065573Y0049013D01*
X0065573Y0049012D02*
X0067305Y0049012D01*
X0067305Y0049011D02*
X0065573Y0049011D01*
X0065573Y0049010D02*
X0067305Y0049010D01*
X0067305Y0049009D02*
X0065573Y0049009D01*
X0065573Y0049008D02*
X0067305Y0049008D01*
X0067305Y0049007D02*
X0065573Y0049007D01*
X0065573Y0049006D02*
X0067305Y0049006D01*
X0067305Y0049005D02*
X0065573Y0049005D01*
X0065573Y0049004D02*
X0067305Y0049004D01*
X0067305Y0049003D02*
X0065573Y0049003D01*
X0065573Y0049002D02*
X0067305Y0049002D01*
X0067305Y0049001D02*
X0065573Y0049001D01*
X0065573Y0049000D02*
X0067305Y0049000D01*
X0067305Y0048999D02*
X0065573Y0048999D01*
X0065573Y0048998D02*
X0067305Y0048998D01*
X0067305Y0048997D02*
X0065573Y0048997D01*
X0065573Y0048996D02*
X0067305Y0048996D01*
X0067305Y0048995D02*
X0065573Y0048995D01*
X0065573Y0048994D02*
X0067305Y0048994D01*
X0067305Y0048993D02*
X0065573Y0048993D01*
X0065573Y0048992D02*
X0067305Y0048992D01*
X0067305Y0048991D02*
X0065573Y0048991D01*
X0065573Y0048990D02*
X0067305Y0048990D01*
X0067305Y0048989D02*
X0065573Y0048989D01*
X0065573Y0048988D02*
X0067305Y0048988D01*
X0067305Y0048987D02*
X0065573Y0048987D01*
X0065573Y0048986D02*
X0067305Y0048986D01*
X0067305Y0048985D02*
X0065573Y0048985D01*
X0065573Y0048984D02*
X0067305Y0048984D01*
X0067305Y0048983D02*
X0065573Y0048983D01*
X0065573Y0048982D02*
X0067305Y0048982D01*
X0067305Y0048981D02*
X0065573Y0048981D01*
X0065573Y0048980D02*
X0067305Y0048980D01*
X0067305Y0048979D02*
X0065573Y0048979D01*
X0065573Y0048978D02*
X0067305Y0048978D01*
X0067305Y0048977D02*
X0065573Y0048977D01*
X0065573Y0048976D02*
X0067305Y0048976D01*
X0067305Y0048975D02*
X0065573Y0048975D01*
X0065573Y0048974D02*
X0067305Y0048974D01*
X0067305Y0048973D02*
X0065573Y0048973D01*
X0065573Y0048972D02*
X0067305Y0048972D01*
X0067305Y0048971D02*
X0065573Y0048971D01*
X0065573Y0048970D02*
X0067305Y0048970D01*
X0067305Y0048969D02*
X0065573Y0048969D01*
X0065573Y0048968D02*
X0067305Y0048968D01*
X0067305Y0048967D02*
X0065573Y0048967D01*
X0065573Y0048966D02*
X0067305Y0048966D01*
X0067305Y0048965D02*
X0065573Y0048965D01*
X0065573Y0048964D02*
X0067305Y0048964D01*
X0067305Y0048963D02*
X0065573Y0048963D01*
X0065573Y0048962D02*
X0067305Y0048962D01*
X0067305Y0048961D02*
X0065573Y0048961D01*
X0065573Y0048960D02*
X0067305Y0048960D01*
X0067305Y0048959D02*
X0065573Y0048959D01*
X0065573Y0048958D02*
X0067305Y0048958D01*
X0067305Y0048957D02*
X0065573Y0048957D01*
X0065573Y0048956D02*
X0067305Y0048956D01*
X0065573Y0048956D01*
X0065573Y0048955D02*
X0067305Y0048955D01*
X0067305Y0048954D02*
X0065573Y0048954D01*
X0065573Y0048953D02*
X0067305Y0048953D01*
X0067305Y0048952D02*
X0065573Y0048952D01*
X0065573Y0048951D02*
X0067305Y0048951D01*
X0067305Y0048950D02*
X0065573Y0048950D01*
X0065573Y0048949D02*
X0067305Y0048949D01*
X0067305Y0048948D02*
X0065573Y0048948D01*
X0065573Y0048947D02*
X0067305Y0048947D01*
X0067305Y0048946D02*
X0065573Y0048946D01*
X0065573Y0048945D02*
X0067305Y0048945D01*
X0067305Y0048944D02*
X0065573Y0048944D01*
X0065573Y0048943D02*
X0067305Y0048943D01*
X0067305Y0048942D02*
X0065573Y0048942D01*
X0065573Y0048941D02*
X0067305Y0048941D01*
X0067305Y0048940D02*
X0065573Y0048940D01*
X0065573Y0048939D02*
X0067305Y0048939D01*
X0067305Y0048938D02*
X0065573Y0048938D01*
X0065573Y0048937D02*
X0067305Y0048937D01*
X0067305Y0048936D02*
X0065573Y0048936D01*
X0065573Y0048935D02*
X0067305Y0048935D01*
X0067305Y0048934D02*
X0065573Y0048934D01*
X0065573Y0048933D02*
X0067305Y0048933D01*
X0067305Y0048932D02*
X0065573Y0048932D01*
X0065573Y0048931D02*
X0067305Y0048931D01*
X0067305Y0048930D02*
X0065573Y0048930D01*
X0065573Y0048929D02*
X0067305Y0048929D01*
X0067305Y0048928D02*
X0065573Y0048928D01*
X0065573Y0048927D02*
X0067305Y0048927D01*
X0067305Y0048926D02*
X0065573Y0048926D01*
X0065573Y0048925D02*
X0067305Y0048925D01*
X0067305Y0048924D02*
X0065573Y0048924D01*
X0065573Y0048923D02*
X0067305Y0048923D01*
X0067305Y0048922D02*
X0065573Y0048922D01*
X0065573Y0048921D02*
X0067305Y0048921D01*
X0067305Y0048920D02*
X0065573Y0048920D01*
X0065573Y0048919D02*
X0067305Y0048919D01*
X0067305Y0048918D02*
X0065573Y0048918D01*
X0065573Y0048917D02*
X0067305Y0048917D01*
X0067305Y0048916D02*
X0065573Y0048916D01*
X0065573Y0048915D02*
X0067305Y0048915D01*
X0067305Y0048914D02*
X0065573Y0048914D01*
X0065573Y0048913D02*
X0067305Y0048913D01*
X0067305Y0048912D02*
X0065573Y0048912D01*
X0065573Y0048911D02*
X0067305Y0048911D01*
X0067305Y0048910D02*
X0065573Y0048910D01*
X0065573Y0048909D02*
X0067305Y0048909D01*
X0067305Y0048908D02*
X0065573Y0048908D01*
X0065573Y0048907D02*
X0067305Y0048907D01*
X0067305Y0048906D02*
X0065573Y0048906D01*
X0065573Y0048905D02*
X0067305Y0048905D01*
X0067305Y0048904D02*
X0065573Y0048904D01*
X0065573Y0048903D02*
X0067305Y0048903D01*
X0067305Y0048902D02*
X0065573Y0048902D01*
X0065573Y0048901D02*
X0067305Y0048901D01*
X0067305Y0048900D02*
X0065573Y0048900D01*
X0065573Y0048899D02*
X0067305Y0048899D01*
X0067305Y0048898D02*
X0065573Y0048898D01*
X0065573Y0048897D02*
X0067305Y0048897D01*
X0067305Y0048896D02*
X0065573Y0048896D01*
X0065573Y0048895D02*
X0067305Y0048895D01*
X0067305Y0048894D02*
X0065573Y0048894D01*
X0067305Y0048894D01*
X0067305Y0048893D02*
X0065573Y0048893D01*
X0065573Y0048892D02*
X0067305Y0048892D01*
X0067305Y0048891D02*
X0065573Y0048891D01*
X0065573Y0048890D02*
X0067305Y0048890D01*
X0067305Y0048889D02*
X0065573Y0048889D01*
X0065573Y0048888D02*
X0067305Y0048888D01*
X0067305Y0048887D02*
X0065573Y0048887D01*
X0065573Y0048886D02*
X0067305Y0048886D01*
X0067305Y0048885D02*
X0065573Y0048885D01*
X0065573Y0048884D02*
X0067305Y0048884D01*
X0067305Y0048883D02*
X0065573Y0048883D01*
X0065573Y0048882D02*
X0067305Y0048882D01*
X0067305Y0048881D02*
X0065573Y0048881D01*
X0065573Y0048880D02*
X0067305Y0048880D01*
X0067305Y0048879D02*
X0065573Y0048879D01*
X0065573Y0048878D02*
X0067305Y0048878D01*
X0067305Y0048877D02*
X0065573Y0048877D01*
X0065573Y0048876D02*
X0067305Y0048876D01*
X0067305Y0048875D02*
X0065573Y0048875D01*
X0065573Y0048874D02*
X0067305Y0048874D01*
X0067305Y0048873D02*
X0065573Y0048873D01*
X0065573Y0048872D02*
X0067305Y0048872D01*
X0067305Y0048871D02*
X0065573Y0048871D01*
X0065573Y0048870D02*
X0067305Y0048870D01*
X0067305Y0048869D02*
X0065573Y0048869D01*
X0065573Y0048868D02*
X0067305Y0048868D01*
X0067305Y0048867D02*
X0065573Y0048867D01*
X0065573Y0048866D02*
X0067305Y0048866D01*
X0067305Y0048865D02*
X0065573Y0048865D01*
X0065573Y0048864D02*
X0067305Y0048864D01*
X0067305Y0048863D02*
X0065573Y0048863D01*
X0065573Y0048862D02*
X0067305Y0048862D01*
X0067305Y0048861D02*
X0065573Y0048861D01*
X0065573Y0048860D02*
X0067305Y0048860D01*
X0067305Y0048859D02*
X0065573Y0048859D01*
X0065573Y0048858D02*
X0067305Y0048858D01*
X0067305Y0048857D02*
X0065573Y0048857D01*
X0065573Y0048856D02*
X0067305Y0048856D01*
X0067305Y0048855D02*
X0065573Y0048855D01*
X0065573Y0048854D02*
X0067305Y0048854D01*
X0067305Y0048853D02*
X0065573Y0048853D01*
X0065573Y0048852D02*
X0067305Y0048852D01*
X0067305Y0048851D02*
X0065573Y0048851D01*
X0065573Y0048850D02*
X0067305Y0048850D01*
X0067305Y0048849D02*
X0065573Y0048849D01*
X0065573Y0048848D02*
X0067305Y0048848D01*
X0067305Y0048847D02*
X0065573Y0048847D01*
X0065573Y0048846D02*
X0067305Y0048846D01*
X0067305Y0048845D02*
X0065573Y0048845D01*
X0065573Y0048844D02*
X0067305Y0048844D01*
X0067305Y0048843D02*
X0065573Y0048843D01*
X0065573Y0048842D02*
X0067305Y0048842D01*
X0067305Y0048841D02*
X0065573Y0048841D01*
X0065573Y0048840D02*
X0067305Y0048840D01*
X0067305Y0048839D02*
X0065573Y0048839D01*
X0065573Y0048838D02*
X0067305Y0048838D01*
X0067305Y0048837D02*
X0065573Y0048837D01*
X0065573Y0048836D02*
X0067305Y0048836D01*
X0067305Y0048835D02*
X0065573Y0048835D01*
X0065573Y0048834D02*
X0067305Y0048834D01*
X0067305Y0048833D02*
X0065573Y0048833D01*
X0065573Y0048832D02*
X0067305Y0048832D01*
X0067305Y0048831D02*
X0065573Y0048831D01*
X0067305Y0048831D01*
X0067305Y0048830D02*
X0065573Y0048830D01*
X0065573Y0048829D02*
X0067305Y0048829D01*
X0067305Y0048828D02*
X0065573Y0048828D01*
X0065573Y0048827D02*
X0067305Y0048827D01*
X0067305Y0048826D02*
X0065573Y0048826D01*
X0065573Y0048825D02*
X0067305Y0048825D01*
X0067305Y0048824D02*
X0065573Y0048824D01*
X0065573Y0048823D02*
X0067305Y0048823D01*
X0067305Y0048822D02*
X0065573Y0048822D01*
X0065573Y0048821D02*
X0067305Y0048821D01*
X0067305Y0048820D02*
X0065573Y0048820D01*
X0065573Y0048819D02*
X0067305Y0048819D01*
X0067305Y0048818D02*
X0065573Y0048818D01*
X0065573Y0048817D02*
X0067305Y0048817D01*
X0067305Y0048816D02*
X0065573Y0048816D01*
X0065573Y0048815D02*
X0067305Y0048815D01*
X0067305Y0048814D02*
X0065573Y0048814D01*
X0065573Y0048813D02*
X0067305Y0048813D01*
X0067305Y0048812D02*
X0065573Y0048812D01*
X0065573Y0048811D02*
X0067305Y0048811D01*
X0067305Y0048810D02*
X0065573Y0048810D01*
X0065573Y0048809D02*
X0067305Y0048809D01*
X0067305Y0048808D02*
X0065573Y0048808D01*
X0065573Y0048807D02*
X0067305Y0048807D01*
X0067305Y0048806D02*
X0065573Y0048806D01*
X0065573Y0048805D02*
X0067305Y0048805D01*
X0067305Y0048804D02*
X0065573Y0048804D01*
X0065573Y0048803D02*
X0067305Y0048803D01*
X0067305Y0048802D02*
X0065573Y0048802D01*
X0065573Y0048801D02*
X0067305Y0048801D01*
X0067305Y0048800D02*
X0065573Y0048800D01*
X0065573Y0048799D02*
X0067305Y0048799D01*
X0067305Y0048798D02*
X0065573Y0048798D01*
X0065573Y0048797D02*
X0067305Y0048797D01*
X0067305Y0048796D02*
X0065573Y0048796D01*
X0065573Y0048795D02*
X0067305Y0048795D01*
X0067305Y0048794D02*
X0065573Y0048794D01*
X0065573Y0048793D02*
X0067305Y0048793D01*
X0067305Y0048792D02*
X0065573Y0048792D01*
X0065573Y0048791D02*
X0067305Y0048791D01*
X0067305Y0048790D02*
X0065573Y0048790D01*
X0065573Y0048789D02*
X0067305Y0048789D01*
X0067305Y0048788D02*
X0065573Y0048788D01*
X0065573Y0048787D02*
X0067305Y0048787D01*
X0067305Y0048786D02*
X0065573Y0048786D01*
X0065573Y0048785D02*
X0067305Y0048785D01*
X0067305Y0048784D02*
X0065573Y0048784D01*
X0065573Y0048783D02*
X0067305Y0048783D01*
X0067305Y0048782D02*
X0065573Y0048782D01*
X0065573Y0048781D02*
X0067305Y0048781D01*
X0067305Y0048780D02*
X0065573Y0048780D01*
X0065573Y0048779D02*
X0067305Y0048779D01*
X0067305Y0048778D02*
X0065573Y0048778D01*
X0065573Y0048777D02*
X0067305Y0048777D01*
X0067305Y0048776D02*
X0065573Y0048776D01*
X0065573Y0048775D02*
X0067305Y0048775D01*
X0067305Y0048774D02*
X0065573Y0048774D01*
X0065573Y0048773D02*
X0067305Y0048773D01*
X0067305Y0048772D02*
X0065573Y0048772D01*
X0065573Y0048771D02*
X0067305Y0048771D01*
X0067305Y0048770D02*
X0065573Y0048770D01*
X0065573Y0048769D02*
X0067305Y0048769D01*
X0065573Y0048769D01*
X0065573Y0048768D02*
X0067305Y0048768D01*
X0067305Y0048767D02*
X0065573Y0048767D01*
X0065573Y0048766D02*
X0067305Y0048766D01*
X0067305Y0048765D02*
X0065573Y0048765D01*
X0065573Y0048764D02*
X0067305Y0048764D01*
X0067305Y0048763D02*
X0065573Y0048763D01*
X0065573Y0048762D02*
X0067305Y0048762D01*
X0067305Y0048761D02*
X0065573Y0048761D01*
X0065573Y0048760D02*
X0067305Y0048760D01*
X0067305Y0048759D02*
X0065573Y0048759D01*
X0065573Y0048758D02*
X0067305Y0048758D01*
X0067305Y0048757D02*
X0065573Y0048757D01*
X0065573Y0048756D02*
X0067305Y0048756D01*
X0067305Y0048755D02*
X0065573Y0048755D01*
X0065573Y0048754D02*
X0067305Y0048754D01*
X0067305Y0048753D02*
X0065573Y0048753D01*
X0065573Y0048752D02*
X0067305Y0048752D01*
X0067305Y0048751D02*
X0065573Y0048751D01*
X0065573Y0048750D02*
X0067305Y0048750D01*
X0067305Y0048749D02*
X0065573Y0048749D01*
X0065573Y0048748D02*
X0067305Y0048748D01*
X0067305Y0048747D02*
X0065573Y0048747D01*
X0065573Y0048746D02*
X0067305Y0048746D01*
X0067305Y0048745D02*
X0065573Y0048745D01*
X0065573Y0048744D02*
X0067305Y0048744D01*
X0067305Y0048743D02*
X0065573Y0048743D01*
X0065573Y0048742D02*
X0067305Y0048742D01*
X0067305Y0048741D02*
X0065573Y0048741D01*
X0065573Y0048740D02*
X0067305Y0048740D01*
X0067305Y0048739D02*
X0065573Y0048739D01*
X0065573Y0048738D02*
X0067305Y0048738D01*
X0067305Y0048737D02*
X0065573Y0048737D01*
X0065573Y0048736D02*
X0067305Y0048736D01*
X0067305Y0048735D02*
X0065573Y0048735D01*
X0065573Y0048734D02*
X0067305Y0048734D01*
X0067305Y0048733D02*
X0065573Y0048733D01*
X0065573Y0048732D02*
X0067305Y0048732D01*
X0067305Y0048731D02*
X0065573Y0048731D01*
X0065573Y0048730D02*
X0067305Y0048730D01*
X0067305Y0048729D02*
X0065573Y0048729D01*
X0065573Y0048728D02*
X0067305Y0048728D01*
X0067305Y0048727D02*
X0065573Y0048727D01*
X0065573Y0048726D02*
X0067305Y0048726D01*
X0067305Y0048725D02*
X0065573Y0048725D01*
X0065573Y0048724D02*
X0067305Y0048724D01*
X0067305Y0048723D02*
X0065573Y0048723D01*
X0065573Y0048722D02*
X0067305Y0048722D01*
X0067305Y0048721D02*
X0065573Y0048721D01*
X0065573Y0048720D02*
X0067305Y0048720D01*
X0067305Y0048719D02*
X0065573Y0048719D01*
X0065573Y0048718D02*
X0067305Y0048718D01*
X0067305Y0048717D02*
X0065573Y0048717D01*
X0065573Y0048716D02*
X0067305Y0048716D01*
X0067305Y0048715D02*
X0065573Y0048715D01*
X0065573Y0048714D02*
X0067305Y0048714D01*
X0067305Y0048713D02*
X0065573Y0048713D01*
X0065573Y0048712D02*
X0067305Y0048712D01*
X0067305Y0048711D02*
X0065573Y0048711D01*
X0065573Y0048710D02*
X0067305Y0048710D01*
X0067305Y0048709D02*
X0065573Y0048709D01*
X0065573Y0048708D02*
X0067305Y0048708D01*
X0067305Y0048707D02*
X0065573Y0048707D01*
X0065573Y0048706D02*
X0067305Y0048706D01*
X0065573Y0048706D01*
X0065573Y0048705D02*
X0067305Y0048705D01*
X0067305Y0048704D02*
X0065573Y0048704D01*
X0065573Y0048703D02*
X0067305Y0048703D01*
X0067305Y0048702D02*
X0065573Y0048702D01*
X0065573Y0048701D02*
X0067305Y0048701D01*
X0067305Y0048700D02*
X0065573Y0048700D01*
X0065573Y0048699D02*
X0067305Y0048699D01*
X0067305Y0048698D02*
X0065573Y0048698D01*
X0065573Y0048697D02*
X0067305Y0048697D01*
X0067305Y0048696D02*
X0065573Y0048696D01*
X0065573Y0048695D02*
X0067305Y0048695D01*
X0067305Y0048694D02*
X0065573Y0048694D01*
X0065573Y0048693D02*
X0067305Y0048693D01*
X0067305Y0048692D02*
X0065573Y0048692D01*
X0065573Y0048691D02*
X0067305Y0048691D01*
X0067305Y0048690D02*
X0065573Y0048690D01*
X0065573Y0048689D02*
X0067305Y0048689D01*
X0067305Y0048688D02*
X0065573Y0048688D01*
X0065573Y0048687D02*
X0067305Y0048687D01*
X0067305Y0048686D02*
X0065573Y0048686D01*
X0065573Y0048685D02*
X0067305Y0048685D01*
X0067305Y0048684D02*
X0065573Y0048684D01*
X0065573Y0048683D02*
X0067305Y0048683D01*
X0067305Y0048682D02*
X0065573Y0048682D01*
X0065573Y0048681D02*
X0067305Y0048681D01*
X0067305Y0048680D02*
X0065573Y0048680D01*
X0065573Y0048679D02*
X0067305Y0048679D01*
X0067305Y0048678D02*
X0065573Y0048678D01*
X0065573Y0048677D02*
X0067305Y0048677D01*
X0067305Y0048676D02*
X0065573Y0048676D01*
X0065573Y0048675D02*
X0067305Y0048675D01*
X0067305Y0048674D02*
X0065573Y0048674D01*
X0065573Y0048673D02*
X0067305Y0048673D01*
X0067305Y0048672D02*
X0065573Y0048672D01*
X0065573Y0048671D02*
X0067305Y0048671D01*
X0067305Y0048670D02*
X0065573Y0048670D01*
X0065573Y0048669D02*
X0067305Y0048669D01*
X0067305Y0048668D02*
X0065573Y0048668D01*
X0065573Y0048667D02*
X0067305Y0048667D01*
X0067305Y0048666D02*
X0065573Y0048666D01*
X0065573Y0048665D02*
X0067305Y0048665D01*
X0067305Y0048664D02*
X0065573Y0048664D01*
X0065573Y0048663D02*
X0067305Y0048663D01*
X0067305Y0048662D02*
X0065573Y0048662D01*
X0065573Y0048661D02*
X0067305Y0048661D01*
X0067305Y0048660D02*
X0065573Y0048660D01*
X0065573Y0048659D02*
X0067305Y0048659D01*
X0067305Y0048658D02*
X0065573Y0048658D01*
X0065573Y0048657D02*
X0067305Y0048657D01*
X0067305Y0048656D02*
X0065573Y0048656D01*
X0065573Y0048655D02*
X0067305Y0048655D01*
X0067305Y0048654D02*
X0065573Y0048654D01*
X0065573Y0048653D02*
X0067305Y0048653D01*
X0067305Y0048652D02*
X0065573Y0048652D01*
X0065573Y0048651D02*
X0067305Y0048651D01*
X0067305Y0048650D02*
X0065573Y0048650D01*
X0065573Y0048649D02*
X0067305Y0048649D01*
X0067305Y0048648D02*
X0065573Y0048648D01*
X0065573Y0048647D02*
X0067305Y0048647D01*
X0067305Y0048646D02*
X0065573Y0048646D01*
X0065573Y0048645D02*
X0067305Y0048645D01*
X0067305Y0048644D02*
X0065573Y0048644D01*
X0067305Y0048644D01*
X0067305Y0048643D02*
X0065573Y0048643D01*
X0065573Y0048642D02*
X0067305Y0048642D01*
X0067305Y0048641D02*
X0065573Y0048641D01*
X0065573Y0048640D02*
X0067305Y0048640D01*
X0067305Y0048639D02*
X0065573Y0048639D01*
X0065573Y0048638D02*
X0067305Y0048638D01*
X0067305Y0048637D02*
X0065573Y0048637D01*
X0065573Y0048636D02*
X0067305Y0048636D01*
X0067305Y0048635D02*
X0065573Y0048635D01*
X0065573Y0048634D02*
X0067305Y0048634D01*
X0067305Y0048633D02*
X0065573Y0048633D01*
X0065573Y0048632D02*
X0067305Y0048632D01*
X0067305Y0048631D02*
X0065573Y0048631D01*
X0065573Y0048630D02*
X0067305Y0048630D01*
X0067305Y0048629D02*
X0065573Y0048629D01*
X0065573Y0048628D02*
X0067305Y0048628D01*
X0067305Y0048627D02*
X0065573Y0048627D01*
X0065573Y0048626D02*
X0067305Y0048626D01*
X0067305Y0048625D02*
X0065573Y0048625D01*
X0065573Y0048624D02*
X0067305Y0048624D01*
X0067305Y0048623D02*
X0065573Y0048623D01*
X0065573Y0048622D02*
X0067305Y0048622D01*
X0067305Y0048621D02*
X0065573Y0048621D01*
X0065573Y0048620D02*
X0067305Y0048620D01*
X0067305Y0048619D02*
X0065573Y0048619D01*
X0065573Y0048618D02*
X0067305Y0048618D01*
X0067305Y0048617D02*
X0065573Y0048617D01*
X0065573Y0048616D02*
X0067305Y0048616D01*
X0067305Y0048615D02*
X0065573Y0048615D01*
X0065573Y0048614D02*
X0067305Y0048614D01*
X0067305Y0048613D02*
X0065573Y0048613D01*
X0065573Y0048612D02*
X0067305Y0048612D01*
X0067305Y0048611D02*
X0065573Y0048611D01*
X0065573Y0048610D02*
X0067305Y0048610D01*
X0067305Y0048609D02*
X0065573Y0048609D01*
X0065573Y0048608D02*
X0067305Y0048608D01*
X0067305Y0048607D02*
X0065573Y0048607D01*
X0065573Y0048606D02*
X0067305Y0048606D01*
X0067305Y0048605D02*
X0065573Y0048605D01*
X0065573Y0048604D02*
X0067305Y0048604D01*
X0067305Y0048603D02*
X0065573Y0048603D01*
X0065573Y0048602D02*
X0067305Y0048602D01*
X0067305Y0048601D02*
X0065573Y0048601D01*
X0065573Y0048600D02*
X0067305Y0048600D01*
X0067305Y0048599D02*
X0065573Y0048599D01*
X0065573Y0048598D02*
X0067305Y0048598D01*
X0067305Y0048597D02*
X0065573Y0048597D01*
X0065573Y0048596D02*
X0067305Y0048596D01*
X0067305Y0048595D02*
X0065573Y0048595D01*
X0065573Y0048594D02*
X0067305Y0048594D01*
X0067305Y0048593D02*
X0065573Y0048593D01*
X0065573Y0048592D02*
X0067305Y0048592D01*
X0067305Y0048591D02*
X0065573Y0048591D01*
X0065573Y0048590D02*
X0067305Y0048590D01*
X0067305Y0048589D02*
X0065573Y0048589D01*
X0065573Y0048588D02*
X0067305Y0048588D01*
X0067305Y0048587D02*
X0065573Y0048587D01*
X0065573Y0048586D02*
X0067305Y0048586D01*
X0067305Y0048585D02*
X0065573Y0048585D01*
X0065573Y0048584D02*
X0067305Y0048584D01*
X0067305Y0048583D02*
X0065573Y0048583D01*
X0065573Y0048582D02*
X0067305Y0048582D01*
X0067305Y0048581D02*
X0065573Y0048581D01*
X0067305Y0048581D01*
X0067305Y0048580D02*
X0065573Y0048580D01*
X0065573Y0048579D02*
X0067305Y0048579D01*
X0067305Y0048578D02*
X0065573Y0048578D01*
X0065573Y0048577D02*
X0067305Y0048577D01*
X0067305Y0048576D02*
X0065573Y0048576D01*
X0065573Y0048575D02*
X0067305Y0048575D01*
X0067305Y0048574D02*
X0065573Y0048574D01*
X0065573Y0048573D02*
X0067305Y0048573D01*
X0067305Y0048572D02*
X0065573Y0048572D01*
X0065573Y0048571D02*
X0067305Y0048571D01*
X0067305Y0048570D02*
X0065573Y0048570D01*
X0065573Y0048569D02*
X0067305Y0048569D01*
X0067305Y0048568D02*
X0065573Y0048568D01*
X0065573Y0048567D02*
X0067305Y0048567D01*
X0067305Y0048566D02*
X0065573Y0048566D01*
X0065573Y0048565D02*
X0067305Y0048565D01*
X0067305Y0048564D02*
X0065573Y0048564D01*
X0065573Y0048563D02*
X0067305Y0048563D01*
X0067305Y0048562D02*
X0065573Y0048562D01*
X0065573Y0048561D02*
X0067305Y0048561D01*
X0067305Y0048560D02*
X0065573Y0048560D01*
X0065573Y0048559D02*
X0067305Y0048559D01*
X0067305Y0048558D02*
X0065573Y0048558D01*
X0065573Y0048557D02*
X0067305Y0048557D01*
X0067305Y0048556D02*
X0065573Y0048556D01*
X0065573Y0048555D02*
X0067305Y0048555D01*
X0067305Y0048554D02*
X0065573Y0048554D01*
X0065573Y0048553D02*
X0067305Y0048553D01*
X0067305Y0048552D02*
X0065573Y0048552D01*
X0065573Y0048551D02*
X0067305Y0048551D01*
X0067305Y0048550D02*
X0065573Y0048550D01*
X0065573Y0048549D02*
X0067305Y0048549D01*
X0067305Y0048548D02*
X0065573Y0048548D01*
X0065573Y0048547D02*
X0067305Y0048547D01*
X0067305Y0048546D02*
X0065573Y0048546D01*
X0065573Y0048545D02*
X0067305Y0048545D01*
X0067305Y0048544D02*
X0065573Y0048544D01*
X0065573Y0048543D02*
X0067305Y0048543D01*
X0067305Y0048542D02*
X0065573Y0048542D01*
X0065573Y0048541D02*
X0067305Y0048541D01*
X0067305Y0048540D02*
X0065573Y0048540D01*
X0065573Y0048539D02*
X0067305Y0048539D01*
X0067305Y0048538D02*
X0065573Y0048538D01*
X0065573Y0048537D02*
X0067305Y0048537D01*
X0067305Y0048536D02*
X0065573Y0048536D01*
X0065573Y0048535D02*
X0067305Y0048535D01*
X0067305Y0048534D02*
X0065573Y0048534D01*
X0065573Y0048533D02*
X0067305Y0048533D01*
X0067305Y0048532D02*
X0065573Y0048532D01*
X0065573Y0048531D02*
X0067305Y0048531D01*
X0067305Y0048530D02*
X0065573Y0048530D01*
X0065573Y0048529D02*
X0067305Y0048529D01*
X0067305Y0048528D02*
X0065573Y0048528D01*
X0065573Y0048527D02*
X0067305Y0048527D01*
X0067305Y0048526D02*
X0065573Y0048526D01*
X0065573Y0048525D02*
X0067305Y0048525D01*
X0067305Y0048524D02*
X0065573Y0048524D01*
X0065573Y0048523D02*
X0067305Y0048523D01*
X0067305Y0048522D02*
X0065573Y0048522D01*
X0065573Y0048521D02*
X0067305Y0048521D01*
X0067305Y0048520D02*
X0065573Y0048520D01*
X0065573Y0048519D02*
X0067305Y0048519D01*
X0065573Y0048519D01*
X0065573Y0048518D02*
X0067305Y0048518D01*
X0067305Y0048517D02*
X0065573Y0048517D01*
X0065573Y0048516D02*
X0067305Y0048516D01*
X0067305Y0048515D02*
X0065573Y0048515D01*
X0065573Y0048514D02*
X0067305Y0048514D01*
X0067305Y0048513D02*
X0065573Y0048513D01*
X0065573Y0048512D02*
X0067305Y0048512D01*
X0067305Y0048511D02*
X0065573Y0048511D01*
X0065573Y0048510D02*
X0067305Y0048510D01*
X0067305Y0048509D02*
X0065573Y0048509D01*
X0065573Y0048508D02*
X0067305Y0048508D01*
X0067305Y0048507D02*
X0065573Y0048507D01*
X0065573Y0048506D02*
X0067305Y0048506D01*
X0067305Y0048505D02*
X0065573Y0048505D01*
X0065573Y0048504D02*
X0067305Y0048504D01*
X0067305Y0048503D02*
X0065573Y0048503D01*
X0065573Y0048502D02*
X0067305Y0048502D01*
X0067305Y0048501D02*
X0065573Y0048501D01*
X0065573Y0048500D02*
X0067305Y0048500D01*
X0067305Y0048499D02*
X0065573Y0048499D01*
X0065573Y0048498D02*
X0067305Y0048498D01*
X0067305Y0048497D02*
X0065573Y0048497D01*
X0065573Y0048496D02*
X0067305Y0048496D01*
X0067305Y0048495D02*
X0065573Y0048495D01*
X0065573Y0048494D02*
X0067305Y0048494D01*
X0067305Y0048493D02*
X0065573Y0048493D01*
X0065573Y0048492D02*
X0067305Y0048492D01*
X0067305Y0048491D02*
X0065573Y0048491D01*
X0065573Y0048490D02*
X0067305Y0048490D01*
X0067305Y0048489D02*
X0065573Y0048489D01*
X0065573Y0048488D02*
X0067305Y0048488D01*
X0067305Y0048487D02*
X0065573Y0048487D01*
X0065573Y0048486D02*
X0067305Y0048486D01*
X0067305Y0048485D02*
X0065573Y0048485D01*
X0065573Y0048484D02*
X0067305Y0048484D01*
X0067305Y0048483D02*
X0065573Y0048483D01*
X0065573Y0048482D02*
X0067305Y0048482D01*
X0067305Y0048481D02*
X0065573Y0048481D01*
X0065573Y0048480D02*
X0067305Y0048480D01*
X0067305Y0048479D02*
X0065573Y0048479D01*
X0065573Y0048478D02*
X0067305Y0048478D01*
X0067305Y0048477D02*
X0065573Y0048477D01*
X0065573Y0048476D02*
X0067305Y0048476D01*
X0067305Y0048475D02*
X0065573Y0048475D01*
X0065573Y0048474D02*
X0067305Y0048474D01*
X0067305Y0048473D02*
X0065573Y0048473D01*
X0065573Y0048472D02*
X0067305Y0048472D01*
X0067305Y0048471D02*
X0065573Y0048471D01*
X0065573Y0048470D02*
X0067305Y0048470D01*
X0067305Y0048469D02*
X0065573Y0048469D01*
X0065573Y0048468D02*
X0067305Y0048468D01*
X0067305Y0048467D02*
X0065573Y0048467D01*
X0065573Y0048466D02*
X0067305Y0048466D01*
X0067305Y0048465D02*
X0065573Y0048465D01*
X0065573Y0048464D02*
X0067305Y0048464D01*
X0067305Y0048463D02*
X0065573Y0048463D01*
X0065573Y0048462D02*
X0067305Y0048462D01*
X0067305Y0048461D02*
X0065573Y0048461D01*
X0065573Y0048460D02*
X0067305Y0048460D01*
X0067305Y0048459D02*
X0065573Y0048459D01*
X0065573Y0048458D02*
X0067305Y0048458D01*
X0067305Y0048457D02*
X0065573Y0048457D01*
X0065573Y0048456D02*
X0067305Y0048456D01*
X0065573Y0048456D01*
X0065573Y0048455D02*
X0067305Y0048455D01*
X0067305Y0048454D02*
X0065573Y0048454D01*
X0065573Y0048453D02*
X0067305Y0048453D01*
X0067305Y0048452D02*
X0065573Y0048452D01*
X0065573Y0048451D02*
X0067305Y0048451D01*
X0067305Y0048450D02*
X0065573Y0048450D01*
X0065573Y0048449D02*
X0067305Y0048449D01*
X0067305Y0048448D02*
X0065573Y0048448D01*
X0065573Y0048447D02*
X0067305Y0048447D01*
X0067305Y0048446D02*
X0065573Y0048446D01*
X0065573Y0048445D02*
X0067305Y0048445D01*
X0067305Y0048444D02*
X0065573Y0048444D01*
X0065573Y0048443D02*
X0067305Y0048443D01*
X0067305Y0048442D02*
X0065573Y0048442D01*
X0065573Y0048441D02*
X0067305Y0048441D01*
X0067305Y0048440D02*
X0065573Y0048440D01*
X0065573Y0048439D02*
X0067305Y0048439D01*
X0067305Y0048438D02*
X0065573Y0048438D01*
X0065573Y0048437D02*
X0067305Y0048437D01*
X0067305Y0048436D02*
X0065573Y0048436D01*
X0065573Y0048435D02*
X0067305Y0048435D01*
X0067305Y0048434D02*
X0065573Y0048434D01*
X0065573Y0048433D02*
X0067305Y0048433D01*
X0067305Y0048432D02*
X0065573Y0048432D01*
X0065573Y0048431D02*
X0067305Y0048431D01*
X0067305Y0048430D02*
X0065573Y0048430D01*
X0065573Y0048429D02*
X0067305Y0048429D01*
X0067305Y0048428D02*
X0065573Y0048428D01*
X0065573Y0048427D02*
X0067305Y0048427D01*
X0067305Y0048426D02*
X0065573Y0048426D01*
X0065573Y0048425D02*
X0067305Y0048425D01*
X0067305Y0048424D02*
X0065573Y0048424D01*
X0065573Y0048423D02*
X0067305Y0048423D01*
X0067305Y0048422D02*
X0065573Y0048422D01*
X0065573Y0048421D02*
X0067305Y0048421D01*
X0067305Y0048420D02*
X0065573Y0048420D01*
X0065573Y0048419D02*
X0067305Y0048419D01*
X0067305Y0048418D02*
X0065573Y0048418D01*
X0065573Y0048417D02*
X0067305Y0048417D01*
X0067305Y0048416D02*
X0065573Y0048416D01*
X0065573Y0048415D02*
X0067305Y0048415D01*
X0067305Y0048414D02*
X0065573Y0048414D01*
X0065573Y0048413D02*
X0067305Y0048413D01*
X0067305Y0048412D02*
X0065573Y0048412D01*
X0065573Y0048411D02*
X0067305Y0048411D01*
X0067305Y0048410D02*
X0065573Y0048410D01*
X0065573Y0048409D02*
X0067305Y0048409D01*
X0067305Y0048408D02*
X0065573Y0048408D01*
X0065573Y0048407D02*
X0067305Y0048407D01*
X0067305Y0048406D02*
X0065573Y0048406D01*
X0065573Y0048405D02*
X0067305Y0048405D01*
X0067305Y0048404D02*
X0065573Y0048404D01*
X0065573Y0048403D02*
X0067305Y0048403D01*
X0067305Y0048402D02*
X0065573Y0048402D01*
X0065573Y0048401D02*
X0067305Y0048401D01*
X0067305Y0048400D02*
X0065573Y0048400D01*
X0065573Y0048399D02*
X0067305Y0048399D01*
X0067305Y0048398D02*
X0065573Y0048398D01*
X0065573Y0048397D02*
X0067305Y0048397D01*
X0067305Y0048396D02*
X0065573Y0048396D01*
X0065573Y0048395D02*
X0067305Y0048395D01*
X0067305Y0048394D02*
X0065573Y0048394D01*
X0067305Y0048394D01*
X0067305Y0048393D02*
X0065573Y0048393D01*
X0065573Y0048392D02*
X0067305Y0048392D01*
X0067305Y0048391D02*
X0065573Y0048391D01*
X0065573Y0048390D02*
X0067305Y0048390D01*
X0067305Y0048389D02*
X0065573Y0048389D01*
X0065573Y0048388D02*
X0067305Y0048388D01*
X0067305Y0048387D02*
X0065573Y0048387D01*
X0065573Y0048386D02*
X0067305Y0048386D01*
X0067305Y0048385D02*
X0065573Y0048385D01*
X0065573Y0048384D02*
X0067305Y0048384D01*
X0067305Y0048383D02*
X0065573Y0048383D01*
X0065573Y0048382D02*
X0067305Y0048382D01*
X0067305Y0048381D02*
X0065573Y0048381D01*
X0065573Y0048380D02*
X0067305Y0048380D01*
X0067305Y0048379D02*
X0065573Y0048379D01*
X0065573Y0048378D02*
X0067305Y0048378D01*
X0067305Y0048377D02*
X0065573Y0048377D01*
X0065573Y0048376D02*
X0067305Y0048376D01*
X0067305Y0048375D02*
X0065573Y0048375D01*
X0065573Y0048374D02*
X0067305Y0048374D01*
X0067305Y0048373D02*
X0065573Y0048373D01*
X0065573Y0048372D02*
X0067305Y0048372D01*
X0067305Y0048371D02*
X0065573Y0048371D01*
X0065573Y0048370D02*
X0067305Y0048370D01*
X0067305Y0048369D02*
X0065573Y0048369D01*
X0065573Y0048368D02*
X0067305Y0048368D01*
X0067305Y0048367D02*
X0065573Y0048367D01*
X0065573Y0048366D02*
X0067305Y0048366D01*
X0067305Y0048365D02*
X0065573Y0048365D01*
X0065573Y0048364D02*
X0067305Y0048364D01*
X0067305Y0048363D02*
X0065573Y0048363D01*
X0065573Y0048362D02*
X0067305Y0048362D01*
X0067305Y0048361D02*
X0065573Y0048361D01*
X0065573Y0048360D02*
X0067305Y0048360D01*
X0067305Y0048359D02*
X0065573Y0048359D01*
X0065573Y0048358D02*
X0067305Y0048358D01*
X0067305Y0048357D02*
X0065573Y0048357D01*
X0065573Y0048356D02*
X0067305Y0048356D01*
X0067305Y0048355D02*
X0065573Y0048355D01*
X0065573Y0048354D02*
X0067305Y0048354D01*
X0067305Y0048353D02*
X0065573Y0048353D01*
X0065573Y0048352D02*
X0067305Y0048352D01*
X0067305Y0048351D02*
X0065573Y0048351D01*
X0065573Y0048350D02*
X0067305Y0048350D01*
X0067305Y0048349D02*
X0065573Y0048349D01*
X0065573Y0048348D02*
X0067305Y0048348D01*
X0067305Y0048347D02*
X0065573Y0048347D01*
X0065573Y0048346D02*
X0067305Y0048346D01*
X0067305Y0048345D02*
X0065573Y0048345D01*
X0065573Y0048344D02*
X0067305Y0048344D01*
X0067305Y0048343D02*
X0065573Y0048343D01*
X0065573Y0048342D02*
X0067305Y0048342D01*
X0067305Y0048341D02*
X0065573Y0048341D01*
X0065573Y0048340D02*
X0067305Y0048340D01*
X0067305Y0048339D02*
X0065573Y0048339D01*
X0065573Y0048338D02*
X0067305Y0048338D01*
X0067305Y0048337D02*
X0065573Y0048337D01*
X0065573Y0048336D02*
X0067305Y0048336D01*
X0067305Y0048335D02*
X0065573Y0048335D01*
X0065573Y0048334D02*
X0067305Y0048334D01*
X0067305Y0048333D02*
X0065573Y0048333D01*
X0065573Y0048332D02*
X0067305Y0048332D01*
X0067305Y0048331D02*
X0065573Y0048331D01*
X0067305Y0048331D01*
X0067305Y0048330D02*
X0065573Y0048330D01*
X0065573Y0048329D02*
X0067305Y0048329D01*
X0067305Y0048328D02*
X0065573Y0048328D01*
X0065573Y0048327D02*
X0067305Y0048327D01*
X0067305Y0048326D02*
X0065573Y0048326D01*
X0065573Y0048325D02*
X0067305Y0048325D01*
X0067305Y0048324D02*
X0065573Y0048324D01*
X0065573Y0048323D02*
X0067305Y0048323D01*
X0067305Y0048322D02*
X0065573Y0048322D01*
X0065573Y0048321D02*
X0067305Y0048321D01*
X0067305Y0048320D02*
X0065573Y0048320D01*
X0065573Y0048319D02*
X0067305Y0048319D01*
X0067305Y0048318D02*
X0065573Y0048318D01*
X0065573Y0048317D02*
X0067305Y0048317D01*
X0067305Y0048316D02*
X0065573Y0048316D01*
X0065573Y0048315D02*
X0067305Y0048315D01*
X0067305Y0048314D02*
X0065573Y0048314D01*
X0065573Y0048313D02*
X0067305Y0048313D01*
X0067305Y0048312D02*
X0065573Y0048312D01*
X0065573Y0048311D02*
X0067305Y0048311D01*
X0067305Y0048310D02*
X0065573Y0048310D01*
X0065573Y0048309D02*
X0067305Y0048309D01*
X0067305Y0048308D02*
X0065573Y0048308D01*
X0065573Y0048307D02*
X0067305Y0048307D01*
X0067305Y0048306D02*
X0065573Y0048306D01*
X0065573Y0048305D02*
X0067305Y0048305D01*
X0067305Y0048304D02*
X0065573Y0048304D01*
X0065573Y0048303D02*
X0067305Y0048303D01*
X0067305Y0048302D02*
X0065573Y0048302D01*
X0065573Y0048301D02*
X0067305Y0048301D01*
X0067305Y0048300D02*
X0065573Y0048300D01*
X0065573Y0048299D02*
X0067305Y0048299D01*
X0067305Y0048298D02*
X0065573Y0048298D01*
X0065573Y0048297D02*
X0067305Y0048297D01*
X0067305Y0048296D02*
X0065573Y0048296D01*
X0065573Y0048295D02*
X0067305Y0048295D01*
X0067305Y0048294D02*
X0065573Y0048294D01*
X0065573Y0048293D02*
X0067305Y0048293D01*
X0067305Y0048292D02*
X0065573Y0048292D01*
X0065573Y0048291D02*
X0067305Y0048291D01*
X0067305Y0048290D02*
X0065573Y0048290D01*
X0065573Y0048289D02*
X0067305Y0048289D01*
X0067305Y0048288D02*
X0065573Y0048288D01*
X0065573Y0048287D02*
X0067305Y0048287D01*
X0067305Y0048286D02*
X0065573Y0048286D01*
X0065573Y0048285D02*
X0067305Y0048285D01*
X0067305Y0048284D02*
X0065573Y0048284D01*
X0065573Y0048283D02*
X0067305Y0048283D01*
X0067305Y0048282D02*
X0065573Y0048282D01*
X0065573Y0048281D02*
X0067305Y0048281D01*
X0067305Y0048280D02*
X0065573Y0048280D01*
X0065573Y0048279D02*
X0067305Y0048279D01*
X0067305Y0048278D02*
X0065573Y0048278D01*
X0065573Y0048277D02*
X0067305Y0048277D01*
X0067305Y0048276D02*
X0065573Y0048276D01*
X0065573Y0048275D02*
X0067305Y0048275D01*
X0067305Y0048274D02*
X0065573Y0048274D01*
X0065573Y0048273D02*
X0067305Y0048273D01*
X0067305Y0048272D02*
X0065573Y0048272D01*
X0065573Y0048271D02*
X0067305Y0048271D01*
X0067305Y0048270D02*
X0065573Y0048270D01*
X0065573Y0048269D02*
X0067305Y0048269D01*
X0065573Y0048269D01*
X0065573Y0048268D02*
X0067305Y0048268D01*
X0067305Y0048267D02*
X0065573Y0048267D01*
X0065573Y0048266D02*
X0067305Y0048266D01*
X0067305Y0048265D02*
X0065573Y0048265D01*
X0065573Y0048264D02*
X0067305Y0048264D01*
X0067305Y0048263D02*
X0065573Y0048263D01*
X0065573Y0048262D02*
X0067305Y0048262D01*
X0067305Y0048261D02*
X0065573Y0048261D01*
X0065573Y0048260D02*
X0067305Y0048260D01*
X0067305Y0048259D02*
X0065573Y0048259D01*
X0065573Y0048258D02*
X0067305Y0048258D01*
X0067305Y0048257D02*
X0065573Y0048257D01*
X0065573Y0048256D02*
X0067305Y0048256D01*
X0067305Y0048255D02*
X0065573Y0048255D01*
X0065573Y0048254D02*
X0067305Y0048254D01*
X0067305Y0048253D02*
X0065573Y0048253D01*
X0065573Y0048252D02*
X0067305Y0048252D01*
X0067305Y0048251D02*
X0065573Y0048251D01*
X0065573Y0048250D02*
X0067305Y0048250D01*
X0067305Y0048249D02*
X0065573Y0048249D01*
X0065573Y0048248D02*
X0067305Y0048248D01*
X0067305Y0048247D02*
X0065573Y0048247D01*
X0065573Y0048246D02*
X0067305Y0048246D01*
X0067305Y0048245D02*
X0065573Y0048245D01*
X0065573Y0048244D02*
X0067305Y0048244D01*
X0067305Y0048243D02*
X0065573Y0048243D01*
X0065573Y0048242D02*
X0067305Y0048242D01*
X0067305Y0048241D02*
X0065573Y0048241D01*
X0065573Y0048240D02*
X0067305Y0048240D01*
X0067305Y0048239D02*
X0065573Y0048239D01*
X0065573Y0048238D02*
X0067305Y0048238D01*
X0067305Y0048237D02*
X0065573Y0048237D01*
X0065573Y0048236D02*
X0067305Y0048236D01*
X0067305Y0048235D02*
X0065573Y0048235D01*
X0065573Y0048234D02*
X0067305Y0048234D01*
X0067305Y0048233D02*
X0065573Y0048233D01*
X0065573Y0048232D02*
X0067305Y0048232D01*
X0067305Y0048231D02*
X0065573Y0048231D01*
X0065573Y0048230D02*
X0067305Y0048230D01*
X0067305Y0048229D02*
X0065573Y0048229D01*
X0065573Y0048228D02*
X0067305Y0048228D01*
X0067305Y0048227D02*
X0065573Y0048227D01*
X0065573Y0048226D02*
X0067305Y0048226D01*
X0067305Y0048225D02*
X0065573Y0048225D01*
X0065573Y0048224D02*
X0067305Y0048224D01*
X0067305Y0048223D02*
X0065573Y0048223D01*
X0065573Y0048222D02*
X0067305Y0048222D01*
X0067305Y0048221D02*
X0065573Y0048221D01*
X0065573Y0048220D02*
X0067305Y0048220D01*
X0067305Y0048219D02*
X0065573Y0048219D01*
X0065573Y0048218D02*
X0067305Y0048218D01*
X0067305Y0048217D02*
X0065573Y0048217D01*
X0065573Y0048216D02*
X0067305Y0048216D01*
X0067305Y0048215D02*
X0065573Y0048215D01*
X0065573Y0048214D02*
X0067305Y0048214D01*
X0067305Y0048213D02*
X0065573Y0048213D01*
X0065573Y0048212D02*
X0067305Y0048212D01*
X0067305Y0048211D02*
X0065573Y0048211D01*
X0065573Y0048210D02*
X0067305Y0048210D01*
X0067305Y0048209D02*
X0065573Y0048209D01*
X0065573Y0048208D02*
X0067305Y0048208D01*
X0067305Y0048207D02*
X0065573Y0048207D01*
X0065573Y0048206D02*
X0067305Y0048206D01*
X0065573Y0048206D01*
X0065573Y0048205D02*
X0067305Y0048205D01*
X0067305Y0048204D02*
X0065573Y0048204D01*
X0065573Y0048203D02*
X0067305Y0048203D01*
X0067305Y0048202D02*
X0065573Y0048202D01*
X0065573Y0048201D02*
X0067305Y0048201D01*
X0067305Y0048200D02*
X0065573Y0048200D01*
X0065573Y0048199D02*
X0067305Y0048199D01*
X0067305Y0048198D02*
X0065573Y0048198D01*
X0065573Y0048197D02*
X0067305Y0048197D01*
X0067305Y0048196D02*
X0065573Y0048196D01*
X0065573Y0048195D02*
X0067305Y0048195D01*
X0067305Y0048194D02*
X0065573Y0048194D01*
X0065573Y0048193D02*
X0067305Y0048193D01*
X0067305Y0048192D02*
X0065573Y0048192D01*
X0065573Y0048191D02*
X0067305Y0048191D01*
X0067305Y0048190D02*
X0065573Y0048190D01*
X0065573Y0048189D02*
X0067305Y0048189D01*
X0067305Y0048188D02*
X0065573Y0048188D01*
X0065573Y0048187D02*
X0067305Y0048187D01*
X0067305Y0048186D02*
X0065573Y0048186D01*
X0065573Y0048185D02*
X0067305Y0048185D01*
X0067305Y0048184D02*
X0065573Y0048184D01*
X0065573Y0048183D02*
X0067305Y0048183D01*
X0067305Y0048182D02*
X0065573Y0048182D01*
X0065573Y0048181D02*
X0067305Y0048181D01*
X0067305Y0048180D02*
X0065573Y0048180D01*
X0065573Y0048179D02*
X0067305Y0048179D01*
X0067305Y0048178D02*
X0065573Y0048178D01*
X0065573Y0048177D02*
X0067305Y0048177D01*
X0067305Y0048176D02*
X0065573Y0048176D01*
X0065573Y0048175D02*
X0067305Y0048175D01*
X0067305Y0048174D02*
X0065573Y0048174D01*
X0065573Y0048173D02*
X0067305Y0048173D01*
X0067305Y0048172D02*
X0065573Y0048172D01*
X0065573Y0048171D02*
X0067305Y0048171D01*
X0067305Y0048170D02*
X0065573Y0048170D01*
X0065573Y0048169D02*
X0067305Y0048169D01*
X0067305Y0048168D02*
X0065573Y0048168D01*
X0065573Y0048167D02*
X0067305Y0048167D01*
X0067305Y0048166D02*
X0065573Y0048166D01*
X0065573Y0048165D02*
X0067305Y0048165D01*
X0067305Y0048164D02*
X0065573Y0048164D01*
X0065573Y0048163D02*
X0067305Y0048163D01*
X0067305Y0048162D02*
X0065573Y0048162D01*
X0065573Y0048161D02*
X0067305Y0048161D01*
X0067305Y0048160D02*
X0065573Y0048160D01*
X0065573Y0048159D02*
X0067305Y0048159D01*
X0067305Y0048158D02*
X0065573Y0048158D01*
X0065573Y0048157D02*
X0067305Y0048157D01*
X0067305Y0048156D02*
X0065573Y0048156D01*
X0065573Y0048155D02*
X0067305Y0048155D01*
X0067305Y0048154D02*
X0065573Y0048154D01*
X0065573Y0048153D02*
X0067305Y0048153D01*
X0067305Y0048152D02*
X0065573Y0048152D01*
X0065573Y0048151D02*
X0067305Y0048151D01*
X0067305Y0048150D02*
X0065573Y0048150D01*
X0065573Y0048149D02*
X0067305Y0048149D01*
X0067305Y0048148D02*
X0065573Y0048148D01*
X0065573Y0048147D02*
X0067305Y0048147D01*
X0067305Y0048146D02*
X0065573Y0048146D01*
X0065573Y0048145D02*
X0067305Y0048145D01*
X0067305Y0048144D02*
X0065573Y0048144D01*
X0067305Y0048144D01*
X0067305Y0048143D02*
X0065573Y0048143D01*
X0065573Y0048142D02*
X0067305Y0048142D01*
X0067305Y0048141D02*
X0065573Y0048141D01*
X0065573Y0048140D02*
X0067305Y0048140D01*
X0067305Y0048139D02*
X0065573Y0048139D01*
X0065573Y0048138D02*
X0067305Y0048138D01*
X0067305Y0048137D02*
X0065573Y0048137D01*
X0065573Y0048136D02*
X0067305Y0048136D01*
X0067305Y0048135D02*
X0065573Y0048135D01*
X0065573Y0048134D02*
X0067305Y0048134D01*
X0067305Y0048133D02*
X0065573Y0048133D01*
X0065573Y0048132D02*
X0067305Y0048132D01*
X0067305Y0048131D02*
X0065573Y0048131D01*
X0065573Y0048130D02*
X0067305Y0048130D01*
X0067305Y0048129D02*
X0065573Y0048129D01*
X0065573Y0048128D02*
X0067305Y0048128D01*
X0067305Y0048127D02*
X0065573Y0048127D01*
X0065573Y0048126D02*
X0067305Y0048126D01*
X0067305Y0048125D02*
X0065573Y0048125D01*
X0065573Y0048124D02*
X0067305Y0048124D01*
X0067305Y0048123D02*
X0065573Y0048123D01*
X0065573Y0048122D02*
X0067305Y0048122D01*
X0067305Y0048121D02*
X0065573Y0048121D01*
X0065573Y0048120D02*
X0067305Y0048120D01*
X0067305Y0048119D02*
X0065573Y0048119D01*
X0065573Y0048118D02*
X0067305Y0048118D01*
X0067305Y0048117D02*
X0065573Y0048117D01*
X0065573Y0048116D02*
X0067305Y0048116D01*
X0067305Y0048115D02*
X0065573Y0048115D01*
X0065573Y0048114D02*
X0067305Y0048114D01*
X0067305Y0048113D02*
X0065573Y0048113D01*
X0065573Y0048112D02*
X0067305Y0048112D01*
X0067305Y0048111D02*
X0065573Y0048111D01*
X0065573Y0048110D02*
X0067305Y0048110D01*
X0067305Y0048109D02*
X0065573Y0048109D01*
X0065573Y0048108D02*
X0067305Y0048108D01*
X0067305Y0048107D02*
X0065573Y0048107D01*
X0065573Y0048106D02*
X0067305Y0048106D01*
X0067305Y0048105D02*
X0065573Y0048105D01*
X0065573Y0048104D02*
X0067305Y0048104D01*
X0067305Y0048103D02*
X0065573Y0048103D01*
X0065573Y0048102D02*
X0067305Y0048102D01*
X0067305Y0048101D02*
X0065573Y0048101D01*
X0065573Y0048100D02*
X0067305Y0048100D01*
X0067305Y0048099D02*
X0065573Y0048099D01*
X0065573Y0048098D02*
X0067305Y0048098D01*
X0067305Y0048097D02*
X0065573Y0048097D01*
X0065573Y0048096D02*
X0067305Y0048096D01*
X0067305Y0048095D02*
X0065573Y0048095D01*
X0065573Y0048094D02*
X0067305Y0048094D01*
X0067305Y0048093D02*
X0065573Y0048093D01*
X0065573Y0048092D02*
X0067305Y0048092D01*
X0067305Y0048091D02*
X0065573Y0048091D01*
X0065573Y0048090D02*
X0067305Y0048090D01*
X0067305Y0048089D02*
X0065573Y0048089D01*
X0065573Y0048088D02*
X0067305Y0048088D01*
X0067305Y0048087D02*
X0065573Y0048087D01*
X0065573Y0048086D02*
X0067305Y0048086D01*
X0067305Y0048085D02*
X0065573Y0048085D01*
X0065573Y0048084D02*
X0067305Y0048084D01*
X0067305Y0048083D02*
X0065573Y0048083D01*
X0065573Y0048082D02*
X0067305Y0048082D01*
X0067305Y0048081D02*
X0065573Y0048081D01*
X0067305Y0048081D01*
X0067305Y0048080D02*
X0065573Y0048080D01*
X0065573Y0048079D02*
X0067305Y0048079D01*
X0067305Y0048078D02*
X0065573Y0048078D01*
X0065573Y0048077D02*
X0067305Y0048077D01*
X0067305Y0048076D02*
X0065573Y0048076D01*
X0065573Y0048075D02*
X0067305Y0048075D01*
X0067305Y0048074D02*
X0065573Y0048074D01*
X0065573Y0048073D02*
X0067305Y0048073D01*
X0067305Y0048072D02*
X0065573Y0048072D01*
X0065573Y0048071D02*
X0067305Y0048071D01*
X0067305Y0048070D02*
X0065573Y0048070D01*
X0065573Y0048069D02*
X0067305Y0048069D01*
X0067305Y0048068D02*
X0065573Y0048068D01*
X0065573Y0048067D02*
X0067305Y0048067D01*
X0067305Y0048066D02*
X0065573Y0048066D01*
X0065573Y0048065D02*
X0067305Y0048065D01*
X0067305Y0048064D02*
X0065573Y0048064D01*
X0065573Y0048063D02*
X0067305Y0048063D01*
X0067305Y0048062D02*
X0065573Y0048062D01*
X0065573Y0048061D02*
X0067305Y0048061D01*
X0067305Y0048060D02*
X0065573Y0048060D01*
D18*
X0078683Y0102194D03*
D19*
X0048683Y0102194D03*
X0108683Y0102194D03*
D20*
X0068447Y0064005D03*
X0062935Y0064005D03*
X0062935Y0058493D03*
X0068447Y0058493D03*
X0103880Y0058493D03*
X0109392Y0058493D03*
X0109392Y0045501D03*
X0103880Y0045501D03*
D21*
X0097975Y0045698D03*
X0097975Y0049241D03*
X0097975Y0052784D03*
X0097975Y0056328D03*
X0093250Y0056328D03*
X0093250Y0052784D03*
X0093250Y0049241D03*
X0093250Y0045698D03*
D22*
X0108211Y0035658D03*
X0112935Y0035658D03*
X0112935Y0030146D03*
X0108211Y0030146D03*
D23*
X0109195Y0050225D03*
X0104077Y0050225D03*
D24*
X0048762Y0080934D03*
X0048762Y0084083D03*
D25*
X0101518Y0021091D03*
X0104668Y0021091D03*
D26*
X0104746Y0021013D01*
X0121991Y0021013D01*
X0112935Y0030146D02*
X0108211Y0030146D01*
X0098565Y0030146D01*
X0101518Y0027194D01*
X0101518Y0021091D01*
X0096400Y0032902D02*
X0110180Y0032902D01*
X0112935Y0035658D01*
X0117345Y0035658D01*
X0121991Y0031013D01*
X0120180Y0039202D02*
X0111754Y0039202D01*
X0108211Y0035658D01*
X0096400Y0035658D01*
X0093250Y0038808D01*
X0093250Y0045698D01*
X0093250Y0049241D02*
X0091479Y0049241D01*
X0090101Y0047863D01*
X0090101Y0039202D01*
X0096400Y0032902D01*
X0085573Y0040383D02*
X0085573Y0043335D01*
X0086557Y0044320D01*
X0086557Y0054950D01*
X0093250Y0061643D01*
X0101912Y0061643D01*
X0117266Y0076997D01*
X0117266Y0080658D01*
X0121991Y0085383D01*
X0116085Y0086052D02*
X0116085Y0083296D01*
X0110967Y0078178D01*
X0110967Y0076209D01*
X0107424Y0072666D01*
X0098762Y0072666D01*
X0096006Y0069910D01*
X0090494Y0069910D01*
X0078683Y0058099D01*
X0078683Y0052194D01*
X0075731Y0049241D01*
X0075731Y0040383D01*
X0077699Y0040383D02*
X0077699Y0048060D01*
X0080652Y0051013D01*
X0080652Y0057312D01*
X0091282Y0067942D01*
X0097187Y0067942D01*
X0099943Y0070698D01*
X0108211Y0070698D01*
X0113723Y0076209D01*
X0113723Y0077391D01*
X0108998Y0076997D02*
X0108998Y0078965D01*
X0113723Y0083690D01*
X0113723Y0087233D01*
X0116872Y0090383D01*
X0116872Y0110068D01*
X0121991Y0115186D01*
X0121991Y0115383D01*
X0108998Y0076997D02*
X0106636Y0074635D01*
X0097581Y0074635D01*
X0094825Y0071879D01*
X0089707Y0071879D01*
X0081833Y0064005D01*
X0068447Y0064005D01*
X0062935Y0064005D02*
X0062935Y0058493D01*
X0061361Y0058493D01*
X0059786Y0056918D01*
X0059786Y0050619D01*
X0061853Y0048552D01*
X0063723Y0048552D01*
X0063723Y0051111D02*
X0063723Y0053769D01*
X0068447Y0058493D01*
X0071203Y0058493D01*
X0072384Y0057312D01*
X0072384Y0049831D01*
X0073172Y0049044D01*
X0069628Y0045107D02*
X0068054Y0045107D01*
X0066439Y0046721D01*
X0066439Y0049831D01*
X0069628Y0045107D02*
X0071794Y0042942D01*
X0071794Y0040383D01*
X0073762Y0040383D02*
X0073762Y0035855D01*
X0073565Y0035658D01*
X0079668Y0040383D02*
X0079668Y0042548D01*
X0079471Y0042745D01*
X0079471Y0047469D01*
X0082620Y0050619D01*
X0082620Y0056524D01*
X0092069Y0065973D01*
X0098762Y0065973D01*
X0100731Y0067942D01*
X0104668Y0067942D01*
X0101518Y0064792D02*
X0100731Y0064005D01*
X0092857Y0064005D01*
X0084589Y0055737D01*
X0084589Y0049831D01*
X0081046Y0046288D01*
X0081046Y0043139D01*
X0081636Y0042548D01*
X0081636Y0040383D01*
X0083605Y0040383D02*
X0083605Y0045107D01*
X0072384Y0057312D02*
X0071597Y0057706D01*
X0064510Y0072666D02*
X0062542Y0074635D01*
X0050337Y0074635D01*
X0048762Y0076209D01*
X0048762Y0080934D01*
X0048762Y0084083D02*
X0048762Y0102115D01*
X0048683Y0102194D01*
X0097975Y0056328D02*
X0101715Y0056328D01*
X0103880Y0058493D01*
X0103093Y0054556D02*
X0101321Y0052784D01*
X0103880Y0050225D01*
X0104077Y0050225D01*
X0101321Y0052784D02*
X0097975Y0052784D01*
X0097975Y0049241D02*
X0100140Y0049241D01*
X0103880Y0045501D01*
X0120180Y0039202D02*
X0121991Y0041013D01*
D27*
X0125817Y0036849D02*
X0134551Y0036849D01*
X0134551Y0038447D02*
X0127043Y0038447D01*
X0126780Y0037812D02*
X0127641Y0039889D01*
X0127641Y0042136D01*
X0126780Y0044213D01*
X0125191Y0045802D01*
X0124804Y0045963D01*
X0125477Y0045963D01*
X0125935Y0046085D01*
X0126346Y0046322D01*
X0126681Y0046657D01*
X0126918Y0047068D01*
X0127041Y0047526D01*
X0127041Y0050938D01*
X0122066Y0050938D01*
X0122066Y0051088D01*
X0127041Y0051088D01*
X0127041Y0054500D01*
X0126918Y0054957D01*
X0126681Y0055368D01*
X0126346Y0055703D01*
X0125935Y0055940D01*
X0125477Y0056063D01*
X0122066Y0056063D01*
X0122066Y0051088D01*
X0121916Y0051088D01*
X0121916Y0056063D01*
X0118504Y0056063D01*
X0118046Y0055940D01*
X0117635Y0055703D01*
X0117300Y0055368D01*
X0117063Y0054957D01*
X0116941Y0054500D01*
X0116941Y0051088D01*
X0121915Y0051088D01*
X0121915Y0050938D01*
X0116941Y0050938D01*
X0116941Y0047526D01*
X0117063Y0047068D01*
X0117300Y0046657D01*
X0117635Y0046322D01*
X0118046Y0046085D01*
X0118504Y0045963D01*
X0119177Y0045963D01*
X0118790Y0045802D01*
X0117201Y0044213D01*
X0116341Y0042136D01*
X0116341Y0042002D01*
X0111197Y0042002D01*
X0110168Y0041575D01*
X0108226Y0039633D01*
X0106356Y0039633D01*
X0105474Y0039268D01*
X0104798Y0038593D01*
X0104743Y0038458D01*
X0097560Y0038458D01*
X0096050Y0039968D01*
X0096050Y0042623D01*
X0096185Y0042679D01*
X0096419Y0042913D01*
X0097975Y0042913D01*
X0099787Y0042913D01*
X0100167Y0043015D01*
X0100271Y0042763D01*
X0100946Y0042088D01*
X0101828Y0041723D01*
X0105932Y0041723D01*
X0106815Y0042088D01*
X0107161Y0042435D01*
X0107580Y0042323D01*
X0109392Y0042323D01*
X0109392Y0045501D01*
X0112767Y0045501D01*
X0112767Y0047116D01*
X0112644Y0047574D01*
X0112502Y0047820D01*
X0112693Y0048152D01*
X0112816Y0048610D01*
X0112816Y0050225D01*
X0109195Y0050225D01*
X0109195Y0053403D01*
X0107492Y0053403D01*
X0107257Y0053638D01*
X0106683Y0053876D01*
X0106683Y0055026D01*
X0106815Y0055080D01*
X0107161Y0055427D01*
X0107580Y0055315D01*
X0109392Y0055315D01*
X0109392Y0058493D01*
X0109392Y0061671D01*
X0107580Y0061671D01*
X0107161Y0061559D01*
X0106815Y0061905D01*
X0106334Y0062105D01*
X0116969Y0072740D01*
X0117201Y0072182D01*
X0118790Y0070593D01*
X0119297Y0070383D01*
X0118790Y0070173D01*
X0117201Y0068583D01*
X0116341Y0066507D01*
X0116341Y0064259D01*
X0117201Y0062182D01*
X0118790Y0060593D01*
X0120867Y0059733D01*
X0123114Y0059733D01*
X0125191Y0060593D01*
X0126780Y0062182D01*
X0127641Y0064259D01*
X0127641Y0066507D01*
X0126780Y0068583D01*
X0125191Y0070173D01*
X0124684Y0070383D01*
X0125191Y0070593D01*
X0126780Y0072182D01*
X0127641Y0074259D01*
X0127641Y0076507D01*
X0126780Y0078583D01*
X0125191Y0080173D01*
X0124684Y0080383D01*
X0125191Y0080593D01*
X0126780Y0082182D01*
X0127641Y0084259D01*
X0127641Y0086507D01*
X0126780Y0088583D01*
X0125191Y0090173D01*
X0124684Y0090383D01*
X0125191Y0090593D01*
X0126780Y0092182D01*
X0127641Y0094259D01*
X0127641Y0096507D01*
X0126780Y0098583D01*
X0125191Y0100173D01*
X0124684Y0100383D01*
X0125191Y0100593D01*
X0126780Y0102182D01*
X0127641Y0104259D01*
X0127641Y0106507D01*
X0126780Y0108583D01*
X0125631Y0109733D01*
X0125718Y0109733D01*
X0126600Y0110098D01*
X0127275Y0110773D01*
X0127641Y0111655D01*
X0127641Y0119110D01*
X0127275Y0119992D01*
X0126600Y0120667D01*
X0125718Y0121033D01*
X0118263Y0121033D01*
X0117381Y0120667D01*
X0116706Y0119992D01*
X0116341Y0119110D01*
X0116341Y0113496D01*
X0115917Y0113072D01*
X0115718Y0113553D01*
X0115043Y0114228D01*
X0114161Y0114594D01*
X0103206Y0114594D01*
X0102324Y0114228D01*
X0101649Y0113553D01*
X0101283Y0112671D01*
X0101283Y0091716D01*
X0101649Y0090834D01*
X0102324Y0090159D01*
X0103206Y0089794D01*
X0112324Y0089794D01*
X0111349Y0088819D01*
X0110923Y0087790D01*
X0110923Y0084850D01*
X0106625Y0080551D01*
X0106198Y0079522D01*
X0106198Y0078157D01*
X0105476Y0077435D01*
X0097024Y0077435D01*
X0095995Y0077008D01*
X0095207Y0076221D01*
X0093665Y0074679D01*
X0089150Y0074679D01*
X0088121Y0074252D01*
X0080673Y0066805D01*
X0071994Y0066805D01*
X0071382Y0067417D01*
X0070499Y0067783D01*
X0066395Y0067783D01*
X0065691Y0067491D01*
X0064988Y0067783D01*
X0060883Y0067783D01*
X0060001Y0067417D01*
X0059326Y0066742D01*
X0058961Y0065860D01*
X0058961Y0062149D01*
X0059326Y0061267D01*
X0059344Y0061249D01*
X0059326Y0061230D01*
X0058961Y0060348D01*
X0058961Y0060053D01*
X0057412Y0058504D01*
X0056986Y0057475D01*
X0056986Y0050062D01*
X0057412Y0049033D01*
X0058200Y0048245D01*
X0060267Y0046178D01*
X0061296Y0045752D01*
X0061564Y0045752D01*
X0062261Y0045463D01*
X0063930Y0045463D01*
X0064066Y0045135D01*
X0066467Y0042733D01*
X0067497Y0042307D01*
X0068469Y0042307D01*
X0068842Y0041933D01*
X0068842Y0038330D01*
X0069208Y0037448D01*
X0069883Y0036773D01*
X0070765Y0036408D01*
X0072822Y0036408D01*
X0073704Y0036773D01*
X0073762Y0036831D01*
X0073820Y0036773D01*
X0074702Y0036408D01*
X0086602Y0036408D01*
X0087484Y0036773D01*
X0088027Y0037316D01*
X0088515Y0036828D01*
X0091615Y0033728D01*
X0088442Y0033728D01*
X0087560Y0033362D01*
X0086885Y0032687D01*
X0086520Y0031805D01*
X0086520Y0024945D01*
X0086885Y0024063D01*
X0087560Y0023387D01*
X0088442Y0023022D01*
X0094909Y0023022D01*
X0095791Y0023387D01*
X0096466Y0024063D01*
X0096831Y0024945D01*
X0096831Y0026978D01*
X0097851Y0026556D01*
X0098196Y0026556D01*
X0098718Y0026034D01*
X0098718Y0024048D01*
X0098499Y0023829D01*
X0098134Y0022947D01*
X0098134Y0019236D01*
X0098499Y0018354D01*
X0099174Y0017679D01*
X0100056Y0017313D01*
X0102980Y0017313D01*
X0103093Y0017360D01*
X0103206Y0017313D01*
X0106129Y0017313D01*
X0107011Y0017679D01*
X0107545Y0018213D01*
X0117035Y0018213D01*
X0117201Y0017812D01*
X0118790Y0016223D01*
X0120867Y0015363D01*
X0123114Y0015363D01*
X0125191Y0016223D01*
X0126780Y0017812D01*
X0127641Y0019889D01*
X0127641Y0022136D01*
X0126780Y0024213D01*
X0125191Y0025802D01*
X0124684Y0026013D01*
X0125191Y0026223D01*
X0126780Y0027812D01*
X0127641Y0029889D01*
X0127641Y0032136D01*
X0126780Y0034213D01*
X0125191Y0035802D01*
X0124684Y0036013D01*
X0125191Y0036223D01*
X0126780Y0037812D01*
X0125743Y0035250D02*
X0134551Y0035250D01*
X0134551Y0033652D02*
X0127013Y0033652D01*
X0127641Y0032053D02*
X0134551Y0032053D01*
X0134551Y0030455D02*
X0127641Y0030455D01*
X0127213Y0028856D02*
X0134551Y0028856D01*
X0134551Y0027258D02*
X0126226Y0027258D01*
X0125334Y0025659D02*
X0134551Y0025659D01*
X0134551Y0024061D02*
X0126844Y0024061D01*
X0127506Y0022462D02*
X0134551Y0022462D01*
X0134551Y0020864D02*
X0127641Y0020864D01*
X0127382Y0019265D02*
X0134551Y0019265D01*
X0134551Y0017667D02*
X0126635Y0017667D01*
X0124817Y0016068D02*
X0134551Y0016068D01*
X0134551Y0014470D02*
X0040926Y0014470D01*
X0040926Y0016068D02*
X0119164Y0016068D01*
X0117346Y0017667D02*
X0106982Y0017667D01*
X0099204Y0017667D02*
X0040926Y0017667D01*
X0040926Y0019265D02*
X0098134Y0019265D01*
X0098134Y0020864D02*
X0040926Y0020864D01*
X0040926Y0022462D02*
X0098134Y0022462D01*
X0098718Y0024061D02*
X0096464Y0024061D01*
X0096831Y0025659D02*
X0098718Y0025659D01*
X0090092Y0035250D02*
X0040926Y0035250D01*
X0040926Y0033652D02*
X0062275Y0033652D01*
X0062458Y0033728D02*
X0061576Y0033362D01*
X0060901Y0032687D01*
X0060535Y0031805D01*
X0060535Y0024945D01*
X0060901Y0024063D01*
X0061576Y0023387D01*
X0062458Y0023022D01*
X0068925Y0023022D01*
X0069807Y0023387D01*
X0070482Y0024063D01*
X0070847Y0024945D01*
X0070847Y0031805D01*
X0070482Y0032687D01*
X0069807Y0033362D01*
X0068925Y0033728D01*
X0062458Y0033728D01*
X0060638Y0032053D02*
X0040926Y0032053D01*
X0040926Y0030455D02*
X0060535Y0030455D01*
X0060535Y0028856D02*
X0040926Y0028856D01*
X0040926Y0027258D02*
X0060535Y0027258D01*
X0060535Y0025659D02*
X0040926Y0025659D01*
X0040926Y0024061D02*
X0060903Y0024061D01*
X0070480Y0024061D02*
X0086887Y0024061D01*
X0086520Y0025659D02*
X0070847Y0025659D01*
X0070847Y0027258D02*
X0086520Y0027258D01*
X0086520Y0028856D02*
X0070847Y0028856D01*
X0070847Y0030455D02*
X0086520Y0030455D01*
X0086622Y0032053D02*
X0070744Y0032053D01*
X0069108Y0033652D02*
X0088259Y0033652D01*
X0088494Y0036849D02*
X0087559Y0036849D01*
X0096050Y0040046D02*
X0108639Y0040046D01*
X0110335Y0041644D02*
X0096050Y0041644D01*
X0097975Y0042913D02*
X0097975Y0045698D01*
X0097975Y0042913D01*
X0097975Y0043243D02*
X0097975Y0043243D01*
X0097975Y0044841D02*
X0097975Y0044841D01*
X0097975Y0045698D02*
X0097975Y0045698D01*
X0106683Y0054432D02*
X0116941Y0054432D01*
X0116941Y0052834D02*
X0112331Y0052834D01*
X0112456Y0052708D02*
X0112121Y0053044D01*
X0111711Y0053280D01*
X0111253Y0053403D01*
X0109195Y0053403D01*
X0109195Y0050225D01*
X0109195Y0050225D01*
X0109195Y0050225D01*
X0112816Y0050225D01*
X0112816Y0051840D01*
X0112693Y0052298D01*
X0112456Y0052708D01*
X0112816Y0051235D02*
X0116941Y0051235D01*
X0116941Y0049637D02*
X0112816Y0049637D01*
X0112628Y0048038D02*
X0116941Y0048038D01*
X0117518Y0046440D02*
X0112767Y0046440D01*
X0112767Y0045501D02*
X0109392Y0045501D01*
X0109392Y0045501D01*
X0109392Y0045501D01*
X0109392Y0042323D01*
X0111204Y0042323D01*
X0111662Y0042445D01*
X0112072Y0042682D01*
X0112407Y0043018D01*
X0112644Y0043428D01*
X0112767Y0043886D01*
X0112767Y0045501D01*
X0112767Y0044841D02*
X0117829Y0044841D01*
X0116799Y0043243D02*
X0112537Y0043243D01*
X0109392Y0043243D02*
X0109392Y0043243D01*
X0109392Y0044841D02*
X0109392Y0044841D01*
X0109195Y0051235D02*
X0109195Y0051235D01*
X0109195Y0052834D02*
X0109195Y0052834D01*
X0109392Y0055315D02*
X0111204Y0055315D01*
X0111662Y0055438D01*
X0112072Y0055675D01*
X0112407Y0056010D01*
X0112644Y0056420D01*
X0112767Y0056878D01*
X0112767Y0058493D01*
X0112767Y0060108D01*
X0112644Y0060566D01*
X0112407Y0060976D01*
X0112072Y0061311D01*
X0111662Y0061548D01*
X0111204Y0061671D01*
X0109392Y0061671D01*
X0109392Y0058493D01*
X0109392Y0058493D01*
X0112767Y0058493D01*
X0109392Y0058493D01*
X0109392Y0058493D01*
X0109392Y0058493D01*
X0109392Y0055315D01*
X0109392Y0056031D02*
X0109392Y0056031D01*
X0109392Y0057629D02*
X0109392Y0057629D01*
X0109392Y0059228D02*
X0109392Y0059228D01*
X0109392Y0060826D02*
X0109392Y0060826D01*
X0112494Y0060826D02*
X0118557Y0060826D01*
X0117100Y0062425D02*
X0106654Y0062425D01*
X0108252Y0064023D02*
X0116438Y0064023D01*
X0116341Y0065622D02*
X0109851Y0065622D01*
X0111449Y0067220D02*
X0116636Y0067220D01*
X0117436Y0068819D02*
X0113048Y0068819D01*
X0114646Y0070417D02*
X0119214Y0070417D01*
X0117367Y0072016D02*
X0116245Y0072016D01*
X0124768Y0070417D02*
X0134551Y0070417D01*
X0134551Y0068819D02*
X0126545Y0068819D01*
X0127345Y0067220D02*
X0134551Y0067220D01*
X0134551Y0065622D02*
X0127641Y0065622D01*
X0127543Y0064023D02*
X0134551Y0064023D01*
X0134551Y0062425D02*
X0126881Y0062425D01*
X0125425Y0060826D02*
X0134551Y0060826D01*
X0134551Y0059228D02*
X0112767Y0059228D01*
X0112767Y0057629D02*
X0134551Y0057629D01*
X0134551Y0056031D02*
X0125596Y0056031D01*
X0127041Y0054432D02*
X0134551Y0054432D01*
X0134551Y0052834D02*
X0127041Y0052834D01*
X0127041Y0051235D02*
X0134551Y0051235D01*
X0134551Y0049637D02*
X0127041Y0049637D01*
X0127041Y0048038D02*
X0134551Y0048038D01*
X0134551Y0046440D02*
X0126463Y0046440D01*
X0126152Y0044841D02*
X0134551Y0044841D01*
X0134551Y0043243D02*
X0127182Y0043243D01*
X0127641Y0041644D02*
X0134551Y0041644D01*
X0134551Y0040046D02*
X0127641Y0040046D01*
X0122066Y0051235D02*
X0121916Y0051235D01*
X0121916Y0052834D02*
X0122066Y0052834D01*
X0122066Y0054432D02*
X0121916Y0054432D01*
X0121916Y0056031D02*
X0122066Y0056031D01*
X0118385Y0056031D02*
X0112419Y0056031D01*
X0126614Y0072016D02*
X0134551Y0072016D01*
X0134551Y0073614D02*
X0127374Y0073614D01*
X0127641Y0075213D02*
X0134551Y0075213D01*
X0134551Y0076811D02*
X0127514Y0076811D01*
X0126852Y0078410D02*
X0134551Y0078410D01*
X0134551Y0080009D02*
X0125355Y0080009D01*
X0126205Y0081607D02*
X0134551Y0081607D01*
X0134551Y0083206D02*
X0127204Y0083206D01*
X0127641Y0084804D02*
X0134551Y0084804D01*
X0134551Y0086403D02*
X0127641Y0086403D01*
X0127021Y0088001D02*
X0134551Y0088001D01*
X0134551Y0089600D02*
X0125764Y0089600D01*
X0125796Y0091198D02*
X0134551Y0091198D01*
X0134551Y0092797D02*
X0127035Y0092797D01*
X0127641Y0094395D02*
X0134551Y0094395D01*
X0134551Y0095994D02*
X0127641Y0095994D01*
X0127191Y0097592D02*
X0134551Y0097592D01*
X0134551Y0099191D02*
X0126173Y0099191D01*
X0125387Y0100789D02*
X0134551Y0100789D01*
X0134551Y0102388D02*
X0126865Y0102388D01*
X0127528Y0103986D02*
X0134551Y0103986D01*
X0134551Y0105585D02*
X0127641Y0105585D01*
X0127360Y0107183D02*
X0134551Y0107183D01*
X0134551Y0108782D02*
X0126582Y0108782D01*
X0126882Y0110380D02*
X0134551Y0110380D01*
X0134551Y0111979D02*
X0127641Y0111979D01*
X0127641Y0113577D02*
X0134551Y0113577D01*
X0134551Y0115176D02*
X0127641Y0115176D01*
X0127641Y0116774D02*
X0134551Y0116774D01*
X0134551Y0118373D02*
X0127641Y0118373D01*
X0127284Y0119971D02*
X0134551Y0119971D01*
X0134551Y0121570D02*
X0088674Y0121570D01*
X0089344Y0121229D02*
X0087817Y0122006D01*
X0086235Y0122662D01*
X0084605Y0123191D01*
X0082940Y0123591D01*
X0081248Y0123859D01*
X0079540Y0123994D01*
X0079483Y0123994D01*
X0079483Y0102994D01*
X0077883Y0102994D01*
X0077883Y0101394D01*
X0056883Y0101394D01*
X0056883Y0101337D01*
X0057018Y0099629D01*
X0057286Y0097937D01*
X0057686Y0096272D01*
X0058215Y0094643D01*
X0058871Y0093060D01*
X0059648Y0091534D01*
X0060543Y0090073D01*
X0061550Y0088687D01*
X0062663Y0087384D01*
X0063874Y0086173D01*
X0065177Y0085061D01*
X0066563Y0084054D01*
X0068023Y0083159D01*
X0069550Y0082381D01*
X0071132Y0081725D01*
X0072761Y0081196D01*
X0074427Y0080796D01*
X0076119Y0080528D01*
X0077827Y0080394D01*
X0077883Y0080394D01*
X0077883Y0101394D01*
X0079483Y0101394D01*
X0079483Y0080394D01*
X0079540Y0080394D01*
X0081248Y0080528D01*
X0082940Y0080796D01*
X0084605Y0081196D01*
X0086235Y0081725D01*
X0087817Y0082381D01*
X0089344Y0083159D01*
X0090804Y0084054D01*
X0092190Y0085061D01*
X0093493Y0086173D01*
X0094704Y0087384D01*
X0095817Y0088687D01*
X0096823Y0090073D01*
X0097719Y0091534D01*
X0098496Y0093060D01*
X0099152Y0094643D01*
X0099681Y0096272D01*
X0100081Y0097937D01*
X0100349Y0099629D01*
X0100483Y0101337D01*
X0100483Y0101394D01*
X0079483Y0101394D01*
X0079483Y0102994D01*
X0100483Y0102994D01*
X0100483Y0103050D01*
X0100349Y0104758D01*
X0100081Y0106450D01*
X0099681Y0108116D01*
X0099152Y0109745D01*
X0098496Y0111328D01*
X0097719Y0112854D01*
X0096823Y0114314D01*
X0095817Y0115700D01*
X0094704Y0117003D01*
X0093493Y0118214D01*
X0092190Y0119327D01*
X0090804Y0120334D01*
X0089344Y0121229D01*
X0091303Y0119971D02*
X0116697Y0119971D01*
X0116341Y0118373D02*
X0093307Y0118373D01*
X0094899Y0116774D02*
X0116341Y0116774D01*
X0116341Y0115176D02*
X0096198Y0115176D01*
X0097275Y0113577D02*
X0101673Y0113577D01*
X0101283Y0111979D02*
X0098164Y0111979D01*
X0098889Y0110380D02*
X0101283Y0110380D01*
X0101283Y0108782D02*
X0099465Y0108782D01*
X0099905Y0107183D02*
X0101283Y0107183D01*
X0101283Y0105585D02*
X0100218Y0105585D01*
X0100410Y0103986D02*
X0101283Y0103986D01*
X0101283Y0102388D02*
X0079483Y0102388D01*
X0079483Y0103986D02*
X0077883Y0103986D01*
X0077883Y0102994D02*
X0077883Y0123994D01*
X0077827Y0123994D01*
X0076119Y0123859D01*
X0074427Y0123591D01*
X0072761Y0123191D01*
X0071132Y0122662D01*
X0069550Y0122006D01*
X0068023Y0121229D01*
X0066563Y0120334D01*
X0065177Y0119327D01*
X0063874Y0118214D01*
X0062663Y0117003D01*
X0061550Y0115700D01*
X0060543Y0114314D01*
X0059648Y0112854D01*
X0058871Y0111328D01*
X0058215Y0109745D01*
X0057686Y0108116D01*
X0057286Y0106450D01*
X0057018Y0104758D01*
X0056883Y0103050D01*
X0056883Y0102994D01*
X0077883Y0102994D01*
X0077883Y0102388D02*
X0056083Y0102388D01*
X0056083Y0103986D02*
X0056957Y0103986D01*
X0057149Y0105585D02*
X0056083Y0105585D01*
X0056083Y0107183D02*
X0057462Y0107183D01*
X0057902Y0108782D02*
X0056083Y0108782D01*
X0056083Y0110380D02*
X0058478Y0110380D01*
X0059202Y0111979D02*
X0056083Y0111979D01*
X0056083Y0112671D02*
X0055718Y0113553D01*
X0055043Y0114228D01*
X0054161Y0114594D01*
X0043206Y0114594D01*
X0042324Y0114228D01*
X0041649Y0113553D01*
X0041283Y0112671D01*
X0041283Y0091716D01*
X0041649Y0090834D01*
X0042324Y0090159D01*
X0043206Y0089794D01*
X0045962Y0089794D01*
X0045962Y0087040D01*
X0045350Y0086427D01*
X0044984Y0085545D01*
X0044984Y0082622D01*
X0045031Y0082509D01*
X0044984Y0082395D01*
X0044984Y0079472D01*
X0045350Y0078590D01*
X0045962Y0077978D01*
X0045962Y0075652D01*
X0046388Y0074623D01*
X0047963Y0073049D01*
X0048751Y0072261D01*
X0049780Y0071835D01*
X0060968Y0071835D01*
X0061466Y0070632D01*
X0062476Y0069622D01*
X0063796Y0069076D01*
X0065224Y0069076D01*
X0066544Y0069622D01*
X0067554Y0070632D01*
X0068101Y0071952D01*
X0068101Y0073380D01*
X0067554Y0074700D01*
X0066544Y0075710D01*
X0065224Y0076257D01*
X0064879Y0076257D01*
X0064128Y0077008D01*
X0063099Y0077435D01*
X0051562Y0077435D01*
X0051562Y0077978D01*
X0052175Y0078590D01*
X0052540Y0079472D01*
X0052540Y0082395D01*
X0052493Y0082509D01*
X0052540Y0082622D01*
X0052540Y0085545D01*
X0052175Y0086427D01*
X0051562Y0087040D01*
X0051562Y0089794D01*
X0054161Y0089794D01*
X0055043Y0090159D01*
X0055718Y0090834D01*
X0056083Y0091716D01*
X0056083Y0112671D01*
X0055694Y0113577D02*
X0060092Y0113577D01*
X0061169Y0115176D02*
X0040926Y0115176D01*
X0040926Y0116774D02*
X0062468Y0116774D01*
X0064060Y0118373D02*
X0040926Y0118373D01*
X0040926Y0119971D02*
X0066064Y0119971D01*
X0068693Y0121570D02*
X0040926Y0121570D01*
X0040926Y0123168D02*
X0072690Y0123168D01*
X0077883Y0123168D02*
X0079483Y0123168D01*
X0079483Y0121570D02*
X0077883Y0121570D01*
X0077883Y0119971D02*
X0079483Y0119971D01*
X0079483Y0118373D02*
X0077883Y0118373D01*
X0077883Y0116774D02*
X0079483Y0116774D01*
X0079483Y0115176D02*
X0077883Y0115176D01*
X0077883Y0113577D02*
X0079483Y0113577D01*
X0079483Y0111979D02*
X0077883Y0111979D01*
X0077883Y0110380D02*
X0079483Y0110380D01*
X0079483Y0108782D02*
X0077883Y0108782D01*
X0077883Y0107183D02*
X0079483Y0107183D01*
X0079483Y0105585D02*
X0077883Y0105585D01*
X0077883Y0100789D02*
X0079483Y0100789D01*
X0079483Y0099191D02*
X0077883Y0099191D01*
X0077883Y0097592D02*
X0079483Y0097592D01*
X0079483Y0095994D02*
X0077883Y0095994D01*
X0077883Y0094395D02*
X0079483Y0094395D01*
X0079483Y0092797D02*
X0077883Y0092797D01*
X0077883Y0091198D02*
X0079483Y0091198D01*
X0079483Y0089600D02*
X0077883Y0089600D01*
X0077883Y0088001D02*
X0079483Y0088001D01*
X0079483Y0086403D02*
X0077883Y0086403D01*
X0077883Y0084804D02*
X0079483Y0084804D01*
X0079483Y0083206D02*
X0077883Y0083206D01*
X0077883Y0081607D02*
X0079483Y0081607D01*
X0085870Y0081607D02*
X0107680Y0081607D01*
X0106400Y0080009D02*
X0052540Y0080009D01*
X0052540Y0081607D02*
X0071496Y0081607D01*
X0067947Y0083206D02*
X0052540Y0083206D01*
X0052540Y0084804D02*
X0065530Y0084804D01*
X0063645Y0086403D02*
X0052185Y0086403D01*
X0051562Y0088001D02*
X0062136Y0088001D01*
X0060887Y0089600D02*
X0051562Y0089600D01*
X0055869Y0091198D02*
X0059854Y0091198D01*
X0059005Y0092797D02*
X0056083Y0092797D01*
X0056083Y0094395D02*
X0058318Y0094395D01*
X0057776Y0095994D02*
X0056083Y0095994D01*
X0056083Y0097592D02*
X0057369Y0097592D01*
X0057087Y0099191D02*
X0056083Y0099191D01*
X0056083Y0100789D02*
X0056927Y0100789D01*
X0045962Y0089600D02*
X0040926Y0089600D01*
X0040926Y0091198D02*
X0041498Y0091198D01*
X0041283Y0092797D02*
X0040926Y0092797D01*
X0040926Y0094395D02*
X0041283Y0094395D01*
X0041283Y0095994D02*
X0040926Y0095994D01*
X0040926Y0097592D02*
X0041283Y0097592D01*
X0041283Y0099191D02*
X0040926Y0099191D01*
X0040926Y0100789D02*
X0041283Y0100789D01*
X0041283Y0102388D02*
X0040926Y0102388D01*
X0040926Y0103986D02*
X0041283Y0103986D01*
X0041283Y0105585D02*
X0040926Y0105585D01*
X0040926Y0107183D02*
X0041283Y0107183D01*
X0041283Y0108782D02*
X0040926Y0108782D01*
X0040926Y0110380D02*
X0041283Y0110380D01*
X0041283Y0111979D02*
X0040926Y0111979D01*
X0040926Y0113577D02*
X0041673Y0113577D01*
X0040926Y0124767D02*
X0134551Y0124767D01*
X0134551Y0125384D02*
X0040926Y0125384D01*
X0040926Y0012074D01*
X0134551Y0012074D01*
X0134551Y0125384D01*
X0134551Y0123168D02*
X0084676Y0123168D01*
X0100440Y0100789D02*
X0101283Y0100789D01*
X0101283Y0099191D02*
X0100280Y0099191D01*
X0099998Y0097592D02*
X0101283Y0097592D01*
X0101283Y0095994D02*
X0099591Y0095994D01*
X0099049Y0094395D02*
X0101283Y0094395D01*
X0101283Y0092797D02*
X0098362Y0092797D01*
X0097513Y0091198D02*
X0101498Y0091198D01*
X0096480Y0089600D02*
X0112130Y0089600D01*
X0111010Y0088001D02*
X0095231Y0088001D01*
X0093722Y0086403D02*
X0110923Y0086403D01*
X0110877Y0084804D02*
X0091837Y0084804D01*
X0089420Y0083206D02*
X0109279Y0083206D01*
X0106198Y0078410D02*
X0051995Y0078410D01*
X0047397Y0073614D02*
X0040926Y0073614D01*
X0040926Y0072016D02*
X0049342Y0072016D01*
X0046144Y0075213D02*
X0040926Y0075213D01*
X0040926Y0076811D02*
X0045962Y0076811D01*
X0045530Y0078410D02*
X0040926Y0078410D01*
X0040926Y0080009D02*
X0044984Y0080009D01*
X0044984Y0081607D02*
X0040926Y0081607D01*
X0040926Y0083206D02*
X0044984Y0083206D01*
X0044984Y0084804D02*
X0040926Y0084804D01*
X0040926Y0086403D02*
X0045339Y0086403D01*
X0045962Y0088001D02*
X0040926Y0088001D01*
X0040926Y0070417D02*
X0061681Y0070417D01*
X0059804Y0067220D02*
X0040926Y0067220D01*
X0040926Y0065622D02*
X0058961Y0065622D01*
X0058961Y0064023D02*
X0040926Y0064023D01*
X0040926Y0062425D02*
X0058961Y0062425D01*
X0059159Y0060826D02*
X0040926Y0060826D01*
X0040926Y0059228D02*
X0058136Y0059228D01*
X0057050Y0057629D02*
X0040926Y0057629D01*
X0040926Y0056031D02*
X0056986Y0056031D01*
X0056986Y0054432D02*
X0040926Y0054432D01*
X0040926Y0052834D02*
X0056986Y0052834D01*
X0056986Y0051235D02*
X0040926Y0051235D01*
X0040926Y0049637D02*
X0057162Y0049637D01*
X0058407Y0048038D02*
X0040926Y0048038D01*
X0040926Y0046440D02*
X0060005Y0046440D01*
X0064360Y0044841D02*
X0040926Y0044841D01*
X0040926Y0043243D02*
X0065958Y0043243D01*
X0068842Y0041644D02*
X0040926Y0041644D01*
X0040926Y0040046D02*
X0068842Y0040046D01*
X0068842Y0038447D02*
X0040926Y0038447D01*
X0040926Y0036849D02*
X0069808Y0036849D01*
X0071578Y0067220D02*
X0081089Y0067220D01*
X0082687Y0068819D02*
X0040926Y0068819D01*
X0064325Y0076811D02*
X0095798Y0076811D01*
X0094200Y0075213D02*
X0067041Y0075213D01*
X0068004Y0073614D02*
X0087483Y0073614D01*
X0085884Y0072016D02*
X0068101Y0072016D01*
X0067339Y0070417D02*
X0084286Y0070417D01*
X0115694Y0113577D02*
X0116341Y0113577D01*
X0134551Y0012871D02*
X0040926Y0012871D01*
D28*
X0073565Y0035658D03*
X0083605Y0045107D03*
X0073172Y0049044D03*
X0072384Y0057312D03*
X0064510Y0072666D03*
X0101518Y0064792D03*
X0104668Y0067942D03*
X0113723Y0077391D03*
X0116085Y0086052D03*
X0103093Y0054556D03*
X0098565Y0030146D03*
M02*
