%
M48
M72
T01C0.01181
T02C0.03500
%
T01
X73565Y35658
X83605Y45107
X73172Y49044
X72384Y57312
X64510Y72666
X101518Y64792
X104668Y67942
X113723Y77391
X116085Y86052
X103093Y54556
X98565Y30146
T02
X121991Y21013
X121991Y31013
X121991Y41013
X121991Y51013
X121991Y65383
X121991Y75383
X121991Y85383
X121991Y95383
X121991Y105383
X121991Y115383
M30
