G75*
%MOIN*%
%OFA0B0*%
%FSLAX25Y25*%
%IPPOS*%
%LPD*%
%AMOC8*
5,1,8,0,0,1.08239X$1,22.5*
%
%ADD10C,0.00000*%
%ADD11C,0.00200*%
%ADD12R,0.01575X0.01575*%
%ADD13C,0.00500*%
%ADD14C,0.00300*%
%ADD15C,0.00400*%
D10*
X0038526Y0009674D02*
X0038526Y0127784D01*
X0136951Y0127784D01*
X0136951Y0009674D01*
X0038526Y0009674D01*
D11*
X0055896Y0048357D02*
X0055536Y0048717D01*
X0055536Y0050160D01*
X0055896Y0050521D01*
X0056618Y0050521D01*
X0056978Y0050160D01*
X0056978Y0048717D01*
X0056618Y0048357D01*
X0055896Y0048357D01*
X0056257Y0049078D02*
X0056978Y0048357D01*
X0057711Y0048357D02*
X0059153Y0048357D01*
X0058432Y0048357D02*
X0058432Y0050521D01*
X0057711Y0049799D01*
X0057317Y0057018D02*
X0058760Y0058461D01*
X0058760Y0058821D01*
X0058399Y0059182D01*
X0057678Y0059182D01*
X0057317Y0058821D01*
X0056585Y0058821D02*
X0056585Y0058100D01*
X0056224Y0057739D01*
X0055142Y0057739D01*
X0055142Y0057018D02*
X0055142Y0059182D01*
X0056224Y0059182D01*
X0056585Y0058821D01*
X0055863Y0057739D02*
X0056585Y0057018D01*
X0057317Y0057018D02*
X0058760Y0057018D01*
X0058760Y0062530D02*
X0057317Y0062530D01*
X0058038Y0062530D02*
X0058038Y0064694D01*
X0057317Y0063973D01*
X0056585Y0064333D02*
X0056585Y0063612D01*
X0056224Y0063251D01*
X0055142Y0063251D01*
X0055142Y0062530D02*
X0055142Y0064694D01*
X0056224Y0064694D01*
X0056585Y0064333D01*
X0055863Y0063251D02*
X0056585Y0062530D01*
X0045906Y0080640D02*
X0043742Y0080640D01*
X0043742Y0081722D01*
X0044103Y0082083D01*
X0045546Y0082083D01*
X0045906Y0081722D01*
X0045906Y0080640D01*
X0045906Y0082815D02*
X0045906Y0084258D01*
X0045906Y0083537D02*
X0043742Y0083537D01*
X0044464Y0082815D01*
X0044400Y0119262D02*
X0043121Y0119262D01*
X0043121Y0121820D01*
X0044400Y0121820D01*
X0044827Y0121394D01*
X0044827Y0120968D01*
X0044400Y0120541D01*
X0043121Y0120541D01*
X0044400Y0120541D02*
X0044827Y0120115D01*
X0044827Y0119689D01*
X0044400Y0119262D01*
X0045659Y0119262D02*
X0045659Y0120968D01*
X0046512Y0121820D01*
X0047364Y0120968D01*
X0047364Y0119262D01*
X0047364Y0120541D02*
X0045659Y0120541D01*
X0048196Y0121820D02*
X0049902Y0121820D01*
X0049049Y0121820D02*
X0049049Y0119262D01*
X0050734Y0119262D02*
X0052439Y0119262D01*
X0051587Y0119262D02*
X0051587Y0121820D01*
X0050734Y0120968D01*
X0112642Y0059576D02*
X0112642Y0057412D01*
X0112642Y0058133D02*
X0113724Y0058133D01*
X0114084Y0058494D01*
X0114084Y0059215D01*
X0113724Y0059576D01*
X0112642Y0059576D01*
X0113363Y0058133D02*
X0114084Y0057412D01*
X0114817Y0057772D02*
X0115177Y0057412D01*
X0115899Y0057412D01*
X0116259Y0057772D01*
X0116259Y0058494D01*
X0115899Y0058855D01*
X0115538Y0058855D01*
X0114817Y0058494D01*
X0114817Y0059576D01*
X0116259Y0059576D01*
X0115538Y0051308D02*
X0115538Y0049144D01*
X0114817Y0049144D02*
X0116259Y0049144D01*
X0114817Y0050587D02*
X0115538Y0051308D01*
X0114084Y0050947D02*
X0113724Y0051308D01*
X0113002Y0051308D01*
X0112642Y0050947D01*
X0112642Y0049505D01*
X0113002Y0049144D01*
X0113724Y0049144D01*
X0114084Y0049505D01*
X0113724Y0046584D02*
X0112642Y0046584D01*
X0112642Y0044420D01*
X0112642Y0045141D02*
X0113724Y0045141D01*
X0114084Y0045502D01*
X0114084Y0046223D01*
X0113724Y0046584D01*
X0113363Y0045141D02*
X0114084Y0044420D01*
X0114817Y0044780D02*
X0115177Y0044420D01*
X0115899Y0044420D01*
X0116259Y0044780D01*
X0116259Y0045141D01*
X0115899Y0045502D01*
X0114817Y0045502D01*
X0114817Y0044780D01*
X0114817Y0045502D02*
X0115538Y0046223D01*
X0116259Y0046584D01*
X0127207Y0048689D02*
X0127502Y0048394D01*
X0128682Y0048394D01*
X0128977Y0048689D01*
X0128977Y0049279D01*
X0128682Y0049574D01*
X0128092Y0049574D01*
X0128092Y0048984D01*
X0127502Y0049574D02*
X0127207Y0049279D01*
X0127207Y0048689D01*
X0127207Y0050206D02*
X0128977Y0051386D01*
X0127207Y0051386D01*
X0127207Y0052019D02*
X0127207Y0052904D01*
X0127502Y0053199D01*
X0128682Y0053199D01*
X0128977Y0052904D01*
X0128977Y0052019D01*
X0127207Y0052019D01*
X0127207Y0050206D02*
X0128977Y0050206D01*
X0128977Y0043356D02*
X0127797Y0043356D01*
X0127207Y0042766D01*
X0127797Y0042176D01*
X0128977Y0042176D01*
X0128682Y0041544D02*
X0127502Y0041544D01*
X0127207Y0041249D01*
X0127207Y0040364D01*
X0128977Y0040364D01*
X0128977Y0041249D01*
X0128682Y0041544D01*
X0128092Y0042176D02*
X0128092Y0043356D01*
X0128387Y0039731D02*
X0128682Y0039731D01*
X0128977Y0039436D01*
X0128977Y0038846D01*
X0128682Y0038551D01*
X0128092Y0038846D02*
X0128092Y0039436D01*
X0128387Y0039731D01*
X0127502Y0039731D02*
X0127207Y0039436D01*
X0127207Y0038846D01*
X0127502Y0038551D01*
X0127797Y0038551D01*
X0128092Y0038846D01*
X0130750Y0039116D02*
X0131176Y0038690D01*
X0132882Y0038690D01*
X0133308Y0039116D01*
X0133308Y0039969D01*
X0132882Y0040395D01*
X0131176Y0040395D02*
X0130750Y0039969D01*
X0130750Y0039116D01*
X0131176Y0037857D02*
X0130750Y0037431D01*
X0130750Y0036578D01*
X0131176Y0036152D01*
X0132882Y0036152D01*
X0133308Y0036578D01*
X0133308Y0037431D01*
X0132882Y0037857D01*
X0130750Y0035320D02*
X0130750Y0033614D01*
X0130750Y0034467D02*
X0133308Y0034467D01*
X0133308Y0032782D02*
X0132455Y0031929D01*
X0132455Y0032356D02*
X0132455Y0031077D01*
X0133308Y0031077D02*
X0130750Y0031077D01*
X0130750Y0032356D01*
X0131176Y0032782D01*
X0132029Y0032782D01*
X0132455Y0032356D01*
X0128977Y0032334D02*
X0128977Y0033514D01*
X0128977Y0032334D02*
X0127207Y0032334D01*
X0127502Y0031701D02*
X0127207Y0031406D01*
X0127207Y0030816D01*
X0127502Y0030521D01*
X0128682Y0030521D01*
X0128977Y0030816D01*
X0128977Y0031406D01*
X0128682Y0031701D01*
X0128682Y0029889D02*
X0128977Y0029594D01*
X0128977Y0029004D01*
X0128682Y0028709D01*
X0128092Y0029004D02*
X0127797Y0028709D01*
X0127502Y0028709D01*
X0127207Y0029004D01*
X0127207Y0029594D01*
X0127502Y0029889D01*
X0128092Y0029594D02*
X0128387Y0029889D01*
X0128682Y0029889D01*
X0128092Y0029594D02*
X0128092Y0029004D01*
X0127502Y0023671D02*
X0127207Y0023376D01*
X0127207Y0022491D01*
X0128977Y0022491D01*
X0128977Y0023376D01*
X0128682Y0023671D01*
X0127502Y0023671D01*
X0127502Y0021859D02*
X0127207Y0021564D01*
X0127207Y0020679D01*
X0128977Y0020679D01*
X0128977Y0021564D01*
X0128682Y0021859D01*
X0127502Y0021859D01*
X0127207Y0020046D02*
X0128387Y0020046D01*
X0128977Y0019456D01*
X0128387Y0018866D01*
X0127207Y0018866D01*
X0114410Y0022353D02*
X0112246Y0022353D01*
X0112246Y0023435D01*
X0112607Y0023796D01*
X0113328Y0023796D01*
X0113689Y0023435D01*
X0113689Y0022353D01*
X0113689Y0023074D02*
X0114410Y0023796D01*
X0113328Y0024528D02*
X0113328Y0025971D01*
X0112246Y0025610D02*
X0113328Y0024528D01*
X0114410Y0025610D02*
X0112246Y0025610D01*
X0109686Y0025610D02*
X0109686Y0024889D01*
X0109325Y0024528D01*
X0109686Y0023796D02*
X0108964Y0023074D01*
X0108964Y0023435D02*
X0108964Y0022353D01*
X0109686Y0022353D02*
X0107522Y0022353D01*
X0107522Y0023435D01*
X0107882Y0023796D01*
X0108604Y0023796D01*
X0108964Y0023435D01*
X0107882Y0024528D02*
X0107522Y0024889D01*
X0107522Y0025610D01*
X0107882Y0025971D01*
X0108243Y0025971D01*
X0108604Y0025610D01*
X0108964Y0025971D01*
X0109325Y0025971D01*
X0109686Y0025610D01*
X0108604Y0025610D02*
X0108604Y0025249D01*
X0104055Y0025390D02*
X0104055Y0025751D01*
X0103694Y0026111D01*
X0102973Y0026111D01*
X0102612Y0025751D01*
X0101880Y0025751D02*
X0101519Y0026111D01*
X0100437Y0026111D01*
X0100437Y0023947D01*
X0101519Y0023947D01*
X0101880Y0024308D01*
X0101880Y0025751D01*
X0102612Y0023947D02*
X0104055Y0025390D01*
X0104055Y0023947D02*
X0102612Y0023947D01*
X0097231Y0040242D02*
X0095497Y0040242D01*
X0096364Y0040242D02*
X0096364Y0042844D01*
X0095497Y0041977D01*
X0094653Y0042844D02*
X0094653Y0040675D01*
X0094219Y0040242D01*
X0093352Y0040242D01*
X0092918Y0040675D01*
X0092918Y0042844D01*
X0127207Y0062349D02*
X0127502Y0062054D01*
X0127797Y0062054D01*
X0128092Y0062349D01*
X0128092Y0062939D01*
X0128387Y0063234D01*
X0128682Y0063234D01*
X0128977Y0062939D01*
X0128977Y0062349D01*
X0128682Y0062054D01*
X0127207Y0062349D02*
X0127207Y0062939D01*
X0127502Y0063234D01*
X0127502Y0063867D02*
X0128682Y0063867D01*
X0128977Y0064162D01*
X0128977Y0064752D01*
X0128682Y0065047D01*
X0128977Y0065680D02*
X0127207Y0065680D01*
X0127502Y0065047D02*
X0127207Y0064752D01*
X0127207Y0064162D01*
X0127502Y0063867D01*
X0128977Y0065680D02*
X0128977Y0066860D01*
X0128977Y0067492D02*
X0127207Y0067492D01*
X0128092Y0067787D02*
X0128977Y0068672D01*
X0128387Y0067492D02*
X0127207Y0068672D01*
X0127207Y0072199D02*
X0127797Y0072789D01*
X0127207Y0073379D01*
X0128977Y0073379D01*
X0128682Y0074012D02*
X0128977Y0074307D01*
X0128977Y0074897D01*
X0128682Y0075192D01*
X0127502Y0075192D01*
X0127207Y0074897D01*
X0127207Y0074307D01*
X0127502Y0074012D01*
X0128682Y0074012D01*
X0128682Y0075824D02*
X0128977Y0076119D01*
X0128977Y0076709D01*
X0128682Y0077004D01*
X0128387Y0077004D01*
X0128092Y0076709D01*
X0128092Y0076119D01*
X0127797Y0075824D01*
X0127502Y0075824D01*
X0127207Y0076119D01*
X0127207Y0076709D01*
X0127502Y0077004D01*
X0127207Y0077637D02*
X0127207Y0078227D01*
X0127207Y0077932D02*
X0128977Y0077932D01*
X0128977Y0077637D02*
X0128977Y0078227D01*
X0130750Y0078218D02*
X0130750Y0079923D01*
X0130750Y0080755D02*
X0130750Y0082461D01*
X0130750Y0083293D02*
X0130750Y0084998D01*
X0130750Y0084145D02*
X0133308Y0084145D01*
X0132029Y0081608D02*
X0132029Y0080755D01*
X0133308Y0080755D02*
X0130750Y0080755D01*
X0130750Y0079070D02*
X0133308Y0079070D01*
X0128977Y0082941D02*
X0128977Y0083531D01*
X0128682Y0083826D01*
X0129272Y0084458D02*
X0129272Y0085638D01*
X0128682Y0086271D02*
X0128977Y0086566D01*
X0128977Y0087156D01*
X0128682Y0087451D01*
X0128387Y0087451D01*
X0128092Y0087156D01*
X0128092Y0086566D01*
X0127797Y0086271D01*
X0127502Y0086271D01*
X0127207Y0086566D01*
X0127207Y0087156D01*
X0127502Y0087451D01*
X0127502Y0083826D02*
X0127207Y0083531D01*
X0127207Y0082941D01*
X0127502Y0082646D01*
X0128682Y0082646D01*
X0128977Y0082941D01*
X0130750Y0088368D02*
X0131602Y0089221D01*
X0130750Y0090073D01*
X0133308Y0090073D01*
X0132882Y0090906D02*
X0133308Y0091332D01*
X0133308Y0092185D01*
X0132882Y0092611D01*
X0132029Y0092611D01*
X0131602Y0092185D01*
X0131602Y0091332D01*
X0132029Y0090906D01*
X0132882Y0090906D01*
X0133308Y0088368D02*
X0130750Y0088368D01*
X0128977Y0092882D02*
X0127207Y0092882D01*
X0127207Y0093767D01*
X0127502Y0094062D01*
X0128092Y0094062D01*
X0128387Y0093767D01*
X0128387Y0092882D01*
X0128387Y0093472D02*
X0128977Y0094062D01*
X0128682Y0094695D02*
X0128977Y0094989D01*
X0128977Y0095580D01*
X0128682Y0095875D01*
X0128387Y0095875D01*
X0128092Y0095580D01*
X0128092Y0094989D01*
X0127797Y0094695D01*
X0127502Y0094695D01*
X0127207Y0094989D01*
X0127207Y0095580D01*
X0127502Y0095875D01*
X0127207Y0096507D02*
X0127207Y0097687D01*
X0127207Y0097097D02*
X0128977Y0097097D01*
X0130750Y0098518D02*
X0130750Y0098945D01*
X0133308Y0098945D01*
X0133308Y0099371D02*
X0133308Y0098518D01*
X0133308Y0097686D02*
X0131602Y0097686D01*
X0131602Y0095981D02*
X0132882Y0095981D01*
X0133308Y0096407D01*
X0133308Y0097686D01*
X0132882Y0100210D02*
X0132029Y0100210D01*
X0131602Y0100636D01*
X0131602Y0101489D01*
X0132029Y0101916D01*
X0132455Y0101916D01*
X0132455Y0100210D01*
X0132882Y0100210D02*
X0133308Y0100636D01*
X0133308Y0101489D01*
X0129272Y0104537D02*
X0129272Y0105717D01*
X0128682Y0106350D02*
X0128977Y0106645D01*
X0128977Y0107235D01*
X0128682Y0107530D01*
X0127502Y0107530D02*
X0127207Y0107235D01*
X0127207Y0106645D01*
X0127502Y0106350D01*
X0128682Y0106350D01*
X0128682Y0103904D02*
X0127502Y0103904D01*
X0127207Y0103609D01*
X0127207Y0102724D01*
X0128977Y0102724D01*
X0128977Y0103609D01*
X0128682Y0103904D01*
X0128977Y0112567D02*
X0127207Y0112567D01*
X0128977Y0112567D02*
X0128977Y0113747D01*
X0128977Y0114380D02*
X0127207Y0114380D01*
X0127207Y0115560D01*
X0127207Y0116192D02*
X0127207Y0117077D01*
X0127502Y0117372D01*
X0128682Y0117372D01*
X0128977Y0117077D01*
X0128977Y0116192D01*
X0127207Y0116192D01*
X0128092Y0114970D02*
X0128092Y0114380D01*
X0128977Y0114380D02*
X0128977Y0115560D01*
X0130750Y0095149D02*
X0133308Y0095149D01*
X0133308Y0093870D01*
X0132882Y0093443D01*
X0132029Y0093443D01*
X0131602Y0093870D01*
X0131602Y0095149D01*
X0128977Y0072199D02*
X0127207Y0072199D01*
D12*
X0092463Y0059477D03*
X0052305Y0080934D03*
D13*
X0059683Y0084194D02*
X0066683Y0084194D01*
X0059683Y0084194D02*
X0053683Y0090194D01*
X0053683Y0114194D02*
X0053910Y0114517D01*
X0054145Y0114834D01*
X0054387Y0115146D01*
X0054637Y0115451D01*
X0054894Y0115751D01*
X0055158Y0116044D01*
X0055430Y0116331D01*
X0055708Y0116611D01*
X0055993Y0116884D01*
X0056284Y0117150D01*
X0056582Y0117409D01*
X0056886Y0117660D01*
X0057196Y0117905D01*
X0057512Y0118141D01*
X0057834Y0118370D01*
X0058161Y0118591D01*
X0058493Y0118804D01*
X0058830Y0119009D01*
X0059173Y0119206D01*
X0059519Y0119394D01*
X0059871Y0119574D01*
X0060226Y0119745D01*
X0060586Y0119908D01*
X0060949Y0120061D01*
X0061317Y0120206D01*
X0061687Y0120342D01*
X0062061Y0120469D01*
X0062438Y0120587D01*
X0062817Y0120696D01*
X0063199Y0120795D01*
X0063583Y0120885D01*
X0063970Y0120966D01*
X0064358Y0121037D01*
X0064747Y0121099D01*
X0065139Y0121152D01*
X0065531Y0121195D01*
X0065924Y0121228D01*
X0066318Y0121252D01*
X0066713Y0121266D01*
X0067107Y0121271D01*
X0067502Y0121266D01*
X0067896Y0121252D01*
X0068290Y0121228D01*
X0068684Y0121194D01*
X0088683Y0121194D02*
X0089077Y0121228D01*
X0089471Y0121252D01*
X0089865Y0121266D01*
X0090260Y0121271D01*
X0090654Y0121266D01*
X0091049Y0121252D01*
X0091443Y0121228D01*
X0091836Y0121195D01*
X0092228Y0121152D01*
X0092620Y0121099D01*
X0093009Y0121037D01*
X0093397Y0120966D01*
X0093784Y0120885D01*
X0094168Y0120795D01*
X0094550Y0120696D01*
X0094929Y0120587D01*
X0095306Y0120469D01*
X0095680Y0120342D01*
X0096050Y0120206D01*
X0096418Y0120061D01*
X0096781Y0119908D01*
X0097141Y0119745D01*
X0097496Y0119574D01*
X0097848Y0119394D01*
X0098194Y0119206D01*
X0098537Y0119009D01*
X0098874Y0118804D01*
X0099206Y0118591D01*
X0099533Y0118370D01*
X0099855Y0118141D01*
X0100171Y0117905D01*
X0100481Y0117660D01*
X0100785Y0117409D01*
X0101083Y0117150D01*
X0101374Y0116884D01*
X0101659Y0116611D01*
X0101937Y0116331D01*
X0102209Y0116044D01*
X0102473Y0115751D01*
X0102730Y0115451D01*
X0102980Y0115146D01*
X0103222Y0114834D01*
X0103457Y0114517D01*
X0103684Y0114194D01*
X0103683Y0090194D02*
X0097683Y0084194D01*
X0090683Y0084194D01*
X0070022Y0052981D02*
X0061361Y0052981D01*
X0061361Y0046682D01*
X0070022Y0046682D01*
X0070022Y0052981D01*
X0069431Y0039989D02*
X0065691Y0039989D01*
X0065691Y0035658D01*
X0063526Y0035658D01*
X0063526Y0032509D01*
X0069431Y0039202D02*
X0069431Y0039989D01*
X0070219Y0025422D02*
X0070219Y0024241D01*
X0087148Y0024241D01*
X0087148Y0025422D01*
X0093841Y0032509D02*
X0093841Y0035658D01*
X0091676Y0035658D01*
X0091676Y0039989D01*
X0087935Y0039989D01*
X0087935Y0039202D01*
D14*
X0080821Y0021337D02*
X0080821Y0018485D01*
X0079870Y0018485D02*
X0081772Y0018485D01*
X0079870Y0020387D02*
X0080821Y0021337D01*
X0078872Y0021337D02*
X0078872Y0018485D01*
X0076970Y0021337D01*
X0076970Y0018485D01*
X0075971Y0018961D02*
X0075496Y0018485D01*
X0074545Y0018485D01*
X0074070Y0018961D01*
X0074070Y0020862D01*
X0074545Y0021337D01*
X0075496Y0021337D01*
X0075971Y0020862D01*
D15*
X0117129Y0014747D02*
X0117129Y0012679D01*
X0117646Y0012161D01*
X0118680Y0012161D01*
X0119197Y0012679D01*
X0120351Y0012161D02*
X0120351Y0015264D01*
X0122420Y0012161D01*
X0122420Y0015264D01*
X0123574Y0014747D02*
X0124091Y0015264D01*
X0125125Y0015264D01*
X0125642Y0014747D01*
X0125642Y0014230D01*
X0125125Y0013713D01*
X0125642Y0013196D01*
X0125642Y0012679D01*
X0125125Y0012161D01*
X0124091Y0012161D01*
X0123574Y0012679D01*
X0124608Y0013713D02*
X0125125Y0013713D01*
X0119197Y0014747D02*
X0118680Y0015264D01*
X0117646Y0015264D01*
X0117129Y0014747D01*
X0117865Y0121370D02*
X0118899Y0121370D01*
X0119416Y0121887D01*
X0120571Y0121370D02*
X0120571Y0124473D01*
X0122639Y0121370D01*
X0122639Y0124473D01*
X0123794Y0123956D02*
X0124311Y0124473D01*
X0125345Y0124473D01*
X0125862Y0123956D01*
X0125862Y0123439D01*
X0123794Y0121370D01*
X0125862Y0121370D01*
X0119416Y0123956D02*
X0118899Y0124473D01*
X0117865Y0124473D01*
X0117348Y0123956D01*
X0117348Y0121887D01*
X0117865Y0121370D01*
M02*
