%
M48
M72
T01C0.01181
T02C0.03500
T03C0.03937
%
T01
X173047Y73047
X173047Y84071
X173047Y94701
X173047Y104543
X173047Y114386
X173047Y124622
X157299Y129740
X153756Y129740
X159268Y143520
X154937Y145882
X156906Y149425
X132890Y126591
X135252Y123047
X130528Y121079
X126984Y121079
X128953Y117142
X135252Y116354
X147457Y113992
X159268Y108087
X146669Y94701
X133283Y102181
X119504Y98638
X102575Y94701
X102575Y104543
X102575Y114386
X102575Y124622
X102575Y134858
X102575Y145882
X112811Y155724
X123441Y146276
X118323Y133283
X113992Y130528
X123441Y125016
X102575Y84071
X102575Y73047
X121079Y73047
X137811Y73047
X154543Y73047
X102575Y202575
X120291Y202575
X137811Y202575
X149031Y198244
X151787Y193913
X155724Y202575
X173047Y202575
X159268Y181315
X102575Y176591
X102575Y166748
T02
X167929Y89583
X167929Y99583
X167929Y109583
X167929Y119583
X167929Y129583
T03
X115370Y79740
X160252Y79740
M30
