G75*
%MOIN*%
%OFA0B0*%
%FSLAX25Y25*%
%IPPOS*%
%LPD*%
%AMOC8*
5,1,8,0,0,1.08239X$1,22.5*
%
%ADD10C,0.00787*%
%ADD11C,0.00394*%
%ADD12C,0.00000*%
D10*
X0001394Y0001394D02*
X0001394Y0275016D01*
X0275016Y0275016D01*
X0275016Y0001394D01*
X0001394Y0001394D01*
X0001394Y0070291D02*
X0275016Y0070291D01*
X0176591Y0001394D02*
X0176591Y0275016D01*
X0099819Y0275016D02*
X0099819Y0001394D01*
X0001394Y0206118D02*
X0275016Y0206118D01*
D11*
X0162614Y0083087D02*
X0162614Y0077181D01*
X0162615Y0077181D02*
X0162613Y0077094D01*
X0162607Y0077007D01*
X0162598Y0076920D01*
X0162584Y0076834D01*
X0162567Y0076749D01*
X0162546Y0076664D01*
X0162521Y0076581D01*
X0162493Y0076498D01*
X0162461Y0076417D01*
X0162425Y0076338D01*
X0162386Y0076260D01*
X0162344Y0076184D01*
X0162298Y0076110D01*
X0162249Y0076038D01*
X0162197Y0075968D01*
X0162142Y0075901D01*
X0162084Y0075836D01*
X0162023Y0075773D01*
X0161959Y0075714D01*
X0161893Y0075657D01*
X0161824Y0075604D01*
X0161753Y0075553D01*
X0161680Y0075506D01*
X0161605Y0075461D01*
X0161528Y0075421D01*
X0161450Y0075383D01*
X0161369Y0075350D01*
X0161288Y0075319D01*
X0161205Y0075293D01*
X0161120Y0075270D01*
X0161035Y0075251D01*
X0160950Y0075236D01*
X0160863Y0075224D01*
X0160777Y0075216D01*
X0160690Y0075212D01*
X0160602Y0075212D01*
X0160515Y0075216D01*
X0160429Y0075224D01*
X0160342Y0075236D01*
X0160257Y0075251D01*
X0160172Y0075270D01*
X0160087Y0075293D01*
X0160004Y0075319D01*
X0159923Y0075350D01*
X0159842Y0075383D01*
X0159764Y0075421D01*
X0159687Y0075461D01*
X0159612Y0075506D01*
X0159539Y0075553D01*
X0159468Y0075604D01*
X0159399Y0075657D01*
X0159333Y0075714D01*
X0159269Y0075773D01*
X0159208Y0075836D01*
X0159150Y0075901D01*
X0159095Y0075968D01*
X0159043Y0076038D01*
X0158994Y0076110D01*
X0158948Y0076184D01*
X0158906Y0076260D01*
X0158867Y0076338D01*
X0158831Y0076417D01*
X0158799Y0076498D01*
X0158771Y0076581D01*
X0158746Y0076664D01*
X0158725Y0076749D01*
X0158708Y0076834D01*
X0158694Y0076920D01*
X0158685Y0077007D01*
X0158679Y0077094D01*
X0158677Y0077181D01*
X0158677Y0083087D01*
X0158679Y0083174D01*
X0158685Y0083261D01*
X0158694Y0083348D01*
X0158708Y0083434D01*
X0158725Y0083519D01*
X0158746Y0083604D01*
X0158771Y0083687D01*
X0158799Y0083770D01*
X0158831Y0083851D01*
X0158867Y0083930D01*
X0158906Y0084008D01*
X0158948Y0084084D01*
X0158994Y0084158D01*
X0159043Y0084230D01*
X0159095Y0084300D01*
X0159150Y0084367D01*
X0159208Y0084432D01*
X0159269Y0084495D01*
X0159333Y0084554D01*
X0159399Y0084611D01*
X0159468Y0084664D01*
X0159539Y0084715D01*
X0159612Y0084762D01*
X0159687Y0084807D01*
X0159764Y0084847D01*
X0159842Y0084885D01*
X0159923Y0084918D01*
X0160004Y0084949D01*
X0160087Y0084975D01*
X0160172Y0084998D01*
X0160257Y0085017D01*
X0160342Y0085032D01*
X0160429Y0085044D01*
X0160515Y0085052D01*
X0160602Y0085056D01*
X0160690Y0085056D01*
X0160777Y0085052D01*
X0160863Y0085044D01*
X0160950Y0085032D01*
X0161035Y0085017D01*
X0161120Y0084998D01*
X0161205Y0084975D01*
X0161288Y0084949D01*
X0161369Y0084918D01*
X0161450Y0084885D01*
X0161528Y0084847D01*
X0161605Y0084807D01*
X0161680Y0084762D01*
X0161753Y0084715D01*
X0161824Y0084664D01*
X0161893Y0084611D01*
X0161959Y0084554D01*
X0162023Y0084495D01*
X0162084Y0084432D01*
X0162142Y0084367D01*
X0162197Y0084300D01*
X0162249Y0084230D01*
X0162298Y0084158D01*
X0162344Y0084084D01*
X0162386Y0084008D01*
X0162425Y0083930D01*
X0162461Y0083851D01*
X0162493Y0083770D01*
X0162521Y0083687D01*
X0162546Y0083604D01*
X0162567Y0083519D01*
X0162584Y0083434D01*
X0162598Y0083348D01*
X0162607Y0083261D01*
X0162613Y0083174D01*
X0162615Y0083087D01*
X0117732Y0083087D02*
X0117732Y0077181D01*
X0117733Y0077181D02*
X0117731Y0077094D01*
X0117725Y0077007D01*
X0117716Y0076920D01*
X0117702Y0076834D01*
X0117685Y0076749D01*
X0117664Y0076664D01*
X0117639Y0076581D01*
X0117611Y0076498D01*
X0117579Y0076417D01*
X0117543Y0076338D01*
X0117504Y0076260D01*
X0117462Y0076184D01*
X0117416Y0076110D01*
X0117367Y0076038D01*
X0117315Y0075968D01*
X0117260Y0075901D01*
X0117202Y0075836D01*
X0117141Y0075773D01*
X0117077Y0075714D01*
X0117011Y0075657D01*
X0116942Y0075604D01*
X0116871Y0075553D01*
X0116798Y0075506D01*
X0116723Y0075461D01*
X0116646Y0075421D01*
X0116568Y0075383D01*
X0116487Y0075350D01*
X0116406Y0075319D01*
X0116323Y0075293D01*
X0116238Y0075270D01*
X0116153Y0075251D01*
X0116068Y0075236D01*
X0115981Y0075224D01*
X0115895Y0075216D01*
X0115808Y0075212D01*
X0115720Y0075212D01*
X0115633Y0075216D01*
X0115547Y0075224D01*
X0115460Y0075236D01*
X0115375Y0075251D01*
X0115290Y0075270D01*
X0115205Y0075293D01*
X0115122Y0075319D01*
X0115041Y0075350D01*
X0114960Y0075383D01*
X0114882Y0075421D01*
X0114805Y0075461D01*
X0114730Y0075506D01*
X0114657Y0075553D01*
X0114586Y0075604D01*
X0114517Y0075657D01*
X0114451Y0075714D01*
X0114387Y0075773D01*
X0114326Y0075836D01*
X0114268Y0075901D01*
X0114213Y0075968D01*
X0114161Y0076038D01*
X0114112Y0076110D01*
X0114066Y0076184D01*
X0114024Y0076260D01*
X0113985Y0076338D01*
X0113949Y0076417D01*
X0113917Y0076498D01*
X0113889Y0076581D01*
X0113864Y0076664D01*
X0113843Y0076749D01*
X0113826Y0076834D01*
X0113812Y0076920D01*
X0113803Y0077007D01*
X0113797Y0077094D01*
X0113795Y0077181D01*
X0113795Y0083087D01*
X0113797Y0083174D01*
X0113803Y0083261D01*
X0113812Y0083348D01*
X0113826Y0083434D01*
X0113843Y0083519D01*
X0113864Y0083604D01*
X0113889Y0083687D01*
X0113917Y0083770D01*
X0113949Y0083851D01*
X0113985Y0083930D01*
X0114024Y0084008D01*
X0114066Y0084084D01*
X0114112Y0084158D01*
X0114161Y0084230D01*
X0114213Y0084300D01*
X0114268Y0084367D01*
X0114326Y0084432D01*
X0114387Y0084495D01*
X0114451Y0084554D01*
X0114517Y0084611D01*
X0114586Y0084664D01*
X0114657Y0084715D01*
X0114730Y0084762D01*
X0114805Y0084807D01*
X0114882Y0084847D01*
X0114960Y0084885D01*
X0115041Y0084918D01*
X0115122Y0084949D01*
X0115205Y0084975D01*
X0115290Y0084998D01*
X0115375Y0085017D01*
X0115460Y0085032D01*
X0115547Y0085044D01*
X0115633Y0085052D01*
X0115720Y0085056D01*
X0115808Y0085056D01*
X0115895Y0085052D01*
X0115981Y0085044D01*
X0116068Y0085032D01*
X0116153Y0085017D01*
X0116238Y0084998D01*
X0116323Y0084975D01*
X0116406Y0084949D01*
X0116487Y0084918D01*
X0116568Y0084885D01*
X0116646Y0084847D01*
X0116723Y0084807D01*
X0116798Y0084762D01*
X0116871Y0084715D01*
X0116942Y0084664D01*
X0117011Y0084611D01*
X0117077Y0084554D01*
X0117141Y0084495D01*
X0117202Y0084432D01*
X0117260Y0084367D01*
X0117315Y0084300D01*
X0117367Y0084230D01*
X0117416Y0084158D01*
X0117462Y0084084D01*
X0117504Y0084008D01*
X0117543Y0083930D01*
X0117579Y0083851D01*
X0117611Y0083770D01*
X0117639Y0083687D01*
X0117664Y0083604D01*
X0117685Y0083519D01*
X0117702Y0083434D01*
X0117716Y0083348D01*
X0117725Y0083261D01*
X0117731Y0083174D01*
X0117733Y0083087D01*
D12*
X0127377Y0080134D02*
X0127379Y0080222D01*
X0127385Y0080310D01*
X0127395Y0080398D01*
X0127409Y0080486D01*
X0127426Y0080572D01*
X0127448Y0080658D01*
X0127473Y0080742D01*
X0127503Y0080826D01*
X0127535Y0080908D01*
X0127572Y0080988D01*
X0127612Y0081067D01*
X0127656Y0081144D01*
X0127703Y0081219D01*
X0127753Y0081291D01*
X0127807Y0081362D01*
X0127863Y0081429D01*
X0127923Y0081495D01*
X0127985Y0081557D01*
X0128051Y0081617D01*
X0128118Y0081673D01*
X0128189Y0081727D01*
X0128261Y0081777D01*
X0128336Y0081824D01*
X0128413Y0081868D01*
X0128492Y0081908D01*
X0128572Y0081945D01*
X0128654Y0081977D01*
X0128738Y0082007D01*
X0128822Y0082032D01*
X0128908Y0082054D01*
X0128994Y0082071D01*
X0129082Y0082085D01*
X0129170Y0082095D01*
X0129258Y0082101D01*
X0129346Y0082103D01*
X0129434Y0082101D01*
X0129522Y0082095D01*
X0129610Y0082085D01*
X0129698Y0082071D01*
X0129784Y0082054D01*
X0129870Y0082032D01*
X0129954Y0082007D01*
X0130038Y0081977D01*
X0130120Y0081945D01*
X0130200Y0081908D01*
X0130279Y0081868D01*
X0130356Y0081824D01*
X0130431Y0081777D01*
X0130503Y0081727D01*
X0130574Y0081673D01*
X0130641Y0081617D01*
X0130707Y0081557D01*
X0130769Y0081495D01*
X0130829Y0081429D01*
X0130885Y0081362D01*
X0130939Y0081291D01*
X0130989Y0081219D01*
X0131036Y0081144D01*
X0131080Y0081067D01*
X0131120Y0080988D01*
X0131157Y0080908D01*
X0131189Y0080826D01*
X0131219Y0080742D01*
X0131244Y0080658D01*
X0131266Y0080572D01*
X0131283Y0080486D01*
X0131297Y0080398D01*
X0131307Y0080310D01*
X0131313Y0080222D01*
X0131315Y0080134D01*
X0131313Y0080046D01*
X0131307Y0079958D01*
X0131297Y0079870D01*
X0131283Y0079782D01*
X0131266Y0079696D01*
X0131244Y0079610D01*
X0131219Y0079526D01*
X0131189Y0079442D01*
X0131157Y0079360D01*
X0131120Y0079280D01*
X0131080Y0079201D01*
X0131036Y0079124D01*
X0130989Y0079049D01*
X0130939Y0078977D01*
X0130885Y0078906D01*
X0130829Y0078839D01*
X0130769Y0078773D01*
X0130707Y0078711D01*
X0130641Y0078651D01*
X0130574Y0078595D01*
X0130503Y0078541D01*
X0130431Y0078491D01*
X0130356Y0078444D01*
X0130279Y0078400D01*
X0130200Y0078360D01*
X0130120Y0078323D01*
X0130038Y0078291D01*
X0129954Y0078261D01*
X0129870Y0078236D01*
X0129784Y0078214D01*
X0129698Y0078197D01*
X0129610Y0078183D01*
X0129522Y0078173D01*
X0129434Y0078167D01*
X0129346Y0078165D01*
X0129258Y0078167D01*
X0129170Y0078173D01*
X0129082Y0078183D01*
X0128994Y0078197D01*
X0128908Y0078214D01*
X0128822Y0078236D01*
X0128738Y0078261D01*
X0128654Y0078291D01*
X0128572Y0078323D01*
X0128492Y0078360D01*
X0128413Y0078400D01*
X0128336Y0078444D01*
X0128261Y0078491D01*
X0128189Y0078541D01*
X0128118Y0078595D01*
X0128051Y0078651D01*
X0127985Y0078711D01*
X0127923Y0078773D01*
X0127863Y0078839D01*
X0127807Y0078906D01*
X0127753Y0078977D01*
X0127703Y0079049D01*
X0127656Y0079124D01*
X0127612Y0079201D01*
X0127572Y0079280D01*
X0127535Y0079360D01*
X0127503Y0079442D01*
X0127473Y0079526D01*
X0127448Y0079610D01*
X0127426Y0079696D01*
X0127409Y0079782D01*
X0127395Y0079870D01*
X0127385Y0079958D01*
X0127379Y0080046D01*
X0127377Y0080134D01*
X0145094Y0080134D02*
X0145096Y0080222D01*
X0145102Y0080310D01*
X0145112Y0080398D01*
X0145126Y0080486D01*
X0145143Y0080572D01*
X0145165Y0080658D01*
X0145190Y0080742D01*
X0145220Y0080826D01*
X0145252Y0080908D01*
X0145289Y0080988D01*
X0145329Y0081067D01*
X0145373Y0081144D01*
X0145420Y0081219D01*
X0145470Y0081291D01*
X0145524Y0081362D01*
X0145580Y0081429D01*
X0145640Y0081495D01*
X0145702Y0081557D01*
X0145768Y0081617D01*
X0145835Y0081673D01*
X0145906Y0081727D01*
X0145978Y0081777D01*
X0146053Y0081824D01*
X0146130Y0081868D01*
X0146209Y0081908D01*
X0146289Y0081945D01*
X0146371Y0081977D01*
X0146455Y0082007D01*
X0146539Y0082032D01*
X0146625Y0082054D01*
X0146711Y0082071D01*
X0146799Y0082085D01*
X0146887Y0082095D01*
X0146975Y0082101D01*
X0147063Y0082103D01*
X0147151Y0082101D01*
X0147239Y0082095D01*
X0147327Y0082085D01*
X0147415Y0082071D01*
X0147501Y0082054D01*
X0147587Y0082032D01*
X0147671Y0082007D01*
X0147755Y0081977D01*
X0147837Y0081945D01*
X0147917Y0081908D01*
X0147996Y0081868D01*
X0148073Y0081824D01*
X0148148Y0081777D01*
X0148220Y0081727D01*
X0148291Y0081673D01*
X0148358Y0081617D01*
X0148424Y0081557D01*
X0148486Y0081495D01*
X0148546Y0081429D01*
X0148602Y0081362D01*
X0148656Y0081291D01*
X0148706Y0081219D01*
X0148753Y0081144D01*
X0148797Y0081067D01*
X0148837Y0080988D01*
X0148874Y0080908D01*
X0148906Y0080826D01*
X0148936Y0080742D01*
X0148961Y0080658D01*
X0148983Y0080572D01*
X0149000Y0080486D01*
X0149014Y0080398D01*
X0149024Y0080310D01*
X0149030Y0080222D01*
X0149032Y0080134D01*
X0149030Y0080046D01*
X0149024Y0079958D01*
X0149014Y0079870D01*
X0149000Y0079782D01*
X0148983Y0079696D01*
X0148961Y0079610D01*
X0148936Y0079526D01*
X0148906Y0079442D01*
X0148874Y0079360D01*
X0148837Y0079280D01*
X0148797Y0079201D01*
X0148753Y0079124D01*
X0148706Y0079049D01*
X0148656Y0078977D01*
X0148602Y0078906D01*
X0148546Y0078839D01*
X0148486Y0078773D01*
X0148424Y0078711D01*
X0148358Y0078651D01*
X0148291Y0078595D01*
X0148220Y0078541D01*
X0148148Y0078491D01*
X0148073Y0078444D01*
X0147996Y0078400D01*
X0147917Y0078360D01*
X0147837Y0078323D01*
X0147755Y0078291D01*
X0147671Y0078261D01*
X0147587Y0078236D01*
X0147501Y0078214D01*
X0147415Y0078197D01*
X0147327Y0078183D01*
X0147239Y0078173D01*
X0147151Y0078167D01*
X0147063Y0078165D01*
X0146975Y0078167D01*
X0146887Y0078173D01*
X0146799Y0078183D01*
X0146711Y0078197D01*
X0146625Y0078214D01*
X0146539Y0078236D01*
X0146455Y0078261D01*
X0146371Y0078291D01*
X0146289Y0078323D01*
X0146209Y0078360D01*
X0146130Y0078400D01*
X0146053Y0078444D01*
X0145978Y0078491D01*
X0145906Y0078541D01*
X0145835Y0078595D01*
X0145768Y0078651D01*
X0145702Y0078711D01*
X0145640Y0078773D01*
X0145580Y0078839D01*
X0145524Y0078906D01*
X0145470Y0078977D01*
X0145420Y0079049D01*
X0145373Y0079124D01*
X0145329Y0079201D01*
X0145289Y0079280D01*
X0145252Y0079360D01*
X0145220Y0079442D01*
X0145190Y0079526D01*
X0145165Y0079610D01*
X0145143Y0079696D01*
X0145126Y0079782D01*
X0145112Y0079870D01*
X0145102Y0079958D01*
X0145096Y0080046D01*
X0145094Y0080134D01*
M02*
