G75*
%MOIN*%
%OFA0B0*%
%FSLAX25Y25*%
%IPPOS*%
%LPD*%
%AMOC8*
5,1,8,0,0,1.08239X$1,22.5*
%
%ADD10C,0.00200*%
%ADD11C,0.00787*%
%ADD12C,0.00500*%
%ADD13C,0.00300*%
%ADD14C,0.01378*%
%ADD15C,0.00000*%
%ADD16R,0.01575X0.01575*%
%ADD17C,0.00400*%
D10*
X0103067Y0078659D02*
X0105231Y0078659D01*
X0105231Y0080102D01*
X0105231Y0080834D02*
X0103788Y0082277D01*
X0103427Y0082277D01*
X0103067Y0081916D01*
X0103067Y0081195D01*
X0103427Y0080834D01*
X0105231Y0080834D02*
X0105231Y0082277D01*
X0105959Y0086533D02*
X0106680Y0086533D01*
X0107041Y0086894D01*
X0107773Y0086533D02*
X0109216Y0086533D01*
X0108495Y0086533D02*
X0108495Y0088697D01*
X0107773Y0087976D01*
X0107041Y0088336D02*
X0106680Y0088697D01*
X0105959Y0088697D01*
X0105598Y0088336D01*
X0105598Y0086894D01*
X0105959Y0086533D01*
X0109949Y0086894D02*
X0111391Y0088336D01*
X0111391Y0086894D01*
X0111031Y0086533D01*
X0110309Y0086533D01*
X0109949Y0086894D01*
X0109949Y0088336D01*
X0110309Y0088697D01*
X0111031Y0088697D01*
X0111391Y0088336D01*
X0111957Y0095962D02*
X0110153Y0095962D01*
X0110153Y0097405D02*
X0111957Y0097405D01*
X0112317Y0097044D01*
X0112317Y0096323D01*
X0111957Y0095962D01*
X0112317Y0098138D02*
X0110875Y0099580D01*
X0110514Y0099580D01*
X0110153Y0099220D01*
X0110153Y0098498D01*
X0110514Y0098138D01*
X0112317Y0098138D02*
X0112317Y0099580D01*
X0122340Y0097392D02*
X0122340Y0095949D01*
X0122701Y0095588D01*
X0123422Y0095588D01*
X0123783Y0095949D01*
X0124515Y0095949D02*
X0125958Y0097392D01*
X0125958Y0097752D01*
X0124515Y0097752D01*
X0123783Y0097392D02*
X0123422Y0097752D01*
X0122701Y0097752D01*
X0122340Y0097392D01*
X0124515Y0095949D02*
X0124515Y0095588D01*
X0127458Y0095588D02*
X0127458Y0097752D01*
X0127458Y0095588D02*
X0128901Y0095588D01*
X0129634Y0095588D02*
X0131076Y0095588D01*
X0130355Y0095588D02*
X0130355Y0097752D01*
X0129634Y0097031D01*
X0132594Y0104643D02*
X0132594Y0105725D01*
X0132955Y0106086D01*
X0134398Y0106086D01*
X0134758Y0105725D01*
X0134758Y0104643D01*
X0132594Y0104643D01*
X0132594Y0106818D02*
X0133676Y0106818D01*
X0133316Y0107540D01*
X0133316Y0107900D01*
X0133676Y0108261D01*
X0134398Y0108261D01*
X0134758Y0107900D01*
X0134758Y0107179D01*
X0134398Y0106818D01*
X0132594Y0106818D02*
X0132594Y0108261D01*
X0128373Y0113698D02*
X0128734Y0114059D01*
X0128734Y0114420D01*
X0128373Y0114780D01*
X0127291Y0114780D01*
X0127291Y0114059D01*
X0127652Y0113698D01*
X0128373Y0113698D01*
X0127291Y0114780D02*
X0128012Y0115502D01*
X0128734Y0115862D01*
X0126558Y0115502D02*
X0126198Y0115862D01*
X0125476Y0115862D01*
X0125116Y0115502D01*
X0125116Y0114059D01*
X0125476Y0113698D01*
X0126198Y0113698D01*
X0126558Y0114059D01*
X0120840Y0114387D02*
X0119397Y0114387D01*
X0120479Y0115469D01*
X0120479Y0113305D01*
X0118665Y0113665D02*
X0118304Y0113305D01*
X0117583Y0113305D01*
X0117222Y0113665D01*
X0117222Y0115108D01*
X0117583Y0115469D01*
X0118304Y0115469D01*
X0118665Y0115108D01*
X0115722Y0115108D02*
X0115722Y0114747D01*
X0115361Y0114387D01*
X0115722Y0114026D01*
X0115722Y0113665D01*
X0115361Y0113305D01*
X0114640Y0113305D01*
X0114279Y0113665D01*
X0113547Y0113665D02*
X0113186Y0113305D01*
X0112465Y0113305D01*
X0112104Y0113665D01*
X0112104Y0115108D01*
X0112465Y0115469D01*
X0113186Y0115469D01*
X0113547Y0115108D01*
X0114279Y0115108D02*
X0114640Y0115469D01*
X0115361Y0115469D01*
X0115722Y0115108D01*
X0115361Y0114387D02*
X0115001Y0114387D01*
X0109710Y0112814D02*
X0108509Y0112814D01*
X0109110Y0112814D02*
X0109110Y0114616D01*
X0108509Y0114015D01*
X0107869Y0112814D02*
X0106668Y0112814D01*
X0107268Y0112814D02*
X0107268Y0114616D01*
X0106668Y0114015D01*
X0106027Y0114315D02*
X0105727Y0114616D01*
X0105127Y0114616D01*
X0104826Y0114315D01*
X0104826Y0113114D01*
X0105127Y0112814D01*
X0105727Y0112814D01*
X0106027Y0113114D01*
X0106218Y0131415D02*
X0107300Y0131415D01*
X0107661Y0131776D01*
X0107661Y0133218D01*
X0107300Y0133579D01*
X0106218Y0133579D01*
X0106218Y0131415D01*
X0108393Y0131776D02*
X0108754Y0131415D01*
X0109475Y0131415D01*
X0109836Y0131776D01*
X0109836Y0132136D01*
X0109475Y0132497D01*
X0108393Y0132497D01*
X0108393Y0131776D01*
X0108393Y0132497D02*
X0109115Y0133218D01*
X0109836Y0133579D01*
X0104870Y0140076D02*
X0105231Y0140437D01*
X0105231Y0141158D01*
X0104870Y0141519D01*
X0105231Y0142251D02*
X0103788Y0143694D01*
X0103427Y0143694D01*
X0103067Y0143333D01*
X0103067Y0142612D01*
X0103427Y0142251D01*
X0103427Y0141519D02*
X0103067Y0141158D01*
X0103067Y0140437D01*
X0103427Y0140076D01*
X0104870Y0140076D01*
X0105231Y0142251D02*
X0105231Y0143694D01*
X0103656Y0155037D02*
X0101492Y0156480D01*
X0102213Y0157212D02*
X0101492Y0157933D01*
X0103656Y0157933D01*
X0103656Y0157212D02*
X0103656Y0158655D01*
X0103656Y0156480D02*
X0101492Y0155037D01*
X0103427Y0169604D02*
X0104870Y0169604D01*
X0105231Y0169965D01*
X0105231Y0170686D01*
X0104870Y0171047D01*
X0105231Y0171779D02*
X0105231Y0173222D01*
X0105231Y0172500D02*
X0103067Y0172500D01*
X0103788Y0171779D01*
X0103427Y0171047D02*
X0103067Y0170686D01*
X0103067Y0169965D01*
X0103427Y0169604D01*
X0104443Y0179053D02*
X0104443Y0180135D01*
X0104083Y0180495D01*
X0102640Y0180495D01*
X0102279Y0180135D01*
X0102279Y0179053D01*
X0104443Y0179053D01*
X0104443Y0181228D02*
X0104443Y0182671D01*
X0104443Y0181949D02*
X0102279Y0181949D01*
X0103001Y0181228D01*
X0102279Y0184958D02*
X0102279Y0186040D01*
X0102640Y0186401D01*
X0104083Y0186401D01*
X0104443Y0186040D01*
X0104443Y0184958D01*
X0102279Y0184958D01*
X0102640Y0187133D02*
X0102279Y0187494D01*
X0102279Y0188215D01*
X0102640Y0188576D01*
X0103001Y0188576D01*
X0104443Y0187133D01*
X0104443Y0188576D01*
X0104443Y0190864D02*
X0104443Y0191946D01*
X0104083Y0192306D01*
X0102640Y0192306D01*
X0102279Y0191946D01*
X0102279Y0190864D01*
X0104443Y0190864D01*
X0104083Y0193039D02*
X0104443Y0193400D01*
X0104443Y0194121D01*
X0104083Y0194482D01*
X0103722Y0194482D01*
X0103361Y0194121D01*
X0103361Y0193760D01*
X0103361Y0194121D02*
X0103001Y0194482D01*
X0102640Y0194482D01*
X0102279Y0194121D01*
X0102279Y0193400D01*
X0102640Y0193039D01*
X0102279Y0196769D02*
X0102279Y0197851D01*
X0102640Y0198212D01*
X0104083Y0198212D01*
X0104443Y0197851D01*
X0104443Y0196769D01*
X0102279Y0196769D01*
X0103361Y0198944D02*
X0103361Y0200387D01*
X0102279Y0200026D02*
X0103361Y0198944D01*
X0104443Y0200026D02*
X0102279Y0200026D01*
X0129051Y0198399D02*
X0129051Y0196956D01*
X0130133Y0196956D01*
X0129772Y0197678D01*
X0129772Y0198038D01*
X0130133Y0198399D01*
X0130854Y0198399D01*
X0131215Y0198038D01*
X0131215Y0197317D01*
X0130854Y0196956D01*
X0131215Y0196224D02*
X0130494Y0195503D01*
X0130494Y0195863D02*
X0130494Y0194781D01*
X0131215Y0194781D02*
X0129051Y0194781D01*
X0129051Y0195863D01*
X0129412Y0196224D01*
X0130133Y0196224D01*
X0130494Y0195863D01*
X0130133Y0192887D02*
X0130133Y0191445D01*
X0129051Y0192527D01*
X0131215Y0192527D01*
X0131215Y0190712D02*
X0130494Y0189991D01*
X0130494Y0190352D02*
X0130494Y0189270D01*
X0131215Y0189270D02*
X0129051Y0189270D01*
X0129051Y0190352D01*
X0129412Y0190712D01*
X0130133Y0190712D01*
X0130494Y0190352D01*
X0130494Y0187375D02*
X0130854Y0187375D01*
X0131215Y0187015D01*
X0131215Y0186293D01*
X0130854Y0185933D01*
X0131215Y0185200D02*
X0130494Y0184479D01*
X0130494Y0184840D02*
X0130494Y0183758D01*
X0131215Y0183758D02*
X0129051Y0183758D01*
X0129051Y0184840D01*
X0129412Y0185200D01*
X0130133Y0185200D01*
X0130494Y0184840D01*
X0129412Y0185933D02*
X0129051Y0186293D01*
X0129051Y0187015D01*
X0129412Y0187375D01*
X0129772Y0187375D01*
X0130133Y0187015D01*
X0130494Y0187375D01*
X0130133Y0187015D02*
X0130133Y0186654D01*
X0129772Y0182257D02*
X0129412Y0182257D01*
X0129051Y0181897D01*
X0129051Y0181175D01*
X0129412Y0180815D01*
X0129412Y0180082D02*
X0130133Y0180082D01*
X0130494Y0179722D01*
X0130494Y0178640D01*
X0130494Y0179361D02*
X0131215Y0180082D01*
X0131215Y0180815D02*
X0129772Y0182257D01*
X0131215Y0182257D02*
X0131215Y0180815D01*
X0129412Y0180082D02*
X0129051Y0179722D01*
X0129051Y0178640D01*
X0131215Y0178640D01*
X0143424Y0180466D02*
X0143858Y0180032D01*
X0144725Y0180032D01*
X0145159Y0180466D01*
X0145159Y0182634D01*
X0146002Y0182201D02*
X0146436Y0182634D01*
X0147303Y0182634D01*
X0147737Y0182201D01*
X0147737Y0181767D01*
X0147303Y0181333D01*
X0147737Y0180900D01*
X0147737Y0180466D01*
X0147303Y0180032D01*
X0146436Y0180032D01*
X0146002Y0180466D01*
X0146870Y0181333D02*
X0147303Y0181333D01*
X0143424Y0180466D02*
X0143424Y0182634D01*
X0153836Y0183185D02*
X0153836Y0181021D01*
X0153836Y0181743D02*
X0154918Y0181743D01*
X0155279Y0182103D01*
X0155279Y0182825D01*
X0154918Y0183185D01*
X0153836Y0183185D01*
X0154558Y0181743D02*
X0155279Y0181021D01*
X0156012Y0181382D02*
X0156372Y0181021D01*
X0157094Y0181021D01*
X0157454Y0181382D01*
X0157454Y0182825D01*
X0157094Y0183185D01*
X0156372Y0183185D01*
X0156012Y0182825D01*
X0156012Y0182464D01*
X0156372Y0182103D01*
X0157454Y0182103D01*
X0157146Y0193226D02*
X0157146Y0195390D01*
X0156425Y0194669D01*
X0155692Y0195029D02*
X0155332Y0195390D01*
X0154610Y0195390D01*
X0154250Y0195029D01*
X0154250Y0193587D01*
X0154610Y0193226D01*
X0155332Y0193226D01*
X0155692Y0193587D01*
X0156425Y0193226D02*
X0157867Y0193226D01*
X0158600Y0193226D02*
X0160042Y0194669D01*
X0160042Y0195029D01*
X0159682Y0195390D01*
X0158960Y0195390D01*
X0158600Y0195029D01*
X0158600Y0193226D02*
X0160042Y0193226D01*
X0165240Y0201494D02*
X0164880Y0201854D01*
X0165240Y0201494D02*
X0165962Y0201494D01*
X0166322Y0201854D01*
X0166322Y0202215D01*
X0165962Y0202576D01*
X0165240Y0202576D01*
X0164880Y0202936D01*
X0164880Y0203297D01*
X0165240Y0203658D01*
X0165962Y0203658D01*
X0166322Y0203297D01*
X0167055Y0203658D02*
X0167055Y0201494D01*
X0167776Y0202215D01*
X0168497Y0201494D01*
X0168497Y0203658D01*
X0169230Y0202936D02*
X0169951Y0203658D01*
X0169951Y0201494D01*
X0169230Y0201494D02*
X0170672Y0201494D01*
X0153930Y0201461D02*
X0153570Y0201100D01*
X0152848Y0201100D01*
X0152488Y0201461D01*
X0152488Y0201821D01*
X0152848Y0202182D01*
X0153570Y0202182D01*
X0153930Y0201821D01*
X0153930Y0201461D01*
X0153570Y0202182D02*
X0153930Y0202543D01*
X0153930Y0202903D01*
X0153570Y0203264D01*
X0152848Y0203264D01*
X0152488Y0202903D01*
X0152488Y0202543D01*
X0152848Y0202182D01*
X0151755Y0202182D02*
X0151395Y0201821D01*
X0150313Y0201821D01*
X0151034Y0201821D02*
X0151755Y0201100D01*
X0151755Y0202182D02*
X0151755Y0202903D01*
X0151395Y0203264D01*
X0150313Y0203264D01*
X0150313Y0201100D01*
X0139483Y0199732D02*
X0139122Y0199732D01*
X0137679Y0201174D01*
X0137319Y0201174D01*
X0137319Y0199732D01*
X0137679Y0198999D02*
X0138401Y0198999D01*
X0138761Y0198639D01*
X0138761Y0197557D01*
X0138761Y0198278D02*
X0139483Y0198999D01*
X0139483Y0197557D02*
X0137319Y0197557D01*
X0137319Y0198639D01*
X0137679Y0198999D01*
X0135546Y0198999D02*
X0134824Y0198278D01*
X0134824Y0198639D02*
X0134824Y0197557D01*
X0135546Y0197557D02*
X0133382Y0197557D01*
X0133382Y0198639D01*
X0133742Y0198999D01*
X0134464Y0198999D01*
X0134824Y0198639D01*
X0134464Y0199732D02*
X0134464Y0200814D01*
X0134824Y0201174D01*
X0135185Y0201174D01*
X0135546Y0200814D01*
X0135546Y0200092D01*
X0135185Y0199732D01*
X0134464Y0199732D01*
X0133742Y0200453D01*
X0133382Y0201174D01*
X0172653Y0132714D02*
X0172358Y0132419D01*
X0172358Y0131534D01*
X0174128Y0131534D01*
X0174128Y0132419D01*
X0173833Y0132714D01*
X0172653Y0132714D01*
X0172358Y0130901D02*
X0174128Y0129721D01*
X0174128Y0130901D02*
X0172358Y0129721D01*
X0172358Y0129089D02*
X0172358Y0127909D01*
X0172358Y0128499D02*
X0174128Y0128499D01*
X0174128Y0122478D02*
X0173243Y0121593D01*
X0173538Y0121298D02*
X0172358Y0122478D01*
X0172358Y0121298D02*
X0174128Y0121298D01*
X0173833Y0120665D02*
X0174128Y0120370D01*
X0174128Y0119780D01*
X0173833Y0119485D01*
X0172653Y0119485D01*
X0172358Y0119780D01*
X0172358Y0120370D01*
X0172653Y0120665D01*
X0172653Y0118852D02*
X0173243Y0118852D01*
X0173538Y0118557D01*
X0173538Y0117672D01*
X0174128Y0117672D02*
X0172358Y0117672D01*
X0172358Y0118557D01*
X0172653Y0118852D01*
X0172653Y0112333D02*
X0172358Y0112038D01*
X0172358Y0111448D01*
X0172653Y0111153D01*
X0173833Y0111153D01*
X0174128Y0111448D01*
X0174128Y0112038D01*
X0173833Y0112333D01*
X0172653Y0112333D01*
X0172358Y0110535D02*
X0172358Y0109945D01*
X0172358Y0110240D02*
X0174128Y0110240D01*
X0174128Y0109945D02*
X0174128Y0110535D01*
X0173243Y0109312D02*
X0173538Y0109017D01*
X0173538Y0108132D01*
X0174128Y0108132D02*
X0172358Y0108132D01*
X0172358Y0109017D01*
X0172653Y0109312D01*
X0173243Y0109312D01*
X0172653Y0102399D02*
X0172358Y0102104D01*
X0172358Y0101219D01*
X0174128Y0101219D01*
X0174128Y0102104D01*
X0173833Y0102399D01*
X0172653Y0102399D01*
X0172653Y0100586D02*
X0172358Y0100291D01*
X0172358Y0099406D01*
X0174128Y0099406D01*
X0174128Y0100291D01*
X0173833Y0100586D01*
X0172653Y0100586D01*
X0172358Y0098774D02*
X0173538Y0098774D01*
X0174128Y0098184D01*
X0173538Y0097594D01*
X0172358Y0097594D01*
X0172653Y0092556D02*
X0172358Y0092261D01*
X0172358Y0091376D01*
X0174128Y0091376D01*
X0174128Y0092261D01*
X0173833Y0092556D01*
X0172653Y0092556D01*
X0172358Y0090744D02*
X0174128Y0090744D01*
X0172358Y0089564D01*
X0174128Y0089564D01*
X0173833Y0088931D02*
X0173243Y0088931D01*
X0173243Y0088341D01*
X0172653Y0087751D02*
X0173833Y0087751D01*
X0174128Y0088046D01*
X0174128Y0088636D01*
X0173833Y0088931D01*
X0172653Y0088931D02*
X0172358Y0088636D01*
X0172358Y0088046D01*
X0172653Y0087751D01*
X0173013Y0081470D02*
X0173374Y0081470D01*
X0173735Y0081109D01*
X0173735Y0080388D01*
X0173374Y0080027D01*
X0173735Y0079295D02*
X0173735Y0077852D01*
X0171571Y0077852D01*
X0171931Y0080027D02*
X0171571Y0080388D01*
X0171571Y0081109D01*
X0171931Y0081470D01*
X0172292Y0081470D01*
X0172653Y0081109D01*
X0173013Y0081470D01*
X0172653Y0081109D02*
X0172653Y0080749D01*
X0169951Y0074130D02*
X0169951Y0071966D01*
X0169230Y0071966D02*
X0170672Y0071966D01*
X0169230Y0073409D02*
X0169951Y0074130D01*
X0168497Y0074130D02*
X0168497Y0071966D01*
X0167055Y0074130D01*
X0167055Y0071966D01*
X0166322Y0072327D02*
X0165962Y0071966D01*
X0165240Y0071966D01*
X0164880Y0072327D01*
X0164880Y0073770D01*
X0165240Y0074130D01*
X0165962Y0074130D01*
X0166322Y0073770D01*
X0160382Y0100687D02*
X0158939Y0100687D01*
X0158578Y0101048D01*
X0158578Y0101769D01*
X0158939Y0102130D01*
X0158939Y0102862D02*
X0159300Y0102862D01*
X0159660Y0103223D01*
X0159660Y0104305D01*
X0158939Y0104305D02*
X0158578Y0103944D01*
X0158578Y0103223D01*
X0158939Y0102862D01*
X0158939Y0104305D02*
X0160382Y0104305D01*
X0160743Y0103944D01*
X0160743Y0103223D01*
X0160382Y0102862D01*
X0160382Y0102130D02*
X0160743Y0101769D01*
X0160743Y0101048D01*
X0160382Y0100687D01*
X0151687Y0108941D02*
X0151687Y0109662D01*
X0151327Y0110023D01*
X0151327Y0110755D02*
X0150966Y0110755D01*
X0150605Y0111116D01*
X0150605Y0111837D01*
X0150966Y0112198D01*
X0151327Y0112198D01*
X0151687Y0111837D01*
X0151687Y0111116D01*
X0151327Y0110755D01*
X0150605Y0111116D02*
X0150245Y0110755D01*
X0149884Y0110755D01*
X0149523Y0111116D01*
X0149523Y0111837D01*
X0149884Y0112198D01*
X0150245Y0112198D01*
X0150605Y0111837D01*
X0149884Y0110023D02*
X0149523Y0109662D01*
X0149523Y0108941D01*
X0149884Y0108580D01*
X0151327Y0108580D01*
X0151687Y0108941D01*
X0148177Y0118029D02*
X0148538Y0118390D01*
X0148538Y0119111D01*
X0148177Y0119472D01*
X0148177Y0120204D02*
X0148538Y0120565D01*
X0148538Y0121286D01*
X0148177Y0121647D01*
X0147456Y0121647D01*
X0147095Y0121286D01*
X0147095Y0120926D01*
X0147456Y0120204D01*
X0146374Y0120204D01*
X0146374Y0121647D01*
X0146734Y0119472D02*
X0146374Y0119111D01*
X0146374Y0118390D01*
X0146734Y0118029D01*
X0148177Y0118029D01*
X0142645Y0129446D02*
X0142645Y0129807D01*
X0144088Y0131250D01*
X0144088Y0131611D01*
X0142645Y0131611D01*
X0141913Y0131250D02*
X0141552Y0131611D01*
X0140470Y0131611D01*
X0140470Y0129446D01*
X0141552Y0129446D01*
X0141913Y0129807D01*
X0141913Y0131250D01*
X0159761Y0127673D02*
X0159761Y0125509D01*
X0159761Y0126231D02*
X0160843Y0126231D01*
X0161204Y0126591D01*
X0161204Y0127313D01*
X0160843Y0127673D01*
X0159761Y0127673D01*
X0160483Y0126231D02*
X0161204Y0125509D01*
X0161937Y0125509D02*
X0163379Y0125509D01*
X0162658Y0125509D02*
X0162658Y0127673D01*
X0161937Y0126952D01*
D11*
X0001394Y0001394D02*
X0001394Y0275016D01*
X0275016Y0275016D01*
X0275016Y0001394D01*
X0001394Y0001394D01*
X0001394Y0070291D02*
X0275016Y0070291D01*
X0176591Y0001394D02*
X0176591Y0275016D01*
X0099819Y0275016D02*
X0099819Y0001394D01*
X0001394Y0206118D02*
X0275016Y0206118D01*
D12*
X0176000Y0176787D02*
X0176000Y0135449D01*
X0114976Y0135449D01*
X0114976Y0176787D01*
X0176000Y0176787D01*
X0160099Y0120936D02*
X0160099Y0114637D01*
X0154981Y0117786D02*
X0154983Y0117874D01*
X0154989Y0117962D01*
X0154999Y0118050D01*
X0155013Y0118138D01*
X0155030Y0118224D01*
X0155052Y0118310D01*
X0155077Y0118394D01*
X0155107Y0118478D01*
X0155139Y0118560D01*
X0155176Y0118640D01*
X0155216Y0118719D01*
X0155260Y0118796D01*
X0155307Y0118871D01*
X0155357Y0118943D01*
X0155411Y0119014D01*
X0155467Y0119081D01*
X0155527Y0119147D01*
X0155589Y0119209D01*
X0155655Y0119269D01*
X0155722Y0119325D01*
X0155793Y0119379D01*
X0155865Y0119429D01*
X0155940Y0119476D01*
X0156017Y0119520D01*
X0156096Y0119560D01*
X0156176Y0119597D01*
X0156258Y0119629D01*
X0156342Y0119659D01*
X0156426Y0119684D01*
X0156512Y0119706D01*
X0156598Y0119723D01*
X0156686Y0119737D01*
X0156774Y0119747D01*
X0156862Y0119753D01*
X0156950Y0119755D01*
X0157038Y0119753D01*
X0157126Y0119747D01*
X0157214Y0119737D01*
X0157302Y0119723D01*
X0157388Y0119706D01*
X0157474Y0119684D01*
X0157558Y0119659D01*
X0157642Y0119629D01*
X0157724Y0119597D01*
X0157804Y0119560D01*
X0157883Y0119520D01*
X0157960Y0119476D01*
X0158035Y0119429D01*
X0158107Y0119379D01*
X0158178Y0119325D01*
X0158245Y0119269D01*
X0158311Y0119209D01*
X0158373Y0119147D01*
X0158433Y0119081D01*
X0158489Y0119014D01*
X0158543Y0118943D01*
X0158593Y0118871D01*
X0158640Y0118796D01*
X0158684Y0118719D01*
X0158724Y0118640D01*
X0158761Y0118560D01*
X0158793Y0118478D01*
X0158823Y0118394D01*
X0158848Y0118310D01*
X0158870Y0118224D01*
X0158887Y0118138D01*
X0158901Y0118050D01*
X0158911Y0117962D01*
X0158917Y0117874D01*
X0158919Y0117786D01*
X0158917Y0117698D01*
X0158911Y0117610D01*
X0158901Y0117522D01*
X0158887Y0117434D01*
X0158870Y0117348D01*
X0158848Y0117262D01*
X0158823Y0117178D01*
X0158793Y0117094D01*
X0158761Y0117012D01*
X0158724Y0116932D01*
X0158684Y0116853D01*
X0158640Y0116776D01*
X0158593Y0116701D01*
X0158543Y0116629D01*
X0158489Y0116558D01*
X0158433Y0116491D01*
X0158373Y0116425D01*
X0158311Y0116363D01*
X0158245Y0116303D01*
X0158178Y0116247D01*
X0158107Y0116193D01*
X0158035Y0116143D01*
X0157960Y0116096D01*
X0157883Y0116052D01*
X0157804Y0116012D01*
X0157724Y0115975D01*
X0157642Y0115943D01*
X0157558Y0115913D01*
X0157474Y0115888D01*
X0157388Y0115866D01*
X0157302Y0115849D01*
X0157214Y0115835D01*
X0157126Y0115825D01*
X0157038Y0115819D01*
X0156950Y0115817D01*
X0156862Y0115819D01*
X0156774Y0115825D01*
X0156686Y0115835D01*
X0156598Y0115849D01*
X0156512Y0115866D01*
X0156426Y0115888D01*
X0156342Y0115913D01*
X0156258Y0115943D01*
X0156176Y0115975D01*
X0156096Y0116012D01*
X0156017Y0116052D01*
X0155940Y0116096D01*
X0155865Y0116143D01*
X0155793Y0116193D01*
X0155722Y0116247D01*
X0155655Y0116303D01*
X0155589Y0116363D01*
X0155527Y0116425D01*
X0155467Y0116491D01*
X0155411Y0116558D01*
X0155357Y0116629D01*
X0155307Y0116701D01*
X0155260Y0116776D01*
X0155216Y0116853D01*
X0155176Y0116932D01*
X0155139Y0117012D01*
X0155107Y0117094D01*
X0155077Y0117178D01*
X0155052Y0117262D01*
X0155030Y0117348D01*
X0155013Y0117434D01*
X0154999Y0117522D01*
X0154989Y0117610D01*
X0154983Y0117698D01*
X0154981Y0117786D01*
X0153800Y0114637D02*
X0153800Y0120936D01*
X0116354Y0178559D02*
X0105331Y0178559D01*
X0105331Y0183283D01*
X0116354Y0183283D01*
X0116354Y0178559D01*
X0116354Y0184465D02*
X0105331Y0184465D01*
X0105331Y0189189D01*
X0116354Y0189189D01*
X0116354Y0184465D01*
X0116354Y0190370D02*
X0105331Y0190370D01*
X0105331Y0195094D01*
X0116354Y0195094D01*
X0116354Y0190370D01*
X0116354Y0196276D02*
X0105331Y0196276D01*
X0105331Y0201000D01*
X0116354Y0201000D01*
X0116354Y0196276D01*
D13*
X0134351Y0181940D02*
X0134351Y0179235D01*
X0134892Y0178694D01*
X0135974Y0178694D01*
X0136515Y0179235D01*
X0136515Y0181940D01*
X0137614Y0180858D02*
X0138696Y0181940D01*
X0138696Y0178694D01*
X0137614Y0178694D02*
X0139778Y0178694D01*
X0161347Y0120656D02*
X0161003Y0120312D01*
X0161003Y0119624D01*
X0161347Y0119280D01*
X0161003Y0118481D02*
X0163067Y0118481D01*
X0162379Y0117793D01*
X0163067Y0117105D01*
X0161003Y0117105D01*
X0161347Y0116306D02*
X0161003Y0115962D01*
X0161003Y0115274D01*
X0161347Y0114930D01*
X0161691Y0114930D01*
X0162035Y0115274D01*
X0162035Y0115962D01*
X0162379Y0116306D01*
X0162723Y0116306D01*
X0163067Y0115962D01*
X0163067Y0115274D01*
X0162723Y0114930D01*
X0163067Y0119280D02*
X0161691Y0120656D01*
X0161347Y0120656D01*
X0163067Y0120656D02*
X0163067Y0119280D01*
D14*
X0108874Y0156906D03*
D15*
X0127377Y0080134D02*
X0127379Y0080222D01*
X0127385Y0080310D01*
X0127395Y0080398D01*
X0127409Y0080486D01*
X0127426Y0080572D01*
X0127448Y0080658D01*
X0127473Y0080742D01*
X0127503Y0080826D01*
X0127535Y0080908D01*
X0127572Y0080988D01*
X0127612Y0081067D01*
X0127656Y0081144D01*
X0127703Y0081219D01*
X0127753Y0081291D01*
X0127807Y0081362D01*
X0127863Y0081429D01*
X0127923Y0081495D01*
X0127985Y0081557D01*
X0128051Y0081617D01*
X0128118Y0081673D01*
X0128189Y0081727D01*
X0128261Y0081777D01*
X0128336Y0081824D01*
X0128413Y0081868D01*
X0128492Y0081908D01*
X0128572Y0081945D01*
X0128654Y0081977D01*
X0128738Y0082007D01*
X0128822Y0082032D01*
X0128908Y0082054D01*
X0128994Y0082071D01*
X0129082Y0082085D01*
X0129170Y0082095D01*
X0129258Y0082101D01*
X0129346Y0082103D01*
X0129434Y0082101D01*
X0129522Y0082095D01*
X0129610Y0082085D01*
X0129698Y0082071D01*
X0129784Y0082054D01*
X0129870Y0082032D01*
X0129954Y0082007D01*
X0130038Y0081977D01*
X0130120Y0081945D01*
X0130200Y0081908D01*
X0130279Y0081868D01*
X0130356Y0081824D01*
X0130431Y0081777D01*
X0130503Y0081727D01*
X0130574Y0081673D01*
X0130641Y0081617D01*
X0130707Y0081557D01*
X0130769Y0081495D01*
X0130829Y0081429D01*
X0130885Y0081362D01*
X0130939Y0081291D01*
X0130989Y0081219D01*
X0131036Y0081144D01*
X0131080Y0081067D01*
X0131120Y0080988D01*
X0131157Y0080908D01*
X0131189Y0080826D01*
X0131219Y0080742D01*
X0131244Y0080658D01*
X0131266Y0080572D01*
X0131283Y0080486D01*
X0131297Y0080398D01*
X0131307Y0080310D01*
X0131313Y0080222D01*
X0131315Y0080134D01*
X0131313Y0080046D01*
X0131307Y0079958D01*
X0131297Y0079870D01*
X0131283Y0079782D01*
X0131266Y0079696D01*
X0131244Y0079610D01*
X0131219Y0079526D01*
X0131189Y0079442D01*
X0131157Y0079360D01*
X0131120Y0079280D01*
X0131080Y0079201D01*
X0131036Y0079124D01*
X0130989Y0079049D01*
X0130939Y0078977D01*
X0130885Y0078906D01*
X0130829Y0078839D01*
X0130769Y0078773D01*
X0130707Y0078711D01*
X0130641Y0078651D01*
X0130574Y0078595D01*
X0130503Y0078541D01*
X0130431Y0078491D01*
X0130356Y0078444D01*
X0130279Y0078400D01*
X0130200Y0078360D01*
X0130120Y0078323D01*
X0130038Y0078291D01*
X0129954Y0078261D01*
X0129870Y0078236D01*
X0129784Y0078214D01*
X0129698Y0078197D01*
X0129610Y0078183D01*
X0129522Y0078173D01*
X0129434Y0078167D01*
X0129346Y0078165D01*
X0129258Y0078167D01*
X0129170Y0078173D01*
X0129082Y0078183D01*
X0128994Y0078197D01*
X0128908Y0078214D01*
X0128822Y0078236D01*
X0128738Y0078261D01*
X0128654Y0078291D01*
X0128572Y0078323D01*
X0128492Y0078360D01*
X0128413Y0078400D01*
X0128336Y0078444D01*
X0128261Y0078491D01*
X0128189Y0078541D01*
X0128118Y0078595D01*
X0128051Y0078651D01*
X0127985Y0078711D01*
X0127923Y0078773D01*
X0127863Y0078839D01*
X0127807Y0078906D01*
X0127753Y0078977D01*
X0127703Y0079049D01*
X0127656Y0079124D01*
X0127612Y0079201D01*
X0127572Y0079280D01*
X0127535Y0079360D01*
X0127503Y0079442D01*
X0127473Y0079526D01*
X0127448Y0079610D01*
X0127426Y0079696D01*
X0127409Y0079782D01*
X0127395Y0079870D01*
X0127385Y0079958D01*
X0127379Y0080046D01*
X0127377Y0080134D01*
X0145094Y0080134D02*
X0145096Y0080222D01*
X0145102Y0080310D01*
X0145112Y0080398D01*
X0145126Y0080486D01*
X0145143Y0080572D01*
X0145165Y0080658D01*
X0145190Y0080742D01*
X0145220Y0080826D01*
X0145252Y0080908D01*
X0145289Y0080988D01*
X0145329Y0081067D01*
X0145373Y0081144D01*
X0145420Y0081219D01*
X0145470Y0081291D01*
X0145524Y0081362D01*
X0145580Y0081429D01*
X0145640Y0081495D01*
X0145702Y0081557D01*
X0145768Y0081617D01*
X0145835Y0081673D01*
X0145906Y0081727D01*
X0145978Y0081777D01*
X0146053Y0081824D01*
X0146130Y0081868D01*
X0146209Y0081908D01*
X0146289Y0081945D01*
X0146371Y0081977D01*
X0146455Y0082007D01*
X0146539Y0082032D01*
X0146625Y0082054D01*
X0146711Y0082071D01*
X0146799Y0082085D01*
X0146887Y0082095D01*
X0146975Y0082101D01*
X0147063Y0082103D01*
X0147151Y0082101D01*
X0147239Y0082095D01*
X0147327Y0082085D01*
X0147415Y0082071D01*
X0147501Y0082054D01*
X0147587Y0082032D01*
X0147671Y0082007D01*
X0147755Y0081977D01*
X0147837Y0081945D01*
X0147917Y0081908D01*
X0147996Y0081868D01*
X0148073Y0081824D01*
X0148148Y0081777D01*
X0148220Y0081727D01*
X0148291Y0081673D01*
X0148358Y0081617D01*
X0148424Y0081557D01*
X0148486Y0081495D01*
X0148546Y0081429D01*
X0148602Y0081362D01*
X0148656Y0081291D01*
X0148706Y0081219D01*
X0148753Y0081144D01*
X0148797Y0081067D01*
X0148837Y0080988D01*
X0148874Y0080908D01*
X0148906Y0080826D01*
X0148936Y0080742D01*
X0148961Y0080658D01*
X0148983Y0080572D01*
X0149000Y0080486D01*
X0149014Y0080398D01*
X0149024Y0080310D01*
X0149030Y0080222D01*
X0149032Y0080134D01*
X0149030Y0080046D01*
X0149024Y0079958D01*
X0149014Y0079870D01*
X0149000Y0079782D01*
X0148983Y0079696D01*
X0148961Y0079610D01*
X0148936Y0079526D01*
X0148906Y0079442D01*
X0148874Y0079360D01*
X0148837Y0079280D01*
X0148797Y0079201D01*
X0148753Y0079124D01*
X0148706Y0079049D01*
X0148656Y0078977D01*
X0148602Y0078906D01*
X0148546Y0078839D01*
X0148486Y0078773D01*
X0148424Y0078711D01*
X0148358Y0078651D01*
X0148291Y0078595D01*
X0148220Y0078541D01*
X0148148Y0078491D01*
X0148073Y0078444D01*
X0147996Y0078400D01*
X0147917Y0078360D01*
X0147837Y0078323D01*
X0147755Y0078291D01*
X0147671Y0078261D01*
X0147587Y0078236D01*
X0147501Y0078214D01*
X0147415Y0078197D01*
X0147327Y0078183D01*
X0147239Y0078173D01*
X0147151Y0078167D01*
X0147063Y0078165D01*
X0146975Y0078167D01*
X0146887Y0078173D01*
X0146799Y0078183D01*
X0146711Y0078197D01*
X0146625Y0078214D01*
X0146539Y0078236D01*
X0146455Y0078261D01*
X0146371Y0078291D01*
X0146289Y0078323D01*
X0146209Y0078360D01*
X0146130Y0078400D01*
X0146053Y0078444D01*
X0145978Y0078491D01*
X0145906Y0078541D01*
X0145835Y0078595D01*
X0145768Y0078651D01*
X0145702Y0078711D01*
X0145640Y0078773D01*
X0145580Y0078839D01*
X0145524Y0078906D01*
X0145470Y0078977D01*
X0145420Y0079049D01*
X0145373Y0079124D01*
X0145329Y0079201D01*
X0145289Y0079280D01*
X0145252Y0079360D01*
X0145220Y0079442D01*
X0145190Y0079526D01*
X0145165Y0079610D01*
X0145143Y0079696D01*
X0145126Y0079782D01*
X0145112Y0079870D01*
X0145102Y0079958D01*
X0145096Y0080046D01*
X0145094Y0080134D01*
D16*
X0137614Y0126591D03*
X0103362Y0128559D03*
X0142575Y0198874D03*
D17*
X0159989Y0098405D02*
X0159465Y0097881D01*
X0159465Y0096832D01*
X0159989Y0096308D01*
X0159465Y0095143D02*
X0162611Y0095143D01*
X0159465Y0093045D01*
X0162611Y0093045D01*
X0162087Y0091880D02*
X0162611Y0091356D01*
X0162611Y0090307D01*
X0162087Y0089783D01*
X0159989Y0089783D01*
X0159465Y0090307D01*
X0159465Y0091356D01*
X0159989Y0091880D01*
X0162611Y0096308D02*
X0160514Y0098405D01*
X0159989Y0098405D01*
X0162611Y0098405D02*
X0162611Y0096308D01*
M02*
