G75*
%MOIN*%
%OFA0B0*%
%FSLAX25Y25*%
%IPPOS*%
%LPD*%
%AMOC8*
5,1,8,0,0,1.08239X$1,22.5*
%
%ADD10C,0.00200*%
%ADD11C,0.00000*%
%ADD12C,0.00500*%
%ADD13C,0.00300*%
%ADD14C,0.01378*%
%ADD15R,0.01575X0.01575*%
%ADD16C,0.00400*%
D10*
X0102673Y0078265D02*
X0104837Y0078265D01*
X0104837Y0079708D01*
X0104837Y0080440D02*
X0103394Y0081883D01*
X0103034Y0081883D01*
X0102673Y0081522D01*
X0102673Y0080801D01*
X0103034Y0080440D01*
X0104837Y0080440D02*
X0104837Y0081883D01*
X0105565Y0086139D02*
X0106287Y0086139D01*
X0106647Y0086500D01*
X0107380Y0086139D02*
X0108822Y0086139D01*
X0108101Y0086139D02*
X0108101Y0088303D01*
X0107380Y0087582D01*
X0106647Y0087943D02*
X0106287Y0088303D01*
X0105565Y0088303D01*
X0105205Y0087943D01*
X0105205Y0086500D01*
X0105565Y0086139D01*
X0109555Y0086500D02*
X0110998Y0087943D01*
X0110998Y0086500D01*
X0110637Y0086139D01*
X0109916Y0086139D01*
X0109555Y0086500D01*
X0109555Y0087943D01*
X0109916Y0088303D01*
X0110637Y0088303D01*
X0110998Y0087943D01*
X0111563Y0095569D02*
X0109760Y0095569D01*
X0109760Y0097011D02*
X0111563Y0097011D01*
X0111924Y0096651D01*
X0111924Y0095929D01*
X0111563Y0095569D01*
X0111924Y0097744D02*
X0110481Y0099187D01*
X0110120Y0099187D01*
X0109760Y0098826D01*
X0109760Y0098104D01*
X0110120Y0097744D01*
X0111924Y0097744D02*
X0111924Y0099187D01*
X0121947Y0096998D02*
X0121947Y0095555D01*
X0122307Y0095194D01*
X0123029Y0095194D01*
X0123389Y0095555D01*
X0124122Y0095555D02*
X0125564Y0096998D01*
X0125564Y0097359D01*
X0124122Y0097359D01*
X0123389Y0096998D02*
X0123029Y0097359D01*
X0122307Y0097359D01*
X0121947Y0096998D01*
X0124122Y0095555D02*
X0124122Y0095194D01*
X0127065Y0095194D02*
X0127065Y0097359D01*
X0127065Y0095194D02*
X0128507Y0095194D01*
X0129240Y0095194D02*
X0130683Y0095194D01*
X0129961Y0095194D02*
X0129961Y0097359D01*
X0129240Y0096637D01*
X0132201Y0104250D02*
X0132201Y0105332D01*
X0132561Y0105692D01*
X0134004Y0105692D01*
X0134365Y0105332D01*
X0134365Y0104250D01*
X0132201Y0104250D01*
X0132201Y0106425D02*
X0133283Y0106425D01*
X0132922Y0107146D01*
X0132922Y0107507D01*
X0133283Y0107867D01*
X0134004Y0107867D01*
X0134365Y0107507D01*
X0134365Y0106785D01*
X0134004Y0106425D01*
X0132201Y0106425D02*
X0132201Y0107867D01*
X0127979Y0113305D02*
X0128340Y0113665D01*
X0128340Y0114026D01*
X0127979Y0114387D01*
X0126897Y0114387D01*
X0126897Y0113665D01*
X0127258Y0113305D01*
X0127979Y0113305D01*
X0126897Y0114387D02*
X0127618Y0115108D01*
X0128340Y0115469D01*
X0126165Y0115108D02*
X0125804Y0115469D01*
X0125083Y0115469D01*
X0124722Y0115108D01*
X0124722Y0113665D01*
X0125083Y0113305D01*
X0125804Y0113305D01*
X0126165Y0113665D01*
X0120446Y0113993D02*
X0119004Y0113993D01*
X0120086Y0115075D01*
X0120086Y0112911D01*
X0118271Y0113272D02*
X0117911Y0112911D01*
X0117189Y0112911D01*
X0116829Y0113272D01*
X0116829Y0114714D01*
X0117189Y0115075D01*
X0117911Y0115075D01*
X0118271Y0114714D01*
X0115328Y0114714D02*
X0115328Y0114354D01*
X0114968Y0113993D01*
X0115328Y0113632D01*
X0115328Y0113272D01*
X0114968Y0112911D01*
X0114246Y0112911D01*
X0113886Y0113272D01*
X0113153Y0113272D02*
X0112792Y0112911D01*
X0112071Y0112911D01*
X0111710Y0113272D01*
X0111710Y0114714D01*
X0112071Y0115075D01*
X0112792Y0115075D01*
X0113153Y0114714D01*
X0113886Y0114714D02*
X0114246Y0115075D01*
X0114968Y0115075D01*
X0115328Y0114714D01*
X0114968Y0113993D02*
X0114607Y0113993D01*
X0109317Y0112420D02*
X0108116Y0112420D01*
X0108716Y0112420D02*
X0108716Y0114222D01*
X0108116Y0113621D01*
X0107475Y0112420D02*
X0106274Y0112420D01*
X0106875Y0112420D02*
X0106875Y0114222D01*
X0106274Y0113621D01*
X0105634Y0113922D02*
X0105333Y0114222D01*
X0104733Y0114222D01*
X0104433Y0113922D01*
X0104433Y0112721D01*
X0104733Y0112420D01*
X0105333Y0112420D01*
X0105634Y0112721D01*
X0105824Y0131021D02*
X0106906Y0131021D01*
X0107267Y0131382D01*
X0107267Y0132825D01*
X0106906Y0133185D01*
X0105824Y0133185D01*
X0105824Y0131021D01*
X0107999Y0131382D02*
X0108360Y0131021D01*
X0109082Y0131021D01*
X0109442Y0131382D01*
X0109442Y0131743D01*
X0109082Y0132103D01*
X0107999Y0132103D01*
X0107999Y0131382D01*
X0107999Y0132103D02*
X0108721Y0132825D01*
X0109442Y0133185D01*
X0104476Y0139683D02*
X0104837Y0140043D01*
X0104837Y0140765D01*
X0104476Y0141125D01*
X0104837Y0141858D02*
X0103394Y0143300D01*
X0103034Y0143300D01*
X0102673Y0142940D01*
X0102673Y0142218D01*
X0103034Y0141858D01*
X0103034Y0141125D02*
X0102673Y0140765D01*
X0102673Y0140043D01*
X0103034Y0139683D01*
X0104476Y0139683D01*
X0104837Y0141858D02*
X0104837Y0143300D01*
X0103262Y0154643D02*
X0101098Y0156086D01*
X0101820Y0156818D02*
X0101098Y0157540D01*
X0103262Y0157540D01*
X0103262Y0158261D02*
X0103262Y0156818D01*
X0103262Y0156086D02*
X0101098Y0154643D01*
X0103034Y0169210D02*
X0104476Y0169210D01*
X0104837Y0169571D01*
X0104837Y0170292D01*
X0104476Y0170653D01*
X0104837Y0171385D02*
X0104837Y0172828D01*
X0104837Y0172107D02*
X0102673Y0172107D01*
X0103394Y0171385D01*
X0103034Y0170653D02*
X0102673Y0170292D01*
X0102673Y0169571D01*
X0103034Y0169210D01*
X0115665Y0178608D02*
X0115665Y0179592D01*
X0115993Y0179920D01*
X0117304Y0179920D01*
X0117632Y0179592D01*
X0117632Y0178608D01*
X0115665Y0178608D01*
X0116321Y0180602D02*
X0115665Y0181258D01*
X0117632Y0181258D01*
X0117632Y0180602D02*
X0117632Y0181914D01*
X0117632Y0184514D02*
X0117632Y0185497D01*
X0117304Y0185825D01*
X0115993Y0185825D01*
X0115665Y0185497D01*
X0115665Y0184514D01*
X0117632Y0184514D01*
X0117632Y0186508D02*
X0116321Y0187819D01*
X0115993Y0187819D01*
X0115665Y0187491D01*
X0115665Y0186836D01*
X0115993Y0186508D01*
X0117632Y0186508D02*
X0117632Y0187819D01*
X0117632Y0190419D02*
X0115665Y0190419D01*
X0115665Y0191403D01*
X0115993Y0191731D01*
X0117304Y0191731D01*
X0117632Y0191403D01*
X0117632Y0190419D01*
X0117304Y0192413D02*
X0117632Y0192741D01*
X0117632Y0193397D01*
X0117304Y0193725D01*
X0116977Y0193725D01*
X0116649Y0193397D01*
X0116649Y0193069D01*
X0116649Y0193397D02*
X0116321Y0193725D01*
X0115993Y0193725D01*
X0115665Y0193397D01*
X0115665Y0192741D01*
X0115993Y0192413D01*
X0115665Y0196325D02*
X0115665Y0197308D01*
X0115993Y0197636D01*
X0117304Y0197636D01*
X0117632Y0197308D01*
X0117632Y0196325D01*
X0115665Y0196325D01*
X0116649Y0198319D02*
X0115665Y0199302D01*
X0117632Y0199302D01*
X0116649Y0199630D02*
X0116649Y0198319D01*
X0128657Y0198005D02*
X0128657Y0196563D01*
X0129739Y0196563D01*
X0129379Y0197284D01*
X0129379Y0197645D01*
X0129739Y0198005D01*
X0130461Y0198005D01*
X0130821Y0197645D01*
X0130821Y0196923D01*
X0130461Y0196563D01*
X0130821Y0195830D02*
X0130100Y0195109D01*
X0130100Y0195470D02*
X0130100Y0194388D01*
X0130821Y0194388D02*
X0128657Y0194388D01*
X0128657Y0195470D01*
X0129018Y0195830D01*
X0129739Y0195830D01*
X0130100Y0195470D01*
X0129739Y0192494D02*
X0129739Y0191051D01*
X0128657Y0192133D01*
X0130821Y0192133D01*
X0130821Y0190319D02*
X0130100Y0189597D01*
X0130100Y0189958D02*
X0130100Y0188876D01*
X0130821Y0188876D02*
X0128657Y0188876D01*
X0128657Y0189958D01*
X0129018Y0190319D01*
X0129739Y0190319D01*
X0130100Y0189958D01*
X0130100Y0186982D02*
X0130461Y0186982D01*
X0130821Y0186621D01*
X0130821Y0185900D01*
X0130461Y0185539D01*
X0130821Y0184807D02*
X0130100Y0184085D01*
X0130100Y0184446D02*
X0130100Y0183364D01*
X0130821Y0183364D02*
X0128657Y0183364D01*
X0128657Y0184446D01*
X0129018Y0184807D01*
X0129739Y0184807D01*
X0130100Y0184446D01*
X0129018Y0185539D02*
X0128657Y0185900D01*
X0128657Y0186621D01*
X0129018Y0186982D01*
X0129379Y0186982D01*
X0129739Y0186621D01*
X0130100Y0186982D01*
X0129739Y0186621D02*
X0129739Y0186260D01*
X0129379Y0181864D02*
X0129018Y0181864D01*
X0128657Y0181503D01*
X0128657Y0180782D01*
X0129018Y0180421D01*
X0129018Y0179689D02*
X0129739Y0179689D01*
X0130100Y0179328D01*
X0130100Y0178246D01*
X0130100Y0178967D02*
X0130821Y0179689D01*
X0130821Y0180421D02*
X0129379Y0181864D01*
X0130821Y0181864D02*
X0130821Y0180421D01*
X0129018Y0179689D02*
X0128657Y0179328D01*
X0128657Y0178246D01*
X0130821Y0178246D01*
X0143030Y0180072D02*
X0143464Y0179639D01*
X0144331Y0179639D01*
X0144765Y0180072D01*
X0144765Y0182241D01*
X0145608Y0181807D02*
X0146042Y0182241D01*
X0146910Y0182241D01*
X0147343Y0181807D01*
X0147343Y0181373D01*
X0146910Y0180940D01*
X0147343Y0180506D01*
X0147343Y0180072D01*
X0146910Y0179639D01*
X0146042Y0179639D01*
X0145608Y0180072D01*
X0146476Y0180940D02*
X0146910Y0180940D01*
X0143030Y0180072D02*
X0143030Y0182241D01*
X0153443Y0182792D02*
X0153443Y0180628D01*
X0153443Y0181349D02*
X0154525Y0181349D01*
X0154885Y0181710D01*
X0154885Y0182431D01*
X0154525Y0182792D01*
X0153443Y0182792D01*
X0154164Y0181349D02*
X0154885Y0180628D01*
X0155618Y0180988D02*
X0155978Y0180628D01*
X0156700Y0180628D01*
X0157061Y0180988D01*
X0157061Y0182431D01*
X0156700Y0182792D01*
X0155978Y0182792D01*
X0155618Y0182431D01*
X0155618Y0182070D01*
X0155978Y0181710D01*
X0157061Y0181710D01*
X0156752Y0192832D02*
X0156752Y0194996D01*
X0156031Y0194275D01*
X0155299Y0194636D02*
X0154938Y0194996D01*
X0154217Y0194996D01*
X0153856Y0194636D01*
X0153856Y0193193D01*
X0154217Y0192832D01*
X0154938Y0192832D01*
X0155299Y0193193D01*
X0156031Y0192832D02*
X0157474Y0192832D01*
X0158206Y0192832D02*
X0159649Y0194275D01*
X0159649Y0194636D01*
X0159288Y0194996D01*
X0158567Y0194996D01*
X0158206Y0194636D01*
X0158206Y0192832D02*
X0159649Y0192832D01*
X0164846Y0201100D02*
X0164486Y0201461D01*
X0164846Y0201100D02*
X0165568Y0201100D01*
X0165929Y0201461D01*
X0165929Y0201821D01*
X0165568Y0202182D01*
X0164846Y0202182D01*
X0164486Y0202543D01*
X0164486Y0202903D01*
X0164846Y0203264D01*
X0165568Y0203264D01*
X0165929Y0202903D01*
X0166661Y0203264D02*
X0166661Y0201100D01*
X0167382Y0201821D01*
X0168104Y0201100D01*
X0168104Y0203264D01*
X0168836Y0202543D02*
X0169557Y0203264D01*
X0169557Y0201100D01*
X0168836Y0201100D02*
X0170279Y0201100D01*
X0153537Y0201067D02*
X0153176Y0200706D01*
X0152455Y0200706D01*
X0152094Y0201067D01*
X0152094Y0201428D01*
X0152455Y0201788D01*
X0153176Y0201788D01*
X0153537Y0201428D01*
X0153537Y0201067D01*
X0153176Y0201788D02*
X0153537Y0202149D01*
X0153537Y0202510D01*
X0153176Y0202870D01*
X0152455Y0202870D01*
X0152094Y0202510D01*
X0152094Y0202149D01*
X0152455Y0201788D01*
X0151362Y0201788D02*
X0151001Y0201428D01*
X0149919Y0201428D01*
X0150640Y0201428D02*
X0151362Y0200706D01*
X0151362Y0201788D02*
X0151362Y0202510D01*
X0151001Y0202870D01*
X0149919Y0202870D01*
X0149919Y0200706D01*
X0139089Y0199338D02*
X0138728Y0199338D01*
X0137286Y0200781D01*
X0136925Y0200781D01*
X0136925Y0199338D01*
X0137286Y0198606D02*
X0138007Y0198606D01*
X0138368Y0198245D01*
X0138368Y0197163D01*
X0139089Y0197163D02*
X0136925Y0197163D01*
X0136925Y0198245D01*
X0137286Y0198606D01*
X0138368Y0197884D02*
X0139089Y0198606D01*
X0135152Y0198606D02*
X0134431Y0197884D01*
X0134431Y0198245D02*
X0134431Y0197163D01*
X0135152Y0197163D02*
X0132988Y0197163D01*
X0132988Y0198245D01*
X0133349Y0198606D01*
X0134070Y0198606D01*
X0134431Y0198245D01*
X0134791Y0199338D02*
X0135152Y0199699D01*
X0135152Y0200420D01*
X0134791Y0200781D01*
X0134431Y0200781D01*
X0134070Y0200420D01*
X0134070Y0199338D01*
X0134791Y0199338D01*
X0134070Y0199338D02*
X0133349Y0200059D01*
X0132988Y0200781D01*
X0140076Y0131217D02*
X0141158Y0131217D01*
X0141519Y0130856D01*
X0141519Y0129413D01*
X0141158Y0129053D01*
X0140076Y0129053D01*
X0140076Y0131217D01*
X0142251Y0131217D02*
X0143694Y0131217D01*
X0143694Y0130856D01*
X0142251Y0129413D01*
X0142251Y0129053D01*
X0145980Y0121253D02*
X0145980Y0119811D01*
X0147062Y0119811D01*
X0146701Y0120532D01*
X0146701Y0120893D01*
X0147062Y0121253D01*
X0147783Y0121253D01*
X0148144Y0120893D01*
X0148144Y0120171D01*
X0147783Y0119811D01*
X0147783Y0119078D02*
X0148144Y0118717D01*
X0148144Y0117996D01*
X0147783Y0117635D01*
X0146341Y0117635D01*
X0145980Y0117996D01*
X0145980Y0118717D01*
X0146341Y0119078D01*
X0149490Y0111804D02*
X0149851Y0111804D01*
X0150212Y0111444D01*
X0150212Y0110722D01*
X0149851Y0110362D01*
X0149490Y0110362D01*
X0149130Y0110722D01*
X0149130Y0111444D01*
X0149490Y0111804D01*
X0150212Y0111444D02*
X0150572Y0111804D01*
X0150933Y0111804D01*
X0151294Y0111444D01*
X0151294Y0110722D01*
X0150933Y0110362D01*
X0150572Y0110362D01*
X0150212Y0110722D01*
X0150933Y0109629D02*
X0151294Y0109269D01*
X0151294Y0108547D01*
X0150933Y0108187D01*
X0149490Y0108187D01*
X0149130Y0108547D01*
X0149130Y0109269D01*
X0149490Y0109629D01*
X0158185Y0103550D02*
X0158185Y0102829D01*
X0158545Y0102468D01*
X0158906Y0102468D01*
X0159267Y0102829D01*
X0159267Y0103911D01*
X0159988Y0103911D02*
X0158545Y0103911D01*
X0158185Y0103550D01*
X0159988Y0103911D02*
X0160349Y0103550D01*
X0160349Y0102829D01*
X0159988Y0102468D01*
X0159988Y0101736D02*
X0160349Y0101375D01*
X0160349Y0100654D01*
X0159988Y0100293D01*
X0158545Y0100293D01*
X0158185Y0100654D01*
X0158185Y0101375D01*
X0158545Y0101736D01*
X0172358Y0101316D02*
X0172358Y0100431D01*
X0174128Y0100431D01*
X0174128Y0101316D01*
X0173833Y0101611D01*
X0172653Y0101611D01*
X0172358Y0101316D01*
X0172653Y0099799D02*
X0172358Y0099504D01*
X0172358Y0098619D01*
X0174128Y0098619D01*
X0174128Y0099504D01*
X0173833Y0099799D01*
X0172653Y0099799D01*
X0172358Y0097986D02*
X0173538Y0097986D01*
X0174128Y0097396D01*
X0173538Y0096806D01*
X0172358Y0096806D01*
X0172653Y0091769D02*
X0172358Y0091474D01*
X0172358Y0090589D01*
X0174128Y0090589D01*
X0174128Y0091474D01*
X0173833Y0091769D01*
X0172653Y0091769D01*
X0172358Y0089956D02*
X0174128Y0089956D01*
X0172358Y0088776D01*
X0174128Y0088776D01*
X0173833Y0088144D02*
X0173243Y0088144D01*
X0173243Y0087554D01*
X0172653Y0088144D02*
X0172358Y0087849D01*
X0172358Y0087259D01*
X0172653Y0086964D01*
X0173833Y0086964D01*
X0174128Y0087259D01*
X0174128Y0087849D01*
X0173833Y0088144D01*
X0172980Y0081076D02*
X0173341Y0080716D01*
X0173341Y0079994D01*
X0172980Y0079634D01*
X0173341Y0078901D02*
X0173341Y0077458D01*
X0171177Y0077458D01*
X0171538Y0079634D02*
X0171177Y0079994D01*
X0171177Y0080716D01*
X0171538Y0081076D01*
X0171898Y0081076D01*
X0172259Y0080716D01*
X0172620Y0081076D01*
X0172980Y0081076D01*
X0172259Y0080716D02*
X0172259Y0080355D01*
X0169557Y0073736D02*
X0169557Y0071572D01*
X0168836Y0071572D02*
X0170279Y0071572D01*
X0168836Y0073015D02*
X0169557Y0073736D01*
X0168104Y0073736D02*
X0168104Y0071572D01*
X0166661Y0073736D01*
X0166661Y0071572D01*
X0165929Y0071933D02*
X0165568Y0071572D01*
X0164846Y0071572D01*
X0164486Y0071933D01*
X0164486Y0073376D01*
X0164846Y0073736D01*
X0165568Y0073736D01*
X0165929Y0073376D01*
X0172358Y0107345D02*
X0172358Y0108230D01*
X0172653Y0108525D01*
X0173243Y0108525D01*
X0173538Y0108230D01*
X0173538Y0107345D01*
X0174128Y0107345D02*
X0172358Y0107345D01*
X0172358Y0109157D02*
X0172358Y0109747D01*
X0172358Y0109452D02*
X0174128Y0109452D01*
X0174128Y0109157D02*
X0174128Y0109747D01*
X0173833Y0110366D02*
X0172653Y0110366D01*
X0172358Y0110661D01*
X0172358Y0111251D01*
X0172653Y0111546D01*
X0173833Y0111546D01*
X0174128Y0111251D01*
X0174128Y0110661D01*
X0173833Y0110366D01*
X0173538Y0115979D02*
X0173538Y0116864D01*
X0173243Y0117159D01*
X0172653Y0117159D01*
X0172358Y0116864D01*
X0172358Y0115979D01*
X0174128Y0115979D01*
X0173833Y0117791D02*
X0174128Y0118086D01*
X0174128Y0118676D01*
X0173833Y0118971D01*
X0174128Y0119604D02*
X0174128Y0120784D01*
X0174128Y0121416D02*
X0172358Y0121416D01*
X0173243Y0121711D02*
X0174128Y0122596D01*
X0173538Y0121416D02*
X0172358Y0122596D01*
X0172358Y0119604D02*
X0174128Y0119604D01*
X0172653Y0118971D02*
X0172358Y0118676D01*
X0172358Y0118086D01*
X0172653Y0117791D01*
X0173833Y0117791D01*
X0172358Y0127121D02*
X0172358Y0128301D01*
X0172358Y0127711D02*
X0174128Y0127711D01*
X0174128Y0128934D02*
X0172358Y0130114D01*
X0172358Y0130746D02*
X0172358Y0131631D01*
X0172653Y0131926D01*
X0173833Y0131926D01*
X0174128Y0131631D01*
X0174128Y0130746D01*
X0172358Y0130746D01*
X0172358Y0128934D02*
X0174128Y0130114D01*
X0162985Y0125509D02*
X0161543Y0125509D01*
X0162264Y0125509D02*
X0162264Y0127673D01*
X0161543Y0126952D01*
X0160810Y0127313D02*
X0160810Y0126591D01*
X0160450Y0126231D01*
X0159368Y0126231D01*
X0160089Y0126231D02*
X0160810Y0125509D01*
X0159368Y0125509D02*
X0159368Y0127673D01*
X0160450Y0127673D01*
X0160810Y0127313D01*
D11*
X0001000Y0001000D02*
X0001000Y0274622D01*
X0274622Y0274622D01*
X0274622Y0001000D01*
X0001000Y0001000D01*
X0001000Y0069898D02*
X0274622Y0069898D01*
X0176197Y0001000D02*
X0176197Y0274622D01*
X0099425Y0274622D02*
X0099425Y0001000D01*
X0126984Y0079740D02*
X0126986Y0079828D01*
X0126992Y0079916D01*
X0127002Y0080004D01*
X0127016Y0080092D01*
X0127033Y0080178D01*
X0127055Y0080264D01*
X0127080Y0080348D01*
X0127110Y0080432D01*
X0127142Y0080514D01*
X0127179Y0080594D01*
X0127219Y0080673D01*
X0127263Y0080750D01*
X0127310Y0080825D01*
X0127360Y0080897D01*
X0127414Y0080968D01*
X0127470Y0081035D01*
X0127530Y0081101D01*
X0127592Y0081163D01*
X0127658Y0081223D01*
X0127725Y0081279D01*
X0127796Y0081333D01*
X0127868Y0081383D01*
X0127943Y0081430D01*
X0128020Y0081474D01*
X0128099Y0081514D01*
X0128179Y0081551D01*
X0128261Y0081583D01*
X0128345Y0081613D01*
X0128429Y0081638D01*
X0128515Y0081660D01*
X0128601Y0081677D01*
X0128689Y0081691D01*
X0128777Y0081701D01*
X0128865Y0081707D01*
X0128953Y0081709D01*
X0129041Y0081707D01*
X0129129Y0081701D01*
X0129217Y0081691D01*
X0129305Y0081677D01*
X0129391Y0081660D01*
X0129477Y0081638D01*
X0129561Y0081613D01*
X0129645Y0081583D01*
X0129727Y0081551D01*
X0129807Y0081514D01*
X0129886Y0081474D01*
X0129963Y0081430D01*
X0130038Y0081383D01*
X0130110Y0081333D01*
X0130181Y0081279D01*
X0130248Y0081223D01*
X0130314Y0081163D01*
X0130376Y0081101D01*
X0130436Y0081035D01*
X0130492Y0080968D01*
X0130546Y0080897D01*
X0130596Y0080825D01*
X0130643Y0080750D01*
X0130687Y0080673D01*
X0130727Y0080594D01*
X0130764Y0080514D01*
X0130796Y0080432D01*
X0130826Y0080348D01*
X0130851Y0080264D01*
X0130873Y0080178D01*
X0130890Y0080092D01*
X0130904Y0080004D01*
X0130914Y0079916D01*
X0130920Y0079828D01*
X0130922Y0079740D01*
X0130920Y0079652D01*
X0130914Y0079564D01*
X0130904Y0079476D01*
X0130890Y0079388D01*
X0130873Y0079302D01*
X0130851Y0079216D01*
X0130826Y0079132D01*
X0130796Y0079048D01*
X0130764Y0078966D01*
X0130727Y0078886D01*
X0130687Y0078807D01*
X0130643Y0078730D01*
X0130596Y0078655D01*
X0130546Y0078583D01*
X0130492Y0078512D01*
X0130436Y0078445D01*
X0130376Y0078379D01*
X0130314Y0078317D01*
X0130248Y0078257D01*
X0130181Y0078201D01*
X0130110Y0078147D01*
X0130038Y0078097D01*
X0129963Y0078050D01*
X0129886Y0078006D01*
X0129807Y0077966D01*
X0129727Y0077929D01*
X0129645Y0077897D01*
X0129561Y0077867D01*
X0129477Y0077842D01*
X0129391Y0077820D01*
X0129305Y0077803D01*
X0129217Y0077789D01*
X0129129Y0077779D01*
X0129041Y0077773D01*
X0128953Y0077771D01*
X0128865Y0077773D01*
X0128777Y0077779D01*
X0128689Y0077789D01*
X0128601Y0077803D01*
X0128515Y0077820D01*
X0128429Y0077842D01*
X0128345Y0077867D01*
X0128261Y0077897D01*
X0128179Y0077929D01*
X0128099Y0077966D01*
X0128020Y0078006D01*
X0127943Y0078050D01*
X0127868Y0078097D01*
X0127796Y0078147D01*
X0127725Y0078201D01*
X0127658Y0078257D01*
X0127592Y0078317D01*
X0127530Y0078379D01*
X0127470Y0078445D01*
X0127414Y0078512D01*
X0127360Y0078583D01*
X0127310Y0078655D01*
X0127263Y0078730D01*
X0127219Y0078807D01*
X0127179Y0078886D01*
X0127142Y0078966D01*
X0127110Y0079048D01*
X0127080Y0079132D01*
X0127055Y0079216D01*
X0127033Y0079302D01*
X0127016Y0079388D01*
X0127002Y0079476D01*
X0126992Y0079564D01*
X0126986Y0079652D01*
X0126984Y0079740D01*
X0144700Y0079740D02*
X0144702Y0079828D01*
X0144708Y0079916D01*
X0144718Y0080004D01*
X0144732Y0080092D01*
X0144749Y0080178D01*
X0144771Y0080264D01*
X0144796Y0080348D01*
X0144826Y0080432D01*
X0144858Y0080514D01*
X0144895Y0080594D01*
X0144935Y0080673D01*
X0144979Y0080750D01*
X0145026Y0080825D01*
X0145076Y0080897D01*
X0145130Y0080968D01*
X0145186Y0081035D01*
X0145246Y0081101D01*
X0145308Y0081163D01*
X0145374Y0081223D01*
X0145441Y0081279D01*
X0145512Y0081333D01*
X0145584Y0081383D01*
X0145659Y0081430D01*
X0145736Y0081474D01*
X0145815Y0081514D01*
X0145895Y0081551D01*
X0145977Y0081583D01*
X0146061Y0081613D01*
X0146145Y0081638D01*
X0146231Y0081660D01*
X0146317Y0081677D01*
X0146405Y0081691D01*
X0146493Y0081701D01*
X0146581Y0081707D01*
X0146669Y0081709D01*
X0146757Y0081707D01*
X0146845Y0081701D01*
X0146933Y0081691D01*
X0147021Y0081677D01*
X0147107Y0081660D01*
X0147193Y0081638D01*
X0147277Y0081613D01*
X0147361Y0081583D01*
X0147443Y0081551D01*
X0147523Y0081514D01*
X0147602Y0081474D01*
X0147679Y0081430D01*
X0147754Y0081383D01*
X0147826Y0081333D01*
X0147897Y0081279D01*
X0147964Y0081223D01*
X0148030Y0081163D01*
X0148092Y0081101D01*
X0148152Y0081035D01*
X0148208Y0080968D01*
X0148262Y0080897D01*
X0148312Y0080825D01*
X0148359Y0080750D01*
X0148403Y0080673D01*
X0148443Y0080594D01*
X0148480Y0080514D01*
X0148512Y0080432D01*
X0148542Y0080348D01*
X0148567Y0080264D01*
X0148589Y0080178D01*
X0148606Y0080092D01*
X0148620Y0080004D01*
X0148630Y0079916D01*
X0148636Y0079828D01*
X0148638Y0079740D01*
X0148636Y0079652D01*
X0148630Y0079564D01*
X0148620Y0079476D01*
X0148606Y0079388D01*
X0148589Y0079302D01*
X0148567Y0079216D01*
X0148542Y0079132D01*
X0148512Y0079048D01*
X0148480Y0078966D01*
X0148443Y0078886D01*
X0148403Y0078807D01*
X0148359Y0078730D01*
X0148312Y0078655D01*
X0148262Y0078583D01*
X0148208Y0078512D01*
X0148152Y0078445D01*
X0148092Y0078379D01*
X0148030Y0078317D01*
X0147964Y0078257D01*
X0147897Y0078201D01*
X0147826Y0078147D01*
X0147754Y0078097D01*
X0147679Y0078050D01*
X0147602Y0078006D01*
X0147523Y0077966D01*
X0147443Y0077929D01*
X0147361Y0077897D01*
X0147277Y0077867D01*
X0147193Y0077842D01*
X0147107Y0077820D01*
X0147021Y0077803D01*
X0146933Y0077789D01*
X0146845Y0077779D01*
X0146757Y0077773D01*
X0146669Y0077771D01*
X0146581Y0077773D01*
X0146493Y0077779D01*
X0146405Y0077789D01*
X0146317Y0077803D01*
X0146231Y0077820D01*
X0146145Y0077842D01*
X0146061Y0077867D01*
X0145977Y0077897D01*
X0145895Y0077929D01*
X0145815Y0077966D01*
X0145736Y0078006D01*
X0145659Y0078050D01*
X0145584Y0078097D01*
X0145512Y0078147D01*
X0145441Y0078201D01*
X0145374Y0078257D01*
X0145308Y0078317D01*
X0145246Y0078379D01*
X0145186Y0078445D01*
X0145130Y0078512D01*
X0145076Y0078583D01*
X0145026Y0078655D01*
X0144979Y0078730D01*
X0144935Y0078807D01*
X0144895Y0078886D01*
X0144858Y0078966D01*
X0144826Y0079048D01*
X0144796Y0079132D01*
X0144771Y0079216D01*
X0144749Y0079302D01*
X0144732Y0079388D01*
X0144718Y0079476D01*
X0144708Y0079564D01*
X0144702Y0079652D01*
X0144700Y0079740D01*
X0274622Y0205724D02*
X0001000Y0205724D01*
D12*
X0103756Y0200606D02*
X0103756Y0195882D01*
X0114780Y0195882D01*
X0114780Y0200606D01*
X0103756Y0200606D01*
X0103756Y0194701D02*
X0103756Y0189976D01*
X0114780Y0189976D01*
X0114780Y0194701D01*
X0103756Y0194701D01*
X0103756Y0188795D02*
X0103756Y0184071D01*
X0114780Y0184071D01*
X0114780Y0188795D01*
X0103756Y0188795D01*
X0103756Y0182890D02*
X0103756Y0178165D01*
X0114780Y0178165D01*
X0114780Y0182890D01*
X0103756Y0182890D01*
X0114583Y0176394D02*
X0175606Y0176394D01*
X0175606Y0135055D01*
X0114583Y0135055D01*
X0114583Y0176394D01*
X0153406Y0120542D02*
X0153406Y0114243D01*
X0154587Y0117393D02*
X0154589Y0117481D01*
X0154595Y0117569D01*
X0154605Y0117657D01*
X0154619Y0117745D01*
X0154636Y0117831D01*
X0154658Y0117917D01*
X0154683Y0118001D01*
X0154713Y0118085D01*
X0154745Y0118167D01*
X0154782Y0118247D01*
X0154822Y0118326D01*
X0154866Y0118403D01*
X0154913Y0118478D01*
X0154963Y0118550D01*
X0155017Y0118621D01*
X0155073Y0118688D01*
X0155133Y0118754D01*
X0155195Y0118816D01*
X0155261Y0118876D01*
X0155328Y0118932D01*
X0155399Y0118986D01*
X0155471Y0119036D01*
X0155546Y0119083D01*
X0155623Y0119127D01*
X0155702Y0119167D01*
X0155782Y0119204D01*
X0155864Y0119236D01*
X0155948Y0119266D01*
X0156032Y0119291D01*
X0156118Y0119313D01*
X0156204Y0119330D01*
X0156292Y0119344D01*
X0156380Y0119354D01*
X0156468Y0119360D01*
X0156556Y0119362D01*
X0156644Y0119360D01*
X0156732Y0119354D01*
X0156820Y0119344D01*
X0156908Y0119330D01*
X0156994Y0119313D01*
X0157080Y0119291D01*
X0157164Y0119266D01*
X0157248Y0119236D01*
X0157330Y0119204D01*
X0157410Y0119167D01*
X0157489Y0119127D01*
X0157566Y0119083D01*
X0157641Y0119036D01*
X0157713Y0118986D01*
X0157784Y0118932D01*
X0157851Y0118876D01*
X0157917Y0118816D01*
X0157979Y0118754D01*
X0158039Y0118688D01*
X0158095Y0118621D01*
X0158149Y0118550D01*
X0158199Y0118478D01*
X0158246Y0118403D01*
X0158290Y0118326D01*
X0158330Y0118247D01*
X0158367Y0118167D01*
X0158399Y0118085D01*
X0158429Y0118001D01*
X0158454Y0117917D01*
X0158476Y0117831D01*
X0158493Y0117745D01*
X0158507Y0117657D01*
X0158517Y0117569D01*
X0158523Y0117481D01*
X0158525Y0117393D01*
X0158523Y0117305D01*
X0158517Y0117217D01*
X0158507Y0117129D01*
X0158493Y0117041D01*
X0158476Y0116955D01*
X0158454Y0116869D01*
X0158429Y0116785D01*
X0158399Y0116701D01*
X0158367Y0116619D01*
X0158330Y0116539D01*
X0158290Y0116460D01*
X0158246Y0116383D01*
X0158199Y0116308D01*
X0158149Y0116236D01*
X0158095Y0116165D01*
X0158039Y0116098D01*
X0157979Y0116032D01*
X0157917Y0115970D01*
X0157851Y0115910D01*
X0157784Y0115854D01*
X0157713Y0115800D01*
X0157641Y0115750D01*
X0157566Y0115703D01*
X0157489Y0115659D01*
X0157410Y0115619D01*
X0157330Y0115582D01*
X0157248Y0115550D01*
X0157164Y0115520D01*
X0157080Y0115495D01*
X0156994Y0115473D01*
X0156908Y0115456D01*
X0156820Y0115442D01*
X0156732Y0115432D01*
X0156644Y0115426D01*
X0156556Y0115424D01*
X0156468Y0115426D01*
X0156380Y0115432D01*
X0156292Y0115442D01*
X0156204Y0115456D01*
X0156118Y0115473D01*
X0156032Y0115495D01*
X0155948Y0115520D01*
X0155864Y0115550D01*
X0155782Y0115582D01*
X0155702Y0115619D01*
X0155623Y0115659D01*
X0155546Y0115703D01*
X0155471Y0115750D01*
X0155399Y0115800D01*
X0155328Y0115854D01*
X0155261Y0115910D01*
X0155195Y0115970D01*
X0155133Y0116032D01*
X0155073Y0116098D01*
X0155017Y0116165D01*
X0154963Y0116236D01*
X0154913Y0116308D01*
X0154866Y0116383D01*
X0154822Y0116460D01*
X0154782Y0116539D01*
X0154745Y0116619D01*
X0154713Y0116701D01*
X0154683Y0116785D01*
X0154658Y0116869D01*
X0154636Y0116955D01*
X0154619Y0117041D01*
X0154605Y0117129D01*
X0154595Y0117217D01*
X0154589Y0117305D01*
X0154587Y0117393D01*
X0159706Y0120542D02*
X0159706Y0114243D01*
D13*
X0160609Y0114880D02*
X0160953Y0114536D01*
X0161297Y0114536D01*
X0161641Y0114880D01*
X0161641Y0115568D01*
X0161985Y0115912D01*
X0162329Y0115912D01*
X0162673Y0115568D01*
X0162673Y0114880D01*
X0162329Y0114536D01*
X0160609Y0114880D02*
X0160609Y0115568D01*
X0160953Y0115912D01*
X0160609Y0116711D02*
X0162673Y0116711D01*
X0161985Y0117399D01*
X0162673Y0118087D01*
X0160609Y0118087D01*
X0160953Y0118886D02*
X0160609Y0119230D01*
X0160609Y0119918D01*
X0160953Y0120262D01*
X0161297Y0120262D01*
X0162673Y0118886D01*
X0162673Y0120262D01*
X0139384Y0178301D02*
X0137220Y0178301D01*
X0138302Y0178301D02*
X0138302Y0181547D01*
X0137220Y0180465D01*
X0136122Y0181547D02*
X0136122Y0178842D01*
X0135581Y0178301D01*
X0134499Y0178301D01*
X0133958Y0178842D01*
X0133958Y0181547D01*
D14*
X0108480Y0156512D03*
D15*
X0102969Y0128165D03*
X0137220Y0126197D03*
X0142181Y0198480D03*
D16*
X0159989Y0097618D02*
X0159465Y0097094D01*
X0159465Y0096045D01*
X0159989Y0095521D01*
X0159465Y0094355D02*
X0162611Y0094355D01*
X0159465Y0092258D01*
X0162611Y0092258D01*
X0162087Y0091093D02*
X0162611Y0090568D01*
X0162611Y0089520D01*
X0162087Y0088995D01*
X0159989Y0088995D01*
X0159465Y0089520D01*
X0159465Y0090568D01*
X0159989Y0091093D01*
X0162611Y0095521D02*
X0160514Y0097618D01*
X0159989Y0097618D01*
X0162611Y0097618D02*
X0162611Y0095521D01*
M02*
