G75*
%MOIN*%
%OFA0B0*%
%FSLAX25Y25*%
%IPPOS*%
%LPD*%
%AMOC8*
5,1,8,0,0,1.08239X$1,22.5*
%
%ADD10C,0.00787*%
%ADD11R,0.01575X0.02362*%
%ADD12R,0.02362X0.01575*%
%ADD13R,0.07480X0.04331*%
%ADD14R,0.03543X0.04528*%
%ADD15R,0.02756X0.03642*%
%ADD16R,0.03642X0.02756*%
%ADD17R,0.03937X0.05669*%
%ADD18R,0.04724X0.05669*%
%ADD19C,0.06600*%
%ADD20C,0.00000*%
%ADD21R,0.04724X0.07874*%
%ADD22R,0.03150X0.02756*%
%ADD23R,0.02559X0.04134*%
%ADD24R,0.02165X0.02165*%
%ADD25R,0.03937X0.05512*%
%ADD26R,0.04528X0.03543*%
%ADD27R,0.04724X0.03937*%
%ADD28R,0.03150X0.03150*%
%ADD29R,0.03150X0.01969*%
%ADD30R,0.02756X0.03150*%
%ADD31R,0.06500X0.06500*%
%ADD32C,0.06500*%
%ADD33C,0.03937*%
%ADD34C,0.01600*%
%ADD35C,0.00800*%
%ADD36C,0.01200*%
%ADD37C,0.02381*%
%ADD38C,0.00600*%
D10*
X0001394Y0001394D02*
X0001394Y0275016D01*
X0275016Y0275016D01*
X0275016Y0001394D01*
X0001394Y0001394D01*
X0001394Y0070291D02*
X0275016Y0070291D01*
X0176591Y0001394D02*
X0176591Y0275016D01*
X0099819Y0275016D02*
X0099819Y0001394D01*
X0001394Y0206118D02*
X0275016Y0206118D01*
D11*
X0160252Y0174425D03*
X0155921Y0174425D03*
X0152772Y0174425D03*
X0146472Y0174425D03*
X0143323Y0174425D03*
X0140173Y0174425D03*
X0137024Y0174425D03*
X0133874Y0174425D03*
X0130724Y0174425D03*
X0132299Y0170882D03*
X0135449Y0170882D03*
X0138598Y0170882D03*
X0141748Y0170882D03*
X0144898Y0170882D03*
X0144898Y0141354D03*
X0148047Y0141354D03*
X0151197Y0141354D03*
X0154346Y0141354D03*
X0157496Y0141354D03*
X0155921Y0137811D03*
X0152772Y0137811D03*
X0160252Y0137811D03*
X0146472Y0137811D03*
X0143323Y0137811D03*
X0140173Y0137811D03*
X0138598Y0141354D03*
X0135449Y0141354D03*
X0132299Y0141354D03*
X0129150Y0141354D03*
X0126000Y0141354D03*
X0124425Y0137811D03*
X0127575Y0137811D03*
X0130724Y0137811D03*
X0133874Y0137811D03*
X0141748Y0141354D03*
X0121276Y0137811D03*
D12*
X0117339Y0137220D03*
X0117339Y0140370D03*
X0117339Y0143520D03*
X0117339Y0146669D03*
X0117339Y0149819D03*
X0117339Y0152969D03*
X0117339Y0156118D03*
X0117339Y0159268D03*
X0117339Y0162417D03*
X0117339Y0165567D03*
X0120882Y0163992D03*
X0120882Y0160843D03*
X0120882Y0157693D03*
X0120882Y0154543D03*
X0120882Y0151394D03*
X0120882Y0148244D03*
X0117339Y0168717D03*
X0117339Y0171866D03*
X0117339Y0175016D03*
X0143323Y0163992D03*
X0143323Y0160843D03*
X0143323Y0157693D03*
X0143323Y0154543D03*
X0143323Y0151394D03*
X0143323Y0148244D03*
D13*
X0108874Y0151984D03*
X0108874Y0161827D03*
D14*
X0108480Y0167437D03*
X0108480Y0174720D03*
X0108480Y0145587D03*
X0108480Y0138303D03*
X0114386Y0126295D03*
X0119504Y0126295D03*
X0119504Y0119012D03*
X0114386Y0119012D03*
X0106901Y0109031D03*
X0106901Y0101748D03*
X0155331Y0099327D03*
X0155331Y0106610D03*
D15*
X0150606Y0105528D03*
X0150606Y0100409D03*
X0151394Y0117339D03*
X0151394Y0122457D03*
X0129740Y0106315D03*
X0124622Y0106315D03*
X0124622Y0101197D03*
X0129740Y0101197D03*
X0108087Y0082693D03*
X0108087Y0077575D03*
X0168323Y0077575D03*
X0168323Y0082693D03*
D16*
X0129543Y0110843D03*
X0124425Y0110843D03*
X0153165Y0190370D03*
X0158283Y0190370D03*
D17*
X0138205Y0109268D03*
X0138205Y0100606D03*
X0145685Y0100606D03*
D18*
X0144898Y0109268D03*
D19*
X0160646Y0083434D02*
X0160646Y0076834D01*
X0115764Y0076834D02*
X0115764Y0083434D01*
D20*
X0127377Y0080134D02*
X0127379Y0080222D01*
X0127385Y0080310D01*
X0127395Y0080398D01*
X0127409Y0080486D01*
X0127426Y0080572D01*
X0127448Y0080658D01*
X0127473Y0080742D01*
X0127503Y0080826D01*
X0127535Y0080908D01*
X0127572Y0080988D01*
X0127612Y0081067D01*
X0127656Y0081144D01*
X0127703Y0081219D01*
X0127753Y0081291D01*
X0127807Y0081362D01*
X0127863Y0081429D01*
X0127923Y0081495D01*
X0127985Y0081557D01*
X0128051Y0081617D01*
X0128118Y0081673D01*
X0128189Y0081727D01*
X0128261Y0081777D01*
X0128336Y0081824D01*
X0128413Y0081868D01*
X0128492Y0081908D01*
X0128572Y0081945D01*
X0128654Y0081977D01*
X0128738Y0082007D01*
X0128822Y0082032D01*
X0128908Y0082054D01*
X0128994Y0082071D01*
X0129082Y0082085D01*
X0129170Y0082095D01*
X0129258Y0082101D01*
X0129346Y0082103D01*
X0129434Y0082101D01*
X0129522Y0082095D01*
X0129610Y0082085D01*
X0129698Y0082071D01*
X0129784Y0082054D01*
X0129870Y0082032D01*
X0129954Y0082007D01*
X0130038Y0081977D01*
X0130120Y0081945D01*
X0130200Y0081908D01*
X0130279Y0081868D01*
X0130356Y0081824D01*
X0130431Y0081777D01*
X0130503Y0081727D01*
X0130574Y0081673D01*
X0130641Y0081617D01*
X0130707Y0081557D01*
X0130769Y0081495D01*
X0130829Y0081429D01*
X0130885Y0081362D01*
X0130939Y0081291D01*
X0130989Y0081219D01*
X0131036Y0081144D01*
X0131080Y0081067D01*
X0131120Y0080988D01*
X0131157Y0080908D01*
X0131189Y0080826D01*
X0131219Y0080742D01*
X0131244Y0080658D01*
X0131266Y0080572D01*
X0131283Y0080486D01*
X0131297Y0080398D01*
X0131307Y0080310D01*
X0131313Y0080222D01*
X0131315Y0080134D01*
X0131313Y0080046D01*
X0131307Y0079958D01*
X0131297Y0079870D01*
X0131283Y0079782D01*
X0131266Y0079696D01*
X0131244Y0079610D01*
X0131219Y0079526D01*
X0131189Y0079442D01*
X0131157Y0079360D01*
X0131120Y0079280D01*
X0131080Y0079201D01*
X0131036Y0079124D01*
X0130989Y0079049D01*
X0130939Y0078977D01*
X0130885Y0078906D01*
X0130829Y0078839D01*
X0130769Y0078773D01*
X0130707Y0078711D01*
X0130641Y0078651D01*
X0130574Y0078595D01*
X0130503Y0078541D01*
X0130431Y0078491D01*
X0130356Y0078444D01*
X0130279Y0078400D01*
X0130200Y0078360D01*
X0130120Y0078323D01*
X0130038Y0078291D01*
X0129954Y0078261D01*
X0129870Y0078236D01*
X0129784Y0078214D01*
X0129698Y0078197D01*
X0129610Y0078183D01*
X0129522Y0078173D01*
X0129434Y0078167D01*
X0129346Y0078165D01*
X0129258Y0078167D01*
X0129170Y0078173D01*
X0129082Y0078183D01*
X0128994Y0078197D01*
X0128908Y0078214D01*
X0128822Y0078236D01*
X0128738Y0078261D01*
X0128654Y0078291D01*
X0128572Y0078323D01*
X0128492Y0078360D01*
X0128413Y0078400D01*
X0128336Y0078444D01*
X0128261Y0078491D01*
X0128189Y0078541D01*
X0128118Y0078595D01*
X0128051Y0078651D01*
X0127985Y0078711D01*
X0127923Y0078773D01*
X0127863Y0078839D01*
X0127807Y0078906D01*
X0127753Y0078977D01*
X0127703Y0079049D01*
X0127656Y0079124D01*
X0127612Y0079201D01*
X0127572Y0079280D01*
X0127535Y0079360D01*
X0127503Y0079442D01*
X0127473Y0079526D01*
X0127448Y0079610D01*
X0127426Y0079696D01*
X0127409Y0079782D01*
X0127395Y0079870D01*
X0127385Y0079958D01*
X0127379Y0080046D01*
X0127377Y0080134D01*
X0145094Y0080134D02*
X0145096Y0080222D01*
X0145102Y0080310D01*
X0145112Y0080398D01*
X0145126Y0080486D01*
X0145143Y0080572D01*
X0145165Y0080658D01*
X0145190Y0080742D01*
X0145220Y0080826D01*
X0145252Y0080908D01*
X0145289Y0080988D01*
X0145329Y0081067D01*
X0145373Y0081144D01*
X0145420Y0081219D01*
X0145470Y0081291D01*
X0145524Y0081362D01*
X0145580Y0081429D01*
X0145640Y0081495D01*
X0145702Y0081557D01*
X0145768Y0081617D01*
X0145835Y0081673D01*
X0145906Y0081727D01*
X0145978Y0081777D01*
X0146053Y0081824D01*
X0146130Y0081868D01*
X0146209Y0081908D01*
X0146289Y0081945D01*
X0146371Y0081977D01*
X0146455Y0082007D01*
X0146539Y0082032D01*
X0146625Y0082054D01*
X0146711Y0082071D01*
X0146799Y0082085D01*
X0146887Y0082095D01*
X0146975Y0082101D01*
X0147063Y0082103D01*
X0147151Y0082101D01*
X0147239Y0082095D01*
X0147327Y0082085D01*
X0147415Y0082071D01*
X0147501Y0082054D01*
X0147587Y0082032D01*
X0147671Y0082007D01*
X0147755Y0081977D01*
X0147837Y0081945D01*
X0147917Y0081908D01*
X0147996Y0081868D01*
X0148073Y0081824D01*
X0148148Y0081777D01*
X0148220Y0081727D01*
X0148291Y0081673D01*
X0148358Y0081617D01*
X0148424Y0081557D01*
X0148486Y0081495D01*
X0148546Y0081429D01*
X0148602Y0081362D01*
X0148656Y0081291D01*
X0148706Y0081219D01*
X0148753Y0081144D01*
X0148797Y0081067D01*
X0148837Y0080988D01*
X0148874Y0080908D01*
X0148906Y0080826D01*
X0148936Y0080742D01*
X0148961Y0080658D01*
X0148983Y0080572D01*
X0149000Y0080486D01*
X0149014Y0080398D01*
X0149024Y0080310D01*
X0149030Y0080222D01*
X0149032Y0080134D01*
X0149030Y0080046D01*
X0149024Y0079958D01*
X0149014Y0079870D01*
X0149000Y0079782D01*
X0148983Y0079696D01*
X0148961Y0079610D01*
X0148936Y0079526D01*
X0148906Y0079442D01*
X0148874Y0079360D01*
X0148837Y0079280D01*
X0148797Y0079201D01*
X0148753Y0079124D01*
X0148706Y0079049D01*
X0148656Y0078977D01*
X0148602Y0078906D01*
X0148546Y0078839D01*
X0148486Y0078773D01*
X0148424Y0078711D01*
X0148358Y0078651D01*
X0148291Y0078595D01*
X0148220Y0078541D01*
X0148148Y0078491D01*
X0148073Y0078444D01*
X0147996Y0078400D01*
X0147917Y0078360D01*
X0147837Y0078323D01*
X0147755Y0078291D01*
X0147671Y0078261D01*
X0147587Y0078236D01*
X0147501Y0078214D01*
X0147415Y0078197D01*
X0147327Y0078183D01*
X0147239Y0078173D01*
X0147151Y0078167D01*
X0147063Y0078165D01*
X0146975Y0078167D01*
X0146887Y0078173D01*
X0146799Y0078183D01*
X0146711Y0078197D01*
X0146625Y0078214D01*
X0146539Y0078236D01*
X0146455Y0078261D01*
X0146371Y0078291D01*
X0146289Y0078323D01*
X0146209Y0078360D01*
X0146130Y0078400D01*
X0146053Y0078444D01*
X0145978Y0078491D01*
X0145906Y0078541D01*
X0145835Y0078595D01*
X0145768Y0078651D01*
X0145702Y0078711D01*
X0145640Y0078773D01*
X0145580Y0078839D01*
X0145524Y0078906D01*
X0145470Y0078977D01*
X0145420Y0079049D01*
X0145373Y0079124D01*
X0145329Y0079201D01*
X0145289Y0079280D01*
X0145252Y0079360D01*
X0145220Y0079442D01*
X0145190Y0079526D01*
X0145165Y0079610D01*
X0145143Y0079696D01*
X0145126Y0079782D01*
X0145112Y0079870D01*
X0145102Y0079958D01*
X0145096Y0080046D01*
X0145094Y0080134D01*
D21*
X0142142Y0090370D03*
X0134268Y0090370D03*
X0124425Y0090370D03*
X0151984Y0090370D03*
D22*
X0151394Y0126984D03*
X0156906Y0126984D03*
X0126197Y0180921D03*
X0126197Y0186039D03*
X0120685Y0186039D03*
X0120685Y0180921D03*
X0120685Y0191551D03*
X0126197Y0191551D03*
X0126197Y0197063D03*
X0120685Y0197063D03*
X0152969Y0198244D03*
X0158480Y0198244D03*
X0158480Y0186039D03*
X0152969Y0186039D03*
D23*
X0164091Y0181807D03*
X0172555Y0181807D03*
X0172555Y0198146D03*
X0164091Y0198146D03*
D24*
X0158426Y0123003D03*
X0155473Y0123003D03*
X0155473Y0112570D03*
X0158426Y0112570D03*
D25*
X0119307Y0108480D03*
X0111827Y0108480D03*
X0115567Y0099819D03*
D26*
X0115272Y0091945D03*
X0107988Y0091945D03*
D27*
X0108087Y0118717D03*
X0108087Y0128165D03*
X0142339Y0126197D03*
X0142339Y0116748D03*
D28*
X0113992Y0180921D03*
X0113992Y0186827D03*
X0113992Y0192732D03*
X0113992Y0198638D03*
X0107693Y0198638D03*
X0107693Y0192732D03*
X0107693Y0186827D03*
X0107693Y0180921D03*
D29*
X0143362Y0185094D03*
X0143362Y0188638D03*
X0143362Y0192181D03*
X0143362Y0195724D03*
X0148087Y0195724D03*
X0148087Y0192181D03*
X0148087Y0188638D03*
X0148087Y0185094D03*
D30*
X0138795Y0189189D03*
X0134465Y0189189D03*
X0134465Y0194701D03*
X0138795Y0194701D03*
D31*
X0167929Y0090370D03*
D32*
X0167929Y0100370D03*
X0167929Y0110370D03*
X0167929Y0120370D03*
X0167929Y0130370D03*
D33*
X0184465Y0082102D03*
X0111630Y0062417D03*
X0091945Y0198244D03*
X0168717Y0213992D03*
D34*
X0170798Y0202613D02*
X0169916Y0202247D01*
X0169241Y0201572D01*
X0168876Y0200690D01*
X0168876Y0195601D01*
X0169241Y0194719D01*
X0169755Y0194205D01*
X0169755Y0185748D01*
X0169241Y0185234D01*
X0168876Y0184351D01*
X0168876Y0181935D01*
X0167170Y0181935D01*
X0167170Y0184111D01*
X0167047Y0184569D01*
X0166810Y0184979D01*
X0166475Y0185314D01*
X0166065Y0185551D01*
X0165607Y0185674D01*
X0164091Y0185674D01*
X0164091Y0181935D01*
X0164090Y0181935D01*
X0164090Y0185674D01*
X0162574Y0185674D01*
X0162116Y0185551D01*
X0161855Y0185401D01*
X0161855Y0186039D01*
X0158750Y0186039D01*
X0158750Y0186039D01*
X0161855Y0186039D01*
X0161855Y0187654D01*
X0161732Y0188112D01*
X0161704Y0188162D01*
X0161782Y0188297D01*
X0161904Y0188755D01*
X0161904Y0190370D01*
X0158284Y0190370D01*
X0158284Y0190370D01*
X0161904Y0190370D01*
X0161904Y0191985D01*
X0161782Y0192443D01*
X0161545Y0192853D01*
X0161210Y0193188D01*
X0160799Y0193425D01*
X0160341Y0193548D01*
X0158284Y0193548D01*
X0158284Y0190370D01*
X0158283Y0190370D01*
X0158283Y0193548D01*
X0156580Y0193548D01*
X0156346Y0193783D01*
X0155772Y0194020D01*
X0155772Y0194777D01*
X0155903Y0194832D01*
X0156250Y0195178D01*
X0156669Y0195066D01*
X0158480Y0195066D01*
X0158480Y0198244D01*
X0158480Y0198244D01*
X0158480Y0201422D01*
X0156669Y0201422D01*
X0156250Y0201310D01*
X0155903Y0201657D01*
X0155021Y0202022D01*
X0150916Y0202022D01*
X0150777Y0201964D01*
X0150139Y0202228D01*
X0148711Y0202228D01*
X0147391Y0201682D01*
X0146381Y0200672D01*
X0146372Y0200650D01*
X0132868Y0200650D01*
X0131326Y0202193D01*
X0130297Y0202619D01*
X0123671Y0202619D01*
X0122642Y0202193D01*
X0121291Y0200841D01*
X0118633Y0200841D01*
X0118264Y0200688D01*
X0117940Y0201012D01*
X0117812Y0201065D01*
X0117602Y0201572D01*
X0116926Y0202247D01*
X0116044Y0202613D01*
X0111940Y0202613D01*
X0111058Y0202247D01*
X0110843Y0202032D01*
X0110627Y0202247D01*
X0109745Y0202613D01*
X0105641Y0202613D01*
X0104759Y0202247D01*
X0104083Y0201572D01*
X0103718Y0200690D01*
X0103718Y0196586D01*
X0104083Y0195703D01*
X0104102Y0195685D01*
X0104083Y0195667D01*
X0103718Y0194784D01*
X0103718Y0190680D01*
X0104083Y0189798D01*
X0104102Y0189780D01*
X0104083Y0189761D01*
X0103718Y0188879D01*
X0103718Y0184775D01*
X0104083Y0183892D01*
X0104102Y0183874D01*
X0104083Y0183856D01*
X0103718Y0182973D01*
X0103718Y0178869D01*
X0104083Y0177987D01*
X0104759Y0177312D01*
X0104916Y0177247D01*
X0104909Y0177221D01*
X0104909Y0174806D01*
X0108394Y0174806D01*
X0108394Y0174635D01*
X0104909Y0174635D01*
X0104909Y0172220D01*
X0105031Y0171762D01*
X0105157Y0171544D01*
X0104674Y0171060D01*
X0104309Y0170178D01*
X0104309Y0166248D01*
X0103774Y0166027D01*
X0103099Y0165352D01*
X0102734Y0164470D01*
X0102734Y0159184D01*
X0103099Y0158302D01*
X0103774Y0157627D01*
X0104656Y0157261D01*
X0106074Y0157261D01*
X0106074Y0156550D01*
X0104656Y0156550D01*
X0103774Y0156184D01*
X0103099Y0155509D01*
X0102734Y0154627D01*
X0102734Y0149341D01*
X0103099Y0148459D01*
X0103774Y0147784D01*
X0104309Y0147563D01*
X0104309Y0142845D01*
X0104674Y0141963D01*
X0105157Y0141480D01*
X0105031Y0141262D01*
X0104909Y0140804D01*
X0104909Y0138389D01*
X0108394Y0138389D01*
X0108394Y0138217D01*
X0104909Y0138217D01*
X0104909Y0135802D01*
X0105031Y0135345D01*
X0105268Y0134934D01*
X0105603Y0134599D01*
X0106014Y0134362D01*
X0106472Y0134239D01*
X0108394Y0134239D01*
X0108394Y0138217D01*
X0108566Y0138217D01*
X0108566Y0134239D01*
X0109617Y0134239D01*
X0109617Y0134050D01*
X0108102Y0132534D01*
X0105247Y0132534D01*
X0104365Y0132168D01*
X0103690Y0131493D01*
X0103324Y0130611D01*
X0103324Y0125719D01*
X0103690Y0124837D01*
X0104365Y0124162D01*
X0105247Y0123797D01*
X0110214Y0123797D01*
X0110214Y0123554D01*
X0110408Y0123085D01*
X0105247Y0123085D01*
X0104365Y0122720D01*
X0103690Y0122045D01*
X0103324Y0121162D01*
X0103324Y0116271D01*
X0103690Y0115389D01*
X0104365Y0114713D01*
X0105247Y0114348D01*
X0105344Y0114348D01*
X0105543Y0113868D01*
X0105716Y0113695D01*
X0104652Y0113695D01*
X0103769Y0113330D01*
X0103094Y0112655D01*
X0102729Y0111773D01*
X0102729Y0106290D01*
X0103094Y0105408D01*
X0103578Y0104925D01*
X0103452Y0104707D01*
X0103329Y0104249D01*
X0103329Y0101834D01*
X0106815Y0101834D01*
X0106815Y0101662D01*
X0106986Y0101662D01*
X0106986Y0097684D01*
X0108909Y0097684D01*
X0109367Y0097807D01*
X0109777Y0098044D01*
X0110113Y0098379D01*
X0110350Y0098789D01*
X0110472Y0099247D01*
X0110472Y0101662D01*
X0106986Y0101662D01*
X0106986Y0101834D01*
X0110472Y0101834D01*
X0110472Y0103324D01*
X0111311Y0103324D01*
X0111198Y0103052D01*
X0111198Y0096586D01*
X0111564Y0095703D01*
X0111582Y0095685D01*
X0111165Y0095268D01*
X0110947Y0095394D01*
X0110489Y0095517D01*
X0108074Y0095517D01*
X0108074Y0092031D01*
X0107902Y0092031D01*
X0107902Y0091859D01*
X0103924Y0091859D01*
X0103924Y0089936D01*
X0104047Y0089478D01*
X0104284Y0089068D01*
X0104619Y0088733D01*
X0105030Y0088496D01*
X0105487Y0088373D01*
X0107902Y0088373D01*
X0107902Y0091859D01*
X0108074Y0091859D01*
X0108074Y0088373D01*
X0109610Y0088373D01*
X0108469Y0087232D01*
X0108089Y0086314D01*
X0108087Y0086314D01*
X0108087Y0086309D01*
X0108087Y0086309D01*
X0108087Y0086314D01*
X0106472Y0086314D01*
X0106014Y0086191D01*
X0105603Y0085954D01*
X0105268Y0085619D01*
X0105031Y0085209D01*
X0104909Y0084751D01*
X0104909Y0082693D01*
X0108043Y0082693D01*
X0108043Y0082693D01*
X0104909Y0082693D01*
X0104909Y0080990D01*
X0104674Y0080755D01*
X0104309Y0079873D01*
X0104309Y0075277D01*
X0104674Y0074394D01*
X0105349Y0073719D01*
X0106231Y0073354D01*
X0109942Y0073354D01*
X0110824Y0073719D01*
X0110867Y0073762D01*
X0110932Y0073605D01*
X0111452Y0073085D01*
X0102613Y0073085D01*
X0102613Y0203324D01*
X0173797Y0203324D01*
X0173797Y0202613D01*
X0170798Y0202613D01*
X0169090Y0201208D02*
X0166874Y0201208D01*
X0166810Y0201318D02*
X0166475Y0201653D01*
X0166065Y0201890D01*
X0165607Y0202013D01*
X0164091Y0202013D01*
X0164091Y0198146D01*
X0167170Y0198146D01*
X0167170Y0200450D01*
X0167047Y0200907D01*
X0166810Y0201318D01*
X0167170Y0199609D02*
X0168876Y0199609D01*
X0168876Y0198011D02*
X0167170Y0198011D01*
X0167170Y0198146D02*
X0164091Y0198146D01*
X0164091Y0198146D01*
X0164090Y0198146D01*
X0164090Y0202013D01*
X0162574Y0202013D01*
X0162116Y0201890D01*
X0161706Y0201653D01*
X0161371Y0201318D01*
X0161200Y0201023D01*
X0161160Y0201062D01*
X0160750Y0201299D01*
X0160292Y0201422D01*
X0158480Y0201422D01*
X0158480Y0198244D01*
X0158480Y0198244D01*
X0158480Y0195066D01*
X0160292Y0195066D01*
X0160750Y0195189D01*
X0161128Y0195407D01*
X0161134Y0195384D01*
X0161371Y0194974D01*
X0161706Y0194638D01*
X0162116Y0194401D01*
X0162574Y0194279D01*
X0164090Y0194279D01*
X0164090Y0198146D01*
X0164091Y0198146D01*
X0164091Y0194279D01*
X0165607Y0194279D01*
X0166065Y0194401D01*
X0166475Y0194638D01*
X0166810Y0194974D01*
X0167047Y0195384D01*
X0167170Y0195842D01*
X0167170Y0198146D01*
X0167170Y0196412D02*
X0168876Y0196412D01*
X0169202Y0194814D02*
X0166650Y0194814D01*
X0164091Y0194814D02*
X0164090Y0194814D01*
X0164090Y0196412D02*
X0164091Y0196412D01*
X0164090Y0198011D02*
X0164091Y0198011D01*
X0164090Y0199609D02*
X0164091Y0199609D01*
X0164090Y0201208D02*
X0164091Y0201208D01*
X0161307Y0201208D02*
X0160909Y0201208D01*
X0158480Y0201208D02*
X0158480Y0201208D01*
X0158480Y0199609D02*
X0158480Y0199609D01*
X0158480Y0198011D02*
X0158480Y0198011D01*
X0158480Y0196412D02*
X0158480Y0196412D01*
X0155859Y0194814D02*
X0161531Y0194814D01*
X0161163Y0193215D02*
X0169755Y0193215D01*
X0169755Y0191617D02*
X0161904Y0191617D01*
X0161904Y0190018D02*
X0169755Y0190018D01*
X0169755Y0188420D02*
X0161814Y0188420D01*
X0161855Y0186821D02*
X0169755Y0186821D01*
X0169236Y0185223D02*
X0166567Y0185223D01*
X0167170Y0183624D02*
X0168876Y0183624D01*
X0168876Y0182025D02*
X0167170Y0182025D01*
X0164091Y0182025D02*
X0164090Y0182025D01*
X0164090Y0183624D02*
X0164091Y0183624D01*
X0164090Y0185223D02*
X0164091Y0185223D01*
X0158284Y0191617D02*
X0158283Y0191617D01*
X0158283Y0193215D02*
X0158284Y0193215D01*
X0150916Y0182261D02*
X0150417Y0182468D01*
X0150356Y0182433D01*
X0149898Y0182310D01*
X0148087Y0182310D01*
X0148087Y0185094D01*
X0148087Y0185094D01*
X0148087Y0182310D01*
X0146531Y0182310D01*
X0146508Y0182287D01*
X0147042Y0181753D01*
X0148801Y0181753D01*
X0149830Y0181326D01*
X0151799Y0179358D01*
X0152586Y0178570D01*
X0152820Y0178006D01*
X0154036Y0178006D01*
X0154919Y0177641D01*
X0155153Y0177406D01*
X0155921Y0177406D01*
X0155921Y0177378D01*
X0155921Y0177378D01*
X0155921Y0177406D01*
X0156946Y0177406D01*
X0157051Y0177378D01*
X0159122Y0177378D01*
X0159228Y0177406D01*
X0159268Y0177406D01*
X0159268Y0178118D01*
X0158947Y0178118D01*
X0157628Y0178665D01*
X0156617Y0179675D01*
X0156283Y0180483D01*
X0155955Y0180483D01*
X0154926Y0180910D01*
X0154138Y0181697D01*
X0153574Y0182261D01*
X0150916Y0182261D01*
X0150730Y0180427D02*
X0156306Y0180427D01*
X0157464Y0178828D02*
X0152328Y0178828D01*
X0153810Y0182025D02*
X0146769Y0182025D01*
X0148087Y0183624D02*
X0148087Y0183624D01*
X0146917Y0201208D02*
X0132311Y0201208D01*
X0121657Y0201208D02*
X0117753Y0201208D01*
X0103933Y0201208D02*
X0102613Y0201208D01*
X0102613Y0202806D02*
X0173797Y0202806D01*
X0108566Y0137267D02*
X0108394Y0137267D01*
X0108394Y0135669D02*
X0108566Y0135669D01*
X0109617Y0134070D02*
X0102613Y0134070D01*
X0102613Y0132472D02*
X0105097Y0132472D01*
X0103433Y0130873D02*
X0102613Y0130873D01*
X0102613Y0129275D02*
X0103324Y0129275D01*
X0103324Y0127676D02*
X0102613Y0127676D01*
X0102613Y0126078D02*
X0103324Y0126078D01*
X0102613Y0124479D02*
X0104048Y0124479D01*
X0104753Y0122881D02*
X0102613Y0122881D01*
X0102613Y0121282D02*
X0103374Y0121282D01*
X0103324Y0119684D02*
X0102613Y0119684D01*
X0102613Y0118085D02*
X0103324Y0118085D01*
X0103324Y0116487D02*
X0102613Y0116487D01*
X0102613Y0114888D02*
X0104190Y0114888D01*
X0103729Y0113289D02*
X0102613Y0113289D01*
X0102613Y0111691D02*
X0102729Y0111691D01*
X0102729Y0110092D02*
X0102613Y0110092D01*
X0102613Y0108494D02*
X0102729Y0108494D01*
X0102729Y0106895D02*
X0102613Y0106895D01*
X0102613Y0105297D02*
X0103206Y0105297D01*
X0103329Y0103698D02*
X0102613Y0103698D01*
X0102613Y0102100D02*
X0103329Y0102100D01*
X0103329Y0101662D02*
X0103329Y0099247D01*
X0103452Y0098789D01*
X0103689Y0098379D01*
X0104024Y0098044D01*
X0104434Y0097807D01*
X0104892Y0097684D01*
X0106815Y0097684D01*
X0106815Y0101662D01*
X0103329Y0101662D01*
X0103329Y0100501D02*
X0102613Y0100501D01*
X0102613Y0098903D02*
X0103421Y0098903D01*
X0102613Y0097304D02*
X0111198Y0097304D01*
X0111198Y0098903D02*
X0110380Y0098903D01*
X0110472Y0100501D02*
X0111198Y0100501D01*
X0111198Y0102100D02*
X0110472Y0102100D01*
X0106986Y0100501D02*
X0106815Y0100501D01*
X0106815Y0098903D02*
X0106986Y0098903D01*
X0107902Y0095517D02*
X0105487Y0095517D01*
X0105030Y0095394D01*
X0104619Y0095157D01*
X0104284Y0094822D01*
X0104047Y0094411D01*
X0103924Y0093954D01*
X0103924Y0092031D01*
X0107902Y0092031D01*
X0107902Y0095517D01*
X0107902Y0094107D02*
X0108074Y0094107D01*
X0108074Y0092509D02*
X0107902Y0092509D01*
X0107902Y0090910D02*
X0108074Y0090910D01*
X0108074Y0089312D02*
X0107902Y0089312D01*
X0108950Y0087713D02*
X0102613Y0087713D01*
X0102613Y0086115D02*
X0105882Y0086115D01*
X0104909Y0084516D02*
X0102613Y0084516D01*
X0102613Y0082918D02*
X0104909Y0082918D01*
X0104909Y0081319D02*
X0102613Y0081319D01*
X0102613Y0079721D02*
X0104309Y0079721D01*
X0104309Y0078122D02*
X0102613Y0078122D01*
X0102613Y0076524D02*
X0104309Y0076524D01*
X0104454Y0074925D02*
X0102613Y0074925D01*
X0102613Y0073327D02*
X0111210Y0073327D01*
X0120076Y0073085D02*
X0120596Y0073605D01*
X0121464Y0075700D01*
X0121464Y0081465D01*
X0125169Y0081465D01*
X0124978Y0081003D01*
X0124978Y0079265D01*
X0125643Y0077659D01*
X0126872Y0076430D01*
X0128477Y0075765D01*
X0130215Y0075765D01*
X0131821Y0076430D01*
X0133050Y0077659D01*
X0133715Y0079265D01*
X0133715Y0081003D01*
X0133524Y0081465D01*
X0142886Y0081465D01*
X0142694Y0081003D01*
X0142694Y0079265D01*
X0143360Y0077659D01*
X0144588Y0076430D01*
X0146194Y0075765D01*
X0147932Y0075765D01*
X0149538Y0076430D01*
X0150766Y0077659D01*
X0151431Y0079265D01*
X0151431Y0081003D01*
X0151240Y0081465D01*
X0154946Y0081465D01*
X0154946Y0075700D01*
X0155813Y0073605D01*
X0156333Y0073085D01*
X0120076Y0073085D01*
X0120318Y0073327D02*
X0156092Y0073327D01*
X0155267Y0074925D02*
X0121143Y0074925D01*
X0121464Y0076524D02*
X0126779Y0076524D01*
X0125451Y0078122D02*
X0121464Y0078122D01*
X0121464Y0079721D02*
X0124978Y0079721D01*
X0125109Y0081319D02*
X0121464Y0081319D01*
X0131914Y0076524D02*
X0144495Y0076524D01*
X0143168Y0078122D02*
X0133242Y0078122D01*
X0133715Y0079721D02*
X0142694Y0079721D01*
X0142826Y0081319D02*
X0133584Y0081319D01*
X0149631Y0076524D02*
X0154946Y0076524D01*
X0154946Y0078122D02*
X0150958Y0078122D01*
X0151431Y0079721D02*
X0154946Y0079721D01*
X0154946Y0081319D02*
X0151300Y0081319D01*
X0156746Y0087596D02*
X0156746Y0094663D01*
X0157580Y0094663D01*
X0158462Y0095028D01*
X0159137Y0095703D01*
X0159502Y0096586D01*
X0159502Y0102068D01*
X0159137Y0102950D01*
X0158654Y0103433D01*
X0158780Y0103652D01*
X0158902Y0104109D01*
X0158902Y0106524D01*
X0155417Y0106524D01*
X0155417Y0106696D01*
X0158902Y0106696D01*
X0158902Y0109111D01*
X0158780Y0109569D01*
X0158711Y0109687D01*
X0159746Y0109687D01*
X0160204Y0109810D01*
X0160614Y0110047D01*
X0160798Y0110231D01*
X0160798Y0106349D01*
X0161225Y0105319D01*
X0162012Y0104532D01*
X0163091Y0103453D01*
X0162279Y0101494D01*
X0162279Y0099246D01*
X0163139Y0097170D01*
X0164729Y0095580D01*
X0165115Y0095420D01*
X0164442Y0095420D01*
X0163984Y0095297D01*
X0163574Y0095060D01*
X0163239Y0094725D01*
X0163002Y0094315D01*
X0162879Y0093857D01*
X0162879Y0090445D01*
X0167854Y0090445D01*
X0167854Y0090295D01*
X0162879Y0090295D01*
X0162879Y0088678D01*
X0161779Y0089134D01*
X0159512Y0089134D01*
X0157417Y0088266D01*
X0156746Y0087596D01*
X0156746Y0087713D02*
X0156864Y0087713D01*
X0156746Y0089312D02*
X0162879Y0089312D01*
X0162879Y0090910D02*
X0156746Y0090910D01*
X0156746Y0092509D02*
X0162879Y0092509D01*
X0162946Y0094107D02*
X0156746Y0094107D01*
X0159138Y0095706D02*
X0164603Y0095706D01*
X0163083Y0097304D02*
X0159502Y0097304D01*
X0159502Y0098903D02*
X0162421Y0098903D01*
X0162279Y0100501D02*
X0159502Y0100501D01*
X0159489Y0102100D02*
X0162530Y0102100D01*
X0162846Y0103698D02*
X0158792Y0103698D01*
X0158902Y0105297D02*
X0161247Y0105297D01*
X0162012Y0104532D02*
X0162012Y0104532D01*
X0160798Y0106895D02*
X0158902Y0106895D01*
X0158902Y0108494D02*
X0160798Y0108494D01*
X0160798Y0110092D02*
X0160660Y0110092D01*
X0158426Y0112570D02*
X0155544Y0112570D01*
X0155474Y0112570D01*
X0158426Y0112570D01*
X0158426Y0112570D01*
X0158426Y0115453D01*
X0157107Y0115453D01*
X0156950Y0115411D01*
X0156793Y0115453D01*
X0155473Y0115453D01*
X0154572Y0115453D01*
X0154572Y0117339D01*
X0154572Y0119042D01*
X0154806Y0119276D01*
X0154907Y0119520D01*
X0159224Y0119520D01*
X0159224Y0115797D01*
X0159366Y0115453D01*
X0158426Y0115453D01*
X0158426Y0112570D01*
X0158426Y0112570D01*
X0158426Y0113289D02*
X0158426Y0113289D01*
X0158426Y0114888D02*
X0158426Y0114888D01*
X0159224Y0116487D02*
X0154572Y0116487D01*
X0154572Y0117339D02*
X0151394Y0117339D01*
X0154572Y0117339D01*
X0154572Y0118085D02*
X0159224Y0118085D01*
X0155473Y0115453D02*
X0155473Y0112570D01*
X0155473Y0112570D01*
X0152591Y0112570D01*
X0152591Y0113718D01*
X0151394Y0113718D01*
X0151394Y0117338D01*
X0151394Y0117338D01*
X0151394Y0117339D02*
X0151394Y0117339D01*
X0151394Y0117339D01*
X0148216Y0117339D01*
X0148216Y0119042D01*
X0147981Y0119276D01*
X0147616Y0120158D01*
X0147616Y0121885D01*
X0147609Y0121900D01*
X0147609Y0123014D01*
X0147616Y0123029D01*
X0147616Y0124654D01*
X0147419Y0125129D01*
X0147419Y0128840D01*
X0147774Y0129696D01*
X0146564Y0129696D01*
X0146735Y0129525D01*
X0147101Y0128643D01*
X0147101Y0123751D01*
X0146735Y0122869D01*
X0146060Y0122194D01*
X0145178Y0121828D01*
X0139499Y0121828D01*
X0138957Y0122053D01*
X0138690Y0121407D01*
X0138446Y0121163D01*
X0138446Y0121057D01*
X0138712Y0120791D01*
X0139499Y0121117D01*
X0145178Y0121117D01*
X0146060Y0120751D01*
X0146735Y0120076D01*
X0147101Y0119194D01*
X0147101Y0114302D01*
X0146935Y0113902D01*
X0147497Y0113902D01*
X0147955Y0113780D01*
X0148365Y0113543D01*
X0148700Y0113208D01*
X0148937Y0112797D01*
X0149060Y0112339D01*
X0149060Y0109649D01*
X0145279Y0109649D01*
X0145279Y0108887D01*
X0148293Y0108887D01*
X0148534Y0109026D01*
X0148991Y0109148D01*
X0150606Y0109148D01*
X0150606Y0105528D01*
X0150606Y0105528D01*
X0150606Y0109148D01*
X0151769Y0109148D01*
X0151882Y0109569D01*
X0152119Y0109979D01*
X0152454Y0110314D01*
X0152856Y0110546D01*
X0152713Y0110792D01*
X0152591Y0111250D01*
X0152591Y0112570D01*
X0155473Y0112570D01*
X0155473Y0115453D01*
X0155473Y0114888D02*
X0155473Y0114888D01*
X0155473Y0113289D02*
X0155473Y0113289D01*
X0155473Y0112570D02*
X0155473Y0112570D01*
X0155474Y0112570D02*
X0155474Y0112570D01*
X0152591Y0113289D02*
X0148618Y0113289D01*
X0148911Y0114077D02*
X0149321Y0113840D01*
X0149779Y0113718D01*
X0151394Y0113718D01*
X0151394Y0117338D01*
X0151394Y0117339D02*
X0148216Y0117339D01*
X0148216Y0115281D01*
X0148338Y0114823D01*
X0148575Y0114412D01*
X0148911Y0114077D01*
X0148321Y0114888D02*
X0147101Y0114888D01*
X0147101Y0116487D02*
X0148216Y0116487D01*
X0148216Y0118085D02*
X0147101Y0118085D01*
X0146898Y0119684D02*
X0147812Y0119684D01*
X0147616Y0121282D02*
X0138565Y0121282D01*
X0146740Y0122881D02*
X0147609Y0122881D01*
X0147616Y0124479D02*
X0147101Y0124479D01*
X0147101Y0126078D02*
X0147419Y0126078D01*
X0147419Y0127676D02*
X0147101Y0127676D01*
X0146839Y0129275D02*
X0147599Y0129275D01*
X0151394Y0116487D02*
X0151394Y0116487D01*
X0151394Y0114888D02*
X0151394Y0114888D01*
X0152591Y0111691D02*
X0149060Y0111691D01*
X0149060Y0110092D02*
X0152232Y0110092D01*
X0150606Y0108494D02*
X0150606Y0108494D01*
X0150606Y0106895D02*
X0150606Y0106895D01*
X0168004Y0090445D02*
X0172979Y0090445D01*
X0172979Y0093857D01*
X0172856Y0094315D01*
X0172619Y0094725D01*
X0172284Y0095060D01*
X0171874Y0095297D01*
X0171416Y0095420D01*
X0170743Y0095420D01*
X0171130Y0095580D01*
X0172719Y0097170D01*
X0173579Y0099246D01*
X0173579Y0101494D01*
X0172719Y0103571D01*
X0171130Y0105160D01*
X0170622Y0105370D01*
X0171130Y0105580D01*
X0172719Y0107170D01*
X0173579Y0109246D01*
X0173579Y0111494D01*
X0172719Y0113571D01*
X0171130Y0115160D01*
X0170622Y0115370D01*
X0171130Y0115580D01*
X0172719Y0117170D01*
X0173579Y0119246D01*
X0173579Y0121494D01*
X0172719Y0123571D01*
X0171130Y0125160D01*
X0170622Y0125370D01*
X0171130Y0125580D01*
X0172719Y0127170D01*
X0173579Y0129246D01*
X0173579Y0130222D01*
X0173797Y0130222D01*
X0173797Y0073085D01*
X0164958Y0073085D01*
X0165478Y0073605D01*
X0165543Y0073762D01*
X0165585Y0073719D01*
X0166467Y0073354D01*
X0170178Y0073354D01*
X0171060Y0073719D01*
X0171735Y0074394D01*
X0172101Y0075277D01*
X0172101Y0079873D01*
X0171735Y0080755D01*
X0171501Y0080990D01*
X0171501Y0082693D01*
X0171501Y0084751D01*
X0171378Y0085209D01*
X0171314Y0085320D01*
X0171416Y0085320D01*
X0171874Y0085443D01*
X0172284Y0085680D01*
X0172619Y0086015D01*
X0172856Y0086425D01*
X0172979Y0086883D01*
X0172979Y0090295D01*
X0168004Y0090295D01*
X0168004Y0090445D01*
X0172979Y0090910D02*
X0173797Y0090910D01*
X0173797Y0089312D02*
X0172979Y0089312D01*
X0172979Y0087713D02*
X0173797Y0087713D01*
X0173797Y0086115D02*
X0172677Y0086115D01*
X0173797Y0084516D02*
X0171501Y0084516D01*
X0171501Y0082918D02*
X0173797Y0082918D01*
X0173797Y0081319D02*
X0171501Y0081319D01*
X0171501Y0082693D02*
X0168323Y0082693D01*
X0171501Y0082693D01*
X0172101Y0079721D02*
X0173797Y0079721D01*
X0173797Y0078122D02*
X0172101Y0078122D01*
X0172101Y0076524D02*
X0173797Y0076524D01*
X0173797Y0074925D02*
X0171955Y0074925D01*
X0173797Y0073327D02*
X0165200Y0073327D01*
X0168323Y0082693D02*
X0168323Y0082693D01*
X0172979Y0092509D02*
X0173797Y0092509D01*
X0173797Y0094107D02*
X0172912Y0094107D01*
X0173797Y0095706D02*
X0171255Y0095706D01*
X0172775Y0097304D02*
X0173797Y0097304D01*
X0173797Y0098903D02*
X0173437Y0098903D01*
X0173579Y0100501D02*
X0173797Y0100501D01*
X0173797Y0102100D02*
X0173328Y0102100D01*
X0173797Y0103698D02*
X0172591Y0103698D01*
X0173797Y0105297D02*
X0170799Y0105297D01*
X0172445Y0106895D02*
X0173797Y0106895D01*
X0173797Y0108494D02*
X0173268Y0108494D01*
X0173579Y0110092D02*
X0173797Y0110092D01*
X0173797Y0111691D02*
X0173498Y0111691D01*
X0173797Y0113289D02*
X0172835Y0113289D01*
X0173797Y0114888D02*
X0171401Y0114888D01*
X0172036Y0116487D02*
X0173797Y0116487D01*
X0173797Y0118085D02*
X0173098Y0118085D01*
X0173579Y0119684D02*
X0173797Y0119684D01*
X0173797Y0121282D02*
X0173579Y0121282D01*
X0173797Y0122881D02*
X0173005Y0122881D01*
X0173797Y0124479D02*
X0171810Y0124479D01*
X0171627Y0126078D02*
X0173797Y0126078D01*
X0173797Y0127676D02*
X0172929Y0127676D01*
X0173579Y0129275D02*
X0173797Y0129275D01*
X0130483Y0117882D02*
X0130483Y0114620D01*
X0127245Y0114620D01*
X0126363Y0114255D01*
X0126128Y0114020D01*
X0124425Y0114020D01*
X0122367Y0114020D01*
X0121910Y0113898D01*
X0121499Y0113661D01*
X0121164Y0113326D01*
X0120997Y0113036D01*
X0119491Y0113036D01*
X0119491Y0108665D01*
X0119123Y0108665D01*
X0119123Y0113036D01*
X0117102Y0113036D01*
X0116644Y0112914D01*
X0116233Y0112677D01*
X0115924Y0112368D01*
X0115830Y0112596D01*
X0115155Y0113271D01*
X0114273Y0113636D01*
X0114260Y0113636D01*
X0113526Y0114370D01*
X0112948Y0114948D01*
X0114300Y0114948D01*
X0114300Y0118926D01*
X0114472Y0118926D01*
X0114472Y0119098D01*
X0119418Y0119098D01*
X0119418Y0118926D01*
X0117957Y0118926D01*
X0114472Y0118926D01*
X0114472Y0114948D01*
X0116394Y0114948D01*
X0116852Y0115071D01*
X0116945Y0115124D01*
X0117037Y0115071D01*
X0117495Y0114948D01*
X0119418Y0114948D01*
X0119418Y0118926D01*
X0119590Y0118926D01*
X0119590Y0119098D01*
X0123076Y0119098D01*
X0123076Y0119847D01*
X0123823Y0119099D01*
X0124852Y0118672D01*
X0125100Y0118672D01*
X0125344Y0118429D01*
X0126664Y0117882D01*
X0128092Y0117882D01*
X0129150Y0118320D01*
X0130207Y0117882D01*
X0130483Y0117882D01*
X0129717Y0118085D02*
X0128583Y0118085D01*
X0126173Y0118085D02*
X0123076Y0118085D01*
X0123076Y0118926D02*
X0123076Y0116511D01*
X0122953Y0116053D01*
X0122716Y0115643D01*
X0122381Y0115308D01*
X0121970Y0115071D01*
X0121513Y0114948D01*
X0119590Y0114948D01*
X0119590Y0118926D01*
X0123076Y0118926D01*
X0123076Y0119684D02*
X0123239Y0119684D01*
X0123069Y0116487D02*
X0130483Y0116487D01*
X0130483Y0114888D02*
X0113008Y0114888D01*
X0114300Y0116487D02*
X0114472Y0116487D01*
X0114472Y0118085D02*
X0114300Y0118085D01*
X0115110Y0113289D02*
X0121143Y0113289D01*
X0119491Y0111691D02*
X0119123Y0111691D01*
X0119123Y0110092D02*
X0119491Y0110092D01*
X0124425Y0110843D02*
X0124425Y0114020D01*
X0124425Y0110843D01*
X0124425Y0110843D01*
X0124425Y0111691D02*
X0124425Y0111691D01*
X0124425Y0113289D02*
X0124425Y0113289D01*
X0119590Y0116487D02*
X0119418Y0116487D01*
X0119418Y0118085D02*
X0119590Y0118085D01*
X0104944Y0135669D02*
X0102613Y0135669D01*
X0102613Y0137267D02*
X0104909Y0137267D01*
X0104909Y0138866D02*
X0102613Y0138866D01*
X0102613Y0140464D02*
X0104909Y0140464D01*
X0104633Y0142063D02*
X0102613Y0142063D01*
X0102613Y0143661D02*
X0104309Y0143661D01*
X0104309Y0145260D02*
X0102613Y0145260D01*
X0102613Y0146858D02*
X0104309Y0146858D01*
X0103102Y0148457D02*
X0102613Y0148457D01*
X0102613Y0150055D02*
X0102734Y0150055D01*
X0102734Y0151654D02*
X0102613Y0151654D01*
X0102613Y0153252D02*
X0102734Y0153252D01*
X0102827Y0154851D02*
X0102613Y0154851D01*
X0102613Y0156449D02*
X0104414Y0156449D01*
X0103353Y0158048D02*
X0102613Y0158048D01*
X0102613Y0159646D02*
X0102734Y0159646D01*
X0102734Y0161245D02*
X0102613Y0161245D01*
X0102613Y0162843D02*
X0102734Y0162843D01*
X0102734Y0164442D02*
X0102613Y0164442D01*
X0102613Y0166040D02*
X0103807Y0166040D01*
X0104309Y0167639D02*
X0102613Y0167639D01*
X0102613Y0169237D02*
X0104309Y0169237D01*
X0104581Y0170836D02*
X0102613Y0170836D01*
X0102613Y0172434D02*
X0104909Y0172434D01*
X0104909Y0174033D02*
X0102613Y0174033D01*
X0102613Y0175631D02*
X0104909Y0175631D01*
X0104911Y0177230D02*
X0102613Y0177230D01*
X0102613Y0178828D02*
X0103735Y0178828D01*
X0103718Y0180427D02*
X0102613Y0180427D01*
X0102613Y0182025D02*
X0103718Y0182025D01*
X0103988Y0183624D02*
X0102613Y0183624D01*
X0102613Y0185223D02*
X0103718Y0185223D01*
X0103718Y0186821D02*
X0102613Y0186821D01*
X0102613Y0188420D02*
X0103718Y0188420D01*
X0103992Y0190018D02*
X0102613Y0190018D01*
X0102613Y0191617D02*
X0103718Y0191617D01*
X0103718Y0193215D02*
X0102613Y0193215D01*
X0102613Y0194814D02*
X0103730Y0194814D01*
X0103790Y0196412D02*
X0102613Y0196412D01*
X0102613Y0198011D02*
X0103718Y0198011D01*
X0103718Y0199609D02*
X0102613Y0199609D01*
X0102613Y0095706D02*
X0111563Y0095706D01*
X0103966Y0094107D02*
X0102613Y0094107D01*
X0102613Y0092509D02*
X0103924Y0092509D01*
X0103924Y0090910D02*
X0102613Y0090910D01*
X0102613Y0089312D02*
X0104143Y0089312D01*
D35*
X0110843Y0085646D02*
X0113205Y0088008D01*
X0122063Y0088008D01*
X0124425Y0090370D01*
X0134268Y0090370D02*
X0134268Y0092535D01*
X0138205Y0096472D01*
X0138205Y0100606D01*
X0142142Y0104346D02*
X0138205Y0108283D01*
X0138205Y0109268D01*
X0138205Y0114189D01*
X0135646Y0116748D01*
X0138795Y0116748D02*
X0135646Y0119898D01*
X0135646Y0123441D01*
X0133283Y0123441D02*
X0124425Y0132299D01*
X0124425Y0137811D01*
X0121276Y0137811D02*
X0121276Y0131118D01*
X0130921Y0121472D01*
X0133283Y0123441D02*
X0133283Y0106512D01*
X0133677Y0106118D01*
X0142142Y0104346D02*
X0142142Y0090370D01*
X0145882Y0100409D02*
X0150606Y0100409D01*
X0154248Y0100409D01*
X0155331Y0099327D01*
X0163598Y0106906D02*
X0167929Y0102575D01*
X0167929Y0100370D01*
X0163598Y0106906D02*
X0163598Y0114780D01*
X0162024Y0116354D01*
X0162024Y0124228D01*
X0159268Y0126984D01*
X0156906Y0126984D01*
X0157693Y0127772D01*
X0157693Y0130134D01*
X0157693Y0131315D01*
X0156512Y0132496D01*
X0144701Y0132496D01*
X0142339Y0130134D01*
X0142339Y0126197D01*
X0141551Y0126984D01*
X0133283Y0126984D01*
X0127378Y0121472D02*
X0125409Y0121472D01*
X0124228Y0122654D01*
X0123835Y0125409D02*
X0122949Y0126295D01*
X0119504Y0126295D01*
X0119504Y0130528D01*
X0118717Y0131315D01*
X0117142Y0131315D01*
X0114780Y0133677D01*
X0114780Y0139583D01*
X0115567Y0140370D01*
X0117339Y0140370D01*
X0117339Y0137220D02*
X0117339Y0135055D01*
X0118717Y0133677D01*
X0114386Y0130921D02*
X0114386Y0126295D01*
X0114386Y0130921D02*
X0112417Y0132890D01*
X0108087Y0128559D01*
X0108087Y0128165D01*
X0112417Y0132890D02*
X0112417Y0143520D01*
X0114386Y0145488D01*
X0114386Y0148244D01*
X0115961Y0149819D01*
X0117339Y0149819D01*
X0117339Y0146669D02*
X0115567Y0146669D01*
X0114386Y0145488D01*
X0108874Y0145980D02*
X0108874Y0151984D01*
X0108874Y0156906D01*
X0110449Y0158480D01*
X0113205Y0158480D01*
X0113992Y0159268D01*
X0113992Y0164386D01*
X0115173Y0165567D01*
X0117339Y0165567D01*
X0120882Y0163992D02*
X0123835Y0163992D01*
X0125409Y0165567D01*
X0125409Y0177772D01*
X0126197Y0178559D01*
X0126197Y0180921D01*
X0129346Y0179346D02*
X0126984Y0176984D01*
X0126984Y0159268D01*
X0125409Y0157693D01*
X0120882Y0157693D01*
X0117339Y0159268D02*
X0116354Y0159268D01*
X0113205Y0156118D01*
X0110646Y0161827D02*
X0108874Y0161827D01*
X0108874Y0167043D01*
X0108480Y0167437D01*
X0112024Y0166354D02*
X0112024Y0163205D01*
X0110646Y0161827D01*
X0112024Y0166354D02*
X0114386Y0168717D01*
X0117339Y0168717D01*
X0117339Y0171866D02*
X0122260Y0171866D01*
X0123441Y0173047D01*
X0123441Y0189189D01*
X0125803Y0191551D01*
X0126197Y0191551D01*
X0122654Y0194307D02*
X0123441Y0195094D01*
X0123441Y0199031D01*
X0124228Y0199819D01*
X0129740Y0199819D01*
X0131709Y0197850D01*
X0140370Y0197850D01*
X0148638Y0197850D01*
X0149425Y0198638D01*
X0150449Y0195724D02*
X0148087Y0195724D01*
X0150449Y0195724D02*
X0152969Y0198244D01*
X0152181Y0194307D02*
X0150055Y0192181D01*
X0151866Y0190370D01*
X0153165Y0190370D01*
X0155724Y0187811D01*
X0155724Y0184071D01*
X0156512Y0183283D01*
X0158087Y0183283D01*
X0159661Y0181709D01*
X0160252Y0178362D02*
X0160252Y0174425D01*
X0155921Y0174425D01*
X0155921Y0176787D01*
X0150606Y0182102D01*
X0148244Y0182102D01*
X0148087Y0182260D01*
X0148087Y0185094D01*
X0151394Y0186039D02*
X0152969Y0186039D01*
X0151394Y0186039D02*
X0148795Y0188638D01*
X0148087Y0188638D01*
X0148087Y0192181D02*
X0150055Y0192181D01*
X0143362Y0188638D02*
X0139346Y0188638D01*
X0138795Y0189189D01*
X0138795Y0191157D01*
X0138008Y0191945D01*
X0132496Y0191945D01*
X0131709Y0191157D01*
X0131709Y0185252D01*
X0139583Y0177378D01*
X0147457Y0177378D01*
X0148638Y0176197D01*
X0148638Y0169504D01*
X0147457Y0168323D01*
X0136433Y0168323D01*
X0135449Y0169307D01*
X0135449Y0170882D01*
X0132102Y0166748D02*
X0130134Y0164780D01*
X0130134Y0157299D01*
X0125409Y0152575D01*
X0125409Y0148244D01*
X0123835Y0146669D01*
X0122260Y0148244D02*
X0123835Y0149819D01*
X0123835Y0153756D01*
X0128559Y0158480D01*
X0128559Y0176197D01*
X0130921Y0178559D01*
X0130921Y0183677D01*
X0130134Y0184465D01*
X0130134Y0195488D01*
X0128559Y0197063D01*
X0126197Y0197063D01*
X0122654Y0194307D02*
X0118717Y0194307D01*
X0117142Y0195882D01*
X0110449Y0195882D01*
X0107693Y0198638D01*
X0107693Y0192732D01*
X0107693Y0186827D01*
X0107693Y0180921D01*
X0106807Y0175016D02*
X0108480Y0174720D01*
X0106807Y0175016D02*
X0117339Y0175016D01*
X0113992Y0180921D02*
X0120685Y0180921D01*
X0120685Y0186039D02*
X0117929Y0186039D01*
X0117142Y0186827D01*
X0113992Y0186827D01*
X0113992Y0192732D02*
X0117142Y0192732D01*
X0118323Y0191551D01*
X0120685Y0191551D01*
X0120685Y0197063D02*
X0117929Y0197063D01*
X0116354Y0198638D01*
X0113992Y0198638D01*
X0126197Y0186039D02*
X0129346Y0182890D01*
X0129346Y0179346D01*
X0134465Y0184858D02*
X0140370Y0178953D01*
X0145882Y0178953D01*
X0143362Y0181472D01*
X0143362Y0185094D01*
X0145882Y0178953D02*
X0148244Y0178953D01*
X0150213Y0176984D01*
X0150213Y0168717D01*
X0148244Y0166748D01*
X0132102Y0166748D01*
X0143323Y0160843D02*
X0151000Y0160843D01*
X0162417Y0172260D01*
X0162417Y0176197D01*
X0163992Y0177772D01*
X0171472Y0177772D01*
X0172555Y0178854D01*
X0172555Y0181807D01*
X0172555Y0198146D01*
X0164091Y0181807D02*
X0163697Y0181807D01*
X0160252Y0178362D01*
X0138795Y0194701D02*
X0138795Y0196276D01*
X0140370Y0197850D01*
X0138795Y0194701D02*
X0134465Y0194701D01*
X0134465Y0189189D02*
X0134465Y0184858D01*
X0157299Y0149819D02*
X0162024Y0145094D01*
X0162024Y0142732D01*
X0160252Y0140961D01*
X0160252Y0137811D01*
X0158087Y0135646D02*
X0156512Y0135646D01*
X0155921Y0136236D01*
X0155921Y0137811D01*
X0158087Y0135646D02*
X0162024Y0131709D01*
X0162024Y0128953D01*
X0167929Y0123047D01*
X0167929Y0120370D01*
X0163598Y0117142D02*
X0167929Y0112811D01*
X0167929Y0110370D01*
X0163598Y0117142D02*
X0163598Y0125016D01*
X0160449Y0128165D01*
X0160449Y0130921D01*
X0157299Y0134071D01*
X0153756Y0134071D01*
X0152772Y0135055D01*
X0152772Y0137811D01*
X0148047Y0141354D02*
X0148047Y0142929D01*
X0149031Y0143913D01*
X0159661Y0143913D01*
X0155331Y0146276D02*
X0154543Y0145488D01*
X0148244Y0145488D01*
X0147063Y0144307D01*
X0133283Y0144307D01*
X0132299Y0143323D01*
X0132299Y0141354D01*
X0122260Y0148244D02*
X0120882Y0148244D01*
X0108874Y0145980D02*
X0108480Y0145587D01*
X0123047Y0126197D02*
X0123835Y0125409D01*
X0138795Y0116748D02*
X0142339Y0116748D01*
X0150409Y0122457D02*
X0151394Y0122457D01*
X0151787Y0122850D01*
X0155321Y0122850D01*
X0155473Y0123003D01*
X0154150Y0124327D01*
X0154150Y0130134D01*
X0151394Y0127378D01*
X0151394Y0126984D01*
X0155473Y0123003D02*
X0158426Y0123003D01*
X0145685Y0100606D02*
X0145882Y0100409D01*
X0160646Y0080134D02*
X0163205Y0077575D01*
X0168323Y0077575D01*
X0110843Y0079346D02*
X0110843Y0085646D01*
X0110843Y0079346D02*
X0109071Y0077575D01*
X0108087Y0077575D01*
D36*
X0115764Y0080134D02*
X0120094Y0084465D01*
X0156315Y0084465D01*
X0160646Y0080134D01*
X0151984Y0090370D02*
X0151787Y0090370D01*
X0147063Y0095094D01*
X0145685Y0096472D01*
X0145685Y0100606D01*
X0150606Y0105528D02*
X0154248Y0105528D01*
X0155331Y0106610D01*
X0133677Y0102575D02*
X0129937Y0106315D01*
X0129740Y0106315D01*
X0129740Y0110646D01*
X0129543Y0110843D01*
X0124622Y0110646D02*
X0124425Y0110843D01*
X0124622Y0110646D02*
X0124622Y0106315D01*
X0124622Y0101197D02*
X0122063Y0101197D01*
X0119898Y0099031D01*
X0116354Y0099031D01*
X0115567Y0099819D01*
X0115272Y0098933D01*
X0115272Y0091945D01*
X0124622Y0101197D02*
X0129740Y0101197D01*
X0111827Y0108480D02*
X0111827Y0111827D01*
X0108087Y0115567D01*
X0108087Y0118717D01*
X0106901Y0109031D02*
X0107688Y0108244D01*
X0110882Y0108244D01*
X0111827Y0108480D01*
D37*
X0102969Y0104937D03*
X0102969Y0095094D03*
X0102969Y0084465D03*
X0102969Y0073441D03*
X0121472Y0073441D03*
X0138205Y0073441D03*
X0154937Y0073441D03*
X0173441Y0073441D03*
X0173441Y0084465D03*
X0173441Y0095094D03*
X0173441Y0104937D03*
X0173441Y0114780D03*
X0173441Y0125016D03*
X0157693Y0130134D03*
X0154150Y0130134D03*
X0159661Y0143913D03*
X0155331Y0146276D03*
X0157299Y0149819D03*
X0133283Y0126984D03*
X0135646Y0123441D03*
X0130921Y0121472D03*
X0127378Y0121472D03*
X0129346Y0117535D03*
X0135646Y0116748D03*
X0147850Y0114386D03*
X0159661Y0108480D03*
X0147063Y0095094D03*
X0133677Y0102575D03*
X0119898Y0099031D03*
X0102969Y0114780D03*
X0102969Y0125016D03*
X0102969Y0135252D03*
X0102969Y0146276D03*
X0113205Y0156118D03*
X0123835Y0146669D03*
X0118717Y0133677D03*
X0114386Y0130921D03*
X0123835Y0125409D03*
X0102969Y0167142D03*
X0102969Y0176984D03*
X0102969Y0202969D03*
X0120685Y0202969D03*
X0138205Y0202969D03*
X0149425Y0198638D03*
X0152181Y0194307D03*
X0156118Y0202969D03*
X0173441Y0202969D03*
X0159661Y0181709D03*
D38*
X0133677Y0106118D02*
X0138205Y0101591D01*
X0138205Y0100606D01*
M02*
