G75*
%MOIN*%
%OFA0B0*%
%FSLAX25Y25*%
%IPPOS*%
%LPD*%
%AMOC8*
5,1,8,0,0,1.08239X$1,22.5*
%
%ADD10C,0.00000*%
%ADD11R,0.01975X0.02762*%
%ADD12R,0.02762X0.01975*%
%ADD13R,0.07880X0.04731*%
%ADD14R,0.03943X0.04928*%
%ADD15R,0.03156X0.04042*%
%ADD16R,0.04042X0.03156*%
%ADD17R,0.04337X0.06069*%
%ADD18R,0.05124X0.06069*%
%ADD19C,0.07000*%
%ADD20C,0.04337*%
%ADD21R,0.05124X0.08274*%
%ADD22R,0.03550X0.03156*%
%ADD23R,0.02953X0.04528*%
%ADD24R,0.02565X0.02565*%
%ADD25R,0.04337X0.05912*%
%ADD26R,0.04928X0.03943*%
%ADD27R,0.05124X0.04337*%
%ADD28R,0.03550X0.03550*%
%ADD29R,0.03543X0.02362*%
%ADD30R,0.03156X0.03550*%
%ADD31R,0.06900X0.06900*%
%ADD32C,0.06900*%
%ADD33C,0.07874*%
D10*
X0001000Y0001000D02*
X0001000Y0274622D01*
X0274622Y0274622D01*
X0274622Y0001000D01*
X0001000Y0001000D01*
X0001000Y0069898D02*
X0274622Y0069898D01*
X0176197Y0001000D02*
X0176197Y0274622D01*
X0099425Y0274622D02*
X0099425Y0001000D01*
X0126984Y0079740D02*
X0126986Y0079828D01*
X0126992Y0079916D01*
X0127002Y0080004D01*
X0127016Y0080092D01*
X0127033Y0080178D01*
X0127055Y0080264D01*
X0127080Y0080348D01*
X0127110Y0080432D01*
X0127142Y0080514D01*
X0127179Y0080594D01*
X0127219Y0080673D01*
X0127263Y0080750D01*
X0127310Y0080825D01*
X0127360Y0080897D01*
X0127414Y0080968D01*
X0127470Y0081035D01*
X0127530Y0081101D01*
X0127592Y0081163D01*
X0127658Y0081223D01*
X0127725Y0081279D01*
X0127796Y0081333D01*
X0127868Y0081383D01*
X0127943Y0081430D01*
X0128020Y0081474D01*
X0128099Y0081514D01*
X0128179Y0081551D01*
X0128261Y0081583D01*
X0128345Y0081613D01*
X0128429Y0081638D01*
X0128515Y0081660D01*
X0128601Y0081677D01*
X0128689Y0081691D01*
X0128777Y0081701D01*
X0128865Y0081707D01*
X0128953Y0081709D01*
X0129041Y0081707D01*
X0129129Y0081701D01*
X0129217Y0081691D01*
X0129305Y0081677D01*
X0129391Y0081660D01*
X0129477Y0081638D01*
X0129561Y0081613D01*
X0129645Y0081583D01*
X0129727Y0081551D01*
X0129807Y0081514D01*
X0129886Y0081474D01*
X0129963Y0081430D01*
X0130038Y0081383D01*
X0130110Y0081333D01*
X0130181Y0081279D01*
X0130248Y0081223D01*
X0130314Y0081163D01*
X0130376Y0081101D01*
X0130436Y0081035D01*
X0130492Y0080968D01*
X0130546Y0080897D01*
X0130596Y0080825D01*
X0130643Y0080750D01*
X0130687Y0080673D01*
X0130727Y0080594D01*
X0130764Y0080514D01*
X0130796Y0080432D01*
X0130826Y0080348D01*
X0130851Y0080264D01*
X0130873Y0080178D01*
X0130890Y0080092D01*
X0130904Y0080004D01*
X0130914Y0079916D01*
X0130920Y0079828D01*
X0130922Y0079740D01*
X0130920Y0079652D01*
X0130914Y0079564D01*
X0130904Y0079476D01*
X0130890Y0079388D01*
X0130873Y0079302D01*
X0130851Y0079216D01*
X0130826Y0079132D01*
X0130796Y0079048D01*
X0130764Y0078966D01*
X0130727Y0078886D01*
X0130687Y0078807D01*
X0130643Y0078730D01*
X0130596Y0078655D01*
X0130546Y0078583D01*
X0130492Y0078512D01*
X0130436Y0078445D01*
X0130376Y0078379D01*
X0130314Y0078317D01*
X0130248Y0078257D01*
X0130181Y0078201D01*
X0130110Y0078147D01*
X0130038Y0078097D01*
X0129963Y0078050D01*
X0129886Y0078006D01*
X0129807Y0077966D01*
X0129727Y0077929D01*
X0129645Y0077897D01*
X0129561Y0077867D01*
X0129477Y0077842D01*
X0129391Y0077820D01*
X0129305Y0077803D01*
X0129217Y0077789D01*
X0129129Y0077779D01*
X0129041Y0077773D01*
X0128953Y0077771D01*
X0128865Y0077773D01*
X0128777Y0077779D01*
X0128689Y0077789D01*
X0128601Y0077803D01*
X0128515Y0077820D01*
X0128429Y0077842D01*
X0128345Y0077867D01*
X0128261Y0077897D01*
X0128179Y0077929D01*
X0128099Y0077966D01*
X0128020Y0078006D01*
X0127943Y0078050D01*
X0127868Y0078097D01*
X0127796Y0078147D01*
X0127725Y0078201D01*
X0127658Y0078257D01*
X0127592Y0078317D01*
X0127530Y0078379D01*
X0127470Y0078445D01*
X0127414Y0078512D01*
X0127360Y0078583D01*
X0127310Y0078655D01*
X0127263Y0078730D01*
X0127219Y0078807D01*
X0127179Y0078886D01*
X0127142Y0078966D01*
X0127110Y0079048D01*
X0127080Y0079132D01*
X0127055Y0079216D01*
X0127033Y0079302D01*
X0127016Y0079388D01*
X0127002Y0079476D01*
X0126992Y0079564D01*
X0126986Y0079652D01*
X0126984Y0079740D01*
X0144700Y0079740D02*
X0144702Y0079828D01*
X0144708Y0079916D01*
X0144718Y0080004D01*
X0144732Y0080092D01*
X0144749Y0080178D01*
X0144771Y0080264D01*
X0144796Y0080348D01*
X0144826Y0080432D01*
X0144858Y0080514D01*
X0144895Y0080594D01*
X0144935Y0080673D01*
X0144979Y0080750D01*
X0145026Y0080825D01*
X0145076Y0080897D01*
X0145130Y0080968D01*
X0145186Y0081035D01*
X0145246Y0081101D01*
X0145308Y0081163D01*
X0145374Y0081223D01*
X0145441Y0081279D01*
X0145512Y0081333D01*
X0145584Y0081383D01*
X0145659Y0081430D01*
X0145736Y0081474D01*
X0145815Y0081514D01*
X0145895Y0081551D01*
X0145977Y0081583D01*
X0146061Y0081613D01*
X0146145Y0081638D01*
X0146231Y0081660D01*
X0146317Y0081677D01*
X0146405Y0081691D01*
X0146493Y0081701D01*
X0146581Y0081707D01*
X0146669Y0081709D01*
X0146757Y0081707D01*
X0146845Y0081701D01*
X0146933Y0081691D01*
X0147021Y0081677D01*
X0147107Y0081660D01*
X0147193Y0081638D01*
X0147277Y0081613D01*
X0147361Y0081583D01*
X0147443Y0081551D01*
X0147523Y0081514D01*
X0147602Y0081474D01*
X0147679Y0081430D01*
X0147754Y0081383D01*
X0147826Y0081333D01*
X0147897Y0081279D01*
X0147964Y0081223D01*
X0148030Y0081163D01*
X0148092Y0081101D01*
X0148152Y0081035D01*
X0148208Y0080968D01*
X0148262Y0080897D01*
X0148312Y0080825D01*
X0148359Y0080750D01*
X0148403Y0080673D01*
X0148443Y0080594D01*
X0148480Y0080514D01*
X0148512Y0080432D01*
X0148542Y0080348D01*
X0148567Y0080264D01*
X0148589Y0080178D01*
X0148606Y0080092D01*
X0148620Y0080004D01*
X0148630Y0079916D01*
X0148636Y0079828D01*
X0148638Y0079740D01*
X0148636Y0079652D01*
X0148630Y0079564D01*
X0148620Y0079476D01*
X0148606Y0079388D01*
X0148589Y0079302D01*
X0148567Y0079216D01*
X0148542Y0079132D01*
X0148512Y0079048D01*
X0148480Y0078966D01*
X0148443Y0078886D01*
X0148403Y0078807D01*
X0148359Y0078730D01*
X0148312Y0078655D01*
X0148262Y0078583D01*
X0148208Y0078512D01*
X0148152Y0078445D01*
X0148092Y0078379D01*
X0148030Y0078317D01*
X0147964Y0078257D01*
X0147897Y0078201D01*
X0147826Y0078147D01*
X0147754Y0078097D01*
X0147679Y0078050D01*
X0147602Y0078006D01*
X0147523Y0077966D01*
X0147443Y0077929D01*
X0147361Y0077897D01*
X0147277Y0077867D01*
X0147193Y0077842D01*
X0147107Y0077820D01*
X0147021Y0077803D01*
X0146933Y0077789D01*
X0146845Y0077779D01*
X0146757Y0077773D01*
X0146669Y0077771D01*
X0146581Y0077773D01*
X0146493Y0077779D01*
X0146405Y0077789D01*
X0146317Y0077803D01*
X0146231Y0077820D01*
X0146145Y0077842D01*
X0146061Y0077867D01*
X0145977Y0077897D01*
X0145895Y0077929D01*
X0145815Y0077966D01*
X0145736Y0078006D01*
X0145659Y0078050D01*
X0145584Y0078097D01*
X0145512Y0078147D01*
X0145441Y0078201D01*
X0145374Y0078257D01*
X0145308Y0078317D01*
X0145246Y0078379D01*
X0145186Y0078445D01*
X0145130Y0078512D01*
X0145076Y0078583D01*
X0145026Y0078655D01*
X0144979Y0078730D01*
X0144935Y0078807D01*
X0144895Y0078886D01*
X0144858Y0078966D01*
X0144826Y0079048D01*
X0144796Y0079132D01*
X0144771Y0079216D01*
X0144749Y0079302D01*
X0144732Y0079388D01*
X0144718Y0079476D01*
X0144708Y0079564D01*
X0144702Y0079652D01*
X0144700Y0079740D01*
X0274622Y0205724D02*
X0001000Y0205724D01*
D11*
X0120882Y0137417D03*
X0124031Y0137417D03*
X0127181Y0137417D03*
X0130331Y0137417D03*
X0133480Y0137417D03*
X0131906Y0140961D03*
X0128756Y0140961D03*
X0125606Y0140961D03*
X0135055Y0140961D03*
X0138205Y0140961D03*
X0141354Y0140961D03*
X0144504Y0140961D03*
X0147654Y0140961D03*
X0150803Y0140961D03*
X0153953Y0140961D03*
X0157102Y0140961D03*
X0155528Y0137417D03*
X0152378Y0137417D03*
X0159858Y0137417D03*
X0146079Y0137417D03*
X0142929Y0137417D03*
X0139780Y0137417D03*
X0141354Y0170488D03*
X0138205Y0170488D03*
X0135055Y0170488D03*
X0131906Y0170488D03*
X0133480Y0174031D03*
X0130331Y0174031D03*
X0136630Y0174031D03*
X0139780Y0174031D03*
X0142929Y0174031D03*
X0146079Y0174031D03*
X0144504Y0170488D03*
X0152378Y0174031D03*
X0155528Y0174031D03*
X0159858Y0174031D03*
D12*
X0142929Y0163598D03*
X0142929Y0160449D03*
X0142929Y0157299D03*
X0142929Y0154150D03*
X0142929Y0151000D03*
X0142929Y0147850D03*
X0120488Y0147850D03*
X0120488Y0151000D03*
X0120488Y0154150D03*
X0116945Y0155724D03*
X0116945Y0152575D03*
X0116945Y0149425D03*
X0116945Y0146276D03*
X0116945Y0143126D03*
X0116945Y0139976D03*
X0116945Y0136827D03*
X0120488Y0157299D03*
X0120488Y0160449D03*
X0120488Y0163598D03*
X0116945Y0162024D03*
X0116945Y0165173D03*
X0116945Y0168323D03*
X0116945Y0171472D03*
X0116945Y0174622D03*
X0116945Y0158874D03*
D13*
X0108480Y0161433D03*
X0108480Y0151591D03*
D14*
X0108087Y0145193D03*
X0108087Y0137909D03*
X0113992Y0125902D03*
X0119110Y0125902D03*
X0119110Y0118618D03*
X0113992Y0118618D03*
X0106507Y0108638D03*
X0106507Y0101354D03*
X0154937Y0098933D03*
X0154937Y0106217D03*
X0108087Y0167043D03*
X0108087Y0174327D03*
D15*
X0151000Y0122063D03*
X0151000Y0116945D03*
X0150213Y0105134D03*
X0150213Y0100016D03*
X0167929Y0082299D03*
X0167929Y0077181D03*
X0129346Y0100803D03*
X0124228Y0100803D03*
X0124228Y0105921D03*
X0129346Y0105921D03*
X0107693Y0082299D03*
X0107693Y0077181D03*
D16*
X0124031Y0110449D03*
X0129150Y0110449D03*
X0152772Y0189976D03*
X0157890Y0189976D03*
D17*
X0137811Y0108874D03*
X0137811Y0100213D03*
X0145291Y0100213D03*
D18*
X0144504Y0108874D03*
D19*
X0160252Y0083040D02*
X0160252Y0076440D01*
X0115370Y0076440D02*
X0115370Y0083040D01*
D20*
X0128953Y0079740D03*
X0146669Y0079740D03*
D21*
X0141748Y0089976D03*
X0133874Y0089976D03*
X0124031Y0089976D03*
X0151591Y0089976D03*
D22*
X0151000Y0126591D03*
X0156512Y0126591D03*
X0125803Y0180528D03*
X0125803Y0185646D03*
X0125803Y0191157D03*
X0120291Y0191157D03*
X0120291Y0185646D03*
X0120291Y0180528D03*
X0120291Y0196669D03*
X0125803Y0196669D03*
X0152575Y0197850D03*
X0158087Y0197850D03*
X0158087Y0185646D03*
X0152575Y0185646D03*
D23*
X0163697Y0181413D03*
X0172161Y0181413D03*
X0172161Y0197752D03*
X0163697Y0197752D03*
D24*
X0158032Y0122609D03*
X0155080Y0122609D03*
X0155080Y0112176D03*
X0158032Y0112176D03*
D25*
X0118913Y0108087D03*
X0111433Y0108087D03*
X0115173Y0099425D03*
D26*
X0114878Y0091551D03*
X0107594Y0091551D03*
D27*
X0107693Y0118323D03*
X0107693Y0127772D03*
X0141945Y0125803D03*
X0141945Y0116354D03*
D28*
X0112417Y0180528D03*
X0112417Y0186433D03*
X0112417Y0192339D03*
X0112417Y0198244D03*
X0106118Y0198244D03*
X0106118Y0192339D03*
X0106118Y0186433D03*
X0106118Y0180528D03*
D29*
X0142969Y0184701D03*
X0142969Y0188244D03*
X0142969Y0191787D03*
X0142969Y0195331D03*
X0147693Y0195331D03*
X0147693Y0191787D03*
X0147693Y0188244D03*
X0147693Y0184701D03*
D30*
X0138402Y0188795D03*
X0134071Y0188795D03*
X0134071Y0194307D03*
X0138402Y0194307D03*
D31*
X0167929Y0089583D03*
D32*
X0167929Y0099583D03*
X0167929Y0109583D03*
X0167929Y0119583D03*
X0167929Y0129583D03*
D33*
X0184071Y0081709D03*
X0111236Y0062024D03*
X0091551Y0197850D03*
X0168323Y0213598D03*
M02*
