G75*
%MOIN*%
%OFA0B0*%
%FSLAX25Y25*%
%IPPOS*%
%LPD*%
%AMOC8*
5,1,8,0,0,1.08239X$1,22.5*
%
%ADD10C,0.00787*%
%ADD11C,0.00000*%
%ADD12C,0.00500*%
%ADD13C,0.00200*%
D10*
X0001394Y0001394D02*
X0001394Y0275016D01*
X0275016Y0275016D01*
X0275016Y0001394D01*
X0001394Y0001394D01*
X0001394Y0070291D02*
X0275016Y0070291D01*
X0176591Y0001394D02*
X0176591Y0275016D01*
X0099819Y0275016D02*
X0099819Y0001394D01*
X0001394Y0206118D02*
X0275016Y0206118D01*
D11*
X0145094Y0080134D02*
X0145096Y0080222D01*
X0145102Y0080310D01*
X0145112Y0080398D01*
X0145126Y0080486D01*
X0145143Y0080572D01*
X0145165Y0080658D01*
X0145190Y0080742D01*
X0145220Y0080826D01*
X0145252Y0080908D01*
X0145289Y0080988D01*
X0145329Y0081067D01*
X0145373Y0081144D01*
X0145420Y0081219D01*
X0145470Y0081291D01*
X0145524Y0081362D01*
X0145580Y0081429D01*
X0145640Y0081495D01*
X0145702Y0081557D01*
X0145768Y0081617D01*
X0145835Y0081673D01*
X0145906Y0081727D01*
X0145978Y0081777D01*
X0146053Y0081824D01*
X0146130Y0081868D01*
X0146209Y0081908D01*
X0146289Y0081945D01*
X0146371Y0081977D01*
X0146455Y0082007D01*
X0146539Y0082032D01*
X0146625Y0082054D01*
X0146711Y0082071D01*
X0146799Y0082085D01*
X0146887Y0082095D01*
X0146975Y0082101D01*
X0147063Y0082103D01*
X0147151Y0082101D01*
X0147239Y0082095D01*
X0147327Y0082085D01*
X0147415Y0082071D01*
X0147501Y0082054D01*
X0147587Y0082032D01*
X0147671Y0082007D01*
X0147755Y0081977D01*
X0147837Y0081945D01*
X0147917Y0081908D01*
X0147996Y0081868D01*
X0148073Y0081824D01*
X0148148Y0081777D01*
X0148220Y0081727D01*
X0148291Y0081673D01*
X0148358Y0081617D01*
X0148424Y0081557D01*
X0148486Y0081495D01*
X0148546Y0081429D01*
X0148602Y0081362D01*
X0148656Y0081291D01*
X0148706Y0081219D01*
X0148753Y0081144D01*
X0148797Y0081067D01*
X0148837Y0080988D01*
X0148874Y0080908D01*
X0148906Y0080826D01*
X0148936Y0080742D01*
X0148961Y0080658D01*
X0148983Y0080572D01*
X0149000Y0080486D01*
X0149014Y0080398D01*
X0149024Y0080310D01*
X0149030Y0080222D01*
X0149032Y0080134D01*
X0149030Y0080046D01*
X0149024Y0079958D01*
X0149014Y0079870D01*
X0149000Y0079782D01*
X0148983Y0079696D01*
X0148961Y0079610D01*
X0148936Y0079526D01*
X0148906Y0079442D01*
X0148874Y0079360D01*
X0148837Y0079280D01*
X0148797Y0079201D01*
X0148753Y0079124D01*
X0148706Y0079049D01*
X0148656Y0078977D01*
X0148602Y0078906D01*
X0148546Y0078839D01*
X0148486Y0078773D01*
X0148424Y0078711D01*
X0148358Y0078651D01*
X0148291Y0078595D01*
X0148220Y0078541D01*
X0148148Y0078491D01*
X0148073Y0078444D01*
X0147996Y0078400D01*
X0147917Y0078360D01*
X0147837Y0078323D01*
X0147755Y0078291D01*
X0147671Y0078261D01*
X0147587Y0078236D01*
X0147501Y0078214D01*
X0147415Y0078197D01*
X0147327Y0078183D01*
X0147239Y0078173D01*
X0147151Y0078167D01*
X0147063Y0078165D01*
X0146975Y0078167D01*
X0146887Y0078173D01*
X0146799Y0078183D01*
X0146711Y0078197D01*
X0146625Y0078214D01*
X0146539Y0078236D01*
X0146455Y0078261D01*
X0146371Y0078291D01*
X0146289Y0078323D01*
X0146209Y0078360D01*
X0146130Y0078400D01*
X0146053Y0078444D01*
X0145978Y0078491D01*
X0145906Y0078541D01*
X0145835Y0078595D01*
X0145768Y0078651D01*
X0145702Y0078711D01*
X0145640Y0078773D01*
X0145580Y0078839D01*
X0145524Y0078906D01*
X0145470Y0078977D01*
X0145420Y0079049D01*
X0145373Y0079124D01*
X0145329Y0079201D01*
X0145289Y0079280D01*
X0145252Y0079360D01*
X0145220Y0079442D01*
X0145190Y0079526D01*
X0145165Y0079610D01*
X0145143Y0079696D01*
X0145126Y0079782D01*
X0145112Y0079870D01*
X0145102Y0079958D01*
X0145096Y0080046D01*
X0145094Y0080134D01*
X0127377Y0080134D02*
X0127379Y0080222D01*
X0127385Y0080310D01*
X0127395Y0080398D01*
X0127409Y0080486D01*
X0127426Y0080572D01*
X0127448Y0080658D01*
X0127473Y0080742D01*
X0127503Y0080826D01*
X0127535Y0080908D01*
X0127572Y0080988D01*
X0127612Y0081067D01*
X0127656Y0081144D01*
X0127703Y0081219D01*
X0127753Y0081291D01*
X0127807Y0081362D01*
X0127863Y0081429D01*
X0127923Y0081495D01*
X0127985Y0081557D01*
X0128051Y0081617D01*
X0128118Y0081673D01*
X0128189Y0081727D01*
X0128261Y0081777D01*
X0128336Y0081824D01*
X0128413Y0081868D01*
X0128492Y0081908D01*
X0128572Y0081945D01*
X0128654Y0081977D01*
X0128738Y0082007D01*
X0128822Y0082032D01*
X0128908Y0082054D01*
X0128994Y0082071D01*
X0129082Y0082085D01*
X0129170Y0082095D01*
X0129258Y0082101D01*
X0129346Y0082103D01*
X0129434Y0082101D01*
X0129522Y0082095D01*
X0129610Y0082085D01*
X0129698Y0082071D01*
X0129784Y0082054D01*
X0129870Y0082032D01*
X0129954Y0082007D01*
X0130038Y0081977D01*
X0130120Y0081945D01*
X0130200Y0081908D01*
X0130279Y0081868D01*
X0130356Y0081824D01*
X0130431Y0081777D01*
X0130503Y0081727D01*
X0130574Y0081673D01*
X0130641Y0081617D01*
X0130707Y0081557D01*
X0130769Y0081495D01*
X0130829Y0081429D01*
X0130885Y0081362D01*
X0130939Y0081291D01*
X0130989Y0081219D01*
X0131036Y0081144D01*
X0131080Y0081067D01*
X0131120Y0080988D01*
X0131157Y0080908D01*
X0131189Y0080826D01*
X0131219Y0080742D01*
X0131244Y0080658D01*
X0131266Y0080572D01*
X0131283Y0080486D01*
X0131297Y0080398D01*
X0131307Y0080310D01*
X0131313Y0080222D01*
X0131315Y0080134D01*
X0131313Y0080046D01*
X0131307Y0079958D01*
X0131297Y0079870D01*
X0131283Y0079782D01*
X0131266Y0079696D01*
X0131244Y0079610D01*
X0131219Y0079526D01*
X0131189Y0079442D01*
X0131157Y0079360D01*
X0131120Y0079280D01*
X0131080Y0079201D01*
X0131036Y0079124D01*
X0130989Y0079049D01*
X0130939Y0078977D01*
X0130885Y0078906D01*
X0130829Y0078839D01*
X0130769Y0078773D01*
X0130707Y0078711D01*
X0130641Y0078651D01*
X0130574Y0078595D01*
X0130503Y0078541D01*
X0130431Y0078491D01*
X0130356Y0078444D01*
X0130279Y0078400D01*
X0130200Y0078360D01*
X0130120Y0078323D01*
X0130038Y0078291D01*
X0129954Y0078261D01*
X0129870Y0078236D01*
X0129784Y0078214D01*
X0129698Y0078197D01*
X0129610Y0078183D01*
X0129522Y0078173D01*
X0129434Y0078167D01*
X0129346Y0078165D01*
X0129258Y0078167D01*
X0129170Y0078173D01*
X0129082Y0078183D01*
X0128994Y0078197D01*
X0128908Y0078214D01*
X0128822Y0078236D01*
X0128738Y0078261D01*
X0128654Y0078291D01*
X0128572Y0078323D01*
X0128492Y0078360D01*
X0128413Y0078400D01*
X0128336Y0078444D01*
X0128261Y0078491D01*
X0128189Y0078541D01*
X0128118Y0078595D01*
X0128051Y0078651D01*
X0127985Y0078711D01*
X0127923Y0078773D01*
X0127863Y0078839D01*
X0127807Y0078906D01*
X0127753Y0078977D01*
X0127703Y0079049D01*
X0127656Y0079124D01*
X0127612Y0079201D01*
X0127572Y0079280D01*
X0127535Y0079360D01*
X0127503Y0079442D01*
X0127473Y0079526D01*
X0127448Y0079610D01*
X0127426Y0079696D01*
X0127409Y0079782D01*
X0127395Y0079870D01*
X0127385Y0079958D01*
X0127379Y0080046D01*
X0127377Y0080134D01*
D12*
X0124039Y0140173D02*
X0118039Y0146173D01*
X0118039Y0153173D01*
X0148040Y0140173D02*
X0148363Y0140400D01*
X0148680Y0140635D01*
X0148992Y0140877D01*
X0149297Y0141127D01*
X0149597Y0141384D01*
X0149890Y0141648D01*
X0150177Y0141920D01*
X0150457Y0142198D01*
X0150730Y0142483D01*
X0150996Y0142774D01*
X0151255Y0143072D01*
X0151506Y0143376D01*
X0151751Y0143686D01*
X0151987Y0144002D01*
X0152216Y0144324D01*
X0152437Y0144651D01*
X0152650Y0144983D01*
X0152855Y0145320D01*
X0153052Y0145663D01*
X0153240Y0146009D01*
X0153420Y0146361D01*
X0153591Y0146716D01*
X0153754Y0147076D01*
X0153907Y0147439D01*
X0154052Y0147807D01*
X0154188Y0148177D01*
X0154315Y0148551D01*
X0154433Y0148928D01*
X0154542Y0149307D01*
X0154641Y0149689D01*
X0154731Y0150073D01*
X0154812Y0150460D01*
X0154883Y0150848D01*
X0154945Y0151237D01*
X0154998Y0151629D01*
X0155041Y0152021D01*
X0155074Y0152414D01*
X0155098Y0152808D01*
X0155112Y0153203D01*
X0155117Y0153597D01*
X0155112Y0153992D01*
X0155098Y0154386D01*
X0155074Y0154780D01*
X0155040Y0155174D01*
X0155040Y0175173D02*
X0155074Y0175567D01*
X0155098Y0175961D01*
X0155112Y0176355D01*
X0155117Y0176750D01*
X0155112Y0177144D01*
X0155098Y0177539D01*
X0155074Y0177933D01*
X0155041Y0178326D01*
X0154998Y0178718D01*
X0154945Y0179110D01*
X0154883Y0179499D01*
X0154812Y0179887D01*
X0154731Y0180274D01*
X0154641Y0180658D01*
X0154542Y0181040D01*
X0154433Y0181419D01*
X0154315Y0181796D01*
X0154188Y0182170D01*
X0154052Y0182540D01*
X0153907Y0182908D01*
X0153754Y0183271D01*
X0153591Y0183631D01*
X0153420Y0183986D01*
X0153240Y0184338D01*
X0153052Y0184684D01*
X0152855Y0185027D01*
X0152650Y0185364D01*
X0152437Y0185696D01*
X0152216Y0186023D01*
X0151987Y0186345D01*
X0151751Y0186661D01*
X0151506Y0186971D01*
X0151255Y0187275D01*
X0150996Y0187573D01*
X0150730Y0187864D01*
X0150457Y0188149D01*
X0150177Y0188427D01*
X0149890Y0188699D01*
X0149597Y0188963D01*
X0149297Y0189220D01*
X0148992Y0189470D01*
X0148680Y0189712D01*
X0148363Y0189947D01*
X0148040Y0190174D01*
X0124039Y0190173D02*
X0118039Y0184173D01*
X0118039Y0177173D01*
D13*
X0110943Y0169165D02*
X0110943Y0167460D01*
X0110943Y0168313D02*
X0113501Y0168313D01*
X0112648Y0167460D01*
X0113501Y0166628D02*
X0113501Y0164922D01*
X0113501Y0165775D02*
X0110943Y0165775D01*
X0110943Y0164090D02*
X0112648Y0164090D01*
X0113501Y0163238D01*
X0112648Y0162385D01*
X0110943Y0162385D01*
X0111369Y0161553D02*
X0110943Y0161126D01*
X0110943Y0159847D01*
X0113501Y0159847D01*
X0113501Y0161126D01*
X0113074Y0161553D01*
X0112648Y0161553D01*
X0112222Y0161126D01*
X0112222Y0159847D01*
X0112222Y0161126D02*
X0111795Y0161553D01*
X0111369Y0161553D01*
X0112222Y0162385D02*
X0112222Y0164090D01*
M02*
