G75*
%MOIN*%
%OFA0B0*%
%FSLAX25Y25*%
%IPPOS*%
%LPD*%
%AMOC8*
5,1,8,0,0,1.08239X$1,22.5*
%
%ADD10C,0.00787*%
%ADD11C,0.06600*%
%ADD12C,0.00000*%
%ADD13C,0.40000*%
%ADD14R,0.20000X0.10000*%
%ADD15R,0.06500X0.06500*%
%ADD16C,0.06500*%
%ADD17C,0.01600*%
%ADD18C,0.02381*%
%ADD19C,0.00800*%
%ADD20C,0.01200*%
D10*
X0001394Y0001394D02*
X0001394Y0275016D01*
X0275016Y0275016D01*
X0275016Y0001394D01*
X0001394Y0001394D01*
X0001394Y0070291D02*
X0275016Y0070291D01*
X0176591Y0001394D02*
X0176591Y0275016D01*
X0099819Y0275016D02*
X0099819Y0001394D01*
X0001394Y0206118D02*
X0275016Y0206118D01*
D11*
X0160646Y0083434D02*
X0160646Y0076834D01*
X0115764Y0076834D02*
X0115764Y0083434D01*
D12*
X0127377Y0080134D02*
X0127379Y0080222D01*
X0127385Y0080310D01*
X0127395Y0080398D01*
X0127409Y0080486D01*
X0127426Y0080572D01*
X0127448Y0080658D01*
X0127473Y0080742D01*
X0127503Y0080826D01*
X0127535Y0080908D01*
X0127572Y0080988D01*
X0127612Y0081067D01*
X0127656Y0081144D01*
X0127703Y0081219D01*
X0127753Y0081291D01*
X0127807Y0081362D01*
X0127863Y0081429D01*
X0127923Y0081495D01*
X0127985Y0081557D01*
X0128051Y0081617D01*
X0128118Y0081673D01*
X0128189Y0081727D01*
X0128261Y0081777D01*
X0128336Y0081824D01*
X0128413Y0081868D01*
X0128492Y0081908D01*
X0128572Y0081945D01*
X0128654Y0081977D01*
X0128738Y0082007D01*
X0128822Y0082032D01*
X0128908Y0082054D01*
X0128994Y0082071D01*
X0129082Y0082085D01*
X0129170Y0082095D01*
X0129258Y0082101D01*
X0129346Y0082103D01*
X0129434Y0082101D01*
X0129522Y0082095D01*
X0129610Y0082085D01*
X0129698Y0082071D01*
X0129784Y0082054D01*
X0129870Y0082032D01*
X0129954Y0082007D01*
X0130038Y0081977D01*
X0130120Y0081945D01*
X0130200Y0081908D01*
X0130279Y0081868D01*
X0130356Y0081824D01*
X0130431Y0081777D01*
X0130503Y0081727D01*
X0130574Y0081673D01*
X0130641Y0081617D01*
X0130707Y0081557D01*
X0130769Y0081495D01*
X0130829Y0081429D01*
X0130885Y0081362D01*
X0130939Y0081291D01*
X0130989Y0081219D01*
X0131036Y0081144D01*
X0131080Y0081067D01*
X0131120Y0080988D01*
X0131157Y0080908D01*
X0131189Y0080826D01*
X0131219Y0080742D01*
X0131244Y0080658D01*
X0131266Y0080572D01*
X0131283Y0080486D01*
X0131297Y0080398D01*
X0131307Y0080310D01*
X0131313Y0080222D01*
X0131315Y0080134D01*
X0131313Y0080046D01*
X0131307Y0079958D01*
X0131297Y0079870D01*
X0131283Y0079782D01*
X0131266Y0079696D01*
X0131244Y0079610D01*
X0131219Y0079526D01*
X0131189Y0079442D01*
X0131157Y0079360D01*
X0131120Y0079280D01*
X0131080Y0079201D01*
X0131036Y0079124D01*
X0130989Y0079049D01*
X0130939Y0078977D01*
X0130885Y0078906D01*
X0130829Y0078839D01*
X0130769Y0078773D01*
X0130707Y0078711D01*
X0130641Y0078651D01*
X0130574Y0078595D01*
X0130503Y0078541D01*
X0130431Y0078491D01*
X0130356Y0078444D01*
X0130279Y0078400D01*
X0130200Y0078360D01*
X0130120Y0078323D01*
X0130038Y0078291D01*
X0129954Y0078261D01*
X0129870Y0078236D01*
X0129784Y0078214D01*
X0129698Y0078197D01*
X0129610Y0078183D01*
X0129522Y0078173D01*
X0129434Y0078167D01*
X0129346Y0078165D01*
X0129258Y0078167D01*
X0129170Y0078173D01*
X0129082Y0078183D01*
X0128994Y0078197D01*
X0128908Y0078214D01*
X0128822Y0078236D01*
X0128738Y0078261D01*
X0128654Y0078291D01*
X0128572Y0078323D01*
X0128492Y0078360D01*
X0128413Y0078400D01*
X0128336Y0078444D01*
X0128261Y0078491D01*
X0128189Y0078541D01*
X0128118Y0078595D01*
X0128051Y0078651D01*
X0127985Y0078711D01*
X0127923Y0078773D01*
X0127863Y0078839D01*
X0127807Y0078906D01*
X0127753Y0078977D01*
X0127703Y0079049D01*
X0127656Y0079124D01*
X0127612Y0079201D01*
X0127572Y0079280D01*
X0127535Y0079360D01*
X0127503Y0079442D01*
X0127473Y0079526D01*
X0127448Y0079610D01*
X0127426Y0079696D01*
X0127409Y0079782D01*
X0127395Y0079870D01*
X0127385Y0079958D01*
X0127379Y0080046D01*
X0127377Y0080134D01*
X0145094Y0080134D02*
X0145096Y0080222D01*
X0145102Y0080310D01*
X0145112Y0080398D01*
X0145126Y0080486D01*
X0145143Y0080572D01*
X0145165Y0080658D01*
X0145190Y0080742D01*
X0145220Y0080826D01*
X0145252Y0080908D01*
X0145289Y0080988D01*
X0145329Y0081067D01*
X0145373Y0081144D01*
X0145420Y0081219D01*
X0145470Y0081291D01*
X0145524Y0081362D01*
X0145580Y0081429D01*
X0145640Y0081495D01*
X0145702Y0081557D01*
X0145768Y0081617D01*
X0145835Y0081673D01*
X0145906Y0081727D01*
X0145978Y0081777D01*
X0146053Y0081824D01*
X0146130Y0081868D01*
X0146209Y0081908D01*
X0146289Y0081945D01*
X0146371Y0081977D01*
X0146455Y0082007D01*
X0146539Y0082032D01*
X0146625Y0082054D01*
X0146711Y0082071D01*
X0146799Y0082085D01*
X0146887Y0082095D01*
X0146975Y0082101D01*
X0147063Y0082103D01*
X0147151Y0082101D01*
X0147239Y0082095D01*
X0147327Y0082085D01*
X0147415Y0082071D01*
X0147501Y0082054D01*
X0147587Y0082032D01*
X0147671Y0082007D01*
X0147755Y0081977D01*
X0147837Y0081945D01*
X0147917Y0081908D01*
X0147996Y0081868D01*
X0148073Y0081824D01*
X0148148Y0081777D01*
X0148220Y0081727D01*
X0148291Y0081673D01*
X0148358Y0081617D01*
X0148424Y0081557D01*
X0148486Y0081495D01*
X0148546Y0081429D01*
X0148602Y0081362D01*
X0148656Y0081291D01*
X0148706Y0081219D01*
X0148753Y0081144D01*
X0148797Y0081067D01*
X0148837Y0080988D01*
X0148874Y0080908D01*
X0148906Y0080826D01*
X0148936Y0080742D01*
X0148961Y0080658D01*
X0148983Y0080572D01*
X0149000Y0080486D01*
X0149014Y0080398D01*
X0149024Y0080310D01*
X0149030Y0080222D01*
X0149032Y0080134D01*
X0149030Y0080046D01*
X0149024Y0079958D01*
X0149014Y0079870D01*
X0149000Y0079782D01*
X0148983Y0079696D01*
X0148961Y0079610D01*
X0148936Y0079526D01*
X0148906Y0079442D01*
X0148874Y0079360D01*
X0148837Y0079280D01*
X0148797Y0079201D01*
X0148753Y0079124D01*
X0148706Y0079049D01*
X0148656Y0078977D01*
X0148602Y0078906D01*
X0148546Y0078839D01*
X0148486Y0078773D01*
X0148424Y0078711D01*
X0148358Y0078651D01*
X0148291Y0078595D01*
X0148220Y0078541D01*
X0148148Y0078491D01*
X0148073Y0078444D01*
X0147996Y0078400D01*
X0147917Y0078360D01*
X0147837Y0078323D01*
X0147755Y0078291D01*
X0147671Y0078261D01*
X0147587Y0078236D01*
X0147501Y0078214D01*
X0147415Y0078197D01*
X0147327Y0078183D01*
X0147239Y0078173D01*
X0147151Y0078167D01*
X0147063Y0078165D01*
X0146975Y0078167D01*
X0146887Y0078173D01*
X0146799Y0078183D01*
X0146711Y0078197D01*
X0146625Y0078214D01*
X0146539Y0078236D01*
X0146455Y0078261D01*
X0146371Y0078291D01*
X0146289Y0078323D01*
X0146209Y0078360D01*
X0146130Y0078400D01*
X0146053Y0078444D01*
X0145978Y0078491D01*
X0145906Y0078541D01*
X0145835Y0078595D01*
X0145768Y0078651D01*
X0145702Y0078711D01*
X0145640Y0078773D01*
X0145580Y0078839D01*
X0145524Y0078906D01*
X0145470Y0078977D01*
X0145420Y0079049D01*
X0145373Y0079124D01*
X0145329Y0079201D01*
X0145289Y0079280D01*
X0145252Y0079360D01*
X0145220Y0079442D01*
X0145190Y0079526D01*
X0145165Y0079610D01*
X0145143Y0079696D01*
X0145126Y0079782D01*
X0145112Y0079870D01*
X0145102Y0079958D01*
X0145096Y0080046D01*
X0145094Y0080134D01*
D13*
X0136039Y0165173D03*
D14*
X0136039Y0135173D03*
X0136039Y0195173D03*
D15*
X0167929Y0090370D03*
D16*
X0167929Y0100370D03*
X0167929Y0110370D03*
X0167929Y0120370D03*
X0167929Y0130370D03*
D17*
X0163139Y0127170D02*
X0164729Y0125580D01*
X0165236Y0125370D01*
X0164729Y0125160D01*
X0163139Y0123571D01*
X0162279Y0121494D01*
X0162279Y0119246D01*
X0163139Y0117170D01*
X0164729Y0115580D01*
X0165236Y0115370D01*
X0164729Y0115160D01*
X0163139Y0113571D01*
X0162279Y0111494D01*
X0162279Y0109246D01*
X0163139Y0107170D01*
X0164729Y0105580D01*
X0165236Y0105370D01*
X0164729Y0105160D01*
X0163139Y0103571D01*
X0162279Y0101494D01*
X0162279Y0099246D01*
X0163139Y0097170D01*
X0164729Y0095580D01*
X0165115Y0095420D01*
X0164442Y0095420D01*
X0163984Y0095297D01*
X0163574Y0095060D01*
X0163239Y0094725D01*
X0163002Y0094315D01*
X0162879Y0093857D01*
X0162879Y0090445D01*
X0167854Y0090445D01*
X0167854Y0090295D01*
X0162879Y0090295D01*
X0162879Y0088678D01*
X0161779Y0089134D01*
X0159512Y0089134D01*
X0157417Y0088266D01*
X0155813Y0086663D01*
X0154946Y0084568D01*
X0154946Y0075700D01*
X0155813Y0073605D01*
X0156333Y0073085D01*
X0120076Y0073085D01*
X0120596Y0073605D01*
X0121464Y0075700D01*
X0121464Y0084568D01*
X0120596Y0086663D01*
X0118993Y0088266D01*
X0116898Y0089134D01*
X0114630Y0089134D01*
X0112535Y0088266D01*
X0110932Y0086663D01*
X0110064Y0084568D01*
X0110064Y0075700D01*
X0110932Y0073605D01*
X0111452Y0073085D01*
X0102613Y0073085D01*
X0102613Y0203324D01*
X0173797Y0203324D01*
X0173797Y0182004D01*
X0163252Y0182004D01*
X0163252Y0182423D01*
X0162705Y0183743D01*
X0161695Y0184753D01*
X0160376Y0185299D01*
X0158947Y0185299D01*
X0157628Y0184753D01*
X0156617Y0183743D01*
X0156071Y0182423D01*
X0156071Y0180994D01*
X0156617Y0179675D01*
X0157628Y0178665D01*
X0157649Y0178656D01*
X0157649Y0168092D01*
X0157437Y0169429D01*
X0157037Y0171095D01*
X0156508Y0172724D01*
X0155852Y0174307D01*
X0155074Y0175833D01*
X0154179Y0177294D01*
X0153172Y0178680D01*
X0152060Y0179982D01*
X0150849Y0181194D01*
X0149546Y0182306D01*
X0148160Y0183313D01*
X0146700Y0184208D01*
X0145173Y0184986D01*
X0143591Y0185642D01*
X0141961Y0186171D01*
X0140296Y0186571D01*
X0138604Y0186839D01*
X0136896Y0186973D01*
X0136839Y0186973D01*
X0136839Y0165973D01*
X0135239Y0165973D01*
X0135239Y0164373D01*
X0114239Y0164373D01*
X0114239Y0164317D01*
X0114374Y0162609D01*
X0114642Y0160917D01*
X0115042Y0159251D01*
X0115045Y0159242D01*
X0113919Y0159709D01*
X0112491Y0159709D01*
X0111171Y0159162D01*
X0110161Y0158152D01*
X0109614Y0156832D01*
X0109614Y0155404D01*
X0110161Y0154084D01*
X0111171Y0153074D01*
X0111735Y0152840D01*
X0119492Y0145083D01*
X0120280Y0144296D01*
X0121309Y0143869D01*
X0121557Y0143869D01*
X0121801Y0143625D01*
X0123120Y0143079D01*
X0124549Y0143079D01*
X0125869Y0143625D01*
X0126879Y0144635D01*
X0127139Y0145264D01*
X0128488Y0144705D01*
X0130117Y0144176D01*
X0131783Y0143776D01*
X0133475Y0143508D01*
X0135183Y0143373D01*
X0135239Y0143373D01*
X0135239Y0164373D01*
X0136839Y0164373D01*
X0136839Y0143373D01*
X0136896Y0143373D01*
X0138604Y0143508D01*
X0140296Y0143776D01*
X0141961Y0144176D01*
X0143591Y0144705D01*
X0145173Y0145360D01*
X0146700Y0146138D01*
X0148160Y0147033D01*
X0149546Y0148040D01*
X0150849Y0149153D01*
X0152060Y0150364D01*
X0153172Y0151667D01*
X0154179Y0153052D01*
X0155074Y0154513D01*
X0155852Y0156039D01*
X0156508Y0157622D01*
X0156518Y0157654D01*
X0157649Y0157654D01*
X0157649Y0149404D01*
X0157465Y0149220D01*
X0157365Y0149320D01*
X0156045Y0149866D01*
X0154616Y0149866D01*
X0153297Y0149320D01*
X0152287Y0148309D01*
X0151740Y0146990D01*
X0151740Y0145561D01*
X0152287Y0144242D01*
X0152531Y0143998D01*
X0152531Y0141782D01*
X0152957Y0140753D01*
X0153745Y0139965D01*
X0154893Y0138817D01*
X0154893Y0136412D01*
X0151776Y0133295D01*
X0151453Y0132515D01*
X0151106Y0132168D01*
X0150559Y0130848D01*
X0150559Y0129420D01*
X0151106Y0128100D01*
X0152116Y0127090D01*
X0153435Y0126543D01*
X0154864Y0126543D01*
X0155921Y0126981D01*
X0156979Y0126543D01*
X0158407Y0126543D01*
X0159727Y0127090D01*
X0160737Y0128100D01*
X0161283Y0129420D01*
X0161283Y0130458D01*
X0162279Y0129462D01*
X0162279Y0129246D01*
X0163139Y0127170D01*
X0162929Y0127676D02*
X0160313Y0127676D01*
X0161223Y0129275D02*
X0162279Y0129275D01*
X0164231Y0126078D02*
X0138446Y0126078D01*
X0138446Y0125719D02*
X0138446Y0127773D01*
X0146517Y0127773D01*
X0147399Y0128139D01*
X0148074Y0128814D01*
X0148439Y0129696D01*
X0148439Y0140651D01*
X0148074Y0141533D01*
X0147399Y0142208D01*
X0146517Y0142573D01*
X0125562Y0142573D01*
X0124680Y0142208D01*
X0124005Y0141533D01*
X0123639Y0140651D01*
X0123639Y0131753D01*
X0117928Y0131753D01*
X0117430Y0132955D01*
X0116420Y0133965D01*
X0115100Y0134512D01*
X0113672Y0134512D01*
X0112352Y0133965D01*
X0111342Y0132955D01*
X0110795Y0131635D01*
X0110795Y0130207D01*
X0111342Y0128887D01*
X0112352Y0127877D01*
X0113672Y0127331D01*
X0114017Y0127331D01*
X0114768Y0126579D01*
X0115797Y0126153D01*
X0120256Y0126153D01*
X0120244Y0126124D01*
X0120244Y0124695D01*
X0120791Y0123376D01*
X0121801Y0122366D01*
X0122216Y0122194D01*
X0122216Y0105309D01*
X0119528Y0102622D01*
X0119183Y0102622D01*
X0117864Y0102075D01*
X0116854Y0101065D01*
X0116307Y0099746D01*
X0116307Y0098317D01*
X0116854Y0096998D01*
X0117864Y0095988D01*
X0119183Y0095441D01*
X0120612Y0095441D01*
X0121932Y0095988D01*
X0122942Y0096998D01*
X0123488Y0098317D01*
X0123488Y0098662D01*
X0127389Y0102564D01*
X0127816Y0103593D01*
X0127816Y0117882D01*
X0128092Y0117882D01*
X0129150Y0118320D01*
X0130207Y0117882D01*
X0130552Y0117882D01*
X0132055Y0116379D01*
X0132055Y0116034D01*
X0132602Y0114714D01*
X0133612Y0113704D01*
X0134931Y0113157D01*
X0136360Y0113157D01*
X0137680Y0113704D01*
X0138690Y0114714D01*
X0139236Y0116034D01*
X0139236Y0117462D01*
X0138690Y0118782D01*
X0137680Y0119792D01*
X0136949Y0120094D01*
X0137680Y0120397D01*
X0138690Y0121407D01*
X0139236Y0122727D01*
X0139236Y0124155D01*
X0138690Y0125475D01*
X0138446Y0125719D01*
X0139102Y0124479D02*
X0164048Y0124479D01*
X0162854Y0122881D02*
X0139236Y0122881D01*
X0138565Y0121282D02*
X0162279Y0121282D01*
X0162279Y0119684D02*
X0137788Y0119684D01*
X0138978Y0118085D02*
X0162760Y0118085D01*
X0163822Y0116487D02*
X0139236Y0116487D01*
X0138762Y0114888D02*
X0164457Y0114888D01*
X0163023Y0113289D02*
X0136679Y0113289D01*
X0134613Y0113289D02*
X0127816Y0113289D01*
X0127816Y0111691D02*
X0162361Y0111691D01*
X0162279Y0110092D02*
X0127816Y0110092D01*
X0127816Y0108494D02*
X0162591Y0108494D01*
X0163413Y0106895D02*
X0127816Y0106895D01*
X0127816Y0105297D02*
X0131321Y0105297D01*
X0131643Y0105619D02*
X0130633Y0104609D01*
X0130087Y0103289D01*
X0130087Y0101861D01*
X0130633Y0100541D01*
X0130677Y0100497D01*
X0130677Y0097254D01*
X0131134Y0096151D01*
X0134734Y0092551D01*
X0135836Y0092094D01*
X0144985Y0092094D01*
X0145029Y0092051D01*
X0146349Y0091504D01*
X0147777Y0091504D01*
X0149097Y0092051D01*
X0150107Y0093061D01*
X0150654Y0094380D01*
X0150654Y0095809D01*
X0150107Y0097128D01*
X0149097Y0098138D01*
X0147777Y0098685D01*
X0146349Y0098685D01*
X0145029Y0098138D01*
X0144985Y0098094D01*
X0137676Y0098094D01*
X0136677Y0099093D01*
X0136677Y0100497D01*
X0136721Y0100541D01*
X0137268Y0101861D01*
X0137268Y0103289D01*
X0136721Y0104609D01*
X0135711Y0105619D01*
X0134391Y0106165D01*
X0132963Y0106165D01*
X0131643Y0105619D01*
X0130256Y0103698D02*
X0127816Y0103698D01*
X0126926Y0102100D02*
X0130087Y0102100D01*
X0130673Y0100501D02*
X0125327Y0100501D01*
X0123729Y0098903D02*
X0130677Y0098903D01*
X0130677Y0097304D02*
X0123069Y0097304D01*
X0121251Y0095706D02*
X0131579Y0095706D01*
X0133178Y0094107D02*
X0102613Y0094107D01*
X0102613Y0092509D02*
X0134836Y0092509D01*
X0136867Y0098903D02*
X0162421Y0098903D01*
X0162279Y0100501D02*
X0136682Y0100501D01*
X0137268Y0102100D02*
X0162530Y0102100D01*
X0163267Y0103698D02*
X0137098Y0103698D01*
X0136033Y0105297D02*
X0165060Y0105297D01*
X0170622Y0105370D02*
X0171130Y0105580D01*
X0172719Y0107170D01*
X0173579Y0109246D01*
X0173579Y0111494D01*
X0172719Y0113571D01*
X0171130Y0115160D01*
X0170622Y0115370D01*
X0171130Y0115580D01*
X0172719Y0117170D01*
X0173579Y0119246D01*
X0173579Y0121494D01*
X0172719Y0123571D01*
X0171130Y0125160D01*
X0170622Y0125370D01*
X0171130Y0125580D01*
X0172719Y0127170D01*
X0173579Y0129246D01*
X0173579Y0130547D01*
X0173797Y0130547D01*
X0173797Y0073085D01*
X0164958Y0073085D01*
X0165478Y0073605D01*
X0166346Y0075700D01*
X0166346Y0084568D01*
X0166034Y0085320D01*
X0167854Y0085320D01*
X0167854Y0090295D01*
X0168004Y0090295D01*
X0168004Y0085320D01*
X0171416Y0085320D01*
X0171874Y0085443D01*
X0172284Y0085680D01*
X0172619Y0086015D01*
X0172856Y0086425D01*
X0172979Y0086883D01*
X0172979Y0090295D01*
X0168004Y0090295D01*
X0168004Y0090445D01*
X0172979Y0090445D01*
X0172979Y0093857D01*
X0172856Y0094315D01*
X0172619Y0094725D01*
X0172284Y0095060D01*
X0171874Y0095297D01*
X0171416Y0095420D01*
X0170743Y0095420D01*
X0171130Y0095580D01*
X0172719Y0097170D01*
X0173579Y0099246D01*
X0173579Y0101494D01*
X0172719Y0103571D01*
X0171130Y0105160D01*
X0170622Y0105370D01*
X0170799Y0105297D02*
X0173797Y0105297D01*
X0173797Y0106895D02*
X0172445Y0106895D01*
X0173268Y0108494D02*
X0173797Y0108494D01*
X0173797Y0110092D02*
X0173579Y0110092D01*
X0173498Y0111691D02*
X0173797Y0111691D01*
X0173797Y0113289D02*
X0172835Y0113289D01*
X0173797Y0114888D02*
X0171401Y0114888D01*
X0172036Y0116487D02*
X0173797Y0116487D01*
X0173797Y0118085D02*
X0173098Y0118085D01*
X0173579Y0119684D02*
X0173797Y0119684D01*
X0173797Y0121282D02*
X0173579Y0121282D01*
X0173797Y0122881D02*
X0173005Y0122881D01*
X0173797Y0124479D02*
X0171810Y0124479D01*
X0171627Y0126078D02*
X0173797Y0126078D01*
X0173797Y0127676D02*
X0172929Y0127676D01*
X0173579Y0129275D02*
X0173797Y0129275D01*
X0154893Y0137267D02*
X0148439Y0137267D01*
X0148439Y0135669D02*
X0154150Y0135669D01*
X0152551Y0134070D02*
X0148439Y0134070D01*
X0148439Y0132472D02*
X0151410Y0132472D01*
X0150569Y0130873D02*
X0148439Y0130873D01*
X0148265Y0129275D02*
X0150619Y0129275D01*
X0151530Y0127676D02*
X0138446Y0127676D01*
X0131947Y0116487D02*
X0127816Y0116487D01*
X0127816Y0114888D02*
X0132530Y0114888D01*
X0129717Y0118085D02*
X0128583Y0118085D01*
X0122216Y0118085D02*
X0102613Y0118085D01*
X0102613Y0116487D02*
X0122216Y0116487D01*
X0122216Y0114888D02*
X0102613Y0114888D01*
X0102613Y0113289D02*
X0122216Y0113289D01*
X0122216Y0111691D02*
X0102613Y0111691D01*
X0102613Y0110092D02*
X0122216Y0110092D01*
X0122216Y0108494D02*
X0102613Y0108494D01*
X0102613Y0106895D02*
X0122216Y0106895D01*
X0122203Y0105297D02*
X0102613Y0105297D01*
X0102613Y0103698D02*
X0120605Y0103698D01*
X0117923Y0102100D02*
X0102613Y0102100D01*
X0102613Y0100501D02*
X0116620Y0100501D01*
X0116307Y0098903D02*
X0102613Y0098903D01*
X0102613Y0097304D02*
X0116727Y0097304D01*
X0118544Y0095706D02*
X0102613Y0095706D01*
X0102613Y0090910D02*
X0162879Y0090910D01*
X0162879Y0089312D02*
X0102613Y0089312D01*
X0102613Y0087713D02*
X0111982Y0087713D01*
X0110705Y0086115D02*
X0102613Y0086115D01*
X0102613Y0084516D02*
X0110064Y0084516D01*
X0110064Y0082918D02*
X0102613Y0082918D01*
X0102613Y0081319D02*
X0110064Y0081319D01*
X0110064Y0079721D02*
X0102613Y0079721D01*
X0102613Y0078122D02*
X0110064Y0078122D01*
X0110064Y0076524D02*
X0102613Y0076524D01*
X0102613Y0074925D02*
X0110385Y0074925D01*
X0111210Y0073327D02*
X0102613Y0073327D01*
X0120318Y0073327D02*
X0156092Y0073327D01*
X0155267Y0074925D02*
X0121143Y0074925D01*
X0121464Y0076524D02*
X0126779Y0076524D01*
X0126872Y0076430D02*
X0128477Y0075765D01*
X0130215Y0075765D01*
X0131821Y0076430D01*
X0133050Y0077659D01*
X0133715Y0079265D01*
X0133715Y0081003D01*
X0133050Y0082608D01*
X0131821Y0083837D01*
X0130215Y0084502D01*
X0128477Y0084502D01*
X0126872Y0083837D01*
X0125643Y0082608D01*
X0124978Y0081003D01*
X0124978Y0079265D01*
X0125643Y0077659D01*
X0126872Y0076430D01*
X0125451Y0078122D02*
X0121464Y0078122D01*
X0121464Y0079721D02*
X0124978Y0079721D01*
X0125109Y0081319D02*
X0121464Y0081319D01*
X0121464Y0082918D02*
X0125952Y0082918D01*
X0121464Y0084516D02*
X0154946Y0084516D01*
X0154946Y0082918D02*
X0150457Y0082918D01*
X0150766Y0082608D02*
X0149538Y0083837D01*
X0147932Y0084502D01*
X0146194Y0084502D01*
X0144588Y0083837D01*
X0143360Y0082608D01*
X0142694Y0081003D01*
X0142694Y0079265D01*
X0143360Y0077659D01*
X0144588Y0076430D01*
X0146194Y0075765D01*
X0147932Y0075765D01*
X0149538Y0076430D01*
X0150766Y0077659D01*
X0151431Y0079265D01*
X0151431Y0081003D01*
X0150766Y0082608D01*
X0151300Y0081319D02*
X0154946Y0081319D01*
X0154946Y0079721D02*
X0151431Y0079721D01*
X0150958Y0078122D02*
X0154946Y0078122D01*
X0154946Y0076524D02*
X0149631Y0076524D01*
X0144495Y0076524D02*
X0131914Y0076524D01*
X0133242Y0078122D02*
X0143168Y0078122D01*
X0142694Y0079721D02*
X0133715Y0079721D01*
X0133584Y0081319D02*
X0142826Y0081319D01*
X0143669Y0082918D02*
X0132741Y0082918D01*
X0120823Y0086115D02*
X0155587Y0086115D01*
X0156864Y0087713D02*
X0119545Y0087713D01*
X0149555Y0092509D02*
X0162879Y0092509D01*
X0162946Y0094107D02*
X0150540Y0094107D01*
X0150654Y0095706D02*
X0164603Y0095706D01*
X0163083Y0097304D02*
X0149931Y0097304D01*
X0167854Y0089312D02*
X0168004Y0089312D01*
X0168004Y0087713D02*
X0167854Y0087713D01*
X0167854Y0086115D02*
X0168004Y0086115D01*
X0166346Y0084516D02*
X0173797Y0084516D01*
X0173797Y0082918D02*
X0166346Y0082918D01*
X0166346Y0081319D02*
X0173797Y0081319D01*
X0173797Y0079721D02*
X0166346Y0079721D01*
X0166346Y0078122D02*
X0173797Y0078122D01*
X0173797Y0076524D02*
X0166346Y0076524D01*
X0166025Y0074925D02*
X0173797Y0074925D01*
X0173797Y0073327D02*
X0165200Y0073327D01*
X0172677Y0086115D02*
X0173797Y0086115D01*
X0173797Y0087713D02*
X0172979Y0087713D01*
X0172979Y0089312D02*
X0173797Y0089312D01*
X0173797Y0090910D02*
X0172979Y0090910D01*
X0172979Y0092509D02*
X0173797Y0092509D01*
X0173797Y0094107D02*
X0172912Y0094107D01*
X0173797Y0095706D02*
X0171255Y0095706D01*
X0172775Y0097304D02*
X0173797Y0097304D01*
X0173797Y0098903D02*
X0173437Y0098903D01*
X0173579Y0100501D02*
X0173797Y0100501D01*
X0173797Y0102100D02*
X0173328Y0102100D01*
X0173797Y0103698D02*
X0172591Y0103698D01*
X0154844Y0138866D02*
X0148439Y0138866D01*
X0148439Y0140464D02*
X0153245Y0140464D01*
X0153745Y0139965D02*
X0153745Y0139965D01*
X0152531Y0142063D02*
X0147544Y0142063D01*
X0144930Y0145260D02*
X0151865Y0145260D01*
X0151740Y0146858D02*
X0147875Y0146858D01*
X0150034Y0148457D02*
X0152434Y0148457D01*
X0151751Y0150055D02*
X0157649Y0150055D01*
X0157649Y0151654D02*
X0153162Y0151654D01*
X0154302Y0153252D02*
X0157649Y0153252D01*
X0157649Y0154851D02*
X0155247Y0154851D01*
X0156022Y0156449D02*
X0157649Y0156449D01*
X0157649Y0169237D02*
X0157467Y0169237D01*
X0157649Y0170836D02*
X0157099Y0170836D01*
X0156602Y0172434D02*
X0157649Y0172434D01*
X0157649Y0174033D02*
X0155966Y0174033D01*
X0155177Y0175631D02*
X0157649Y0175631D01*
X0157649Y0177230D02*
X0154219Y0177230D01*
X0153046Y0178828D02*
X0157464Y0178828D01*
X0156306Y0180427D02*
X0151615Y0180427D01*
X0149875Y0182025D02*
X0156071Y0182025D01*
X0156568Y0183624D02*
X0147653Y0183624D01*
X0144602Y0185223D02*
X0158762Y0185223D01*
X0160561Y0185223D02*
X0173797Y0185223D01*
X0173797Y0186821D02*
X0138716Y0186821D01*
X0136839Y0186821D02*
X0135239Y0186821D01*
X0135239Y0186973D02*
X0135183Y0186973D01*
X0133475Y0186839D01*
X0131783Y0186571D01*
X0130117Y0186171D01*
X0128488Y0185642D01*
X0126906Y0184986D01*
X0125379Y0184208D01*
X0123919Y0183313D01*
X0122533Y0182306D01*
X0121230Y0181194D01*
X0120019Y0179982D01*
X0118906Y0178680D01*
X0117899Y0177294D01*
X0117004Y0175833D01*
X0116227Y0174307D01*
X0115571Y0172724D01*
X0115042Y0171095D01*
X0114642Y0169429D01*
X0114374Y0167738D01*
X0114239Y0166030D01*
X0114239Y0165973D01*
X0135239Y0165973D01*
X0135239Y0186973D01*
X0135239Y0185223D02*
X0136839Y0185223D01*
X0136839Y0183624D02*
X0135239Y0183624D01*
X0135239Y0182025D02*
X0136839Y0182025D01*
X0136839Y0180427D02*
X0135239Y0180427D01*
X0135239Y0178828D02*
X0136839Y0178828D01*
X0136839Y0177230D02*
X0135239Y0177230D01*
X0135239Y0175631D02*
X0136839Y0175631D01*
X0136839Y0174033D02*
X0135239Y0174033D01*
X0135239Y0172434D02*
X0136839Y0172434D01*
X0136839Y0170836D02*
X0135239Y0170836D01*
X0135239Y0169237D02*
X0136839Y0169237D01*
X0136839Y0167639D02*
X0135239Y0167639D01*
X0135239Y0166040D02*
X0136839Y0166040D01*
X0135239Y0164442D02*
X0102613Y0164442D01*
X0102613Y0166040D02*
X0114240Y0166040D01*
X0114366Y0167639D02*
X0102613Y0167639D01*
X0102613Y0169237D02*
X0114611Y0169237D01*
X0114979Y0170836D02*
X0102613Y0170836D01*
X0102613Y0172434D02*
X0115477Y0172434D01*
X0116113Y0174033D02*
X0102613Y0174033D01*
X0102613Y0175631D02*
X0116901Y0175631D01*
X0117860Y0177230D02*
X0102613Y0177230D01*
X0102613Y0178828D02*
X0119033Y0178828D01*
X0120463Y0180427D02*
X0102613Y0180427D01*
X0102613Y0182025D02*
X0122204Y0182025D01*
X0124426Y0183624D02*
X0102613Y0183624D01*
X0102613Y0185223D02*
X0127476Y0185223D01*
X0125562Y0187773D02*
X0124680Y0188139D01*
X0124005Y0188814D01*
X0123639Y0189696D01*
X0123639Y0200651D01*
X0124005Y0201533D01*
X0124680Y0202208D01*
X0125562Y0202573D01*
X0146517Y0202573D01*
X0147399Y0202208D01*
X0147769Y0201838D01*
X0148711Y0202228D01*
X0150139Y0202228D01*
X0151459Y0201682D01*
X0152469Y0200672D01*
X0153016Y0199352D01*
X0153016Y0197924D01*
X0152989Y0197859D01*
X0154215Y0197351D01*
X0155225Y0196341D01*
X0155772Y0195021D01*
X0155772Y0193593D01*
X0155225Y0192273D01*
X0154215Y0191263D01*
X0152895Y0190717D01*
X0151467Y0190717D01*
X0150147Y0191263D01*
X0149137Y0192273D01*
X0148903Y0192838D01*
X0148439Y0193302D01*
X0148439Y0189696D01*
X0148074Y0188814D01*
X0147399Y0188139D01*
X0146517Y0187773D01*
X0125562Y0187773D01*
X0124399Y0188420D02*
X0102613Y0188420D01*
X0102613Y0190018D02*
X0123639Y0190018D01*
X0123639Y0191617D02*
X0102613Y0191617D01*
X0102613Y0193215D02*
X0123639Y0193215D01*
X0123639Y0194814D02*
X0102613Y0194814D01*
X0102613Y0196412D02*
X0123639Y0196412D01*
X0123639Y0198011D02*
X0102613Y0198011D01*
X0102613Y0199609D02*
X0123639Y0199609D01*
X0123870Y0201208D02*
X0102613Y0201208D01*
X0102613Y0202806D02*
X0173797Y0202806D01*
X0173797Y0201208D02*
X0151933Y0201208D01*
X0152909Y0199609D02*
X0173797Y0199609D01*
X0173797Y0198011D02*
X0153016Y0198011D01*
X0155154Y0196412D02*
X0173797Y0196412D01*
X0173797Y0194814D02*
X0155772Y0194814D01*
X0155615Y0193215D02*
X0173797Y0193215D01*
X0173797Y0191617D02*
X0154568Y0191617D01*
X0149794Y0191617D02*
X0148439Y0191617D01*
X0148439Y0193215D02*
X0148526Y0193215D01*
X0148439Y0190018D02*
X0173797Y0190018D01*
X0173797Y0188420D02*
X0147680Y0188420D01*
X0133363Y0186821D02*
X0102613Y0186821D01*
X0102613Y0162843D02*
X0114355Y0162843D01*
X0114590Y0161245D02*
X0102613Y0161245D01*
X0102613Y0159646D02*
X0112340Y0159646D01*
X0114069Y0159646D02*
X0114947Y0159646D01*
X0110118Y0158048D02*
X0102613Y0158048D01*
X0102613Y0156449D02*
X0109614Y0156449D01*
X0109843Y0154851D02*
X0102613Y0154851D01*
X0102613Y0153252D02*
X0110993Y0153252D01*
X0112922Y0151654D02*
X0102613Y0151654D01*
X0102613Y0150055D02*
X0114520Y0150055D01*
X0116119Y0148457D02*
X0102613Y0148457D01*
X0102613Y0146858D02*
X0117717Y0146858D01*
X0119316Y0145260D02*
X0102613Y0145260D01*
X0102613Y0143661D02*
X0121765Y0143661D01*
X0124535Y0142063D02*
X0102613Y0142063D01*
X0102613Y0140464D02*
X0123639Y0140464D01*
X0123639Y0138866D02*
X0102613Y0138866D01*
X0102613Y0137267D02*
X0123639Y0137267D01*
X0123639Y0135669D02*
X0102613Y0135669D01*
X0102613Y0134070D02*
X0112605Y0134070D01*
X0111142Y0132472D02*
X0102613Y0132472D01*
X0102613Y0130873D02*
X0110795Y0130873D01*
X0111181Y0129275D02*
X0102613Y0129275D01*
X0102613Y0127676D02*
X0112838Y0127676D01*
X0117630Y0132472D02*
X0123639Y0132472D01*
X0123639Y0134070D02*
X0116166Y0134070D01*
X0120244Y0126078D02*
X0102613Y0126078D01*
X0102613Y0124479D02*
X0120334Y0124479D01*
X0121286Y0122881D02*
X0102613Y0122881D01*
X0102613Y0121282D02*
X0122216Y0121282D01*
X0122216Y0119684D02*
X0102613Y0119684D01*
X0125904Y0143661D02*
X0132505Y0143661D01*
X0135239Y0143661D02*
X0136839Y0143661D01*
X0136839Y0145260D02*
X0135239Y0145260D01*
X0135239Y0146858D02*
X0136839Y0146858D01*
X0136839Y0148457D02*
X0135239Y0148457D01*
X0135239Y0150055D02*
X0136839Y0150055D01*
X0136839Y0151654D02*
X0135239Y0151654D01*
X0135239Y0153252D02*
X0136839Y0153252D01*
X0136839Y0154851D02*
X0135239Y0154851D01*
X0135239Y0156449D02*
X0136839Y0156449D01*
X0136839Y0158048D02*
X0135239Y0158048D01*
X0135239Y0159646D02*
X0136839Y0159646D01*
X0136839Y0161245D02*
X0135239Y0161245D01*
X0135239Y0162843D02*
X0136839Y0162843D01*
X0127149Y0145260D02*
X0127137Y0145260D01*
X0139573Y0143661D02*
X0152531Y0143661D01*
X0163252Y0182025D02*
X0173797Y0182025D01*
X0173797Y0183624D02*
X0162754Y0183624D01*
D18*
X0159661Y0181709D03*
X0152181Y0194307D03*
X0149425Y0198638D03*
X0156118Y0202969D03*
X0173441Y0202969D03*
X0138205Y0202969D03*
X0120685Y0202969D03*
X0102969Y0202969D03*
X0102969Y0176984D03*
X0102969Y0167142D03*
X0113205Y0156118D03*
X0102969Y0146276D03*
X0102969Y0135252D03*
X0102969Y0125016D03*
X0102969Y0114780D03*
X0102969Y0104937D03*
X0102969Y0095094D03*
X0102969Y0084465D03*
X0102969Y0073441D03*
X0121472Y0073441D03*
X0138205Y0073441D03*
X0154937Y0073441D03*
X0173441Y0073441D03*
X0173441Y0084465D03*
X0173441Y0095094D03*
X0173441Y0104937D03*
X0173441Y0114780D03*
X0173441Y0125016D03*
X0157693Y0130134D03*
X0154150Y0130134D03*
X0159661Y0143913D03*
X0155331Y0146276D03*
X0157299Y0149819D03*
X0133283Y0126984D03*
X0135646Y0123441D03*
X0130921Y0121472D03*
X0127378Y0121472D03*
X0129346Y0117535D03*
X0135646Y0116748D03*
X0147850Y0114386D03*
X0159661Y0108480D03*
X0147063Y0095094D03*
X0133677Y0102575D03*
X0119898Y0099031D03*
X0123835Y0125409D03*
X0118717Y0133677D03*
X0114386Y0130921D03*
X0123835Y0146669D03*
D19*
X0121866Y0146669D01*
X0113205Y0155331D01*
X0113205Y0156118D01*
X0114386Y0130921D02*
X0116354Y0128953D01*
X0131315Y0128953D01*
X0133283Y0126984D01*
X0132890Y0126984D01*
X0127378Y0121472D01*
X0130921Y0121472D02*
X0135646Y0116748D01*
X0135646Y0123441D02*
X0135646Y0134982D01*
X0136039Y0135173D01*
X0125016Y0124228D02*
X0125016Y0104150D01*
X0119898Y0099031D01*
X0125016Y0124228D02*
X0123835Y0125409D01*
X0154150Y0130134D02*
X0154150Y0131709D01*
X0157693Y0135252D01*
X0157693Y0139976D01*
X0155331Y0142339D01*
X0155331Y0146276D01*
X0157299Y0145094D02*
X0160449Y0148244D01*
X0160449Y0180921D01*
X0159661Y0181709D01*
X0152181Y0194307D02*
X0151394Y0194307D01*
X0149425Y0196276D01*
X0149425Y0198638D01*
X0157299Y0145094D02*
X0157299Y0142732D01*
X0159268Y0140764D01*
X0159268Y0134465D01*
X0157693Y0132890D01*
X0157693Y0130134D01*
X0160843Y0134858D02*
X0165331Y0130370D01*
X0167929Y0130370D01*
X0160843Y0134858D02*
X0160843Y0142732D01*
X0159661Y0143913D01*
D20*
X0133677Y0102575D02*
X0133677Y0097850D01*
X0136433Y0095094D01*
X0147063Y0095094D01*
M02*
