%
M48
M72
T01C0.01181
T02C0.03500
T03C0.03937
%
T01
X102969Y202969
X120685Y202969
X138205Y202969
X149425Y198638
X152181Y194307
X156118Y202969
X173441Y202969
X159661Y181709
X157299Y149819
X155331Y146276
X159661Y143913
X157693Y130134
X154150Y130134
X147850Y114386
X135646Y116748
X130921Y121472
X127378Y121472
X129346Y117535
X135646Y123441
X133283Y126984
X123835Y125409
X118717Y133677
X114386Y130921
X102969Y135252
X102969Y125016
X102969Y114780
X102969Y104937
X102969Y95094
X102969Y84465
X102969Y73441
X121472Y73441
X138205Y73441
X154937Y73441
X173441Y73441
X173441Y84465
X173441Y95094
X173441Y104937
X173441Y114780
X173441Y125016
X159661Y108480
X147063Y95094
X133677Y102575
X119898Y99031
X102969Y146276
X113205Y156118
X123835Y146669
X102969Y167142
X102969Y176984
T02
X167929Y90370
X167929Y100370
X167929Y110370
X167929Y120370
X167929Y130370
T03
X115764Y80134
X129346Y80134
X147063Y80134
X160646Y80134
M30
