G75*
%MOIN*%
%OFA0B0*%
%FSLAX25Y25*%
%IPPOS*%
%LPD*%
%AMOC8*
5,1,8,0,0,1.08239X$1,22.5*
%
%ADD10C,0.00000*%
%ADD11C,0.00394*%
D10*
X0001000Y0001000D02*
X0001000Y0274622D01*
X0274622Y0274622D01*
X0274622Y0001000D01*
X0001000Y0001000D01*
X0001000Y0069898D02*
X0274622Y0069898D01*
X0176197Y0001000D02*
X0176197Y0274622D01*
X0099425Y0274622D02*
X0099425Y0001000D01*
X0001000Y0205724D02*
X0274622Y0205724D01*
D11*
X0162220Y0082693D02*
X0162220Y0076787D01*
X0162221Y0076787D02*
X0162219Y0076700D01*
X0162213Y0076613D01*
X0162204Y0076526D01*
X0162190Y0076440D01*
X0162173Y0076355D01*
X0162152Y0076270D01*
X0162127Y0076187D01*
X0162099Y0076104D01*
X0162067Y0076023D01*
X0162031Y0075944D01*
X0161992Y0075866D01*
X0161950Y0075790D01*
X0161904Y0075716D01*
X0161855Y0075644D01*
X0161803Y0075574D01*
X0161748Y0075507D01*
X0161690Y0075442D01*
X0161629Y0075379D01*
X0161565Y0075320D01*
X0161499Y0075263D01*
X0161430Y0075210D01*
X0161359Y0075159D01*
X0161286Y0075112D01*
X0161211Y0075067D01*
X0161134Y0075027D01*
X0161056Y0074989D01*
X0160975Y0074956D01*
X0160894Y0074925D01*
X0160811Y0074899D01*
X0160726Y0074876D01*
X0160641Y0074857D01*
X0160556Y0074842D01*
X0160469Y0074830D01*
X0160383Y0074822D01*
X0160296Y0074818D01*
X0160208Y0074818D01*
X0160121Y0074822D01*
X0160035Y0074830D01*
X0159948Y0074842D01*
X0159863Y0074857D01*
X0159778Y0074876D01*
X0159693Y0074899D01*
X0159610Y0074925D01*
X0159529Y0074956D01*
X0159448Y0074989D01*
X0159370Y0075027D01*
X0159293Y0075067D01*
X0159218Y0075112D01*
X0159145Y0075159D01*
X0159074Y0075210D01*
X0159005Y0075263D01*
X0158939Y0075320D01*
X0158875Y0075379D01*
X0158814Y0075442D01*
X0158756Y0075507D01*
X0158701Y0075574D01*
X0158649Y0075644D01*
X0158600Y0075716D01*
X0158554Y0075790D01*
X0158512Y0075866D01*
X0158473Y0075944D01*
X0158437Y0076023D01*
X0158405Y0076104D01*
X0158377Y0076187D01*
X0158352Y0076270D01*
X0158331Y0076355D01*
X0158314Y0076440D01*
X0158300Y0076526D01*
X0158291Y0076613D01*
X0158285Y0076700D01*
X0158283Y0076787D01*
X0158283Y0082693D01*
X0158285Y0082780D01*
X0158291Y0082867D01*
X0158300Y0082954D01*
X0158314Y0083040D01*
X0158331Y0083125D01*
X0158352Y0083210D01*
X0158377Y0083293D01*
X0158405Y0083376D01*
X0158437Y0083457D01*
X0158473Y0083536D01*
X0158512Y0083614D01*
X0158554Y0083690D01*
X0158600Y0083764D01*
X0158649Y0083836D01*
X0158701Y0083906D01*
X0158756Y0083973D01*
X0158814Y0084038D01*
X0158875Y0084101D01*
X0158939Y0084160D01*
X0159005Y0084217D01*
X0159074Y0084270D01*
X0159145Y0084321D01*
X0159218Y0084368D01*
X0159293Y0084413D01*
X0159370Y0084453D01*
X0159448Y0084491D01*
X0159529Y0084524D01*
X0159610Y0084555D01*
X0159693Y0084581D01*
X0159778Y0084604D01*
X0159863Y0084623D01*
X0159948Y0084638D01*
X0160035Y0084650D01*
X0160121Y0084658D01*
X0160208Y0084662D01*
X0160296Y0084662D01*
X0160383Y0084658D01*
X0160469Y0084650D01*
X0160556Y0084638D01*
X0160641Y0084623D01*
X0160726Y0084604D01*
X0160811Y0084581D01*
X0160894Y0084555D01*
X0160975Y0084524D01*
X0161056Y0084491D01*
X0161134Y0084453D01*
X0161211Y0084413D01*
X0161286Y0084368D01*
X0161359Y0084321D01*
X0161430Y0084270D01*
X0161499Y0084217D01*
X0161565Y0084160D01*
X0161629Y0084101D01*
X0161690Y0084038D01*
X0161748Y0083973D01*
X0161803Y0083906D01*
X0161855Y0083836D01*
X0161904Y0083764D01*
X0161950Y0083690D01*
X0161992Y0083614D01*
X0162031Y0083536D01*
X0162067Y0083457D01*
X0162099Y0083376D01*
X0162127Y0083293D01*
X0162152Y0083210D01*
X0162173Y0083125D01*
X0162190Y0083040D01*
X0162204Y0082954D01*
X0162213Y0082867D01*
X0162219Y0082780D01*
X0162221Y0082693D01*
X0144504Y0079740D02*
X0144506Y0079833D01*
X0144512Y0079925D01*
X0144522Y0080017D01*
X0144536Y0080108D01*
X0144553Y0080199D01*
X0144575Y0080289D01*
X0144600Y0080378D01*
X0144629Y0080466D01*
X0144662Y0080552D01*
X0144699Y0080637D01*
X0144739Y0080721D01*
X0144783Y0080802D01*
X0144830Y0080882D01*
X0144880Y0080960D01*
X0144934Y0081035D01*
X0144991Y0081108D01*
X0145051Y0081178D01*
X0145114Y0081246D01*
X0145180Y0081311D01*
X0145248Y0081373D01*
X0145319Y0081433D01*
X0145393Y0081489D01*
X0145469Y0081542D01*
X0145547Y0081591D01*
X0145627Y0081638D01*
X0145709Y0081680D01*
X0145793Y0081720D01*
X0145878Y0081755D01*
X0145965Y0081787D01*
X0146053Y0081816D01*
X0146142Y0081840D01*
X0146232Y0081861D01*
X0146323Y0081877D01*
X0146415Y0081890D01*
X0146507Y0081899D01*
X0146600Y0081904D01*
X0146692Y0081905D01*
X0146785Y0081902D01*
X0146877Y0081895D01*
X0146969Y0081884D01*
X0147060Y0081869D01*
X0147151Y0081851D01*
X0147241Y0081828D01*
X0147329Y0081802D01*
X0147417Y0081772D01*
X0147503Y0081738D01*
X0147587Y0081701D01*
X0147670Y0081659D01*
X0147751Y0081615D01*
X0147831Y0081567D01*
X0147908Y0081516D01*
X0147982Y0081461D01*
X0148055Y0081403D01*
X0148125Y0081343D01*
X0148192Y0081279D01*
X0148256Y0081213D01*
X0148318Y0081143D01*
X0148376Y0081072D01*
X0148431Y0080998D01*
X0148483Y0080921D01*
X0148532Y0080842D01*
X0148578Y0080762D01*
X0148620Y0080679D01*
X0148658Y0080595D01*
X0148693Y0080509D01*
X0148724Y0080422D01*
X0148751Y0080334D01*
X0148774Y0080244D01*
X0148794Y0080154D01*
X0148810Y0080063D01*
X0148822Y0079971D01*
X0148830Y0079879D01*
X0148834Y0079786D01*
X0148834Y0079694D01*
X0148830Y0079601D01*
X0148822Y0079509D01*
X0148810Y0079417D01*
X0148794Y0079326D01*
X0148774Y0079236D01*
X0148751Y0079146D01*
X0148724Y0079058D01*
X0148693Y0078971D01*
X0148658Y0078885D01*
X0148620Y0078801D01*
X0148578Y0078718D01*
X0148532Y0078638D01*
X0148483Y0078559D01*
X0148431Y0078482D01*
X0148376Y0078408D01*
X0148318Y0078337D01*
X0148256Y0078267D01*
X0148192Y0078201D01*
X0148125Y0078137D01*
X0148055Y0078077D01*
X0147982Y0078019D01*
X0147908Y0077964D01*
X0147831Y0077913D01*
X0147752Y0077865D01*
X0147670Y0077821D01*
X0147587Y0077779D01*
X0147503Y0077742D01*
X0147417Y0077708D01*
X0147329Y0077678D01*
X0147241Y0077652D01*
X0147151Y0077629D01*
X0147060Y0077611D01*
X0146969Y0077596D01*
X0146877Y0077585D01*
X0146785Y0077578D01*
X0146692Y0077575D01*
X0146600Y0077576D01*
X0146507Y0077581D01*
X0146415Y0077590D01*
X0146323Y0077603D01*
X0146232Y0077619D01*
X0146142Y0077640D01*
X0146053Y0077664D01*
X0145965Y0077693D01*
X0145878Y0077725D01*
X0145793Y0077760D01*
X0145709Y0077800D01*
X0145627Y0077842D01*
X0145547Y0077889D01*
X0145469Y0077938D01*
X0145393Y0077991D01*
X0145319Y0078047D01*
X0145248Y0078107D01*
X0145180Y0078169D01*
X0145114Y0078234D01*
X0145051Y0078302D01*
X0144991Y0078372D01*
X0144934Y0078445D01*
X0144880Y0078520D01*
X0144830Y0078598D01*
X0144783Y0078678D01*
X0144739Y0078759D01*
X0144699Y0078843D01*
X0144662Y0078928D01*
X0144629Y0079014D01*
X0144600Y0079102D01*
X0144575Y0079191D01*
X0144553Y0079281D01*
X0144536Y0079372D01*
X0144522Y0079463D01*
X0144512Y0079555D01*
X0144506Y0079647D01*
X0144504Y0079740D01*
X0126788Y0079740D02*
X0126790Y0079833D01*
X0126796Y0079925D01*
X0126806Y0080017D01*
X0126820Y0080108D01*
X0126837Y0080199D01*
X0126859Y0080289D01*
X0126884Y0080378D01*
X0126913Y0080466D01*
X0126946Y0080552D01*
X0126983Y0080637D01*
X0127023Y0080721D01*
X0127067Y0080802D01*
X0127114Y0080882D01*
X0127164Y0080960D01*
X0127218Y0081035D01*
X0127275Y0081108D01*
X0127335Y0081178D01*
X0127398Y0081246D01*
X0127464Y0081311D01*
X0127532Y0081373D01*
X0127603Y0081433D01*
X0127677Y0081489D01*
X0127753Y0081542D01*
X0127831Y0081591D01*
X0127911Y0081638D01*
X0127993Y0081680D01*
X0128077Y0081720D01*
X0128162Y0081755D01*
X0128249Y0081787D01*
X0128337Y0081816D01*
X0128426Y0081840D01*
X0128516Y0081861D01*
X0128607Y0081877D01*
X0128699Y0081890D01*
X0128791Y0081899D01*
X0128884Y0081904D01*
X0128976Y0081905D01*
X0129069Y0081902D01*
X0129161Y0081895D01*
X0129253Y0081884D01*
X0129344Y0081869D01*
X0129435Y0081851D01*
X0129525Y0081828D01*
X0129613Y0081802D01*
X0129701Y0081772D01*
X0129787Y0081738D01*
X0129871Y0081701D01*
X0129954Y0081659D01*
X0130035Y0081615D01*
X0130115Y0081567D01*
X0130192Y0081516D01*
X0130266Y0081461D01*
X0130339Y0081403D01*
X0130409Y0081343D01*
X0130476Y0081279D01*
X0130540Y0081213D01*
X0130602Y0081143D01*
X0130660Y0081072D01*
X0130715Y0080998D01*
X0130767Y0080921D01*
X0130816Y0080842D01*
X0130862Y0080762D01*
X0130904Y0080679D01*
X0130942Y0080595D01*
X0130977Y0080509D01*
X0131008Y0080422D01*
X0131035Y0080334D01*
X0131058Y0080244D01*
X0131078Y0080154D01*
X0131094Y0080063D01*
X0131106Y0079971D01*
X0131114Y0079879D01*
X0131118Y0079786D01*
X0131118Y0079694D01*
X0131114Y0079601D01*
X0131106Y0079509D01*
X0131094Y0079417D01*
X0131078Y0079326D01*
X0131058Y0079236D01*
X0131035Y0079146D01*
X0131008Y0079058D01*
X0130977Y0078971D01*
X0130942Y0078885D01*
X0130904Y0078801D01*
X0130862Y0078718D01*
X0130816Y0078638D01*
X0130767Y0078559D01*
X0130715Y0078482D01*
X0130660Y0078408D01*
X0130602Y0078337D01*
X0130540Y0078267D01*
X0130476Y0078201D01*
X0130409Y0078137D01*
X0130339Y0078077D01*
X0130266Y0078019D01*
X0130192Y0077964D01*
X0130115Y0077913D01*
X0130036Y0077865D01*
X0129954Y0077821D01*
X0129871Y0077779D01*
X0129787Y0077742D01*
X0129701Y0077708D01*
X0129613Y0077678D01*
X0129525Y0077652D01*
X0129435Y0077629D01*
X0129344Y0077611D01*
X0129253Y0077596D01*
X0129161Y0077585D01*
X0129069Y0077578D01*
X0128976Y0077575D01*
X0128884Y0077576D01*
X0128791Y0077581D01*
X0128699Y0077590D01*
X0128607Y0077603D01*
X0128516Y0077619D01*
X0128426Y0077640D01*
X0128337Y0077664D01*
X0128249Y0077693D01*
X0128162Y0077725D01*
X0128077Y0077760D01*
X0127993Y0077800D01*
X0127911Y0077842D01*
X0127831Y0077889D01*
X0127753Y0077938D01*
X0127677Y0077991D01*
X0127603Y0078047D01*
X0127532Y0078107D01*
X0127464Y0078169D01*
X0127398Y0078234D01*
X0127335Y0078302D01*
X0127275Y0078372D01*
X0127218Y0078445D01*
X0127164Y0078520D01*
X0127114Y0078598D01*
X0127067Y0078678D01*
X0127023Y0078759D01*
X0126983Y0078843D01*
X0126946Y0078928D01*
X0126913Y0079014D01*
X0126884Y0079102D01*
X0126859Y0079191D01*
X0126837Y0079281D01*
X0126820Y0079372D01*
X0126806Y0079463D01*
X0126796Y0079555D01*
X0126790Y0079647D01*
X0126788Y0079740D01*
X0117339Y0082693D02*
X0117339Y0076787D01*
X0117337Y0076700D01*
X0117331Y0076613D01*
X0117322Y0076526D01*
X0117308Y0076440D01*
X0117291Y0076355D01*
X0117270Y0076270D01*
X0117245Y0076187D01*
X0117217Y0076104D01*
X0117185Y0076023D01*
X0117149Y0075944D01*
X0117110Y0075866D01*
X0117068Y0075790D01*
X0117022Y0075716D01*
X0116973Y0075644D01*
X0116921Y0075574D01*
X0116866Y0075507D01*
X0116808Y0075442D01*
X0116747Y0075379D01*
X0116683Y0075320D01*
X0116617Y0075263D01*
X0116548Y0075210D01*
X0116477Y0075159D01*
X0116404Y0075112D01*
X0116329Y0075067D01*
X0116252Y0075027D01*
X0116174Y0074989D01*
X0116093Y0074956D01*
X0116012Y0074925D01*
X0115929Y0074899D01*
X0115844Y0074876D01*
X0115759Y0074857D01*
X0115674Y0074842D01*
X0115587Y0074830D01*
X0115501Y0074822D01*
X0115414Y0074818D01*
X0115326Y0074818D01*
X0115239Y0074822D01*
X0115153Y0074830D01*
X0115066Y0074842D01*
X0114981Y0074857D01*
X0114896Y0074876D01*
X0114811Y0074899D01*
X0114728Y0074925D01*
X0114647Y0074956D01*
X0114566Y0074989D01*
X0114488Y0075027D01*
X0114411Y0075067D01*
X0114336Y0075112D01*
X0114263Y0075159D01*
X0114192Y0075210D01*
X0114123Y0075263D01*
X0114057Y0075320D01*
X0113993Y0075379D01*
X0113932Y0075442D01*
X0113874Y0075507D01*
X0113819Y0075574D01*
X0113767Y0075644D01*
X0113718Y0075716D01*
X0113672Y0075790D01*
X0113630Y0075866D01*
X0113591Y0075944D01*
X0113555Y0076023D01*
X0113523Y0076104D01*
X0113495Y0076187D01*
X0113470Y0076270D01*
X0113449Y0076355D01*
X0113432Y0076440D01*
X0113418Y0076526D01*
X0113409Y0076613D01*
X0113403Y0076700D01*
X0113401Y0076787D01*
X0113402Y0076787D02*
X0113402Y0082693D01*
X0113401Y0082693D02*
X0113403Y0082780D01*
X0113409Y0082867D01*
X0113418Y0082954D01*
X0113432Y0083040D01*
X0113449Y0083125D01*
X0113470Y0083210D01*
X0113495Y0083293D01*
X0113523Y0083376D01*
X0113555Y0083457D01*
X0113591Y0083536D01*
X0113630Y0083614D01*
X0113672Y0083690D01*
X0113718Y0083764D01*
X0113767Y0083836D01*
X0113819Y0083906D01*
X0113874Y0083973D01*
X0113932Y0084038D01*
X0113993Y0084101D01*
X0114057Y0084160D01*
X0114123Y0084217D01*
X0114192Y0084270D01*
X0114263Y0084321D01*
X0114336Y0084368D01*
X0114411Y0084413D01*
X0114488Y0084453D01*
X0114566Y0084491D01*
X0114647Y0084524D01*
X0114728Y0084555D01*
X0114811Y0084581D01*
X0114896Y0084604D01*
X0114981Y0084623D01*
X0115066Y0084638D01*
X0115153Y0084650D01*
X0115239Y0084658D01*
X0115326Y0084662D01*
X0115414Y0084662D01*
X0115501Y0084658D01*
X0115587Y0084650D01*
X0115674Y0084638D01*
X0115759Y0084623D01*
X0115844Y0084604D01*
X0115929Y0084581D01*
X0116012Y0084555D01*
X0116093Y0084524D01*
X0116174Y0084491D01*
X0116252Y0084453D01*
X0116329Y0084413D01*
X0116404Y0084368D01*
X0116477Y0084321D01*
X0116548Y0084270D01*
X0116617Y0084217D01*
X0116683Y0084160D01*
X0116747Y0084101D01*
X0116808Y0084038D01*
X0116866Y0083973D01*
X0116921Y0083906D01*
X0116973Y0083836D01*
X0117022Y0083764D01*
X0117068Y0083690D01*
X0117110Y0083614D01*
X0117149Y0083536D01*
X0117185Y0083457D01*
X0117217Y0083376D01*
X0117245Y0083293D01*
X0117270Y0083210D01*
X0117291Y0083125D01*
X0117308Y0083040D01*
X0117322Y0082954D01*
X0117331Y0082867D01*
X0117337Y0082780D01*
X0117339Y0082693D01*
M02*
