G75*
%MOIN*%
%OFA0B0*%
%FSLAX25Y25*%
%IPPOS*%
%LPD*%
%AMOC8*
5,1,8,0,0,1.08239X$1,22.5*
%
%ADD10C,0.00787*%
%ADD11C,0.07000*%
%ADD12C,0.00000*%
%ADD13C,0.04337*%
%ADD14C,0.40400*%
%ADD15R,0.20400X0.10400*%
%ADD16R,0.06900X0.06900*%
%ADD17C,0.06900*%
D10*
X0001394Y0001394D02*
X0001394Y0275016D01*
X0275016Y0275016D01*
X0275016Y0001394D01*
X0001394Y0001394D01*
X0001394Y0070291D02*
X0275016Y0070291D01*
X0176591Y0001394D02*
X0176591Y0275016D01*
X0099819Y0275016D02*
X0099819Y0001394D01*
X0001394Y0206118D02*
X0275016Y0206118D01*
D11*
X0160646Y0083434D02*
X0160646Y0076834D01*
X0115764Y0076834D02*
X0115764Y0083434D01*
D12*
X0127377Y0080134D02*
X0127379Y0080222D01*
X0127385Y0080310D01*
X0127395Y0080398D01*
X0127409Y0080486D01*
X0127426Y0080572D01*
X0127448Y0080658D01*
X0127473Y0080742D01*
X0127503Y0080826D01*
X0127535Y0080908D01*
X0127572Y0080988D01*
X0127612Y0081067D01*
X0127656Y0081144D01*
X0127703Y0081219D01*
X0127753Y0081291D01*
X0127807Y0081362D01*
X0127863Y0081429D01*
X0127923Y0081495D01*
X0127985Y0081557D01*
X0128051Y0081617D01*
X0128118Y0081673D01*
X0128189Y0081727D01*
X0128261Y0081777D01*
X0128336Y0081824D01*
X0128413Y0081868D01*
X0128492Y0081908D01*
X0128572Y0081945D01*
X0128654Y0081977D01*
X0128738Y0082007D01*
X0128822Y0082032D01*
X0128908Y0082054D01*
X0128994Y0082071D01*
X0129082Y0082085D01*
X0129170Y0082095D01*
X0129258Y0082101D01*
X0129346Y0082103D01*
X0129434Y0082101D01*
X0129522Y0082095D01*
X0129610Y0082085D01*
X0129698Y0082071D01*
X0129784Y0082054D01*
X0129870Y0082032D01*
X0129954Y0082007D01*
X0130038Y0081977D01*
X0130120Y0081945D01*
X0130200Y0081908D01*
X0130279Y0081868D01*
X0130356Y0081824D01*
X0130431Y0081777D01*
X0130503Y0081727D01*
X0130574Y0081673D01*
X0130641Y0081617D01*
X0130707Y0081557D01*
X0130769Y0081495D01*
X0130829Y0081429D01*
X0130885Y0081362D01*
X0130939Y0081291D01*
X0130989Y0081219D01*
X0131036Y0081144D01*
X0131080Y0081067D01*
X0131120Y0080988D01*
X0131157Y0080908D01*
X0131189Y0080826D01*
X0131219Y0080742D01*
X0131244Y0080658D01*
X0131266Y0080572D01*
X0131283Y0080486D01*
X0131297Y0080398D01*
X0131307Y0080310D01*
X0131313Y0080222D01*
X0131315Y0080134D01*
X0131313Y0080046D01*
X0131307Y0079958D01*
X0131297Y0079870D01*
X0131283Y0079782D01*
X0131266Y0079696D01*
X0131244Y0079610D01*
X0131219Y0079526D01*
X0131189Y0079442D01*
X0131157Y0079360D01*
X0131120Y0079280D01*
X0131080Y0079201D01*
X0131036Y0079124D01*
X0130989Y0079049D01*
X0130939Y0078977D01*
X0130885Y0078906D01*
X0130829Y0078839D01*
X0130769Y0078773D01*
X0130707Y0078711D01*
X0130641Y0078651D01*
X0130574Y0078595D01*
X0130503Y0078541D01*
X0130431Y0078491D01*
X0130356Y0078444D01*
X0130279Y0078400D01*
X0130200Y0078360D01*
X0130120Y0078323D01*
X0130038Y0078291D01*
X0129954Y0078261D01*
X0129870Y0078236D01*
X0129784Y0078214D01*
X0129698Y0078197D01*
X0129610Y0078183D01*
X0129522Y0078173D01*
X0129434Y0078167D01*
X0129346Y0078165D01*
X0129258Y0078167D01*
X0129170Y0078173D01*
X0129082Y0078183D01*
X0128994Y0078197D01*
X0128908Y0078214D01*
X0128822Y0078236D01*
X0128738Y0078261D01*
X0128654Y0078291D01*
X0128572Y0078323D01*
X0128492Y0078360D01*
X0128413Y0078400D01*
X0128336Y0078444D01*
X0128261Y0078491D01*
X0128189Y0078541D01*
X0128118Y0078595D01*
X0128051Y0078651D01*
X0127985Y0078711D01*
X0127923Y0078773D01*
X0127863Y0078839D01*
X0127807Y0078906D01*
X0127753Y0078977D01*
X0127703Y0079049D01*
X0127656Y0079124D01*
X0127612Y0079201D01*
X0127572Y0079280D01*
X0127535Y0079360D01*
X0127503Y0079442D01*
X0127473Y0079526D01*
X0127448Y0079610D01*
X0127426Y0079696D01*
X0127409Y0079782D01*
X0127395Y0079870D01*
X0127385Y0079958D01*
X0127379Y0080046D01*
X0127377Y0080134D01*
X0145094Y0080134D02*
X0145096Y0080222D01*
X0145102Y0080310D01*
X0145112Y0080398D01*
X0145126Y0080486D01*
X0145143Y0080572D01*
X0145165Y0080658D01*
X0145190Y0080742D01*
X0145220Y0080826D01*
X0145252Y0080908D01*
X0145289Y0080988D01*
X0145329Y0081067D01*
X0145373Y0081144D01*
X0145420Y0081219D01*
X0145470Y0081291D01*
X0145524Y0081362D01*
X0145580Y0081429D01*
X0145640Y0081495D01*
X0145702Y0081557D01*
X0145768Y0081617D01*
X0145835Y0081673D01*
X0145906Y0081727D01*
X0145978Y0081777D01*
X0146053Y0081824D01*
X0146130Y0081868D01*
X0146209Y0081908D01*
X0146289Y0081945D01*
X0146371Y0081977D01*
X0146455Y0082007D01*
X0146539Y0082032D01*
X0146625Y0082054D01*
X0146711Y0082071D01*
X0146799Y0082085D01*
X0146887Y0082095D01*
X0146975Y0082101D01*
X0147063Y0082103D01*
X0147151Y0082101D01*
X0147239Y0082095D01*
X0147327Y0082085D01*
X0147415Y0082071D01*
X0147501Y0082054D01*
X0147587Y0082032D01*
X0147671Y0082007D01*
X0147755Y0081977D01*
X0147837Y0081945D01*
X0147917Y0081908D01*
X0147996Y0081868D01*
X0148073Y0081824D01*
X0148148Y0081777D01*
X0148220Y0081727D01*
X0148291Y0081673D01*
X0148358Y0081617D01*
X0148424Y0081557D01*
X0148486Y0081495D01*
X0148546Y0081429D01*
X0148602Y0081362D01*
X0148656Y0081291D01*
X0148706Y0081219D01*
X0148753Y0081144D01*
X0148797Y0081067D01*
X0148837Y0080988D01*
X0148874Y0080908D01*
X0148906Y0080826D01*
X0148936Y0080742D01*
X0148961Y0080658D01*
X0148983Y0080572D01*
X0149000Y0080486D01*
X0149014Y0080398D01*
X0149024Y0080310D01*
X0149030Y0080222D01*
X0149032Y0080134D01*
X0149030Y0080046D01*
X0149024Y0079958D01*
X0149014Y0079870D01*
X0149000Y0079782D01*
X0148983Y0079696D01*
X0148961Y0079610D01*
X0148936Y0079526D01*
X0148906Y0079442D01*
X0148874Y0079360D01*
X0148837Y0079280D01*
X0148797Y0079201D01*
X0148753Y0079124D01*
X0148706Y0079049D01*
X0148656Y0078977D01*
X0148602Y0078906D01*
X0148546Y0078839D01*
X0148486Y0078773D01*
X0148424Y0078711D01*
X0148358Y0078651D01*
X0148291Y0078595D01*
X0148220Y0078541D01*
X0148148Y0078491D01*
X0148073Y0078444D01*
X0147996Y0078400D01*
X0147917Y0078360D01*
X0147837Y0078323D01*
X0147755Y0078291D01*
X0147671Y0078261D01*
X0147587Y0078236D01*
X0147501Y0078214D01*
X0147415Y0078197D01*
X0147327Y0078183D01*
X0147239Y0078173D01*
X0147151Y0078167D01*
X0147063Y0078165D01*
X0146975Y0078167D01*
X0146887Y0078173D01*
X0146799Y0078183D01*
X0146711Y0078197D01*
X0146625Y0078214D01*
X0146539Y0078236D01*
X0146455Y0078261D01*
X0146371Y0078291D01*
X0146289Y0078323D01*
X0146209Y0078360D01*
X0146130Y0078400D01*
X0146053Y0078444D01*
X0145978Y0078491D01*
X0145906Y0078541D01*
X0145835Y0078595D01*
X0145768Y0078651D01*
X0145702Y0078711D01*
X0145640Y0078773D01*
X0145580Y0078839D01*
X0145524Y0078906D01*
X0145470Y0078977D01*
X0145420Y0079049D01*
X0145373Y0079124D01*
X0145329Y0079201D01*
X0145289Y0079280D01*
X0145252Y0079360D01*
X0145220Y0079442D01*
X0145190Y0079526D01*
X0145165Y0079610D01*
X0145143Y0079696D01*
X0145126Y0079782D01*
X0145112Y0079870D01*
X0145102Y0079958D01*
X0145096Y0080046D01*
X0145094Y0080134D01*
D13*
X0147063Y0080134D03*
X0129346Y0080134D03*
D14*
X0136039Y0165173D03*
D15*
X0136039Y0135173D03*
X0136039Y0195173D03*
D16*
X0167929Y0090370D03*
D17*
X0167929Y0100370D03*
X0167929Y0110370D03*
X0167929Y0120370D03*
X0167929Y0130370D03*
M02*
