G75*
%MOIN*%
%OFA0B0*%
%FSLAX25Y25*%
%IPPOS*%
%LPD*%
%AMOC8*
5,1,8,0,0,1.08239X$1,22.5*
%
%ADD10C,0.00000*%
%ADD11C,0.06600*%
%ADD12C,0.40000*%
%ADD13R,0.20000X0.10000*%
%ADD14R,0.06500X0.06500*%
%ADD15C,0.06500*%
%ADD16C,0.01600*%
%ADD17C,0.02381*%
%ADD18C,0.00800*%
%ADD19C,0.01200*%
D10*
X0001000Y0001000D02*
X0001000Y0274622D01*
X0274622Y0274622D01*
X0274622Y0001000D01*
X0001000Y0001000D01*
X0001000Y0069898D02*
X0274622Y0069898D01*
X0176197Y0001000D02*
X0176197Y0274622D01*
X0099425Y0274622D02*
X0099425Y0001000D01*
X0126984Y0079740D02*
X0126986Y0079828D01*
X0126992Y0079916D01*
X0127002Y0080004D01*
X0127016Y0080092D01*
X0127033Y0080178D01*
X0127055Y0080264D01*
X0127080Y0080348D01*
X0127110Y0080432D01*
X0127142Y0080514D01*
X0127179Y0080594D01*
X0127219Y0080673D01*
X0127263Y0080750D01*
X0127310Y0080825D01*
X0127360Y0080897D01*
X0127414Y0080968D01*
X0127470Y0081035D01*
X0127530Y0081101D01*
X0127592Y0081163D01*
X0127658Y0081223D01*
X0127725Y0081279D01*
X0127796Y0081333D01*
X0127868Y0081383D01*
X0127943Y0081430D01*
X0128020Y0081474D01*
X0128099Y0081514D01*
X0128179Y0081551D01*
X0128261Y0081583D01*
X0128345Y0081613D01*
X0128429Y0081638D01*
X0128515Y0081660D01*
X0128601Y0081677D01*
X0128689Y0081691D01*
X0128777Y0081701D01*
X0128865Y0081707D01*
X0128953Y0081709D01*
X0129041Y0081707D01*
X0129129Y0081701D01*
X0129217Y0081691D01*
X0129305Y0081677D01*
X0129391Y0081660D01*
X0129477Y0081638D01*
X0129561Y0081613D01*
X0129645Y0081583D01*
X0129727Y0081551D01*
X0129807Y0081514D01*
X0129886Y0081474D01*
X0129963Y0081430D01*
X0130038Y0081383D01*
X0130110Y0081333D01*
X0130181Y0081279D01*
X0130248Y0081223D01*
X0130314Y0081163D01*
X0130376Y0081101D01*
X0130436Y0081035D01*
X0130492Y0080968D01*
X0130546Y0080897D01*
X0130596Y0080825D01*
X0130643Y0080750D01*
X0130687Y0080673D01*
X0130727Y0080594D01*
X0130764Y0080514D01*
X0130796Y0080432D01*
X0130826Y0080348D01*
X0130851Y0080264D01*
X0130873Y0080178D01*
X0130890Y0080092D01*
X0130904Y0080004D01*
X0130914Y0079916D01*
X0130920Y0079828D01*
X0130922Y0079740D01*
X0130920Y0079652D01*
X0130914Y0079564D01*
X0130904Y0079476D01*
X0130890Y0079388D01*
X0130873Y0079302D01*
X0130851Y0079216D01*
X0130826Y0079132D01*
X0130796Y0079048D01*
X0130764Y0078966D01*
X0130727Y0078886D01*
X0130687Y0078807D01*
X0130643Y0078730D01*
X0130596Y0078655D01*
X0130546Y0078583D01*
X0130492Y0078512D01*
X0130436Y0078445D01*
X0130376Y0078379D01*
X0130314Y0078317D01*
X0130248Y0078257D01*
X0130181Y0078201D01*
X0130110Y0078147D01*
X0130038Y0078097D01*
X0129963Y0078050D01*
X0129886Y0078006D01*
X0129807Y0077966D01*
X0129727Y0077929D01*
X0129645Y0077897D01*
X0129561Y0077867D01*
X0129477Y0077842D01*
X0129391Y0077820D01*
X0129305Y0077803D01*
X0129217Y0077789D01*
X0129129Y0077779D01*
X0129041Y0077773D01*
X0128953Y0077771D01*
X0128865Y0077773D01*
X0128777Y0077779D01*
X0128689Y0077789D01*
X0128601Y0077803D01*
X0128515Y0077820D01*
X0128429Y0077842D01*
X0128345Y0077867D01*
X0128261Y0077897D01*
X0128179Y0077929D01*
X0128099Y0077966D01*
X0128020Y0078006D01*
X0127943Y0078050D01*
X0127868Y0078097D01*
X0127796Y0078147D01*
X0127725Y0078201D01*
X0127658Y0078257D01*
X0127592Y0078317D01*
X0127530Y0078379D01*
X0127470Y0078445D01*
X0127414Y0078512D01*
X0127360Y0078583D01*
X0127310Y0078655D01*
X0127263Y0078730D01*
X0127219Y0078807D01*
X0127179Y0078886D01*
X0127142Y0078966D01*
X0127110Y0079048D01*
X0127080Y0079132D01*
X0127055Y0079216D01*
X0127033Y0079302D01*
X0127016Y0079388D01*
X0127002Y0079476D01*
X0126992Y0079564D01*
X0126986Y0079652D01*
X0126984Y0079740D01*
X0144700Y0079740D02*
X0144702Y0079828D01*
X0144708Y0079916D01*
X0144718Y0080004D01*
X0144732Y0080092D01*
X0144749Y0080178D01*
X0144771Y0080264D01*
X0144796Y0080348D01*
X0144826Y0080432D01*
X0144858Y0080514D01*
X0144895Y0080594D01*
X0144935Y0080673D01*
X0144979Y0080750D01*
X0145026Y0080825D01*
X0145076Y0080897D01*
X0145130Y0080968D01*
X0145186Y0081035D01*
X0145246Y0081101D01*
X0145308Y0081163D01*
X0145374Y0081223D01*
X0145441Y0081279D01*
X0145512Y0081333D01*
X0145584Y0081383D01*
X0145659Y0081430D01*
X0145736Y0081474D01*
X0145815Y0081514D01*
X0145895Y0081551D01*
X0145977Y0081583D01*
X0146061Y0081613D01*
X0146145Y0081638D01*
X0146231Y0081660D01*
X0146317Y0081677D01*
X0146405Y0081691D01*
X0146493Y0081701D01*
X0146581Y0081707D01*
X0146669Y0081709D01*
X0146757Y0081707D01*
X0146845Y0081701D01*
X0146933Y0081691D01*
X0147021Y0081677D01*
X0147107Y0081660D01*
X0147193Y0081638D01*
X0147277Y0081613D01*
X0147361Y0081583D01*
X0147443Y0081551D01*
X0147523Y0081514D01*
X0147602Y0081474D01*
X0147679Y0081430D01*
X0147754Y0081383D01*
X0147826Y0081333D01*
X0147897Y0081279D01*
X0147964Y0081223D01*
X0148030Y0081163D01*
X0148092Y0081101D01*
X0148152Y0081035D01*
X0148208Y0080968D01*
X0148262Y0080897D01*
X0148312Y0080825D01*
X0148359Y0080750D01*
X0148403Y0080673D01*
X0148443Y0080594D01*
X0148480Y0080514D01*
X0148512Y0080432D01*
X0148542Y0080348D01*
X0148567Y0080264D01*
X0148589Y0080178D01*
X0148606Y0080092D01*
X0148620Y0080004D01*
X0148630Y0079916D01*
X0148636Y0079828D01*
X0148638Y0079740D01*
X0148636Y0079652D01*
X0148630Y0079564D01*
X0148620Y0079476D01*
X0148606Y0079388D01*
X0148589Y0079302D01*
X0148567Y0079216D01*
X0148542Y0079132D01*
X0148512Y0079048D01*
X0148480Y0078966D01*
X0148443Y0078886D01*
X0148403Y0078807D01*
X0148359Y0078730D01*
X0148312Y0078655D01*
X0148262Y0078583D01*
X0148208Y0078512D01*
X0148152Y0078445D01*
X0148092Y0078379D01*
X0148030Y0078317D01*
X0147964Y0078257D01*
X0147897Y0078201D01*
X0147826Y0078147D01*
X0147754Y0078097D01*
X0147679Y0078050D01*
X0147602Y0078006D01*
X0147523Y0077966D01*
X0147443Y0077929D01*
X0147361Y0077897D01*
X0147277Y0077867D01*
X0147193Y0077842D01*
X0147107Y0077820D01*
X0147021Y0077803D01*
X0146933Y0077789D01*
X0146845Y0077779D01*
X0146757Y0077773D01*
X0146669Y0077771D01*
X0146581Y0077773D01*
X0146493Y0077779D01*
X0146405Y0077789D01*
X0146317Y0077803D01*
X0146231Y0077820D01*
X0146145Y0077842D01*
X0146061Y0077867D01*
X0145977Y0077897D01*
X0145895Y0077929D01*
X0145815Y0077966D01*
X0145736Y0078006D01*
X0145659Y0078050D01*
X0145584Y0078097D01*
X0145512Y0078147D01*
X0145441Y0078201D01*
X0145374Y0078257D01*
X0145308Y0078317D01*
X0145246Y0078379D01*
X0145186Y0078445D01*
X0145130Y0078512D01*
X0145076Y0078583D01*
X0145026Y0078655D01*
X0144979Y0078730D01*
X0144935Y0078807D01*
X0144895Y0078886D01*
X0144858Y0078966D01*
X0144826Y0079048D01*
X0144796Y0079132D01*
X0144771Y0079216D01*
X0144749Y0079302D01*
X0144732Y0079388D01*
X0144718Y0079476D01*
X0144708Y0079564D01*
X0144702Y0079652D01*
X0144700Y0079740D01*
X0274622Y0205724D02*
X0001000Y0205724D01*
D11*
X0115370Y0083040D02*
X0115370Y0076440D01*
X0160252Y0076440D02*
X0160252Y0083040D01*
D12*
X0135646Y0164780D03*
D13*
X0135646Y0194780D03*
X0135646Y0134780D03*
D14*
X0167929Y0089583D03*
D15*
X0167929Y0099583D03*
X0167929Y0109583D03*
X0167929Y0119583D03*
X0167929Y0129583D03*
D16*
X0162766Y0127282D02*
X0159919Y0127282D01*
X0160343Y0127706D02*
X0160890Y0129026D01*
X0160890Y0130064D01*
X0162279Y0128674D01*
X0162279Y0128459D01*
X0163139Y0126382D01*
X0164729Y0124793D01*
X0165236Y0124583D01*
X0164729Y0124373D01*
X0163139Y0122783D01*
X0162279Y0120707D01*
X0162279Y0118459D01*
X0163139Y0116382D01*
X0164729Y0114793D01*
X0165236Y0114583D01*
X0164729Y0114373D01*
X0163139Y0112783D01*
X0162279Y0110707D01*
X0162279Y0108459D01*
X0163139Y0106382D01*
X0164729Y0104793D01*
X0165236Y0104583D01*
X0164729Y0104373D01*
X0163139Y0102783D01*
X0162279Y0100707D01*
X0162279Y0098459D01*
X0163139Y0096382D01*
X0164729Y0094793D01*
X0165115Y0094633D01*
X0164442Y0094633D01*
X0163984Y0094510D01*
X0163574Y0094273D01*
X0163239Y0093938D01*
X0163002Y0093527D01*
X0162879Y0093070D01*
X0162879Y0089658D01*
X0167854Y0089658D01*
X0167854Y0089508D01*
X0162879Y0089508D01*
X0162879Y0088122D01*
X0161386Y0088740D01*
X0159118Y0088740D01*
X0157023Y0087872D01*
X0155420Y0086269D01*
X0154552Y0084174D01*
X0154552Y0075306D01*
X0155420Y0073211D01*
X0156333Y0072298D01*
X0119289Y0072298D01*
X0120202Y0073211D01*
X0121070Y0075306D01*
X0121070Y0084174D01*
X0120202Y0086269D01*
X0118599Y0087872D01*
X0116504Y0088740D01*
X0114236Y0088740D01*
X0112141Y0087872D01*
X0110538Y0086269D01*
X0109670Y0084174D01*
X0109670Y0075306D01*
X0110538Y0073211D01*
X0111452Y0072298D01*
X0101825Y0072298D01*
X0101825Y0203324D01*
X0173797Y0203324D01*
X0173797Y0181610D01*
X0162858Y0181610D01*
X0162858Y0182029D01*
X0162312Y0183349D01*
X0161302Y0184359D01*
X0159982Y0184905D01*
X0158554Y0184905D01*
X0157234Y0184359D01*
X0156224Y0183349D01*
X0155677Y0182029D01*
X0155677Y0180601D01*
X0156224Y0179281D01*
X0157234Y0178271D01*
X0157255Y0178262D01*
X0157255Y0167698D01*
X0157043Y0169036D01*
X0156643Y0170701D01*
X0156114Y0172331D01*
X0155458Y0173913D01*
X0154681Y0175440D01*
X0153786Y0176900D01*
X0152779Y0178286D01*
X0151666Y0179589D01*
X0150455Y0180800D01*
X0149152Y0181913D01*
X0147766Y0182920D01*
X0146306Y0183815D01*
X0144779Y0184592D01*
X0143197Y0185248D01*
X0141568Y0185777D01*
X0139902Y0186177D01*
X0138210Y0186445D01*
X0136502Y0186580D01*
X0136446Y0186580D01*
X0136446Y0165580D01*
X0134846Y0165580D01*
X0134846Y0186580D01*
X0134789Y0186580D01*
X0133081Y0186445D01*
X0131389Y0186177D01*
X0129724Y0185777D01*
X0128094Y0185248D01*
X0126512Y0184592D01*
X0124986Y0183815D01*
X0123525Y0182920D01*
X0122139Y0181913D01*
X0120836Y0180800D01*
X0119625Y0179589D01*
X0118513Y0178286D01*
X0117506Y0176900D01*
X0116611Y0175440D01*
X0115833Y0173913D01*
X0115177Y0172331D01*
X0114648Y0170701D01*
X0114248Y0169036D01*
X0113980Y0167344D01*
X0113846Y0165636D01*
X0113846Y0165579D01*
X0134846Y0165579D01*
X0134846Y0163980D01*
X0113846Y0163980D01*
X0113846Y0163923D01*
X0113980Y0162215D01*
X0114248Y0160523D01*
X0114648Y0158858D01*
X0114651Y0158849D01*
X0113525Y0159315D01*
X0112097Y0159315D01*
X0110777Y0158768D01*
X0109767Y0157758D01*
X0109220Y0156439D01*
X0109220Y0155010D01*
X0109767Y0153691D01*
X0110777Y0152680D01*
X0111342Y0152447D01*
X0119099Y0144690D01*
X0119886Y0143902D01*
X0120915Y0143476D01*
X0121163Y0143476D01*
X0121407Y0143232D01*
X0122727Y0142685D01*
X0124155Y0142685D01*
X0125475Y0143232D01*
X0126485Y0144242D01*
X0126745Y0144870D01*
X0128094Y0144311D01*
X0129724Y0143782D01*
X0131389Y0143382D01*
X0133081Y0143114D01*
X0134789Y0142980D01*
X0134846Y0142980D01*
X0134846Y0163979D01*
X0136446Y0163979D01*
X0136446Y0142980D01*
X0136502Y0142980D01*
X0138210Y0143114D01*
X0139902Y0143382D01*
X0141568Y0143782D01*
X0143197Y0144311D01*
X0144779Y0144967D01*
X0146306Y0145744D01*
X0147766Y0146640D01*
X0149152Y0147646D01*
X0150455Y0148759D01*
X0151666Y0149970D01*
X0152779Y0151273D01*
X0153786Y0152659D01*
X0154681Y0154119D01*
X0155458Y0155646D01*
X0156114Y0157228D01*
X0156124Y0157260D01*
X0157255Y0157260D01*
X0157255Y0149010D01*
X0157071Y0148826D01*
X0156971Y0148926D01*
X0155651Y0149472D01*
X0154223Y0149472D01*
X0152903Y0148926D01*
X0151893Y0147916D01*
X0151346Y0146596D01*
X0151346Y0145168D01*
X0151893Y0143848D01*
X0152137Y0143604D01*
X0152137Y0141388D01*
X0152563Y0140359D01*
X0153351Y0139571D01*
X0154499Y0138423D01*
X0154499Y0136018D01*
X0151382Y0132901D01*
X0151059Y0132121D01*
X0150712Y0131774D01*
X0150165Y0130454D01*
X0150165Y0129026D01*
X0150712Y0127706D01*
X0151722Y0126696D01*
X0153042Y0126150D01*
X0154470Y0126150D01*
X0155528Y0126588D01*
X0156585Y0126150D01*
X0158013Y0126150D01*
X0159333Y0126696D01*
X0160343Y0127706D01*
X0160830Y0128881D02*
X0162073Y0128881D01*
X0163838Y0125684D02*
X0138052Y0125684D01*
X0138052Y0125325D02*
X0138052Y0127380D01*
X0146123Y0127380D01*
X0147005Y0127745D01*
X0147680Y0128420D01*
X0148046Y0129302D01*
X0148046Y0140257D01*
X0147680Y0141139D01*
X0147005Y0141814D01*
X0146123Y0142180D01*
X0125168Y0142180D01*
X0124286Y0141814D01*
X0123611Y0141139D01*
X0123246Y0140257D01*
X0123246Y0131359D01*
X0117534Y0131359D01*
X0117036Y0132561D01*
X0116026Y0133571D01*
X0114706Y0134118D01*
X0113278Y0134118D01*
X0111958Y0133571D01*
X0110948Y0132561D01*
X0110402Y0131242D01*
X0110402Y0129813D01*
X0110948Y0128494D01*
X0111958Y0127484D01*
X0113278Y0126937D01*
X0113623Y0126937D01*
X0114375Y0126185D01*
X0115404Y0125759D01*
X0119862Y0125759D01*
X0119850Y0125730D01*
X0119850Y0124302D01*
X0120397Y0122982D01*
X0121407Y0121972D01*
X0121822Y0121800D01*
X0121822Y0104916D01*
X0119135Y0102228D01*
X0118790Y0102228D01*
X0117470Y0101682D01*
X0116460Y0100672D01*
X0115913Y0099352D01*
X0115913Y0097924D01*
X0116460Y0096604D01*
X0117470Y0095594D01*
X0118790Y0095047D01*
X0120218Y0095047D01*
X0121538Y0095594D01*
X0122548Y0096604D01*
X0123094Y0097924D01*
X0123094Y0098269D01*
X0126996Y0102170D01*
X0127422Y0103199D01*
X0127422Y0117488D01*
X0127698Y0117488D01*
X0128756Y0117926D01*
X0129813Y0117488D01*
X0130158Y0117488D01*
X0131661Y0115985D01*
X0131661Y0115640D01*
X0132208Y0114320D01*
X0133218Y0113310D01*
X0134538Y0112764D01*
X0135966Y0112764D01*
X0137286Y0113310D01*
X0138296Y0114320D01*
X0138843Y0115640D01*
X0138843Y0117069D01*
X0138296Y0118388D01*
X0137286Y0119398D01*
X0136555Y0119701D01*
X0137286Y0120003D01*
X0138296Y0121013D01*
X0138843Y0122333D01*
X0138843Y0123761D01*
X0138296Y0125081D01*
X0138052Y0125325D01*
X0138708Y0124085D02*
X0164442Y0124085D01*
X0163017Y0122487D02*
X0138843Y0122487D01*
X0138171Y0120888D02*
X0162354Y0120888D01*
X0162279Y0119290D02*
X0137394Y0119290D01*
X0138585Y0117691D02*
X0162597Y0117691D01*
X0163429Y0116093D02*
X0138843Y0116093D01*
X0138368Y0114494D02*
X0165023Y0114494D01*
X0163252Y0112896D02*
X0136285Y0112896D01*
X0134219Y0112896D02*
X0127422Y0112896D01*
X0127422Y0114494D02*
X0132136Y0114494D01*
X0131554Y0116093D02*
X0127422Y0116093D01*
X0128189Y0117691D02*
X0129323Y0117691D01*
X0127422Y0111297D02*
X0162524Y0111297D01*
X0162279Y0109699D02*
X0127422Y0109699D01*
X0127422Y0108100D02*
X0162428Y0108100D01*
X0163090Y0106502D02*
X0127422Y0106502D01*
X0127422Y0104903D02*
X0130928Y0104903D01*
X0131250Y0105225D02*
X0130240Y0104215D01*
X0129693Y0102895D01*
X0129693Y0101467D01*
X0130240Y0100147D01*
X0130283Y0100103D01*
X0130283Y0096860D01*
X0130740Y0095757D01*
X0134340Y0092158D01*
X0135443Y0091701D01*
X0144591Y0091701D01*
X0144635Y0091657D01*
X0145955Y0091110D01*
X0147383Y0091110D01*
X0148703Y0091657D01*
X0149713Y0092667D01*
X0150260Y0093987D01*
X0150260Y0095415D01*
X0149713Y0096735D01*
X0148703Y0097745D01*
X0147383Y0098291D01*
X0145955Y0098291D01*
X0144635Y0097745D01*
X0144591Y0097701D01*
X0137282Y0097701D01*
X0136283Y0098699D01*
X0136283Y0100103D01*
X0136327Y0100147D01*
X0136874Y0101467D01*
X0136874Y0102895D01*
X0136327Y0104215D01*
X0135317Y0105225D01*
X0133998Y0105772D01*
X0132569Y0105772D01*
X0131250Y0105225D01*
X0129863Y0103305D02*
X0127422Y0103305D01*
X0126532Y0101706D02*
X0129693Y0101706D01*
X0130279Y0100108D02*
X0124934Y0100108D01*
X0123335Y0098509D02*
X0130283Y0098509D01*
X0130283Y0096911D02*
X0122675Y0096911D01*
X0120858Y0095312D02*
X0131185Y0095312D01*
X0132784Y0093714D02*
X0101825Y0093714D01*
X0101825Y0095312D02*
X0118150Y0095312D01*
X0116333Y0096911D02*
X0101825Y0096911D01*
X0101825Y0098509D02*
X0115913Y0098509D01*
X0116226Y0100108D02*
X0101825Y0100108D01*
X0101825Y0101706D02*
X0117529Y0101706D01*
X0120211Y0103305D02*
X0101825Y0103305D01*
X0101825Y0104903D02*
X0121810Y0104903D01*
X0121822Y0106502D02*
X0101825Y0106502D01*
X0101825Y0108100D02*
X0121822Y0108100D01*
X0121822Y0109699D02*
X0101825Y0109699D01*
X0101825Y0111297D02*
X0121822Y0111297D01*
X0121822Y0112896D02*
X0101825Y0112896D01*
X0101825Y0114494D02*
X0121822Y0114494D01*
X0121822Y0116093D02*
X0101825Y0116093D01*
X0101825Y0117691D02*
X0121822Y0117691D01*
X0121822Y0119290D02*
X0101825Y0119290D01*
X0101825Y0120888D02*
X0121822Y0120888D01*
X0120892Y0122487D02*
X0101825Y0122487D01*
X0101825Y0124085D02*
X0119940Y0124085D01*
X0119850Y0125684D02*
X0101825Y0125684D01*
X0101825Y0127282D02*
X0112444Y0127282D01*
X0110788Y0128881D02*
X0101825Y0128881D01*
X0101825Y0130479D02*
X0110402Y0130479D01*
X0110748Y0132078D02*
X0101825Y0132078D01*
X0101825Y0133676D02*
X0112212Y0133676D01*
X0115773Y0133676D02*
X0123246Y0133676D01*
X0123246Y0132078D02*
X0117236Y0132078D01*
X0123246Y0135275D02*
X0101825Y0135275D01*
X0101825Y0136873D02*
X0123246Y0136873D01*
X0123246Y0138472D02*
X0101825Y0138472D01*
X0101825Y0140070D02*
X0123246Y0140070D01*
X0124141Y0141669D02*
X0101825Y0141669D01*
X0101825Y0143268D02*
X0121371Y0143268D01*
X0118922Y0144866D02*
X0101825Y0144866D01*
X0101825Y0146465D02*
X0117324Y0146465D01*
X0115725Y0148063D02*
X0101825Y0148063D01*
X0101825Y0149662D02*
X0114127Y0149662D01*
X0112528Y0151260D02*
X0101825Y0151260D01*
X0101825Y0152859D02*
X0110599Y0152859D01*
X0109450Y0154457D02*
X0101825Y0154457D01*
X0101825Y0156056D02*
X0109220Y0156056D01*
X0109724Y0157654D02*
X0101825Y0157654D01*
X0101825Y0159253D02*
X0111946Y0159253D01*
X0113676Y0159253D02*
X0114553Y0159253D01*
X0114196Y0160851D02*
X0101825Y0160851D01*
X0101825Y0162450D02*
X0113962Y0162450D01*
X0113847Y0165647D02*
X0101825Y0165647D01*
X0101825Y0167245D02*
X0113972Y0167245D01*
X0114218Y0168844D02*
X0101825Y0168844D01*
X0101825Y0170442D02*
X0114586Y0170442D01*
X0115083Y0172041D02*
X0101825Y0172041D01*
X0101825Y0173639D02*
X0115719Y0173639D01*
X0116508Y0175238D02*
X0101825Y0175238D01*
X0101825Y0176836D02*
X0117466Y0176836D01*
X0118639Y0178435D02*
X0101825Y0178435D01*
X0101825Y0180033D02*
X0120070Y0180033D01*
X0121810Y0181632D02*
X0101825Y0181632D01*
X0101825Y0183230D02*
X0124032Y0183230D01*
X0127083Y0184829D02*
X0101825Y0184829D01*
X0101825Y0186427D02*
X0132969Y0186427D01*
X0134846Y0186427D02*
X0136446Y0186427D01*
X0136446Y0184829D02*
X0134846Y0184829D01*
X0134846Y0183230D02*
X0136446Y0183230D01*
X0136446Y0181632D02*
X0134846Y0181632D01*
X0134846Y0180033D02*
X0136446Y0180033D01*
X0136446Y0178435D02*
X0134846Y0178435D01*
X0134846Y0176836D02*
X0136446Y0176836D01*
X0136446Y0175238D02*
X0134846Y0175238D01*
X0134846Y0173639D02*
X0136446Y0173639D01*
X0136446Y0172041D02*
X0134846Y0172041D01*
X0134846Y0170442D02*
X0136446Y0170442D01*
X0136446Y0168844D02*
X0134846Y0168844D01*
X0134846Y0167245D02*
X0136446Y0167245D01*
X0136446Y0165647D02*
X0134846Y0165647D01*
X0134846Y0164048D02*
X0101825Y0164048D01*
X0101825Y0188026D02*
X0124005Y0188026D01*
X0124286Y0187745D02*
X0123611Y0188420D01*
X0123246Y0189302D01*
X0123246Y0200257D01*
X0123611Y0201139D01*
X0124286Y0201814D01*
X0125168Y0202180D01*
X0146123Y0202180D01*
X0147005Y0201814D01*
X0147375Y0201444D01*
X0148317Y0201835D01*
X0149746Y0201835D01*
X0151065Y0201288D01*
X0152075Y0200278D01*
X0152622Y0198958D01*
X0152622Y0197530D01*
X0152595Y0197465D01*
X0153821Y0196957D01*
X0154831Y0195947D01*
X0155378Y0194628D01*
X0155378Y0193199D01*
X0154831Y0191879D01*
X0153821Y0190869D01*
X0152502Y0190323D01*
X0151073Y0190323D01*
X0149754Y0190869D01*
X0148743Y0191879D01*
X0148510Y0192444D01*
X0148046Y0192908D01*
X0148046Y0189302D01*
X0147680Y0188420D01*
X0147005Y0187745D01*
X0146123Y0187380D01*
X0125168Y0187380D01*
X0124286Y0187745D01*
X0123246Y0189624D02*
X0101825Y0189624D01*
X0101825Y0191223D02*
X0123246Y0191223D01*
X0123246Y0192821D02*
X0101825Y0192821D01*
X0101825Y0194420D02*
X0123246Y0194420D01*
X0123246Y0196018D02*
X0101825Y0196018D01*
X0101825Y0197617D02*
X0123246Y0197617D01*
X0123246Y0199215D02*
X0101825Y0199215D01*
X0101825Y0200814D02*
X0123476Y0200814D01*
X0138322Y0186427D02*
X0173797Y0186427D01*
X0173797Y0184829D02*
X0160167Y0184829D01*
X0158368Y0184829D02*
X0144209Y0184829D01*
X0147259Y0183230D02*
X0156175Y0183230D01*
X0155677Y0181632D02*
X0149481Y0181632D01*
X0151222Y0180033D02*
X0155912Y0180033D01*
X0157070Y0178435D02*
X0152652Y0178435D01*
X0153825Y0176836D02*
X0157255Y0176836D01*
X0157255Y0175238D02*
X0154784Y0175238D01*
X0155572Y0173639D02*
X0157255Y0173639D01*
X0157255Y0172041D02*
X0156208Y0172041D01*
X0156706Y0170442D02*
X0157255Y0170442D01*
X0157255Y0168844D02*
X0157074Y0168844D01*
X0162858Y0181632D02*
X0173797Y0181632D01*
X0173797Y0183230D02*
X0162361Y0183230D01*
X0154175Y0191223D02*
X0173797Y0191223D01*
X0173797Y0192821D02*
X0155221Y0192821D01*
X0155378Y0194420D02*
X0173797Y0194420D01*
X0173797Y0196018D02*
X0154760Y0196018D01*
X0152622Y0197617D02*
X0173797Y0197617D01*
X0173797Y0199215D02*
X0152516Y0199215D01*
X0151539Y0200814D02*
X0173797Y0200814D01*
X0173797Y0202412D02*
X0101825Y0202412D01*
X0134846Y0162450D02*
X0136446Y0162450D01*
X0136446Y0160851D02*
X0134846Y0160851D01*
X0134846Y0159253D02*
X0136446Y0159253D01*
X0136446Y0157654D02*
X0134846Y0157654D01*
X0134846Y0156056D02*
X0136446Y0156056D01*
X0136446Y0154457D02*
X0134846Y0154457D01*
X0134846Y0152859D02*
X0136446Y0152859D01*
X0136446Y0151260D02*
X0134846Y0151260D01*
X0134846Y0149662D02*
X0136446Y0149662D01*
X0136446Y0148063D02*
X0134846Y0148063D01*
X0134846Y0146465D02*
X0136446Y0146465D01*
X0136446Y0144866D02*
X0134846Y0144866D01*
X0134846Y0143268D02*
X0136446Y0143268D01*
X0139180Y0143268D02*
X0152137Y0143268D01*
X0152137Y0141669D02*
X0147150Y0141669D01*
X0148046Y0140070D02*
X0152852Y0140070D01*
X0153351Y0139571D02*
X0153351Y0139571D01*
X0154450Y0138472D02*
X0148046Y0138472D01*
X0148046Y0136873D02*
X0154499Y0136873D01*
X0153756Y0135275D02*
X0148046Y0135275D01*
X0148046Y0133676D02*
X0152158Y0133676D01*
X0151016Y0132078D02*
X0148046Y0132078D01*
X0148046Y0130479D02*
X0150176Y0130479D01*
X0150225Y0128881D02*
X0147871Y0128881D01*
X0151136Y0127282D02*
X0138052Y0127282D01*
X0132112Y0143268D02*
X0125511Y0143268D01*
X0126743Y0144866D02*
X0126755Y0144866D01*
X0144536Y0144866D02*
X0151471Y0144866D01*
X0151346Y0146465D02*
X0147481Y0146465D01*
X0149640Y0148063D02*
X0152040Y0148063D01*
X0151358Y0149662D02*
X0157255Y0149662D01*
X0157255Y0151260D02*
X0152768Y0151260D01*
X0153908Y0152859D02*
X0157255Y0152859D01*
X0157255Y0154457D02*
X0154853Y0154457D01*
X0155628Y0156056D02*
X0157255Y0156056D01*
X0173579Y0130154D02*
X0173797Y0130154D01*
X0173797Y0072298D01*
X0164170Y0072298D01*
X0165084Y0073211D01*
X0165952Y0075306D01*
X0165952Y0084174D01*
X0165803Y0084533D01*
X0167854Y0084533D01*
X0167854Y0089508D01*
X0168004Y0089508D01*
X0168004Y0089658D01*
X0172979Y0089658D01*
X0172979Y0093070D01*
X0172856Y0093527D01*
X0172619Y0093938D01*
X0172284Y0094273D01*
X0171874Y0094510D01*
X0171416Y0094633D01*
X0170743Y0094633D01*
X0171130Y0094793D01*
X0172719Y0096382D01*
X0173579Y0098459D01*
X0173579Y0100707D01*
X0172719Y0102783D01*
X0171130Y0104373D01*
X0170622Y0104583D01*
X0171130Y0104793D01*
X0172719Y0106382D01*
X0173579Y0108459D01*
X0173579Y0110707D01*
X0172719Y0112783D01*
X0171130Y0114373D01*
X0170622Y0114583D01*
X0171130Y0114793D01*
X0172719Y0116382D01*
X0173579Y0118459D01*
X0173579Y0120707D01*
X0172719Y0122783D01*
X0171130Y0124373D01*
X0170622Y0124583D01*
X0171130Y0124793D01*
X0172719Y0126382D01*
X0173579Y0128459D01*
X0173579Y0130154D01*
X0173579Y0128881D02*
X0173797Y0128881D01*
X0173797Y0127282D02*
X0173092Y0127282D01*
X0173797Y0125684D02*
X0172021Y0125684D01*
X0171417Y0124085D02*
X0173797Y0124085D01*
X0173797Y0122487D02*
X0172842Y0122487D01*
X0173504Y0120888D02*
X0173797Y0120888D01*
X0173797Y0119290D02*
X0173579Y0119290D01*
X0173797Y0117691D02*
X0173261Y0117691D01*
X0173797Y0116093D02*
X0172430Y0116093D01*
X0173797Y0114494D02*
X0170836Y0114494D01*
X0172606Y0112896D02*
X0173797Y0112896D01*
X0173797Y0111297D02*
X0173334Y0111297D01*
X0173579Y0109699D02*
X0173797Y0109699D01*
X0173797Y0108100D02*
X0173431Y0108100D01*
X0173797Y0106502D02*
X0172768Y0106502D01*
X0173797Y0104903D02*
X0171240Y0104903D01*
X0172197Y0103305D02*
X0173797Y0103305D01*
X0173797Y0101706D02*
X0173165Y0101706D01*
X0173579Y0100108D02*
X0173797Y0100108D01*
X0173797Y0098509D02*
X0173579Y0098509D01*
X0173797Y0096911D02*
X0172938Y0096911D01*
X0173797Y0095312D02*
X0171649Y0095312D01*
X0172749Y0093714D02*
X0173797Y0093714D01*
X0173797Y0092115D02*
X0172979Y0092115D01*
X0172979Y0090517D02*
X0173797Y0090517D01*
X0172979Y0089508D02*
X0172979Y0086096D01*
X0172856Y0085638D01*
X0172619Y0085227D01*
X0172284Y0084892D01*
X0171874Y0084655D01*
X0171416Y0084533D01*
X0168004Y0084533D01*
X0168004Y0089508D01*
X0172979Y0089508D01*
X0172979Y0088918D02*
X0173797Y0088918D01*
X0173797Y0087320D02*
X0172979Y0087320D01*
X0172879Y0085721D02*
X0173797Y0085721D01*
X0173797Y0084123D02*
X0165952Y0084123D01*
X0165952Y0082524D02*
X0173797Y0082524D01*
X0173797Y0080926D02*
X0165952Y0080926D01*
X0165952Y0079327D02*
X0173797Y0079327D01*
X0173797Y0077729D02*
X0165952Y0077729D01*
X0165952Y0076130D02*
X0173797Y0076130D01*
X0173797Y0074532D02*
X0165631Y0074532D01*
X0164806Y0072933D02*
X0173797Y0072933D01*
X0168004Y0085721D02*
X0167854Y0085721D01*
X0167854Y0087320D02*
X0168004Y0087320D01*
X0168004Y0088918D02*
X0167854Y0088918D01*
X0162879Y0088918D02*
X0101825Y0088918D01*
X0101825Y0087320D02*
X0111589Y0087320D01*
X0110311Y0085721D02*
X0101825Y0085721D01*
X0101825Y0084123D02*
X0109670Y0084123D01*
X0109670Y0082524D02*
X0101825Y0082524D01*
X0101825Y0080926D02*
X0109670Y0080926D01*
X0109670Y0079327D02*
X0101825Y0079327D01*
X0101825Y0077729D02*
X0109670Y0077729D01*
X0109670Y0076130D02*
X0101825Y0076130D01*
X0101825Y0074532D02*
X0109991Y0074532D01*
X0110816Y0072933D02*
X0101825Y0072933D01*
X0101825Y0090517D02*
X0162879Y0090517D01*
X0162879Y0092115D02*
X0149161Y0092115D01*
X0150147Y0093714D02*
X0163109Y0093714D01*
X0164209Y0095312D02*
X0150260Y0095312D01*
X0149537Y0096911D02*
X0162920Y0096911D01*
X0162279Y0098509D02*
X0136474Y0098509D01*
X0136288Y0100108D02*
X0162279Y0100108D01*
X0162693Y0101706D02*
X0136874Y0101706D01*
X0136704Y0103305D02*
X0163661Y0103305D01*
X0164618Y0104903D02*
X0135639Y0104903D01*
X0134442Y0092115D02*
X0101825Y0092115D01*
X0119152Y0087320D02*
X0156470Y0087320D01*
X0155193Y0085721D02*
X0120429Y0085721D01*
X0121070Y0084123D02*
X0154552Y0084123D01*
X0154552Y0082524D02*
X0150063Y0082524D01*
X0150373Y0082215D02*
X0149144Y0083444D01*
X0147538Y0084109D01*
X0145800Y0084109D01*
X0144195Y0083444D01*
X0142966Y0082215D01*
X0142301Y0080609D01*
X0142301Y0078871D01*
X0142966Y0077266D01*
X0144195Y0076037D01*
X0145800Y0075372D01*
X0147538Y0075372D01*
X0149144Y0076037D01*
X0150373Y0077266D01*
X0151038Y0078871D01*
X0151038Y0080609D01*
X0150373Y0082215D01*
X0150907Y0080926D02*
X0154552Y0080926D01*
X0154552Y0079327D02*
X0151038Y0079327D01*
X0150564Y0077729D02*
X0154552Y0077729D01*
X0154552Y0076130D02*
X0149237Y0076130D01*
X0144101Y0076130D02*
X0131521Y0076130D01*
X0131427Y0076037D02*
X0132656Y0077266D01*
X0133321Y0078871D01*
X0133321Y0080609D01*
X0132656Y0082215D01*
X0131427Y0083444D01*
X0129822Y0084109D01*
X0128084Y0084109D01*
X0126478Y0083444D01*
X0125249Y0082215D01*
X0124584Y0080609D01*
X0124584Y0078871D01*
X0125249Y0077266D01*
X0126478Y0076037D01*
X0128084Y0075372D01*
X0129822Y0075372D01*
X0131427Y0076037D01*
X0132848Y0077729D02*
X0142774Y0077729D01*
X0142301Y0079327D02*
X0133321Y0079327D01*
X0133190Y0080926D02*
X0142432Y0080926D01*
X0143275Y0082524D02*
X0132347Y0082524D01*
X0125559Y0082524D02*
X0121070Y0082524D01*
X0121070Y0080926D02*
X0124715Y0080926D01*
X0124584Y0079327D02*
X0121070Y0079327D01*
X0121070Y0077729D02*
X0125058Y0077729D01*
X0126385Y0076130D02*
X0121070Y0076130D01*
X0120749Y0074532D02*
X0154873Y0074532D01*
X0155698Y0072933D02*
X0119924Y0072933D01*
X0147286Y0188026D02*
X0173797Y0188026D01*
X0173797Y0189624D02*
X0148046Y0189624D01*
X0148046Y0191223D02*
X0149400Y0191223D01*
X0148132Y0192821D02*
X0148046Y0192821D01*
D17*
X0151787Y0193913D03*
X0149031Y0198244D03*
X0155724Y0202575D03*
X0173047Y0202575D03*
X0159268Y0181315D03*
X0137811Y0202575D03*
X0120291Y0202575D03*
X0102575Y0202575D03*
X0102575Y0176591D03*
X0102575Y0166748D03*
X0112811Y0155724D03*
X0102575Y0145882D03*
X0102575Y0134858D03*
X0102575Y0124622D03*
X0102575Y0114386D03*
X0102575Y0104543D03*
X0102575Y0094701D03*
X0102575Y0084071D03*
X0102575Y0073047D03*
X0121079Y0073047D03*
X0137811Y0073047D03*
X0154543Y0073047D03*
X0173047Y0073047D03*
X0173047Y0084071D03*
X0173047Y0094701D03*
X0173047Y0104543D03*
X0173047Y0114386D03*
X0173047Y0124622D03*
X0157299Y0129740D03*
X0153756Y0129740D03*
X0159268Y0143520D03*
X0154937Y0145882D03*
X0156906Y0149425D03*
X0132890Y0126591D03*
X0135252Y0123047D03*
X0130528Y0121079D03*
X0126984Y0121079D03*
X0128953Y0117142D03*
X0135252Y0116354D03*
X0147457Y0113992D03*
X0159268Y0108087D03*
X0146669Y0094701D03*
X0133283Y0102181D03*
X0119504Y0098638D03*
X0123441Y0125016D03*
X0118323Y0133283D03*
X0113992Y0130528D03*
X0123441Y0146276D03*
D18*
X0121472Y0146276D01*
X0112811Y0154937D01*
X0112811Y0155724D01*
X0113992Y0130528D02*
X0115961Y0128559D01*
X0130921Y0128559D01*
X0132890Y0126591D01*
X0132496Y0126591D01*
X0126984Y0121079D01*
X0130528Y0121079D02*
X0135252Y0116354D01*
X0135252Y0123047D02*
X0135252Y0134589D01*
X0135646Y0134780D01*
X0124622Y0123835D02*
X0124622Y0103756D01*
X0119504Y0098638D01*
X0124622Y0123835D02*
X0123441Y0125016D01*
X0153756Y0129740D02*
X0153756Y0131315D01*
X0157299Y0134858D01*
X0157299Y0139583D01*
X0154937Y0141945D01*
X0154937Y0145882D01*
X0156906Y0144701D02*
X0160055Y0147850D01*
X0160055Y0180528D01*
X0159268Y0181315D01*
X0151787Y0193913D02*
X0151000Y0193913D01*
X0149031Y0195882D01*
X0149031Y0198244D01*
X0156906Y0144701D02*
X0156906Y0142339D01*
X0158874Y0140370D01*
X0158874Y0134071D01*
X0157299Y0132496D01*
X0157299Y0129740D01*
X0160449Y0134465D02*
X0165331Y0129583D01*
X0167929Y0129583D01*
X0160449Y0134465D02*
X0160449Y0142339D01*
X0159268Y0143520D01*
D19*
X0133283Y0102181D02*
X0133283Y0097457D01*
X0136039Y0094701D01*
X0146669Y0094701D01*
M02*
