%
M48
M72
T01C0.01200
T02C0.01575
T03C0.02756
T04C0.03500
%
T01
X39989Y31439
X43532Y31439
X51406Y36557
X45501Y45219
X58887Y45219
X67548Y36557
X67548Y32620
X67548Y28290
X67548Y24746
X80934Y34983
X79359Y47187
X70304Y55061
X59280Y70022
X61249Y81439
X73454Y81833
X73847Y91282
X82902Y87739
X88808Y75928
X94713Y75928
X100225Y73172
X100619Y68447
X99044Y64904
X109280Y64904
X116367Y64510
X111643Y72384
X111643Y77109
X106524Y80652
X100619Y80652
X117548Y81833
X115186Y103093
X117548Y107424
X119910Y105061
X124241Y105849
X73847Y101124
X47469Y124353
X108887Y51518
X96288Y47581
X93139Y27502
X101013Y27502
X108887Y27502
X112824Y17266
X104950Y17266
X97076Y17266
X89202Y17266
X123454Y47581
T02
X89370Y37813
X92717Y37813
X96063Y37813
X99409Y37813
X102756Y37813
X106102Y37813
X109449Y37813
X112795Y37813
X112795Y43128
X109449Y43128
X106102Y43128
X102756Y43128
X99409Y43128
X96063Y43128
X92717Y43128
X89370Y43128
T03
X84075Y24230
X84075Y41159
X118091Y41159
X118091Y24230
T04
X56524Y76321
X56524Y86321
X56524Y96321
X56524Y106321
X56524Y116321
M30
