G75*
%MOIN*%
%OFA0B0*%
%FSLAX25Y25*%
%IPPOS*%
%LPD*%
%AMOC8*
5,1,8,0,0,1.08239X$1,22.5*
%
%ADD10C,0.00000*%
%ADD11R,0.05906X0.02756*%
%ADD12C,0.02362*%
%ADD13R,0.02362X0.02362*%
%ADD14R,0.05906X0.05906*%
%ADD15R,0.04252X0.04134*%
%ADD16R,0.02165X0.02165*%
%ADD17R,0.04134X0.02559*%
%ADD18R,0.03642X0.02913*%
%ADD19R,0.02913X0.03642*%
%ADD20R,0.04134X0.04252*%
%ADD21R,0.03937X0.05669*%
%ADD22R,0.04724X0.05669*%
%ADD23R,0.02756X0.03543*%
%ADD24R,0.03150X0.03150*%
%ADD25R,0.03937X0.04724*%
%ADD26C,0.40000*%
%ADD27R,0.20000X0.10000*%
%ADD28R,0.00787X0.02362*%
D10*
X0009674Y0012935D02*
X0009674Y0131046D01*
X0127784Y0131046D01*
X0127784Y0012935D01*
X0009674Y0012935D01*
D11*
X0067154Y0071203D03*
X0067154Y0075534D03*
X0067154Y0079865D03*
X0067154Y0084195D03*
X0067154Y0088526D03*
X0067154Y0092857D03*
X0067154Y0097187D03*
X0067154Y0101518D03*
X0122272Y0101518D03*
X0122272Y0097187D03*
X0122272Y0092857D03*
X0122272Y0088526D03*
X0122272Y0084195D03*
X0122272Y0079865D03*
X0122272Y0075534D03*
X0122272Y0071203D03*
D12*
X0115383Y0074746D03*
X0115383Y0079471D03*
X0115383Y0084195D03*
X0109477Y0084195D03*
X0109477Y0079471D03*
X0109477Y0074746D03*
X0109477Y0070022D03*
X0103572Y0070022D03*
X0103572Y0074746D03*
X0103572Y0079471D03*
X0103572Y0084195D03*
X0103572Y0088920D03*
X0103572Y0093644D03*
X0103572Y0098368D03*
X0109477Y0098368D03*
X0109477Y0093644D03*
X0109477Y0088920D03*
X0097666Y0088920D03*
X0097666Y0093644D03*
X0097666Y0098368D03*
X0091761Y0098368D03*
X0091761Y0093644D03*
X0091761Y0088920D03*
X0091761Y0084195D03*
X0091761Y0079471D03*
X0091761Y0074746D03*
X0091761Y0070022D03*
X0085855Y0070022D03*
X0085855Y0074746D03*
X0085855Y0079471D03*
X0085855Y0084195D03*
X0085855Y0088920D03*
X0085855Y0093644D03*
X0085855Y0098368D03*
X0079950Y0098368D03*
X0079950Y0093644D03*
X0079950Y0088920D03*
X0079950Y0084195D03*
X0079950Y0079471D03*
X0079950Y0074746D03*
X0079950Y0070022D03*
X0097666Y0070022D03*
X0097666Y0074746D03*
X0097666Y0079471D03*
X0097666Y0084195D03*
D13*
X0115383Y0070022D03*
D14*
X0108001Y0106242D03*
X0099143Y0106242D03*
X0090284Y0106242D03*
X0081426Y0106242D03*
D15*
X0054950Y0065593D03*
X0054950Y0058703D03*
X0121879Y0055947D03*
X0121879Y0062837D03*
D16*
X0036090Y0122705D03*
X0036090Y0125658D03*
X0025657Y0125658D03*
X0025657Y0122705D03*
D17*
X0018040Y0040002D03*
X0018040Y0031538D03*
X0018040Y0025435D03*
X0018040Y0016971D03*
X0034379Y0016971D03*
X0034379Y0025435D03*
X0034379Y0031538D03*
X0034379Y0040002D03*
D18*
X0060658Y0040101D03*
X0065776Y0040101D03*
X0070894Y0040101D03*
X0076013Y0040101D03*
X0084674Y0062935D03*
X0089792Y0062935D03*
D19*
X0114005Y0056833D03*
X0114005Y0051715D03*
X0123847Y0033605D03*
X0123847Y0028487D03*
X0076603Y0030061D03*
X0076603Y0035180D03*
D20*
X0082607Y0057424D03*
X0089497Y0057424D03*
X0054851Y0040101D03*
X0047961Y0040101D03*
D21*
X0095304Y0061361D03*
X0102784Y0061361D03*
X0102784Y0052699D03*
D22*
X0096091Y0052699D03*
D23*
X0090186Y0051912D03*
X0085068Y0051912D03*
X0064202Y0033802D03*
X0059083Y0033802D03*
X0059083Y0028290D03*
X0064202Y0028290D03*
X0064202Y0022778D03*
X0059083Y0022778D03*
X0059083Y0017266D03*
X0064202Y0017266D03*
D24*
X0054556Y0017266D03*
X0054556Y0022778D03*
X0054556Y0028290D03*
X0054556Y0033802D03*
X0048257Y0033802D03*
X0048257Y0028290D03*
X0048257Y0022778D03*
X0048257Y0017266D03*
D25*
X0063217Y0049943D03*
X0072666Y0049943D03*
X0072666Y0060180D03*
X0063217Y0060180D03*
D26*
X0031328Y0078683D03*
D27*
X0031328Y0048683D03*
X0031328Y0108683D03*
D28*
X0050028Y0053388D03*
X0052587Y0053388D03*
X0055146Y0053388D03*
X0055146Y0045711D03*
X0052587Y0045711D03*
X0050028Y0045711D03*
M02*
