G75*
%MOIN*%
%OFA0B0*%
%FSLAX25Y25*%
%IPPOS*%
%LPD*%
%AMOC8*
5,1,8,0,0,1.08239X$1,22.5*
%
%ADD10C,0.00000*%
%ADD11R,0.06306X0.03156*%
%ADD12C,0.02762*%
%ADD13R,0.02762X0.02762*%
%ADD14R,0.06306X0.06306*%
%ADD15R,0.04652X0.04534*%
%ADD16R,0.02565X0.02565*%
%ADD17R,0.04528X0.02953*%
%ADD18R,0.04042X0.03313*%
%ADD19R,0.03313X0.04042*%
%ADD20R,0.04534X0.04652*%
%ADD21R,0.04337X0.06069*%
%ADD22R,0.05124X0.06069*%
%ADD23R,0.03156X0.03943*%
%ADD24R,0.03550X0.03550*%
%ADD25R,0.04337X0.05124*%
%ADD26C,0.40400*%
%ADD27R,0.20400X0.10400*%
%ADD28C,0.05518*%
%ADD29C,0.03156*%
%ADD30R,0.01378X0.02953*%
%ADD31R,0.06900X0.06900*%
%ADD32C,0.06900*%
D10*
X0009674Y0012935D02*
X0009674Y0131046D01*
X0127784Y0131046D01*
X0127784Y0012935D01*
X0009674Y0012935D01*
D11*
X0067154Y0071203D03*
X0067154Y0075534D03*
X0067154Y0079865D03*
X0067154Y0084195D03*
X0067154Y0088526D03*
X0067154Y0092857D03*
X0067154Y0097187D03*
X0067154Y0101518D03*
X0122272Y0101518D03*
X0122272Y0097187D03*
X0122272Y0092857D03*
X0122272Y0088526D03*
X0122272Y0084195D03*
X0122272Y0079865D03*
X0122272Y0075534D03*
X0122272Y0071203D03*
D12*
X0115383Y0074746D03*
X0115383Y0079471D03*
X0115383Y0084195D03*
X0109477Y0084195D03*
X0109477Y0079471D03*
X0109477Y0074746D03*
X0109477Y0070022D03*
X0103572Y0070022D03*
X0103572Y0074746D03*
X0103572Y0079471D03*
X0103572Y0084195D03*
X0103572Y0088920D03*
X0103572Y0093644D03*
X0103572Y0098368D03*
X0109477Y0098368D03*
X0109477Y0093644D03*
X0109477Y0088920D03*
X0097666Y0088920D03*
X0097666Y0093644D03*
X0097666Y0098368D03*
X0091761Y0098368D03*
X0091761Y0093644D03*
X0091761Y0088920D03*
X0091761Y0084195D03*
X0091761Y0079471D03*
X0091761Y0074746D03*
X0091761Y0070022D03*
X0085855Y0070022D03*
X0085855Y0074746D03*
X0085855Y0079471D03*
X0085855Y0084195D03*
X0085855Y0088920D03*
X0085855Y0093644D03*
X0085855Y0098368D03*
X0079950Y0098368D03*
X0079950Y0093644D03*
X0079950Y0088920D03*
X0079950Y0084195D03*
X0079950Y0079471D03*
X0079950Y0074746D03*
X0079950Y0070022D03*
X0097666Y0070022D03*
X0097666Y0074746D03*
X0097666Y0079471D03*
X0097666Y0084195D03*
D13*
X0115383Y0070022D03*
D14*
X0108001Y0106242D03*
X0099143Y0106242D03*
X0090284Y0106242D03*
X0081426Y0106242D03*
D15*
X0054950Y0065593D03*
X0054950Y0058703D03*
X0121879Y0055947D03*
X0121879Y0062837D03*
D16*
X0036090Y0122705D03*
X0036090Y0125658D03*
X0025657Y0125658D03*
X0025657Y0122705D03*
D17*
X0018040Y0040002D03*
X0018040Y0031538D03*
X0018040Y0025435D03*
X0018040Y0016971D03*
X0034379Y0016971D03*
X0034379Y0025435D03*
X0034379Y0031538D03*
X0034379Y0040002D03*
D18*
X0060658Y0040101D03*
X0065776Y0040101D03*
X0070894Y0040101D03*
X0076013Y0040101D03*
X0084674Y0062935D03*
X0089792Y0062935D03*
D19*
X0114005Y0056833D03*
X0114005Y0051715D03*
X0123847Y0033605D03*
X0123847Y0028487D03*
X0076603Y0030061D03*
X0076603Y0035180D03*
D20*
X0082607Y0057424D03*
X0089497Y0057424D03*
X0054851Y0040101D03*
X0047961Y0040101D03*
D21*
X0095304Y0061361D03*
X0102784Y0061361D03*
X0102784Y0052699D03*
D22*
X0096091Y0052699D03*
D23*
X0090186Y0051912D03*
X0085068Y0051912D03*
X0064202Y0033802D03*
X0059083Y0033802D03*
X0059083Y0028290D03*
X0064202Y0028290D03*
X0064202Y0022778D03*
X0059083Y0022778D03*
X0059083Y0017266D03*
X0064202Y0017266D03*
D24*
X0054556Y0017266D03*
X0054556Y0022778D03*
X0054556Y0028290D03*
X0054556Y0033802D03*
X0048257Y0033802D03*
X0048257Y0028290D03*
X0048257Y0022778D03*
X0048257Y0017266D03*
D25*
X0063217Y0049943D03*
X0072666Y0049943D03*
X0072666Y0060180D03*
X0063217Y0060180D03*
D26*
X0031328Y0078683D03*
D27*
X0031328Y0048683D03*
X0031328Y0108683D03*
D28*
X0084075Y0043718D02*
X0084075Y0038600D01*
X0084075Y0026789D02*
X0084075Y0021671D01*
X0118091Y0021671D02*
X0118091Y0026789D01*
X0118091Y0038600D02*
X0118091Y0043718D01*
D29*
X0112795Y0043128D03*
X0109449Y0043128D03*
X0106102Y0043128D03*
X0102756Y0043128D03*
X0099409Y0043128D03*
X0096063Y0043128D03*
X0092717Y0043128D03*
X0089370Y0043128D03*
X0089370Y0037813D03*
X0092717Y0037813D03*
X0096063Y0037813D03*
X0099409Y0037813D03*
X0102756Y0037813D03*
X0106102Y0037813D03*
X0109449Y0037813D03*
X0112795Y0037813D03*
D30*
X0055146Y0045711D03*
X0052587Y0045711D03*
X0050028Y0045711D03*
X0050028Y0053388D03*
X0052587Y0053388D03*
X0055146Y0053388D03*
D31*
X0056524Y0076321D03*
D32*
X0056524Y0086321D03*
X0056524Y0096321D03*
X0056524Y0106321D03*
X0056524Y0116321D03*
M02*
