G75*
%MOIN*%
%OFA0B0*%
%FSLAX25Y25*%
%IPPOS*%
%LPD*%
%AMOC8*
5,1,8,0,0,1.08239X$1,22.5*
%
%ADD10C,0.00000*%
%ADD11C,0.00200*%
%ADD12C,0.00400*%
D10*
X0009674Y0012935D02*
X0009674Y0131046D01*
X0127784Y0131046D01*
X0127784Y0012935D01*
X0009674Y0012935D01*
D11*
X0069977Y0073159D02*
X0069617Y0073519D01*
X0069617Y0074241D01*
X0069977Y0074601D01*
X0070699Y0074601D01*
X0070699Y0073880D01*
X0071420Y0074601D02*
X0071781Y0074241D01*
X0071781Y0073519D01*
X0071420Y0073159D01*
X0069977Y0073159D01*
X0069617Y0075334D02*
X0071781Y0075334D01*
X0069617Y0076776D01*
X0071781Y0076776D01*
X0071781Y0077509D02*
X0071781Y0078591D01*
X0071420Y0078951D01*
X0069977Y0078951D01*
X0069617Y0078591D01*
X0069617Y0077509D01*
X0071781Y0077509D01*
X0071781Y0083001D02*
X0071781Y0084444D01*
X0071781Y0083722D02*
X0069617Y0083722D01*
X0069617Y0085176D02*
X0071781Y0086619D01*
X0071781Y0087351D02*
X0071781Y0088433D01*
X0071420Y0088794D01*
X0069977Y0088794D01*
X0069617Y0088433D01*
X0069617Y0087351D01*
X0071781Y0087351D01*
X0071781Y0085176D02*
X0069617Y0086619D01*
X0069617Y0092512D02*
X0071059Y0092512D01*
X0071781Y0093234D01*
X0071059Y0093955D01*
X0069617Y0093955D01*
X0069617Y0094687D02*
X0069617Y0095409D01*
X0069617Y0095048D02*
X0071781Y0095048D01*
X0071781Y0094687D02*
X0071781Y0095409D01*
X0071781Y0096137D02*
X0069617Y0097580D01*
X0071781Y0097580D01*
X0071420Y0098313D02*
X0071781Y0098673D01*
X0071781Y0099395D01*
X0071420Y0099755D01*
X0069977Y0098313D01*
X0069617Y0098673D01*
X0069617Y0099395D01*
X0069977Y0099755D01*
X0071420Y0099755D01*
X0071420Y0098313D02*
X0069977Y0098313D01*
X0069617Y0096137D02*
X0071781Y0096137D01*
X0070699Y0093955D02*
X0070699Y0092512D01*
X0070699Y0102355D02*
X0070699Y0103798D01*
X0071059Y0103798D02*
X0069617Y0103798D01*
X0069617Y0104530D02*
X0069617Y0105251D01*
X0069617Y0104891D02*
X0071781Y0104891D01*
X0071781Y0105251D02*
X0071781Y0104530D01*
X0071059Y0103798D02*
X0071781Y0103076D01*
X0071059Y0102355D01*
X0069617Y0102355D01*
X0069617Y0105980D02*
X0071781Y0105980D01*
X0069617Y0107423D01*
X0071781Y0107423D01*
X0071059Y0108155D02*
X0071781Y0108876D01*
X0069617Y0108876D01*
X0069617Y0108155D02*
X0069617Y0109598D01*
D12*
X0081927Y0080035D02*
X0081409Y0079518D01*
X0081409Y0078484D01*
X0081927Y0077967D01*
X0081409Y0076812D02*
X0084512Y0076812D01*
X0083995Y0077967D02*
X0084512Y0078484D01*
X0084512Y0079518D01*
X0083995Y0080035D01*
X0083478Y0080035D01*
X0082961Y0079518D01*
X0082444Y0080035D01*
X0081927Y0080035D01*
X0082961Y0079518D02*
X0082961Y0079001D01*
X0081409Y0076812D02*
X0084512Y0074744D01*
X0081409Y0074744D01*
X0081927Y0073590D02*
X0081409Y0073073D01*
X0081409Y0072038D01*
X0081927Y0071521D01*
X0083995Y0071521D01*
X0084512Y0072038D01*
X0084512Y0073073D01*
X0083995Y0073590D01*
M02*
