G75*
%MOIN*%
%OFA0B0*%
%FSLAX25Y25*%
%IPPOS*%
%LPD*%
%AMOC8*
5,1,8,0,0,1.08239X$1,22.5*
%
%ADD10C,0.00000*%
%ADD11C,0.05118*%
%ADD12C,0.02756*%
%ADD13R,0.06500X0.06500*%
%ADD14C,0.06500*%
%ADD15R,0.06299X0.06299*%
%ADD16C,0.06299*%
%ADD17C,0.01600*%
%ADD18C,0.02400*%
%ADD19C,0.00600*%
%ADD20C,0.00800*%
D10*
X0009674Y0012935D02*
X0009674Y0131046D01*
X0127784Y0131046D01*
X0127784Y0012935D01*
X0009674Y0012935D01*
D11*
X0084075Y0021671D02*
X0084075Y0026789D01*
X0084075Y0038600D02*
X0084075Y0043718D01*
X0118091Y0043718D02*
X0118091Y0038600D01*
X0118091Y0026789D02*
X0118091Y0021671D01*
D12*
X0112795Y0037813D03*
X0109449Y0037813D03*
X0106102Y0037813D03*
X0102756Y0037813D03*
X0099409Y0037813D03*
X0096063Y0037813D03*
X0092717Y0037813D03*
X0089370Y0037813D03*
X0089370Y0043128D03*
X0092717Y0043128D03*
X0096063Y0043128D03*
X0099409Y0043128D03*
X0102756Y0043128D03*
X0106102Y0043128D03*
X0109449Y0043128D03*
X0112795Y0043128D03*
D13*
X0056524Y0076321D03*
D14*
X0056524Y0086321D03*
X0056524Y0096321D03*
X0056524Y0106321D03*
X0056524Y0116321D03*
D15*
X0076209Y0076321D03*
D16*
X0076209Y0086321D03*
X0076209Y0096321D03*
X0076209Y0106321D03*
D17*
X0086502Y0087739D02*
X0125384Y0087739D01*
X0125384Y0015335D01*
X0012074Y0015335D01*
X0012074Y0128646D01*
X0045107Y0128646D01*
X0045107Y0127082D01*
X0044417Y0126392D01*
X0043869Y0125069D01*
X0043869Y0123637D01*
X0044417Y0122313D01*
X0045107Y0121624D01*
X0045107Y0087739D01*
X0050996Y0087739D01*
X0050874Y0087445D01*
X0050874Y0085197D01*
X0051735Y0083121D01*
X0053324Y0081531D01*
X0053711Y0081371D01*
X0053037Y0081371D01*
X0052580Y0081249D01*
X0052169Y0081012D01*
X0051834Y0080676D01*
X0051597Y0080266D01*
X0051474Y0079808D01*
X0051474Y0076396D01*
X0056449Y0076396D01*
X0056449Y0076246D01*
X0051474Y0076246D01*
X0051474Y0072834D01*
X0051597Y0072376D01*
X0051834Y0071966D01*
X0052169Y0071631D01*
X0052580Y0071394D01*
X0053037Y0071271D01*
X0056449Y0071271D01*
X0056449Y0076246D01*
X0056599Y0076246D01*
X0056599Y0071271D01*
X0060011Y0071271D01*
X0060469Y0071394D01*
X0060880Y0071631D01*
X0061215Y0071966D01*
X0061452Y0072376D01*
X0061574Y0072834D01*
X0061574Y0076246D01*
X0056599Y0076246D01*
X0056599Y0076396D01*
X0061574Y0076396D01*
X0061574Y0079808D01*
X0061452Y0080266D01*
X0061215Y0080676D01*
X0060880Y0081012D01*
X0060469Y0081249D01*
X0060011Y0081371D01*
X0059338Y0081371D01*
X0059725Y0081531D01*
X0061314Y0083121D01*
X0061522Y0083621D01*
X0067847Y0083621D01*
X0069854Y0081615D01*
X0069854Y0081117D01*
X0070402Y0079794D01*
X0071260Y0078936D01*
X0071260Y0077096D01*
X0075435Y0077096D01*
X0075435Y0075546D01*
X0076984Y0075546D01*
X0076984Y0071372D01*
X0079596Y0071372D01*
X0080054Y0071494D01*
X0080464Y0071731D01*
X0080799Y0072066D01*
X0081036Y0072477D01*
X0081159Y0072935D01*
X0081159Y0075546D01*
X0076984Y0075546D01*
X0076984Y0077096D01*
X0081159Y0077096D01*
X0081159Y0079708D01*
X0081036Y0080166D01*
X0080799Y0080576D01*
X0080464Y0080911D01*
X0080054Y0081148D01*
X0079596Y0081271D01*
X0078518Y0081271D01*
X0079353Y0081616D01*
X0080914Y0083178D01*
X0081196Y0083857D01*
X0082258Y0083857D01*
X0082937Y0084139D01*
X0083618Y0084139D01*
X0084942Y0084687D01*
X0085954Y0085699D01*
X0086502Y0087022D01*
X0086502Y0087739D01*
X0086272Y0086467D02*
X0125384Y0086467D01*
X0125384Y0084868D02*
X0085123Y0084868D01*
X0080952Y0083270D02*
X0098146Y0083270D01*
X0098580Y0083704D02*
X0097567Y0082691D01*
X0097019Y0081368D01*
X0097019Y0079936D01*
X0097322Y0079205D01*
X0096925Y0078807D01*
X0096753Y0078979D01*
X0095429Y0079528D01*
X0093997Y0079528D01*
X0092674Y0078979D01*
X0091761Y0078066D01*
X0090847Y0078979D01*
X0089524Y0079528D01*
X0088092Y0079528D01*
X0086769Y0078979D01*
X0085756Y0077967D01*
X0085208Y0076644D01*
X0085208Y0075211D01*
X0085741Y0073923D01*
X0073516Y0061698D01*
X0068586Y0061698D01*
X0067593Y0061287D01*
X0066834Y0060528D01*
X0064078Y0057772D01*
X0063667Y0056780D01*
X0063667Y0054605D01*
X0061322Y0052260D01*
X0060911Y0051268D01*
X0060911Y0043194D01*
X0048901Y0043194D01*
X0047908Y0042783D01*
X0040164Y0035039D01*
X0039273Y0035039D01*
X0037950Y0034491D01*
X0036937Y0033479D01*
X0036389Y0032155D01*
X0036389Y0030723D01*
X0036937Y0029400D01*
X0037950Y0028387D01*
X0039273Y0027839D01*
X0040705Y0027839D01*
X0041761Y0028277D01*
X0042816Y0027839D01*
X0044248Y0027839D01*
X0045572Y0028387D01*
X0046584Y0029400D01*
X0047132Y0030723D01*
X0047132Y0032008D01*
X0048998Y0033874D01*
X0049367Y0033506D01*
X0050690Y0032957D01*
X0052122Y0032957D01*
X0053446Y0033506D01*
X0053797Y0033857D01*
X0064164Y0033857D01*
X0063948Y0033337D01*
X0063948Y0031904D01*
X0064496Y0030581D01*
X0064622Y0030455D01*
X0064496Y0030329D01*
X0063948Y0029006D01*
X0063948Y0027574D01*
X0064385Y0026518D01*
X0063948Y0025463D01*
X0063948Y0024030D01*
X0064496Y0022707D01*
X0065509Y0021695D01*
X0066832Y0021146D01*
X0068264Y0021146D01*
X0069587Y0021695D01*
X0070600Y0022707D01*
X0071148Y0024030D01*
X0071148Y0024528D01*
X0075349Y0028729D01*
X0075760Y0029721D01*
X0075760Y0046463D01*
X0091895Y0062598D01*
X0094857Y0062598D01*
X0095849Y0063009D01*
X0095908Y0063068D01*
X0095992Y0062865D01*
X0097005Y0061852D01*
X0098328Y0061304D01*
X0099760Y0061304D01*
X0101083Y0061852D01*
X0101435Y0062204D01*
X0106889Y0062204D01*
X0107241Y0061852D01*
X0108564Y0061304D01*
X0109996Y0061304D01*
X0111320Y0061852D01*
X0112332Y0062865D01*
X0112880Y0064188D01*
X0112880Y0065620D01*
X0112332Y0066943D01*
X0111320Y0067956D01*
X0111117Y0068040D01*
X0111861Y0068784D01*
X0112359Y0068784D01*
X0113682Y0069332D01*
X0114694Y0070345D01*
X0115243Y0071668D01*
X0115243Y0073100D01*
X0114694Y0074423D01*
X0114371Y0074746D01*
X0114694Y0075069D01*
X0115243Y0076393D01*
X0115243Y0077825D01*
X0114694Y0079148D01*
X0113682Y0080161D01*
X0112359Y0080709D01*
X0110926Y0080709D01*
X0110124Y0080376D01*
X0110124Y0081368D01*
X0109576Y0082691D01*
X0108564Y0083704D01*
X0107240Y0084252D01*
X0105808Y0084252D01*
X0104485Y0083704D01*
X0103572Y0082790D01*
X0102658Y0083704D01*
X0101335Y0084252D01*
X0099903Y0084252D01*
X0098580Y0083704D01*
X0097145Y0081671D02*
X0079408Y0081671D01*
X0081061Y0080073D02*
X0097019Y0080073D01*
X0092169Y0078474D02*
X0091352Y0078474D01*
X0086264Y0078474D02*
X0081159Y0078474D01*
X0081159Y0075277D02*
X0085208Y0075277D01*
X0085304Y0076876D02*
X0076984Y0076876D01*
X0076984Y0075277D02*
X0075435Y0075277D01*
X0075435Y0075546D02*
X0075435Y0071372D01*
X0072823Y0071372D01*
X0072365Y0071494D01*
X0071955Y0071731D01*
X0071619Y0072066D01*
X0071383Y0072477D01*
X0071260Y0072935D01*
X0071260Y0075546D01*
X0075435Y0075546D01*
X0075435Y0076876D02*
X0061574Y0076876D01*
X0061574Y0078474D02*
X0071260Y0078474D01*
X0070286Y0080073D02*
X0061503Y0080073D01*
X0059865Y0081671D02*
X0069797Y0081671D01*
X0068198Y0083270D02*
X0061376Y0083270D01*
X0061574Y0075277D02*
X0071260Y0075277D01*
X0071260Y0073679D02*
X0061574Y0073679D01*
X0061281Y0072080D02*
X0071611Y0072080D01*
X0075435Y0072080D02*
X0076984Y0072080D01*
X0076984Y0073679D02*
X0075435Y0073679D01*
X0080807Y0072080D02*
X0083898Y0072080D01*
X0085497Y0073679D02*
X0081159Y0073679D01*
X0082300Y0070482D02*
X0012074Y0070482D01*
X0012074Y0072080D02*
X0051768Y0072080D01*
X0051474Y0073679D02*
X0012074Y0073679D01*
X0012074Y0075277D02*
X0051474Y0075277D01*
X0051474Y0076876D02*
X0012074Y0076876D01*
X0012074Y0078474D02*
X0051474Y0078474D01*
X0051545Y0080073D02*
X0012074Y0080073D01*
X0012074Y0081671D02*
X0053184Y0081671D01*
X0051673Y0083270D02*
X0012074Y0083270D01*
X0012074Y0084868D02*
X0051011Y0084868D01*
X0050874Y0086467D02*
X0012074Y0086467D01*
X0012074Y0088065D02*
X0045107Y0088065D01*
X0045107Y0089664D02*
X0012074Y0089664D01*
X0012074Y0091262D02*
X0045107Y0091262D01*
X0045107Y0092861D02*
X0012074Y0092861D01*
X0012074Y0094459D02*
X0045107Y0094459D01*
X0045107Y0096058D02*
X0012074Y0096058D01*
X0012074Y0097657D02*
X0045107Y0097657D01*
X0045107Y0099255D02*
X0012074Y0099255D01*
X0012074Y0100854D02*
X0045107Y0100854D01*
X0045107Y0102452D02*
X0012074Y0102452D01*
X0012074Y0104051D02*
X0045107Y0104051D01*
X0045107Y0105649D02*
X0012074Y0105649D01*
X0012074Y0107248D02*
X0045107Y0107248D01*
X0045107Y0108846D02*
X0012074Y0108846D01*
X0012074Y0110445D02*
X0045107Y0110445D01*
X0045107Y0112043D02*
X0012074Y0112043D01*
X0012074Y0113642D02*
X0045107Y0113642D01*
X0045107Y0115240D02*
X0012074Y0115240D01*
X0012074Y0116839D02*
X0045107Y0116839D01*
X0045107Y0118437D02*
X0012074Y0118437D01*
X0012074Y0120036D02*
X0045107Y0120036D01*
X0045097Y0121634D02*
X0012074Y0121634D01*
X0012074Y0123233D02*
X0044037Y0123233D01*
X0043869Y0124831D02*
X0012074Y0124831D01*
X0012074Y0126430D02*
X0044455Y0126430D01*
X0045107Y0128028D02*
X0012074Y0128028D01*
X0056449Y0075277D02*
X0056599Y0075277D01*
X0056599Y0073679D02*
X0056449Y0073679D01*
X0056449Y0072080D02*
X0056599Y0072080D01*
X0067197Y0060891D02*
X0012074Y0060891D01*
X0012074Y0062489D02*
X0074307Y0062489D01*
X0075906Y0064088D02*
X0012074Y0064088D01*
X0012074Y0065686D02*
X0077504Y0065686D01*
X0079103Y0067285D02*
X0012074Y0067285D01*
X0012074Y0068883D02*
X0080701Y0068883D01*
X0088589Y0059292D02*
X0125384Y0059292D01*
X0125384Y0060891D02*
X0090188Y0060891D01*
X0091786Y0062489D02*
X0096368Y0062489D01*
X0086991Y0057694D02*
X0125384Y0057694D01*
X0125384Y0056095D02*
X0085392Y0056095D01*
X0083794Y0054497D02*
X0125384Y0054497D01*
X0125384Y0052898D02*
X0082195Y0052898D01*
X0080597Y0051300D02*
X0125384Y0051300D01*
X0125384Y0049701D02*
X0078998Y0049701D01*
X0077400Y0048103D02*
X0081701Y0048103D01*
X0081266Y0047922D02*
X0079871Y0046527D01*
X0079116Y0044705D01*
X0079116Y0038126D01*
X0078895Y0038035D01*
X0077882Y0037022D01*
X0077334Y0035699D01*
X0077334Y0034267D01*
X0077882Y0032943D01*
X0078895Y0031931D01*
X0080218Y0031383D01*
X0081650Y0031383D01*
X0082631Y0031789D01*
X0092121Y0031789D01*
X0093150Y0032215D01*
X0093937Y0033003D01*
X0094303Y0033368D01*
X0095069Y0034135D01*
X0095312Y0034035D01*
X0096814Y0034035D01*
X0097736Y0034416D01*
X0098658Y0034035D01*
X0100161Y0034035D01*
X0101083Y0034416D01*
X0102004Y0034035D01*
X0103507Y0034035D01*
X0104429Y0034416D01*
X0105351Y0034035D01*
X0106854Y0034035D01*
X0107776Y0034416D01*
X0108697Y0034035D01*
X0110200Y0034035D01*
X0111122Y0034416D01*
X0112044Y0034035D01*
X0113547Y0034035D01*
X0114935Y0034610D01*
X0115001Y0034676D01*
X0115281Y0034396D01*
X0115391Y0034351D01*
X0115391Y0031038D01*
X0115281Y0030993D01*
X0113886Y0029598D01*
X0113131Y0027775D01*
X0113131Y0020684D01*
X0113886Y0018862D01*
X0115281Y0017467D01*
X0117104Y0016712D01*
X0119077Y0016712D01*
X0120900Y0017467D01*
X0122295Y0018862D01*
X0123050Y0020684D01*
X0123050Y0027775D01*
X0122295Y0029598D01*
X0120900Y0030993D01*
X0120791Y0031038D01*
X0120791Y0034351D01*
X0120900Y0034396D01*
X0122295Y0035791D01*
X0123050Y0037614D01*
X0123050Y0044705D01*
X0122295Y0046527D01*
X0120900Y0047922D01*
X0119077Y0048677D01*
X0117104Y0048677D01*
X0115281Y0047922D01*
X0114054Y0046695D01*
X0113547Y0046905D01*
X0112044Y0046905D01*
X0111122Y0046524D01*
X0110200Y0046905D01*
X0108697Y0046905D01*
X0107776Y0046524D01*
X0106854Y0046905D01*
X0105351Y0046905D01*
X0104429Y0046524D01*
X0103507Y0046905D01*
X0102004Y0046905D01*
X0101083Y0046524D01*
X0100161Y0046905D01*
X0098658Y0046905D01*
X0097736Y0046524D01*
X0096814Y0046905D01*
X0095312Y0046905D01*
X0094390Y0046524D01*
X0093468Y0046905D01*
X0091965Y0046905D01*
X0091043Y0046524D01*
X0090122Y0046905D01*
X0088619Y0046905D01*
X0088111Y0046695D01*
X0086884Y0047922D01*
X0085061Y0048677D01*
X0083088Y0048677D01*
X0081266Y0047922D01*
X0079861Y0046504D02*
X0075801Y0046504D01*
X0075760Y0044906D02*
X0079199Y0044906D01*
X0079116Y0043307D02*
X0075760Y0043307D01*
X0075760Y0041709D02*
X0079116Y0041709D01*
X0079116Y0040110D02*
X0075760Y0040110D01*
X0075760Y0038512D02*
X0079116Y0038512D01*
X0077837Y0036913D02*
X0075760Y0036913D01*
X0075760Y0035315D02*
X0077334Y0035315D01*
X0077562Y0033716D02*
X0075760Y0033716D01*
X0075760Y0032118D02*
X0078708Y0032118D01*
X0080792Y0030519D02*
X0075760Y0030519D01*
X0075428Y0028921D02*
X0079590Y0028921D01*
X0079871Y0029598D02*
X0079116Y0027775D01*
X0079116Y0020684D01*
X0079871Y0018862D01*
X0081266Y0017467D01*
X0083088Y0016712D01*
X0085061Y0016712D01*
X0086884Y0017467D01*
X0088279Y0018862D01*
X0089034Y0020684D01*
X0089034Y0027775D01*
X0088279Y0029598D01*
X0086884Y0030993D01*
X0085061Y0031748D01*
X0083088Y0031748D01*
X0081266Y0030993D01*
X0079871Y0029598D01*
X0079116Y0027322D02*
X0073942Y0027322D01*
X0072343Y0025723D02*
X0079116Y0025723D01*
X0079116Y0024125D02*
X0071148Y0024125D01*
X0070419Y0022526D02*
X0079116Y0022526D01*
X0079116Y0020928D02*
X0012074Y0020928D01*
X0012074Y0019329D02*
X0079677Y0019329D01*
X0081002Y0017731D02*
X0012074Y0017731D01*
X0012074Y0016132D02*
X0125384Y0016132D01*
X0125384Y0017731D02*
X0121164Y0017731D01*
X0122488Y0019329D02*
X0125384Y0019329D01*
X0125384Y0020928D02*
X0123050Y0020928D01*
X0123050Y0022526D02*
X0125384Y0022526D01*
X0125384Y0024125D02*
X0123050Y0024125D01*
X0123050Y0025723D02*
X0125384Y0025723D01*
X0125384Y0027322D02*
X0123050Y0027322D01*
X0122575Y0028921D02*
X0125384Y0028921D01*
X0125384Y0030519D02*
X0121374Y0030519D01*
X0120791Y0032118D02*
X0125384Y0032118D01*
X0125384Y0033716D02*
X0120791Y0033716D01*
X0121818Y0035315D02*
X0125384Y0035315D01*
X0125384Y0036913D02*
X0122759Y0036913D01*
X0123050Y0038512D02*
X0125384Y0038512D01*
X0125384Y0040110D02*
X0123050Y0040110D01*
X0123050Y0041709D02*
X0125384Y0041709D01*
X0125384Y0043307D02*
X0123050Y0043307D01*
X0122966Y0044906D02*
X0125384Y0044906D01*
X0125384Y0046504D02*
X0122304Y0046504D01*
X0120464Y0048103D02*
X0125384Y0048103D01*
X0115717Y0048103D02*
X0086448Y0048103D01*
X0094651Y0033716D02*
X0115391Y0033716D01*
X0115391Y0032118D02*
X0092914Y0032118D01*
X0093937Y0033003D02*
X0093937Y0033003D01*
X0094303Y0033368D02*
X0094303Y0033368D01*
X0088560Y0028921D02*
X0113606Y0028921D01*
X0113131Y0027322D02*
X0089034Y0027322D01*
X0089034Y0025723D02*
X0113131Y0025723D01*
X0113131Y0024125D02*
X0089034Y0024125D01*
X0089034Y0022526D02*
X0113131Y0022526D01*
X0113131Y0020928D02*
X0089034Y0020928D01*
X0088473Y0019329D02*
X0113693Y0019329D01*
X0115017Y0017731D02*
X0087148Y0017731D01*
X0087358Y0030519D02*
X0114807Y0030519D01*
X0111957Y0062489D02*
X0125384Y0062489D01*
X0125384Y0064088D02*
X0112839Y0064088D01*
X0112853Y0065686D02*
X0125384Y0065686D01*
X0125384Y0067285D02*
X0111991Y0067285D01*
X0112598Y0068883D02*
X0125384Y0068883D01*
X0125384Y0070482D02*
X0114751Y0070482D01*
X0115243Y0072080D02*
X0125384Y0072080D01*
X0125384Y0073679D02*
X0115003Y0073679D01*
X0114781Y0075277D02*
X0125384Y0075277D01*
X0125384Y0076876D02*
X0115243Y0076876D01*
X0114973Y0078474D02*
X0125384Y0078474D01*
X0125384Y0080073D02*
X0113769Y0080073D01*
X0109999Y0081671D02*
X0125384Y0081671D01*
X0125384Y0083270D02*
X0108998Y0083270D01*
X0104051Y0083270D02*
X0103092Y0083270D01*
X0065598Y0059292D02*
X0012074Y0059292D01*
X0012074Y0057694D02*
X0064046Y0057694D01*
X0063667Y0056095D02*
X0012074Y0056095D01*
X0012074Y0054497D02*
X0063559Y0054497D01*
X0061960Y0052898D02*
X0012074Y0052898D01*
X0012074Y0051300D02*
X0060924Y0051300D01*
X0060911Y0049701D02*
X0012074Y0049701D01*
X0012074Y0048103D02*
X0060911Y0048103D01*
X0060911Y0046504D02*
X0012074Y0046504D01*
X0012074Y0044906D02*
X0060911Y0044906D01*
X0060911Y0043307D02*
X0012074Y0043307D01*
X0012074Y0041709D02*
X0046834Y0041709D01*
X0045235Y0040110D02*
X0012074Y0040110D01*
X0012074Y0038512D02*
X0043637Y0038512D01*
X0042038Y0036913D02*
X0012074Y0036913D01*
X0012074Y0035315D02*
X0040440Y0035315D01*
X0037175Y0033716D02*
X0012074Y0033716D01*
X0012074Y0032118D02*
X0036389Y0032118D01*
X0036474Y0030519D02*
X0012074Y0030519D01*
X0012074Y0028921D02*
X0037417Y0028921D01*
X0046105Y0028921D02*
X0063948Y0028921D01*
X0064052Y0027322D02*
X0012074Y0027322D01*
X0012074Y0025723D02*
X0064056Y0025723D01*
X0063948Y0024125D02*
X0012074Y0024125D01*
X0012074Y0022526D02*
X0064677Y0022526D01*
X0064558Y0030519D02*
X0047048Y0030519D01*
X0047241Y0032118D02*
X0063948Y0032118D01*
X0064105Y0033716D02*
X0053656Y0033716D01*
X0049157Y0033716D02*
X0048840Y0033716D01*
D18*
X0051406Y0036557D03*
X0043532Y0031439D03*
X0039989Y0031439D03*
X0045501Y0045219D03*
X0058887Y0045219D03*
X0067548Y0036557D03*
X0067548Y0032620D03*
X0067548Y0028290D03*
X0067548Y0024746D03*
X0080934Y0034983D03*
X0079359Y0047187D03*
X0070304Y0055061D03*
X0059280Y0070022D03*
X0061249Y0081439D03*
X0073454Y0081833D03*
X0073847Y0091282D03*
X0082902Y0087739D03*
X0088808Y0075928D03*
X0094713Y0075928D03*
X0100225Y0073172D03*
X0100619Y0068447D03*
X0099044Y0064904D03*
X0109280Y0064904D03*
X0116367Y0064510D03*
X0111643Y0072384D03*
X0111643Y0077109D03*
X0106524Y0080652D03*
X0100619Y0080652D03*
X0117548Y0081833D03*
X0115186Y0103093D03*
X0117548Y0107424D03*
X0119910Y0105061D03*
X0124241Y0105849D03*
X0073847Y0101124D03*
X0047469Y0124353D03*
X0108887Y0051518D03*
X0096288Y0047581D03*
X0093139Y0027502D03*
X0101013Y0027502D03*
X0108887Y0027502D03*
X0112824Y0017266D03*
X0104950Y0017266D03*
X0097076Y0017266D03*
X0089202Y0017266D03*
X0123454Y0047581D03*
D19*
X0118091Y0041159D02*
X0118091Y0024230D01*
X0102756Y0041159D02*
X0102756Y0043128D01*
X0102756Y0041159D02*
X0099409Y0037813D01*
X0092717Y0037813D02*
X0092717Y0037373D01*
X0073060Y0030258D02*
X0067548Y0024746D01*
X0067548Y0028290D02*
X0071485Y0031833D01*
X0071485Y0047975D01*
X0090383Y0066872D01*
X0093926Y0066872D01*
X0100225Y0073172D01*
X0099831Y0070809D02*
X0106918Y0070809D01*
X0111643Y0075534D01*
X0111643Y0077109D01*
X0111643Y0072384D02*
X0107706Y0068447D01*
X0100619Y0068447D01*
X0099831Y0070809D02*
X0094320Y0065298D01*
X0090776Y0065298D01*
X0073060Y0047581D01*
X0073060Y0030258D01*
X0069910Y0034983D02*
X0069910Y0048368D01*
X0089989Y0068447D01*
X0092351Y0068447D01*
X0099438Y0075534D01*
X0105343Y0075534D01*
X0106524Y0076715D01*
X0106524Y0080652D01*
X0100619Y0080652D02*
X0100619Y0078683D01*
X0091957Y0070022D01*
X0089595Y0070022D01*
X0068335Y0048762D01*
X0068335Y0037345D01*
X0067548Y0036557D01*
X0069910Y0034983D02*
X0067548Y0032620D01*
X0064398Y0036557D02*
X0066761Y0038920D01*
X0066761Y0049550D01*
X0070304Y0053093D01*
X0070304Y0055061D01*
X0067942Y0055849D02*
X0069517Y0057424D01*
X0075028Y0057424D01*
X0089202Y0071597D01*
X0091564Y0071597D01*
X0094713Y0074746D01*
X0094713Y0075928D01*
X0088808Y0075928D02*
X0088808Y0073172D01*
X0074635Y0058998D01*
X0069123Y0058998D01*
X0066367Y0056242D01*
X0066367Y0053487D01*
X0063611Y0050731D01*
X0063611Y0041282D01*
X0062824Y0040494D01*
X0049438Y0040494D01*
X0040383Y0031439D01*
X0039989Y0031439D01*
X0043532Y0031439D02*
X0043532Y0032227D01*
X0050225Y0038920D01*
X0064005Y0038920D01*
X0065186Y0040101D01*
X0065186Y0050337D01*
X0067942Y0053093D01*
X0067942Y0055849D01*
X0064398Y0036557D02*
X0051406Y0036557D01*
X0073454Y0081833D02*
X0068965Y0086321D01*
X0056524Y0086321D01*
X0056524Y0096321D02*
X0062430Y0102227D01*
X0062430Y0107424D01*
X0066761Y0111754D01*
X0111249Y0111754D01*
X0115186Y0107817D01*
X0115186Y0106242D01*
X0116367Y0105061D01*
X0119910Y0105061D01*
X0117548Y0107424D02*
X0117548Y0108605D01*
X0112036Y0114117D01*
X0064320Y0114117D01*
X0056524Y0106321D01*
X0056524Y0116321D02*
X0055501Y0116321D01*
X0047469Y0124353D01*
X0056524Y0116321D02*
X0113769Y0116321D01*
X0124241Y0105849D01*
X0117548Y0100731D02*
X0117548Y0081833D01*
X0109280Y0064904D02*
X0099044Y0064904D01*
X0081721Y0086557D02*
X0082902Y0087739D01*
X0081721Y0086557D02*
X0076446Y0086557D01*
X0076209Y0086321D01*
X0073847Y0091282D02*
X0073847Y0093959D01*
X0076209Y0096321D01*
X0073847Y0101124D02*
X0073847Y0103959D01*
X0076209Y0106321D01*
X0115186Y0103093D02*
X0117548Y0100731D01*
D20*
X0092717Y0037813D02*
X0092717Y0035742D01*
X0091564Y0034589D01*
X0081328Y0034589D01*
X0080934Y0034983D01*
M02*
