G75*
%MOIN*%
%OFA0B0*%
%FSLAX25Y25*%
%IPPOS*%
%LPD*%
%AMOC8*
5,1,8,0,0,1.08239X$1,22.5*
%
%ADD10C,0.00000*%
%ADD11R,0.04252X0.04134*%
%ADD12R,0.04134X0.04252*%
%ADD13R,0.02913X0.03642*%
%ADD14R,0.03642X0.02913*%
%ADD15R,0.04134X0.07283*%
%ADD16R,0.00984X0.07283*%
%ADD17R,0.00984X0.04921*%
%ADD18R,0.03937X0.05669*%
%ADD19R,0.04724X0.05669*%
%ADD20R,0.03150X0.03150*%
%ADD21R,0.03543X0.02756*%
%ADD22R,0.02756X0.03543*%
%ADD23R,0.02559X0.04134*%
%ADD24R,0.02165X0.02165*%
%ADD25R,0.01575X0.02362*%
%ADD26R,0.02362X0.01575*%
%ADD27R,0.02953X0.05315*%
%ADD28R,0.02362X0.00787*%
%ADD29R,0.04331X0.07480*%
D10*
X0029754Y0037982D02*
X0029754Y0156093D01*
X0100620Y0156093D01*
X0100620Y0037982D01*
X0029754Y0037982D01*
D11*
X0049046Y0069183D03*
X0049046Y0076073D03*
X0055345Y0076073D03*
X0055345Y0069183D03*
X0035266Y0092018D03*
X0035266Y0098907D03*
X0070699Y0141230D03*
X0070699Y0148120D03*
X0080148Y0148120D03*
X0080148Y0141230D03*
D12*
X0042648Y0076171D03*
X0042648Y0069872D03*
X0035758Y0069872D03*
X0035758Y0076171D03*
D13*
X0050620Y0060620D03*
X0050620Y0055502D03*
X0042746Y0050384D03*
X0042746Y0045266D03*
X0037235Y0045266D03*
X0037235Y0050384D03*
X0085266Y0047234D03*
X0085266Y0042116D03*
D14*
X0077983Y0056486D03*
X0077983Y0060817D03*
X0077983Y0065541D03*
X0077983Y0069872D03*
X0072864Y0069872D03*
X0072864Y0065541D03*
X0072864Y0060817D03*
X0072864Y0056486D03*
D15*
X0079518Y0042785D03*
X0050857Y0042785D03*
D16*
X0054361Y0042785D03*
X0076014Y0042785D03*
D17*
X0074046Y0042785D03*
X0072077Y0042785D03*
X0070109Y0042785D03*
X0068140Y0042785D03*
X0066172Y0042785D03*
X0064203Y0042785D03*
X0062235Y0042785D03*
X0060266Y0042785D03*
X0058298Y0042785D03*
X0056329Y0042785D03*
D18*
X0062825Y0053730D03*
X0062825Y0062392D03*
X0055345Y0062392D03*
D19*
X0056132Y0053730D03*
D20*
X0047471Y0131289D03*
X0047471Y0137195D03*
X0047471Y0143100D03*
X0047471Y0149006D03*
X0041172Y0149006D03*
X0041172Y0143100D03*
X0041172Y0137195D03*
X0041172Y0131289D03*
D21*
X0068731Y0078730D03*
X0068731Y0073612D03*
D22*
X0068927Y0049400D03*
X0074046Y0049400D03*
X0059085Y0131289D03*
X0053967Y0131289D03*
X0053967Y0137195D03*
X0059085Y0137195D03*
X0059085Y0143100D03*
X0053967Y0143100D03*
X0053967Y0149006D03*
X0059085Y0149006D03*
D23*
X0087333Y0148514D03*
X0095798Y0148514D03*
X0095798Y0132175D03*
X0087333Y0132175D03*
D24*
X0083396Y0077648D03*
X0083396Y0074695D03*
X0072963Y0074695D03*
X0072963Y0077648D03*
D25*
X0070896Y0085817D03*
X0067746Y0085817D03*
X0064597Y0085817D03*
X0066172Y0089360D03*
X0069321Y0089360D03*
X0072471Y0089360D03*
X0075620Y0089360D03*
X0077195Y0085817D03*
X0080345Y0085817D03*
X0081920Y0089360D03*
X0078770Y0089360D03*
X0084675Y0085817D03*
X0063022Y0089360D03*
X0059872Y0089360D03*
X0056723Y0089360D03*
X0058298Y0085817D03*
X0055148Y0085817D03*
X0051998Y0085817D03*
X0048849Y0085817D03*
X0045699Y0085817D03*
X0050423Y0089360D03*
X0053573Y0089360D03*
X0056723Y0118888D03*
X0059872Y0118888D03*
X0063022Y0118888D03*
X0066172Y0118888D03*
X0069321Y0118888D03*
X0067746Y0122431D03*
X0064597Y0122431D03*
X0061447Y0122431D03*
X0058298Y0122431D03*
X0055148Y0122431D03*
X0070896Y0122431D03*
X0077195Y0122431D03*
X0080345Y0122431D03*
X0084675Y0122431D03*
D26*
X0067746Y0111998D03*
X0067746Y0108848D03*
X0067746Y0105699D03*
X0067746Y0102549D03*
X0067746Y0099400D03*
X0067746Y0096250D03*
X0045305Y0096250D03*
X0045305Y0099400D03*
X0045305Y0102549D03*
X0045305Y0105699D03*
X0045305Y0108848D03*
X0045305Y0111998D03*
X0041762Y0110423D03*
X0041762Y0107274D03*
X0041762Y0104124D03*
X0041762Y0100974D03*
X0041762Y0097825D03*
X0041762Y0094675D03*
X0041762Y0091526D03*
X0041762Y0088376D03*
X0041762Y0085226D03*
X0041762Y0113573D03*
X0041762Y0116722D03*
X0041762Y0119872D03*
X0041762Y0123022D03*
D27*
X0039990Y0059242D03*
D28*
X0036152Y0059242D03*
X0036152Y0056683D03*
X0036152Y0061801D03*
X0043829Y0061801D03*
X0043829Y0059242D03*
X0043829Y0056683D03*
D29*
X0070502Y0133652D03*
X0080345Y0133652D03*
M02*
