%
M48
M72
T01C0.01200
T02C0.03500
%
T01
X32904Y41132
X39203Y41132
X45502Y41132
X49833Y48612
X53376Y48612
X57707Y48219
X47471Y52156
X47471Y64360
X51408Y64360
X43534Y65148
X34872Y65148
X32904Y53730
X43927Y80502
X36841Y84833
X47077Y89557
X51408Y92707
X55345Y92707
X61250Y86014
X64006Y80896
X64006Y77746
X68731Y68297
X68731Y63179
X68731Y59242
X71486Y52549
X77392Y49400
X80542Y48612
X81329Y53730
X88416Y60817
X97471Y60817
X97471Y50974
X97471Y41132
X97471Y71053
X81723Y81683
X78179Y81683
X83691Y92707
X76605Y103337
X73061Y93494
X60463Y103337
X63219Y113967
X51801Y116329
X51801Y119478
X50227Y107274
X37235Y110423
X35266Y102943
X37235Y122234
X63219Y129715
X62825Y132864
X65187Y152943
X49046Y152943
X32904Y152943
X81329Y152943
X93534Y140344
X97471Y152943
X82510Y117510
T02
X91959Y75856
X91959Y65856
X91959Y55856
X91959Y45856
M30
