G75*
%MOIN*%
%OFA0B0*%
%FSLAX25Y25*%
%IPPOS*%
%LPD*%
%AMOC8*
5,1,8,0,0,1.08239X$1,22.5*
%
%ADD10C,0.00000*%
%ADD11C,0.00500*%
%ADD12C,0.00300*%
%ADD13C,0.01378*%
%ADD14C,0.00200*%
%ADD15R,0.01575X0.01575*%
D10*
X0021345Y0060541D02*
X0021345Y0185541D01*
X0096345Y0185541D01*
X0096345Y0060541D01*
X0021345Y0060541D01*
X0048018Y0070541D02*
X0048020Y0070629D01*
X0048026Y0070717D01*
X0048036Y0070805D01*
X0048050Y0070893D01*
X0048067Y0070979D01*
X0048089Y0071065D01*
X0048114Y0071149D01*
X0048144Y0071233D01*
X0048176Y0071315D01*
X0048213Y0071395D01*
X0048253Y0071474D01*
X0048297Y0071551D01*
X0048344Y0071626D01*
X0048394Y0071698D01*
X0048448Y0071769D01*
X0048504Y0071836D01*
X0048564Y0071902D01*
X0048626Y0071964D01*
X0048692Y0072024D01*
X0048759Y0072080D01*
X0048830Y0072134D01*
X0048902Y0072184D01*
X0048977Y0072231D01*
X0049054Y0072275D01*
X0049133Y0072315D01*
X0049213Y0072352D01*
X0049295Y0072384D01*
X0049379Y0072414D01*
X0049463Y0072439D01*
X0049549Y0072461D01*
X0049635Y0072478D01*
X0049723Y0072492D01*
X0049811Y0072502D01*
X0049899Y0072508D01*
X0049987Y0072510D01*
X0050075Y0072508D01*
X0050163Y0072502D01*
X0050251Y0072492D01*
X0050339Y0072478D01*
X0050425Y0072461D01*
X0050511Y0072439D01*
X0050595Y0072414D01*
X0050679Y0072384D01*
X0050761Y0072352D01*
X0050841Y0072315D01*
X0050920Y0072275D01*
X0050997Y0072231D01*
X0051072Y0072184D01*
X0051144Y0072134D01*
X0051215Y0072080D01*
X0051282Y0072024D01*
X0051348Y0071964D01*
X0051410Y0071902D01*
X0051470Y0071836D01*
X0051526Y0071769D01*
X0051580Y0071698D01*
X0051630Y0071626D01*
X0051677Y0071551D01*
X0051721Y0071474D01*
X0051761Y0071395D01*
X0051798Y0071315D01*
X0051830Y0071233D01*
X0051860Y0071149D01*
X0051885Y0071065D01*
X0051907Y0070979D01*
X0051924Y0070893D01*
X0051938Y0070805D01*
X0051948Y0070717D01*
X0051954Y0070629D01*
X0051956Y0070541D01*
X0051954Y0070453D01*
X0051948Y0070365D01*
X0051938Y0070277D01*
X0051924Y0070189D01*
X0051907Y0070103D01*
X0051885Y0070017D01*
X0051860Y0069933D01*
X0051830Y0069849D01*
X0051798Y0069767D01*
X0051761Y0069687D01*
X0051721Y0069608D01*
X0051677Y0069531D01*
X0051630Y0069456D01*
X0051580Y0069384D01*
X0051526Y0069313D01*
X0051470Y0069246D01*
X0051410Y0069180D01*
X0051348Y0069118D01*
X0051282Y0069058D01*
X0051215Y0069002D01*
X0051144Y0068948D01*
X0051072Y0068898D01*
X0050997Y0068851D01*
X0050920Y0068807D01*
X0050841Y0068767D01*
X0050761Y0068730D01*
X0050679Y0068698D01*
X0050595Y0068668D01*
X0050511Y0068643D01*
X0050425Y0068621D01*
X0050339Y0068604D01*
X0050251Y0068590D01*
X0050163Y0068580D01*
X0050075Y0068574D01*
X0049987Y0068572D01*
X0049899Y0068574D01*
X0049811Y0068580D01*
X0049723Y0068590D01*
X0049635Y0068604D01*
X0049549Y0068621D01*
X0049463Y0068643D01*
X0049379Y0068668D01*
X0049295Y0068698D01*
X0049213Y0068730D01*
X0049133Y0068767D01*
X0049054Y0068807D01*
X0048977Y0068851D01*
X0048902Y0068898D01*
X0048830Y0068948D01*
X0048759Y0069002D01*
X0048692Y0069058D01*
X0048626Y0069118D01*
X0048564Y0069180D01*
X0048504Y0069246D01*
X0048448Y0069313D01*
X0048394Y0069384D01*
X0048344Y0069456D01*
X0048297Y0069531D01*
X0048253Y0069608D01*
X0048213Y0069687D01*
X0048176Y0069767D01*
X0048144Y0069849D01*
X0048114Y0069933D01*
X0048089Y0070017D01*
X0048067Y0070103D01*
X0048050Y0070189D01*
X0048036Y0070277D01*
X0048026Y0070365D01*
X0048020Y0070453D01*
X0048018Y0070541D01*
X0065734Y0070541D02*
X0065736Y0070629D01*
X0065742Y0070717D01*
X0065752Y0070805D01*
X0065766Y0070893D01*
X0065783Y0070979D01*
X0065805Y0071065D01*
X0065830Y0071149D01*
X0065860Y0071233D01*
X0065892Y0071315D01*
X0065929Y0071395D01*
X0065969Y0071474D01*
X0066013Y0071551D01*
X0066060Y0071626D01*
X0066110Y0071698D01*
X0066164Y0071769D01*
X0066220Y0071836D01*
X0066280Y0071902D01*
X0066342Y0071964D01*
X0066408Y0072024D01*
X0066475Y0072080D01*
X0066546Y0072134D01*
X0066618Y0072184D01*
X0066693Y0072231D01*
X0066770Y0072275D01*
X0066849Y0072315D01*
X0066929Y0072352D01*
X0067011Y0072384D01*
X0067095Y0072414D01*
X0067179Y0072439D01*
X0067265Y0072461D01*
X0067351Y0072478D01*
X0067439Y0072492D01*
X0067527Y0072502D01*
X0067615Y0072508D01*
X0067703Y0072510D01*
X0067791Y0072508D01*
X0067879Y0072502D01*
X0067967Y0072492D01*
X0068055Y0072478D01*
X0068141Y0072461D01*
X0068227Y0072439D01*
X0068311Y0072414D01*
X0068395Y0072384D01*
X0068477Y0072352D01*
X0068557Y0072315D01*
X0068636Y0072275D01*
X0068713Y0072231D01*
X0068788Y0072184D01*
X0068860Y0072134D01*
X0068931Y0072080D01*
X0068998Y0072024D01*
X0069064Y0071964D01*
X0069126Y0071902D01*
X0069186Y0071836D01*
X0069242Y0071769D01*
X0069296Y0071698D01*
X0069346Y0071626D01*
X0069393Y0071551D01*
X0069437Y0071474D01*
X0069477Y0071395D01*
X0069514Y0071315D01*
X0069546Y0071233D01*
X0069576Y0071149D01*
X0069601Y0071065D01*
X0069623Y0070979D01*
X0069640Y0070893D01*
X0069654Y0070805D01*
X0069664Y0070717D01*
X0069670Y0070629D01*
X0069672Y0070541D01*
X0069670Y0070453D01*
X0069664Y0070365D01*
X0069654Y0070277D01*
X0069640Y0070189D01*
X0069623Y0070103D01*
X0069601Y0070017D01*
X0069576Y0069933D01*
X0069546Y0069849D01*
X0069514Y0069767D01*
X0069477Y0069687D01*
X0069437Y0069608D01*
X0069393Y0069531D01*
X0069346Y0069456D01*
X0069296Y0069384D01*
X0069242Y0069313D01*
X0069186Y0069246D01*
X0069126Y0069180D01*
X0069064Y0069118D01*
X0068998Y0069058D01*
X0068931Y0069002D01*
X0068860Y0068948D01*
X0068788Y0068898D01*
X0068713Y0068851D01*
X0068636Y0068807D01*
X0068557Y0068767D01*
X0068477Y0068730D01*
X0068395Y0068698D01*
X0068311Y0068668D01*
X0068227Y0068643D01*
X0068141Y0068621D01*
X0068055Y0068604D01*
X0067967Y0068590D01*
X0067879Y0068580D01*
X0067791Y0068574D01*
X0067703Y0068572D01*
X0067615Y0068574D01*
X0067527Y0068580D01*
X0067439Y0068590D01*
X0067351Y0068604D01*
X0067265Y0068621D01*
X0067179Y0068643D01*
X0067095Y0068668D01*
X0067011Y0068698D01*
X0066929Y0068730D01*
X0066849Y0068767D01*
X0066770Y0068807D01*
X0066693Y0068851D01*
X0066618Y0068898D01*
X0066546Y0068948D01*
X0066475Y0069002D01*
X0066408Y0069058D01*
X0066342Y0069118D01*
X0066280Y0069180D01*
X0066220Y0069246D01*
X0066164Y0069313D01*
X0066110Y0069384D01*
X0066060Y0069456D01*
X0066013Y0069531D01*
X0065969Y0069608D01*
X0065929Y0069687D01*
X0065892Y0069767D01*
X0065860Y0069849D01*
X0065830Y0069933D01*
X0065805Y0070017D01*
X0065783Y0070103D01*
X0065766Y0070189D01*
X0065752Y0070277D01*
X0065742Y0070365D01*
X0065736Y0070453D01*
X0065734Y0070541D01*
D11*
X0073126Y0113666D02*
X0073128Y0113754D01*
X0073134Y0113842D01*
X0073144Y0113930D01*
X0073158Y0114018D01*
X0073175Y0114104D01*
X0073197Y0114190D01*
X0073222Y0114274D01*
X0073252Y0114358D01*
X0073284Y0114440D01*
X0073321Y0114520D01*
X0073361Y0114599D01*
X0073405Y0114676D01*
X0073452Y0114751D01*
X0073502Y0114823D01*
X0073556Y0114894D01*
X0073612Y0114961D01*
X0073672Y0115027D01*
X0073734Y0115089D01*
X0073800Y0115149D01*
X0073867Y0115205D01*
X0073938Y0115259D01*
X0074010Y0115309D01*
X0074085Y0115356D01*
X0074162Y0115400D01*
X0074241Y0115440D01*
X0074321Y0115477D01*
X0074403Y0115509D01*
X0074487Y0115539D01*
X0074571Y0115564D01*
X0074657Y0115586D01*
X0074743Y0115603D01*
X0074831Y0115617D01*
X0074919Y0115627D01*
X0075007Y0115633D01*
X0075095Y0115635D01*
X0075183Y0115633D01*
X0075271Y0115627D01*
X0075359Y0115617D01*
X0075447Y0115603D01*
X0075533Y0115586D01*
X0075619Y0115564D01*
X0075703Y0115539D01*
X0075787Y0115509D01*
X0075869Y0115477D01*
X0075949Y0115440D01*
X0076028Y0115400D01*
X0076105Y0115356D01*
X0076180Y0115309D01*
X0076252Y0115259D01*
X0076323Y0115205D01*
X0076390Y0115149D01*
X0076456Y0115089D01*
X0076518Y0115027D01*
X0076578Y0114961D01*
X0076634Y0114894D01*
X0076688Y0114823D01*
X0076738Y0114751D01*
X0076785Y0114676D01*
X0076829Y0114599D01*
X0076869Y0114520D01*
X0076906Y0114440D01*
X0076938Y0114358D01*
X0076968Y0114274D01*
X0076993Y0114190D01*
X0077015Y0114104D01*
X0077032Y0114018D01*
X0077046Y0113930D01*
X0077056Y0113842D01*
X0077062Y0113754D01*
X0077064Y0113666D01*
X0077062Y0113578D01*
X0077056Y0113490D01*
X0077046Y0113402D01*
X0077032Y0113314D01*
X0077015Y0113228D01*
X0076993Y0113142D01*
X0076968Y0113058D01*
X0076938Y0112974D01*
X0076906Y0112892D01*
X0076869Y0112812D01*
X0076829Y0112733D01*
X0076785Y0112656D01*
X0076738Y0112581D01*
X0076688Y0112509D01*
X0076634Y0112438D01*
X0076578Y0112371D01*
X0076518Y0112305D01*
X0076456Y0112243D01*
X0076390Y0112183D01*
X0076323Y0112127D01*
X0076252Y0112073D01*
X0076180Y0112023D01*
X0076105Y0111976D01*
X0076028Y0111932D01*
X0075949Y0111892D01*
X0075869Y0111855D01*
X0075787Y0111823D01*
X0075703Y0111793D01*
X0075619Y0111768D01*
X0075533Y0111746D01*
X0075447Y0111729D01*
X0075359Y0111715D01*
X0075271Y0111705D01*
X0075183Y0111699D01*
X0075095Y0111697D01*
X0075007Y0111699D01*
X0074919Y0111705D01*
X0074831Y0111715D01*
X0074743Y0111729D01*
X0074657Y0111746D01*
X0074571Y0111768D01*
X0074487Y0111793D01*
X0074403Y0111823D01*
X0074321Y0111855D01*
X0074241Y0111892D01*
X0074162Y0111932D01*
X0074085Y0111976D01*
X0074010Y0112023D01*
X0073938Y0112073D01*
X0073867Y0112127D01*
X0073800Y0112183D01*
X0073734Y0112243D01*
X0073672Y0112305D01*
X0073612Y0112371D01*
X0073556Y0112438D01*
X0073502Y0112509D01*
X0073452Y0112581D01*
X0073405Y0112656D01*
X0073361Y0112733D01*
X0073321Y0112812D01*
X0073284Y0112892D01*
X0073252Y0112974D01*
X0073222Y0113058D01*
X0073197Y0113142D01*
X0073175Y0113228D01*
X0073158Y0113314D01*
X0073144Y0113402D01*
X0073134Y0113490D01*
X0073128Y0113578D01*
X0073126Y0113666D01*
X0095607Y0119872D02*
X0034583Y0119872D01*
X0034583Y0161211D01*
X0095607Y0161211D01*
X0095607Y0119872D01*
D12*
X0093542Y0162064D02*
X0091607Y0162064D01*
X0092574Y0162064D02*
X0092574Y0164967D01*
X0091607Y0163999D01*
X0090595Y0164967D02*
X0090595Y0162548D01*
X0090112Y0162064D01*
X0089144Y0162064D01*
X0088660Y0162548D01*
X0088660Y0164967D01*
D13*
X0027595Y0151791D03*
D14*
X0031756Y0151284D02*
X0033558Y0150083D01*
X0033558Y0151284D02*
X0031756Y0150083D01*
X0032357Y0151925D02*
X0031756Y0152525D01*
X0033558Y0152525D01*
X0033558Y0151925D02*
X0033558Y0153126D01*
X0032495Y0162204D02*
X0030694Y0162204D01*
X0030694Y0163105D01*
X0030994Y0163405D01*
X0031594Y0163405D01*
X0031895Y0163105D01*
X0031895Y0162204D01*
X0031895Y0162804D02*
X0032495Y0163405D01*
X0032495Y0164045D02*
X0032195Y0164045D01*
X0030994Y0165246D01*
X0030694Y0165246D01*
X0030694Y0164045D01*
X0028213Y0173429D02*
X0027012Y0173429D01*
X0027612Y0173429D02*
X0027612Y0175230D01*
X0027012Y0174630D01*
X0026371Y0174930D02*
X0026071Y0175230D01*
X0025470Y0175230D01*
X0025170Y0174930D01*
X0025170Y0173729D01*
X0025470Y0173429D01*
X0026071Y0173429D01*
X0026371Y0173729D01*
X0027117Y0176953D02*
X0026817Y0177254D01*
X0026817Y0178755D01*
X0027117Y0176953D02*
X0027718Y0176953D01*
X0028018Y0177254D01*
X0028018Y0178755D01*
X0028659Y0178455D02*
X0028959Y0178755D01*
X0029559Y0178755D01*
X0029860Y0178455D01*
X0029860Y0178154D01*
X0029559Y0177854D01*
X0029860Y0177554D01*
X0029860Y0177254D01*
X0029559Y0176953D01*
X0028959Y0176953D01*
X0028659Y0177254D01*
X0029259Y0177854D02*
X0029559Y0177854D01*
X0044258Y0181567D02*
X0044558Y0181266D01*
X0045158Y0181266D01*
X0045459Y0181567D01*
X0046099Y0181266D02*
X0047300Y0181266D01*
X0046700Y0181266D02*
X0046700Y0183068D01*
X0046099Y0182467D01*
X0045459Y0182768D02*
X0045158Y0183068D01*
X0044558Y0183068D01*
X0044258Y0182768D01*
X0044258Y0181567D01*
X0047941Y0181266D02*
X0049142Y0182467D01*
X0049142Y0182768D01*
X0048842Y0183068D01*
X0048241Y0183068D01*
X0047941Y0182768D01*
X0047941Y0181266D02*
X0049142Y0181266D01*
X0053945Y0181891D02*
X0055146Y0181891D01*
X0055787Y0181891D02*
X0056988Y0181891D01*
X0057628Y0181891D02*
X0057628Y0183693D01*
X0058529Y0183693D01*
X0058829Y0183393D01*
X0058829Y0182192D01*
X0058529Y0181891D01*
X0057628Y0181891D01*
X0056387Y0182792D02*
X0055787Y0182792D01*
X0055787Y0183693D02*
X0055787Y0181891D01*
X0055787Y0183693D02*
X0056988Y0183693D01*
X0053945Y0183693D02*
X0053945Y0181891D01*
X0059470Y0182192D02*
X0059770Y0181891D01*
X0060371Y0181891D01*
X0060671Y0182192D01*
X0060671Y0182492D01*
X0060371Y0182792D01*
X0060070Y0182792D01*
X0060371Y0182792D02*
X0060671Y0183092D01*
X0060671Y0183393D01*
X0060371Y0183693D01*
X0059770Y0183693D01*
X0059470Y0183393D01*
X0065195Y0183693D02*
X0065195Y0181891D01*
X0066396Y0181891D01*
X0067037Y0181891D02*
X0068238Y0181891D01*
X0068878Y0181891D02*
X0068878Y0183693D01*
X0069779Y0183693D01*
X0070079Y0183393D01*
X0070079Y0182192D01*
X0069779Y0181891D01*
X0068878Y0181891D01*
X0067637Y0182792D02*
X0067037Y0182792D01*
X0067037Y0183693D02*
X0067037Y0181891D01*
X0067037Y0183693D02*
X0068238Y0183693D01*
X0070720Y0183393D02*
X0071020Y0183693D01*
X0071621Y0183693D01*
X0071921Y0183393D01*
X0071921Y0183092D01*
X0070720Y0181891D01*
X0071921Y0181891D01*
X0080273Y0182263D02*
X0080707Y0181829D01*
X0081574Y0181829D01*
X0082008Y0181396D01*
X0082008Y0180962D01*
X0081574Y0180528D01*
X0080707Y0180528D01*
X0080273Y0180962D01*
X0080273Y0182263D02*
X0080273Y0182697D01*
X0080707Y0183131D01*
X0081574Y0183131D01*
X0082008Y0182697D01*
X0082851Y0183131D02*
X0082851Y0180528D01*
X0083719Y0181396D01*
X0084586Y0180528D01*
X0084586Y0183131D01*
X0085429Y0182263D02*
X0086297Y0183131D01*
X0086297Y0180528D01*
X0087164Y0180528D02*
X0085429Y0180528D01*
X0069495Y0164701D02*
X0069495Y0164100D01*
X0069195Y0163800D01*
X0068594Y0163800D02*
X0068294Y0164400D01*
X0068294Y0164701D01*
X0068594Y0165001D01*
X0069195Y0165001D01*
X0069495Y0164701D01*
X0068594Y0163800D02*
X0067694Y0163800D01*
X0067694Y0165001D01*
X0067994Y0163159D02*
X0068594Y0163159D01*
X0068895Y0162859D01*
X0068895Y0161958D01*
X0069495Y0161958D02*
X0067694Y0161958D01*
X0067694Y0162859D01*
X0067994Y0163159D01*
X0068895Y0162559D02*
X0069495Y0163159D01*
X0064495Y0163159D02*
X0063895Y0162559D01*
X0063895Y0162859D02*
X0063895Y0161958D01*
X0064495Y0161958D02*
X0062694Y0161958D01*
X0062694Y0162859D01*
X0062994Y0163159D01*
X0063594Y0163159D01*
X0063895Y0162859D01*
X0063594Y0163800D02*
X0063594Y0165001D01*
X0062694Y0164701D02*
X0063594Y0163800D01*
X0062694Y0164701D02*
X0064495Y0164701D01*
X0059495Y0164701D02*
X0059495Y0164100D01*
X0059195Y0163800D01*
X0059495Y0163159D02*
X0058895Y0162559D01*
X0058895Y0162859D02*
X0058895Y0161958D01*
X0059495Y0161958D02*
X0057694Y0161958D01*
X0057694Y0162859D01*
X0057994Y0163159D01*
X0058594Y0163159D01*
X0058895Y0162859D01*
X0057994Y0163800D02*
X0057694Y0164100D01*
X0057694Y0164701D01*
X0057994Y0165001D01*
X0058294Y0165001D01*
X0058594Y0164701D01*
X0058895Y0165001D01*
X0059195Y0165001D01*
X0059495Y0164701D01*
X0058594Y0164701D02*
X0058594Y0164400D01*
X0054495Y0164100D02*
X0054495Y0164701D01*
X0054195Y0165001D01*
X0053895Y0165001D01*
X0053594Y0164701D01*
X0053594Y0163800D01*
X0054195Y0163800D01*
X0054495Y0164100D01*
X0054495Y0163159D02*
X0053895Y0162559D01*
X0053895Y0162859D02*
X0053895Y0161958D01*
X0054495Y0161958D02*
X0052694Y0161958D01*
X0052694Y0162859D01*
X0052994Y0163159D01*
X0053594Y0163159D01*
X0053895Y0162859D01*
X0053594Y0163800D02*
X0052994Y0164400D01*
X0052694Y0165001D01*
X0048238Y0168754D02*
X0047937Y0168454D01*
X0047337Y0168454D01*
X0047037Y0168754D01*
X0047037Y0169054D01*
X0047337Y0169355D01*
X0047937Y0169355D01*
X0048238Y0169054D01*
X0048238Y0168754D01*
X0047937Y0169355D02*
X0048238Y0169655D01*
X0048238Y0169955D01*
X0047937Y0170255D01*
X0047337Y0170255D01*
X0047037Y0169955D01*
X0047037Y0169655D01*
X0047337Y0169355D01*
X0046396Y0169355D02*
X0046396Y0169955D01*
X0046096Y0170255D01*
X0045195Y0170255D01*
X0045195Y0168454D01*
X0045195Y0169054D02*
X0046096Y0169054D01*
X0046396Y0169355D01*
X0045796Y0169054D02*
X0046396Y0168454D01*
X0031370Y0137813D02*
X0031370Y0136612D01*
X0030169Y0137813D01*
X0029869Y0137813D01*
X0029569Y0137513D01*
X0029569Y0136913D01*
X0029869Y0136612D01*
X0029869Y0135972D02*
X0029569Y0135671D01*
X0029569Y0135071D01*
X0029869Y0134771D01*
X0031070Y0134771D01*
X0031370Y0135071D01*
X0031370Y0135671D01*
X0031070Y0135972D01*
X0031070Y0124038D02*
X0031370Y0123738D01*
X0031370Y0123138D01*
X0031070Y0122837D01*
X0031070Y0122197D02*
X0031370Y0121896D01*
X0031370Y0121296D01*
X0031070Y0120996D01*
X0029869Y0120996D01*
X0029569Y0121296D01*
X0029569Y0121896D01*
X0029869Y0122197D01*
X0029869Y0122837D02*
X0029569Y0123138D01*
X0029569Y0123738D01*
X0029869Y0124038D01*
X0030169Y0124038D01*
X0030469Y0123738D01*
X0030770Y0124038D01*
X0031070Y0124038D01*
X0030469Y0123738D02*
X0030469Y0123438D01*
X0030471Y0109318D02*
X0029870Y0109318D01*
X0029570Y0109018D01*
X0029570Y0107817D01*
X0029870Y0107516D01*
X0030471Y0107516D01*
X0030771Y0107817D01*
X0031412Y0108417D02*
X0032613Y0108417D01*
X0032312Y0107516D02*
X0032312Y0109318D01*
X0031412Y0108417D01*
X0030771Y0109018D02*
X0030471Y0109318D01*
X0036445Y0098468D02*
X0036445Y0096633D01*
X0036812Y0096266D01*
X0037546Y0096266D01*
X0037913Y0096633D01*
X0037913Y0098468D01*
X0038655Y0098101D02*
X0039022Y0098468D01*
X0039756Y0098468D01*
X0040123Y0098101D01*
X0040123Y0097734D01*
X0038655Y0096266D01*
X0040123Y0096266D01*
X0036134Y0084495D02*
X0036134Y0083293D01*
X0034933Y0084495D01*
X0034633Y0084495D01*
X0034333Y0084194D01*
X0034333Y0083594D01*
X0034633Y0083293D01*
X0034633Y0082653D02*
X0034933Y0082653D01*
X0035234Y0082353D01*
X0035234Y0081452D01*
X0036134Y0081452D02*
X0034333Y0081452D01*
X0034333Y0082353D01*
X0034633Y0082653D01*
X0035234Y0082353D02*
X0035534Y0082653D01*
X0035834Y0082653D01*
X0036134Y0082353D01*
X0036134Y0081452D01*
X0035234Y0080211D02*
X0035234Y0079610D01*
X0036134Y0079610D02*
X0034333Y0079610D01*
X0034333Y0080811D01*
X0032933Y0080997D02*
X0032933Y0079796D01*
X0032933Y0080396D02*
X0031131Y0080396D01*
X0031732Y0079796D01*
X0031431Y0079155D02*
X0031131Y0078855D01*
X0031131Y0078254D01*
X0031431Y0077954D01*
X0032632Y0077954D01*
X0032933Y0078254D01*
X0032933Y0078855D01*
X0032632Y0079155D01*
X0032933Y0081637D02*
X0032933Y0082838D01*
X0032933Y0082238D02*
X0031131Y0082238D01*
X0031732Y0081637D01*
X0047070Y0103141D02*
X0047971Y0103141D01*
X0048271Y0103442D01*
X0048271Y0104643D01*
X0047971Y0104943D01*
X0047070Y0104943D01*
X0047070Y0103141D01*
X0048912Y0103141D02*
X0050113Y0104342D01*
X0050113Y0104643D01*
X0049812Y0104943D01*
X0049212Y0104943D01*
X0048912Y0104643D01*
X0048912Y0103141D02*
X0050113Y0103141D01*
X0051745Y0111266D02*
X0051445Y0111567D01*
X0051445Y0112768D01*
X0051745Y0113068D01*
X0052346Y0113068D01*
X0052646Y0112768D01*
X0053287Y0112768D02*
X0053287Y0112467D01*
X0053587Y0112167D01*
X0054187Y0112167D01*
X0054488Y0111867D01*
X0054488Y0111567D01*
X0054187Y0111266D01*
X0053587Y0111266D01*
X0053287Y0111567D01*
X0053287Y0111867D01*
X0053587Y0112167D01*
X0054187Y0112167D02*
X0054488Y0112467D01*
X0054488Y0112768D01*
X0054187Y0113068D01*
X0053587Y0113068D01*
X0053287Y0112768D01*
X0052646Y0111567D02*
X0052346Y0111266D01*
X0051745Y0111266D01*
X0049812Y0113141D02*
X0049212Y0113141D01*
X0048912Y0113442D01*
X0048271Y0113442D02*
X0048271Y0114643D01*
X0047971Y0114943D01*
X0047070Y0114943D01*
X0047070Y0113141D01*
X0047971Y0113141D01*
X0048271Y0113442D01*
X0048912Y0114643D02*
X0049212Y0114943D01*
X0049812Y0114943D01*
X0050113Y0114643D01*
X0050113Y0114342D01*
X0049812Y0114042D01*
X0050113Y0113742D01*
X0050113Y0113442D01*
X0049812Y0113141D01*
X0049812Y0114042D02*
X0049512Y0114042D01*
X0050208Y0116554D02*
X0050808Y0116554D01*
X0051109Y0116854D01*
X0051749Y0116854D02*
X0052049Y0116554D01*
X0052650Y0116554D01*
X0052950Y0116854D01*
X0052950Y0117154D01*
X0052650Y0117455D01*
X0051749Y0117455D01*
X0051749Y0116854D01*
X0051749Y0117455D02*
X0052350Y0118055D01*
X0052950Y0118355D01*
X0051109Y0118055D02*
X0050808Y0118355D01*
X0050208Y0118355D01*
X0049908Y0118055D01*
X0049908Y0116854D01*
X0050208Y0116554D01*
X0057383Y0094718D02*
X0058484Y0094718D01*
X0058851Y0094351D01*
X0058851Y0092883D01*
X0058484Y0092516D01*
X0057383Y0092516D01*
X0057383Y0094718D01*
X0059593Y0093984D02*
X0060326Y0094718D01*
X0060326Y0092516D01*
X0059593Y0092516D02*
X0061060Y0092516D01*
X0061951Y0089082D02*
X0063152Y0089082D01*
X0063793Y0089082D02*
X0064694Y0089082D01*
X0064994Y0088782D01*
X0064994Y0088482D01*
X0064694Y0088181D01*
X0063793Y0088181D01*
X0063793Y0087281D02*
X0064694Y0087281D01*
X0064994Y0087581D01*
X0064994Y0087881D01*
X0064694Y0088181D01*
X0065635Y0088482D02*
X0066235Y0089082D01*
X0066235Y0087281D01*
X0065635Y0087281D02*
X0066836Y0087281D01*
X0063793Y0087281D02*
X0063793Y0089082D01*
X0062552Y0088181D02*
X0061951Y0088181D01*
X0061951Y0087281D02*
X0061951Y0089082D01*
X0053542Y0089717D02*
X0053242Y0089416D01*
X0052641Y0089416D01*
X0052341Y0089717D01*
X0053542Y0090918D01*
X0053542Y0089717D01*
X0053542Y0090918D02*
X0053242Y0091218D01*
X0052641Y0091218D01*
X0052341Y0090918D01*
X0052341Y0089717D01*
X0051700Y0089416D02*
X0050499Y0089416D01*
X0051100Y0089416D02*
X0051100Y0091218D01*
X0050499Y0090617D01*
X0049859Y0090918D02*
X0049558Y0091218D01*
X0048958Y0091218D01*
X0048658Y0090918D01*
X0048658Y0089717D01*
X0048958Y0089416D01*
X0049558Y0089416D01*
X0049859Y0089717D01*
X0071133Y0097192D02*
X0071433Y0096891D01*
X0072033Y0096891D01*
X0072334Y0097192D01*
X0072974Y0097192D02*
X0072974Y0096891D01*
X0072974Y0097192D02*
X0074175Y0098393D01*
X0074175Y0098693D01*
X0072974Y0098693D01*
X0072334Y0098393D02*
X0072033Y0098693D01*
X0071433Y0098693D01*
X0071133Y0098393D01*
X0071133Y0097192D01*
X0075887Y0097704D02*
X0075887Y0099505D01*
X0076788Y0099505D01*
X0077088Y0099205D01*
X0077088Y0098605D01*
X0076788Y0098304D01*
X0075887Y0098304D01*
X0076488Y0098304D02*
X0077088Y0097704D01*
X0077729Y0097704D02*
X0078930Y0097704D01*
X0078329Y0097704D02*
X0078329Y0099505D01*
X0077729Y0098905D01*
X0083308Y0106579D02*
X0083908Y0106579D01*
X0084209Y0106879D01*
X0084849Y0106879D02*
X0085149Y0106579D01*
X0085750Y0106579D01*
X0086050Y0106879D01*
X0086050Y0108080D01*
X0085750Y0108380D01*
X0085149Y0108380D01*
X0084849Y0108080D01*
X0084849Y0107780D01*
X0085149Y0107480D01*
X0086050Y0107480D01*
X0084209Y0108080D02*
X0083908Y0108380D01*
X0083308Y0108380D01*
X0083008Y0108080D01*
X0083008Y0106879D01*
X0083308Y0106579D01*
X0083599Y0117204D02*
X0084200Y0117804D01*
X0084800Y0117204D01*
X0084800Y0119005D01*
X0085441Y0118705D02*
X0085741Y0119005D01*
X0086342Y0119005D01*
X0086642Y0118705D01*
X0086642Y0118405D01*
X0085441Y0117204D01*
X0086642Y0117204D01*
X0083599Y0117204D02*
X0083599Y0119005D01*
X0082959Y0118705D02*
X0082658Y0119005D01*
X0082058Y0119005D01*
X0081758Y0118705D01*
X0081758Y0118405D01*
X0082058Y0118105D01*
X0082658Y0118105D01*
X0082959Y0117804D01*
X0082959Y0117504D01*
X0082658Y0117204D01*
X0082058Y0117204D01*
X0081758Y0117504D01*
X0078445Y0086184D02*
X0077844Y0086184D01*
X0077544Y0085884D01*
X0077544Y0085583D01*
X0077844Y0084983D01*
X0076944Y0084983D01*
X0076944Y0086184D01*
X0077244Y0084342D02*
X0076944Y0084042D01*
X0076944Y0083442D01*
X0077244Y0083141D01*
X0078445Y0083141D01*
X0078745Y0083442D01*
X0078745Y0084042D01*
X0078445Y0084342D01*
X0078445Y0084983D02*
X0078745Y0085283D01*
X0078745Y0085884D01*
X0078445Y0086184D01*
X0092583Y0073670D02*
X0092883Y0073970D01*
X0093183Y0073970D01*
X0093484Y0073670D01*
X0093784Y0073970D01*
X0094084Y0073970D01*
X0094384Y0073670D01*
X0094384Y0073069D01*
X0094084Y0072769D01*
X0094084Y0072128D02*
X0094384Y0071828D01*
X0094384Y0070927D01*
X0092583Y0070927D01*
X0092583Y0071828D01*
X0092883Y0072128D01*
X0093183Y0072128D01*
X0093484Y0071828D01*
X0093484Y0070927D01*
X0093484Y0071828D02*
X0093784Y0072128D01*
X0094084Y0072128D01*
X0092883Y0072769D02*
X0092583Y0073069D01*
X0092583Y0073670D01*
X0093484Y0073670D02*
X0093484Y0073369D01*
X0092583Y0070287D02*
X0092583Y0069086D01*
X0094384Y0069086D01*
X0093484Y0069086D02*
X0093484Y0069686D01*
D15*
X0052940Y0109663D03*
X0043963Y0108391D03*
X0043963Y0117766D03*
X0031759Y0181447D03*
X0052014Y0182603D03*
X0063264Y0182997D03*
M02*
