G75*
%MOIN*%
%OFA0B0*%
%FSLAX25Y25*%
%IPPOS*%
%LPD*%
%AMOC8*
5,1,8,0,0,1.08239X$1,22.5*
%
%ADD10C,0.00000*%
%ADD11C,0.40000*%
%ADD12R,0.20000X0.10000*%
D10*
X0021345Y0060541D02*
X0021345Y0185541D01*
X0096345Y0185541D01*
X0096345Y0060541D01*
X0021345Y0060541D01*
X0048018Y0070541D02*
X0048020Y0070629D01*
X0048026Y0070717D01*
X0048036Y0070805D01*
X0048050Y0070893D01*
X0048067Y0070979D01*
X0048089Y0071065D01*
X0048114Y0071149D01*
X0048144Y0071233D01*
X0048176Y0071315D01*
X0048213Y0071395D01*
X0048253Y0071474D01*
X0048297Y0071551D01*
X0048344Y0071626D01*
X0048394Y0071698D01*
X0048448Y0071769D01*
X0048504Y0071836D01*
X0048564Y0071902D01*
X0048626Y0071964D01*
X0048692Y0072024D01*
X0048759Y0072080D01*
X0048830Y0072134D01*
X0048902Y0072184D01*
X0048977Y0072231D01*
X0049054Y0072275D01*
X0049133Y0072315D01*
X0049213Y0072352D01*
X0049295Y0072384D01*
X0049379Y0072414D01*
X0049463Y0072439D01*
X0049549Y0072461D01*
X0049635Y0072478D01*
X0049723Y0072492D01*
X0049811Y0072502D01*
X0049899Y0072508D01*
X0049987Y0072510D01*
X0050075Y0072508D01*
X0050163Y0072502D01*
X0050251Y0072492D01*
X0050339Y0072478D01*
X0050425Y0072461D01*
X0050511Y0072439D01*
X0050595Y0072414D01*
X0050679Y0072384D01*
X0050761Y0072352D01*
X0050841Y0072315D01*
X0050920Y0072275D01*
X0050997Y0072231D01*
X0051072Y0072184D01*
X0051144Y0072134D01*
X0051215Y0072080D01*
X0051282Y0072024D01*
X0051348Y0071964D01*
X0051410Y0071902D01*
X0051470Y0071836D01*
X0051526Y0071769D01*
X0051580Y0071698D01*
X0051630Y0071626D01*
X0051677Y0071551D01*
X0051721Y0071474D01*
X0051761Y0071395D01*
X0051798Y0071315D01*
X0051830Y0071233D01*
X0051860Y0071149D01*
X0051885Y0071065D01*
X0051907Y0070979D01*
X0051924Y0070893D01*
X0051938Y0070805D01*
X0051948Y0070717D01*
X0051954Y0070629D01*
X0051956Y0070541D01*
X0051954Y0070453D01*
X0051948Y0070365D01*
X0051938Y0070277D01*
X0051924Y0070189D01*
X0051907Y0070103D01*
X0051885Y0070017D01*
X0051860Y0069933D01*
X0051830Y0069849D01*
X0051798Y0069767D01*
X0051761Y0069687D01*
X0051721Y0069608D01*
X0051677Y0069531D01*
X0051630Y0069456D01*
X0051580Y0069384D01*
X0051526Y0069313D01*
X0051470Y0069246D01*
X0051410Y0069180D01*
X0051348Y0069118D01*
X0051282Y0069058D01*
X0051215Y0069002D01*
X0051144Y0068948D01*
X0051072Y0068898D01*
X0050997Y0068851D01*
X0050920Y0068807D01*
X0050841Y0068767D01*
X0050761Y0068730D01*
X0050679Y0068698D01*
X0050595Y0068668D01*
X0050511Y0068643D01*
X0050425Y0068621D01*
X0050339Y0068604D01*
X0050251Y0068590D01*
X0050163Y0068580D01*
X0050075Y0068574D01*
X0049987Y0068572D01*
X0049899Y0068574D01*
X0049811Y0068580D01*
X0049723Y0068590D01*
X0049635Y0068604D01*
X0049549Y0068621D01*
X0049463Y0068643D01*
X0049379Y0068668D01*
X0049295Y0068698D01*
X0049213Y0068730D01*
X0049133Y0068767D01*
X0049054Y0068807D01*
X0048977Y0068851D01*
X0048902Y0068898D01*
X0048830Y0068948D01*
X0048759Y0069002D01*
X0048692Y0069058D01*
X0048626Y0069118D01*
X0048564Y0069180D01*
X0048504Y0069246D01*
X0048448Y0069313D01*
X0048394Y0069384D01*
X0048344Y0069456D01*
X0048297Y0069531D01*
X0048253Y0069608D01*
X0048213Y0069687D01*
X0048176Y0069767D01*
X0048144Y0069849D01*
X0048114Y0069933D01*
X0048089Y0070017D01*
X0048067Y0070103D01*
X0048050Y0070189D01*
X0048036Y0070277D01*
X0048026Y0070365D01*
X0048020Y0070453D01*
X0048018Y0070541D01*
X0065734Y0070541D02*
X0065736Y0070629D01*
X0065742Y0070717D01*
X0065752Y0070805D01*
X0065766Y0070893D01*
X0065783Y0070979D01*
X0065805Y0071065D01*
X0065830Y0071149D01*
X0065860Y0071233D01*
X0065892Y0071315D01*
X0065929Y0071395D01*
X0065969Y0071474D01*
X0066013Y0071551D01*
X0066060Y0071626D01*
X0066110Y0071698D01*
X0066164Y0071769D01*
X0066220Y0071836D01*
X0066280Y0071902D01*
X0066342Y0071964D01*
X0066408Y0072024D01*
X0066475Y0072080D01*
X0066546Y0072134D01*
X0066618Y0072184D01*
X0066693Y0072231D01*
X0066770Y0072275D01*
X0066849Y0072315D01*
X0066929Y0072352D01*
X0067011Y0072384D01*
X0067095Y0072414D01*
X0067179Y0072439D01*
X0067265Y0072461D01*
X0067351Y0072478D01*
X0067439Y0072492D01*
X0067527Y0072502D01*
X0067615Y0072508D01*
X0067703Y0072510D01*
X0067791Y0072508D01*
X0067879Y0072502D01*
X0067967Y0072492D01*
X0068055Y0072478D01*
X0068141Y0072461D01*
X0068227Y0072439D01*
X0068311Y0072414D01*
X0068395Y0072384D01*
X0068477Y0072352D01*
X0068557Y0072315D01*
X0068636Y0072275D01*
X0068713Y0072231D01*
X0068788Y0072184D01*
X0068860Y0072134D01*
X0068931Y0072080D01*
X0068998Y0072024D01*
X0069064Y0071964D01*
X0069126Y0071902D01*
X0069186Y0071836D01*
X0069242Y0071769D01*
X0069296Y0071698D01*
X0069346Y0071626D01*
X0069393Y0071551D01*
X0069437Y0071474D01*
X0069477Y0071395D01*
X0069514Y0071315D01*
X0069546Y0071233D01*
X0069576Y0071149D01*
X0069601Y0071065D01*
X0069623Y0070979D01*
X0069640Y0070893D01*
X0069654Y0070805D01*
X0069664Y0070717D01*
X0069670Y0070629D01*
X0069672Y0070541D01*
X0069670Y0070453D01*
X0069664Y0070365D01*
X0069654Y0070277D01*
X0069640Y0070189D01*
X0069623Y0070103D01*
X0069601Y0070017D01*
X0069576Y0069933D01*
X0069546Y0069849D01*
X0069514Y0069767D01*
X0069477Y0069687D01*
X0069437Y0069608D01*
X0069393Y0069531D01*
X0069346Y0069456D01*
X0069296Y0069384D01*
X0069242Y0069313D01*
X0069186Y0069246D01*
X0069126Y0069180D01*
X0069064Y0069118D01*
X0068998Y0069058D01*
X0068931Y0069002D01*
X0068860Y0068948D01*
X0068788Y0068898D01*
X0068713Y0068851D01*
X0068636Y0068807D01*
X0068557Y0068767D01*
X0068477Y0068730D01*
X0068395Y0068698D01*
X0068311Y0068668D01*
X0068227Y0068643D01*
X0068141Y0068621D01*
X0068055Y0068604D01*
X0067967Y0068590D01*
X0067879Y0068580D01*
X0067791Y0068574D01*
X0067703Y0068572D01*
X0067615Y0068574D01*
X0067527Y0068580D01*
X0067439Y0068590D01*
X0067351Y0068604D01*
X0067265Y0068621D01*
X0067179Y0068643D01*
X0067095Y0068668D01*
X0067011Y0068698D01*
X0066929Y0068730D01*
X0066849Y0068767D01*
X0066770Y0068807D01*
X0066693Y0068851D01*
X0066618Y0068898D01*
X0066546Y0068948D01*
X0066475Y0069002D01*
X0066408Y0069058D01*
X0066342Y0069118D01*
X0066280Y0069180D01*
X0066220Y0069246D01*
X0066164Y0069313D01*
X0066110Y0069384D01*
X0066060Y0069456D01*
X0066013Y0069531D01*
X0065969Y0069608D01*
X0065929Y0069687D01*
X0065892Y0069767D01*
X0065860Y0069849D01*
X0065830Y0069933D01*
X0065805Y0070017D01*
X0065783Y0070103D01*
X0065766Y0070189D01*
X0065752Y0070277D01*
X0065742Y0070365D01*
X0065736Y0070453D01*
X0065734Y0070541D01*
D11*
X0056033Y0143666D03*
D12*
X0056033Y0173666D03*
X0056033Y0113666D03*
M02*
