G75*
%MOIN*%
%OFA0B0*%
%FSLAX25Y25*%
%IPPOS*%
%LPD*%
%AMOC8*
5,1,8,0,0,1.08239X$1,22.5*
%
%ADD10C,0.00000*%
%ADD11R,0.01975X0.02762*%
%ADD12R,0.02762X0.01975*%
%ADD13R,0.07880X0.04731*%
%ADD14R,0.04652X0.04534*%
%ADD15R,0.04042X0.03313*%
%ADD16R,0.03313X0.04042*%
%ADD17R,0.04534X0.04652*%
%ADD18R,0.06069X0.04337*%
%ADD19R,0.06069X0.05124*%
%ADD20C,0.07000*%
%ADD21C,0.04337*%
%ADD22R,0.05124X0.08274*%
%ADD23R,0.03156X0.03943*%
%ADD24R,0.04528X0.02953*%
%ADD25R,0.02565X0.02565*%
%ADD26R,0.02362X0.01969*%
%ADD27R,0.03943X0.03156*%
%ADD28R,0.06900X0.06900*%
%ADD29C,0.06900*%
%ADD30R,0.05912X0.04337*%
%ADD31R,0.04337X0.05124*%
%ADD32R,0.03550X0.03550*%
%ADD33R,0.03740X0.01575*%
%ADD34R,0.05906X0.06693*%
D10*
X0021345Y0060541D02*
X0021345Y0185541D01*
X0096345Y0185541D01*
X0096345Y0060541D01*
X0021345Y0060541D01*
X0048018Y0070541D02*
X0048020Y0070629D01*
X0048026Y0070717D01*
X0048036Y0070805D01*
X0048050Y0070893D01*
X0048067Y0070979D01*
X0048089Y0071065D01*
X0048114Y0071149D01*
X0048144Y0071233D01*
X0048176Y0071315D01*
X0048213Y0071395D01*
X0048253Y0071474D01*
X0048297Y0071551D01*
X0048344Y0071626D01*
X0048394Y0071698D01*
X0048448Y0071769D01*
X0048504Y0071836D01*
X0048564Y0071902D01*
X0048626Y0071964D01*
X0048692Y0072024D01*
X0048759Y0072080D01*
X0048830Y0072134D01*
X0048902Y0072184D01*
X0048977Y0072231D01*
X0049054Y0072275D01*
X0049133Y0072315D01*
X0049213Y0072352D01*
X0049295Y0072384D01*
X0049379Y0072414D01*
X0049463Y0072439D01*
X0049549Y0072461D01*
X0049635Y0072478D01*
X0049723Y0072492D01*
X0049811Y0072502D01*
X0049899Y0072508D01*
X0049987Y0072510D01*
X0050075Y0072508D01*
X0050163Y0072502D01*
X0050251Y0072492D01*
X0050339Y0072478D01*
X0050425Y0072461D01*
X0050511Y0072439D01*
X0050595Y0072414D01*
X0050679Y0072384D01*
X0050761Y0072352D01*
X0050841Y0072315D01*
X0050920Y0072275D01*
X0050997Y0072231D01*
X0051072Y0072184D01*
X0051144Y0072134D01*
X0051215Y0072080D01*
X0051282Y0072024D01*
X0051348Y0071964D01*
X0051410Y0071902D01*
X0051470Y0071836D01*
X0051526Y0071769D01*
X0051580Y0071698D01*
X0051630Y0071626D01*
X0051677Y0071551D01*
X0051721Y0071474D01*
X0051761Y0071395D01*
X0051798Y0071315D01*
X0051830Y0071233D01*
X0051860Y0071149D01*
X0051885Y0071065D01*
X0051907Y0070979D01*
X0051924Y0070893D01*
X0051938Y0070805D01*
X0051948Y0070717D01*
X0051954Y0070629D01*
X0051956Y0070541D01*
X0051954Y0070453D01*
X0051948Y0070365D01*
X0051938Y0070277D01*
X0051924Y0070189D01*
X0051907Y0070103D01*
X0051885Y0070017D01*
X0051860Y0069933D01*
X0051830Y0069849D01*
X0051798Y0069767D01*
X0051761Y0069687D01*
X0051721Y0069608D01*
X0051677Y0069531D01*
X0051630Y0069456D01*
X0051580Y0069384D01*
X0051526Y0069313D01*
X0051470Y0069246D01*
X0051410Y0069180D01*
X0051348Y0069118D01*
X0051282Y0069058D01*
X0051215Y0069002D01*
X0051144Y0068948D01*
X0051072Y0068898D01*
X0050997Y0068851D01*
X0050920Y0068807D01*
X0050841Y0068767D01*
X0050761Y0068730D01*
X0050679Y0068698D01*
X0050595Y0068668D01*
X0050511Y0068643D01*
X0050425Y0068621D01*
X0050339Y0068604D01*
X0050251Y0068590D01*
X0050163Y0068580D01*
X0050075Y0068574D01*
X0049987Y0068572D01*
X0049899Y0068574D01*
X0049811Y0068580D01*
X0049723Y0068590D01*
X0049635Y0068604D01*
X0049549Y0068621D01*
X0049463Y0068643D01*
X0049379Y0068668D01*
X0049295Y0068698D01*
X0049213Y0068730D01*
X0049133Y0068767D01*
X0049054Y0068807D01*
X0048977Y0068851D01*
X0048902Y0068898D01*
X0048830Y0068948D01*
X0048759Y0069002D01*
X0048692Y0069058D01*
X0048626Y0069118D01*
X0048564Y0069180D01*
X0048504Y0069246D01*
X0048448Y0069313D01*
X0048394Y0069384D01*
X0048344Y0069456D01*
X0048297Y0069531D01*
X0048253Y0069608D01*
X0048213Y0069687D01*
X0048176Y0069767D01*
X0048144Y0069849D01*
X0048114Y0069933D01*
X0048089Y0070017D01*
X0048067Y0070103D01*
X0048050Y0070189D01*
X0048036Y0070277D01*
X0048026Y0070365D01*
X0048020Y0070453D01*
X0048018Y0070541D01*
X0065734Y0070541D02*
X0065736Y0070629D01*
X0065742Y0070717D01*
X0065752Y0070805D01*
X0065766Y0070893D01*
X0065783Y0070979D01*
X0065805Y0071065D01*
X0065830Y0071149D01*
X0065860Y0071233D01*
X0065892Y0071315D01*
X0065929Y0071395D01*
X0065969Y0071474D01*
X0066013Y0071551D01*
X0066060Y0071626D01*
X0066110Y0071698D01*
X0066164Y0071769D01*
X0066220Y0071836D01*
X0066280Y0071902D01*
X0066342Y0071964D01*
X0066408Y0072024D01*
X0066475Y0072080D01*
X0066546Y0072134D01*
X0066618Y0072184D01*
X0066693Y0072231D01*
X0066770Y0072275D01*
X0066849Y0072315D01*
X0066929Y0072352D01*
X0067011Y0072384D01*
X0067095Y0072414D01*
X0067179Y0072439D01*
X0067265Y0072461D01*
X0067351Y0072478D01*
X0067439Y0072492D01*
X0067527Y0072502D01*
X0067615Y0072508D01*
X0067703Y0072510D01*
X0067791Y0072508D01*
X0067879Y0072502D01*
X0067967Y0072492D01*
X0068055Y0072478D01*
X0068141Y0072461D01*
X0068227Y0072439D01*
X0068311Y0072414D01*
X0068395Y0072384D01*
X0068477Y0072352D01*
X0068557Y0072315D01*
X0068636Y0072275D01*
X0068713Y0072231D01*
X0068788Y0072184D01*
X0068860Y0072134D01*
X0068931Y0072080D01*
X0068998Y0072024D01*
X0069064Y0071964D01*
X0069126Y0071902D01*
X0069186Y0071836D01*
X0069242Y0071769D01*
X0069296Y0071698D01*
X0069346Y0071626D01*
X0069393Y0071551D01*
X0069437Y0071474D01*
X0069477Y0071395D01*
X0069514Y0071315D01*
X0069546Y0071233D01*
X0069576Y0071149D01*
X0069601Y0071065D01*
X0069623Y0070979D01*
X0069640Y0070893D01*
X0069654Y0070805D01*
X0069664Y0070717D01*
X0069670Y0070629D01*
X0069672Y0070541D01*
X0069670Y0070453D01*
X0069664Y0070365D01*
X0069654Y0070277D01*
X0069640Y0070189D01*
X0069623Y0070103D01*
X0069601Y0070017D01*
X0069576Y0069933D01*
X0069546Y0069849D01*
X0069514Y0069767D01*
X0069477Y0069687D01*
X0069437Y0069608D01*
X0069393Y0069531D01*
X0069346Y0069456D01*
X0069296Y0069384D01*
X0069242Y0069313D01*
X0069186Y0069246D01*
X0069126Y0069180D01*
X0069064Y0069118D01*
X0068998Y0069058D01*
X0068931Y0069002D01*
X0068860Y0068948D01*
X0068788Y0068898D01*
X0068713Y0068851D01*
X0068636Y0068807D01*
X0068557Y0068767D01*
X0068477Y0068730D01*
X0068395Y0068698D01*
X0068311Y0068668D01*
X0068227Y0068643D01*
X0068141Y0068621D01*
X0068055Y0068604D01*
X0067967Y0068590D01*
X0067879Y0068580D01*
X0067791Y0068574D01*
X0067703Y0068572D01*
X0067615Y0068574D01*
X0067527Y0068580D01*
X0067439Y0068590D01*
X0067351Y0068604D01*
X0067265Y0068621D01*
X0067179Y0068643D01*
X0067095Y0068668D01*
X0067011Y0068698D01*
X0066929Y0068730D01*
X0066849Y0068767D01*
X0066770Y0068807D01*
X0066693Y0068851D01*
X0066618Y0068898D01*
X0066546Y0068948D01*
X0066475Y0069002D01*
X0066408Y0069058D01*
X0066342Y0069118D01*
X0066280Y0069180D01*
X0066220Y0069246D01*
X0066164Y0069313D01*
X0066110Y0069384D01*
X0066060Y0069456D01*
X0066013Y0069531D01*
X0065969Y0069608D01*
X0065929Y0069687D01*
X0065892Y0069767D01*
X0065860Y0069849D01*
X0065830Y0069933D01*
X0065805Y0070017D01*
X0065783Y0070103D01*
X0065766Y0070189D01*
X0065752Y0070277D01*
X0065742Y0070365D01*
X0065736Y0070453D01*
X0065734Y0070541D01*
D11*
X0066079Y0122234D03*
X0064505Y0125778D03*
X0062930Y0122234D03*
X0061355Y0125778D03*
X0059780Y0122234D03*
X0058205Y0125778D03*
X0055056Y0125778D03*
X0053481Y0122234D03*
X0051906Y0125778D03*
X0050331Y0122234D03*
X0048757Y0125778D03*
X0047182Y0122234D03*
X0045607Y0125778D03*
X0044032Y0122234D03*
X0040883Y0122234D03*
X0051906Y0155305D03*
X0053481Y0158848D03*
X0055056Y0155305D03*
X0056631Y0158848D03*
X0058205Y0155305D03*
X0059780Y0158848D03*
X0061355Y0155305D03*
X0062930Y0158848D03*
X0064505Y0155305D03*
X0066079Y0158848D03*
X0072379Y0158848D03*
X0075528Y0158848D03*
X0079859Y0158848D03*
X0077103Y0125778D03*
X0075528Y0122234D03*
X0073953Y0125778D03*
X0072379Y0122234D03*
X0070804Y0125778D03*
X0067654Y0125778D03*
X0079859Y0122234D03*
X0050331Y0158848D03*
D12*
X0040489Y0148415D03*
X0040489Y0145266D03*
X0040489Y0142116D03*
X0040489Y0138967D03*
X0040489Y0135817D03*
X0040489Y0132667D03*
X0036946Y0131093D03*
X0036946Y0134242D03*
X0036946Y0137392D03*
X0036946Y0140541D03*
X0036946Y0143691D03*
X0036946Y0146841D03*
X0036946Y0149990D03*
X0036946Y0153140D03*
X0036946Y0156289D03*
X0036946Y0159439D03*
X0036946Y0127943D03*
X0036946Y0124793D03*
X0036946Y0121644D03*
X0062930Y0132667D03*
X0062930Y0135817D03*
X0062930Y0138967D03*
X0062930Y0142116D03*
X0062930Y0145266D03*
X0062930Y0148415D03*
D13*
X0027595Y0146870D03*
X0027595Y0156713D03*
D14*
X0026345Y0163346D03*
X0026345Y0170236D03*
X0026345Y0140236D03*
X0026345Y0133346D03*
X0026345Y0126486D03*
X0026345Y0119596D03*
X0026345Y0112736D03*
X0026345Y0105846D03*
X0027595Y0082736D03*
X0027595Y0075846D03*
X0045095Y0089596D03*
X0045095Y0096486D03*
D15*
X0057733Y0111166D03*
X0062457Y0111166D03*
X0070233Y0094291D03*
X0070233Y0089291D03*
X0074957Y0089291D03*
X0074957Y0094291D03*
X0075233Y0107416D03*
X0079957Y0107416D03*
X0041207Y0181791D03*
X0036483Y0181791D03*
D16*
X0081345Y0087904D03*
X0081345Y0083179D03*
X0089470Y0074154D03*
X0089470Y0069429D03*
X0038845Y0081929D03*
X0038845Y0086654D03*
D17*
X0056650Y0116166D03*
X0063540Y0116166D03*
D18*
X0063176Y0105844D03*
X0063176Y0098364D03*
X0054514Y0098364D03*
D19*
X0054514Y0105057D03*
D20*
X0036404Y0073841D02*
X0036404Y0067241D01*
X0081286Y0067241D02*
X0081286Y0073841D01*
D21*
X0067703Y0070541D03*
X0049987Y0070541D03*
D22*
X0054908Y0080778D03*
X0062782Y0080778D03*
X0072625Y0080778D03*
X0045066Y0080778D03*
D23*
X0075036Y0102416D03*
X0080154Y0102416D03*
X0040154Y0164291D03*
X0040154Y0169291D03*
X0035036Y0169291D03*
X0035036Y0164291D03*
D24*
X0075676Y0168809D03*
X0075676Y0177274D03*
X0092014Y0177274D03*
X0092014Y0168809D03*
D25*
X0080312Y0115143D03*
X0080312Y0112190D03*
X0069879Y0112190D03*
X0069879Y0115143D03*
D26*
X0070154Y0177913D03*
X0070154Y0180669D03*
X0065036Y0180669D03*
X0065036Y0177913D03*
D27*
X0063845Y0173100D03*
X0063845Y0167982D03*
X0058845Y0167982D03*
X0058845Y0173100D03*
X0053845Y0173100D03*
X0053845Y0167982D03*
X0068845Y0167982D03*
X0068845Y0173100D03*
D28*
X0088845Y0082729D03*
D29*
X0088845Y0092729D03*
X0088845Y0102729D03*
X0088845Y0112729D03*
D30*
X0036926Y0093041D03*
X0028264Y0089301D03*
X0028264Y0096781D03*
D31*
X0034121Y0103666D03*
X0034121Y0113041D03*
X0043570Y0113041D03*
X0043570Y0103666D03*
D32*
X0053392Y0179291D03*
X0059298Y0179291D03*
D33*
X0044554Y0178494D03*
X0044554Y0176526D03*
X0044554Y0174557D03*
X0044554Y0172589D03*
X0033136Y0172589D03*
X0033136Y0174557D03*
X0033136Y0176526D03*
X0033136Y0178494D03*
D34*
X0038845Y0175541D03*
M02*
