G75*
%MOIN*%
%OFA0B0*%
%FSLAX25Y25*%
%IPPOS*%
%LPD*%
%AMOC8*
5,1,8,0,0,1.08239X$1,22.5*
%
%ADD10C,0.00000*%
%ADD11R,0.01575X0.02362*%
%ADD12R,0.02362X0.01575*%
%ADD13R,0.07480X0.04331*%
%ADD14R,0.04252X0.04134*%
%ADD15R,0.03642X0.02913*%
%ADD16R,0.02913X0.03642*%
%ADD17R,0.04134X0.04252*%
%ADD18R,0.05669X0.03937*%
%ADD19R,0.05669X0.04724*%
%ADD20C,0.06600*%
%ADD21R,0.04724X0.07874*%
%ADD22R,0.02756X0.03543*%
%ADD23R,0.04134X0.02559*%
%ADD24R,0.02165X0.02165*%
%ADD25R,0.01969X0.01575*%
%ADD26R,0.03543X0.02756*%
%ADD27R,0.06500X0.06500*%
%ADD28C,0.06500*%
%ADD29R,0.05512X0.03937*%
%ADD30R,0.03937X0.04724*%
%ADD31R,0.03150X0.03150*%
%ADD32R,0.03346X0.01181*%
%ADD33R,0.05512X0.06299*%
%ADD34C,0.02400*%
%ADD35C,0.01600*%
%ADD36C,0.02775*%
%ADD37C,0.00800*%
%ADD38C,0.00600*%
D10*
X0021345Y0060541D02*
X0021345Y0185541D01*
X0096345Y0185541D01*
X0096345Y0060541D01*
X0021345Y0060541D01*
X0048018Y0070541D02*
X0048020Y0070629D01*
X0048026Y0070717D01*
X0048036Y0070805D01*
X0048050Y0070893D01*
X0048067Y0070979D01*
X0048089Y0071065D01*
X0048114Y0071149D01*
X0048144Y0071233D01*
X0048176Y0071315D01*
X0048213Y0071395D01*
X0048253Y0071474D01*
X0048297Y0071551D01*
X0048344Y0071626D01*
X0048394Y0071698D01*
X0048448Y0071769D01*
X0048504Y0071836D01*
X0048564Y0071902D01*
X0048626Y0071964D01*
X0048692Y0072024D01*
X0048759Y0072080D01*
X0048830Y0072134D01*
X0048902Y0072184D01*
X0048977Y0072231D01*
X0049054Y0072275D01*
X0049133Y0072315D01*
X0049213Y0072352D01*
X0049295Y0072384D01*
X0049379Y0072414D01*
X0049463Y0072439D01*
X0049549Y0072461D01*
X0049635Y0072478D01*
X0049723Y0072492D01*
X0049811Y0072502D01*
X0049899Y0072508D01*
X0049987Y0072510D01*
X0050075Y0072508D01*
X0050163Y0072502D01*
X0050251Y0072492D01*
X0050339Y0072478D01*
X0050425Y0072461D01*
X0050511Y0072439D01*
X0050595Y0072414D01*
X0050679Y0072384D01*
X0050761Y0072352D01*
X0050841Y0072315D01*
X0050920Y0072275D01*
X0050997Y0072231D01*
X0051072Y0072184D01*
X0051144Y0072134D01*
X0051215Y0072080D01*
X0051282Y0072024D01*
X0051348Y0071964D01*
X0051410Y0071902D01*
X0051470Y0071836D01*
X0051526Y0071769D01*
X0051580Y0071698D01*
X0051630Y0071626D01*
X0051677Y0071551D01*
X0051721Y0071474D01*
X0051761Y0071395D01*
X0051798Y0071315D01*
X0051830Y0071233D01*
X0051860Y0071149D01*
X0051885Y0071065D01*
X0051907Y0070979D01*
X0051924Y0070893D01*
X0051938Y0070805D01*
X0051948Y0070717D01*
X0051954Y0070629D01*
X0051956Y0070541D01*
X0051954Y0070453D01*
X0051948Y0070365D01*
X0051938Y0070277D01*
X0051924Y0070189D01*
X0051907Y0070103D01*
X0051885Y0070017D01*
X0051860Y0069933D01*
X0051830Y0069849D01*
X0051798Y0069767D01*
X0051761Y0069687D01*
X0051721Y0069608D01*
X0051677Y0069531D01*
X0051630Y0069456D01*
X0051580Y0069384D01*
X0051526Y0069313D01*
X0051470Y0069246D01*
X0051410Y0069180D01*
X0051348Y0069118D01*
X0051282Y0069058D01*
X0051215Y0069002D01*
X0051144Y0068948D01*
X0051072Y0068898D01*
X0050997Y0068851D01*
X0050920Y0068807D01*
X0050841Y0068767D01*
X0050761Y0068730D01*
X0050679Y0068698D01*
X0050595Y0068668D01*
X0050511Y0068643D01*
X0050425Y0068621D01*
X0050339Y0068604D01*
X0050251Y0068590D01*
X0050163Y0068580D01*
X0050075Y0068574D01*
X0049987Y0068572D01*
X0049899Y0068574D01*
X0049811Y0068580D01*
X0049723Y0068590D01*
X0049635Y0068604D01*
X0049549Y0068621D01*
X0049463Y0068643D01*
X0049379Y0068668D01*
X0049295Y0068698D01*
X0049213Y0068730D01*
X0049133Y0068767D01*
X0049054Y0068807D01*
X0048977Y0068851D01*
X0048902Y0068898D01*
X0048830Y0068948D01*
X0048759Y0069002D01*
X0048692Y0069058D01*
X0048626Y0069118D01*
X0048564Y0069180D01*
X0048504Y0069246D01*
X0048448Y0069313D01*
X0048394Y0069384D01*
X0048344Y0069456D01*
X0048297Y0069531D01*
X0048253Y0069608D01*
X0048213Y0069687D01*
X0048176Y0069767D01*
X0048144Y0069849D01*
X0048114Y0069933D01*
X0048089Y0070017D01*
X0048067Y0070103D01*
X0048050Y0070189D01*
X0048036Y0070277D01*
X0048026Y0070365D01*
X0048020Y0070453D01*
X0048018Y0070541D01*
X0065734Y0070541D02*
X0065736Y0070629D01*
X0065742Y0070717D01*
X0065752Y0070805D01*
X0065766Y0070893D01*
X0065783Y0070979D01*
X0065805Y0071065D01*
X0065830Y0071149D01*
X0065860Y0071233D01*
X0065892Y0071315D01*
X0065929Y0071395D01*
X0065969Y0071474D01*
X0066013Y0071551D01*
X0066060Y0071626D01*
X0066110Y0071698D01*
X0066164Y0071769D01*
X0066220Y0071836D01*
X0066280Y0071902D01*
X0066342Y0071964D01*
X0066408Y0072024D01*
X0066475Y0072080D01*
X0066546Y0072134D01*
X0066618Y0072184D01*
X0066693Y0072231D01*
X0066770Y0072275D01*
X0066849Y0072315D01*
X0066929Y0072352D01*
X0067011Y0072384D01*
X0067095Y0072414D01*
X0067179Y0072439D01*
X0067265Y0072461D01*
X0067351Y0072478D01*
X0067439Y0072492D01*
X0067527Y0072502D01*
X0067615Y0072508D01*
X0067703Y0072510D01*
X0067791Y0072508D01*
X0067879Y0072502D01*
X0067967Y0072492D01*
X0068055Y0072478D01*
X0068141Y0072461D01*
X0068227Y0072439D01*
X0068311Y0072414D01*
X0068395Y0072384D01*
X0068477Y0072352D01*
X0068557Y0072315D01*
X0068636Y0072275D01*
X0068713Y0072231D01*
X0068788Y0072184D01*
X0068860Y0072134D01*
X0068931Y0072080D01*
X0068998Y0072024D01*
X0069064Y0071964D01*
X0069126Y0071902D01*
X0069186Y0071836D01*
X0069242Y0071769D01*
X0069296Y0071698D01*
X0069346Y0071626D01*
X0069393Y0071551D01*
X0069437Y0071474D01*
X0069477Y0071395D01*
X0069514Y0071315D01*
X0069546Y0071233D01*
X0069576Y0071149D01*
X0069601Y0071065D01*
X0069623Y0070979D01*
X0069640Y0070893D01*
X0069654Y0070805D01*
X0069664Y0070717D01*
X0069670Y0070629D01*
X0069672Y0070541D01*
X0069670Y0070453D01*
X0069664Y0070365D01*
X0069654Y0070277D01*
X0069640Y0070189D01*
X0069623Y0070103D01*
X0069601Y0070017D01*
X0069576Y0069933D01*
X0069546Y0069849D01*
X0069514Y0069767D01*
X0069477Y0069687D01*
X0069437Y0069608D01*
X0069393Y0069531D01*
X0069346Y0069456D01*
X0069296Y0069384D01*
X0069242Y0069313D01*
X0069186Y0069246D01*
X0069126Y0069180D01*
X0069064Y0069118D01*
X0068998Y0069058D01*
X0068931Y0069002D01*
X0068860Y0068948D01*
X0068788Y0068898D01*
X0068713Y0068851D01*
X0068636Y0068807D01*
X0068557Y0068767D01*
X0068477Y0068730D01*
X0068395Y0068698D01*
X0068311Y0068668D01*
X0068227Y0068643D01*
X0068141Y0068621D01*
X0068055Y0068604D01*
X0067967Y0068590D01*
X0067879Y0068580D01*
X0067791Y0068574D01*
X0067703Y0068572D01*
X0067615Y0068574D01*
X0067527Y0068580D01*
X0067439Y0068590D01*
X0067351Y0068604D01*
X0067265Y0068621D01*
X0067179Y0068643D01*
X0067095Y0068668D01*
X0067011Y0068698D01*
X0066929Y0068730D01*
X0066849Y0068767D01*
X0066770Y0068807D01*
X0066693Y0068851D01*
X0066618Y0068898D01*
X0066546Y0068948D01*
X0066475Y0069002D01*
X0066408Y0069058D01*
X0066342Y0069118D01*
X0066280Y0069180D01*
X0066220Y0069246D01*
X0066164Y0069313D01*
X0066110Y0069384D01*
X0066060Y0069456D01*
X0066013Y0069531D01*
X0065969Y0069608D01*
X0065929Y0069687D01*
X0065892Y0069767D01*
X0065860Y0069849D01*
X0065830Y0069933D01*
X0065805Y0070017D01*
X0065783Y0070103D01*
X0065766Y0070189D01*
X0065752Y0070277D01*
X0065742Y0070365D01*
X0065736Y0070453D01*
X0065734Y0070541D01*
D11*
X0066079Y0122234D03*
X0064505Y0125778D03*
X0062930Y0122234D03*
X0061355Y0125778D03*
X0059780Y0122234D03*
X0058205Y0125778D03*
X0055056Y0125778D03*
X0053481Y0122234D03*
X0051906Y0125778D03*
X0050331Y0122234D03*
X0048757Y0125778D03*
X0047182Y0122234D03*
X0045607Y0125778D03*
X0044032Y0122234D03*
X0040883Y0122234D03*
X0051906Y0155305D03*
X0053481Y0158848D03*
X0055056Y0155305D03*
X0056631Y0158848D03*
X0058205Y0155305D03*
X0059780Y0158848D03*
X0061355Y0155305D03*
X0062930Y0158848D03*
X0064505Y0155305D03*
X0066079Y0158848D03*
X0072379Y0158848D03*
X0075528Y0158848D03*
X0079859Y0158848D03*
X0077103Y0125778D03*
X0075528Y0122234D03*
X0073953Y0125778D03*
X0072379Y0122234D03*
X0070804Y0125778D03*
X0067654Y0125778D03*
X0079859Y0122234D03*
X0050331Y0158848D03*
D12*
X0040489Y0148415D03*
X0040489Y0145266D03*
X0040489Y0142116D03*
X0040489Y0138967D03*
X0040489Y0135817D03*
X0040489Y0132667D03*
X0036946Y0131093D03*
X0036946Y0134242D03*
X0036946Y0137392D03*
X0036946Y0140541D03*
X0036946Y0143691D03*
X0036946Y0146841D03*
X0036946Y0149990D03*
X0036946Y0153140D03*
X0036946Y0156289D03*
X0036946Y0159439D03*
X0036946Y0127943D03*
X0036946Y0124793D03*
X0036946Y0121644D03*
X0062930Y0132667D03*
X0062930Y0135817D03*
X0062930Y0138967D03*
X0062930Y0142116D03*
X0062930Y0145266D03*
X0062930Y0148415D03*
D13*
X0027595Y0146870D03*
X0027595Y0156713D03*
D14*
X0026345Y0163346D03*
X0026345Y0170236D03*
X0026345Y0140236D03*
X0026345Y0133346D03*
X0026345Y0126486D03*
X0026345Y0119596D03*
X0026345Y0112736D03*
X0026345Y0105846D03*
X0027595Y0082736D03*
X0027595Y0075846D03*
X0045095Y0089596D03*
X0045095Y0096486D03*
D15*
X0057733Y0111166D03*
X0062457Y0111166D03*
X0070233Y0094291D03*
X0070233Y0089291D03*
X0074957Y0089291D03*
X0074957Y0094291D03*
X0075233Y0107416D03*
X0079957Y0107416D03*
X0041207Y0181791D03*
X0036483Y0181791D03*
D16*
X0081345Y0087904D03*
X0081345Y0083179D03*
X0089470Y0074154D03*
X0089470Y0069429D03*
X0038845Y0081929D03*
X0038845Y0086654D03*
D17*
X0056650Y0116166D03*
X0063540Y0116166D03*
D18*
X0063176Y0105844D03*
X0063176Y0098364D03*
X0054514Y0098364D03*
D19*
X0054514Y0105057D03*
D20*
X0036404Y0073841D02*
X0036404Y0067241D01*
X0081286Y0067241D02*
X0081286Y0073841D01*
D21*
X0072625Y0080778D03*
X0062782Y0080778D03*
X0054908Y0080778D03*
X0045066Y0080778D03*
D22*
X0075036Y0102416D03*
X0080154Y0102416D03*
X0040154Y0164291D03*
X0040154Y0169291D03*
X0035036Y0169291D03*
X0035036Y0164291D03*
D23*
X0075676Y0168809D03*
X0075676Y0177274D03*
X0092014Y0177274D03*
X0092014Y0168809D03*
D24*
X0080312Y0115143D03*
X0080312Y0112190D03*
X0069879Y0112190D03*
X0069879Y0115143D03*
D25*
X0070154Y0177288D03*
X0070154Y0180044D03*
X0065036Y0180044D03*
X0065036Y0177288D03*
D26*
X0063845Y0173100D03*
X0063845Y0167982D03*
X0058845Y0167982D03*
X0058845Y0173100D03*
X0053845Y0173100D03*
X0053845Y0167982D03*
X0068845Y0167982D03*
X0068845Y0173100D03*
D27*
X0088845Y0082729D03*
D28*
X0088845Y0092729D03*
X0088845Y0102729D03*
X0088845Y0112729D03*
D29*
X0036926Y0093041D03*
X0028264Y0089301D03*
X0028264Y0096781D03*
D30*
X0034121Y0103666D03*
X0034121Y0113041D03*
X0043570Y0113041D03*
X0043570Y0103666D03*
D31*
X0053392Y0178666D03*
X0059298Y0178666D03*
D32*
X0044554Y0178494D03*
X0044554Y0176526D03*
X0044554Y0174557D03*
X0044554Y0172589D03*
X0033136Y0172589D03*
X0033136Y0174557D03*
X0033136Y0176526D03*
X0033136Y0178494D03*
D33*
X0038845Y0175541D03*
D34*
X0038845Y0175541D03*
X0043533Y0169916D03*
X0044470Y0164916D03*
X0048845Y0165229D03*
X0033533Y0159604D03*
X0030720Y0167416D03*
X0026345Y0180541D03*
X0033533Y0147416D03*
X0031345Y0133041D03*
X0033220Y0118041D03*
X0038220Y0118041D03*
X0040720Y0126791D03*
X0041345Y0108354D03*
X0049470Y0098041D03*
X0052595Y0093041D03*
X0054783Y0087104D03*
X0050095Y0086791D03*
X0046345Y0064291D03*
X0058845Y0064291D03*
X0071345Y0064291D03*
X0065720Y0091166D03*
X0063176Y0093979D03*
X0070095Y0102416D03*
X0070095Y0108041D03*
X0073220Y0116791D03*
X0068845Y0118666D03*
X0073845Y0129916D03*
X0076033Y0133354D03*
X0056345Y0121791D03*
X0078845Y0094291D03*
X0092595Y0064291D03*
X0033845Y0086166D03*
X0026345Y0101791D03*
X0025095Y0064291D03*
X0076345Y0173041D03*
X0087595Y0173041D03*
X0091970Y0181791D03*
D35*
X0092014Y0180353D02*
X0089711Y0180353D01*
X0089253Y0180230D01*
X0088842Y0179994D01*
X0088507Y0179658D01*
X0088270Y0179248D01*
X0088148Y0178790D01*
X0088148Y0177274D01*
X0092014Y0177274D01*
X0092014Y0180353D01*
X0092014Y0177274D01*
X0092014Y0177274D01*
X0092014Y0177274D01*
X0088148Y0177274D01*
X0088148Y0175757D01*
X0088270Y0175299D01*
X0088507Y0174889D01*
X0088842Y0174554D01*
X0089253Y0174317D01*
X0089711Y0174194D01*
X0092014Y0174194D01*
X0092014Y0177273D01*
X0092014Y0177273D01*
X0092014Y0174194D01*
X0093945Y0174194D01*
X0093945Y0172489D01*
X0089470Y0172489D01*
X0088588Y0172123D01*
X0088074Y0171609D01*
X0079616Y0171609D01*
X0079102Y0172123D01*
X0078220Y0172489D01*
X0073132Y0172489D01*
X0073017Y0172441D01*
X0073017Y0174289D01*
X0073372Y0174194D01*
X0075676Y0174194D01*
X0077980Y0174194D01*
X0078438Y0174317D01*
X0078848Y0174554D01*
X0079183Y0174889D01*
X0079420Y0175299D01*
X0079543Y0175757D01*
X0079543Y0177274D01*
X0079543Y0178790D01*
X0079420Y0179248D01*
X0079183Y0179658D01*
X0078848Y0179994D01*
X0078438Y0180230D01*
X0077980Y0180353D01*
X0075676Y0180353D01*
X0075676Y0177274D01*
X0075676Y0177274D01*
X0075676Y0180353D01*
X0073538Y0180353D01*
X0073538Y0181309D01*
X0073173Y0182191D01*
X0072498Y0182866D01*
X0071834Y0183141D01*
X0093945Y0183141D01*
X0093945Y0180353D01*
X0092014Y0180353D01*
X0092014Y0178831D02*
X0092014Y0178831D01*
X0092014Y0177233D02*
X0092014Y0177233D01*
X0092014Y0175634D02*
X0092014Y0175634D01*
X0093945Y0174036D02*
X0073017Y0174036D01*
X0075676Y0174194D02*
X0075676Y0177273D01*
X0075676Y0174194D01*
X0075676Y0175634D02*
X0075676Y0175634D01*
X0075676Y0177233D02*
X0075676Y0177233D01*
X0075676Y0177273D02*
X0075676Y0177273D01*
X0075676Y0177274D02*
X0075676Y0177274D01*
X0079543Y0177274D01*
X0075676Y0177274D01*
X0075676Y0178831D02*
X0075676Y0178831D01*
X0073538Y0180430D02*
X0093945Y0180430D01*
X0093945Y0182028D02*
X0073241Y0182028D01*
X0078344Y0172437D02*
X0089346Y0172437D01*
X0088180Y0175634D02*
X0079510Y0175634D01*
X0079543Y0177233D02*
X0088148Y0177233D01*
X0088159Y0178831D02*
X0079532Y0178831D01*
X0073010Y0113041D02*
X0072761Y0113041D01*
X0072761Y0112190D01*
X0069879Y0112190D01*
X0069879Y0112190D01*
X0072761Y0112190D01*
X0072761Y0110870D01*
X0072668Y0110522D01*
X0072717Y0110550D01*
X0073175Y0110673D01*
X0075233Y0110673D01*
X0075379Y0110673D01*
X0073010Y0113041D01*
X0072761Y0111694D02*
X0074358Y0111694D01*
X0075233Y0110673D02*
X0075233Y0107416D01*
X0071612Y0107416D01*
X0071612Y0105723D01*
X0071624Y0105680D01*
X0070811Y0106016D01*
X0069379Y0106016D01*
X0068410Y0105615D01*
X0068410Y0108290D01*
X0068045Y0109172D01*
X0067370Y0109847D01*
X0066678Y0110134D01*
X0066678Y0111886D01*
X0066966Y0112006D01*
X0066996Y0112035D01*
X0066996Y0110870D01*
X0067119Y0110412D01*
X0067356Y0110002D01*
X0067691Y0109667D01*
X0068101Y0109430D01*
X0068559Y0109307D01*
X0069879Y0109307D01*
X0071198Y0109307D01*
X0071656Y0109430D01*
X0071705Y0109458D01*
X0071612Y0109110D01*
X0071612Y0107416D01*
X0075233Y0107416D01*
X0075233Y0107416D01*
X0075233Y0107416D01*
X0075233Y0110673D01*
X0075233Y0110095D02*
X0075233Y0110095D01*
X0075233Y0108497D02*
X0075233Y0108497D01*
X0071612Y0108497D02*
X0068325Y0108497D01*
X0068410Y0106898D02*
X0071612Y0106898D01*
X0069879Y0109307D02*
X0069879Y0112190D01*
X0069879Y0112190D01*
X0069879Y0109307D01*
X0069879Y0110095D02*
X0069879Y0110095D01*
X0069879Y0111694D02*
X0069879Y0111694D01*
X0067302Y0110095D02*
X0066771Y0110095D01*
X0066678Y0111694D02*
X0066996Y0111694D01*
X0057733Y0111166D02*
X0054112Y0111166D01*
X0054112Y0109473D01*
X0054235Y0109015D01*
X0054472Y0108604D01*
X0054807Y0108269D01*
X0054896Y0108218D01*
X0054896Y0105438D01*
X0054133Y0105438D01*
X0054133Y0109219D01*
X0051720Y0109219D01*
X0051720Y0113041D01*
X0053082Y0113041D01*
X0053143Y0112935D01*
X0053478Y0112600D01*
X0053889Y0112363D01*
X0054112Y0112303D01*
X0054112Y0111166D01*
X0057733Y0111166D01*
X0057733Y0111166D01*
X0054112Y0111694D02*
X0051720Y0111694D01*
X0051720Y0110095D02*
X0054112Y0110095D01*
X0054133Y0108497D02*
X0054579Y0108497D01*
X0054896Y0106898D02*
X0054133Y0106898D01*
X0050304Y0090241D02*
X0049021Y0090241D01*
X0049021Y0089830D01*
X0045329Y0089830D01*
X0045329Y0089363D01*
X0049021Y0089363D01*
X0049021Y0087293D01*
X0048898Y0086835D01*
X0048826Y0086710D01*
X0049462Y0086074D01*
X0049828Y0085192D01*
X0049828Y0077091D01*
X0050146Y0077091D01*
X0050146Y0085192D01*
X0050511Y0086074D01*
X0051183Y0086745D01*
X0051183Y0087820D01*
X0051731Y0089143D01*
X0052029Y0089441D01*
X0051879Y0089441D01*
X0050556Y0089989D01*
X0050304Y0090241D01*
X0049021Y0089315D02*
X0051902Y0089315D01*
X0051183Y0087716D02*
X0049021Y0087716D01*
X0049419Y0086118D02*
X0050555Y0086118D01*
X0050146Y0084519D02*
X0049828Y0084519D01*
X0049828Y0082920D02*
X0050146Y0082920D01*
X0050146Y0081322D02*
X0049828Y0081322D01*
X0049828Y0079723D02*
X0050146Y0079723D01*
X0050146Y0078125D02*
X0049828Y0078125D01*
X0045652Y0071491D02*
X0045618Y0071410D01*
X0045618Y0069672D01*
X0046283Y0068067D01*
X0047512Y0066838D01*
X0049118Y0066173D01*
X0050856Y0066173D01*
X0052461Y0066838D01*
X0053690Y0068067D01*
X0054355Y0069672D01*
X0054355Y0071410D01*
X0054322Y0071491D01*
X0063368Y0071491D01*
X0063335Y0071410D01*
X0063335Y0069672D01*
X0064000Y0068067D01*
X0065229Y0066838D01*
X0066834Y0066173D01*
X0068572Y0066173D01*
X0070178Y0066838D01*
X0071407Y0068067D01*
X0072072Y0069672D01*
X0072072Y0071410D01*
X0072038Y0071491D01*
X0075586Y0071491D01*
X0075586Y0066108D01*
X0076454Y0064013D01*
X0077525Y0062941D01*
X0040165Y0062941D01*
X0041236Y0064013D01*
X0042104Y0066108D01*
X0042104Y0071491D01*
X0045652Y0071491D01*
X0045618Y0070132D02*
X0042104Y0070132D01*
X0042104Y0068534D02*
X0046090Y0068534D01*
X0047415Y0066935D02*
X0042104Y0066935D01*
X0041785Y0065337D02*
X0075905Y0065337D01*
X0075586Y0066935D02*
X0070275Y0066935D01*
X0071600Y0068534D02*
X0075586Y0068534D01*
X0075586Y0070132D02*
X0072072Y0070132D01*
X0076728Y0063738D02*
X0040962Y0063738D01*
X0032643Y0062941D02*
X0023745Y0062941D01*
X0023745Y0073259D01*
X0023792Y0073085D01*
X0024029Y0072674D01*
X0024364Y0072339D01*
X0024774Y0072102D01*
X0025232Y0071980D01*
X0027362Y0071980D01*
X0027362Y0075613D01*
X0027829Y0075613D01*
X0027829Y0071980D01*
X0029958Y0071980D01*
X0030416Y0072102D01*
X0030704Y0072269D01*
X0030704Y0066108D01*
X0031572Y0064013D01*
X0032643Y0062941D01*
X0031846Y0063738D02*
X0023745Y0063738D01*
X0023745Y0065337D02*
X0031023Y0065337D01*
X0030704Y0066935D02*
X0023745Y0066935D01*
X0023745Y0068534D02*
X0030704Y0068534D01*
X0030704Y0070132D02*
X0023745Y0070132D01*
X0023745Y0071731D02*
X0030704Y0071731D01*
X0027829Y0073329D02*
X0027362Y0073329D01*
X0027362Y0074928D02*
X0027829Y0074928D01*
X0031398Y0078608D02*
X0031272Y0078826D01*
X0031756Y0079310D01*
X0032121Y0080192D01*
X0032121Y0085191D01*
X0032380Y0085298D01*
X0033055Y0085973D01*
X0033420Y0086855D01*
X0033420Y0088786D01*
X0033693Y0088673D01*
X0035588Y0088673D01*
X0035588Y0086654D01*
X0038845Y0086654D01*
X0038845Y0086653D01*
X0035588Y0086653D01*
X0035588Y0085344D01*
X0035354Y0085109D01*
X0034988Y0084227D01*
X0034988Y0079631D01*
X0035061Y0079455D01*
X0033175Y0078674D01*
X0031572Y0077070D01*
X0031521Y0076947D01*
X0031521Y0078150D01*
X0031398Y0078608D01*
X0031521Y0078125D02*
X0032627Y0078125D01*
X0031927Y0079723D02*
X0034988Y0079723D01*
X0034988Y0081322D02*
X0032121Y0081322D01*
X0032121Y0082920D02*
X0034988Y0082920D01*
X0035109Y0084519D02*
X0032121Y0084519D01*
X0033115Y0086118D02*
X0035588Y0086118D01*
X0035588Y0087716D02*
X0033420Y0087716D01*
X0028449Y0096966D02*
X0028080Y0096966D01*
X0028080Y0100550D01*
X0025272Y0100550D01*
X0024814Y0100427D01*
X0024403Y0100190D01*
X0024068Y0099855D01*
X0023831Y0099445D01*
X0023745Y0099124D01*
X0023745Y0102043D01*
X0023982Y0101980D01*
X0026112Y0101980D01*
X0026112Y0105613D01*
X0026579Y0105613D01*
X0026579Y0101980D01*
X0028708Y0101980D01*
X0029166Y0102102D01*
X0029576Y0102339D01*
X0029752Y0102515D01*
X0029752Y0100827D01*
X0029795Y0100723D01*
X0029795Y0100550D01*
X0028449Y0100550D01*
X0028449Y0096966D01*
X0028449Y0097307D02*
X0028080Y0097307D01*
X0028080Y0098906D02*
X0028449Y0098906D01*
X0028449Y0100504D02*
X0028080Y0100504D01*
X0029167Y0102103D02*
X0029752Y0102103D01*
X0026579Y0102103D02*
X0026112Y0102103D01*
X0026112Y0103701D02*
X0026579Y0103701D01*
X0026579Y0105300D02*
X0026112Y0105300D01*
X0025100Y0100504D02*
X0023745Y0100504D01*
X0026112Y0126720D02*
X0026112Y0130353D01*
X0026112Y0133113D01*
X0026579Y0133113D01*
X0026579Y0133580D01*
X0030271Y0133580D01*
X0030271Y0135650D01*
X0030148Y0136108D01*
X0030022Y0136326D01*
X0030506Y0136810D01*
X0030871Y0137692D01*
X0030871Y0142305D01*
X0031813Y0142305D01*
X0032595Y0142629D01*
X0032595Y0135751D01*
X0032096Y0135252D01*
X0031670Y0134223D01*
X0031670Y0131234D01*
X0031729Y0131093D01*
X0031670Y0130951D01*
X0031670Y0130139D01*
X0030271Y0128740D01*
X0030271Y0128790D01*
X0030148Y0129248D01*
X0029911Y0129658D01*
X0029654Y0129916D01*
X0029911Y0130174D01*
X0030148Y0130585D01*
X0030271Y0131043D01*
X0030271Y0133113D01*
X0026579Y0133113D01*
X0026579Y0126720D01*
X0026112Y0126720D01*
X0026112Y0127679D02*
X0026579Y0127679D01*
X0026579Y0129277D02*
X0026112Y0129277D01*
X0026112Y0130876D02*
X0026579Y0130876D01*
X0026579Y0132474D02*
X0026112Y0132474D01*
X0030226Y0130876D02*
X0031670Y0130876D01*
X0031670Y0132474D02*
X0030271Y0132474D01*
X0030271Y0134073D02*
X0031670Y0134073D01*
X0032515Y0135671D02*
X0030265Y0135671D01*
X0030696Y0137270D02*
X0032595Y0137270D01*
X0032595Y0138868D02*
X0030871Y0138868D01*
X0030871Y0140467D02*
X0032595Y0140467D01*
X0032595Y0142065D02*
X0030871Y0142065D01*
X0030809Y0129277D02*
X0030131Y0129277D01*
X0026579Y0170470D02*
X0026112Y0170470D01*
X0026112Y0174103D01*
X0023982Y0174103D01*
X0023745Y0174040D01*
X0023745Y0183141D01*
X0032862Y0183141D01*
X0032862Y0181791D01*
X0032862Y0181485D01*
X0030986Y0181485D01*
X0030104Y0181119D01*
X0029429Y0180444D01*
X0029063Y0179562D01*
X0029063Y0174008D01*
X0028708Y0174103D01*
X0026579Y0174103D01*
X0026579Y0170470D01*
X0026579Y0170839D02*
X0026112Y0170839D01*
X0026112Y0172437D02*
X0026579Y0172437D01*
X0026579Y0174036D02*
X0026112Y0174036D01*
X0028960Y0174036D02*
X0029063Y0174036D01*
X0029063Y0175634D02*
X0023745Y0175634D01*
X0023745Y0177233D02*
X0029063Y0177233D01*
X0029063Y0178831D02*
X0023745Y0178831D01*
X0023745Y0180430D02*
X0029423Y0180430D01*
X0032862Y0181791D02*
X0036483Y0181791D01*
X0036483Y0181791D01*
X0032862Y0181791D01*
X0032862Y0182028D02*
X0023745Y0182028D01*
X0037210Y0176119D02*
X0037210Y0174963D01*
X0038267Y0174963D01*
X0038267Y0173450D01*
X0038299Y0173463D01*
X0039423Y0173463D01*
X0039423Y0174963D01*
X0038267Y0174963D01*
X0038267Y0176119D01*
X0037210Y0176119D01*
X0037210Y0175634D02*
X0038267Y0175634D01*
X0038267Y0176119D02*
X0038267Y0178201D01*
X0038909Y0177935D01*
X0039423Y0177935D01*
X0039423Y0176119D01*
X0040481Y0176119D01*
X0040481Y0174963D01*
X0039423Y0174963D01*
X0039423Y0176119D01*
X0038267Y0176119D01*
X0038267Y0177233D02*
X0039423Y0177233D01*
X0039423Y0175634D02*
X0040481Y0175634D01*
X0039423Y0174036D02*
X0038267Y0174036D01*
X0074957Y0094291D02*
X0078545Y0094291D01*
X0074957Y0094291D01*
X0074957Y0094291D01*
X0078545Y0094291D02*
X0078545Y0094291D01*
X0077696Y0085104D02*
X0077854Y0084723D01*
X0078088Y0084489D01*
X0078088Y0083179D01*
X0078088Y0081121D01*
X0078211Y0080663D01*
X0078448Y0080253D01*
X0078783Y0079918D01*
X0079194Y0079681D01*
X0079651Y0079558D01*
X0081345Y0079558D01*
X0081345Y0083179D01*
X0081345Y0083179D01*
X0078088Y0083179D01*
X0081345Y0083179D01*
X0081345Y0083179D01*
X0081345Y0079558D01*
X0083039Y0079558D01*
X0083497Y0079681D01*
X0083795Y0079853D01*
X0083795Y0079242D01*
X0083877Y0078938D01*
X0082420Y0079541D01*
X0080152Y0079541D01*
X0078057Y0078674D01*
X0077387Y0078003D01*
X0077387Y0085104D01*
X0077696Y0085104D01*
X0077387Y0084519D02*
X0078058Y0084519D01*
X0078088Y0082920D02*
X0077387Y0082920D01*
X0077387Y0081322D02*
X0078088Y0081322D01*
X0077387Y0079723D02*
X0079120Y0079723D01*
X0077509Y0078125D02*
X0077387Y0078125D01*
X0081345Y0079723D02*
X0081345Y0079723D01*
X0081345Y0081322D02*
X0081345Y0081322D01*
X0081345Y0082920D02*
X0081345Y0082920D01*
X0083570Y0079723D02*
X0083795Y0079723D01*
X0088920Y0082654D02*
X0088920Y0082804D01*
X0093895Y0082804D01*
X0093895Y0086216D01*
X0093772Y0086674D01*
X0093535Y0087084D01*
X0093200Y0087419D01*
X0092790Y0087656D01*
X0092332Y0087779D01*
X0091659Y0087779D01*
X0092046Y0087939D01*
X0093635Y0089528D01*
X0093945Y0090277D01*
X0093945Y0062941D01*
X0085047Y0062941D01*
X0086118Y0064013D01*
X0086749Y0065534D01*
X0087536Y0065208D01*
X0091404Y0065208D01*
X0092286Y0065574D01*
X0092961Y0066249D01*
X0093327Y0067131D01*
X0093327Y0071727D01*
X0092961Y0072609D01*
X0092727Y0072844D01*
X0092727Y0074153D01*
X0089470Y0074153D01*
X0089470Y0074154D01*
X0092727Y0074154D01*
X0092727Y0076211D01*
X0092604Y0076669D01*
X0092367Y0077080D01*
X0092032Y0077415D01*
X0091622Y0077652D01*
X0091520Y0077679D01*
X0092332Y0077679D01*
X0092790Y0077802D01*
X0093200Y0078038D01*
X0093535Y0078374D01*
X0093772Y0078784D01*
X0093895Y0079242D01*
X0093895Y0082654D01*
X0088920Y0082654D01*
X0092566Y0087716D02*
X0093945Y0087716D01*
X0093895Y0086118D02*
X0093945Y0086118D01*
X0093895Y0084519D02*
X0093945Y0084519D01*
X0093895Y0082920D02*
X0093945Y0082920D01*
X0093895Y0081322D02*
X0093945Y0081322D01*
X0093895Y0079723D02*
X0093945Y0079723D01*
X0093945Y0078125D02*
X0093287Y0078125D01*
X0092642Y0076526D02*
X0093945Y0076526D01*
X0093945Y0074928D02*
X0092727Y0074928D01*
X0092727Y0073329D02*
X0093945Y0073329D01*
X0093945Y0071731D02*
X0093325Y0071731D01*
X0093327Y0070132D02*
X0093945Y0070132D01*
X0093945Y0068534D02*
X0093327Y0068534D01*
X0093246Y0066935D02*
X0093945Y0066935D01*
X0093945Y0065337D02*
X0091715Y0065337D01*
X0093945Y0063738D02*
X0085844Y0063738D01*
X0086667Y0065337D02*
X0087226Y0065337D01*
X0093421Y0089315D02*
X0093945Y0089315D01*
X0065131Y0066935D02*
X0052559Y0066935D01*
X0053884Y0068534D02*
X0063806Y0068534D01*
X0063335Y0070132D02*
X0054355Y0070132D01*
D36*
X0076345Y0154291D03*
D37*
X0078845Y0154291D01*
X0079859Y0155305D01*
X0079859Y0158848D01*
X0075528Y0155108D02*
X0076345Y0154291D01*
X0075528Y0155108D02*
X0075528Y0158848D01*
X0072379Y0158848D02*
X0072379Y0165512D01*
X0075676Y0168809D01*
X0092014Y0168809D01*
X0076033Y0133354D02*
X0079859Y0129528D01*
X0079859Y0122234D01*
X0077846Y0119916D02*
X0082595Y0119916D01*
X0088845Y0113666D01*
X0088845Y0112729D01*
X0083220Y0116791D02*
X0083220Y0105541D01*
X0086033Y0102729D01*
X0088845Y0102729D01*
X0085095Y0099291D02*
X0088845Y0095541D01*
X0088845Y0092729D01*
X0085095Y0099291D02*
X0078161Y0099291D01*
X0075036Y0102416D01*
X0070095Y0102416D01*
X0066658Y0102104D02*
X0071033Y0097729D01*
X0079470Y0097729D01*
X0081345Y0095854D01*
X0081345Y0087904D01*
X0076345Y0087904D01*
X0074957Y0089291D01*
X0073220Y0087554D01*
X0073220Y0081373D01*
X0072625Y0080778D01*
X0070233Y0089291D02*
X0066970Y0089291D01*
X0065720Y0091166D01*
X0065720Y0093041D01*
X0066970Y0094291D01*
X0070233Y0094291D01*
X0066658Y0102104D02*
X0064783Y0102104D01*
X0063176Y0103711D01*
X0063176Y0105844D01*
X0063176Y0110448D01*
X0062457Y0111166D01*
X0062457Y0115084D01*
X0063540Y0116166D01*
X0068845Y0118666D02*
X0069879Y0117633D01*
X0069879Y0115143D01*
X0073220Y0116791D02*
X0074869Y0115143D01*
X0077822Y0112190D01*
X0080312Y0112190D01*
X0079957Y0111836D01*
X0079957Y0107416D01*
X0079957Y0102613D01*
X0080154Y0102416D01*
X0080312Y0115143D02*
X0074869Y0115143D01*
X0075720Y0118041D02*
X0072379Y0121383D01*
X0072379Y0122234D01*
X0071970Y0128041D02*
X0052595Y0128041D01*
X0051906Y0127352D01*
X0051906Y0125778D01*
X0056345Y0121791D02*
X0056650Y0121486D01*
X0056650Y0116166D01*
X0057733Y0115084D01*
X0057733Y0111166D01*
X0059986Y0101554D02*
X0050720Y0101554D01*
X0050720Y0100154D02*
X0052724Y0100154D01*
X0052807Y0100152D01*
X0052889Y0100146D01*
X0052971Y0100137D01*
X0053053Y0100124D01*
X0053134Y0100106D01*
X0053214Y0100086D01*
X0053293Y0100061D01*
X0053371Y0100033D01*
X0053447Y0100001D01*
X0053522Y0099966D01*
X0053595Y0099928D01*
X0053666Y0099886D01*
X0053736Y0099841D01*
X0053803Y0099792D01*
X0053868Y0099741D01*
X0053930Y0099687D01*
X0053990Y0099630D01*
X0054047Y0099570D01*
X0054101Y0099508D01*
X0054152Y0099443D01*
X0054201Y0099376D01*
X0054246Y0099306D01*
X0054288Y0099235D01*
X0054326Y0099162D01*
X0054361Y0099087D01*
X0054393Y0099011D01*
X0054421Y0098933D01*
X0054446Y0098854D01*
X0054466Y0098774D01*
X0054484Y0098693D01*
X0054497Y0098611D01*
X0054506Y0098529D01*
X0054512Y0098447D01*
X0054514Y0098364D01*
X0054783Y0098095D02*
X0054783Y0093979D01*
X0052595Y0093041D02*
X0036926Y0093041D01*
X0036926Y0095229D01*
X0038183Y0096486D01*
X0039783Y0098086D01*
X0039783Y0105541D01*
X0036345Y0108979D01*
X0032283Y0108979D01*
X0030720Y0110541D01*
X0030720Y0116486D01*
X0026345Y0112736D01*
X0026345Y0119596D02*
X0026970Y0121479D01*
X0034470Y0128979D01*
X0034470Y0130394D01*
X0035169Y0131093D01*
X0034470Y0131791D01*
X0034470Y0133666D01*
X0035046Y0134242D01*
X0036946Y0134242D01*
X0035358Y0134242D01*
X0035169Y0131093D02*
X0036946Y0131093D01*
X0038294Y0131093D01*
X0040720Y0128666D01*
X0040720Y0126791D01*
X0040883Y0122234D02*
X0040883Y0122179D01*
X0038220Y0118041D02*
X0038220Y0114916D01*
X0040095Y0113041D01*
X0043570Y0113041D01*
X0046033Y0110578D01*
X0046033Y0106129D01*
X0043570Y0103666D01*
X0043845Y0103666D01*
X0049470Y0098041D01*
X0048920Y0103354D02*
X0048920Y0115541D01*
X0047520Y0115541D02*
X0047520Y0103354D01*
X0047522Y0103242D01*
X0047528Y0103131D01*
X0047538Y0103020D01*
X0047551Y0102909D01*
X0047569Y0102798D01*
X0047590Y0102689D01*
X0047615Y0102580D01*
X0047644Y0102472D01*
X0047677Y0102365D01*
X0047713Y0102260D01*
X0047753Y0102155D01*
X0047797Y0102052D01*
X0047844Y0101951D01*
X0047895Y0101852D01*
X0047949Y0101754D01*
X0048006Y0101658D01*
X0048067Y0101565D01*
X0048131Y0101473D01*
X0048198Y0101384D01*
X0048269Y0101297D01*
X0048342Y0101213D01*
X0048418Y0101131D01*
X0048497Y0101052D01*
X0048579Y0100976D01*
X0048663Y0100903D01*
X0048750Y0100832D01*
X0048839Y0100765D01*
X0048931Y0100701D01*
X0049024Y0100640D01*
X0049120Y0100583D01*
X0049218Y0100529D01*
X0049317Y0100478D01*
X0049418Y0100431D01*
X0049521Y0100387D01*
X0049626Y0100347D01*
X0049731Y0100311D01*
X0049838Y0100278D01*
X0049946Y0100249D01*
X0050055Y0100224D01*
X0050164Y0100203D01*
X0050275Y0100185D01*
X0050386Y0100172D01*
X0050497Y0100162D01*
X0050608Y0100156D01*
X0050720Y0100154D01*
X0050720Y0101554D02*
X0050637Y0101556D01*
X0050554Y0101562D01*
X0050471Y0101571D01*
X0050389Y0101585D01*
X0050308Y0101602D01*
X0050227Y0101623D01*
X0050148Y0101647D01*
X0050070Y0101676D01*
X0049993Y0101707D01*
X0049918Y0101743D01*
X0049844Y0101781D01*
X0049772Y0101824D01*
X0049703Y0101869D01*
X0049635Y0101918D01*
X0049570Y0101969D01*
X0049507Y0102024D01*
X0049447Y0102081D01*
X0049390Y0102141D01*
X0049335Y0102204D01*
X0049284Y0102269D01*
X0049235Y0102337D01*
X0049190Y0102406D01*
X0049147Y0102478D01*
X0049109Y0102552D01*
X0049073Y0102627D01*
X0049042Y0102704D01*
X0049013Y0102782D01*
X0048989Y0102861D01*
X0048968Y0102942D01*
X0048951Y0103023D01*
X0048937Y0103105D01*
X0048928Y0103188D01*
X0048922Y0103271D01*
X0048920Y0103354D01*
X0045095Y0096486D02*
X0038183Y0096486D01*
X0032595Y0102141D02*
X0034121Y0103666D01*
X0032595Y0102141D02*
X0032595Y0093632D01*
X0028264Y0089301D01*
X0027595Y0088632D01*
X0027595Y0082736D01*
X0036404Y0070541D02*
X0040154Y0074291D01*
X0077536Y0074291D01*
X0081286Y0070541D01*
X0082398Y0069429D01*
X0089470Y0069429D01*
X0088845Y0082729D02*
X0081795Y0082729D01*
X0081345Y0083179D01*
X0062908Y0080903D02*
X0062908Y0087104D01*
X0062907Y0080903D02*
X0062905Y0080883D01*
X0062901Y0080864D01*
X0062893Y0080846D01*
X0062883Y0080830D01*
X0062870Y0080815D01*
X0062855Y0080802D01*
X0062839Y0080792D01*
X0062821Y0080784D01*
X0062802Y0080780D01*
X0062782Y0080778D01*
X0062907Y0087104D02*
X0062905Y0087229D01*
X0062899Y0087354D01*
X0062890Y0087479D01*
X0062876Y0087603D01*
X0062859Y0087727D01*
X0062838Y0087850D01*
X0062813Y0087973D01*
X0062784Y0088095D01*
X0062752Y0088216D01*
X0062716Y0088335D01*
X0062676Y0088454D01*
X0062633Y0088571D01*
X0062586Y0088687D01*
X0062535Y0088802D01*
X0062481Y0088915D01*
X0062424Y0089026D01*
X0062363Y0089135D01*
X0062299Y0089242D01*
X0062231Y0089348D01*
X0062160Y0089451D01*
X0062087Y0089552D01*
X0062010Y0089651D01*
X0061930Y0089747D01*
X0061847Y0089841D01*
X0061761Y0089932D01*
X0061673Y0090020D01*
X0061582Y0090106D01*
X0061488Y0090189D01*
X0061392Y0090269D01*
X0061293Y0090346D01*
X0061192Y0090419D01*
X0061089Y0090490D01*
X0060983Y0090558D01*
X0060876Y0090622D01*
X0060767Y0090683D01*
X0060656Y0090740D01*
X0060543Y0090794D01*
X0060428Y0090845D01*
X0060312Y0090892D01*
X0060195Y0090935D01*
X0060076Y0090975D01*
X0059957Y0091011D01*
X0059836Y0091043D01*
X0059714Y0091072D01*
X0059591Y0091097D01*
X0059468Y0091118D01*
X0059344Y0091135D01*
X0059220Y0091149D01*
X0059095Y0091158D01*
X0058970Y0091164D01*
X0058845Y0091166D01*
X0057595Y0091166D01*
X0057595Y0091167D02*
X0057490Y0091169D01*
X0057385Y0091175D01*
X0057280Y0091185D01*
X0057176Y0091198D01*
X0057072Y0091216D01*
X0056969Y0091238D01*
X0056867Y0091263D01*
X0056766Y0091292D01*
X0056666Y0091325D01*
X0056568Y0091361D01*
X0056471Y0091402D01*
X0056375Y0091445D01*
X0056281Y0091493D01*
X0056189Y0091544D01*
X0056099Y0091598D01*
X0056011Y0091656D01*
X0055925Y0091716D01*
X0055842Y0091780D01*
X0055761Y0091848D01*
X0055682Y0091918D01*
X0055607Y0091991D01*
X0055534Y0092066D01*
X0055464Y0092145D01*
X0055396Y0092226D01*
X0055332Y0092309D01*
X0055272Y0092395D01*
X0055214Y0092483D01*
X0055160Y0092573D01*
X0055109Y0092665D01*
X0055061Y0092759D01*
X0055018Y0092855D01*
X0054977Y0092952D01*
X0054941Y0093050D01*
X0054908Y0093150D01*
X0054879Y0093251D01*
X0054854Y0093353D01*
X0054832Y0093456D01*
X0054814Y0093560D01*
X0054801Y0093664D01*
X0054791Y0093769D01*
X0054785Y0093874D01*
X0054783Y0093979D01*
X0054783Y0087104D02*
X0054783Y0080903D01*
X0054785Y0080883D01*
X0054789Y0080864D01*
X0054797Y0080846D01*
X0054807Y0080830D01*
X0054820Y0080815D01*
X0054835Y0080802D01*
X0054851Y0080792D01*
X0054869Y0080784D01*
X0054888Y0080780D01*
X0054908Y0080778D01*
X0063176Y0093979D02*
X0063176Y0098364D01*
X0063174Y0098475D01*
X0063168Y0098587D01*
X0063159Y0098697D01*
X0063145Y0098808D01*
X0063128Y0098918D01*
X0063106Y0099027D01*
X0063081Y0099136D01*
X0063052Y0099243D01*
X0063020Y0099350D01*
X0062984Y0099455D01*
X0062944Y0099559D01*
X0062900Y0099661D01*
X0062853Y0099762D01*
X0062803Y0099862D01*
X0062749Y0099959D01*
X0062691Y0100054D01*
X0062631Y0100148D01*
X0062567Y0100239D01*
X0062500Y0100328D01*
X0062430Y0100414D01*
X0062357Y0100499D01*
X0062281Y0100580D01*
X0062202Y0100659D01*
X0062121Y0100735D01*
X0062036Y0100808D01*
X0061950Y0100878D01*
X0061861Y0100945D01*
X0061770Y0101009D01*
X0061676Y0101069D01*
X0061581Y0101127D01*
X0061484Y0101181D01*
X0061384Y0101231D01*
X0061283Y0101278D01*
X0061181Y0101322D01*
X0061077Y0101362D01*
X0060972Y0101398D01*
X0060865Y0101430D01*
X0060758Y0101459D01*
X0060649Y0101484D01*
X0060540Y0101506D01*
X0060430Y0101523D01*
X0060319Y0101537D01*
X0060209Y0101546D01*
X0060097Y0101552D01*
X0059986Y0101554D01*
X0071970Y0128041D02*
X0073845Y0129916D01*
X0075528Y0122234D02*
X0077846Y0119916D01*
X0075720Y0118041D02*
X0081970Y0118041D01*
X0083220Y0116791D01*
X0066079Y0158848D02*
X0066079Y0165217D01*
X0068845Y0167982D01*
X0068845Y0173100D02*
X0070154Y0174409D01*
X0070154Y0177288D01*
X0070026Y0179916D02*
X0070154Y0180044D01*
X0070026Y0179916D02*
X0068220Y0179916D01*
X0067595Y0179291D01*
X0067595Y0176479D01*
X0064217Y0173100D01*
X0063845Y0173100D01*
X0064470Y0175541D02*
X0065036Y0176107D01*
X0065036Y0177288D01*
X0064470Y0175541D02*
X0060408Y0175541D01*
X0058845Y0173979D01*
X0058845Y0173100D01*
X0058845Y0167982D02*
X0059780Y0167047D01*
X0059780Y0158848D01*
X0056631Y0158848D02*
X0056631Y0165197D01*
X0053845Y0167982D01*
X0053845Y0173100D02*
X0053845Y0178839D01*
X0053392Y0178666D01*
X0050095Y0181791D02*
X0051345Y0183041D01*
X0058220Y0183041D01*
X0059298Y0181964D01*
X0059298Y0178666D01*
X0061970Y0178666D01*
X0063348Y0180044D01*
X0065036Y0180044D01*
X0063845Y0167982D02*
X0062930Y0167067D01*
X0062930Y0158848D01*
X0050095Y0166479D02*
X0048845Y0165229D01*
X0050095Y0166479D02*
X0050095Y0175541D01*
X0047142Y0178494D01*
X0047595Y0178947D01*
X0047595Y0180541D01*
X0046345Y0181791D01*
X0041207Y0181791D01*
X0044554Y0178494D02*
X0047142Y0178494D01*
X0047329Y0174557D02*
X0048220Y0173666D01*
X0048220Y0168666D01*
X0046970Y0167416D01*
X0043533Y0167416D01*
X0040408Y0164291D01*
X0040154Y0164291D01*
X0040154Y0157788D01*
X0038656Y0156289D01*
X0036946Y0156289D01*
X0036946Y0153140D02*
X0031168Y0153140D01*
X0027595Y0156713D01*
X0026345Y0157963D01*
X0026345Y0163346D01*
X0030720Y0165229D02*
X0030720Y0167416D01*
X0032595Y0169291D01*
X0035036Y0169291D01*
X0033136Y0172589D02*
X0030548Y0172589D01*
X0026345Y0176791D01*
X0026345Y0180541D01*
X0030720Y0165229D02*
X0031658Y0164291D01*
X0035036Y0164291D01*
X0033533Y0159604D02*
X0036781Y0159604D01*
X0036946Y0159439D01*
X0040154Y0169291D02*
X0040779Y0169916D01*
X0043533Y0169916D01*
X0044554Y0170938D01*
X0044554Y0172589D01*
X0044554Y0174557D02*
X0047329Y0174557D01*
X0050095Y0175541D02*
X0050095Y0181791D01*
X0044470Y0164916D02*
X0044470Y0149916D01*
X0042969Y0148415D01*
X0040489Y0148415D01*
X0036946Y0149990D02*
X0030715Y0149990D01*
X0027595Y0146870D01*
X0026345Y0145620D01*
X0026345Y0140236D01*
X0032472Y0124793D02*
X0030720Y0123041D01*
X0030720Y0116486D01*
X0033220Y0118041D02*
X0033220Y0120541D01*
X0034323Y0121644D01*
X0036946Y0121644D01*
X0036946Y0124793D02*
X0032472Y0124793D01*
X0034121Y0113041D02*
X0036658Y0113041D01*
X0041345Y0108354D01*
X0047520Y0115541D02*
X0047518Y0115639D01*
X0047512Y0115736D01*
X0047502Y0115833D01*
X0047489Y0115930D01*
X0047471Y0116026D01*
X0047450Y0116121D01*
X0047424Y0116216D01*
X0047395Y0116309D01*
X0047362Y0116401D01*
X0047326Y0116492D01*
X0047286Y0116581D01*
X0047242Y0116668D01*
X0047195Y0116754D01*
X0047145Y0116837D01*
X0047091Y0116919D01*
X0047034Y0116998D01*
X0046973Y0117075D01*
X0046910Y0117149D01*
X0046844Y0117221D01*
X0046775Y0117290D01*
X0046703Y0117356D01*
X0046629Y0117419D01*
X0046552Y0117480D01*
X0046473Y0117537D01*
X0046391Y0117591D01*
X0046308Y0117641D01*
X0046222Y0117688D01*
X0046135Y0117732D01*
X0046046Y0117772D01*
X0045955Y0117808D01*
X0045863Y0117841D01*
X0045770Y0117870D01*
X0045675Y0117896D01*
X0045580Y0117917D01*
X0045484Y0117935D01*
X0045387Y0117948D01*
X0045290Y0117958D01*
X0045193Y0117964D01*
X0045095Y0117966D01*
X0045095Y0119366D02*
X0045031Y0119368D01*
X0044967Y0119374D01*
X0044903Y0119383D01*
X0044841Y0119397D01*
X0044779Y0119414D01*
X0044718Y0119435D01*
X0044659Y0119460D01*
X0044601Y0119488D01*
X0044545Y0119519D01*
X0044491Y0119554D01*
X0044439Y0119592D01*
X0044390Y0119633D01*
X0044343Y0119677D01*
X0044299Y0119724D01*
X0044258Y0119773D01*
X0044220Y0119825D01*
X0044185Y0119879D01*
X0044154Y0119935D01*
X0044126Y0119993D01*
X0044101Y0120052D01*
X0044080Y0120113D01*
X0044063Y0120175D01*
X0044049Y0120237D01*
X0044040Y0120301D01*
X0044034Y0120365D01*
X0044032Y0120429D01*
X0044032Y0122234D01*
X0040882Y0122179D02*
X0040884Y0122052D01*
X0040890Y0121925D01*
X0040899Y0121798D01*
X0040913Y0121671D01*
X0040930Y0121545D01*
X0040951Y0121420D01*
X0040976Y0121295D01*
X0041004Y0121171D01*
X0041037Y0121048D01*
X0041073Y0120926D01*
X0041112Y0120805D01*
X0041156Y0120685D01*
X0041203Y0120567D01*
X0041253Y0120450D01*
X0041307Y0120335D01*
X0041365Y0120221D01*
X0041425Y0120109D01*
X0041490Y0119999D01*
X0041557Y0119892D01*
X0041628Y0119786D01*
X0041702Y0119682D01*
X0041779Y0119581D01*
X0041859Y0119482D01*
X0041942Y0119385D01*
X0042027Y0119291D01*
X0042116Y0119200D01*
X0042207Y0119111D01*
X0042301Y0119026D01*
X0042398Y0118943D01*
X0042497Y0118863D01*
X0042598Y0118786D01*
X0042702Y0118712D01*
X0042808Y0118641D01*
X0042915Y0118574D01*
X0043025Y0118509D01*
X0043137Y0118449D01*
X0043251Y0118391D01*
X0043366Y0118337D01*
X0043483Y0118287D01*
X0043601Y0118240D01*
X0043721Y0118196D01*
X0043842Y0118157D01*
X0043964Y0118121D01*
X0044087Y0118088D01*
X0044211Y0118060D01*
X0044336Y0118035D01*
X0044461Y0118014D01*
X0044587Y0117997D01*
X0044714Y0117983D01*
X0044841Y0117974D01*
X0044968Y0117968D01*
X0045095Y0117966D01*
X0045095Y0119366D02*
X0045218Y0119364D01*
X0045340Y0119358D01*
X0045462Y0119348D01*
X0045584Y0119335D01*
X0045705Y0119317D01*
X0045826Y0119295D01*
X0045946Y0119270D01*
X0046065Y0119241D01*
X0046183Y0119208D01*
X0046300Y0119171D01*
X0046416Y0119131D01*
X0046530Y0119086D01*
X0046643Y0119039D01*
X0046755Y0118987D01*
X0046864Y0118932D01*
X0046972Y0118874D01*
X0047078Y0118812D01*
X0047182Y0118747D01*
X0047283Y0118678D01*
X0047383Y0118606D01*
X0047480Y0118532D01*
X0047574Y0118454D01*
X0047667Y0118373D01*
X0047756Y0118289D01*
X0047843Y0118202D01*
X0047927Y0118113D01*
X0048008Y0118020D01*
X0048086Y0117926D01*
X0048160Y0117829D01*
X0048232Y0117729D01*
X0048301Y0117628D01*
X0048366Y0117524D01*
X0048428Y0117418D01*
X0048486Y0117310D01*
X0048541Y0117201D01*
X0048593Y0117089D01*
X0048640Y0116976D01*
X0048685Y0116862D01*
X0048725Y0116746D01*
X0048762Y0116629D01*
X0048795Y0116511D01*
X0048824Y0116392D01*
X0048849Y0116272D01*
X0048871Y0116151D01*
X0048889Y0116030D01*
X0048902Y0115908D01*
X0048912Y0115786D01*
X0048918Y0115664D01*
X0048920Y0115541D01*
X0045066Y0080778D02*
X0039997Y0080778D01*
X0038845Y0081929D01*
D38*
X0054783Y0098095D02*
X0054514Y0098364D01*
M02*
