%
M48
M72
T01C0.01200
T02C0.01575
T03C0.03500
T04C0.03937
%
T01
X25095Y64291
X33845Y84291
X26345Y101791
X33220Y118041
X38220Y118041
X40720Y126791
X31345Y133041
X33533Y147416
X33533Y159604
X30720Y167416
X38845Y175541
X43533Y169916
X44470Y164916
X48845Y165229
X26345Y180541
X56345Y121791
X68845Y118666
X73220Y116791
X70095Y108041
X70095Y102416
X65720Y91166
X63176Y93979
X54783Y87104
X52595Y93041
X50095Y88041
X49470Y98041
X41345Y108354
X46345Y64291
X58845Y64291
X71345Y64291
X78845Y94291
X92595Y64291
X73845Y129916
X76033Y133354
X83845Y181791
T02
X76345Y154291
T03
X88845Y82729
X88845Y92729
X88845Y102729
X88845Y112729
T04
X36404Y70541
X49987Y70541
X67703Y70541
X81286Y70541
M30
