G75*
%MOIN*%
%OFA0B0*%
%FSLAX25Y25*%
%IPPOS*%
%LPD*%
%AMOC8*
5,1,8,0,0,1.08239X$1,22.5*
%
%ADD10C,0.00000*%
%ADD11R,0.05906X0.02756*%
%ADD12C,0.02362*%
%ADD13R,0.02362X0.02362*%
%ADD14R,0.05906X0.05906*%
%ADD15R,0.04252X0.04134*%
%ADD16R,0.02165X0.02165*%
%ADD17R,0.04134X0.02559*%
%ADD18R,0.03642X0.02913*%
%ADD19R,0.02913X0.03642*%
%ADD20R,0.04134X0.04252*%
%ADD21R,0.03937X0.05669*%
%ADD22R,0.04724X0.05669*%
%ADD23R,0.02756X0.03543*%
%ADD24R,0.03150X0.03150*%
%ADD25R,0.03937X0.04724*%
%ADD26C,0.40000*%
%ADD27R,0.20000X0.10000*%
%ADD28R,0.00984X0.02559*%
%ADD29R,0.06500X0.06500*%
%ADD30C,0.06500*%
%ADD31C,0.03937*%
%ADD32R,0.02362X0.04134*%
%ADD33R,0.01181X0.04528*%
%ADD34C,0.01600*%
%ADD35C,0.02400*%
%ADD36C,0.00600*%
%ADD37C,0.00800*%
%ADD38C,0.01200*%
D10*
X0009674Y0009674D02*
X0009674Y0127784D01*
X0127784Y0127784D01*
X0127784Y0009674D01*
X0009674Y0009674D01*
X0088060Y0034871D02*
X0088062Y0034940D01*
X0088068Y0035008D01*
X0088078Y0035076D01*
X0088092Y0035143D01*
X0088110Y0035210D01*
X0088131Y0035275D01*
X0088157Y0035339D01*
X0088186Y0035401D01*
X0088218Y0035461D01*
X0088254Y0035520D01*
X0088294Y0035576D01*
X0088336Y0035630D01*
X0088382Y0035681D01*
X0088431Y0035730D01*
X0088482Y0035776D01*
X0088536Y0035818D01*
X0088592Y0035858D01*
X0088650Y0035894D01*
X0088711Y0035926D01*
X0088773Y0035955D01*
X0088837Y0035981D01*
X0088902Y0036002D01*
X0088969Y0036020D01*
X0089036Y0036034D01*
X0089104Y0036044D01*
X0089172Y0036050D01*
X0089241Y0036052D01*
X0089310Y0036050D01*
X0089378Y0036044D01*
X0089446Y0036034D01*
X0089513Y0036020D01*
X0089580Y0036002D01*
X0089645Y0035981D01*
X0089709Y0035955D01*
X0089771Y0035926D01*
X0089831Y0035894D01*
X0089890Y0035858D01*
X0089946Y0035818D01*
X0090000Y0035776D01*
X0090051Y0035730D01*
X0090100Y0035681D01*
X0090146Y0035630D01*
X0090188Y0035576D01*
X0090228Y0035520D01*
X0090264Y0035461D01*
X0090296Y0035401D01*
X0090325Y0035339D01*
X0090351Y0035275D01*
X0090372Y0035210D01*
X0090390Y0035143D01*
X0090404Y0035076D01*
X0090414Y0035008D01*
X0090420Y0034940D01*
X0090422Y0034871D01*
X0090420Y0034802D01*
X0090414Y0034734D01*
X0090404Y0034666D01*
X0090390Y0034599D01*
X0090372Y0034532D01*
X0090351Y0034467D01*
X0090325Y0034403D01*
X0090296Y0034341D01*
X0090264Y0034280D01*
X0090228Y0034222D01*
X0090188Y0034166D01*
X0090146Y0034112D01*
X0090100Y0034061D01*
X0090051Y0034012D01*
X0090000Y0033966D01*
X0089946Y0033924D01*
X0089890Y0033884D01*
X0089832Y0033848D01*
X0089771Y0033816D01*
X0089709Y0033787D01*
X0089645Y0033761D01*
X0089580Y0033740D01*
X0089513Y0033722D01*
X0089446Y0033708D01*
X0089378Y0033698D01*
X0089310Y0033692D01*
X0089241Y0033690D01*
X0089172Y0033692D01*
X0089104Y0033698D01*
X0089036Y0033708D01*
X0088969Y0033722D01*
X0088902Y0033740D01*
X0088837Y0033761D01*
X0088773Y0033787D01*
X0088711Y0033816D01*
X0088650Y0033848D01*
X0088592Y0033884D01*
X0088536Y0033924D01*
X0088482Y0033966D01*
X0088431Y0034012D01*
X0088382Y0034061D01*
X0088336Y0034112D01*
X0088294Y0034166D01*
X0088254Y0034222D01*
X0088218Y0034280D01*
X0088186Y0034341D01*
X0088157Y0034403D01*
X0088131Y0034467D01*
X0088110Y0034532D01*
X0088092Y0034599D01*
X0088078Y0034666D01*
X0088068Y0034734D01*
X0088062Y0034802D01*
X0088060Y0034871D01*
X0110816Y0034871D02*
X0110818Y0034940D01*
X0110824Y0035008D01*
X0110834Y0035076D01*
X0110848Y0035143D01*
X0110866Y0035210D01*
X0110887Y0035275D01*
X0110913Y0035339D01*
X0110942Y0035401D01*
X0110974Y0035461D01*
X0111010Y0035520D01*
X0111050Y0035576D01*
X0111092Y0035630D01*
X0111138Y0035681D01*
X0111187Y0035730D01*
X0111238Y0035776D01*
X0111292Y0035818D01*
X0111348Y0035858D01*
X0111406Y0035894D01*
X0111467Y0035926D01*
X0111529Y0035955D01*
X0111593Y0035981D01*
X0111658Y0036002D01*
X0111725Y0036020D01*
X0111792Y0036034D01*
X0111860Y0036044D01*
X0111928Y0036050D01*
X0111997Y0036052D01*
X0112066Y0036050D01*
X0112134Y0036044D01*
X0112202Y0036034D01*
X0112269Y0036020D01*
X0112336Y0036002D01*
X0112401Y0035981D01*
X0112465Y0035955D01*
X0112527Y0035926D01*
X0112587Y0035894D01*
X0112646Y0035858D01*
X0112702Y0035818D01*
X0112756Y0035776D01*
X0112807Y0035730D01*
X0112856Y0035681D01*
X0112902Y0035630D01*
X0112944Y0035576D01*
X0112984Y0035520D01*
X0113020Y0035461D01*
X0113052Y0035401D01*
X0113081Y0035339D01*
X0113107Y0035275D01*
X0113128Y0035210D01*
X0113146Y0035143D01*
X0113160Y0035076D01*
X0113170Y0035008D01*
X0113176Y0034940D01*
X0113178Y0034871D01*
X0113176Y0034802D01*
X0113170Y0034734D01*
X0113160Y0034666D01*
X0113146Y0034599D01*
X0113128Y0034532D01*
X0113107Y0034467D01*
X0113081Y0034403D01*
X0113052Y0034341D01*
X0113020Y0034280D01*
X0112984Y0034222D01*
X0112944Y0034166D01*
X0112902Y0034112D01*
X0112856Y0034061D01*
X0112807Y0034012D01*
X0112756Y0033966D01*
X0112702Y0033924D01*
X0112646Y0033884D01*
X0112588Y0033848D01*
X0112527Y0033816D01*
X0112465Y0033787D01*
X0112401Y0033761D01*
X0112336Y0033740D01*
X0112269Y0033722D01*
X0112202Y0033708D01*
X0112134Y0033698D01*
X0112066Y0033692D01*
X0111997Y0033690D01*
X0111928Y0033692D01*
X0111860Y0033698D01*
X0111792Y0033708D01*
X0111725Y0033722D01*
X0111658Y0033740D01*
X0111593Y0033761D01*
X0111529Y0033787D01*
X0111467Y0033816D01*
X0111406Y0033848D01*
X0111348Y0033884D01*
X0111292Y0033924D01*
X0111238Y0033966D01*
X0111187Y0034012D01*
X0111138Y0034061D01*
X0111092Y0034112D01*
X0111050Y0034166D01*
X0111010Y0034222D01*
X0110974Y0034280D01*
X0110942Y0034341D01*
X0110913Y0034403D01*
X0110887Y0034467D01*
X0110866Y0034532D01*
X0110848Y0034599D01*
X0110834Y0034666D01*
X0110824Y0034734D01*
X0110818Y0034802D01*
X0110816Y0034871D01*
D11*
X0122272Y0067942D03*
X0122272Y0072272D03*
X0122272Y0076603D03*
X0122272Y0080934D03*
X0122272Y0085265D03*
X0122272Y0089595D03*
X0122272Y0093926D03*
X0122272Y0098257D03*
X0067154Y0098257D03*
X0067154Y0093926D03*
X0067154Y0089595D03*
X0067154Y0085265D03*
X0067154Y0080934D03*
X0067154Y0076603D03*
X0067154Y0072272D03*
X0067154Y0067942D03*
D12*
X0079950Y0066761D03*
X0079950Y0071485D03*
X0079950Y0076209D03*
X0079950Y0080934D03*
X0079950Y0085658D03*
X0079950Y0090383D03*
X0079950Y0095107D03*
X0085855Y0095107D03*
X0085855Y0090383D03*
X0085855Y0085658D03*
X0085855Y0080934D03*
X0085855Y0076209D03*
X0085855Y0071485D03*
X0085855Y0066761D03*
X0091761Y0066761D03*
X0091761Y0071485D03*
X0091761Y0076209D03*
X0091761Y0080934D03*
X0091761Y0085658D03*
X0091761Y0090383D03*
X0091761Y0095107D03*
X0097666Y0095107D03*
X0097666Y0090383D03*
X0097666Y0085658D03*
X0097666Y0080934D03*
X0097666Y0076209D03*
X0097666Y0071485D03*
X0097666Y0066761D03*
X0103572Y0066761D03*
X0103572Y0071485D03*
X0103572Y0076209D03*
X0103572Y0080934D03*
X0103572Y0085658D03*
X0103572Y0090383D03*
X0103572Y0095107D03*
X0109477Y0095107D03*
X0109477Y0090383D03*
X0109477Y0085658D03*
X0109477Y0080934D03*
X0109477Y0076209D03*
X0109477Y0071485D03*
X0109477Y0066761D03*
X0115383Y0071485D03*
X0115383Y0076209D03*
X0115383Y0080934D03*
D13*
X0115383Y0066761D03*
D14*
X0108001Y0102981D03*
X0099143Y0102981D03*
X0090284Y0102981D03*
X0081426Y0102981D03*
D15*
X0054950Y0062331D03*
X0054950Y0055442D03*
X0121879Y0052686D03*
X0121879Y0059576D03*
D16*
X0036544Y0121190D03*
X0036544Y0124143D03*
X0026111Y0124143D03*
X0026111Y0121190D03*
D17*
X0018040Y0036741D03*
X0018040Y0028276D03*
X0018040Y0022174D03*
X0018040Y0013709D03*
X0034379Y0013709D03*
X0034379Y0022174D03*
X0034379Y0028276D03*
X0034379Y0036741D03*
D18*
X0060658Y0036839D03*
X0065776Y0036839D03*
X0070894Y0036839D03*
X0076013Y0036839D03*
X0084674Y0059674D03*
X0089792Y0059674D03*
D19*
X0114005Y0053572D03*
X0114005Y0048454D03*
X0123847Y0030343D03*
X0123847Y0025225D03*
X0076603Y0026800D03*
X0076603Y0031918D03*
D20*
X0054851Y0036839D03*
X0047961Y0036839D03*
X0082607Y0054162D03*
X0089497Y0054162D03*
D21*
X0095304Y0058099D03*
X0102784Y0058099D03*
X0102784Y0049438D03*
D22*
X0096091Y0049438D03*
D23*
X0090186Y0048650D03*
X0085068Y0048650D03*
X0064202Y0030540D03*
X0059083Y0030540D03*
X0059083Y0025028D03*
X0064202Y0025028D03*
X0064202Y0019517D03*
X0059083Y0019517D03*
X0059083Y0014005D03*
X0064202Y0014005D03*
D24*
X0054556Y0014005D03*
X0054556Y0019517D03*
X0054556Y0025028D03*
X0054556Y0030540D03*
X0048257Y0030540D03*
X0048257Y0025028D03*
X0048257Y0019517D03*
X0048257Y0014005D03*
D25*
X0063217Y0046682D03*
X0072666Y0046682D03*
X0072666Y0056918D03*
X0063217Y0056918D03*
D26*
X0031328Y0080540D03*
D27*
X0031328Y0050540D03*
X0031328Y0110540D03*
D28*
X0050028Y0050127D03*
X0052587Y0050127D03*
X0055146Y0050127D03*
X0055146Y0042450D03*
X0052587Y0042450D03*
X0050028Y0042450D03*
D29*
X0056524Y0080540D03*
D30*
X0056524Y0090540D03*
X0056524Y0100540D03*
X0056524Y0110540D03*
X0056524Y0120540D03*
D31*
X0083611Y0034673D02*
X0083611Y0034673D01*
X0083611Y0039005D01*
X0083611Y0039005D01*
X0083611Y0034673D01*
X0083611Y0038609D02*
X0083611Y0038609D01*
X0083611Y0018808D02*
X0083611Y0018808D01*
X0083611Y0021958D01*
X0083611Y0021958D01*
X0083611Y0018808D01*
X0117627Y0018808D02*
X0117627Y0018808D01*
X0117627Y0021958D01*
X0117627Y0021958D01*
X0117627Y0018808D01*
X0117627Y0034673D02*
X0117627Y0034673D01*
X0117627Y0039005D01*
X0117627Y0039005D01*
X0117627Y0034673D01*
X0117627Y0038609D02*
X0117627Y0038609D01*
D32*
X0113217Y0039300D03*
X0110068Y0039300D03*
X0091170Y0039300D03*
X0088020Y0039300D03*
D33*
X0093729Y0039103D03*
X0095698Y0039103D03*
X0097666Y0039103D03*
X0099635Y0039103D03*
X0101603Y0039103D03*
X0103572Y0039103D03*
X0105540Y0039103D03*
X0107509Y0039103D03*
D34*
X0109617Y0043767D02*
X0104303Y0043767D01*
X0104303Y0044203D01*
X0105230Y0044203D01*
X0106112Y0044569D01*
X0106787Y0045244D01*
X0107153Y0046126D01*
X0107153Y0049638D01*
X0108558Y0050849D01*
X0108654Y0050889D01*
X0108963Y0051198D01*
X0109294Y0051483D01*
X0109340Y0051575D01*
X0109413Y0051649D01*
X0109581Y0052052D01*
X0109777Y0052442D01*
X0109785Y0052545D01*
X0109824Y0052641D01*
X0109824Y0053078D01*
X0109857Y0053514D01*
X0109824Y0053612D01*
X0109824Y0058043D01*
X0109996Y0058043D01*
X0111320Y0058591D01*
X0111671Y0058943D01*
X0112180Y0058943D01*
X0113172Y0059354D01*
X0116912Y0063094D01*
X0116998Y0063180D01*
X0117041Y0063180D01*
X0117923Y0063545D01*
X0118598Y0064220D01*
X0118614Y0064258D01*
X0118842Y0064164D01*
X0119572Y0064164D01*
X0119572Y0064043D01*
X0119275Y0064043D01*
X0118393Y0063677D01*
X0117718Y0063002D01*
X0117353Y0062120D01*
X0117353Y0057031D01*
X0117718Y0056149D01*
X0118201Y0055666D01*
X0118075Y0055448D01*
X0117953Y0054990D01*
X0117953Y0052919D01*
X0121645Y0052919D01*
X0121645Y0052452D01*
X0122112Y0052452D01*
X0122112Y0048819D01*
X0124242Y0048819D01*
X0124699Y0048942D01*
X0125110Y0049179D01*
X0125384Y0049453D01*
X0125384Y0033964D01*
X0123847Y0033964D01*
X0122154Y0033964D01*
X0121995Y0033922D01*
X0121995Y0039874D01*
X0121330Y0041479D01*
X0120101Y0042708D01*
X0118496Y0043373D01*
X0116817Y0043373D01*
X0116817Y0044597D01*
X0116821Y0044598D01*
X0117496Y0045273D01*
X0117861Y0046155D01*
X0117861Y0050752D01*
X0117496Y0051634D01*
X0117261Y0051869D01*
X0117261Y0053572D01*
X0117261Y0055629D01*
X0117139Y0056087D01*
X0116902Y0056498D01*
X0116567Y0056833D01*
X0116156Y0057070D01*
X0115698Y0057193D01*
X0114005Y0057193D01*
X0114005Y0053572D01*
X0114005Y0053572D01*
X0117261Y0053572D01*
X0114005Y0053572D01*
X0114005Y0053572D01*
X0114005Y0057193D01*
X0112311Y0057193D01*
X0111853Y0057070D01*
X0111443Y0056833D01*
X0111108Y0056498D01*
X0110871Y0056087D01*
X0110748Y0055629D01*
X0110748Y0053572D01*
X0114005Y0053572D01*
X0114005Y0053572D01*
X0110748Y0053572D01*
X0110748Y0051869D01*
X0110513Y0051634D01*
X0110148Y0050752D01*
X0110148Y0046155D01*
X0110209Y0046009D01*
X0110165Y0045965D01*
X0109617Y0044642D01*
X0109617Y0043767D01*
X0109700Y0044841D02*
X0106385Y0044841D01*
X0107153Y0046440D02*
X0110148Y0046440D01*
X0110148Y0048038D02*
X0107153Y0048038D01*
X0107153Y0049637D02*
X0110148Y0049637D01*
X0110348Y0051235D02*
X0109006Y0051235D01*
X0109824Y0052834D02*
X0110748Y0052834D01*
X0110748Y0054432D02*
X0109824Y0054432D01*
X0109824Y0056031D02*
X0110856Y0056031D01*
X0109824Y0057629D02*
X0117353Y0057629D01*
X0117154Y0056031D02*
X0117836Y0056031D01*
X0117953Y0054432D02*
X0117261Y0054432D01*
X0117261Y0052834D02*
X0121645Y0052834D01*
X0121645Y0052452D02*
X0117953Y0052452D01*
X0117953Y0050382D01*
X0118075Y0049924D01*
X0118312Y0049514D01*
X0118648Y0049179D01*
X0119058Y0048942D01*
X0119516Y0048819D01*
X0121645Y0048819D01*
X0121645Y0052452D01*
X0121645Y0051235D02*
X0122112Y0051235D01*
X0122112Y0049637D02*
X0121645Y0049637D01*
X0118241Y0049637D02*
X0117861Y0049637D01*
X0117953Y0051235D02*
X0117661Y0051235D01*
X0114005Y0054432D02*
X0114005Y0054432D01*
X0114005Y0056031D02*
X0114005Y0056031D01*
X0112868Y0059228D02*
X0117353Y0059228D01*
X0117353Y0060826D02*
X0114645Y0060826D01*
X0116243Y0062425D02*
X0117479Y0062425D01*
X0118402Y0064023D02*
X0119229Y0064023D01*
X0120248Y0072272D02*
X0120248Y0072272D01*
X0122272Y0072272D01*
X0122272Y0072272D01*
X0120248Y0072272D01*
X0096472Y0049057D02*
X0096472Y0044803D01*
X0096935Y0044803D01*
X0096935Y0043948D01*
X0096243Y0044640D01*
X0095710Y0044861D01*
X0095710Y0049057D01*
X0096472Y0049057D01*
X0096472Y0048038D02*
X0095710Y0048038D01*
X0095710Y0046440D02*
X0096472Y0046440D01*
X0096472Y0044841D02*
X0095757Y0044841D01*
X0082197Y0044977D02*
X0082058Y0044642D01*
X0082058Y0043210D01*
X0082101Y0043108D01*
X0081136Y0042708D01*
X0079908Y0041479D01*
X0079362Y0040162D01*
X0079193Y0040331D01*
X0078311Y0040696D01*
X0078297Y0040696D01*
X0078516Y0041224D01*
X0078516Y0057375D01*
X0080871Y0059730D01*
X0081053Y0059730D01*
X0081053Y0059674D01*
X0084674Y0059674D01*
X0081053Y0059674D01*
X0081053Y0058088D01*
X0080303Y0058088D01*
X0079845Y0057966D01*
X0079435Y0057729D01*
X0079100Y0057393D01*
X0078863Y0056983D01*
X0078740Y0056525D01*
X0078740Y0054396D01*
X0082374Y0054396D01*
X0082374Y0053929D01*
X0078740Y0053929D01*
X0078740Y0051799D01*
X0078863Y0051341D01*
X0079100Y0050931D01*
X0079435Y0050596D01*
X0079845Y0050359D01*
X0080303Y0050236D01*
X0081290Y0050236D01*
X0081290Y0046401D01*
X0081655Y0045519D01*
X0082197Y0044977D01*
X0082141Y0044841D02*
X0078516Y0044841D01*
X0078516Y0043243D02*
X0082058Y0043243D01*
X0080073Y0041644D02*
X0078516Y0041644D01*
X0078516Y0046440D02*
X0081290Y0046440D01*
X0081290Y0048038D02*
X0078516Y0048038D01*
X0078516Y0049637D02*
X0081290Y0049637D01*
X0078924Y0051235D02*
X0078516Y0051235D01*
X0078516Y0052834D02*
X0078740Y0052834D01*
X0078740Y0054432D02*
X0078516Y0054432D01*
X0078516Y0056031D02*
X0078740Y0056031D01*
X0078771Y0057629D02*
X0079336Y0057629D01*
X0080369Y0059228D02*
X0081053Y0059228D01*
X0084674Y0059674D02*
X0084674Y0059674D01*
X0070754Y0061680D02*
X0070220Y0061680D01*
X0069338Y0061315D01*
X0068663Y0060640D01*
X0068298Y0059758D01*
X0068298Y0056509D01*
X0067930Y0056142D01*
X0067586Y0055311D01*
X0067586Y0059758D01*
X0067220Y0060640D01*
X0066545Y0061315D01*
X0065663Y0061680D01*
X0060771Y0061680D01*
X0059889Y0061315D01*
X0059214Y0060640D01*
X0058849Y0059758D01*
X0058849Y0059130D01*
X0058627Y0059351D01*
X0058753Y0059570D01*
X0058876Y0060028D01*
X0058876Y0062098D01*
X0055183Y0062098D01*
X0055183Y0062565D01*
X0054716Y0062565D01*
X0054716Y0062098D01*
X0051024Y0062098D01*
X0051024Y0060028D01*
X0051146Y0059570D01*
X0051272Y0059351D01*
X0050789Y0058868D01*
X0050424Y0057986D01*
X0050424Y0053206D01*
X0050028Y0053206D01*
X0049299Y0053206D01*
X0048841Y0053084D01*
X0048431Y0052847D01*
X0048096Y0052512D01*
X0047859Y0052101D01*
X0047736Y0051643D01*
X0047736Y0050127D01*
X0049695Y0050127D01*
X0049695Y0050127D01*
X0047736Y0050127D01*
X0047736Y0049288D01*
X0043728Y0049288D01*
X0043728Y0056018D01*
X0043362Y0056900D01*
X0042687Y0057575D01*
X0041805Y0057940D01*
X0020850Y0057940D01*
X0019968Y0057575D01*
X0019293Y0056900D01*
X0018928Y0056018D01*
X0018928Y0045063D01*
X0019293Y0044181D01*
X0019968Y0043506D01*
X0020850Y0043140D01*
X0041805Y0043140D01*
X0042162Y0043288D01*
X0047136Y0043288D01*
X0047136Y0040765D01*
X0045658Y0040765D01*
X0045200Y0040643D01*
X0044789Y0040406D01*
X0044454Y0040071D01*
X0044217Y0039660D01*
X0044094Y0039202D01*
X0044094Y0037073D01*
X0047728Y0037073D01*
X0047728Y0036606D01*
X0044094Y0036606D01*
X0044094Y0034476D01*
X0044217Y0034019D01*
X0044454Y0033608D01*
X0044630Y0033432D01*
X0044282Y0032592D01*
X0044282Y0031764D01*
X0044248Y0031778D01*
X0042816Y0031778D01*
X0041761Y0031341D01*
X0040705Y0031778D01*
X0039273Y0031778D01*
X0038103Y0031293D01*
X0037805Y0031591D01*
X0036923Y0031956D01*
X0031834Y0031956D01*
X0030952Y0031591D01*
X0030438Y0031076D01*
X0021981Y0031076D01*
X0021467Y0031591D01*
X0020584Y0031956D01*
X0015496Y0031956D01*
X0014614Y0031591D01*
X0013939Y0030915D01*
X0013573Y0030033D01*
X0013573Y0026519D01*
X0013939Y0025637D01*
X0014351Y0025225D01*
X0013939Y0024813D01*
X0013573Y0023931D01*
X0013573Y0020417D01*
X0013939Y0019535D01*
X0014614Y0018860D01*
X0015496Y0018494D01*
X0020584Y0018494D01*
X0021467Y0018860D01*
X0021981Y0019374D01*
X0030438Y0019374D01*
X0030952Y0018860D01*
X0031834Y0018494D01*
X0036923Y0018494D01*
X0037805Y0018860D01*
X0038419Y0019474D01*
X0041215Y0019474D01*
X0042207Y0019885D01*
X0042967Y0020645D01*
X0044558Y0022236D01*
X0044282Y0021569D01*
X0044282Y0017464D01*
X0044573Y0016761D01*
X0044282Y0016057D01*
X0044282Y0012074D01*
X0038214Y0012074D01*
X0038246Y0012193D01*
X0038246Y0013709D01*
X0034379Y0013709D01*
X0034379Y0013709D01*
X0038246Y0013709D01*
X0038246Y0015226D01*
X0038123Y0015684D01*
X0037886Y0016094D01*
X0037551Y0016429D01*
X0037140Y0016666D01*
X0036683Y0016789D01*
X0034379Y0016789D01*
X0034379Y0013710D01*
X0034379Y0013710D01*
X0034379Y0016789D01*
X0032075Y0016789D01*
X0031617Y0016666D01*
X0031207Y0016429D01*
X0030871Y0016094D01*
X0030634Y0015684D01*
X0030512Y0015226D01*
X0030512Y0013709D01*
X0030512Y0012193D01*
X0030544Y0012074D01*
X0021875Y0012074D01*
X0021907Y0012193D01*
X0021907Y0013709D01*
X0018040Y0013709D01*
X0014173Y0013709D01*
X0014173Y0012193D01*
X0014205Y0012074D01*
X0012074Y0012074D01*
X0012074Y0070309D01*
X0012292Y0069880D01*
X0013188Y0068419D01*
X0014194Y0067033D01*
X0015307Y0065731D01*
X0016518Y0064520D01*
X0017821Y0063407D01*
X0019207Y0062400D01*
X0020667Y0061505D01*
X0022194Y0060727D01*
X0023776Y0060072D01*
X0025406Y0059542D01*
X0027071Y0059143D01*
X0028763Y0058875D01*
X0030471Y0058740D01*
X0030528Y0058740D01*
X0030528Y0079740D01*
X0032128Y0079740D01*
X0032128Y0081340D01*
X0051474Y0081340D01*
X0051474Y0080615D01*
X0056449Y0080615D01*
X0056449Y0080465D01*
X0051474Y0080465D01*
X0051474Y0079740D01*
X0032128Y0079740D01*
X0032128Y0058740D01*
X0032184Y0058740D01*
X0033892Y0058875D01*
X0035584Y0059143D01*
X0037250Y0059542D01*
X0038879Y0060072D01*
X0040461Y0060727D01*
X0041988Y0061505D01*
X0043448Y0062400D01*
X0044834Y0063407D01*
X0046137Y0064520D01*
X0047348Y0065731D01*
X0048461Y0067033D01*
X0049468Y0068419D01*
X0050363Y0069880D01*
X0051140Y0071406D01*
X0051796Y0072989D01*
X0052325Y0074618D01*
X0052566Y0075621D01*
X0052580Y0075613D01*
X0053037Y0075490D01*
X0056449Y0075490D01*
X0056449Y0080465D01*
X0056599Y0080465D01*
X0056599Y0075490D01*
X0060011Y0075490D01*
X0060469Y0075613D01*
X0060880Y0075850D01*
X0061215Y0076185D01*
X0061452Y0076595D01*
X0061574Y0077053D01*
X0061574Y0080465D01*
X0056599Y0080465D01*
X0056599Y0080615D01*
X0061574Y0080615D01*
X0061574Y0084027D01*
X0061454Y0084477D01*
X0061802Y0084477D01*
X0061802Y0083409D01*
X0061930Y0083099D01*
X0061802Y0082789D01*
X0061802Y0079079D01*
X0061930Y0078769D01*
X0061802Y0078458D01*
X0061802Y0074748D01*
X0061930Y0074438D01*
X0061802Y0074128D01*
X0061802Y0070417D01*
X0061930Y0070107D01*
X0061802Y0069797D01*
X0061802Y0066086D01*
X0062167Y0065204D01*
X0062842Y0064529D01*
X0063724Y0064164D01*
X0070584Y0064164D01*
X0070754Y0064234D01*
X0070754Y0061680D01*
X0070754Y0062425D02*
X0055183Y0062425D01*
X0055183Y0062565D02*
X0058876Y0062565D01*
X0058876Y0064635D01*
X0058753Y0065093D01*
X0058516Y0065504D01*
X0058181Y0065839D01*
X0057770Y0066076D01*
X0057313Y0066198D01*
X0055183Y0066198D01*
X0055183Y0062565D01*
X0054716Y0062565D02*
X0054716Y0066198D01*
X0052587Y0066198D01*
X0052129Y0066076D01*
X0051718Y0065839D01*
X0051383Y0065504D01*
X0051146Y0065093D01*
X0051024Y0064635D01*
X0051024Y0062565D01*
X0054716Y0062565D01*
X0054716Y0062425D02*
X0043482Y0062425D01*
X0045556Y0064023D02*
X0051024Y0064023D01*
X0051502Y0065622D02*
X0047239Y0065622D01*
X0048596Y0067220D02*
X0061802Y0067220D01*
X0061994Y0065622D02*
X0058398Y0065622D01*
X0058876Y0064023D02*
X0070754Y0064023D01*
X0068850Y0060826D02*
X0067034Y0060826D01*
X0067586Y0059228D02*
X0068298Y0059228D01*
X0068298Y0057629D02*
X0067586Y0057629D01*
X0067586Y0056031D02*
X0067884Y0056031D01*
X0067586Y0048289D02*
X0067930Y0047458D01*
X0068298Y0047091D01*
X0068298Y0043842D01*
X0068663Y0042960D01*
X0069338Y0042285D01*
X0070220Y0041920D01*
X0072156Y0041920D01*
X0070933Y0040696D01*
X0068596Y0040696D01*
X0068335Y0040588D01*
X0068075Y0040696D01*
X0063478Y0040696D01*
X0062596Y0040331D01*
X0062361Y0040096D01*
X0060658Y0040096D01*
X0059047Y0040096D01*
X0058953Y0040325D01*
X0058278Y0041000D01*
X0058039Y0041099D01*
X0058039Y0043288D01*
X0059078Y0043288D01*
X0059214Y0042960D01*
X0059889Y0042285D01*
X0060771Y0041920D01*
X0065663Y0041920D01*
X0066545Y0042285D01*
X0067220Y0042960D01*
X0067586Y0043842D01*
X0067586Y0048289D01*
X0067586Y0048038D02*
X0067690Y0048038D01*
X0067586Y0046440D02*
X0068298Y0046440D01*
X0068298Y0044841D02*
X0067586Y0044841D01*
X0067337Y0043243D02*
X0068546Y0043243D01*
X0071881Y0041644D02*
X0058039Y0041644D01*
X0058039Y0043243D02*
X0059097Y0043243D01*
X0060658Y0040096D02*
X0060658Y0036883D01*
X0060658Y0036883D01*
X0060658Y0040096D01*
X0060658Y0040046D02*
X0060658Y0040046D01*
X0060658Y0038447D02*
X0060658Y0038447D01*
X0071148Y0032983D02*
X0072746Y0032983D01*
X0072746Y0029620D01*
X0073112Y0028738D01*
X0073346Y0028503D01*
X0073346Y0026800D01*
X0073346Y0024742D01*
X0073469Y0024284D01*
X0073706Y0023874D01*
X0074041Y0023539D01*
X0074452Y0023302D01*
X0074909Y0023179D01*
X0076603Y0023179D01*
X0076603Y0026800D01*
X0076603Y0026800D01*
X0073346Y0026800D01*
X0076603Y0026800D01*
X0076603Y0026800D01*
X0076603Y0023179D01*
X0078297Y0023179D01*
X0078755Y0023302D01*
X0079165Y0023539D01*
X0079500Y0023874D01*
X0079737Y0024284D01*
X0079860Y0024742D01*
X0079860Y0026800D01*
X0079860Y0028270D01*
X0080218Y0028121D01*
X0080811Y0028121D01*
X0080811Y0025335D01*
X0079908Y0024432D01*
X0079243Y0022826D01*
X0079243Y0017939D01*
X0079908Y0016333D01*
X0081136Y0015104D01*
X0082742Y0014439D01*
X0084480Y0014439D01*
X0086086Y0015104D01*
X0087314Y0016333D01*
X0087980Y0017939D01*
X0087980Y0022826D01*
X0087314Y0024432D01*
X0086411Y0025335D01*
X0086411Y0026559D01*
X0110703Y0026559D01*
X0111733Y0026985D01*
X0114827Y0030080D01*
X0114827Y0025335D01*
X0113923Y0024432D01*
X0113258Y0022826D01*
X0113258Y0017939D01*
X0113923Y0016333D01*
X0115152Y0015104D01*
X0116758Y0014439D01*
X0118496Y0014439D01*
X0120101Y0015104D01*
X0121330Y0016333D01*
X0121995Y0017939D01*
X0121995Y0021004D01*
X0125384Y0021004D01*
X0125384Y0012074D01*
X0069042Y0012074D01*
X0072199Y0015231D01*
X0072610Y0016224D01*
X0072610Y0030684D01*
X0072199Y0031676D01*
X0071148Y0032727D01*
X0071148Y0032983D01*
X0071822Y0032053D02*
X0072746Y0032053D01*
X0072746Y0030455D02*
X0072610Y0030455D01*
X0072610Y0028856D02*
X0073063Y0028856D01*
X0073346Y0027258D02*
X0072610Y0027258D01*
X0072610Y0025659D02*
X0073346Y0025659D01*
X0073598Y0024061D02*
X0072610Y0024061D01*
X0072610Y0022462D02*
X0079243Y0022462D01*
X0079243Y0020864D02*
X0072610Y0020864D01*
X0072610Y0019265D02*
X0079243Y0019265D01*
X0079355Y0017667D02*
X0072610Y0017667D01*
X0072546Y0016068D02*
X0080173Y0016068D01*
X0082669Y0014470D02*
X0071438Y0014470D01*
X0069839Y0012871D02*
X0125384Y0012871D01*
X0125384Y0014470D02*
X0118569Y0014470D01*
X0116685Y0014470D02*
X0084553Y0014470D01*
X0087049Y0016068D02*
X0114189Y0016068D01*
X0113371Y0017667D02*
X0087867Y0017667D01*
X0087980Y0019265D02*
X0113258Y0019265D01*
X0113258Y0020864D02*
X0087980Y0020864D01*
X0087980Y0022462D02*
X0113258Y0022462D01*
X0113769Y0024061D02*
X0087468Y0024061D01*
X0086411Y0025659D02*
X0114827Y0025659D01*
X0114827Y0027258D02*
X0112005Y0027258D01*
X0113603Y0028856D02*
X0114827Y0028856D01*
X0121995Y0035250D02*
X0125384Y0035250D01*
X0125384Y0036849D02*
X0121995Y0036849D01*
X0121995Y0038447D02*
X0125384Y0038447D01*
X0125384Y0040046D02*
X0121924Y0040046D01*
X0121165Y0041644D02*
X0125384Y0041644D01*
X0125384Y0043243D02*
X0118811Y0043243D01*
X0117064Y0044841D02*
X0125384Y0044841D01*
X0125384Y0046440D02*
X0117861Y0046440D01*
X0117861Y0048038D02*
X0125384Y0048038D01*
X0123847Y0033964D02*
X0123847Y0030343D01*
X0123847Y0033964D01*
X0123847Y0033652D02*
X0123847Y0033652D01*
X0123847Y0032053D02*
X0123847Y0032053D01*
X0123847Y0030455D02*
X0123847Y0030455D01*
X0123847Y0030343D02*
X0123847Y0030343D01*
X0125384Y0020864D02*
X0121995Y0020864D01*
X0121995Y0019265D02*
X0125384Y0019265D01*
X0125384Y0017667D02*
X0121882Y0017667D01*
X0121065Y0016068D02*
X0125384Y0016068D01*
X0080811Y0025659D02*
X0079860Y0025659D01*
X0079860Y0026800D02*
X0076603Y0026800D01*
X0079860Y0026800D01*
X0079860Y0027258D02*
X0080811Y0027258D01*
X0079754Y0024061D02*
X0079608Y0024061D01*
X0076603Y0024061D02*
X0076603Y0024061D01*
X0076603Y0025659D02*
X0076603Y0025659D01*
X0076603Y0026800D02*
X0076603Y0026800D01*
X0050028Y0052688D02*
X0050028Y0053206D01*
X0050028Y0052688D01*
X0050028Y0052688D01*
X0050028Y0052834D02*
X0050028Y0052834D01*
X0050424Y0054432D02*
X0043728Y0054432D01*
X0043728Y0052834D02*
X0048418Y0052834D01*
X0047736Y0051235D02*
X0043728Y0051235D01*
X0043728Y0049637D02*
X0047736Y0049637D01*
X0050424Y0056031D02*
X0043722Y0056031D01*
X0042555Y0057629D02*
X0050424Y0057629D01*
X0051149Y0059228D02*
X0035939Y0059228D01*
X0032128Y0059228D02*
X0030528Y0059228D01*
X0030528Y0060826D02*
X0032128Y0060826D01*
X0032128Y0062425D02*
X0030528Y0062425D01*
X0030528Y0064023D02*
X0032128Y0064023D01*
X0032128Y0065622D02*
X0030528Y0065622D01*
X0030528Y0067220D02*
X0032128Y0067220D01*
X0032128Y0068819D02*
X0030528Y0068819D01*
X0030528Y0070417D02*
X0032128Y0070417D01*
X0032128Y0072016D02*
X0030528Y0072016D01*
X0030528Y0073614D02*
X0032128Y0073614D01*
X0032128Y0075213D02*
X0030528Y0075213D01*
X0030528Y0076811D02*
X0032128Y0076811D01*
X0032128Y0078410D02*
X0030528Y0078410D01*
X0032128Y0080009D02*
X0051474Y0080009D01*
X0056449Y0080009D02*
X0056599Y0080009D01*
X0056599Y0078410D02*
X0056449Y0078410D01*
X0056449Y0076811D02*
X0056599Y0076811D01*
X0052468Y0075213D02*
X0061802Y0075213D01*
X0061802Y0076811D02*
X0061510Y0076811D01*
X0061574Y0078410D02*
X0061802Y0078410D01*
X0061802Y0080009D02*
X0061574Y0080009D01*
X0061574Y0081607D02*
X0061802Y0081607D01*
X0061886Y0083206D02*
X0061574Y0083206D01*
X0061802Y0073614D02*
X0051999Y0073614D01*
X0051393Y0072016D02*
X0061802Y0072016D01*
X0061802Y0070417D02*
X0050636Y0070417D01*
X0049712Y0068819D02*
X0061802Y0068819D01*
X0055183Y0065622D02*
X0054716Y0065622D01*
X0054716Y0064023D02*
X0055183Y0064023D01*
X0058876Y0060826D02*
X0059401Y0060826D01*
X0058849Y0059228D02*
X0058750Y0059228D01*
X0051024Y0060826D02*
X0040656Y0060826D01*
X0026716Y0059228D02*
X0012074Y0059228D01*
X0012074Y0060826D02*
X0021999Y0060826D01*
X0019173Y0062425D02*
X0012074Y0062425D01*
X0012074Y0064023D02*
X0017099Y0064023D01*
X0015416Y0065622D02*
X0012074Y0065622D01*
X0012074Y0067220D02*
X0014059Y0067220D01*
X0012943Y0068819D02*
X0012074Y0068819D01*
X0012074Y0057629D02*
X0020100Y0057629D01*
X0018933Y0056031D02*
X0012074Y0056031D01*
X0012074Y0054432D02*
X0018928Y0054432D01*
X0018928Y0052834D02*
X0012074Y0052834D01*
X0012074Y0051235D02*
X0018928Y0051235D01*
X0018928Y0049637D02*
X0012074Y0049637D01*
X0012074Y0048038D02*
X0018928Y0048038D01*
X0018928Y0046440D02*
X0012074Y0046440D01*
X0012074Y0044841D02*
X0019019Y0044841D01*
X0020602Y0043243D02*
X0012074Y0043243D01*
X0012074Y0041644D02*
X0047136Y0041644D01*
X0047136Y0043243D02*
X0042053Y0043243D01*
X0044440Y0040046D02*
X0012074Y0040046D01*
X0012074Y0038447D02*
X0014224Y0038447D01*
X0014173Y0038257D02*
X0014173Y0036741D01*
X0018040Y0036741D01*
X0018040Y0036741D01*
X0018040Y0039820D01*
X0015736Y0039820D01*
X0015278Y0039698D01*
X0014868Y0039461D01*
X0014533Y0039126D01*
X0014296Y0038715D01*
X0014173Y0038257D01*
X0014173Y0036849D02*
X0012074Y0036849D01*
X0012074Y0035250D02*
X0014173Y0035250D01*
X0014173Y0035224D02*
X0014296Y0034767D01*
X0014533Y0034356D01*
X0014868Y0034021D01*
X0015278Y0033784D01*
X0015736Y0033661D01*
X0018040Y0033661D01*
X0018040Y0036741D01*
X0018040Y0036741D01*
X0014173Y0036741D01*
X0014173Y0035224D01*
X0012074Y0033652D02*
X0044429Y0033652D01*
X0044282Y0032053D02*
X0012074Y0032053D01*
X0012074Y0030455D02*
X0013748Y0030455D01*
X0013573Y0028856D02*
X0012074Y0028856D01*
X0012074Y0027258D02*
X0013573Y0027258D01*
X0013930Y0025659D02*
X0012074Y0025659D01*
X0012074Y0024061D02*
X0013627Y0024061D01*
X0013573Y0022462D02*
X0012074Y0022462D01*
X0012074Y0020864D02*
X0013573Y0020864D01*
X0014209Y0019265D02*
X0012074Y0019265D01*
X0012074Y0017667D02*
X0044282Y0017667D01*
X0044287Y0016068D02*
X0037901Y0016068D01*
X0038246Y0014470D02*
X0044282Y0014470D01*
X0044282Y0012871D02*
X0038246Y0012871D01*
X0034379Y0013709D02*
X0030512Y0013709D01*
X0034379Y0013709D01*
X0034379Y0013709D01*
X0034379Y0014470D02*
X0034379Y0014470D01*
X0034379Y0016068D02*
X0034379Y0016068D01*
X0030856Y0016068D02*
X0021563Y0016068D01*
X0021547Y0016094D02*
X0021212Y0016429D01*
X0020802Y0016666D01*
X0020344Y0016789D01*
X0018040Y0016789D01*
X0015736Y0016789D01*
X0015278Y0016666D01*
X0014868Y0016429D01*
X0014533Y0016094D01*
X0014296Y0015684D01*
X0014173Y0015226D01*
X0014173Y0013709D01*
X0018040Y0013709D01*
X0018040Y0013709D01*
X0018040Y0013709D01*
X0018040Y0013710D02*
X0018040Y0016789D01*
X0018040Y0013710D01*
X0018040Y0013710D01*
X0018040Y0013709D02*
X0021907Y0013709D01*
X0021907Y0015226D01*
X0021784Y0015684D01*
X0021547Y0016094D01*
X0021907Y0014470D02*
X0030512Y0014470D01*
X0030512Y0012871D02*
X0021907Y0012871D01*
X0018040Y0014470D02*
X0018040Y0014470D01*
X0018040Y0016068D02*
X0018040Y0016068D01*
X0014518Y0016068D02*
X0012074Y0016068D01*
X0012074Y0014470D02*
X0014173Y0014470D01*
X0014173Y0012871D02*
X0012074Y0012871D01*
X0021872Y0019265D02*
X0030547Y0019265D01*
X0038210Y0019265D02*
X0044282Y0019265D01*
X0044282Y0020864D02*
X0043186Y0020864D01*
X0037140Y0033784D02*
X0037551Y0034021D01*
X0037886Y0034356D01*
X0038123Y0034767D01*
X0038246Y0035224D01*
X0038246Y0036741D01*
X0038246Y0038257D01*
X0038123Y0038715D01*
X0037886Y0039126D01*
X0037551Y0039461D01*
X0037140Y0039698D01*
X0036683Y0039820D01*
X0034379Y0039820D01*
X0034379Y0036741D01*
X0038246Y0036741D01*
X0034379Y0036741D01*
X0034379Y0036741D01*
X0034379Y0036741D01*
X0034379Y0033661D01*
X0036683Y0033661D01*
X0037140Y0033784D01*
X0038246Y0035250D02*
X0044094Y0035250D01*
X0044094Y0038447D02*
X0038195Y0038447D01*
X0038246Y0036849D02*
X0047728Y0036849D01*
X0034379Y0036849D02*
X0034379Y0036849D01*
X0034379Y0036741D02*
X0034379Y0039820D01*
X0032075Y0039820D01*
X0031617Y0039698D01*
X0031207Y0039461D01*
X0030871Y0039126D01*
X0030634Y0038715D01*
X0030512Y0038257D01*
X0030512Y0036741D01*
X0034379Y0036741D01*
X0034379Y0036741D01*
X0034379Y0033661D01*
X0032075Y0033661D01*
X0031617Y0033784D01*
X0031207Y0034021D01*
X0030871Y0034356D01*
X0030634Y0034767D01*
X0030512Y0035224D01*
X0030512Y0036741D01*
X0034379Y0036741D01*
X0034379Y0036741D01*
X0034379Y0035250D02*
X0034379Y0035250D01*
X0034379Y0038447D02*
X0034379Y0038447D01*
X0030563Y0038447D02*
X0021856Y0038447D01*
X0021907Y0038257D02*
X0021784Y0038715D01*
X0021547Y0039126D01*
X0021212Y0039461D01*
X0020802Y0039698D01*
X0020344Y0039820D01*
X0018040Y0039820D01*
X0018040Y0036741D01*
X0018040Y0036741D01*
X0018040Y0033661D01*
X0020344Y0033661D01*
X0020802Y0033784D01*
X0021212Y0034021D01*
X0021547Y0034356D01*
X0021784Y0034767D01*
X0021907Y0035224D01*
X0021907Y0036741D01*
X0021907Y0038257D01*
X0021907Y0036849D02*
X0030512Y0036849D01*
X0030512Y0035250D02*
X0021907Y0035250D01*
X0021907Y0036741D02*
X0018040Y0036741D01*
X0021907Y0036741D01*
X0018040Y0036741D02*
X0018040Y0036741D01*
X0018040Y0036849D02*
X0018040Y0036849D01*
X0018040Y0038447D02*
X0018040Y0038447D01*
X0018040Y0035250D02*
X0018040Y0035250D01*
X0030528Y0081340D02*
X0030528Y0102340D01*
X0030471Y0102340D01*
X0028763Y0102206D01*
X0027071Y0101938D01*
X0025406Y0101538D01*
X0023776Y0101009D01*
X0022194Y0100353D01*
X0020667Y0099575D01*
X0019207Y0098680D01*
X0017821Y0097673D01*
X0016518Y0096561D01*
X0015307Y0095349D01*
X0014194Y0094047D01*
X0013188Y0092661D01*
X0012292Y0091200D01*
X0012074Y0090772D01*
X0012074Y0125384D01*
X0023228Y0125384D01*
X0023228Y0124143D01*
X0026111Y0124143D01*
X0026111Y0124142D01*
X0026111Y0121190D01*
X0026111Y0124072D01*
X0026111Y0124142D01*
X0026111Y0124142D01*
X0026111Y0124143D01*
X0028994Y0124143D01*
X0028994Y0125384D01*
X0033061Y0125384D01*
X0033061Y0119630D01*
X0033427Y0118748D01*
X0034102Y0118072D01*
X0034421Y0117940D01*
X0020850Y0117940D01*
X0019968Y0117575D01*
X0019293Y0116900D01*
X0018928Y0116018D01*
X0018928Y0105063D01*
X0019293Y0104181D01*
X0019968Y0103506D01*
X0020850Y0103140D01*
X0041805Y0103140D01*
X0042687Y0103506D01*
X0043362Y0104181D01*
X0043728Y0105063D01*
X0043728Y0116018D01*
X0043362Y0116900D01*
X0042687Y0117575D01*
X0041805Y0117940D01*
X0038667Y0117940D01*
X0038986Y0118072D01*
X0039404Y0118490D01*
X0045107Y0118490D01*
X0045107Y0097440D01*
X0044834Y0097673D01*
X0043448Y0098680D01*
X0041988Y0099575D01*
X0040461Y0100353D01*
X0038879Y0101009D01*
X0037250Y0101538D01*
X0035584Y0101938D01*
X0033892Y0102206D01*
X0032184Y0102340D01*
X0032128Y0102340D01*
X0032128Y0081340D01*
X0030528Y0081340D01*
X0030528Y0081607D02*
X0032128Y0081607D01*
X0032128Y0083206D02*
X0030528Y0083206D01*
X0030528Y0084804D02*
X0032128Y0084804D01*
X0032128Y0086403D02*
X0030528Y0086403D01*
X0030528Y0088001D02*
X0032128Y0088001D01*
X0032128Y0089600D02*
X0030528Y0089600D01*
X0030528Y0091198D02*
X0032128Y0091198D01*
X0032128Y0092797D02*
X0030528Y0092797D01*
X0030528Y0094395D02*
X0032128Y0094395D01*
X0032128Y0095994D02*
X0030528Y0095994D01*
X0030528Y0097592D02*
X0032128Y0097592D01*
X0032128Y0099191D02*
X0030528Y0099191D01*
X0030528Y0100789D02*
X0032128Y0100789D01*
X0039408Y0100789D02*
X0045107Y0100789D01*
X0045107Y0099191D02*
X0042615Y0099191D01*
X0044929Y0097592D02*
X0045107Y0097592D01*
X0045107Y0102388D02*
X0012074Y0102388D01*
X0012074Y0103986D02*
X0019487Y0103986D01*
X0018928Y0105585D02*
X0012074Y0105585D01*
X0012074Y0107183D02*
X0018928Y0107183D01*
X0018928Y0108782D02*
X0012074Y0108782D01*
X0012074Y0110380D02*
X0018928Y0110380D01*
X0018928Y0111979D02*
X0012074Y0111979D01*
X0012074Y0113577D02*
X0018928Y0113577D01*
X0018928Y0115176D02*
X0012074Y0115176D01*
X0012074Y0116774D02*
X0019241Y0116774D01*
X0023351Y0119412D02*
X0023228Y0119870D01*
X0023228Y0121190D01*
X0026111Y0121190D01*
X0026111Y0121190D01*
X0026111Y0121190D01*
X0028994Y0121190D01*
X0028994Y0122509D01*
X0028952Y0122666D01*
X0028994Y0122823D01*
X0028994Y0124142D01*
X0026111Y0124142D01*
X0023228Y0124142D01*
X0023228Y0122823D01*
X0023270Y0122666D01*
X0023228Y0122509D01*
X0023228Y0121190D01*
X0026111Y0121190D01*
X0026111Y0121190D01*
X0028994Y0121190D01*
X0028994Y0119870D01*
X0028871Y0119412D01*
X0028634Y0119002D01*
X0028299Y0118667D01*
X0027888Y0118430D01*
X0027431Y0118307D01*
X0026111Y0118307D01*
X0026111Y0121190D01*
X0026111Y0118307D01*
X0024791Y0118307D01*
X0024334Y0118430D01*
X0023923Y0118667D01*
X0023588Y0119002D01*
X0023351Y0119412D01*
X0023228Y0119971D02*
X0012074Y0119971D01*
X0012074Y0118373D02*
X0024546Y0118373D01*
X0026111Y0118373D02*
X0026111Y0118373D01*
X0027676Y0118373D02*
X0033802Y0118373D01*
X0033061Y0119971D02*
X0028994Y0119971D01*
X0028994Y0121570D02*
X0033061Y0121570D01*
X0033061Y0123168D02*
X0028994Y0123168D01*
X0028994Y0124767D02*
X0033061Y0124767D01*
X0026111Y0123168D02*
X0026111Y0123168D01*
X0026111Y0121570D02*
X0026111Y0121570D01*
X0026111Y0121190D02*
X0026111Y0121190D01*
X0026111Y0119971D02*
X0026111Y0119971D01*
X0023228Y0121570D02*
X0012074Y0121570D01*
X0012074Y0123168D02*
X0023228Y0123168D01*
X0023228Y0124767D02*
X0012074Y0124767D01*
X0012074Y0100789D02*
X0023247Y0100789D01*
X0020040Y0099191D02*
X0012074Y0099191D01*
X0012074Y0097592D02*
X0017726Y0097592D01*
X0015951Y0095994D02*
X0012074Y0095994D01*
X0012074Y0094395D02*
X0014492Y0094395D01*
X0013286Y0092797D02*
X0012074Y0092797D01*
X0012074Y0091198D02*
X0012291Y0091198D01*
X0039287Y0118373D02*
X0045107Y0118373D01*
X0045107Y0116774D02*
X0043414Y0116774D01*
X0043728Y0115176D02*
X0045107Y0115176D01*
X0045107Y0113577D02*
X0043728Y0113577D01*
X0043728Y0111979D02*
X0045107Y0111979D01*
X0045107Y0110380D02*
X0043728Y0110380D01*
X0043728Y0108782D02*
X0045107Y0108782D01*
X0045107Y0107183D02*
X0043728Y0107183D01*
X0043728Y0105585D02*
X0045107Y0105585D01*
X0045107Y0103986D02*
X0043168Y0103986D01*
D35*
X0073454Y0078572D03*
X0082902Y0084477D03*
X0088808Y0084083D03*
X0100619Y0077391D03*
X0106524Y0077391D03*
X0111643Y0073847D03*
X0111643Y0069123D03*
X0109280Y0061643D03*
X0116367Y0061249D03*
X0108887Y0048257D03*
X0113217Y0043926D03*
X0123454Y0044320D03*
X0108493Y0024241D03*
X0100619Y0024241D03*
X0092745Y0024241D03*
X0086446Y0031721D03*
X0080934Y0031721D03*
X0079359Y0043926D03*
X0085658Y0043926D03*
X0096288Y0045107D03*
X0096879Y0034871D03*
X0101603Y0034871D03*
X0104556Y0014005D03*
X0112430Y0014005D03*
X0120304Y0014005D03*
X0096682Y0014005D03*
X0088808Y0014005D03*
X0080934Y0014005D03*
X0073060Y0014005D03*
X0067548Y0021485D03*
X0067548Y0025028D03*
X0067548Y0029359D03*
X0067548Y0033296D03*
X0058887Y0041957D03*
X0051406Y0033296D03*
X0043532Y0028178D03*
X0039989Y0028178D03*
X0045501Y0041957D03*
X0045501Y0051800D03*
X0045501Y0061643D03*
X0060068Y0066761D03*
X0060068Y0072666D03*
X0067942Y0061643D03*
X0070304Y0051800D03*
X0088808Y0072666D03*
X0094713Y0072666D03*
X0100225Y0069910D03*
X0100619Y0065186D03*
X0099044Y0061643D03*
X0117548Y0078572D03*
X0116761Y0087627D03*
X0114792Y0091564D03*
X0117154Y0093926D03*
X0031328Y0041957D03*
X0017154Y0041957D03*
X0017154Y0051800D03*
X0017154Y0061643D03*
D36*
X0034379Y0028276D02*
X0034477Y0028178D01*
X0039989Y0028178D01*
X0043532Y0028178D02*
X0043532Y0025028D01*
X0040678Y0022174D01*
X0034379Y0022174D01*
X0034379Y0028276D02*
X0034576Y0028276D01*
X0064202Y0030540D02*
X0065383Y0029359D01*
X0067548Y0029359D01*
X0069910Y0030146D02*
X0067548Y0032509D01*
X0067548Y0033296D01*
X0069910Y0030146D02*
X0069910Y0016761D01*
X0067154Y0014005D01*
X0064202Y0014005D01*
X0064202Y0019517D02*
X0065580Y0019517D01*
X0067548Y0021485D01*
X0067548Y0025028D02*
X0064202Y0025028D01*
X0070894Y0036839D02*
X0075816Y0041761D01*
X0075816Y0058493D01*
X0079753Y0062430D01*
X0098257Y0062430D01*
X0099044Y0061643D01*
X0099831Y0064398D02*
X0100619Y0065186D01*
X0099831Y0064398D02*
X0079359Y0064398D01*
X0072666Y0057706D01*
X0072666Y0056918D01*
X0073454Y0057706D01*
X0073454Y0078572D01*
X0082115Y0083690D02*
X0082115Y0070304D01*
X0083296Y0069123D01*
X0095304Y0069123D01*
X0097666Y0071485D01*
X0100225Y0069910D02*
X0101406Y0071091D01*
X0101406Y0074241D01*
X0103375Y0076209D01*
X0103572Y0076209D01*
X0106524Y0077391D02*
X0106524Y0077981D01*
X0103572Y0080934D01*
X0103572Y0080737D01*
X0100619Y0077391D02*
X0100619Y0087430D01*
X0097666Y0090383D01*
X0097666Y0095107D02*
X0091761Y0095107D01*
X0085855Y0095107D01*
X0081426Y0099536D01*
X0081426Y0102981D01*
X0090284Y0102981D01*
X0099143Y0102981D01*
X0108001Y0102981D01*
X0103572Y0095107D02*
X0097666Y0095107D01*
X0088808Y0092154D02*
X0085855Y0095107D01*
X0088808Y0092154D02*
X0088808Y0084083D01*
X0094320Y0078572D02*
X0094320Y0075422D01*
X0092745Y0073847D01*
X0089989Y0073847D01*
X0088808Y0072666D01*
X0094713Y0072666D02*
X0097666Y0075619D01*
X0097666Y0076209D01*
X0094320Y0078572D02*
X0096091Y0080343D01*
X0097666Y0080343D01*
X0097666Y0080934D01*
X0105924Y0073257D02*
X0105924Y0061839D01*
X0102784Y0058099D01*
X0099635Y0054950D01*
X0099635Y0039103D01*
X0099635Y0036643D01*
X0099044Y0036052D01*
X0099044Y0034083D01*
X0100619Y0032509D01*
X0102587Y0032509D01*
X0104162Y0034083D01*
X0104162Y0036052D01*
X0103572Y0036643D01*
X0103572Y0039103D01*
X0101603Y0039103D02*
X0101603Y0034871D01*
X0097666Y0035658D02*
X0097666Y0039103D01*
X0095698Y0039103D02*
X0095698Y0041367D01*
X0094713Y0042351D01*
X0092351Y0042351D01*
X0090186Y0044517D01*
X0090186Y0048650D01*
X0087627Y0052292D02*
X0087627Y0044956D01*
X0091170Y0041413D01*
X0091170Y0039300D01*
X0091957Y0038513D01*
X0088020Y0039300D02*
X0088020Y0041564D01*
X0085658Y0043926D01*
X0085068Y0044517D01*
X0085068Y0048650D01*
X0087627Y0052292D02*
X0089497Y0054162D01*
X0091367Y0054162D01*
X0095304Y0058099D01*
X0093729Y0059674D01*
X0089792Y0059674D01*
X0101603Y0048257D02*
X0102784Y0049438D01*
X0102756Y0049409D01*
X0102784Y0049438D02*
X0107124Y0053178D01*
X0107124Y0068532D01*
X0109477Y0071485D01*
X0111643Y0069123D02*
X0118335Y0069123D01*
X0119517Y0067942D01*
X0122272Y0067942D01*
X0122272Y0059969D01*
X0121879Y0059576D01*
X0115383Y0065383D02*
X0115383Y0066761D01*
X0115383Y0065383D02*
X0111643Y0061643D01*
X0109280Y0061643D01*
X0117548Y0069910D02*
X0117548Y0073060D01*
X0115383Y0075225D01*
X0115383Y0076209D01*
X0117548Y0075028D02*
X0120304Y0072272D01*
X0122272Y0072272D01*
X0118335Y0069123D02*
X0117548Y0069910D01*
X0117548Y0075028D02*
X0117548Y0078572D01*
X0111643Y0082509D02*
X0111643Y0073847D01*
X0109477Y0076209D02*
X0105924Y0073257D01*
X0111643Y0082509D02*
X0114398Y0085265D01*
X0122272Y0085265D01*
X0122272Y0089595D02*
X0118729Y0089595D01*
X0116761Y0087627D01*
X0114792Y0091564D02*
X0114792Y0094713D01*
X0118335Y0098257D01*
X0122272Y0098257D01*
X0122272Y0093926D02*
X0117154Y0093926D01*
X0082902Y0084477D02*
X0082115Y0083690D01*
X0101603Y0048257D02*
X0101603Y0039103D01*
X0097666Y0035658D02*
X0096879Y0034871D01*
X0113217Y0039300D02*
X0113217Y0043926D01*
X0114005Y0044713D01*
X0114005Y0048454D01*
X0072666Y0046682D02*
X0072666Y0045501D01*
X0056524Y0120540D02*
X0055875Y0121190D01*
X0036544Y0121190D01*
X0036544Y0124143D02*
X0052922Y0124143D01*
X0056524Y0120540D01*
D37*
X0063217Y0056918D02*
X0061741Y0055442D01*
X0054950Y0055442D01*
X0055146Y0055245D01*
X0055146Y0050127D01*
X0055146Y0042450D02*
X0055146Y0037135D01*
X0058198Y0034083D01*
X0062824Y0034083D01*
X0065580Y0036839D01*
X0065776Y0036839D01*
X0070894Y0036839D01*
X0076013Y0036839D02*
X0076013Y0032509D01*
X0076603Y0031918D01*
X0076800Y0031721D01*
X0080934Y0031721D01*
X0083611Y0031328D02*
X0085580Y0029359D01*
X0110146Y0029359D01*
X0117627Y0036839D01*
X0117627Y0022666D01*
X0120186Y0025225D01*
X0123847Y0025225D01*
X0117627Y0022666D02*
X0117627Y0020383D01*
X0106918Y0030934D02*
X0094320Y0030934D01*
X0091957Y0033296D01*
X0090383Y0031721D01*
X0086446Y0031721D01*
X0083611Y0031328D02*
X0083611Y0020383D01*
X0083611Y0031328D02*
X0083611Y0036839D01*
X0083611Y0036524D01*
X0091957Y0038513D02*
X0091957Y0033296D01*
X0106918Y0030934D02*
X0109280Y0033296D01*
X0109280Y0038513D01*
X0110068Y0039300D01*
X0072666Y0046682D02*
X0070304Y0049044D01*
X0070304Y0051800D01*
X0070304Y0054556D01*
X0072666Y0056918D01*
X0072666Y0054950D01*
X0055146Y0037135D02*
X0054851Y0036839D01*
X0053769Y0036839D01*
X0050028Y0040580D01*
X0050028Y0042450D01*
X0051013Y0033296D02*
X0051406Y0033296D01*
X0051013Y0033296D02*
X0048257Y0030540D01*
X0048257Y0025028D01*
X0048257Y0019517D01*
X0048257Y0014005D01*
X0054556Y0014005D02*
X0059083Y0014005D01*
X0059083Y0019517D02*
X0054556Y0019517D01*
X0054556Y0025028D02*
X0059083Y0025028D01*
X0059083Y0030540D02*
X0054556Y0030540D01*
X0034379Y0028276D02*
X0018040Y0028276D01*
X0018040Y0022174D02*
X0034379Y0022174D01*
D38*
X0038020Y0046288D02*
X0033769Y0050540D01*
X0031328Y0050540D01*
X0038020Y0046288D02*
X0062824Y0046288D01*
X0063217Y0046682D01*
M02*
