G75*
%MOIN*%
%OFA0B0*%
%FSLAX25Y25*%
%IPPOS*%
%LPD*%
%AMOC8*
5,1,8,0,0,1.08239X$1,22.5*
%
%ADD10C,0.00000*%
%ADD11R,0.06900X0.06900*%
%ADD12C,0.06900*%
%ADD13R,0.06699X0.06699*%
%ADD14C,0.06699*%
%ADD15C,0.02762*%
D10*
X0009674Y0009674D02*
X0009674Y0127784D01*
X0127784Y0127784D01*
X0127784Y0009674D01*
X0009674Y0009674D01*
X0088060Y0034871D02*
X0088062Y0034940D01*
X0088068Y0035008D01*
X0088078Y0035076D01*
X0088092Y0035143D01*
X0088110Y0035210D01*
X0088131Y0035275D01*
X0088157Y0035339D01*
X0088186Y0035401D01*
X0088218Y0035461D01*
X0088254Y0035520D01*
X0088294Y0035576D01*
X0088336Y0035630D01*
X0088382Y0035681D01*
X0088431Y0035730D01*
X0088482Y0035776D01*
X0088536Y0035818D01*
X0088592Y0035858D01*
X0088650Y0035894D01*
X0088711Y0035926D01*
X0088773Y0035955D01*
X0088837Y0035981D01*
X0088902Y0036002D01*
X0088969Y0036020D01*
X0089036Y0036034D01*
X0089104Y0036044D01*
X0089172Y0036050D01*
X0089241Y0036052D01*
X0089310Y0036050D01*
X0089378Y0036044D01*
X0089446Y0036034D01*
X0089513Y0036020D01*
X0089580Y0036002D01*
X0089645Y0035981D01*
X0089709Y0035955D01*
X0089771Y0035926D01*
X0089831Y0035894D01*
X0089890Y0035858D01*
X0089946Y0035818D01*
X0090000Y0035776D01*
X0090051Y0035730D01*
X0090100Y0035681D01*
X0090146Y0035630D01*
X0090188Y0035576D01*
X0090228Y0035520D01*
X0090264Y0035461D01*
X0090296Y0035401D01*
X0090325Y0035339D01*
X0090351Y0035275D01*
X0090372Y0035210D01*
X0090390Y0035143D01*
X0090404Y0035076D01*
X0090414Y0035008D01*
X0090420Y0034940D01*
X0090422Y0034871D01*
X0090420Y0034802D01*
X0090414Y0034734D01*
X0090404Y0034666D01*
X0090390Y0034599D01*
X0090372Y0034532D01*
X0090351Y0034467D01*
X0090325Y0034403D01*
X0090296Y0034341D01*
X0090264Y0034280D01*
X0090228Y0034222D01*
X0090188Y0034166D01*
X0090146Y0034112D01*
X0090100Y0034061D01*
X0090051Y0034012D01*
X0090000Y0033966D01*
X0089946Y0033924D01*
X0089890Y0033884D01*
X0089832Y0033848D01*
X0089771Y0033816D01*
X0089709Y0033787D01*
X0089645Y0033761D01*
X0089580Y0033740D01*
X0089513Y0033722D01*
X0089446Y0033708D01*
X0089378Y0033698D01*
X0089310Y0033692D01*
X0089241Y0033690D01*
X0089172Y0033692D01*
X0089104Y0033698D01*
X0089036Y0033708D01*
X0088969Y0033722D01*
X0088902Y0033740D01*
X0088837Y0033761D01*
X0088773Y0033787D01*
X0088711Y0033816D01*
X0088650Y0033848D01*
X0088592Y0033884D01*
X0088536Y0033924D01*
X0088482Y0033966D01*
X0088431Y0034012D01*
X0088382Y0034061D01*
X0088336Y0034112D01*
X0088294Y0034166D01*
X0088254Y0034222D01*
X0088218Y0034280D01*
X0088186Y0034341D01*
X0088157Y0034403D01*
X0088131Y0034467D01*
X0088110Y0034532D01*
X0088092Y0034599D01*
X0088078Y0034666D01*
X0088068Y0034734D01*
X0088062Y0034802D01*
X0088060Y0034871D01*
X0110816Y0034871D02*
X0110818Y0034940D01*
X0110824Y0035008D01*
X0110834Y0035076D01*
X0110848Y0035143D01*
X0110866Y0035210D01*
X0110887Y0035275D01*
X0110913Y0035339D01*
X0110942Y0035401D01*
X0110974Y0035461D01*
X0111010Y0035520D01*
X0111050Y0035576D01*
X0111092Y0035630D01*
X0111138Y0035681D01*
X0111187Y0035730D01*
X0111238Y0035776D01*
X0111292Y0035818D01*
X0111348Y0035858D01*
X0111406Y0035894D01*
X0111467Y0035926D01*
X0111529Y0035955D01*
X0111593Y0035981D01*
X0111658Y0036002D01*
X0111725Y0036020D01*
X0111792Y0036034D01*
X0111860Y0036044D01*
X0111928Y0036050D01*
X0111997Y0036052D01*
X0112066Y0036050D01*
X0112134Y0036044D01*
X0112202Y0036034D01*
X0112269Y0036020D01*
X0112336Y0036002D01*
X0112401Y0035981D01*
X0112465Y0035955D01*
X0112527Y0035926D01*
X0112587Y0035894D01*
X0112646Y0035858D01*
X0112702Y0035818D01*
X0112756Y0035776D01*
X0112807Y0035730D01*
X0112856Y0035681D01*
X0112902Y0035630D01*
X0112944Y0035576D01*
X0112984Y0035520D01*
X0113020Y0035461D01*
X0113052Y0035401D01*
X0113081Y0035339D01*
X0113107Y0035275D01*
X0113128Y0035210D01*
X0113146Y0035143D01*
X0113160Y0035076D01*
X0113170Y0035008D01*
X0113176Y0034940D01*
X0113178Y0034871D01*
X0113176Y0034802D01*
X0113170Y0034734D01*
X0113160Y0034666D01*
X0113146Y0034599D01*
X0113128Y0034532D01*
X0113107Y0034467D01*
X0113081Y0034403D01*
X0113052Y0034341D01*
X0113020Y0034280D01*
X0112984Y0034222D01*
X0112944Y0034166D01*
X0112902Y0034112D01*
X0112856Y0034061D01*
X0112807Y0034012D01*
X0112756Y0033966D01*
X0112702Y0033924D01*
X0112646Y0033884D01*
X0112588Y0033848D01*
X0112527Y0033816D01*
X0112465Y0033787D01*
X0112401Y0033761D01*
X0112336Y0033740D01*
X0112269Y0033722D01*
X0112202Y0033708D01*
X0112134Y0033698D01*
X0112066Y0033692D01*
X0111997Y0033690D01*
X0111928Y0033692D01*
X0111860Y0033698D01*
X0111792Y0033708D01*
X0111725Y0033722D01*
X0111658Y0033740D01*
X0111593Y0033761D01*
X0111529Y0033787D01*
X0111467Y0033816D01*
X0111406Y0033848D01*
X0111348Y0033884D01*
X0111292Y0033924D01*
X0111238Y0033966D01*
X0111187Y0034012D01*
X0111138Y0034061D01*
X0111092Y0034112D01*
X0111050Y0034166D01*
X0111010Y0034222D01*
X0110974Y0034280D01*
X0110942Y0034341D01*
X0110913Y0034403D01*
X0110887Y0034467D01*
X0110866Y0034532D01*
X0110848Y0034599D01*
X0110834Y0034666D01*
X0110824Y0034734D01*
X0110818Y0034802D01*
X0110816Y0034871D01*
D11*
X0056524Y0080540D03*
D12*
X0056524Y0090540D03*
X0056524Y0100540D03*
X0056524Y0110540D03*
X0056524Y0120540D03*
D13*
X0076209Y0073060D03*
D14*
X0076209Y0083060D03*
D15*
X0089241Y0034871D03*
X0111997Y0034871D03*
M02*
