G75*
%MOIN*%
%OFA0B0*%
%FSLAX25Y25*%
%IPPOS*%
%LPD*%
%AMOC8*
5,1,8,0,0,1.08239X$1,22.5*
%
%ADD10C,0.00000*%
%ADD11R,0.05906X0.02756*%
%ADD12C,0.02362*%
%ADD13R,0.02362X0.02362*%
%ADD14R,0.05906X0.05906*%
%ADD15R,0.04252X0.04134*%
%ADD16R,0.02165X0.02165*%
%ADD17R,0.04134X0.02559*%
%ADD18R,0.03642X0.02913*%
%ADD19R,0.02913X0.03642*%
%ADD20R,0.04134X0.04252*%
%ADD21R,0.03937X0.05669*%
%ADD22R,0.04724X0.05669*%
%ADD23R,0.02756X0.03543*%
%ADD24R,0.03150X0.03150*%
%ADD25R,0.03937X0.04724*%
%ADD26C,0.40000*%
%ADD27R,0.20000X0.10000*%
%ADD28R,0.00984X0.02559*%
%ADD29C,0.03937*%
%ADD30R,0.02283X0.04134*%
%ADD31R,0.01102X0.04528*%
%ADD32R,0.01969X0.03150*%
%ADD33R,0.03543X0.02756*%
%ADD34R,0.06500X0.06500*%
%ADD35C,0.06500*%
%ADD36C,0.01600*%
%ADD37C,0.02381*%
%ADD38C,0.00600*%
%ADD39C,0.00800*%
D10*
X0018501Y0009674D02*
X0018501Y0127784D01*
X0136611Y0127784D01*
X0136611Y0009674D01*
X0018501Y0009674D01*
X0096887Y0034871D02*
X0096889Y0034940D01*
X0096895Y0035008D01*
X0096905Y0035076D01*
X0096919Y0035143D01*
X0096937Y0035210D01*
X0096958Y0035275D01*
X0096984Y0035339D01*
X0097013Y0035401D01*
X0097045Y0035461D01*
X0097081Y0035520D01*
X0097121Y0035576D01*
X0097163Y0035630D01*
X0097209Y0035681D01*
X0097258Y0035730D01*
X0097309Y0035776D01*
X0097363Y0035818D01*
X0097419Y0035858D01*
X0097477Y0035894D01*
X0097538Y0035926D01*
X0097600Y0035955D01*
X0097664Y0035981D01*
X0097729Y0036002D01*
X0097796Y0036020D01*
X0097863Y0036034D01*
X0097931Y0036044D01*
X0097999Y0036050D01*
X0098068Y0036052D01*
X0098137Y0036050D01*
X0098205Y0036044D01*
X0098273Y0036034D01*
X0098340Y0036020D01*
X0098407Y0036002D01*
X0098472Y0035981D01*
X0098536Y0035955D01*
X0098598Y0035926D01*
X0098658Y0035894D01*
X0098717Y0035858D01*
X0098773Y0035818D01*
X0098827Y0035776D01*
X0098878Y0035730D01*
X0098927Y0035681D01*
X0098973Y0035630D01*
X0099015Y0035576D01*
X0099055Y0035520D01*
X0099091Y0035461D01*
X0099123Y0035401D01*
X0099152Y0035339D01*
X0099178Y0035275D01*
X0099199Y0035210D01*
X0099217Y0035143D01*
X0099231Y0035076D01*
X0099241Y0035008D01*
X0099247Y0034940D01*
X0099249Y0034871D01*
X0099247Y0034802D01*
X0099241Y0034734D01*
X0099231Y0034666D01*
X0099217Y0034599D01*
X0099199Y0034532D01*
X0099178Y0034467D01*
X0099152Y0034403D01*
X0099123Y0034341D01*
X0099091Y0034280D01*
X0099055Y0034222D01*
X0099015Y0034166D01*
X0098973Y0034112D01*
X0098927Y0034061D01*
X0098878Y0034012D01*
X0098827Y0033966D01*
X0098773Y0033924D01*
X0098717Y0033884D01*
X0098659Y0033848D01*
X0098598Y0033816D01*
X0098536Y0033787D01*
X0098472Y0033761D01*
X0098407Y0033740D01*
X0098340Y0033722D01*
X0098273Y0033708D01*
X0098205Y0033698D01*
X0098137Y0033692D01*
X0098068Y0033690D01*
X0097999Y0033692D01*
X0097931Y0033698D01*
X0097863Y0033708D01*
X0097796Y0033722D01*
X0097729Y0033740D01*
X0097664Y0033761D01*
X0097600Y0033787D01*
X0097538Y0033816D01*
X0097477Y0033848D01*
X0097419Y0033884D01*
X0097363Y0033924D01*
X0097309Y0033966D01*
X0097258Y0034012D01*
X0097209Y0034061D01*
X0097163Y0034112D01*
X0097121Y0034166D01*
X0097081Y0034222D01*
X0097045Y0034280D01*
X0097013Y0034341D01*
X0096984Y0034403D01*
X0096958Y0034467D01*
X0096937Y0034532D01*
X0096919Y0034599D01*
X0096905Y0034666D01*
X0096895Y0034734D01*
X0096889Y0034802D01*
X0096887Y0034871D01*
X0119642Y0034871D02*
X0119644Y0034940D01*
X0119650Y0035008D01*
X0119660Y0035076D01*
X0119674Y0035143D01*
X0119692Y0035210D01*
X0119713Y0035275D01*
X0119739Y0035339D01*
X0119768Y0035401D01*
X0119800Y0035461D01*
X0119836Y0035520D01*
X0119876Y0035576D01*
X0119918Y0035630D01*
X0119964Y0035681D01*
X0120013Y0035730D01*
X0120064Y0035776D01*
X0120118Y0035818D01*
X0120174Y0035858D01*
X0120232Y0035894D01*
X0120293Y0035926D01*
X0120355Y0035955D01*
X0120419Y0035981D01*
X0120484Y0036002D01*
X0120551Y0036020D01*
X0120618Y0036034D01*
X0120686Y0036044D01*
X0120754Y0036050D01*
X0120823Y0036052D01*
X0120892Y0036050D01*
X0120960Y0036044D01*
X0121028Y0036034D01*
X0121095Y0036020D01*
X0121162Y0036002D01*
X0121227Y0035981D01*
X0121291Y0035955D01*
X0121353Y0035926D01*
X0121413Y0035894D01*
X0121472Y0035858D01*
X0121528Y0035818D01*
X0121582Y0035776D01*
X0121633Y0035730D01*
X0121682Y0035681D01*
X0121728Y0035630D01*
X0121770Y0035576D01*
X0121810Y0035520D01*
X0121846Y0035461D01*
X0121878Y0035401D01*
X0121907Y0035339D01*
X0121933Y0035275D01*
X0121954Y0035210D01*
X0121972Y0035143D01*
X0121986Y0035076D01*
X0121996Y0035008D01*
X0122002Y0034940D01*
X0122004Y0034871D01*
X0122002Y0034802D01*
X0121996Y0034734D01*
X0121986Y0034666D01*
X0121972Y0034599D01*
X0121954Y0034532D01*
X0121933Y0034467D01*
X0121907Y0034403D01*
X0121878Y0034341D01*
X0121846Y0034280D01*
X0121810Y0034222D01*
X0121770Y0034166D01*
X0121728Y0034112D01*
X0121682Y0034061D01*
X0121633Y0034012D01*
X0121582Y0033966D01*
X0121528Y0033924D01*
X0121472Y0033884D01*
X0121414Y0033848D01*
X0121353Y0033816D01*
X0121291Y0033787D01*
X0121227Y0033761D01*
X0121162Y0033740D01*
X0121095Y0033722D01*
X0121028Y0033708D01*
X0120960Y0033698D01*
X0120892Y0033692D01*
X0120823Y0033690D01*
X0120754Y0033692D01*
X0120686Y0033698D01*
X0120618Y0033708D01*
X0120551Y0033722D01*
X0120484Y0033740D01*
X0120419Y0033761D01*
X0120355Y0033787D01*
X0120293Y0033816D01*
X0120232Y0033848D01*
X0120174Y0033884D01*
X0120118Y0033924D01*
X0120064Y0033966D01*
X0120013Y0034012D01*
X0119964Y0034061D01*
X0119918Y0034112D01*
X0119876Y0034166D01*
X0119836Y0034222D01*
X0119800Y0034280D01*
X0119768Y0034341D01*
X0119739Y0034403D01*
X0119713Y0034467D01*
X0119692Y0034532D01*
X0119674Y0034599D01*
X0119660Y0034666D01*
X0119650Y0034734D01*
X0119644Y0034802D01*
X0119642Y0034871D01*
D11*
X0120469Y0068729D03*
X0120469Y0073060D03*
X0120469Y0077391D03*
X0120469Y0081721D03*
X0120469Y0086052D03*
X0120469Y0090383D03*
X0120469Y0094713D03*
X0120469Y0099044D03*
X0065351Y0099044D03*
X0065351Y0094713D03*
X0065351Y0090383D03*
X0065351Y0086052D03*
X0065351Y0081721D03*
X0065351Y0077391D03*
X0065351Y0073060D03*
X0065351Y0068729D03*
D12*
X0078146Y0067548D03*
X0078146Y0072272D03*
X0078146Y0076997D03*
X0078146Y0081721D03*
X0078146Y0086446D03*
X0078146Y0091170D03*
X0078146Y0095894D03*
X0084052Y0095894D03*
X0084052Y0091170D03*
X0084052Y0086446D03*
X0084052Y0081721D03*
X0084052Y0076997D03*
X0084052Y0072272D03*
X0084052Y0067548D03*
X0089957Y0067548D03*
X0089957Y0072272D03*
X0089957Y0076997D03*
X0089957Y0081721D03*
X0089957Y0086446D03*
X0089957Y0091170D03*
X0089957Y0095894D03*
X0095863Y0095894D03*
X0095863Y0091170D03*
X0095863Y0086446D03*
X0095863Y0081721D03*
X0095863Y0076997D03*
X0095863Y0072272D03*
X0095863Y0067548D03*
X0101768Y0067548D03*
X0101768Y0072272D03*
X0101768Y0076997D03*
X0101768Y0081721D03*
X0101768Y0086446D03*
X0101768Y0091170D03*
X0101768Y0095894D03*
X0107674Y0095894D03*
X0107674Y0091170D03*
X0107674Y0086446D03*
X0107674Y0081721D03*
X0107674Y0076997D03*
X0107674Y0072272D03*
X0107674Y0067548D03*
X0113579Y0072272D03*
X0113579Y0076997D03*
X0113579Y0081721D03*
D13*
X0113579Y0067548D03*
D14*
X0106198Y0103769D03*
X0097339Y0103769D03*
X0088481Y0103769D03*
X0079623Y0103769D03*
D15*
X0129131Y0060363D03*
X0129131Y0053473D03*
D16*
X0045371Y0121190D03*
X0045371Y0124143D03*
X0034938Y0124143D03*
X0034938Y0121190D03*
D17*
X0026867Y0022174D03*
X0026867Y0013709D03*
X0043205Y0013709D03*
X0043205Y0022174D03*
D18*
X0036808Y0040383D03*
X0031690Y0040383D03*
X0069485Y0036839D03*
X0074603Y0036839D03*
X0079721Y0036839D03*
X0084839Y0036839D03*
X0093501Y0059674D03*
X0098619Y0059674D03*
D19*
X0122831Y0053572D03*
X0122831Y0048454D03*
X0130312Y0030737D03*
X0130312Y0025619D03*
X0085430Y0026800D03*
X0085430Y0031918D03*
X0026768Y0037824D03*
X0026768Y0042942D03*
D20*
X0056788Y0036839D03*
X0063678Y0036839D03*
X0065646Y0055737D03*
X0058757Y0055737D03*
X0091434Y0054162D03*
X0098323Y0054162D03*
D21*
X0104131Y0058099D03*
X0111611Y0058099D03*
X0111611Y0049438D03*
D22*
X0104918Y0049438D03*
D23*
X0099800Y0048650D03*
X0094682Y0048650D03*
X0073028Y0030540D03*
X0067910Y0030540D03*
X0067910Y0025028D03*
X0073028Y0025028D03*
X0073028Y0019517D03*
X0067910Y0019517D03*
X0067910Y0014005D03*
X0073028Y0014005D03*
X0051768Y0041170D03*
X0046650Y0041170D03*
X0037201Y0044713D03*
X0032083Y0044713D03*
D24*
X0057083Y0030540D03*
X0057083Y0025028D03*
X0057083Y0019517D03*
X0057083Y0014005D03*
X0063383Y0014005D03*
X0063383Y0019517D03*
X0063383Y0025028D03*
X0063383Y0030540D03*
D25*
X0072044Y0046682D03*
X0081493Y0046682D03*
X0081493Y0056918D03*
X0072044Y0056918D03*
D26*
X0040154Y0082509D03*
D27*
X0040154Y0112509D03*
X0040154Y0052509D03*
D28*
X0059642Y0050127D03*
X0062201Y0050127D03*
X0064760Y0050127D03*
X0064760Y0042450D03*
X0062201Y0042450D03*
X0059642Y0042450D03*
D29*
X0092438Y0034673D02*
X0092438Y0034673D01*
X0092438Y0039005D01*
X0092438Y0039005D01*
X0092438Y0034673D01*
X0092438Y0038609D02*
X0092438Y0038609D01*
X0092438Y0018808D02*
X0092438Y0018808D01*
X0092438Y0021958D01*
X0092438Y0021958D01*
X0092438Y0018808D01*
X0126453Y0018808D02*
X0126453Y0018808D01*
X0126453Y0021958D01*
X0126453Y0021958D01*
X0126453Y0018808D01*
X0126453Y0034673D02*
X0126453Y0034673D01*
X0126453Y0039005D01*
X0126453Y0039005D01*
X0126453Y0034673D01*
X0126453Y0038609D02*
X0126453Y0038609D01*
D30*
X0122044Y0039300D03*
X0118894Y0039300D03*
X0099997Y0039300D03*
X0096847Y0039300D03*
D31*
X0102556Y0039103D03*
X0104524Y0039103D03*
X0106493Y0039103D03*
X0108461Y0039103D03*
X0110430Y0039103D03*
X0112398Y0039103D03*
X0114367Y0039103D03*
X0116335Y0039103D03*
D32*
X0036020Y0033296D03*
X0032477Y0033296D03*
X0028934Y0033296D03*
X0025390Y0033296D03*
X0025390Y0028572D03*
X0028934Y0028572D03*
X0032477Y0028572D03*
X0036020Y0028572D03*
D33*
X0044879Y0026800D03*
X0044879Y0031918D03*
X0022438Y0037430D03*
X0022438Y0042548D03*
D34*
X0128343Y0071288D03*
D35*
X0128343Y0081288D03*
X0128343Y0091288D03*
X0128343Y0101288D03*
X0128343Y0111288D03*
X0128343Y0121288D03*
D36*
X0133138Y0084477D02*
X0134211Y0084477D01*
X0134211Y0012074D01*
X0076806Y0012074D01*
X0076806Y0014020D01*
X0080323Y0017537D01*
X0081111Y0018324D01*
X0081537Y0019353D01*
X0081537Y0031491D01*
X0081111Y0032520D01*
X0080753Y0032878D01*
X0080753Y0032983D01*
X0081573Y0032983D01*
X0081573Y0029620D01*
X0081938Y0028738D01*
X0082173Y0028503D01*
X0082173Y0026800D01*
X0085430Y0026800D01*
X0088686Y0026800D01*
X0088686Y0028280D01*
X0089046Y0028131D01*
X0089638Y0028131D01*
X0089638Y0025335D01*
X0088734Y0024432D01*
X0088069Y0022826D01*
X0088069Y0017939D01*
X0088734Y0016333D01*
X0089963Y0015104D01*
X0091569Y0014439D01*
X0093307Y0014439D01*
X0094912Y0015104D01*
X0096141Y0016333D01*
X0096806Y0017939D01*
X0096806Y0022826D01*
X0096141Y0024432D01*
X0095238Y0025335D01*
X0095238Y0026559D01*
X0119530Y0026559D01*
X0120559Y0026985D01*
X0121347Y0027773D01*
X0123653Y0030080D01*
X0123653Y0025335D01*
X0122750Y0024432D01*
X0122085Y0022826D01*
X0122085Y0017939D01*
X0122750Y0016333D01*
X0123979Y0015104D01*
X0125584Y0014439D01*
X0127322Y0014439D01*
X0128928Y0015104D01*
X0130157Y0016333D01*
X0130822Y0017939D01*
X0130822Y0021398D01*
X0132246Y0021398D01*
X0133128Y0021763D01*
X0133803Y0022439D01*
X0134168Y0023321D01*
X0134168Y0027917D01*
X0133803Y0028799D01*
X0133568Y0029034D01*
X0133568Y0030737D01*
X0133568Y0032795D01*
X0133446Y0033253D01*
X0133209Y0033663D01*
X0132874Y0033998D01*
X0132463Y0034235D01*
X0132005Y0034358D01*
X0130822Y0034358D01*
X0130822Y0039874D01*
X0130157Y0041479D01*
X0128928Y0042708D01*
X0127322Y0043373D01*
X0125634Y0043373D01*
X0125634Y0044593D01*
X0125648Y0044598D01*
X0126323Y0045273D01*
X0126688Y0046155D01*
X0126688Y0049628D01*
X0126768Y0049606D01*
X0128897Y0049606D01*
X0128897Y0053240D01*
X0126088Y0053240D01*
X0126088Y0053572D01*
X0122831Y0053572D01*
X0122831Y0057193D01*
X0121138Y0057193D01*
X0120680Y0057070D01*
X0120269Y0056833D01*
X0119934Y0056498D01*
X0119697Y0056087D01*
X0119575Y0055629D01*
X0119575Y0053572D01*
X0122831Y0053572D01*
X0122831Y0053572D01*
X0122831Y0053572D01*
X0122831Y0057193D01*
X0124525Y0057193D01*
X0124906Y0057090D01*
X0124710Y0057563D01*
X0122373Y0057563D01*
X0121344Y0057989D01*
X0120494Y0058839D01*
X0120149Y0058839D01*
X0119288Y0059196D01*
X0118427Y0058839D01*
X0117757Y0058839D01*
X0117757Y0052227D01*
X0117331Y0051198D01*
X0115979Y0049847D01*
X0115979Y0046126D01*
X0115614Y0045244D01*
X0114939Y0044569D01*
X0114057Y0044203D01*
X0113230Y0044203D01*
X0113230Y0043767D01*
X0118453Y0043767D01*
X0118453Y0044640D01*
X0119000Y0045960D01*
X0119039Y0045999D01*
X0118975Y0046155D01*
X0118975Y0050752D01*
X0119340Y0051634D01*
X0119575Y0051869D01*
X0119575Y0053572D01*
X0122831Y0053572D01*
X0122831Y0053572D01*
X0126088Y0053572D01*
X0126088Y0053707D01*
X0128897Y0053707D01*
X0128897Y0053240D01*
X0129364Y0053240D01*
X0129364Y0053707D01*
X0133057Y0053707D01*
X0133057Y0055777D01*
X0132934Y0056235D01*
X0132808Y0056453D01*
X0133291Y0056937D01*
X0133657Y0057819D01*
X0133657Y0062907D01*
X0133291Y0063789D01*
X0132616Y0064465D01*
X0131734Y0064830D01*
X0126527Y0064830D01*
X0125645Y0064465D01*
X0124970Y0063789D01*
X0124710Y0063163D01*
X0124446Y0063163D01*
X0123907Y0064464D01*
X0123663Y0064708D01*
X0123663Y0064951D01*
X0123899Y0064951D01*
X0124781Y0065317D01*
X0125457Y0065992D01*
X0125559Y0066238D01*
X0128268Y0066238D01*
X0128268Y0071213D01*
X0128418Y0071213D01*
X0128418Y0066238D01*
X0131830Y0066238D01*
X0132288Y0066361D01*
X0132698Y0066598D01*
X0133034Y0066933D01*
X0133270Y0067343D01*
X0133393Y0067801D01*
X0133393Y0071213D01*
X0128418Y0071213D01*
X0128418Y0071363D01*
X0133393Y0071363D01*
X0133393Y0074775D01*
X0133270Y0075233D01*
X0133034Y0075643D01*
X0132698Y0075979D01*
X0132288Y0076216D01*
X0131830Y0076338D01*
X0131157Y0076338D01*
X0131544Y0076498D01*
X0133133Y0078088D01*
X0133993Y0080164D01*
X0133993Y0082412D01*
X0133138Y0084477D01*
X0133664Y0083206D02*
X0134211Y0083206D01*
X0134211Y0081607D02*
X0133993Y0081607D01*
X0133929Y0080009D02*
X0134211Y0080009D01*
X0134211Y0078410D02*
X0133266Y0078410D01*
X0134211Y0076811D02*
X0131857Y0076811D01*
X0133276Y0075213D02*
X0134211Y0075213D01*
X0134211Y0073614D02*
X0133393Y0073614D01*
X0133393Y0072016D02*
X0134211Y0072016D01*
X0134211Y0070417D02*
X0133393Y0070417D01*
X0133393Y0068819D02*
X0134211Y0068819D01*
X0134211Y0067220D02*
X0133199Y0067220D01*
X0134211Y0065622D02*
X0125087Y0065622D01*
X0125204Y0064023D02*
X0124089Y0064023D01*
X0128268Y0067220D02*
X0128418Y0067220D01*
X0128418Y0068819D02*
X0128268Y0068819D01*
X0128268Y0070417D02*
X0128418Y0070417D01*
X0133057Y0064023D02*
X0134211Y0064023D01*
X0134211Y0062425D02*
X0133657Y0062425D01*
X0133657Y0060826D02*
X0134211Y0060826D01*
X0134211Y0059228D02*
X0133657Y0059228D01*
X0133578Y0057629D02*
X0134211Y0057629D01*
X0134211Y0056031D02*
X0132989Y0056031D01*
X0133057Y0054432D02*
X0134211Y0054432D01*
X0134211Y0052834D02*
X0133057Y0052834D01*
X0133057Y0053240D02*
X0129364Y0053240D01*
X0129364Y0049606D01*
X0131494Y0049606D01*
X0131951Y0049729D01*
X0132362Y0049966D01*
X0132697Y0050301D01*
X0132934Y0050712D01*
X0133057Y0051169D01*
X0133057Y0053240D01*
X0133057Y0051235D02*
X0134211Y0051235D01*
X0134211Y0049637D02*
X0131607Y0049637D01*
X0129364Y0049637D02*
X0128897Y0049637D01*
X0128897Y0051235D02*
X0129364Y0051235D01*
X0129364Y0052834D02*
X0128897Y0052834D01*
X0126688Y0048038D02*
X0134211Y0048038D01*
X0134211Y0046440D02*
X0126688Y0046440D01*
X0125891Y0044841D02*
X0134211Y0044841D01*
X0134211Y0043243D02*
X0127637Y0043243D01*
X0129992Y0041644D02*
X0134211Y0041644D01*
X0134211Y0040046D02*
X0130751Y0040046D01*
X0130822Y0038447D02*
X0134211Y0038447D01*
X0134211Y0036849D02*
X0130822Y0036849D01*
X0130822Y0035250D02*
X0134211Y0035250D01*
X0134211Y0033652D02*
X0133215Y0033652D01*
X0133568Y0032053D02*
X0134211Y0032053D01*
X0133568Y0030737D02*
X0130312Y0030737D01*
X0130312Y0030737D01*
X0133568Y0030737D01*
X0133568Y0030455D02*
X0134211Y0030455D01*
X0134211Y0028856D02*
X0133746Y0028856D01*
X0134168Y0027258D02*
X0134211Y0027258D01*
X0134168Y0025659D02*
X0134211Y0025659D01*
X0134168Y0024061D02*
X0134211Y0024061D01*
X0134211Y0022462D02*
X0133813Y0022462D01*
X0134211Y0020864D02*
X0130822Y0020864D01*
X0130822Y0019265D02*
X0134211Y0019265D01*
X0134211Y0017667D02*
X0130709Y0017667D01*
X0129892Y0016068D02*
X0134211Y0016068D01*
X0134211Y0014470D02*
X0127395Y0014470D01*
X0125512Y0014470D02*
X0093379Y0014470D01*
X0091496Y0014470D02*
X0077256Y0014470D01*
X0076806Y0012871D02*
X0134211Y0012871D01*
X0123015Y0016068D02*
X0095876Y0016068D01*
X0096693Y0017667D02*
X0122198Y0017667D01*
X0122085Y0019265D02*
X0096806Y0019265D01*
X0096806Y0020864D02*
X0122085Y0020864D01*
X0122085Y0022462D02*
X0096806Y0022462D01*
X0096295Y0024061D02*
X0122596Y0024061D01*
X0123653Y0025659D02*
X0095238Y0025659D01*
X0089638Y0025659D02*
X0088686Y0025659D01*
X0088686Y0024742D02*
X0088686Y0026800D01*
X0085430Y0026800D01*
X0085430Y0026800D01*
X0085430Y0023179D01*
X0087123Y0023179D01*
X0087581Y0023302D01*
X0087992Y0023539D01*
X0088327Y0023874D01*
X0088564Y0024284D01*
X0088686Y0024742D01*
X0088580Y0024061D02*
X0088435Y0024061D01*
X0088069Y0022462D02*
X0081537Y0022462D01*
X0081537Y0020864D02*
X0088069Y0020864D01*
X0088069Y0019265D02*
X0081500Y0019265D01*
X0080453Y0017667D02*
X0088182Y0017667D01*
X0088999Y0016068D02*
X0078854Y0016068D01*
X0083278Y0023302D02*
X0083736Y0023179D01*
X0085430Y0023179D01*
X0085430Y0026800D01*
X0085430Y0026800D01*
X0082173Y0026800D01*
X0082173Y0024742D01*
X0082296Y0024284D01*
X0082533Y0023874D01*
X0082868Y0023539D01*
X0083278Y0023302D01*
X0082425Y0024061D02*
X0081537Y0024061D01*
X0081537Y0025659D02*
X0082173Y0025659D01*
X0082173Y0027258D02*
X0081537Y0027258D01*
X0081537Y0028856D02*
X0081889Y0028856D01*
X0081573Y0030455D02*
X0081537Y0030455D01*
X0081573Y0032053D02*
X0081304Y0032053D01*
X0085430Y0026800D02*
X0085430Y0026800D01*
X0085430Y0025659D02*
X0085430Y0025659D01*
X0085430Y0024061D02*
X0085430Y0024061D01*
X0088686Y0027258D02*
X0089638Y0027258D01*
X0088188Y0040162D02*
X0088020Y0040331D01*
X0087137Y0040696D01*
X0085372Y0040696D01*
X0086193Y0041517D01*
X0086538Y0041517D01*
X0087857Y0042063D01*
X0088867Y0043073D01*
X0089414Y0044393D01*
X0089414Y0045821D01*
X0088867Y0047141D01*
X0088858Y0047150D01*
X0089020Y0047542D01*
X0089020Y0048971D01*
X0088474Y0050291D01*
X0087464Y0051301D01*
X0086144Y0051847D01*
X0084716Y0051847D01*
X0084293Y0051672D01*
X0084293Y0052303D01*
X0084821Y0052521D01*
X0085496Y0053196D01*
X0085861Y0054079D01*
X0085861Y0059758D01*
X0085496Y0060640D01*
X0084821Y0061315D01*
X0083939Y0061680D01*
X0079047Y0061680D01*
X0078165Y0061315D01*
X0077490Y0060640D01*
X0077124Y0059758D01*
X0077124Y0054079D01*
X0077490Y0053196D01*
X0078165Y0052521D01*
X0078693Y0052303D01*
X0078693Y0051297D01*
X0078165Y0051079D01*
X0077490Y0050404D01*
X0077124Y0049521D01*
X0077124Y0045545D01*
X0076412Y0045545D01*
X0076412Y0049521D01*
X0076047Y0050404D01*
X0075372Y0051079D01*
X0074490Y0051444D01*
X0069598Y0051444D01*
X0068716Y0051079D01*
X0068041Y0050404D01*
X0067822Y0049876D01*
X0067653Y0049876D01*
X0067653Y0051211D01*
X0068191Y0051211D01*
X0069073Y0051576D01*
X0069652Y0052156D01*
X0074490Y0052156D01*
X0075372Y0052521D01*
X0076047Y0053196D01*
X0076412Y0054079D01*
X0076412Y0059758D01*
X0076047Y0060640D01*
X0075372Y0061315D01*
X0074490Y0061680D01*
X0069598Y0061680D01*
X0068716Y0061315D01*
X0068041Y0060640D01*
X0067885Y0060263D01*
X0063102Y0060263D01*
X0062220Y0059898D01*
X0061737Y0059414D01*
X0061518Y0059540D01*
X0061060Y0059663D01*
X0058990Y0059663D01*
X0058990Y0055971D01*
X0058523Y0055971D01*
X0058523Y0059663D01*
X0056453Y0059663D01*
X0055995Y0059540D01*
X0055584Y0059303D01*
X0055249Y0058968D01*
X0055012Y0058558D01*
X0054890Y0058100D01*
X0054890Y0055970D01*
X0058523Y0055970D01*
X0058523Y0055504D01*
X0054890Y0055504D01*
X0054890Y0053374D01*
X0055012Y0052916D01*
X0055249Y0052506D01*
X0055584Y0052171D01*
X0055995Y0051934D01*
X0056453Y0051811D01*
X0057395Y0051811D01*
X0057350Y0051643D01*
X0057350Y0050127D01*
X0059309Y0050127D01*
X0059309Y0050127D01*
X0057350Y0050127D01*
X0057350Y0049876D01*
X0053125Y0049876D01*
X0052554Y0050446D01*
X0052554Y0057986D01*
X0052189Y0058868D01*
X0051514Y0059543D01*
X0050632Y0059909D01*
X0029677Y0059909D01*
X0028795Y0059543D01*
X0028120Y0058868D01*
X0027754Y0057986D01*
X0027754Y0047031D01*
X0027948Y0046563D01*
X0026768Y0046563D01*
X0025075Y0046563D01*
X0024617Y0046440D01*
X0024206Y0046203D01*
X0023871Y0045868D01*
X0023789Y0045726D01*
X0022438Y0045726D01*
X0022438Y0042548D01*
X0022438Y0042548D01*
X0022438Y0045726D01*
X0020901Y0045726D01*
X0020901Y0072277D01*
X0021119Y0071848D01*
X0022014Y0070388D01*
X0023021Y0069002D01*
X0024134Y0067699D01*
X0025345Y0066488D01*
X0026648Y0065376D01*
X0028033Y0064369D01*
X0029494Y0063474D01*
X0031020Y0062696D01*
X0032603Y0062040D01*
X0034232Y0061511D01*
X0035898Y0061111D01*
X0037590Y0060843D01*
X0039298Y0060709D01*
X0039354Y0060709D01*
X0039354Y0081709D01*
X0040954Y0081709D01*
X0040954Y0060709D01*
X0041011Y0060709D01*
X0042718Y0060843D01*
X0044410Y0061111D01*
X0046076Y0061511D01*
X0047705Y0062040D01*
X0049288Y0062696D01*
X0050814Y0063474D01*
X0052275Y0064369D01*
X0053661Y0065376D01*
X0054963Y0066488D01*
X0056175Y0067699D01*
X0057287Y0069002D01*
X0058294Y0070388D01*
X0059189Y0071848D01*
X0059967Y0073375D01*
X0059998Y0073450D01*
X0059998Y0071204D01*
X0060127Y0070894D01*
X0059998Y0070584D01*
X0059998Y0066874D01*
X0060364Y0065992D01*
X0061039Y0065317D01*
X0061921Y0064951D01*
X0067169Y0064951D01*
X0067425Y0064333D01*
X0068435Y0063323D01*
X0069755Y0062776D01*
X0071183Y0062776D01*
X0072503Y0063323D01*
X0073513Y0064333D01*
X0073909Y0065289D01*
X0074865Y0065685D01*
X0074990Y0065810D01*
X0075110Y0065520D01*
X0076118Y0064512D01*
X0077434Y0063967D01*
X0078859Y0063967D01*
X0080175Y0064512D01*
X0081099Y0065436D01*
X0082023Y0064512D01*
X0083339Y0063967D01*
X0084764Y0063967D01*
X0086080Y0064512D01*
X0087005Y0065436D01*
X0087929Y0064512D01*
X0089245Y0063967D01*
X0090670Y0063967D01*
X0091986Y0064512D01*
X0092910Y0065436D01*
X0093834Y0064512D01*
X0095151Y0063967D01*
X0096575Y0063967D01*
X0097891Y0064512D01*
X0098816Y0065436D01*
X0099740Y0064512D01*
X0101056Y0063967D01*
X0102315Y0063967D01*
X0102315Y0063448D01*
X0102362Y0063334D01*
X0101685Y0063334D01*
X0101538Y0063273D01*
X0100917Y0063531D01*
X0096320Y0063531D01*
X0095438Y0063165D01*
X0095204Y0062931D01*
X0093501Y0062931D01*
X0093501Y0059674D01*
X0093501Y0059674D01*
X0093501Y0062931D01*
X0091443Y0062931D01*
X0090985Y0062808D01*
X0090575Y0062571D01*
X0090239Y0062236D01*
X0090002Y0061825D01*
X0089880Y0061368D01*
X0089880Y0059674D01*
X0089880Y0058088D01*
X0089130Y0058088D01*
X0088672Y0057966D01*
X0088262Y0057729D01*
X0087926Y0057393D01*
X0087689Y0056983D01*
X0087567Y0056525D01*
X0087567Y0054396D01*
X0091200Y0054396D01*
X0091200Y0053929D01*
X0087567Y0053929D01*
X0087567Y0051799D01*
X0087689Y0051341D01*
X0087926Y0050931D01*
X0088262Y0050596D01*
X0088672Y0050359D01*
X0089130Y0050236D01*
X0090904Y0050236D01*
X0090904Y0046401D01*
X0091264Y0045532D01*
X0090894Y0044640D01*
X0090894Y0043212D01*
X0090936Y0043111D01*
X0089963Y0042708D01*
X0088734Y0041479D01*
X0088188Y0040162D01*
X0088899Y0041644D02*
X0086846Y0041644D01*
X0088938Y0043243D02*
X0090894Y0043243D01*
X0090978Y0044841D02*
X0089414Y0044841D01*
X0089158Y0046440D02*
X0090904Y0046440D01*
X0090904Y0048038D02*
X0089020Y0048038D01*
X0088745Y0049637D02*
X0090904Y0049637D01*
X0087751Y0051235D02*
X0087529Y0051235D01*
X0087567Y0052834D02*
X0085133Y0052834D01*
X0085861Y0054432D02*
X0087567Y0054432D01*
X0087567Y0056031D02*
X0085861Y0056031D01*
X0085861Y0057629D02*
X0088162Y0057629D01*
X0089880Y0059228D02*
X0085861Y0059228D01*
X0085309Y0060826D02*
X0089880Y0060826D01*
X0089880Y0059674D02*
X0093501Y0059674D01*
X0089880Y0059674D01*
X0090428Y0062425D02*
X0048634Y0062425D01*
X0051712Y0064023D02*
X0067735Y0064023D01*
X0068227Y0060826D02*
X0042506Y0060826D01*
X0040954Y0060826D02*
X0039354Y0060826D01*
X0037802Y0060826D02*
X0020901Y0060826D01*
X0020901Y0059228D02*
X0028479Y0059228D01*
X0027754Y0057629D02*
X0020901Y0057629D01*
X0020901Y0056031D02*
X0027754Y0056031D01*
X0027754Y0054432D02*
X0020901Y0054432D01*
X0020901Y0052834D02*
X0027754Y0052834D01*
X0027754Y0051235D02*
X0020901Y0051235D01*
X0020901Y0049637D02*
X0027754Y0049637D01*
X0027754Y0048038D02*
X0020901Y0048038D01*
X0020901Y0046440D02*
X0024617Y0046440D01*
X0022438Y0044841D02*
X0022438Y0044841D01*
X0022438Y0043243D02*
X0022438Y0043243D01*
X0026768Y0043243D02*
X0026768Y0043243D01*
X0026768Y0042942D02*
X0026768Y0046563D01*
X0026768Y0042942D01*
X0026768Y0042942D01*
X0026768Y0044841D02*
X0026768Y0044841D01*
X0026768Y0046440D02*
X0026768Y0046440D01*
X0036808Y0040383D02*
X0036808Y0037126D01*
X0037662Y0037126D01*
X0037387Y0036851D01*
X0037207Y0036671D01*
X0036020Y0036671D01*
X0035868Y0036671D01*
X0035868Y0037126D01*
X0036808Y0037126D01*
X0036808Y0040383D01*
X0040429Y0040383D01*
X0040429Y0041397D01*
X0040614Y0041582D01*
X0040979Y0042464D01*
X0040979Y0045109D01*
X0044232Y0045109D01*
X0043913Y0044976D01*
X0043238Y0044301D01*
X0042872Y0043419D01*
X0042872Y0040682D01*
X0042845Y0040671D01*
X0041835Y0039661D01*
X0041663Y0039246D01*
X0040429Y0039246D01*
X0040429Y0040383D01*
X0036808Y0040383D01*
X0036808Y0040383D01*
X0036808Y0040383D01*
X0036808Y0040046D02*
X0036808Y0040046D01*
X0036808Y0038447D02*
X0036808Y0038447D01*
X0037385Y0036849D02*
X0035868Y0036849D01*
X0036020Y0036671D02*
X0036020Y0033296D01*
X0036020Y0033296D01*
X0036020Y0036671D01*
X0036020Y0035250D02*
X0036020Y0035250D01*
X0036020Y0033652D02*
X0036020Y0033652D01*
X0040429Y0040046D02*
X0042220Y0040046D01*
X0042872Y0041644D02*
X0040640Y0041644D01*
X0040979Y0043243D02*
X0042872Y0043243D01*
X0043778Y0044841D02*
X0040979Y0044841D01*
X0052554Y0051235D02*
X0057350Y0051235D01*
X0055060Y0052834D02*
X0052554Y0052834D01*
X0052554Y0054432D02*
X0054890Y0054432D01*
X0054890Y0056031D02*
X0052554Y0056031D01*
X0052554Y0057629D02*
X0054890Y0057629D01*
X0055509Y0059228D02*
X0051829Y0059228D01*
X0058523Y0059228D02*
X0058990Y0059228D01*
X0058990Y0057629D02*
X0058523Y0057629D01*
X0058523Y0056031D02*
X0058990Y0056031D01*
X0060733Y0065622D02*
X0053949Y0065622D01*
X0055696Y0067220D02*
X0059998Y0067220D01*
X0059998Y0068819D02*
X0057131Y0068819D01*
X0058312Y0070417D02*
X0059998Y0070417D01*
X0059998Y0072016D02*
X0059275Y0072016D01*
X0073203Y0064023D02*
X0077298Y0064023D01*
X0078995Y0064023D02*
X0083203Y0064023D01*
X0084900Y0064023D02*
X0089109Y0064023D01*
X0090806Y0064023D02*
X0095014Y0064023D01*
X0096712Y0064023D02*
X0100920Y0064023D01*
X0093501Y0062425D02*
X0093501Y0062425D01*
X0093501Y0060826D02*
X0093501Y0060826D01*
X0093501Y0059674D02*
X0093501Y0059674D01*
X0104537Y0049057D02*
X0104537Y0045363D01*
X0105126Y0045119D01*
X0105299Y0044946D01*
X0105299Y0049057D01*
X0104537Y0049057D01*
X0104537Y0048038D02*
X0105299Y0048038D01*
X0105299Y0046440D02*
X0104537Y0046440D01*
X0115212Y0044841D02*
X0118537Y0044841D01*
X0118975Y0046440D02*
X0115979Y0046440D01*
X0115979Y0048038D02*
X0118975Y0048038D01*
X0118975Y0049637D02*
X0115979Y0049637D01*
X0117346Y0051235D02*
X0119175Y0051235D01*
X0119575Y0052834D02*
X0117757Y0052834D01*
X0117757Y0054432D02*
X0119575Y0054432D01*
X0119682Y0056031D02*
X0117757Y0056031D01*
X0117757Y0057629D02*
X0122213Y0057629D01*
X0122831Y0056031D02*
X0122831Y0056031D01*
X0122831Y0054432D02*
X0122831Y0054432D01*
X0122430Y0028856D02*
X0123653Y0028856D01*
X0123653Y0027258D02*
X0120831Y0027258D01*
X0121347Y0027773D02*
X0121347Y0027773D01*
X0078543Y0051235D02*
X0074994Y0051235D01*
X0075684Y0052834D02*
X0077852Y0052834D01*
X0077124Y0054432D02*
X0076412Y0054432D01*
X0076412Y0056031D02*
X0077124Y0056031D01*
X0077124Y0057629D02*
X0076412Y0057629D01*
X0076412Y0059228D02*
X0077124Y0059228D01*
X0077676Y0060826D02*
X0075860Y0060826D01*
X0075068Y0065622D02*
X0074712Y0065622D01*
X0069094Y0051235D02*
X0068249Y0051235D01*
X0076365Y0049637D02*
X0077172Y0049637D01*
X0077124Y0048038D02*
X0076412Y0048038D01*
X0076412Y0046440D02*
X0077124Y0046440D01*
X0069485Y0039945D02*
X0069485Y0036883D01*
X0069485Y0036883D01*
X0069485Y0039945D01*
X0069485Y0039945D01*
X0069485Y0038447D02*
X0069485Y0038447D01*
X0057022Y0038447D02*
X0056555Y0038447D01*
X0057022Y0039196D02*
X0057022Y0037073D01*
X0056555Y0037073D01*
X0056555Y0040765D01*
X0055546Y0040765D01*
X0055546Y0042701D01*
X0056750Y0042701D01*
X0056750Y0040693D01*
X0056842Y0040470D01*
X0056842Y0040273D01*
X0056813Y0039805D01*
X0056842Y0039719D01*
X0056842Y0039629D01*
X0057022Y0039196D01*
X0056828Y0040046D02*
X0056555Y0040046D01*
X0056750Y0041644D02*
X0055546Y0041644D01*
X0053109Y0028905D02*
X0052370Y0028166D01*
X0050828Y0026624D01*
X0050828Y0024078D01*
X0050402Y0023049D01*
X0049614Y0022261D01*
X0047603Y0020250D01*
X0047307Y0019535D01*
X0046632Y0018860D01*
X0045750Y0018494D01*
X0040661Y0018494D01*
X0039779Y0018860D01*
X0039265Y0019374D01*
X0030807Y0019374D01*
X0030293Y0018860D01*
X0029411Y0018494D01*
X0024322Y0018494D01*
X0023440Y0018860D01*
X0022765Y0019535D01*
X0022400Y0020417D01*
X0022400Y0023931D01*
X0022765Y0024813D01*
X0022981Y0025028D01*
X0022372Y0025637D01*
X0022006Y0026519D01*
X0022006Y0030624D01*
X0022116Y0030888D01*
X0022033Y0030922D01*
X0020901Y0032054D01*
X0020901Y0012074D01*
X0023032Y0012074D01*
X0023000Y0012193D01*
X0023000Y0013709D01*
X0026867Y0013709D01*
X0026867Y0013709D01*
X0030734Y0013709D01*
X0030734Y0012193D01*
X0030702Y0012074D01*
X0039370Y0012074D01*
X0039338Y0012193D01*
X0039338Y0013709D01*
X0043205Y0013709D01*
X0043205Y0013709D01*
X0039338Y0013709D01*
X0039338Y0015226D01*
X0039461Y0015684D01*
X0039698Y0016094D01*
X0040033Y0016429D01*
X0040444Y0016666D01*
X0040901Y0016789D01*
X0043205Y0016789D01*
X0043205Y0013710D01*
X0043205Y0013710D01*
X0043205Y0016789D01*
X0045509Y0016789D01*
X0045967Y0016666D01*
X0046378Y0016429D01*
X0046713Y0016094D01*
X0046950Y0015684D01*
X0047072Y0015226D01*
X0047072Y0013709D01*
X0043205Y0013709D01*
X0043205Y0013709D01*
X0047072Y0013709D01*
X0047072Y0012193D01*
X0047040Y0012074D01*
X0053109Y0012074D01*
X0053109Y0016057D01*
X0053400Y0016761D01*
X0053109Y0017464D01*
X0053109Y0021569D01*
X0053400Y0022272D01*
X0053109Y0022976D01*
X0053109Y0027081D01*
X0053400Y0027784D01*
X0053109Y0028488D01*
X0053109Y0028905D01*
X0053109Y0028856D02*
X0053060Y0028856D01*
X0053182Y0027258D02*
X0051461Y0027258D01*
X0050828Y0025659D02*
X0053109Y0025659D01*
X0053109Y0024061D02*
X0050821Y0024061D01*
X0049815Y0022462D02*
X0053321Y0022462D01*
X0053109Y0020864D02*
X0048217Y0020864D01*
X0047037Y0019265D02*
X0053109Y0019265D01*
X0053109Y0017667D02*
X0020901Y0017667D01*
X0020901Y0019265D02*
X0023035Y0019265D01*
X0022400Y0020864D02*
X0020901Y0020864D01*
X0020901Y0022462D02*
X0022400Y0022462D01*
X0022454Y0024061D02*
X0020901Y0024061D01*
X0020901Y0025659D02*
X0022363Y0025659D01*
X0022006Y0027258D02*
X0020901Y0027258D01*
X0020901Y0028856D02*
X0022006Y0028856D01*
X0022006Y0030455D02*
X0020901Y0030455D01*
X0020901Y0032053D02*
X0020902Y0032053D01*
X0030698Y0019265D02*
X0039374Y0019265D01*
X0039683Y0016068D02*
X0030389Y0016068D01*
X0030374Y0016094D02*
X0030611Y0015684D01*
X0030734Y0015226D01*
X0030734Y0013709D01*
X0026867Y0013709D01*
X0026867Y0013709D01*
X0026867Y0013710D02*
X0026867Y0013710D01*
X0026867Y0016789D01*
X0029171Y0016789D01*
X0029628Y0016666D01*
X0030039Y0016429D01*
X0030374Y0016094D01*
X0030734Y0014470D02*
X0039338Y0014470D01*
X0039338Y0012871D02*
X0030734Y0012871D01*
X0026867Y0013710D02*
X0026867Y0016789D01*
X0024563Y0016789D01*
X0024105Y0016666D01*
X0023695Y0016429D01*
X0023359Y0016094D01*
X0023123Y0015684D01*
X0023000Y0015226D01*
X0023000Y0013709D01*
X0026867Y0013709D01*
X0026867Y0014470D02*
X0026867Y0014470D01*
X0026867Y0016068D02*
X0026867Y0016068D01*
X0023344Y0016068D02*
X0020901Y0016068D01*
X0020901Y0014470D02*
X0023000Y0014470D01*
X0023000Y0012871D02*
X0020901Y0012871D01*
X0043205Y0014470D02*
X0043205Y0014470D01*
X0043205Y0016068D02*
X0043205Y0016068D01*
X0046728Y0016068D02*
X0053113Y0016068D01*
X0053109Y0014470D02*
X0047072Y0014470D01*
X0047072Y0012871D02*
X0053109Y0012871D01*
X0040954Y0062425D02*
X0039354Y0062425D01*
X0039354Y0064023D02*
X0040954Y0064023D01*
X0040954Y0065622D02*
X0039354Y0065622D01*
X0039354Y0067220D02*
X0040954Y0067220D01*
X0040954Y0068819D02*
X0039354Y0068819D01*
X0039354Y0070417D02*
X0040954Y0070417D01*
X0040954Y0072016D02*
X0039354Y0072016D01*
X0039354Y0073614D02*
X0040954Y0073614D01*
X0040954Y0075213D02*
X0039354Y0075213D01*
X0039354Y0076811D02*
X0040954Y0076811D01*
X0040954Y0078410D02*
X0039354Y0078410D01*
X0039354Y0080009D02*
X0040954Y0080009D01*
X0040954Y0081607D02*
X0039354Y0081607D01*
X0039354Y0083309D02*
X0039354Y0104309D01*
X0039298Y0104309D01*
X0037590Y0104174D01*
X0035898Y0103906D01*
X0034232Y0103506D01*
X0032603Y0102977D01*
X0031020Y0102321D01*
X0029494Y0101544D01*
X0028033Y0100649D01*
X0026648Y0099642D01*
X0025345Y0098529D01*
X0024134Y0097318D01*
X0023021Y0096015D01*
X0022014Y0094629D01*
X0021119Y0093169D01*
X0020901Y0092740D01*
X0020901Y0125384D01*
X0032055Y0125384D01*
X0032055Y0124143D01*
X0034938Y0124143D01*
X0037820Y0124143D01*
X0037820Y0125384D01*
X0041888Y0125384D01*
X0041888Y0119909D01*
X0037820Y0119909D01*
X0037820Y0121190D01*
X0037820Y0122509D01*
X0037778Y0122666D01*
X0037820Y0122823D01*
X0037820Y0124142D01*
X0034938Y0124142D01*
X0034938Y0121190D01*
X0037820Y0121190D01*
X0034938Y0121190D01*
X0034938Y0121190D01*
X0034938Y0121190D01*
X0034938Y0124072D01*
X0034938Y0124142D01*
X0034938Y0124142D01*
X0034938Y0124143D01*
X0034938Y0124142D01*
X0032055Y0124142D01*
X0032055Y0122823D01*
X0032097Y0122666D01*
X0032055Y0122509D01*
X0032055Y0121190D01*
X0034938Y0121190D01*
X0034938Y0121190D01*
X0032055Y0121190D01*
X0032055Y0119909D01*
X0029677Y0119909D01*
X0028795Y0119543D01*
X0028120Y0118868D01*
X0027754Y0117986D01*
X0027754Y0107031D01*
X0028120Y0106149D01*
X0028795Y0105474D01*
X0029677Y0105109D01*
X0050632Y0105109D01*
X0051514Y0105474D01*
X0052189Y0106149D01*
X0052554Y0107031D01*
X0052554Y0117986D01*
X0052387Y0118390D01*
X0053069Y0118390D01*
X0053099Y0118360D01*
X0053099Y0118015D01*
X0053646Y0116695D01*
X0053934Y0116407D01*
X0053934Y0099409D01*
X0053661Y0099642D01*
X0052275Y0100649D01*
X0050814Y0101544D01*
X0049288Y0102321D01*
X0047705Y0102977D01*
X0046076Y0103506D01*
X0044410Y0103906D01*
X0042718Y0104174D01*
X0041011Y0104309D01*
X0040954Y0104309D01*
X0040954Y0083309D01*
X0039354Y0083309D01*
X0039354Y0084804D02*
X0040954Y0084804D01*
X0040954Y0086403D02*
X0039354Y0086403D01*
X0039354Y0088001D02*
X0040954Y0088001D01*
X0040954Y0089600D02*
X0039354Y0089600D01*
X0039354Y0091198D02*
X0040954Y0091198D01*
X0040954Y0092797D02*
X0039354Y0092797D01*
X0039354Y0094395D02*
X0040954Y0094395D01*
X0040954Y0095994D02*
X0039354Y0095994D01*
X0039354Y0097592D02*
X0040954Y0097592D01*
X0040954Y0099191D02*
X0039354Y0099191D01*
X0039354Y0100789D02*
X0040954Y0100789D01*
X0040954Y0102388D02*
X0039354Y0102388D01*
X0039354Y0103986D02*
X0040954Y0103986D01*
X0043906Y0103986D02*
X0053934Y0103986D01*
X0053934Y0105585D02*
X0051624Y0105585D01*
X0052554Y0107183D02*
X0053934Y0107183D01*
X0053934Y0108782D02*
X0052554Y0108782D01*
X0052554Y0110380D02*
X0053934Y0110380D01*
X0053934Y0111979D02*
X0052554Y0111979D01*
X0052554Y0113577D02*
X0053934Y0113577D01*
X0053934Y0115176D02*
X0052554Y0115176D01*
X0052554Y0116774D02*
X0053613Y0116774D01*
X0053086Y0118373D02*
X0052394Y0118373D01*
X0041888Y0119971D02*
X0037820Y0119971D01*
X0037820Y0121570D02*
X0041888Y0121570D01*
X0041888Y0123168D02*
X0037820Y0123168D01*
X0037820Y0124767D02*
X0041888Y0124767D01*
X0034938Y0123168D02*
X0034938Y0123168D01*
X0034938Y0121570D02*
X0034938Y0121570D01*
X0032055Y0121570D02*
X0020901Y0121570D01*
X0020901Y0123168D02*
X0032055Y0123168D01*
X0032055Y0124767D02*
X0020901Y0124767D01*
X0020901Y0119971D02*
X0032055Y0119971D01*
X0027914Y0118373D02*
X0020901Y0118373D01*
X0020901Y0116774D02*
X0027754Y0116774D01*
X0027754Y0115176D02*
X0020901Y0115176D01*
X0020901Y0113577D02*
X0027754Y0113577D01*
X0027754Y0111979D02*
X0020901Y0111979D01*
X0020901Y0110380D02*
X0027754Y0110380D01*
X0027754Y0108782D02*
X0020901Y0108782D01*
X0020901Y0107183D02*
X0027754Y0107183D01*
X0028684Y0105585D02*
X0020901Y0105585D01*
X0020901Y0103986D02*
X0036403Y0103986D01*
X0031180Y0102388D02*
X0020901Y0102388D01*
X0020901Y0100789D02*
X0028263Y0100789D01*
X0026119Y0099191D02*
X0020901Y0099191D01*
X0020901Y0097592D02*
X0024408Y0097592D01*
X0023005Y0095994D02*
X0020901Y0095994D01*
X0020901Y0094395D02*
X0021871Y0094395D01*
X0020929Y0092797D02*
X0020901Y0092797D01*
X0020901Y0072016D02*
X0021034Y0072016D01*
X0020901Y0070417D02*
X0021996Y0070417D01*
X0020901Y0068819D02*
X0023177Y0068819D01*
X0024613Y0067220D02*
X0020901Y0067220D01*
X0020901Y0065622D02*
X0026359Y0065622D01*
X0028597Y0064023D02*
X0020901Y0064023D01*
X0020901Y0062425D02*
X0031675Y0062425D01*
X0052046Y0100789D02*
X0053934Y0100789D01*
X0053934Y0102388D02*
X0049128Y0102388D01*
D37*
X0052753Y0104556D03*
X0052753Y0115973D03*
X0056690Y0118729D03*
X0040154Y0104556D03*
X0027162Y0104556D03*
X0027162Y0115973D03*
X0021650Y0124635D03*
X0072831Y0071879D03*
X0072831Y0068729D03*
X0070469Y0066367D03*
X0061020Y0064398D03*
X0056296Y0067154D03*
X0053146Y0060855D03*
X0053146Y0051800D03*
X0045666Y0045107D03*
X0044879Y0037627D03*
X0048028Y0037233D03*
X0050784Y0033690D03*
X0056296Y0040776D03*
X0067713Y0040383D03*
X0077162Y0032509D03*
X0076375Y0029359D03*
X0076375Y0025028D03*
X0076375Y0021485D03*
X0081886Y0014005D03*
X0089760Y0014005D03*
X0097635Y0014005D03*
X0105509Y0014005D03*
X0113383Y0014005D03*
X0121257Y0014005D03*
X0129131Y0014005D03*
X0133461Y0019123D03*
X0133461Y0030540D03*
X0133461Y0041170D03*
X0126375Y0043926D03*
X0122044Y0043926D03*
X0117713Y0048257D03*
X0118501Y0058099D03*
X0117713Y0062430D03*
X0120863Y0062430D03*
X0110627Y0073454D03*
X0104721Y0078178D03*
X0099209Y0069517D03*
X0092910Y0076209D03*
X0104721Y0089595D03*
X0114957Y0091564D03*
X0114957Y0086839D03*
X0122438Y0102587D03*
X0133461Y0076603D03*
X0133461Y0064792D03*
X0133461Y0052981D03*
X0110430Y0034871D03*
X0105705Y0034871D03*
X0105115Y0045107D03*
X0094485Y0043926D03*
X0087792Y0041170D03*
X0085823Y0045107D03*
X0085430Y0048257D03*
X0071257Y0051800D03*
X0084642Y0062430D03*
X0075587Y0084083D03*
X0040154Y0060855D03*
X0027162Y0060855D03*
X0021257Y0060855D03*
X0023619Y0067154D03*
X0021257Y0051800D03*
X0027162Y0051800D03*
X0030705Y0036839D03*
X0036217Y0036839D03*
X0041335Y0025816D03*
X0045666Y0017942D03*
X0035036Y0017942D03*
X0024800Y0017942D03*
X0021650Y0025028D03*
X0088973Y0026997D03*
X0089760Y0031721D03*
X0095272Y0031721D03*
X0101572Y0024241D03*
X0109446Y0024241D03*
X0117320Y0024241D03*
D38*
X0081493Y0045501D02*
X0081493Y0046682D01*
X0081493Y0056918D02*
X0081493Y0057706D01*
X0097339Y0103769D02*
X0106198Y0103769D01*
D39*
X0101768Y0095894D02*
X0095863Y0095894D01*
X0089957Y0095894D01*
X0084052Y0095894D01*
X0079623Y0100324D01*
X0079623Y0103769D01*
X0088481Y0103769D01*
X0097339Y0103769D01*
X0095863Y0091170D02*
X0092910Y0088217D01*
X0092910Y0076209D01*
X0095863Y0075619D02*
X0093304Y0073060D01*
X0093304Y0071091D01*
X0092123Y0069910D01*
X0074012Y0069910D01*
X0072831Y0068729D01*
X0070469Y0066367D02*
X0070469Y0093139D01*
X0068894Y0094713D01*
X0065351Y0094713D01*
X0065351Y0099044D02*
X0068894Y0099044D01*
X0072044Y0095894D01*
X0072044Y0074241D01*
X0072831Y0073454D01*
X0072831Y0071879D01*
X0075587Y0084083D02*
X0079524Y0084083D01*
X0080705Y0085265D01*
X0080705Y0092548D01*
X0084052Y0095894D01*
X0098422Y0086839D02*
X0100390Y0088808D01*
X0103934Y0088808D01*
X0104721Y0089595D01*
X0110627Y0085658D02*
X0114170Y0089202D01*
X0115745Y0089202D01*
X0118894Y0086052D01*
X0120469Y0086052D01*
X0120469Y0090383D02*
X0116926Y0090383D01*
X0115745Y0091564D01*
X0114957Y0091564D01*
X0114957Y0086839D02*
X0114957Y0084477D01*
X0116138Y0083296D01*
X0116138Y0074438D01*
X0116138Y0070698D01*
X0118107Y0068729D01*
X0120469Y0068729D01*
X0120469Y0067548D01*
X0120863Y0067154D01*
X0120863Y0062430D01*
X0122930Y0060363D01*
X0129131Y0060363D01*
X0128343Y0071288D02*
X0126572Y0073060D01*
X0120469Y0073060D01*
X0116138Y0074438D02*
X0113579Y0076997D01*
X0110627Y0073454D02*
X0110627Y0085658D01*
X0104721Y0078769D02*
X0101768Y0081721D01*
X0104721Y0078769D02*
X0104721Y0078178D01*
X0101768Y0076997D02*
X0101768Y0075619D01*
X0099209Y0073060D01*
X0099209Y0069517D01*
X0095863Y0072272D02*
X0098422Y0074831D01*
X0098422Y0086839D01*
X0095863Y0076997D02*
X0095863Y0075619D01*
X0105115Y0074438D02*
X0107674Y0076997D01*
X0105115Y0074438D02*
X0105115Y0064005D01*
X0106690Y0062430D01*
X0110627Y0062430D01*
X0111611Y0061446D01*
X0111611Y0058099D01*
X0108461Y0054950D01*
X0108461Y0039103D01*
X0108461Y0036643D01*
X0108068Y0036249D01*
X0108068Y0033887D01*
X0109446Y0032509D01*
X0111414Y0032509D01*
X0112989Y0034083D01*
X0112989Y0036052D01*
X0112398Y0036643D01*
X0112398Y0039103D01*
X0110430Y0039103D02*
X0110430Y0048257D01*
X0111611Y0049438D01*
X0114957Y0052784D01*
X0114957Y0061643D01*
X0110233Y0066367D01*
X0110233Y0069713D01*
X0107674Y0072272D01*
X0113579Y0067548D02*
X0113579Y0065383D01*
X0116532Y0062430D01*
X0117713Y0062430D01*
X0104131Y0058099D02*
X0102556Y0059674D01*
X0098619Y0059674D01*
X0098619Y0054457D01*
X0098323Y0054162D01*
X0097241Y0053080D01*
X0097241Y0044320D01*
X0099997Y0041564D01*
X0099997Y0039300D01*
X0099997Y0036938D01*
X0100784Y0036150D01*
X0100784Y0033296D01*
X0099209Y0031721D01*
X0095272Y0031721D01*
X0094406Y0029359D02*
X0092438Y0031328D01*
X0092438Y0020383D01*
X0094406Y0029359D02*
X0118973Y0029359D01*
X0126453Y0036839D01*
X0126453Y0022666D01*
X0129012Y0025225D01*
X0130312Y0025619D01*
X0126453Y0022666D02*
X0126453Y0020383D01*
X0115745Y0030934D02*
X0103146Y0030934D01*
X0100784Y0033296D01*
X0105705Y0034871D02*
X0106493Y0035658D01*
X0106493Y0039103D01*
X0104524Y0039103D02*
X0104524Y0041761D01*
X0103540Y0042745D01*
X0101572Y0042745D01*
X0099800Y0044517D01*
X0099800Y0048650D01*
X0094682Y0048650D02*
X0094485Y0048454D01*
X0094485Y0043926D01*
X0096847Y0041564D01*
X0096847Y0039300D01*
X0092438Y0036839D02*
X0092438Y0036524D01*
X0092438Y0036839D02*
X0092438Y0031328D01*
X0089760Y0031721D02*
X0085627Y0031721D01*
X0085430Y0031918D01*
X0084839Y0032509D01*
X0084839Y0036839D01*
X0079721Y0036839D02*
X0079721Y0039005D01*
X0085823Y0045107D01*
X0083855Y0046682D02*
X0085430Y0048257D01*
X0083855Y0046682D02*
X0081493Y0046682D01*
X0081493Y0043926D01*
X0080312Y0042745D01*
X0069682Y0042745D01*
X0066926Y0045501D01*
X0053146Y0045501D01*
X0051768Y0044123D01*
X0051768Y0041170D01*
X0051178Y0040580D01*
X0051178Y0037233D01*
X0053540Y0034871D01*
X0053540Y0034083D01*
X0054327Y0033296D01*
X0056296Y0033296D01*
X0057083Y0032509D01*
X0057083Y0030540D01*
X0057083Y0025028D01*
X0057083Y0019517D01*
X0057083Y0014005D01*
X0063383Y0014005D02*
X0067910Y0014005D01*
X0073028Y0014005D02*
X0073028Y0014202D01*
X0078737Y0019910D01*
X0078737Y0030934D01*
X0077162Y0032509D01*
X0075194Y0030540D02*
X0076375Y0029359D01*
X0075194Y0030540D02*
X0073028Y0030540D01*
X0071650Y0034083D02*
X0074406Y0036839D01*
X0074603Y0036839D01*
X0079721Y0036839D01*
X0079721Y0037036D01*
X0071650Y0034083D02*
X0067418Y0034083D01*
X0064760Y0036741D01*
X0063678Y0036839D01*
X0062595Y0036839D01*
X0059642Y0040186D01*
X0059642Y0042450D01*
X0064760Y0042450D02*
X0064760Y0036741D01*
X0067713Y0040383D02*
X0069485Y0038611D01*
X0069485Y0036839D01*
X0067910Y0030540D02*
X0063383Y0030540D01*
X0063383Y0025028D02*
X0067910Y0025028D01*
X0073028Y0025028D02*
X0076375Y0025028D01*
X0076375Y0021485D02*
X0074406Y0019517D01*
X0073028Y0019517D01*
X0067910Y0019517D02*
X0063383Y0019517D01*
X0057477Y0030540D02*
X0057083Y0030540D01*
X0050784Y0030540D02*
X0050784Y0033690D01*
X0048028Y0034083D02*
X0051178Y0037233D01*
X0048028Y0037233D02*
X0045666Y0034871D01*
X0044091Y0033296D01*
X0044879Y0031918D01*
X0045666Y0034871D02*
X0041729Y0034871D01*
X0040548Y0033690D01*
X0040548Y0028572D01*
X0037398Y0025422D01*
X0033461Y0025422D01*
X0032477Y0026406D01*
X0032477Y0028572D01*
X0036020Y0028572D02*
X0037398Y0028572D01*
X0038973Y0030146D01*
X0038973Y0034477D01*
X0040942Y0036446D01*
X0043698Y0036446D01*
X0044879Y0037627D01*
X0046650Y0039398D01*
X0046650Y0041170D01*
X0044406Y0048257D02*
X0050784Y0048257D01*
X0051965Y0047076D01*
X0071650Y0047076D01*
X0072044Y0046682D01*
X0064760Y0050127D02*
X0064760Y0054851D01*
X0065646Y0055737D01*
X0066827Y0056918D01*
X0072044Y0056918D01*
X0081493Y0056918D02*
X0081493Y0054950D01*
X0081493Y0057706D02*
X0081493Y0046682D01*
X0110430Y0039103D02*
X0110430Y0034871D01*
X0115745Y0030934D02*
X0118107Y0033296D01*
X0118107Y0036150D01*
X0118894Y0036938D01*
X0118894Y0039300D01*
X0122044Y0039300D02*
X0122044Y0043926D01*
X0122831Y0044713D01*
X0122831Y0048454D01*
X0120469Y0094713D02*
X0125194Y0094713D01*
X0128343Y0097863D01*
X0128343Y0101288D01*
X0122438Y0101013D02*
X0120469Y0099044D01*
X0122438Y0101013D02*
X0122438Y0102587D01*
X0056690Y0118729D02*
X0054229Y0121190D01*
X0045371Y0121190D01*
X0045371Y0124143D02*
X0051276Y0124143D01*
X0056690Y0118729D01*
X0040154Y0052509D02*
X0044406Y0048257D01*
X0040154Y0052509D02*
X0037201Y0050343D01*
X0037201Y0044713D01*
X0032083Y0044713D02*
X0031690Y0044713D01*
X0031690Y0040383D01*
X0033068Y0039398D01*
X0033068Y0035658D01*
X0032477Y0035068D01*
X0032477Y0033296D01*
X0028934Y0033296D02*
X0028934Y0035068D01*
X0029131Y0035265D01*
X0026768Y0037627D01*
X0026768Y0037824D01*
X0029131Y0035265D02*
X0030705Y0036839D01*
X0025390Y0033296D02*
X0023619Y0033296D01*
X0022438Y0034477D01*
X0022438Y0037430D01*
X0026867Y0022174D02*
X0043205Y0022174D01*
X0045568Y0022174D01*
X0048028Y0024635D01*
X0048028Y0027784D01*
X0050784Y0030540D01*
X0048028Y0029950D02*
X0048028Y0034083D01*
X0048028Y0029950D02*
X0044879Y0026800D01*
X0043894Y0025816D01*
X0041335Y0025816D01*
M02*
