%
M48
M72
T01C0.01200
T02C0.02362
T03C0.03500
%
T01
X39989Y28178
X43532Y28178
X51406Y33296
X45501Y41957
X45501Y51800
X45501Y61643
X60068Y66761
X60068Y72666
X67942Y61643
X70304Y51800
X79359Y43926
X85658Y43926
X86446Y31721
X80934Y31721
X92745Y24241
X100619Y24241
X108493Y24241
X112430Y14005
X120304Y14005
X104556Y14005
X96682Y14005
X88808Y14005
X80934Y14005
X73060Y14005
X67548Y21485
X67548Y25028
X67548Y29359
X67548Y33296
X58887Y41957
X31328Y41957
X17154Y41957
X17154Y51800
X17154Y61643
X73454Y78572
X82902Y84477
X88808Y84083
X100619Y77391
X106524Y77391
X111643Y73847
X111643Y69123
X109280Y61643
X116367Y61249
X108887Y48257
X113217Y43926
X101603Y34871
X96879Y34871
X96288Y45107
X99044Y61643
X100619Y65186
X100225Y69910
X94713Y72666
X88808Y72666
X114792Y91564
X117154Y93926
X116761Y87627
X117548Y78572
X123454Y44320
T02
X89241Y34871
X111997Y34871
T03
X56524Y80540
X56524Y90540
X56524Y100540
X56524Y110540
X56524Y120540
M30
