G75*
%MOIN*%
%OFA0B0*%
%FSLAX25Y25*%
%IPPOS*%
%LPD*%
%AMOC8*
5,1,8,0,0,1.08239X$1,22.5*
%
%ADD10C,0.00000*%
%ADD11R,0.06500X0.06500*%
%ADD12C,0.06500*%
%ADD13R,0.06299X0.06299*%
%ADD14C,0.06299*%
%ADD15C,0.01600*%
%ADD16C,0.02400*%
%ADD17C,0.00600*%
%ADD18C,0.00800*%
D10*
X0018501Y0009674D02*
X0018501Y0127784D01*
X0136611Y0127784D01*
X0136611Y0009674D01*
X0018501Y0009674D01*
X0096887Y0034871D02*
X0096889Y0034940D01*
X0096895Y0035008D01*
X0096905Y0035076D01*
X0096919Y0035143D01*
X0096937Y0035210D01*
X0096958Y0035275D01*
X0096984Y0035339D01*
X0097013Y0035401D01*
X0097045Y0035461D01*
X0097081Y0035520D01*
X0097121Y0035576D01*
X0097163Y0035630D01*
X0097209Y0035681D01*
X0097258Y0035730D01*
X0097309Y0035776D01*
X0097363Y0035818D01*
X0097419Y0035858D01*
X0097477Y0035894D01*
X0097538Y0035926D01*
X0097600Y0035955D01*
X0097664Y0035981D01*
X0097729Y0036002D01*
X0097796Y0036020D01*
X0097863Y0036034D01*
X0097931Y0036044D01*
X0097999Y0036050D01*
X0098068Y0036052D01*
X0098137Y0036050D01*
X0098205Y0036044D01*
X0098273Y0036034D01*
X0098340Y0036020D01*
X0098407Y0036002D01*
X0098472Y0035981D01*
X0098536Y0035955D01*
X0098598Y0035926D01*
X0098658Y0035894D01*
X0098717Y0035858D01*
X0098773Y0035818D01*
X0098827Y0035776D01*
X0098878Y0035730D01*
X0098927Y0035681D01*
X0098973Y0035630D01*
X0099015Y0035576D01*
X0099055Y0035520D01*
X0099091Y0035461D01*
X0099123Y0035401D01*
X0099152Y0035339D01*
X0099178Y0035275D01*
X0099199Y0035210D01*
X0099217Y0035143D01*
X0099231Y0035076D01*
X0099241Y0035008D01*
X0099247Y0034940D01*
X0099249Y0034871D01*
X0099247Y0034802D01*
X0099241Y0034734D01*
X0099231Y0034666D01*
X0099217Y0034599D01*
X0099199Y0034532D01*
X0099178Y0034467D01*
X0099152Y0034403D01*
X0099123Y0034341D01*
X0099091Y0034280D01*
X0099055Y0034222D01*
X0099015Y0034166D01*
X0098973Y0034112D01*
X0098927Y0034061D01*
X0098878Y0034012D01*
X0098827Y0033966D01*
X0098773Y0033924D01*
X0098717Y0033884D01*
X0098659Y0033848D01*
X0098598Y0033816D01*
X0098536Y0033787D01*
X0098472Y0033761D01*
X0098407Y0033740D01*
X0098340Y0033722D01*
X0098273Y0033708D01*
X0098205Y0033698D01*
X0098137Y0033692D01*
X0098068Y0033690D01*
X0097999Y0033692D01*
X0097931Y0033698D01*
X0097863Y0033708D01*
X0097796Y0033722D01*
X0097729Y0033740D01*
X0097664Y0033761D01*
X0097600Y0033787D01*
X0097538Y0033816D01*
X0097477Y0033848D01*
X0097419Y0033884D01*
X0097363Y0033924D01*
X0097309Y0033966D01*
X0097258Y0034012D01*
X0097209Y0034061D01*
X0097163Y0034112D01*
X0097121Y0034166D01*
X0097081Y0034222D01*
X0097045Y0034280D01*
X0097013Y0034341D01*
X0096984Y0034403D01*
X0096958Y0034467D01*
X0096937Y0034532D01*
X0096919Y0034599D01*
X0096905Y0034666D01*
X0096895Y0034734D01*
X0096889Y0034802D01*
X0096887Y0034871D01*
X0119642Y0034871D02*
X0119644Y0034940D01*
X0119650Y0035008D01*
X0119660Y0035076D01*
X0119674Y0035143D01*
X0119692Y0035210D01*
X0119713Y0035275D01*
X0119739Y0035339D01*
X0119768Y0035401D01*
X0119800Y0035461D01*
X0119836Y0035520D01*
X0119876Y0035576D01*
X0119918Y0035630D01*
X0119964Y0035681D01*
X0120013Y0035730D01*
X0120064Y0035776D01*
X0120118Y0035818D01*
X0120174Y0035858D01*
X0120232Y0035894D01*
X0120293Y0035926D01*
X0120355Y0035955D01*
X0120419Y0035981D01*
X0120484Y0036002D01*
X0120551Y0036020D01*
X0120618Y0036034D01*
X0120686Y0036044D01*
X0120754Y0036050D01*
X0120823Y0036052D01*
X0120892Y0036050D01*
X0120960Y0036044D01*
X0121028Y0036034D01*
X0121095Y0036020D01*
X0121162Y0036002D01*
X0121227Y0035981D01*
X0121291Y0035955D01*
X0121353Y0035926D01*
X0121413Y0035894D01*
X0121472Y0035858D01*
X0121528Y0035818D01*
X0121582Y0035776D01*
X0121633Y0035730D01*
X0121682Y0035681D01*
X0121728Y0035630D01*
X0121770Y0035576D01*
X0121810Y0035520D01*
X0121846Y0035461D01*
X0121878Y0035401D01*
X0121907Y0035339D01*
X0121933Y0035275D01*
X0121954Y0035210D01*
X0121972Y0035143D01*
X0121986Y0035076D01*
X0121996Y0035008D01*
X0122002Y0034940D01*
X0122004Y0034871D01*
X0122002Y0034802D01*
X0121996Y0034734D01*
X0121986Y0034666D01*
X0121972Y0034599D01*
X0121954Y0034532D01*
X0121933Y0034467D01*
X0121907Y0034403D01*
X0121878Y0034341D01*
X0121846Y0034280D01*
X0121810Y0034222D01*
X0121770Y0034166D01*
X0121728Y0034112D01*
X0121682Y0034061D01*
X0121633Y0034012D01*
X0121582Y0033966D01*
X0121528Y0033924D01*
X0121472Y0033884D01*
X0121414Y0033848D01*
X0121353Y0033816D01*
X0121291Y0033787D01*
X0121227Y0033761D01*
X0121162Y0033740D01*
X0121095Y0033722D01*
X0121028Y0033708D01*
X0120960Y0033698D01*
X0120892Y0033692D01*
X0120823Y0033690D01*
X0120754Y0033692D01*
X0120686Y0033698D01*
X0120618Y0033708D01*
X0120551Y0033722D01*
X0120484Y0033740D01*
X0120419Y0033761D01*
X0120355Y0033787D01*
X0120293Y0033816D01*
X0120232Y0033848D01*
X0120174Y0033884D01*
X0120118Y0033924D01*
X0120064Y0033966D01*
X0120013Y0034012D01*
X0119964Y0034061D01*
X0119918Y0034112D01*
X0119876Y0034166D01*
X0119836Y0034222D01*
X0119800Y0034280D01*
X0119768Y0034341D01*
X0119739Y0034403D01*
X0119713Y0034467D01*
X0119692Y0034532D01*
X0119674Y0034599D01*
X0119660Y0034666D01*
X0119650Y0034734D01*
X0119644Y0034802D01*
X0119642Y0034871D01*
D11*
X0065351Y0080540D03*
D12*
X0065351Y0090540D03*
X0065351Y0100540D03*
X0065351Y0110540D03*
X0065351Y0120540D03*
D13*
X0085036Y0073060D03*
D14*
X0085036Y0083060D03*
D15*
X0087345Y0078009D02*
X0088180Y0078355D01*
X0089741Y0079916D01*
X0089925Y0080360D01*
X0090849Y0080360D01*
X0091841Y0080771D01*
X0091947Y0080877D01*
X0092445Y0080877D01*
X0093768Y0081425D01*
X0094781Y0082438D01*
X0095329Y0083761D01*
X0095329Y0084477D01*
X0123784Y0084477D01*
X0124871Y0084027D01*
X0126303Y0084027D01*
X0127391Y0084477D01*
X0134211Y0084477D01*
X0134211Y0012074D01*
X0020901Y0012074D01*
X0020901Y0125384D01*
X0053934Y0125384D01*
X0053934Y0084477D01*
X0060422Y0084477D01*
X0060301Y0084027D01*
X0060301Y0080615D01*
X0065276Y0080615D01*
X0065276Y0080465D01*
X0065426Y0080465D01*
X0065426Y0075490D01*
X0068838Y0075490D01*
X0069296Y0075613D01*
X0069706Y0075850D01*
X0070041Y0076185D01*
X0070278Y0076595D01*
X0070401Y0077053D01*
X0070401Y0080465D01*
X0065426Y0080465D01*
X0065426Y0080615D01*
X0070401Y0080615D01*
X0070401Y0084027D01*
X0070280Y0084477D01*
X0072556Y0084477D01*
X0078680Y0078353D01*
X0078680Y0077856D01*
X0079228Y0076532D01*
X0080086Y0075674D01*
X0080086Y0073835D01*
X0084261Y0073835D01*
X0084261Y0072285D01*
X0080086Y0072285D01*
X0080086Y0069673D01*
X0080209Y0069215D01*
X0080446Y0068805D01*
X0080781Y0068470D01*
X0081192Y0068233D01*
X0081649Y0068110D01*
X0084261Y0068110D01*
X0084261Y0072285D01*
X0085811Y0072285D01*
X0085811Y0073835D01*
X0089986Y0073835D01*
X0089986Y0076446D01*
X0089863Y0076904D01*
X0089626Y0077315D01*
X0089291Y0077650D01*
X0088880Y0077887D01*
X0088423Y0078009D01*
X0087345Y0078009D01*
X0088235Y0078410D02*
X0105971Y0078410D01*
X0105846Y0078107D02*
X0105846Y0076674D01*
X0106148Y0075943D01*
X0105751Y0075546D01*
X0105579Y0075718D01*
X0104256Y0076266D01*
X0102824Y0076266D01*
X0101501Y0075718D01*
X0100488Y0074705D01*
X0099940Y0073382D01*
X0099940Y0071950D01*
X0100012Y0071776D01*
X0099272Y0071035D01*
X0097491Y0071035D01*
X0096499Y0070624D01*
X0095739Y0069865D01*
X0082737Y0056862D01*
X0077806Y0056862D01*
X0076814Y0056451D01*
X0076054Y0055692D01*
X0074479Y0054117D01*
X0074068Y0053124D01*
X0074068Y0050950D01*
X0071724Y0048605D01*
X0071312Y0047613D01*
X0071312Y0038358D01*
X0058515Y0038358D01*
X0057522Y0037947D01*
X0051148Y0031573D01*
X0050320Y0031230D01*
X0049307Y0030217D01*
X0048759Y0028894D01*
X0048759Y0027462D01*
X0049307Y0026139D01*
X0050320Y0025126D01*
X0051643Y0024578D01*
X0053075Y0024578D01*
X0054398Y0025126D01*
X0055411Y0026139D01*
X0055959Y0027462D01*
X0055959Y0028747D01*
X0057825Y0030613D01*
X0058194Y0030244D01*
X0059517Y0029696D01*
X0060949Y0029696D01*
X0062272Y0030244D01*
X0062624Y0030596D01*
X0072990Y0030596D01*
X0072775Y0030075D01*
X0072775Y0028643D01*
X0073323Y0027320D01*
X0073449Y0027194D01*
X0073323Y0027068D01*
X0072775Y0025744D01*
X0072775Y0024312D01*
X0073212Y0023257D01*
X0072775Y0022201D01*
X0072775Y0020769D01*
X0073323Y0019446D01*
X0074335Y0018433D01*
X0075659Y0017885D01*
X0077091Y0017885D01*
X0078414Y0018433D01*
X0079427Y0019446D01*
X0079975Y0020769D01*
X0079975Y0021267D01*
X0083416Y0024708D01*
X0084175Y0025467D01*
X0084586Y0026460D01*
X0084586Y0043201D01*
X0100721Y0059336D01*
X0103683Y0059336D01*
X0104676Y0059747D01*
X0104735Y0059806D01*
X0104819Y0059603D01*
X0105831Y0058591D01*
X0107155Y0058043D01*
X0108587Y0058043D01*
X0109910Y0058591D01*
X0110262Y0058943D01*
X0115716Y0058943D01*
X0116068Y0058591D01*
X0117391Y0058043D01*
X0118823Y0058043D01*
X0120146Y0058591D01*
X0121159Y0059603D01*
X0121707Y0060926D01*
X0121707Y0062359D01*
X0121159Y0063682D01*
X0120146Y0064694D01*
X0119943Y0064779D01*
X0120688Y0065523D01*
X0121185Y0065523D01*
X0122508Y0066071D01*
X0123521Y0067084D01*
X0124069Y0068407D01*
X0124069Y0069839D01*
X0123521Y0071162D01*
X0123198Y0071485D01*
X0123521Y0071808D01*
X0124069Y0073131D01*
X0124069Y0074563D01*
X0123521Y0075886D01*
X0122508Y0076899D01*
X0121185Y0077447D01*
X0119753Y0077447D01*
X0118951Y0077115D01*
X0118951Y0078107D01*
X0118403Y0079430D01*
X0117390Y0080442D01*
X0116067Y0080991D01*
X0114635Y0080991D01*
X0113312Y0080442D01*
X0112398Y0079529D01*
X0111485Y0080442D01*
X0110162Y0080991D01*
X0108729Y0080991D01*
X0107406Y0080442D01*
X0106394Y0079430D01*
X0105846Y0078107D01*
X0105846Y0076811D02*
X0089888Y0076811D01*
X0089986Y0075213D02*
X0100996Y0075213D01*
X0100036Y0073614D02*
X0085811Y0073614D01*
X0085811Y0072285D02*
X0089986Y0072285D01*
X0089986Y0069673D01*
X0089863Y0069215D01*
X0089626Y0068805D01*
X0089291Y0068470D01*
X0088880Y0068233D01*
X0088423Y0068110D01*
X0085811Y0068110D01*
X0085811Y0072285D01*
X0085811Y0072016D02*
X0084261Y0072016D01*
X0084261Y0073614D02*
X0020901Y0073614D01*
X0020901Y0072016D02*
X0080086Y0072016D01*
X0080086Y0070417D02*
X0020901Y0070417D01*
X0020901Y0068819D02*
X0080438Y0068819D01*
X0084261Y0068819D02*
X0085811Y0068819D01*
X0085811Y0070417D02*
X0084261Y0070417D01*
X0089634Y0068819D02*
X0094693Y0068819D01*
X0096292Y0070417D02*
X0089986Y0070417D01*
X0089986Y0072016D02*
X0099940Y0072016D01*
X0093095Y0067220D02*
X0058565Y0067220D01*
X0058954Y0066831D02*
X0057941Y0067844D01*
X0056618Y0068392D01*
X0055186Y0068392D01*
X0053863Y0067844D01*
X0053230Y0067211D01*
X0052037Y0067211D01*
X0050713Y0066663D01*
X0049701Y0065650D01*
X0049153Y0064327D01*
X0049153Y0062895D01*
X0049701Y0061572D01*
X0049953Y0061320D01*
X0049953Y0045479D01*
X0045700Y0041227D01*
X0045344Y0041227D01*
X0044020Y0040679D01*
X0043008Y0039666D01*
X0042460Y0038343D01*
X0042460Y0036911D01*
X0043008Y0035588D01*
X0044020Y0034575D01*
X0045344Y0034027D01*
X0046776Y0034027D01*
X0047635Y0034382D01*
X0048493Y0034027D01*
X0049925Y0034027D01*
X0051249Y0034575D01*
X0052261Y0035588D01*
X0052809Y0036911D01*
X0052809Y0038054D01*
X0055913Y0041159D01*
X0056701Y0041946D01*
X0057127Y0042975D01*
X0057127Y0060483D01*
X0058276Y0061631D01*
X0058589Y0062388D01*
X0058954Y0062753D01*
X0059502Y0064076D01*
X0059502Y0065508D01*
X0058954Y0066831D01*
X0059455Y0065622D02*
X0091496Y0065622D01*
X0089898Y0064023D02*
X0059480Y0064023D01*
X0058626Y0062425D02*
X0088299Y0062425D01*
X0086701Y0060826D02*
X0057471Y0060826D01*
X0057127Y0059228D02*
X0085102Y0059228D01*
X0083504Y0057629D02*
X0057127Y0057629D01*
X0057127Y0056031D02*
X0076393Y0056031D01*
X0074795Y0054432D02*
X0057127Y0054432D01*
X0057127Y0052834D02*
X0074068Y0052834D01*
X0074068Y0051235D02*
X0057127Y0051235D01*
X0057127Y0049637D02*
X0072755Y0049637D01*
X0071489Y0048038D02*
X0057127Y0048038D01*
X0057127Y0046440D02*
X0071312Y0046440D01*
X0071312Y0044841D02*
X0057127Y0044841D01*
X0057127Y0043243D02*
X0071312Y0043243D01*
X0071312Y0041644D02*
X0056399Y0041644D01*
X0054801Y0040046D02*
X0071312Y0040046D01*
X0071312Y0038447D02*
X0053202Y0038447D01*
X0052784Y0036849D02*
X0056424Y0036849D01*
X0054825Y0035250D02*
X0051924Y0035250D01*
X0053227Y0033652D02*
X0033505Y0033652D01*
X0033505Y0034548D02*
X0033757Y0034800D01*
X0034305Y0036123D01*
X0034305Y0037555D01*
X0033757Y0038879D01*
X0032745Y0039891D01*
X0031421Y0040439D01*
X0029989Y0040439D01*
X0028666Y0039891D01*
X0027653Y0038879D01*
X0027105Y0037555D01*
X0027105Y0036123D01*
X0027653Y0034800D01*
X0027905Y0034548D01*
X0027905Y0028802D01*
X0028332Y0027773D01*
X0029119Y0026985D01*
X0032663Y0023442D01*
X0033692Y0023016D01*
X0039044Y0023016D01*
X0039296Y0022764D01*
X0040619Y0022216D01*
X0042051Y0022216D01*
X0043375Y0022764D01*
X0044387Y0023777D01*
X0044935Y0025100D01*
X0044935Y0026532D01*
X0044387Y0027855D01*
X0043375Y0028868D01*
X0042051Y0029416D01*
X0040619Y0029416D01*
X0039296Y0028868D01*
X0039044Y0028616D01*
X0035408Y0028616D01*
X0033505Y0030519D01*
X0033505Y0034548D01*
X0033944Y0035250D02*
X0043345Y0035250D01*
X0042485Y0036849D02*
X0034305Y0036849D01*
X0033936Y0038447D02*
X0042503Y0038447D01*
X0043387Y0040046D02*
X0032372Y0040046D01*
X0029039Y0040046D02*
X0020901Y0040046D01*
X0020901Y0041644D02*
X0046117Y0041644D01*
X0047716Y0043243D02*
X0020901Y0043243D01*
X0020901Y0044841D02*
X0049314Y0044841D01*
X0049953Y0046440D02*
X0020901Y0046440D01*
X0020901Y0048038D02*
X0049953Y0048038D01*
X0049953Y0049637D02*
X0020901Y0049637D01*
X0020901Y0051235D02*
X0049953Y0051235D01*
X0049953Y0052834D02*
X0020901Y0052834D01*
X0020901Y0054432D02*
X0049953Y0054432D01*
X0049953Y0056031D02*
X0020901Y0056031D01*
X0020901Y0057629D02*
X0049953Y0057629D01*
X0049953Y0059228D02*
X0020901Y0059228D01*
X0020901Y0060826D02*
X0049953Y0060826D01*
X0049347Y0062425D02*
X0020901Y0062425D01*
X0020901Y0064023D02*
X0049153Y0064023D01*
X0049689Y0065622D02*
X0020901Y0065622D01*
X0020901Y0067220D02*
X0053239Y0067220D01*
X0060996Y0075850D02*
X0061406Y0075613D01*
X0061864Y0075490D01*
X0065276Y0075490D01*
X0065276Y0080465D01*
X0060301Y0080465D01*
X0060301Y0077053D01*
X0060424Y0076595D01*
X0060661Y0076185D01*
X0060996Y0075850D01*
X0060366Y0076811D02*
X0020901Y0076811D01*
X0020901Y0075213D02*
X0080086Y0075213D01*
X0079113Y0076811D02*
X0070336Y0076811D01*
X0070401Y0078410D02*
X0078623Y0078410D01*
X0077025Y0080009D02*
X0070401Y0080009D01*
X0070401Y0081607D02*
X0075426Y0081607D01*
X0073828Y0083206D02*
X0070401Y0083206D01*
X0065426Y0080009D02*
X0065276Y0080009D01*
X0065276Y0078410D02*
X0065426Y0078410D01*
X0065426Y0076811D02*
X0065276Y0076811D01*
X0060301Y0078410D02*
X0020901Y0078410D01*
X0020901Y0080009D02*
X0060301Y0080009D01*
X0060301Y0081607D02*
X0020901Y0081607D01*
X0020901Y0083206D02*
X0060301Y0083206D01*
X0053934Y0084804D02*
X0020901Y0084804D01*
X0020901Y0086403D02*
X0053934Y0086403D01*
X0053934Y0088001D02*
X0020901Y0088001D01*
X0020901Y0089600D02*
X0053934Y0089600D01*
X0053934Y0091198D02*
X0020901Y0091198D01*
X0020901Y0092797D02*
X0053934Y0092797D01*
X0053934Y0094395D02*
X0020901Y0094395D01*
X0020901Y0095994D02*
X0053934Y0095994D01*
X0053934Y0097592D02*
X0020901Y0097592D01*
X0020901Y0099191D02*
X0053934Y0099191D01*
X0053934Y0100789D02*
X0020901Y0100789D01*
X0020901Y0102388D02*
X0053934Y0102388D01*
X0053934Y0103986D02*
X0020901Y0103986D01*
X0020901Y0105585D02*
X0053934Y0105585D01*
X0053934Y0107183D02*
X0020901Y0107183D01*
X0020901Y0108782D02*
X0053934Y0108782D01*
X0053934Y0110380D02*
X0020901Y0110380D01*
X0020901Y0111979D02*
X0053934Y0111979D01*
X0053934Y0113577D02*
X0020901Y0113577D01*
X0020901Y0115176D02*
X0053934Y0115176D01*
X0053934Y0116774D02*
X0020901Y0116774D01*
X0020901Y0118373D02*
X0053934Y0118373D01*
X0053934Y0119971D02*
X0020901Y0119971D01*
X0020901Y0121570D02*
X0053934Y0121570D01*
X0053934Y0123168D02*
X0020901Y0123168D01*
X0020901Y0124767D02*
X0053934Y0124767D01*
X0095099Y0083206D02*
X0134211Y0083206D01*
X0134211Y0081607D02*
X0093950Y0081607D01*
X0089779Y0080009D02*
X0106972Y0080009D01*
X0111919Y0080009D02*
X0112878Y0080009D01*
X0117824Y0080009D02*
X0134211Y0080009D01*
X0134211Y0078410D02*
X0118825Y0078410D01*
X0122596Y0076811D02*
X0134211Y0076811D01*
X0134211Y0075213D02*
X0123800Y0075213D01*
X0124069Y0073614D02*
X0134211Y0073614D01*
X0134211Y0072016D02*
X0123607Y0072016D01*
X0123830Y0070417D02*
X0134211Y0070417D01*
X0134211Y0068819D02*
X0124069Y0068819D01*
X0123578Y0067220D02*
X0134211Y0067220D01*
X0134211Y0065622D02*
X0121424Y0065622D01*
X0120817Y0064023D02*
X0134211Y0064023D01*
X0134211Y0062425D02*
X0121679Y0062425D01*
X0121665Y0060826D02*
X0134211Y0060826D01*
X0134211Y0059228D02*
X0120783Y0059228D01*
X0121328Y0047526D02*
X0120005Y0046978D01*
X0118992Y0045965D01*
X0118450Y0044657D01*
X0102690Y0044657D01*
X0102679Y0044668D01*
X0101920Y0045428D01*
X0100927Y0045839D01*
X0097589Y0045839D01*
X0097537Y0045965D01*
X0096524Y0046978D01*
X0095201Y0047526D01*
X0093769Y0047526D01*
X0092446Y0046978D01*
X0091433Y0045965D01*
X0090885Y0044642D01*
X0090885Y0043210D01*
X0091433Y0041887D01*
X0092446Y0040874D01*
X0093769Y0040326D01*
X0095201Y0040326D01*
X0095473Y0040439D01*
X0099272Y0040439D01*
X0100042Y0039669D01*
X0101034Y0039257D01*
X0120613Y0039257D01*
X0121605Y0039669D01*
X0122262Y0040326D01*
X0122760Y0040326D01*
X0124083Y0040874D01*
X0125096Y0041887D01*
X0125644Y0043210D01*
X0125644Y0044642D01*
X0125096Y0045965D01*
X0124083Y0046978D01*
X0122760Y0047526D01*
X0121328Y0047526D01*
X0119467Y0046440D02*
X0097062Y0046440D01*
X0091908Y0046440D02*
X0087825Y0046440D01*
X0089423Y0048038D02*
X0134211Y0048038D01*
X0134211Y0046440D02*
X0124621Y0046440D01*
X0125561Y0044841D02*
X0134211Y0044841D01*
X0134211Y0043243D02*
X0125644Y0043243D01*
X0124853Y0041644D02*
X0134211Y0041644D01*
X0134211Y0040046D02*
X0121982Y0040046D01*
X0121536Y0038452D02*
X0120111Y0038452D01*
X0118795Y0037907D01*
X0117788Y0036899D01*
X0117242Y0035583D01*
X0117242Y0034159D01*
X0117788Y0032842D01*
X0118795Y0031835D01*
X0120111Y0031290D01*
X0121536Y0031290D01*
X0122852Y0031835D01*
X0123859Y0032842D01*
X0124405Y0034159D01*
X0124405Y0035583D01*
X0123859Y0036899D01*
X0122852Y0037907D01*
X0121536Y0038452D01*
X0121547Y0038447D02*
X0134211Y0038447D01*
X0134211Y0036849D02*
X0123880Y0036849D01*
X0124405Y0035250D02*
X0134211Y0035250D01*
X0134211Y0033652D02*
X0124195Y0033652D01*
X0123070Y0032053D02*
X0134211Y0032053D01*
X0134211Y0030455D02*
X0098644Y0030455D01*
X0098872Y0031005D02*
X0098324Y0029682D01*
X0097312Y0028669D01*
X0095988Y0028121D01*
X0094556Y0028121D01*
X0094526Y0028134D01*
X0090507Y0028134D01*
X0090477Y0028121D01*
X0089044Y0028121D01*
X0087721Y0028669D01*
X0086709Y0029682D01*
X0086160Y0031005D01*
X0086160Y0032437D01*
X0086709Y0033760D01*
X0087721Y0034773D01*
X0089044Y0035321D01*
X0090477Y0035321D01*
X0091800Y0034773D01*
X0092516Y0034057D01*
X0093233Y0034773D01*
X0094486Y0035292D01*
X0094486Y0035583D01*
X0095032Y0036899D01*
X0096039Y0037907D01*
X0097355Y0038452D01*
X0098780Y0038452D01*
X0100096Y0037907D01*
X0101103Y0036899D01*
X0101649Y0035583D01*
X0101649Y0034159D01*
X0101103Y0032842D01*
X0100096Y0031835D01*
X0098872Y0031328D01*
X0098872Y0031005D01*
X0100314Y0032053D02*
X0103432Y0032053D01*
X0103666Y0031819D02*
X0104989Y0031271D01*
X0106421Y0031271D01*
X0107745Y0031819D01*
X0108068Y0032142D01*
X0108391Y0031819D01*
X0109714Y0031271D01*
X0111146Y0031271D01*
X0112469Y0031819D01*
X0113482Y0032832D01*
X0114030Y0034155D01*
X0114030Y0035587D01*
X0113482Y0036910D01*
X0112469Y0037923D01*
X0111146Y0038471D01*
X0109714Y0038471D01*
X0109442Y0038358D01*
X0106693Y0038358D01*
X0106421Y0038471D01*
X0104989Y0038471D01*
X0103666Y0037923D01*
X0102653Y0036910D01*
X0102105Y0035587D01*
X0102105Y0034155D01*
X0102653Y0032832D01*
X0103666Y0031819D01*
X0102314Y0033652D02*
X0101439Y0033652D01*
X0101649Y0035250D02*
X0102105Y0035250D01*
X0102628Y0036849D02*
X0101124Y0036849D01*
X0098791Y0038447D02*
X0104932Y0038447D01*
X0106479Y0038447D02*
X0109657Y0038447D01*
X0111203Y0038447D02*
X0120100Y0038447D01*
X0117767Y0036849D02*
X0113507Y0036849D01*
X0114030Y0035250D02*
X0117242Y0035250D01*
X0117452Y0033652D02*
X0113821Y0033652D01*
X0112703Y0032053D02*
X0118577Y0032053D01*
X0108156Y0032053D02*
X0107979Y0032053D01*
X0099665Y0040046D02*
X0084586Y0040046D01*
X0084586Y0041644D02*
X0091675Y0041644D01*
X0090885Y0043243D02*
X0084628Y0043243D01*
X0086226Y0044841D02*
X0090967Y0044841D01*
X0091022Y0049637D02*
X0134211Y0049637D01*
X0134211Y0051235D02*
X0092620Y0051235D01*
X0094219Y0052834D02*
X0134211Y0052834D01*
X0134211Y0054432D02*
X0095817Y0054432D01*
X0097416Y0056031D02*
X0134211Y0056031D01*
X0134211Y0057629D02*
X0099015Y0057629D01*
X0100613Y0059228D02*
X0105194Y0059228D01*
X0102506Y0044841D02*
X0118526Y0044841D01*
X0134211Y0028856D02*
X0097498Y0028856D01*
X0094385Y0035250D02*
X0090648Y0035250D01*
X0088873Y0035250D02*
X0084586Y0035250D01*
X0084586Y0033652D02*
X0086663Y0033652D01*
X0086160Y0032053D02*
X0084586Y0032053D01*
X0084586Y0030455D02*
X0086389Y0030455D01*
X0087534Y0028856D02*
X0084586Y0028856D01*
X0084586Y0027258D02*
X0134211Y0027258D01*
X0134211Y0025659D02*
X0084255Y0025659D01*
X0083416Y0024708D02*
X0083416Y0024708D01*
X0082769Y0024061D02*
X0134211Y0024061D01*
X0134211Y0022462D02*
X0081170Y0022462D01*
X0079975Y0020864D02*
X0134211Y0020864D01*
X0134211Y0019265D02*
X0079246Y0019265D01*
X0073503Y0019265D02*
X0020901Y0019265D01*
X0020901Y0017667D02*
X0134211Y0017667D01*
X0134211Y0016068D02*
X0020901Y0016068D01*
X0020901Y0014470D02*
X0134211Y0014470D01*
X0134211Y0012871D02*
X0020901Y0012871D01*
X0020901Y0020864D02*
X0072775Y0020864D01*
X0072883Y0022462D02*
X0042646Y0022462D01*
X0040024Y0022462D02*
X0020901Y0022462D01*
X0020901Y0024061D02*
X0032044Y0024061D01*
X0030445Y0025659D02*
X0020901Y0025659D01*
X0020901Y0027258D02*
X0028847Y0027258D01*
X0027905Y0028856D02*
X0020901Y0028856D01*
X0020901Y0030455D02*
X0027905Y0030455D01*
X0027905Y0032053D02*
X0020901Y0032053D01*
X0020901Y0033652D02*
X0027905Y0033652D01*
X0027467Y0035250D02*
X0020901Y0035250D01*
X0020901Y0036849D02*
X0027105Y0036849D01*
X0027475Y0038447D02*
X0020901Y0038447D01*
X0033505Y0032053D02*
X0051628Y0032053D01*
X0049544Y0030455D02*
X0033570Y0030455D01*
X0035168Y0028856D02*
X0039285Y0028856D01*
X0043386Y0028856D02*
X0048759Y0028856D01*
X0048844Y0027258D02*
X0044635Y0027258D01*
X0044935Y0025659D02*
X0049787Y0025659D01*
X0044505Y0024061D02*
X0072879Y0024061D01*
X0072775Y0025659D02*
X0054931Y0025659D01*
X0055874Y0027258D02*
X0073385Y0027258D01*
X0072775Y0028856D02*
X0056068Y0028856D01*
X0057667Y0030455D02*
X0057983Y0030455D01*
X0062483Y0030455D02*
X0072932Y0030455D01*
X0084586Y0036849D02*
X0095011Y0036849D01*
X0097344Y0038447D02*
X0084586Y0038447D01*
D16*
X0088186Y0043926D03*
X0094485Y0043926D03*
X0105115Y0045107D03*
X0105705Y0034871D03*
X0110430Y0034871D03*
X0109446Y0024241D03*
X0117320Y0024241D03*
X0121257Y0014005D03*
X0129131Y0014005D03*
X0113383Y0014005D03*
X0105509Y0014005D03*
X0097635Y0014005D03*
X0089760Y0014005D03*
X0081886Y0014005D03*
X0076375Y0021485D03*
X0076375Y0025028D03*
X0076375Y0029359D03*
X0076375Y0033296D03*
X0068107Y0041957D03*
X0060233Y0033296D03*
X0052359Y0028178D03*
X0049209Y0037627D03*
X0046060Y0037627D03*
X0042123Y0042351D03*
X0036217Y0036839D03*
X0030705Y0036839D03*
X0021650Y0025028D03*
X0024800Y0017942D03*
X0035036Y0017942D03*
X0041335Y0025816D03*
X0045666Y0017942D03*
X0055902Y0041564D03*
X0058264Y0053769D03*
X0058264Y0060855D03*
X0055902Y0064792D03*
X0052753Y0063611D03*
X0067713Y0062430D03*
X0067713Y0069517D03*
X0076768Y0061643D03*
X0079131Y0051800D03*
X0089760Y0031721D03*
X0095272Y0031721D03*
X0101572Y0024241D03*
X0122044Y0043926D03*
X0117713Y0048257D03*
X0125194Y0061249D03*
X0118107Y0061643D03*
X0120469Y0069123D03*
X0120469Y0073847D03*
X0115351Y0077391D03*
X0109446Y0077391D03*
X0103540Y0072666D03*
X0109052Y0069910D03*
X0109446Y0065186D03*
X0107871Y0061643D03*
X0126375Y0078572D03*
X0125587Y0087627D03*
X0123619Y0091564D03*
X0125981Y0093926D03*
X0097635Y0084083D03*
X0091729Y0084477D03*
X0082280Y0078572D03*
X0132280Y0044320D03*
X0025981Y0051800D03*
X0025981Y0061643D03*
D17*
X0052359Y0028965D02*
X0052359Y0028178D01*
X0052359Y0028965D02*
X0059052Y0035658D01*
X0072831Y0035658D01*
X0074012Y0036839D01*
X0074012Y0047076D01*
X0076768Y0049831D01*
X0076768Y0052587D01*
X0078343Y0054162D01*
X0083855Y0054162D01*
X0098028Y0068335D01*
X0100390Y0068335D01*
X0103540Y0071485D01*
X0103540Y0072666D01*
X0108264Y0072272D02*
X0114170Y0072272D01*
X0115351Y0073454D01*
X0115351Y0077391D01*
X0120469Y0073847D02*
X0120469Y0072272D01*
X0115745Y0067548D01*
X0108658Y0067548D01*
X0103146Y0062036D01*
X0099603Y0062036D01*
X0081886Y0044320D01*
X0081886Y0026997D01*
X0076375Y0021485D01*
X0076375Y0025028D02*
X0080312Y0028572D01*
X0080312Y0044713D01*
X0099209Y0063611D01*
X0102753Y0063611D01*
X0109052Y0069910D01*
X0108264Y0072272D02*
X0101178Y0065186D01*
X0098816Y0065186D01*
X0078737Y0045107D01*
X0078737Y0031721D01*
X0076375Y0029359D01*
X0076375Y0033296D02*
X0077162Y0034083D01*
X0077162Y0045501D01*
X0098422Y0066761D01*
X0100784Y0066761D01*
X0109446Y0075422D01*
X0109446Y0077391D01*
X0120469Y0069123D02*
X0116532Y0065186D01*
X0109446Y0065186D01*
X0107871Y0061643D02*
X0118107Y0061643D01*
X0122044Y0043926D02*
X0120075Y0041957D01*
X0101572Y0041957D01*
X0100390Y0043139D01*
X0095272Y0043139D01*
X0094485Y0043926D01*
X0105705Y0034871D02*
X0106493Y0035658D01*
X0109642Y0035658D01*
X0110430Y0034871D01*
X0079131Y0049831D02*
X0079131Y0051800D01*
X0079131Y0049831D02*
X0075587Y0046288D01*
X0075587Y0035658D01*
X0073225Y0033296D01*
X0060233Y0033296D01*
X0082280Y0078572D02*
X0070312Y0090540D01*
X0065351Y0090540D01*
X0067713Y0095501D02*
X0062595Y0095501D01*
X0060627Y0097469D01*
X0060627Y0115816D01*
X0065351Y0120540D01*
X0065351Y0110540D02*
X0070469Y0105422D01*
X0070469Y0098650D01*
X0078343Y0090776D01*
X0119682Y0090776D01*
X0122831Y0093926D01*
X0125981Y0093926D01*
X0123619Y0091564D02*
X0121257Y0089202D01*
X0077949Y0089202D01*
X0076690Y0089202D01*
X0065351Y0100540D01*
X0067713Y0095501D02*
X0075587Y0087627D01*
X0125587Y0087627D01*
X0091729Y0084477D02*
X0090312Y0083060D01*
X0085036Y0083060D01*
D18*
X0055902Y0064792D02*
X0055902Y0063217D01*
X0054327Y0061643D01*
X0054327Y0043532D01*
X0049209Y0038414D01*
X0049209Y0037627D01*
X0046060Y0037627D02*
X0052753Y0044320D01*
X0052753Y0063611D01*
X0030705Y0036839D02*
X0030705Y0029359D01*
X0034249Y0025816D01*
X0041335Y0025816D01*
X0089760Y0031721D02*
X0090548Y0030934D01*
X0094485Y0030934D01*
X0095272Y0031721D01*
X0094879Y0031328D01*
M02*
