%
M48
M72
T01C0.01200
T02C0.02362
T03C0.03500
%
T01
X24800Y17942
X21650Y25028
X30705Y36839
X36217Y36839
X42123Y42351
X46060Y37627
X49209Y37627
X55902Y41564
X60233Y33296
X52359Y28178
X41335Y25816
X45666Y17942
X35036Y17942
X25981Y51800
X25981Y61643
X52753Y63611
X55902Y64792
X58264Y60855
X58264Y53769
X67713Y62430
X67713Y69517
X76768Y61643
X79131Y51800
X88186Y43926
X94485Y43926
X95272Y31721
X89760Y31721
X101572Y24241
X109446Y24241
X117320Y24241
X121257Y14005
X129131Y14005
X113383Y14005
X105509Y14005
X97635Y14005
X89760Y14005
X81886Y14005
X76375Y21485
X76375Y25028
X76375Y29359
X76375Y33296
X68107Y41957
X103540Y72666
X109052Y69910
X109446Y65186
X107871Y61643
X118107Y61643
X125194Y61249
X120469Y69123
X120469Y73847
X115351Y77391
X109446Y77391
X97635Y84083
X91729Y84477
X82280Y78572
X105115Y45107
X105705Y34871
X110430Y34871
X122044Y43926
X117713Y48257
X132280Y44320
X126375Y78572
X125587Y87627
X123619Y91564
X125981Y93926
T02
X98068Y34871
X120823Y34871
T03
X65351Y80540
X65351Y90540
X65351Y100540
X65351Y110540
X65351Y120540
M30
