%
M48
M72
T01C0.01181
T02C0.02165
T03C0.02362
T04C0.03500
%
T01
X24800Y17942
X21650Y25028
X30705Y36839
X36217Y36839
X41335Y44320
X44879Y37627
X48028Y37233
X50784Y33690
X41335Y25816
X45666Y17942
X35036Y17942
X61414Y45501
X70075Y42351
X75981Y45501
X71257Y51800
X59446Y62824
X56296Y67154
X52753Y62824
X47241Y60855
X40154Y60855
X33855Y60855
X27162Y60855
X21257Y60855
X23619Y67154
X21257Y51800
X27162Y51800
X70469Y66367
X72831Y68729
X72831Y71879
X75587Y84083
X92910Y76209
X99209Y69517
X104721Y78178
X110627Y73454
X117713Y62430
X120863Y62430
X118501Y58099
X117713Y48257
X122044Y43926
X126375Y43926
X133461Y41170
X133461Y30540
X133461Y19123
X129131Y14005
X121257Y14005
X113383Y14005
X105509Y14005
X97635Y14005
X89760Y14005
X81886Y14005
X76375Y21485
X76375Y25028
X76375Y29359
X77162Y32509
X75587Y35658
X85823Y45107
X85430Y48257
X87792Y41170
X94485Y43926
X95272Y31328
X89760Y31328
X88973Y26997
X101572Y24241
X109446Y24241
X117320Y24241
X110430Y34871
X105705Y34871
X105115Y45107
X84642Y62430
X104721Y89595
X114957Y91564
X114957Y86839
X122438Y102587
X133461Y76603
X133461Y64792
X133461Y52981
X56690Y118729
X52753Y115973
X52753Y104556
X40154Y104556
X27162Y104556
X27162Y115973
X21650Y124635
T02
X92438Y36839
X92438Y20383
X126453Y36839
X126453Y20383
T03
X98068Y34871
X120823Y34871
T04
X128343Y71288
X128343Y81288
X128343Y91288
X128343Y101288
X128343Y111288
X128343Y121288
M30
