G75*
%MOIN*%
%OFA0B0*%
%FSLAX25Y25*%
%IPPOS*%
%LPD*%
%AMOC8*
5,1,8,0,0,1.08239X$1,22.5*
%
%ADD10C,0.00000*%
%ADD11R,0.06500X0.06500*%
%ADD12C,0.06500*%
%ADD13C,0.01600*%
%ADD14C,0.02381*%
%ADD15C,0.00800*%
D10*
X0018501Y0009674D02*
X0018501Y0127784D01*
X0136611Y0127784D01*
X0136611Y0009674D01*
X0018501Y0009674D01*
X0096887Y0034871D02*
X0096889Y0034940D01*
X0096895Y0035008D01*
X0096905Y0035076D01*
X0096919Y0035143D01*
X0096937Y0035210D01*
X0096958Y0035275D01*
X0096984Y0035339D01*
X0097013Y0035401D01*
X0097045Y0035461D01*
X0097081Y0035520D01*
X0097121Y0035576D01*
X0097163Y0035630D01*
X0097209Y0035681D01*
X0097258Y0035730D01*
X0097309Y0035776D01*
X0097363Y0035818D01*
X0097419Y0035858D01*
X0097477Y0035894D01*
X0097538Y0035926D01*
X0097600Y0035955D01*
X0097664Y0035981D01*
X0097729Y0036002D01*
X0097796Y0036020D01*
X0097863Y0036034D01*
X0097931Y0036044D01*
X0097999Y0036050D01*
X0098068Y0036052D01*
X0098137Y0036050D01*
X0098205Y0036044D01*
X0098273Y0036034D01*
X0098340Y0036020D01*
X0098407Y0036002D01*
X0098472Y0035981D01*
X0098536Y0035955D01*
X0098598Y0035926D01*
X0098658Y0035894D01*
X0098717Y0035858D01*
X0098773Y0035818D01*
X0098827Y0035776D01*
X0098878Y0035730D01*
X0098927Y0035681D01*
X0098973Y0035630D01*
X0099015Y0035576D01*
X0099055Y0035520D01*
X0099091Y0035461D01*
X0099123Y0035401D01*
X0099152Y0035339D01*
X0099178Y0035275D01*
X0099199Y0035210D01*
X0099217Y0035143D01*
X0099231Y0035076D01*
X0099241Y0035008D01*
X0099247Y0034940D01*
X0099249Y0034871D01*
X0099247Y0034802D01*
X0099241Y0034734D01*
X0099231Y0034666D01*
X0099217Y0034599D01*
X0099199Y0034532D01*
X0099178Y0034467D01*
X0099152Y0034403D01*
X0099123Y0034341D01*
X0099091Y0034280D01*
X0099055Y0034222D01*
X0099015Y0034166D01*
X0098973Y0034112D01*
X0098927Y0034061D01*
X0098878Y0034012D01*
X0098827Y0033966D01*
X0098773Y0033924D01*
X0098717Y0033884D01*
X0098659Y0033848D01*
X0098598Y0033816D01*
X0098536Y0033787D01*
X0098472Y0033761D01*
X0098407Y0033740D01*
X0098340Y0033722D01*
X0098273Y0033708D01*
X0098205Y0033698D01*
X0098137Y0033692D01*
X0098068Y0033690D01*
X0097999Y0033692D01*
X0097931Y0033698D01*
X0097863Y0033708D01*
X0097796Y0033722D01*
X0097729Y0033740D01*
X0097664Y0033761D01*
X0097600Y0033787D01*
X0097538Y0033816D01*
X0097477Y0033848D01*
X0097419Y0033884D01*
X0097363Y0033924D01*
X0097309Y0033966D01*
X0097258Y0034012D01*
X0097209Y0034061D01*
X0097163Y0034112D01*
X0097121Y0034166D01*
X0097081Y0034222D01*
X0097045Y0034280D01*
X0097013Y0034341D01*
X0096984Y0034403D01*
X0096958Y0034467D01*
X0096937Y0034532D01*
X0096919Y0034599D01*
X0096905Y0034666D01*
X0096895Y0034734D01*
X0096889Y0034802D01*
X0096887Y0034871D01*
X0119642Y0034871D02*
X0119644Y0034940D01*
X0119650Y0035008D01*
X0119660Y0035076D01*
X0119674Y0035143D01*
X0119692Y0035210D01*
X0119713Y0035275D01*
X0119739Y0035339D01*
X0119768Y0035401D01*
X0119800Y0035461D01*
X0119836Y0035520D01*
X0119876Y0035576D01*
X0119918Y0035630D01*
X0119964Y0035681D01*
X0120013Y0035730D01*
X0120064Y0035776D01*
X0120118Y0035818D01*
X0120174Y0035858D01*
X0120232Y0035894D01*
X0120293Y0035926D01*
X0120355Y0035955D01*
X0120419Y0035981D01*
X0120484Y0036002D01*
X0120551Y0036020D01*
X0120618Y0036034D01*
X0120686Y0036044D01*
X0120754Y0036050D01*
X0120823Y0036052D01*
X0120892Y0036050D01*
X0120960Y0036044D01*
X0121028Y0036034D01*
X0121095Y0036020D01*
X0121162Y0036002D01*
X0121227Y0035981D01*
X0121291Y0035955D01*
X0121353Y0035926D01*
X0121413Y0035894D01*
X0121472Y0035858D01*
X0121528Y0035818D01*
X0121582Y0035776D01*
X0121633Y0035730D01*
X0121682Y0035681D01*
X0121728Y0035630D01*
X0121770Y0035576D01*
X0121810Y0035520D01*
X0121846Y0035461D01*
X0121878Y0035401D01*
X0121907Y0035339D01*
X0121933Y0035275D01*
X0121954Y0035210D01*
X0121972Y0035143D01*
X0121986Y0035076D01*
X0121996Y0035008D01*
X0122002Y0034940D01*
X0122004Y0034871D01*
X0122002Y0034802D01*
X0121996Y0034734D01*
X0121986Y0034666D01*
X0121972Y0034599D01*
X0121954Y0034532D01*
X0121933Y0034467D01*
X0121907Y0034403D01*
X0121878Y0034341D01*
X0121846Y0034280D01*
X0121810Y0034222D01*
X0121770Y0034166D01*
X0121728Y0034112D01*
X0121682Y0034061D01*
X0121633Y0034012D01*
X0121582Y0033966D01*
X0121528Y0033924D01*
X0121472Y0033884D01*
X0121414Y0033848D01*
X0121353Y0033816D01*
X0121291Y0033787D01*
X0121227Y0033761D01*
X0121162Y0033740D01*
X0121095Y0033722D01*
X0121028Y0033708D01*
X0120960Y0033698D01*
X0120892Y0033692D01*
X0120823Y0033690D01*
X0120754Y0033692D01*
X0120686Y0033698D01*
X0120618Y0033708D01*
X0120551Y0033722D01*
X0120484Y0033740D01*
X0120419Y0033761D01*
X0120355Y0033787D01*
X0120293Y0033816D01*
X0120232Y0033848D01*
X0120174Y0033884D01*
X0120118Y0033924D01*
X0120064Y0033966D01*
X0120013Y0034012D01*
X0119964Y0034061D01*
X0119918Y0034112D01*
X0119876Y0034166D01*
X0119836Y0034222D01*
X0119800Y0034280D01*
X0119768Y0034341D01*
X0119739Y0034403D01*
X0119713Y0034467D01*
X0119692Y0034532D01*
X0119674Y0034599D01*
X0119660Y0034666D01*
X0119650Y0034734D01*
X0119644Y0034802D01*
X0119642Y0034871D01*
D11*
X0128343Y0071288D03*
D12*
X0128343Y0081288D03*
X0128343Y0091288D03*
X0128343Y0101288D03*
X0128343Y0111288D03*
X0128343Y0121288D03*
D13*
X0123549Y0084477D02*
X0117673Y0084477D01*
X0116991Y0083795D01*
X0115672Y0083249D01*
X0114243Y0083249D01*
X0112923Y0083795D01*
X0112242Y0084477D01*
X0110503Y0084477D01*
X0110396Y0084433D01*
X0065975Y0084433D01*
X0065869Y0084477D01*
X0053934Y0084477D01*
X0053934Y0096412D01*
X0053890Y0096519D01*
X0053890Y0116451D01*
X0053646Y0116695D01*
X0053099Y0118015D01*
X0053099Y0119443D01*
X0053646Y0120763D01*
X0053934Y0121051D01*
X0053934Y0125384D01*
X0020901Y0125384D01*
X0020901Y0012074D01*
X0134211Y0012074D01*
X0134211Y0084477D01*
X0133138Y0084477D01*
X0133993Y0082412D01*
X0133993Y0080164D01*
X0133133Y0078088D01*
X0131544Y0076498D01*
X0131157Y0076338D01*
X0131830Y0076338D01*
X0132288Y0076216D01*
X0132698Y0075979D01*
X0133034Y0075643D01*
X0133270Y0075233D01*
X0133393Y0074775D01*
X0133393Y0071363D01*
X0128418Y0071363D01*
X0128418Y0071213D01*
X0128418Y0066238D01*
X0131830Y0066238D01*
X0132288Y0066361D01*
X0132698Y0066598D01*
X0133034Y0066933D01*
X0133270Y0067343D01*
X0133393Y0067801D01*
X0133393Y0071213D01*
X0128418Y0071213D01*
X0128268Y0071213D01*
X0128268Y0066238D01*
X0124856Y0066238D01*
X0124398Y0066361D01*
X0123988Y0066598D01*
X0123653Y0066933D01*
X0123416Y0067343D01*
X0123293Y0067801D01*
X0123293Y0071213D01*
X0128268Y0071213D01*
X0128268Y0071363D01*
X0123293Y0071363D01*
X0123293Y0074775D01*
X0123416Y0075233D01*
X0123653Y0075643D01*
X0123988Y0075979D01*
X0124398Y0076216D01*
X0124856Y0076338D01*
X0125529Y0076338D01*
X0125143Y0076498D01*
X0123553Y0078088D01*
X0122693Y0080164D01*
X0122693Y0082412D01*
X0123549Y0084477D01*
X0123022Y0083206D02*
X0020901Y0083206D01*
X0020901Y0084804D02*
X0053934Y0084804D01*
X0053934Y0086403D02*
X0020901Y0086403D01*
X0020901Y0088001D02*
X0053934Y0088001D01*
X0053934Y0089600D02*
X0020901Y0089600D01*
X0020901Y0091198D02*
X0053934Y0091198D01*
X0053934Y0092797D02*
X0020901Y0092797D01*
X0020901Y0094395D02*
X0053934Y0094395D01*
X0053934Y0095994D02*
X0020901Y0095994D01*
X0020901Y0097592D02*
X0053890Y0097592D01*
X0053890Y0099191D02*
X0020901Y0099191D01*
X0020901Y0100789D02*
X0053890Y0100789D01*
X0053890Y0102388D02*
X0020901Y0102388D01*
X0020901Y0103986D02*
X0053890Y0103986D01*
X0053890Y0105585D02*
X0020901Y0105585D01*
X0020901Y0107183D02*
X0053890Y0107183D01*
X0053890Y0108782D02*
X0020901Y0108782D01*
X0020901Y0110380D02*
X0053890Y0110380D01*
X0053890Y0111979D02*
X0020901Y0111979D01*
X0020901Y0113577D02*
X0053890Y0113577D01*
X0053890Y0115176D02*
X0020901Y0115176D01*
X0020901Y0116774D02*
X0053613Y0116774D01*
X0053099Y0118373D02*
X0020901Y0118373D01*
X0020901Y0119971D02*
X0053318Y0119971D01*
X0053934Y0121570D02*
X0020901Y0121570D01*
X0020901Y0123168D02*
X0053934Y0123168D01*
X0053934Y0124767D02*
X0020901Y0124767D01*
X0020901Y0081607D02*
X0103617Y0081607D01*
X0104007Y0081768D02*
X0102687Y0081222D01*
X0101677Y0080212D01*
X0101131Y0078892D01*
X0101131Y0078547D01*
X0097755Y0075171D01*
X0097646Y0075433D01*
X0096858Y0076221D01*
X0096501Y0076579D01*
X0096501Y0076924D01*
X0095954Y0078243D01*
X0094944Y0079253D01*
X0093624Y0079800D01*
X0092196Y0079800D01*
X0090876Y0079253D01*
X0089866Y0078243D01*
X0089320Y0076924D01*
X0089320Y0075495D01*
X0089866Y0074176D01*
X0090876Y0073166D01*
X0092196Y0072619D01*
X0092472Y0072619D01*
X0092472Y0068708D01*
X0082301Y0058537D01*
X0081723Y0058537D01*
X0080694Y0058111D01*
X0079906Y0057323D01*
X0075969Y0053386D01*
X0075543Y0052357D01*
X0075543Y0036031D01*
X0074788Y0035276D01*
X0074744Y0035168D01*
X0074118Y0034543D01*
X0073572Y0033223D01*
X0073572Y0031794D01*
X0073619Y0031681D01*
X0073331Y0031393D01*
X0072784Y0030073D01*
X0072784Y0028645D01*
X0073331Y0027325D01*
X0073462Y0027194D01*
X0073331Y0027062D01*
X0072784Y0025743D01*
X0072784Y0024314D01*
X0073222Y0023257D01*
X0072784Y0022199D01*
X0072784Y0020771D01*
X0073331Y0019451D01*
X0074341Y0018441D01*
X0075660Y0017894D01*
X0077089Y0017894D01*
X0078409Y0018441D01*
X0079419Y0019451D01*
X0079965Y0020771D01*
X0079965Y0021116D01*
X0084654Y0025804D01*
X0085441Y0026592D01*
X0085868Y0027621D01*
X0085868Y0041517D01*
X0086538Y0041517D01*
X0087857Y0042063D01*
X0088867Y0043073D01*
X0089414Y0044393D01*
X0089414Y0044738D01*
X0090166Y0045490D01*
X0090592Y0046519D01*
X0090592Y0047097D01*
X0100008Y0056513D01*
X0101189Y0057694D01*
X0103125Y0059630D01*
X0115435Y0059630D01*
X0115679Y0059386D01*
X0116999Y0058839D01*
X0118427Y0058839D01*
X0119288Y0059196D01*
X0120149Y0058839D01*
X0121577Y0058839D01*
X0122897Y0059386D01*
X0123907Y0060396D01*
X0124453Y0061716D01*
X0124453Y0063144D01*
X0123907Y0064464D01*
X0123560Y0064811D01*
X0123237Y0065591D01*
X0121662Y0067166D01*
X0120632Y0067592D01*
X0115975Y0067592D01*
X0114946Y0067166D01*
X0114585Y0066805D01*
X0113023Y0066805D01*
X0113427Y0067778D01*
X0113427Y0071176D01*
X0113671Y0071420D01*
X0114217Y0072739D01*
X0114217Y0074168D01*
X0113671Y0075487D01*
X0112661Y0076497D01*
X0111341Y0077044D01*
X0109912Y0077044D01*
X0108593Y0076497D01*
X0107583Y0075487D01*
X0107036Y0074168D01*
X0107036Y0072739D01*
X0107583Y0071420D01*
X0107827Y0071176D01*
X0107827Y0069495D01*
X0107105Y0068773D01*
X0102788Y0068773D01*
X0102800Y0068802D01*
X0102800Y0070231D01*
X0102253Y0071550D01*
X0102153Y0071650D01*
X0105090Y0074587D01*
X0105435Y0074587D01*
X0106755Y0075134D01*
X0107765Y0076144D01*
X0108312Y0077464D01*
X0108312Y0078892D01*
X0107765Y0080212D01*
X0106755Y0081222D01*
X0105435Y0081768D01*
X0104007Y0081768D01*
X0105825Y0081607D02*
X0122693Y0081607D01*
X0122758Y0080009D02*
X0107849Y0080009D01*
X0108312Y0078410D02*
X0123420Y0078410D01*
X0124830Y0076811D02*
X0111902Y0076811D01*
X0109351Y0076811D02*
X0108041Y0076811D01*
X0107469Y0075213D02*
X0106834Y0075213D01*
X0107036Y0073614D02*
X0104117Y0073614D01*
X0102519Y0072016D02*
X0107336Y0072016D01*
X0107827Y0070417D02*
X0102723Y0070417D01*
X0102800Y0068819D02*
X0107150Y0068819D01*
X0113195Y0067220D02*
X0115078Y0067220D01*
X0113427Y0068819D02*
X0123293Y0068819D01*
X0123293Y0070417D02*
X0113427Y0070417D01*
X0113918Y0072016D02*
X0123293Y0072016D01*
X0123293Y0073614D02*
X0114217Y0073614D01*
X0113784Y0075213D02*
X0123410Y0075213D01*
X0128268Y0070417D02*
X0128418Y0070417D01*
X0128418Y0068819D02*
X0128268Y0068819D01*
X0128268Y0067220D02*
X0128418Y0067220D01*
X0133199Y0067220D02*
X0134211Y0067220D01*
X0134211Y0065622D02*
X0123205Y0065622D01*
X0123487Y0067220D02*
X0121530Y0067220D01*
X0124089Y0064023D02*
X0134211Y0064023D01*
X0134211Y0062425D02*
X0124453Y0062425D01*
X0124085Y0060826D02*
X0134211Y0060826D01*
X0134211Y0059228D02*
X0122515Y0059228D01*
X0116061Y0059228D02*
X0102723Y0059228D01*
X0101124Y0057629D02*
X0134211Y0057629D01*
X0134211Y0056031D02*
X0099526Y0056031D01*
X0097927Y0054432D02*
X0134211Y0054432D01*
X0134211Y0052834D02*
X0096329Y0052834D01*
X0094730Y0051235D02*
X0134211Y0051235D01*
X0134211Y0049637D02*
X0093132Y0049637D01*
X0093771Y0047517D02*
X0092451Y0046970D01*
X0091441Y0045960D01*
X0090894Y0044640D01*
X0090894Y0043212D01*
X0091441Y0041892D01*
X0092451Y0040882D01*
X0093771Y0040335D01*
X0095199Y0040335D01*
X0095207Y0040339D01*
X0099231Y0040339D01*
X0099985Y0039584D01*
X0101015Y0039157D01*
X0120632Y0039157D01*
X0121662Y0039584D01*
X0122413Y0040335D01*
X0122758Y0040335D01*
X0124078Y0040882D01*
X0125088Y0041892D01*
X0125634Y0043212D01*
X0125634Y0044640D01*
X0125088Y0045960D01*
X0124078Y0046970D01*
X0122758Y0047517D01*
X0121330Y0047517D01*
X0120010Y0046970D01*
X0119000Y0045960D01*
X0118502Y0044757D01*
X0102731Y0044757D01*
X0101976Y0045512D01*
X0100947Y0045939D01*
X0097538Y0045939D01*
X0097529Y0045960D01*
X0096519Y0046970D01*
X0095199Y0047517D01*
X0093771Y0047517D01*
X0091921Y0046440D02*
X0090559Y0046440D01*
X0090978Y0044841D02*
X0089517Y0044841D01*
X0088938Y0043243D02*
X0090894Y0043243D01*
X0091689Y0041644D02*
X0086846Y0041644D01*
X0085868Y0040046D02*
X0099523Y0040046D01*
X0098791Y0038447D02*
X0104957Y0038447D01*
X0104991Y0038461D02*
X0103671Y0037915D01*
X0102661Y0036905D01*
X0102115Y0035585D01*
X0102115Y0034157D01*
X0102661Y0032837D01*
X0103671Y0031827D01*
X0104991Y0031280D01*
X0106420Y0031280D01*
X0107739Y0031827D01*
X0108068Y0032155D01*
X0108396Y0031827D01*
X0109716Y0031280D01*
X0111144Y0031280D01*
X0112464Y0031827D01*
X0113474Y0032837D01*
X0114020Y0034157D01*
X0114020Y0035585D01*
X0113474Y0036905D01*
X0112464Y0037915D01*
X0111144Y0038461D01*
X0109716Y0038461D01*
X0109708Y0038458D01*
X0106427Y0038458D01*
X0106420Y0038461D01*
X0104991Y0038461D01*
X0102638Y0036849D02*
X0101124Y0036849D01*
X0101103Y0036899D02*
X0100096Y0037907D01*
X0098780Y0038452D01*
X0097355Y0038452D01*
X0096039Y0037907D01*
X0095032Y0036899D01*
X0094486Y0035583D01*
X0094486Y0035282D01*
X0093238Y0034765D01*
X0092516Y0034043D01*
X0091794Y0034765D01*
X0090475Y0035312D01*
X0089046Y0035312D01*
X0087727Y0034765D01*
X0086717Y0033755D01*
X0086170Y0032435D01*
X0086170Y0031007D01*
X0086717Y0029687D01*
X0087727Y0028677D01*
X0089046Y0028131D01*
X0090475Y0028131D01*
X0090482Y0028134D01*
X0094551Y0028134D01*
X0094558Y0028131D01*
X0095987Y0028131D01*
X0097306Y0028677D01*
X0098316Y0029687D01*
X0098863Y0031007D01*
X0098863Y0031324D01*
X0100096Y0031835D01*
X0101103Y0032842D01*
X0101649Y0034159D01*
X0101649Y0035583D01*
X0101103Y0036899D01*
X0101649Y0035250D02*
X0102115Y0035250D01*
X0102324Y0033652D02*
X0101439Y0033652D01*
X0100314Y0032053D02*
X0103445Y0032053D01*
X0107965Y0032053D02*
X0108170Y0032053D01*
X0112690Y0032053D02*
X0118577Y0032053D01*
X0118795Y0031835D02*
X0120111Y0031290D01*
X0121536Y0031290D01*
X0122852Y0031835D01*
X0123859Y0032842D01*
X0124405Y0034159D01*
X0124405Y0035583D01*
X0123859Y0036899D01*
X0122852Y0037907D01*
X0121536Y0038452D01*
X0120111Y0038452D01*
X0118795Y0037907D01*
X0117788Y0036899D01*
X0117242Y0035583D01*
X0117242Y0034159D01*
X0117788Y0032842D01*
X0118795Y0031835D01*
X0117452Y0033652D02*
X0113811Y0033652D01*
X0114020Y0035250D02*
X0117242Y0035250D01*
X0117767Y0036849D02*
X0113497Y0036849D01*
X0111178Y0038447D02*
X0120100Y0038447D01*
X0121547Y0038447D02*
X0134211Y0038447D01*
X0134211Y0036849D02*
X0123880Y0036849D01*
X0124405Y0035250D02*
X0134211Y0035250D01*
X0134211Y0033652D02*
X0124195Y0033652D01*
X0123070Y0032053D02*
X0134211Y0032053D01*
X0134211Y0030455D02*
X0098634Y0030455D01*
X0097485Y0028856D02*
X0134211Y0028856D01*
X0134211Y0027258D02*
X0085717Y0027258D01*
X0085868Y0028856D02*
X0087548Y0028856D01*
X0086399Y0030455D02*
X0085868Y0030455D01*
X0085868Y0032053D02*
X0086170Y0032053D01*
X0085868Y0033652D02*
X0086674Y0033652D01*
X0085868Y0035250D02*
X0088898Y0035250D01*
X0090623Y0035250D02*
X0094409Y0035250D01*
X0095011Y0036849D02*
X0085868Y0036849D01*
X0085868Y0038447D02*
X0097344Y0038447D01*
X0102648Y0044841D02*
X0118537Y0044841D01*
X0119480Y0046440D02*
X0097049Y0046440D01*
X0091533Y0048038D02*
X0134211Y0048038D01*
X0134211Y0046440D02*
X0124608Y0046440D01*
X0125551Y0044841D02*
X0134211Y0044841D01*
X0134211Y0043243D02*
X0125634Y0043243D01*
X0124840Y0041644D02*
X0134211Y0041644D01*
X0134211Y0040046D02*
X0122123Y0040046D01*
X0134211Y0025659D02*
X0084509Y0025659D01*
X0082910Y0024061D02*
X0134211Y0024061D01*
X0134211Y0022462D02*
X0081312Y0022462D01*
X0079965Y0020864D02*
X0134211Y0020864D01*
X0134211Y0019265D02*
X0079233Y0019265D01*
X0073517Y0019265D02*
X0020901Y0019265D01*
X0020901Y0017667D02*
X0134211Y0017667D01*
X0134211Y0016068D02*
X0020901Y0016068D01*
X0020901Y0014470D02*
X0134211Y0014470D01*
X0134211Y0012871D02*
X0020901Y0012871D01*
X0020901Y0020864D02*
X0072784Y0020864D01*
X0072893Y0022462D02*
X0042621Y0022462D01*
X0042049Y0022225D02*
X0043369Y0022772D01*
X0044379Y0023782D01*
X0044926Y0025102D01*
X0044926Y0026530D01*
X0044379Y0027850D01*
X0043369Y0028860D01*
X0042049Y0029406D01*
X0040621Y0029406D01*
X0039301Y0028860D01*
X0039057Y0028616D01*
X0035408Y0028616D01*
X0033505Y0030519D01*
X0033505Y0034562D01*
X0033749Y0034805D01*
X0034296Y0036125D01*
X0034296Y0037554D01*
X0033749Y0038873D01*
X0032739Y0039883D01*
X0031420Y0040430D01*
X0029991Y0040430D01*
X0028671Y0039883D01*
X0027661Y0038873D01*
X0027115Y0037554D01*
X0027115Y0036125D01*
X0027661Y0034805D01*
X0027905Y0034562D01*
X0027905Y0028802D01*
X0028332Y0027773D01*
X0029119Y0026985D01*
X0032663Y0023442D01*
X0033692Y0023016D01*
X0039057Y0023016D01*
X0039301Y0022772D01*
X0040621Y0022225D01*
X0042049Y0022225D01*
X0040049Y0022462D02*
X0020901Y0022462D01*
X0020901Y0024061D02*
X0032044Y0024061D01*
X0030445Y0025659D02*
X0020901Y0025659D01*
X0020901Y0027258D02*
X0028847Y0027258D01*
X0027905Y0028856D02*
X0020901Y0028856D01*
X0020901Y0030455D02*
X0027905Y0030455D01*
X0027905Y0032053D02*
X0020901Y0032053D01*
X0020901Y0033652D02*
X0027905Y0033652D01*
X0027477Y0035250D02*
X0020901Y0035250D01*
X0020901Y0036849D02*
X0027115Y0036849D01*
X0027485Y0038447D02*
X0020901Y0038447D01*
X0020901Y0040046D02*
X0029064Y0040046D01*
X0032347Y0040046D02*
X0042220Y0040046D01*
X0041835Y0039661D02*
X0041288Y0038341D01*
X0041288Y0036913D01*
X0041835Y0035593D01*
X0042845Y0034583D01*
X0044164Y0034036D01*
X0045593Y0034036D01*
X0045985Y0034199D01*
X0045994Y0034189D01*
X0047194Y0033692D01*
X0047194Y0032976D01*
X0047740Y0031656D01*
X0048750Y0030646D01*
X0050070Y0030099D01*
X0051498Y0030099D01*
X0052818Y0030646D01*
X0053828Y0031656D01*
X0054375Y0032976D01*
X0054375Y0034404D01*
X0053828Y0035724D01*
X0053584Y0035968D01*
X0053584Y0038435D01*
X0074417Y0059269D01*
X0075205Y0060056D01*
X0075631Y0061086D01*
X0075631Y0066451D01*
X0075875Y0066695D01*
X0076422Y0068015D01*
X0076422Y0069443D01*
X0076065Y0070304D01*
X0076422Y0071165D01*
X0076422Y0072593D01*
X0075875Y0073913D01*
X0074865Y0074923D01*
X0073546Y0075469D01*
X0072117Y0075469D01*
X0070797Y0074923D01*
X0069787Y0073913D01*
X0069241Y0072593D01*
X0069241Y0072248D01*
X0066521Y0069528D01*
X0065733Y0068740D01*
X0065307Y0067711D01*
X0065307Y0062802D01*
X0043409Y0040904D01*
X0042845Y0040671D01*
X0041835Y0039661D01*
X0041332Y0038447D02*
X0033926Y0038447D01*
X0034296Y0036849D02*
X0041314Y0036849D01*
X0042177Y0035250D02*
X0033933Y0035250D01*
X0033505Y0033652D02*
X0047194Y0033652D01*
X0047576Y0032053D02*
X0033505Y0032053D01*
X0033570Y0030455D02*
X0049212Y0030455D01*
X0052356Y0030455D02*
X0072942Y0030455D01*
X0072784Y0028856D02*
X0043373Y0028856D01*
X0044624Y0027258D02*
X0073398Y0027258D01*
X0072784Y0025659D02*
X0044926Y0025659D01*
X0044495Y0024061D02*
X0072889Y0024061D01*
X0073572Y0032053D02*
X0053993Y0032053D01*
X0054375Y0033652D02*
X0073749Y0033652D01*
X0074778Y0035250D02*
X0054024Y0035250D01*
X0053584Y0036849D02*
X0075543Y0036849D01*
X0075543Y0038447D02*
X0053596Y0038447D01*
X0055194Y0040046D02*
X0075543Y0040046D01*
X0075543Y0041644D02*
X0056793Y0041644D01*
X0058391Y0043243D02*
X0075543Y0043243D01*
X0075543Y0044841D02*
X0059990Y0044841D01*
X0061588Y0046440D02*
X0075543Y0046440D01*
X0075543Y0048038D02*
X0063187Y0048038D01*
X0064785Y0049637D02*
X0075543Y0049637D01*
X0075543Y0051235D02*
X0066384Y0051235D01*
X0067982Y0052834D02*
X0075741Y0052834D01*
X0077016Y0054432D02*
X0069581Y0054432D01*
X0071179Y0056031D02*
X0078614Y0056031D01*
X0080213Y0057629D02*
X0072778Y0057629D01*
X0074377Y0059228D02*
X0082992Y0059228D01*
X0084591Y0060826D02*
X0075524Y0060826D01*
X0075631Y0062425D02*
X0086189Y0062425D01*
X0087788Y0064023D02*
X0075631Y0064023D01*
X0075631Y0065622D02*
X0089386Y0065622D01*
X0090985Y0067220D02*
X0076093Y0067220D01*
X0076422Y0068819D02*
X0092472Y0068819D01*
X0092472Y0070417D02*
X0076112Y0070417D01*
X0076422Y0072016D02*
X0092472Y0072016D01*
X0090427Y0073614D02*
X0075999Y0073614D01*
X0074164Y0075213D02*
X0089436Y0075213D01*
X0089320Y0076811D02*
X0020901Y0076811D01*
X0020901Y0075213D02*
X0071498Y0075213D01*
X0069664Y0073614D02*
X0020901Y0073614D01*
X0020901Y0072016D02*
X0069009Y0072016D01*
X0067410Y0070417D02*
X0020901Y0070417D01*
X0020901Y0068819D02*
X0065812Y0068819D01*
X0065307Y0067220D02*
X0020901Y0067220D01*
X0020901Y0065622D02*
X0065307Y0065622D01*
X0065307Y0064023D02*
X0020901Y0064023D01*
X0020901Y0062425D02*
X0064930Y0062425D01*
X0063331Y0060826D02*
X0020901Y0060826D01*
X0020901Y0059228D02*
X0061733Y0059228D01*
X0060134Y0057629D02*
X0020901Y0057629D01*
X0020901Y0056031D02*
X0058535Y0056031D01*
X0056937Y0054432D02*
X0020901Y0054432D01*
X0020901Y0052834D02*
X0055338Y0052834D01*
X0053740Y0051235D02*
X0020901Y0051235D01*
X0020901Y0049637D02*
X0052141Y0049637D01*
X0050543Y0048038D02*
X0020901Y0048038D01*
X0020901Y0046440D02*
X0048944Y0046440D01*
X0047346Y0044841D02*
X0020901Y0044841D01*
X0020901Y0043243D02*
X0045747Y0043243D01*
X0044149Y0041644D02*
X0020901Y0041644D01*
X0035168Y0028856D02*
X0039298Y0028856D01*
X0020901Y0078410D02*
X0090033Y0078410D01*
X0095787Y0078410D02*
X0100993Y0078410D01*
X0101593Y0080009D02*
X0020901Y0080009D01*
X0096501Y0076811D02*
X0099395Y0076811D01*
X0097796Y0075213D02*
X0097737Y0075213D01*
X0096858Y0076221D02*
X0096858Y0076221D01*
X0131857Y0076811D02*
X0134211Y0076811D01*
X0134211Y0075213D02*
X0133276Y0075213D01*
X0133393Y0073614D02*
X0134211Y0073614D01*
X0134211Y0072016D02*
X0133393Y0072016D01*
X0133393Y0070417D02*
X0134211Y0070417D01*
X0134211Y0068819D02*
X0133393Y0068819D01*
X0133266Y0078410D02*
X0134211Y0078410D01*
X0134211Y0080009D02*
X0133929Y0080009D01*
X0133993Y0081607D02*
X0134211Y0081607D01*
X0134211Y0083206D02*
X0133664Y0083206D01*
D14*
X0133461Y0076603D03*
X0133461Y0064792D03*
X0133461Y0052981D03*
X0126375Y0043926D03*
X0122044Y0043926D03*
X0117713Y0048257D03*
X0118501Y0058099D03*
X0117713Y0062430D03*
X0120863Y0062430D03*
X0110627Y0073454D03*
X0104721Y0078178D03*
X0099209Y0069517D03*
X0092910Y0076209D03*
X0104721Y0089595D03*
X0114957Y0091564D03*
X0114957Y0086839D03*
X0122438Y0102587D03*
X0084642Y0062430D03*
X0072831Y0068729D03*
X0070469Y0066367D03*
X0072831Y0071879D03*
X0075587Y0084083D03*
X0061020Y0064398D03*
X0056296Y0067154D03*
X0053146Y0060855D03*
X0053146Y0051800D03*
X0045666Y0045107D03*
X0044879Y0037627D03*
X0048028Y0037233D03*
X0050784Y0033690D03*
X0056296Y0040776D03*
X0067713Y0040383D03*
X0077162Y0032509D03*
X0076375Y0029359D03*
X0076375Y0025028D03*
X0076375Y0021485D03*
X0081886Y0014005D03*
X0089760Y0014005D03*
X0097635Y0014005D03*
X0105509Y0014005D03*
X0113383Y0014005D03*
X0121257Y0014005D03*
X0129131Y0014005D03*
X0133461Y0019123D03*
X0133461Y0030540D03*
X0133461Y0041170D03*
X0117320Y0024241D03*
X0109446Y0024241D03*
X0101572Y0024241D03*
X0095272Y0031721D03*
X0089760Y0031721D03*
X0088973Y0026997D03*
X0087792Y0041170D03*
X0085823Y0045107D03*
X0085430Y0048257D03*
X0094485Y0043926D03*
X0105115Y0045107D03*
X0105705Y0034871D03*
X0110430Y0034871D03*
X0071257Y0051800D03*
X0041335Y0025816D03*
X0045666Y0017942D03*
X0035036Y0017942D03*
X0024800Y0017942D03*
X0021650Y0025028D03*
X0030705Y0036839D03*
X0036217Y0036839D03*
X0027162Y0051800D03*
X0021257Y0051800D03*
X0021257Y0060855D03*
X0027162Y0060855D03*
X0023619Y0067154D03*
X0040154Y0060855D03*
X0040154Y0104556D03*
X0052753Y0104556D03*
X0052753Y0115973D03*
X0056690Y0118729D03*
X0027162Y0115973D03*
X0021650Y0124635D03*
X0027162Y0104556D03*
D15*
X0056690Y0097076D02*
X0056690Y0118729D01*
X0056690Y0097076D02*
X0066532Y0087233D01*
X0109839Y0087233D01*
X0114170Y0091564D01*
X0114957Y0091564D01*
X0117320Y0091564D01*
X0120075Y0094320D01*
X0120075Y0103769D01*
X0127595Y0111288D01*
X0128343Y0111288D01*
X0123619Y0109674D02*
X0123619Y0116564D01*
X0128343Y0121288D01*
X0123619Y0109674D02*
X0118501Y0104556D01*
X0118501Y0095501D01*
X0116926Y0093926D01*
X0114170Y0093926D01*
X0109839Y0089595D01*
X0104721Y0089595D01*
X0114957Y0086839D02*
X0116138Y0088020D01*
X0124800Y0088020D01*
X0128343Y0084477D01*
X0128343Y0081288D01*
X0128343Y0091288D02*
X0125075Y0091288D01*
X0122438Y0093926D01*
X0122438Y0102587D01*
X0104721Y0078178D02*
X0096847Y0070304D01*
X0096847Y0066761D01*
X0084249Y0054162D01*
X0083068Y0054162D01*
X0079918Y0051013D01*
X0079918Y0031721D01*
X0077556Y0029359D01*
X0076375Y0029359D01*
X0077162Y0032509D02*
X0077162Y0033690D01*
X0078343Y0034871D01*
X0078343Y0051800D01*
X0082280Y0055737D01*
X0083461Y0055737D01*
X0095272Y0067548D01*
X0095272Y0073847D01*
X0092910Y0076209D01*
X0099209Y0069517D02*
X0099209Y0066761D01*
X0085036Y0052587D01*
X0083855Y0052587D01*
X0081493Y0050225D01*
X0081493Y0028965D01*
X0077556Y0025028D01*
X0076375Y0025028D01*
X0076375Y0021485D02*
X0083068Y0028178D01*
X0083068Y0049438D01*
X0084642Y0051013D01*
X0085823Y0051013D01*
X0100784Y0065973D01*
X0108264Y0065973D01*
X0110627Y0068335D01*
X0110627Y0073454D01*
X0116532Y0064792D02*
X0115745Y0064005D01*
X0101178Y0064005D01*
X0085430Y0048257D01*
X0087792Y0048257D02*
X0098422Y0058887D01*
X0099603Y0060068D01*
X0101965Y0062430D01*
X0117713Y0062430D01*
X0116532Y0064792D02*
X0120075Y0064792D01*
X0120863Y0064005D01*
X0120863Y0062430D01*
X0122044Y0043926D02*
X0120075Y0041957D01*
X0101572Y0041957D01*
X0100390Y0043139D01*
X0095272Y0043139D01*
X0094485Y0043926D01*
X0087792Y0047076D02*
X0087792Y0048257D01*
X0087792Y0047076D02*
X0085823Y0045107D01*
X0089760Y0031721D02*
X0090548Y0030934D01*
X0094485Y0030934D01*
X0095272Y0031721D01*
X0094879Y0031328D01*
X0105705Y0034871D02*
X0106493Y0035658D01*
X0109642Y0035658D01*
X0110430Y0034871D01*
X0072831Y0061643D02*
X0072831Y0068729D01*
X0070469Y0066367D02*
X0070469Y0061643D01*
X0048028Y0039202D01*
X0048028Y0037233D01*
X0044879Y0037627D02*
X0044879Y0038414D01*
X0068107Y0061643D01*
X0068107Y0067154D01*
X0072831Y0071879D01*
X0072831Y0061643D02*
X0050784Y0039595D01*
X0050784Y0033690D01*
X0041335Y0025816D02*
X0034249Y0025816D01*
X0030705Y0029359D01*
X0030705Y0036839D01*
M02*
