G75*
%MOIN*%
%OFA0B0*%
%FSLAX25Y25*%
%IPPOS*%
%LPD*%
%AMOC8*
5,1,8,0,0,1.08239X$1,22.5*
%
%ADD10C,0.00000*%
%ADD11C,0.00200*%
%ADD12C,0.00600*%
%ADD13C,0.00300*%
%ADD14C,0.00500*%
%ADD15R,0.01575X0.01575*%
D10*
X0018501Y0009674D02*
X0018501Y0127784D01*
X0136611Y0127784D01*
X0136611Y0009674D01*
X0018501Y0009674D01*
X0096887Y0034871D02*
X0096889Y0034940D01*
X0096895Y0035008D01*
X0096905Y0035076D01*
X0096919Y0035143D01*
X0096937Y0035210D01*
X0096958Y0035275D01*
X0096984Y0035339D01*
X0097013Y0035401D01*
X0097045Y0035461D01*
X0097081Y0035520D01*
X0097121Y0035576D01*
X0097163Y0035630D01*
X0097209Y0035681D01*
X0097258Y0035730D01*
X0097309Y0035776D01*
X0097363Y0035818D01*
X0097419Y0035858D01*
X0097477Y0035894D01*
X0097538Y0035926D01*
X0097600Y0035955D01*
X0097664Y0035981D01*
X0097729Y0036002D01*
X0097796Y0036020D01*
X0097863Y0036034D01*
X0097931Y0036044D01*
X0097999Y0036050D01*
X0098068Y0036052D01*
X0098137Y0036050D01*
X0098205Y0036044D01*
X0098273Y0036034D01*
X0098340Y0036020D01*
X0098407Y0036002D01*
X0098472Y0035981D01*
X0098536Y0035955D01*
X0098598Y0035926D01*
X0098658Y0035894D01*
X0098717Y0035858D01*
X0098773Y0035818D01*
X0098827Y0035776D01*
X0098878Y0035730D01*
X0098927Y0035681D01*
X0098973Y0035630D01*
X0099015Y0035576D01*
X0099055Y0035520D01*
X0099091Y0035461D01*
X0099123Y0035401D01*
X0099152Y0035339D01*
X0099178Y0035275D01*
X0099199Y0035210D01*
X0099217Y0035143D01*
X0099231Y0035076D01*
X0099241Y0035008D01*
X0099247Y0034940D01*
X0099249Y0034871D01*
X0099247Y0034802D01*
X0099241Y0034734D01*
X0099231Y0034666D01*
X0099217Y0034599D01*
X0099199Y0034532D01*
X0099178Y0034467D01*
X0099152Y0034403D01*
X0099123Y0034341D01*
X0099091Y0034280D01*
X0099055Y0034222D01*
X0099015Y0034166D01*
X0098973Y0034112D01*
X0098927Y0034061D01*
X0098878Y0034012D01*
X0098827Y0033966D01*
X0098773Y0033924D01*
X0098717Y0033884D01*
X0098659Y0033848D01*
X0098598Y0033816D01*
X0098536Y0033787D01*
X0098472Y0033761D01*
X0098407Y0033740D01*
X0098340Y0033722D01*
X0098273Y0033708D01*
X0098205Y0033698D01*
X0098137Y0033692D01*
X0098068Y0033690D01*
X0097999Y0033692D01*
X0097931Y0033698D01*
X0097863Y0033708D01*
X0097796Y0033722D01*
X0097729Y0033740D01*
X0097664Y0033761D01*
X0097600Y0033787D01*
X0097538Y0033816D01*
X0097477Y0033848D01*
X0097419Y0033884D01*
X0097363Y0033924D01*
X0097309Y0033966D01*
X0097258Y0034012D01*
X0097209Y0034061D01*
X0097163Y0034112D01*
X0097121Y0034166D01*
X0097081Y0034222D01*
X0097045Y0034280D01*
X0097013Y0034341D01*
X0096984Y0034403D01*
X0096958Y0034467D01*
X0096937Y0034532D01*
X0096919Y0034599D01*
X0096905Y0034666D01*
X0096895Y0034734D01*
X0096889Y0034802D01*
X0096887Y0034871D01*
X0119642Y0034871D02*
X0119644Y0034940D01*
X0119650Y0035008D01*
X0119660Y0035076D01*
X0119674Y0035143D01*
X0119692Y0035210D01*
X0119713Y0035275D01*
X0119739Y0035339D01*
X0119768Y0035401D01*
X0119800Y0035461D01*
X0119836Y0035520D01*
X0119876Y0035576D01*
X0119918Y0035630D01*
X0119964Y0035681D01*
X0120013Y0035730D01*
X0120064Y0035776D01*
X0120118Y0035818D01*
X0120174Y0035858D01*
X0120232Y0035894D01*
X0120293Y0035926D01*
X0120355Y0035955D01*
X0120419Y0035981D01*
X0120484Y0036002D01*
X0120551Y0036020D01*
X0120618Y0036034D01*
X0120686Y0036044D01*
X0120754Y0036050D01*
X0120823Y0036052D01*
X0120892Y0036050D01*
X0120960Y0036044D01*
X0121028Y0036034D01*
X0121095Y0036020D01*
X0121162Y0036002D01*
X0121227Y0035981D01*
X0121291Y0035955D01*
X0121353Y0035926D01*
X0121413Y0035894D01*
X0121472Y0035858D01*
X0121528Y0035818D01*
X0121582Y0035776D01*
X0121633Y0035730D01*
X0121682Y0035681D01*
X0121728Y0035630D01*
X0121770Y0035576D01*
X0121810Y0035520D01*
X0121846Y0035461D01*
X0121878Y0035401D01*
X0121907Y0035339D01*
X0121933Y0035275D01*
X0121954Y0035210D01*
X0121972Y0035143D01*
X0121986Y0035076D01*
X0121996Y0035008D01*
X0122002Y0034940D01*
X0122004Y0034871D01*
X0122002Y0034802D01*
X0121996Y0034734D01*
X0121986Y0034666D01*
X0121972Y0034599D01*
X0121954Y0034532D01*
X0121933Y0034467D01*
X0121907Y0034403D01*
X0121878Y0034341D01*
X0121846Y0034280D01*
X0121810Y0034222D01*
X0121770Y0034166D01*
X0121728Y0034112D01*
X0121682Y0034061D01*
X0121633Y0034012D01*
X0121582Y0033966D01*
X0121528Y0033924D01*
X0121472Y0033884D01*
X0121414Y0033848D01*
X0121353Y0033816D01*
X0121291Y0033787D01*
X0121227Y0033761D01*
X0121162Y0033740D01*
X0121095Y0033722D01*
X0121028Y0033708D01*
X0120960Y0033698D01*
X0120892Y0033692D01*
X0120823Y0033690D01*
X0120754Y0033692D01*
X0120686Y0033698D01*
X0120618Y0033708D01*
X0120551Y0033722D01*
X0120484Y0033740D01*
X0120419Y0033761D01*
X0120355Y0033787D01*
X0120293Y0033816D01*
X0120232Y0033848D01*
X0120174Y0033884D01*
X0120118Y0033924D01*
X0120064Y0033966D01*
X0120013Y0034012D01*
X0119964Y0034061D01*
X0119918Y0034112D01*
X0119876Y0034166D01*
X0119836Y0034222D01*
X0119800Y0034280D01*
X0119768Y0034341D01*
X0119739Y0034403D01*
X0119713Y0034467D01*
X0119692Y0034532D01*
X0119674Y0034599D01*
X0119660Y0034666D01*
X0119650Y0034734D01*
X0119644Y0034802D01*
X0119642Y0034871D01*
D11*
X0119410Y0042648D02*
X0119410Y0045206D01*
X0118558Y0044353D01*
X0117726Y0045206D02*
X0117726Y0042648D01*
X0116020Y0045206D01*
X0116020Y0042648D01*
X0115188Y0043074D02*
X0114762Y0042648D01*
X0113909Y0042648D01*
X0113483Y0043074D01*
X0113483Y0044780D01*
X0113909Y0045206D01*
X0114762Y0045206D01*
X0115188Y0044780D01*
X0118558Y0042648D02*
X0120263Y0042648D01*
X0126830Y0047565D02*
X0126830Y0049300D01*
X0127264Y0049734D01*
X0128131Y0049734D01*
X0128565Y0049300D01*
X0129408Y0048866D02*
X0130276Y0049734D01*
X0130276Y0047131D01*
X0131143Y0047131D02*
X0129408Y0047131D01*
X0128565Y0047565D02*
X0128131Y0047131D01*
X0127264Y0047131D01*
X0126830Y0047565D01*
X0117613Y0051506D02*
X0117613Y0052785D01*
X0117187Y0053212D01*
X0115482Y0053212D01*
X0115055Y0052785D01*
X0115055Y0051506D01*
X0117613Y0051506D01*
X0117613Y0054044D02*
X0117613Y0055749D01*
X0117613Y0054897D02*
X0115055Y0054897D01*
X0115908Y0054044D01*
X0120987Y0057055D02*
X0120987Y0059657D01*
X0120987Y0057055D02*
X0122722Y0057055D01*
X0123566Y0057055D02*
X0125300Y0058790D01*
X0125300Y0059224D01*
X0124867Y0059657D01*
X0123999Y0059657D01*
X0123566Y0059224D01*
X0123566Y0057055D02*
X0125300Y0057055D01*
X0133133Y0067929D02*
X0134575Y0067929D01*
X0134936Y0068289D01*
X0134936Y0069011D01*
X0134575Y0069371D01*
X0133854Y0069371D01*
X0133854Y0068650D01*
X0133133Y0067929D02*
X0132772Y0068289D01*
X0132772Y0069011D01*
X0133133Y0069371D01*
X0132772Y0070104D02*
X0134936Y0071546D01*
X0132772Y0071546D01*
X0132772Y0072279D02*
X0132772Y0073361D01*
X0133133Y0073722D01*
X0134575Y0073722D01*
X0134936Y0073361D01*
X0134936Y0072279D01*
X0132772Y0072279D01*
X0132772Y0070104D02*
X0134936Y0070104D01*
X0134215Y0078165D02*
X0132772Y0078165D01*
X0132772Y0079608D02*
X0134215Y0079608D01*
X0134936Y0078886D01*
X0134215Y0078165D01*
X0132772Y0080340D02*
X0132772Y0081783D01*
X0132772Y0081061D02*
X0134936Y0081061D01*
X0134575Y0082515D02*
X0133133Y0082515D01*
X0132772Y0082876D01*
X0132772Y0083597D01*
X0133133Y0083958D01*
X0133854Y0083958D02*
X0133854Y0083236D01*
X0133854Y0083958D02*
X0134575Y0083958D01*
X0134936Y0083597D01*
X0134936Y0082876D01*
X0134575Y0082515D01*
X0134215Y0088370D02*
X0134215Y0089452D01*
X0133854Y0089813D01*
X0133133Y0089813D01*
X0132772Y0089452D01*
X0132772Y0088370D01*
X0134936Y0088370D01*
X0134936Y0090545D02*
X0134936Y0091266D01*
X0134936Y0090906D02*
X0132772Y0090906D01*
X0132772Y0091266D02*
X0132772Y0090545D01*
X0133133Y0091995D02*
X0134575Y0091995D01*
X0134936Y0092356D01*
X0134936Y0093077D01*
X0134575Y0093438D01*
X0133133Y0093438D01*
X0132772Y0093077D01*
X0132772Y0092356D01*
X0133133Y0091995D01*
X0132772Y0096762D02*
X0132772Y0097844D01*
X0133133Y0098205D01*
X0133854Y0098205D01*
X0134215Y0097844D01*
X0134215Y0096762D01*
X0134936Y0096762D02*
X0132772Y0096762D01*
X0133133Y0098938D02*
X0134575Y0098938D01*
X0134936Y0099298D01*
X0134936Y0100020D01*
X0134575Y0100380D01*
X0134936Y0101113D02*
X0132772Y0101113D01*
X0133133Y0100380D02*
X0132772Y0100020D01*
X0132772Y0099298D01*
X0133133Y0098938D01*
X0134936Y0101113D02*
X0134936Y0102555D01*
X0134936Y0103288D02*
X0132772Y0103288D01*
X0133854Y0103648D02*
X0134936Y0104730D01*
X0134215Y0103288D02*
X0132772Y0104730D01*
X0132772Y0108086D02*
X0132772Y0109168D01*
X0133133Y0109529D01*
X0133854Y0109529D01*
X0134215Y0109168D01*
X0134215Y0108086D01*
X0134936Y0108086D02*
X0132772Y0108086D01*
X0134215Y0108808D02*
X0134936Y0109529D01*
X0134575Y0110261D02*
X0134936Y0110622D01*
X0134936Y0111343D01*
X0134575Y0111704D01*
X0134215Y0111704D01*
X0133854Y0111343D01*
X0133854Y0110622D01*
X0133493Y0110261D01*
X0133133Y0110261D01*
X0132772Y0110622D01*
X0132772Y0111343D01*
X0133133Y0111704D01*
X0132772Y0112436D02*
X0132772Y0113879D01*
X0132772Y0113158D02*
X0134936Y0113158D01*
X0132772Y0117929D02*
X0132772Y0119371D01*
X0132772Y0118650D02*
X0134936Y0118650D01*
X0134936Y0120104D02*
X0132772Y0121546D01*
X0132772Y0122279D02*
X0132772Y0123361D01*
X0133133Y0123722D01*
X0134575Y0123722D01*
X0134936Y0123361D01*
X0134936Y0122279D01*
X0132772Y0122279D01*
X0132772Y0120104D02*
X0134936Y0121546D01*
X0077929Y0063120D02*
X0077076Y0063120D01*
X0076650Y0062693D01*
X0075818Y0062693D02*
X0075391Y0063120D01*
X0074112Y0063120D01*
X0074112Y0060561D01*
X0075391Y0060561D01*
X0075818Y0060988D01*
X0075818Y0062693D01*
X0077929Y0063120D02*
X0078355Y0062693D01*
X0078355Y0062267D01*
X0076650Y0060561D01*
X0078355Y0060561D01*
X0085528Y0056143D02*
X0085528Y0054438D01*
X0086807Y0054438D01*
X0086380Y0055290D01*
X0086380Y0055717D01*
X0086807Y0056143D01*
X0087659Y0056143D01*
X0088086Y0055717D01*
X0088086Y0054864D01*
X0087659Y0054438D01*
X0087659Y0053605D02*
X0088086Y0053179D01*
X0088086Y0052326D01*
X0087659Y0051900D01*
X0085954Y0051900D01*
X0085528Y0052326D01*
X0085528Y0053179D01*
X0085954Y0053605D01*
X0087148Y0049734D02*
X0088427Y0049734D01*
X0088853Y0049307D01*
X0088853Y0048455D01*
X0088427Y0048028D01*
X0087148Y0048028D01*
X0088000Y0048028D02*
X0088853Y0047176D01*
X0089685Y0047176D02*
X0091390Y0047176D01*
X0090538Y0047176D02*
X0090538Y0049734D01*
X0089685Y0048881D01*
X0087148Y0049734D02*
X0087148Y0047176D01*
X0083802Y0042253D02*
X0083802Y0039695D01*
X0082949Y0039695D02*
X0084655Y0039695D01*
X0082949Y0041401D02*
X0083802Y0042253D01*
X0082117Y0039695D02*
X0080412Y0039695D01*
X0080412Y0042253D01*
X0074025Y0041827D02*
X0074025Y0041401D01*
X0073598Y0040974D01*
X0074025Y0040548D01*
X0074025Y0040122D01*
X0073598Y0039695D01*
X0072746Y0039695D01*
X0072319Y0040122D01*
X0071487Y0040122D02*
X0071061Y0039695D01*
X0070208Y0039695D01*
X0069782Y0040122D01*
X0069782Y0041827D01*
X0070208Y0042253D01*
X0071061Y0042253D01*
X0071487Y0041827D01*
X0072319Y0041827D02*
X0072746Y0042253D01*
X0073598Y0042253D01*
X0074025Y0041827D01*
X0073598Y0040974D02*
X0073172Y0040974D01*
X0074112Y0050325D02*
X0075391Y0050325D01*
X0075818Y0050752D01*
X0075818Y0052457D01*
X0075391Y0052883D01*
X0074112Y0052883D01*
X0074112Y0050325D01*
X0076650Y0050752D02*
X0077076Y0050325D01*
X0077929Y0050325D01*
X0078355Y0050752D01*
X0078355Y0051178D01*
X0077929Y0051604D01*
X0077503Y0051604D01*
X0077929Y0051604D02*
X0078355Y0052031D01*
X0078355Y0052457D01*
X0077929Y0052883D01*
X0077076Y0052883D01*
X0076650Y0052457D01*
X0085573Y0058626D02*
X0085999Y0058199D01*
X0086852Y0058199D01*
X0087278Y0058626D01*
X0088110Y0059478D02*
X0089816Y0059478D01*
X0089389Y0058199D02*
X0089389Y0060757D01*
X0088110Y0059478D01*
X0087278Y0060331D02*
X0086852Y0060757D01*
X0085999Y0060757D01*
X0085573Y0060331D01*
X0085573Y0058626D01*
X0064182Y0059807D02*
X0064182Y0060233D01*
X0063756Y0060659D01*
X0062477Y0060659D01*
X0062477Y0059807D01*
X0062903Y0059380D01*
X0063756Y0059380D01*
X0064182Y0059807D01*
X0063330Y0061512D02*
X0062477Y0060659D01*
X0061645Y0059807D02*
X0061218Y0059380D01*
X0060366Y0059380D01*
X0059939Y0059807D01*
X0059939Y0061512D01*
X0060366Y0061938D01*
X0061218Y0061938D01*
X0061645Y0061512D01*
X0063330Y0061512D02*
X0064182Y0061938D01*
X0056983Y0048269D02*
X0056983Y0046564D01*
X0055278Y0048269D01*
X0054852Y0048269D01*
X0054425Y0047843D01*
X0054425Y0046990D01*
X0054852Y0046564D01*
X0054425Y0045731D02*
X0056557Y0045731D01*
X0056983Y0045305D01*
X0056983Y0044452D01*
X0056557Y0044026D01*
X0054425Y0044026D01*
X0051352Y0044584D02*
X0051352Y0044944D01*
X0050992Y0045305D01*
X0049910Y0045305D01*
X0049910Y0044584D01*
X0050270Y0044223D01*
X0050992Y0044223D01*
X0051352Y0044584D01*
X0050631Y0046026D02*
X0049910Y0045305D01*
X0049177Y0045305D02*
X0048817Y0044944D01*
X0047735Y0044944D01*
X0048456Y0044944D02*
X0049177Y0044223D01*
X0049177Y0045305D02*
X0049177Y0046026D01*
X0048817Y0046387D01*
X0047735Y0046387D01*
X0047735Y0044223D01*
X0050631Y0046026D02*
X0051352Y0046387D01*
X0043478Y0045829D02*
X0043478Y0044387D01*
X0043118Y0044026D01*
X0042396Y0044026D01*
X0042036Y0044387D01*
X0042396Y0045108D02*
X0043478Y0045108D01*
X0043478Y0045829D02*
X0043118Y0046190D01*
X0042396Y0046190D01*
X0042036Y0045829D01*
X0042036Y0045469D01*
X0042396Y0045108D01*
X0041303Y0045108D02*
X0040943Y0044747D01*
X0039860Y0044747D01*
X0039860Y0044026D02*
X0039860Y0046190D01*
X0040943Y0046190D01*
X0041303Y0045829D01*
X0041303Y0045108D01*
X0040582Y0044747D02*
X0041303Y0044026D01*
X0040943Y0041466D02*
X0040221Y0041466D01*
X0039860Y0041105D01*
X0039860Y0039662D01*
X0040221Y0039302D01*
X0040943Y0039302D01*
X0041303Y0039662D01*
X0042036Y0039662D02*
X0042396Y0039302D01*
X0043118Y0039302D01*
X0043478Y0039662D01*
X0043478Y0041105D01*
X0043118Y0041466D01*
X0042396Y0041466D01*
X0042036Y0041105D01*
X0042036Y0040744D01*
X0042396Y0040384D01*
X0043478Y0040384D01*
X0041303Y0041105D02*
X0040943Y0041466D01*
X0049290Y0037168D02*
X0049290Y0035725D01*
X0049651Y0035365D01*
X0050372Y0035365D01*
X0050733Y0035725D01*
X0051465Y0035725D02*
X0051465Y0035365D01*
X0051465Y0035725D02*
X0052908Y0037168D01*
X0052908Y0037529D01*
X0051465Y0037529D01*
X0050733Y0037168D02*
X0050372Y0037529D01*
X0049651Y0037529D01*
X0049290Y0037168D01*
X0049684Y0031623D02*
X0050766Y0031623D01*
X0051126Y0031262D01*
X0051126Y0029820D01*
X0050766Y0029459D01*
X0049684Y0029459D01*
X0049684Y0031623D01*
X0047508Y0031623D02*
X0047508Y0029459D01*
X0048951Y0029459D01*
X0051859Y0029459D02*
X0053301Y0029459D01*
X0052580Y0029459D02*
X0052580Y0031623D01*
X0051859Y0030902D01*
X0052219Y0026111D02*
X0051859Y0025751D01*
X0052219Y0026111D02*
X0052941Y0026111D01*
X0053301Y0025751D01*
X0053301Y0025390D01*
X0051859Y0023947D01*
X0053301Y0023947D01*
X0051126Y0024308D02*
X0051126Y0025751D01*
X0050766Y0026111D01*
X0049684Y0026111D01*
X0049684Y0023947D01*
X0050766Y0023947D01*
X0051126Y0024308D01*
X0048951Y0023947D02*
X0047508Y0023947D01*
X0047508Y0026111D01*
X0047508Y0020599D02*
X0047508Y0018435D01*
X0048951Y0018435D01*
X0049684Y0018435D02*
X0050766Y0018435D01*
X0051126Y0018796D01*
X0051126Y0020239D01*
X0050766Y0020599D01*
X0049684Y0020599D01*
X0049684Y0018435D01*
X0051859Y0018796D02*
X0052219Y0018435D01*
X0052941Y0018435D01*
X0053301Y0018796D01*
X0053301Y0019157D01*
X0052941Y0019517D01*
X0052580Y0019517D01*
X0052941Y0019517D02*
X0053301Y0019878D01*
X0053301Y0020239D01*
X0052941Y0020599D01*
X0052219Y0020599D01*
X0051859Y0020239D01*
X0052941Y0015088D02*
X0051859Y0014006D01*
X0053301Y0014006D01*
X0052941Y0012924D02*
X0052941Y0015088D01*
X0051126Y0014727D02*
X0051126Y0013284D01*
X0050766Y0012924D01*
X0049684Y0012924D01*
X0049684Y0015088D01*
X0050766Y0015088D01*
X0051126Y0014727D01*
X0048951Y0012924D02*
X0047508Y0012924D01*
X0047508Y0015088D01*
X0041629Y0028278D02*
X0039465Y0028278D01*
X0039465Y0029360D01*
X0039826Y0029721D01*
X0040547Y0029721D01*
X0040908Y0029360D01*
X0040908Y0028278D01*
X0040908Y0028999D02*
X0041629Y0029721D01*
X0041629Y0030453D02*
X0041268Y0030453D01*
X0039826Y0031896D01*
X0039465Y0031896D01*
X0039465Y0030453D01*
X0022731Y0030760D02*
X0022731Y0029893D01*
X0022298Y0029459D01*
X0020129Y0029459D01*
X0020129Y0031194D02*
X0022298Y0031194D01*
X0022731Y0030760D01*
X0022298Y0032037D02*
X0022731Y0032471D01*
X0022731Y0033338D01*
X0022298Y0033772D01*
X0021864Y0033772D01*
X0021430Y0033338D01*
X0021430Y0032905D01*
X0021430Y0033338D02*
X0020997Y0033772D01*
X0020563Y0033772D01*
X0020129Y0033338D01*
X0020129Y0032471D01*
X0020563Y0032037D01*
X0023125Y0020885D02*
X0023125Y0019180D01*
X0023125Y0018348D02*
X0020567Y0018348D01*
X0021420Y0019180D02*
X0020567Y0020033D01*
X0023125Y0020033D01*
X0023125Y0018348D02*
X0022272Y0017495D01*
X0023125Y0016642D01*
X0020567Y0016642D01*
X0020993Y0015810D02*
X0020567Y0015384D01*
X0020567Y0014531D01*
X0020993Y0014105D01*
X0021420Y0014105D01*
X0021846Y0014531D01*
X0021846Y0015384D01*
X0022272Y0015810D01*
X0022699Y0015810D01*
X0023125Y0015384D01*
X0023125Y0014531D01*
X0022699Y0014105D01*
X0022404Y0045601D02*
X0022404Y0046683D01*
X0022043Y0047043D01*
X0021322Y0047043D01*
X0020961Y0046683D01*
X0020961Y0045601D01*
X0023125Y0045601D01*
X0022404Y0046322D02*
X0023125Y0047043D01*
X0022764Y0047776D02*
X0022404Y0047776D01*
X0022043Y0048137D01*
X0022043Y0048858D01*
X0022404Y0049219D01*
X0022764Y0049219D01*
X0023125Y0048858D01*
X0023125Y0048137D01*
X0022764Y0047776D01*
X0022043Y0048137D02*
X0021682Y0047776D01*
X0021322Y0047776D01*
X0020961Y0048137D01*
X0020961Y0048858D01*
X0021322Y0049219D01*
X0021682Y0049219D01*
X0022043Y0048858D01*
X0025685Y0048530D02*
X0026046Y0048170D01*
X0026407Y0048170D01*
X0026767Y0048530D01*
X0026767Y0049252D01*
X0027128Y0049612D01*
X0027489Y0049612D01*
X0027849Y0049252D01*
X0027849Y0048530D01*
X0027489Y0048170D01*
X0027128Y0048170D01*
X0026767Y0048530D01*
X0026767Y0049252D02*
X0026407Y0049612D01*
X0026046Y0049612D01*
X0025685Y0049252D01*
X0025685Y0048530D01*
X0026046Y0047437D02*
X0025685Y0047077D01*
X0025685Y0046355D01*
X0026046Y0045994D01*
X0027489Y0045994D01*
X0027849Y0046355D01*
X0027849Y0047077D01*
X0027489Y0047437D01*
X0076079Y0015341D02*
X0076079Y0013898D01*
X0077161Y0013898D01*
X0076800Y0014619D01*
X0076800Y0014980D01*
X0077161Y0015341D01*
X0077883Y0015341D01*
X0078243Y0014980D01*
X0078243Y0014259D01*
X0077883Y0013898D01*
X0078243Y0013166D02*
X0077522Y0012444D01*
X0077522Y0012805D02*
X0077522Y0011723D01*
X0078243Y0011723D02*
X0076079Y0011723D01*
X0076079Y0012805D01*
X0076440Y0013166D01*
X0077161Y0013166D01*
X0077522Y0012805D01*
X0078048Y0017235D02*
X0078048Y0018317D01*
X0078408Y0018678D01*
X0079130Y0018678D01*
X0079490Y0018317D01*
X0079490Y0017235D01*
X0079490Y0017956D02*
X0080212Y0018678D01*
X0079130Y0019410D02*
X0079130Y0020853D01*
X0080212Y0020492D02*
X0078048Y0020492D01*
X0079130Y0019410D01*
X0080212Y0017235D02*
X0078048Y0017235D01*
X0078048Y0022747D02*
X0078048Y0023829D01*
X0078408Y0024189D01*
X0079130Y0024189D01*
X0079490Y0023829D01*
X0079490Y0022747D01*
X0079490Y0023468D02*
X0080212Y0024189D01*
X0079851Y0024922D02*
X0080212Y0025282D01*
X0080212Y0026004D01*
X0079851Y0026364D01*
X0079490Y0026364D01*
X0079130Y0026004D01*
X0079130Y0025643D01*
X0079130Y0026004D02*
X0078769Y0026364D01*
X0078408Y0026364D01*
X0078048Y0026004D01*
X0078048Y0025282D01*
X0078408Y0024922D01*
X0078048Y0022747D02*
X0080212Y0022747D01*
X0084347Y0022295D02*
X0084347Y0021442D01*
X0084773Y0021016D01*
X0084773Y0020184D02*
X0084347Y0019757D01*
X0084347Y0018905D01*
X0084773Y0018478D01*
X0086478Y0018478D01*
X0086905Y0018905D01*
X0086905Y0019757D01*
X0086478Y0020184D01*
X0086905Y0021016D02*
X0085199Y0022721D01*
X0084773Y0022721D01*
X0084347Y0022295D01*
X0086905Y0022721D02*
X0086905Y0021016D01*
X0080999Y0028258D02*
X0078835Y0028258D01*
X0078835Y0029341D01*
X0079196Y0029701D01*
X0079917Y0029701D01*
X0080278Y0029341D01*
X0080278Y0028258D01*
X0080278Y0028980D02*
X0080999Y0029701D01*
X0080999Y0030434D02*
X0079556Y0031876D01*
X0079196Y0031876D01*
X0078835Y0031516D01*
X0078835Y0030794D01*
X0079196Y0030434D01*
X0080999Y0030434D02*
X0080999Y0031876D01*
X0129996Y0033827D02*
X0132598Y0033827D01*
X0132598Y0035561D01*
X0132165Y0036405D02*
X0132598Y0036839D01*
X0132598Y0037706D01*
X0132165Y0038140D01*
X0131731Y0038140D01*
X0131297Y0037706D01*
X0131297Y0037272D01*
X0131297Y0037706D02*
X0130864Y0038140D01*
X0130430Y0038140D01*
X0129996Y0037706D01*
X0129996Y0036839D01*
X0130430Y0036405D01*
D12*
X0120469Y0064398D02*
X0120469Y0065580D01*
X0120469Y0064398D02*
X0065351Y0064398D01*
X0065351Y0065580D01*
X0065351Y0102098D02*
X0065351Y0127391D01*
X0120469Y0127391D01*
X0120469Y0102587D01*
X0065751Y0102098D02*
X0065351Y0102098D01*
D13*
X0063626Y0102425D02*
X0063626Y0103376D01*
X0063151Y0103851D01*
X0060774Y0103851D01*
X0061725Y0104850D02*
X0060774Y0105801D01*
X0063626Y0105801D01*
X0063626Y0106751D02*
X0063626Y0104850D01*
X0063626Y0102425D02*
X0063151Y0101950D01*
X0060774Y0101950D01*
X0031714Y0121234D02*
X0030046Y0121234D01*
X0031714Y0122902D01*
X0031714Y0123319D01*
X0031297Y0123736D01*
X0030463Y0123736D01*
X0030046Y0123319D01*
X0029136Y0123736D02*
X0029136Y0121234D01*
X0028302Y0122068D01*
X0027468Y0121234D01*
X0027468Y0123736D01*
X0026558Y0123319D02*
X0026141Y0123736D01*
X0025307Y0123736D01*
X0024890Y0123319D01*
X0024890Y0122902D01*
X0025307Y0122485D01*
X0026141Y0122485D01*
X0026558Y0122068D01*
X0026558Y0121651D01*
X0026141Y0121234D01*
X0025307Y0121234D01*
X0024890Y0121651D01*
X0024650Y0118233D02*
X0024650Y0116069D01*
X0024650Y0117151D02*
X0021404Y0117151D01*
X0022486Y0116069D01*
X0021404Y0114970D02*
X0021404Y0112806D01*
X0021404Y0113888D02*
X0024650Y0113888D01*
X0024650Y0111707D02*
X0022486Y0111707D01*
X0021404Y0110625D01*
X0022486Y0109543D01*
X0024650Y0109543D01*
X0024109Y0108445D02*
X0024650Y0107904D01*
X0024650Y0106281D01*
X0021404Y0106281D01*
X0021404Y0107904D01*
X0021945Y0108445D01*
X0022486Y0108445D01*
X0023027Y0107904D01*
X0023027Y0106281D01*
X0023027Y0107904D02*
X0023568Y0108445D01*
X0024109Y0108445D01*
X0023027Y0109543D02*
X0023027Y0111707D01*
X0125511Y0066268D02*
X0125511Y0064892D01*
X0125855Y0064548D01*
X0126543Y0064548D01*
X0126887Y0064892D01*
X0127686Y0064548D02*
X0127686Y0066612D01*
X0129062Y0064548D01*
X0129062Y0066612D01*
X0129861Y0066268D02*
X0130205Y0066612D01*
X0130893Y0066612D01*
X0131237Y0066268D01*
X0131237Y0065924D01*
X0130893Y0065580D01*
X0131237Y0065236D01*
X0131237Y0064892D01*
X0130893Y0064548D01*
X0130205Y0064548D01*
X0129861Y0064892D01*
X0130549Y0065580D02*
X0130893Y0065580D01*
X0126887Y0066268D02*
X0126543Y0066612D01*
X0125855Y0066612D01*
X0125511Y0066268D01*
D14*
X0127044Y0031721D02*
X0127044Y0025028D01*
X0127044Y0015580D02*
X0127044Y0010146D01*
X0091847Y0010146D01*
X0091847Y0015580D01*
X0091847Y0025028D02*
X0091847Y0031721D01*
X0065745Y0032902D02*
X0065745Y0028178D01*
X0054721Y0028178D01*
X0054721Y0032902D01*
X0065745Y0032902D01*
X0065745Y0027391D02*
X0065745Y0022666D01*
X0054721Y0022666D01*
X0054721Y0027391D01*
X0065745Y0027391D01*
X0065745Y0021879D02*
X0065745Y0017154D01*
X0054721Y0017154D01*
X0054721Y0021879D01*
X0065745Y0021879D01*
X0065745Y0016367D02*
X0065745Y0011643D01*
X0054721Y0011643D01*
X0054721Y0016367D01*
X0065745Y0016367D01*
X0052154Y0057509D02*
X0058154Y0063509D01*
X0058154Y0070509D01*
X0028154Y0057508D02*
X0027831Y0057735D01*
X0027514Y0057970D01*
X0027202Y0058212D01*
X0026897Y0058462D01*
X0026597Y0058719D01*
X0026304Y0058983D01*
X0026017Y0059255D01*
X0025737Y0059533D01*
X0025464Y0059818D01*
X0025198Y0060109D01*
X0024939Y0060407D01*
X0024688Y0060711D01*
X0024443Y0061021D01*
X0024207Y0061337D01*
X0023978Y0061659D01*
X0023757Y0061986D01*
X0023544Y0062318D01*
X0023339Y0062655D01*
X0023142Y0062998D01*
X0022954Y0063344D01*
X0022774Y0063696D01*
X0022603Y0064051D01*
X0022440Y0064411D01*
X0022287Y0064774D01*
X0022142Y0065142D01*
X0022006Y0065512D01*
X0021879Y0065886D01*
X0021761Y0066263D01*
X0021652Y0066642D01*
X0021553Y0067024D01*
X0021463Y0067408D01*
X0021382Y0067795D01*
X0021311Y0068183D01*
X0021249Y0068572D01*
X0021196Y0068964D01*
X0021153Y0069356D01*
X0021120Y0069749D01*
X0021096Y0070143D01*
X0021082Y0070538D01*
X0021077Y0070932D01*
X0021082Y0071327D01*
X0021096Y0071721D01*
X0021120Y0072115D01*
X0021154Y0072509D01*
X0021154Y0092508D02*
X0021120Y0092902D01*
X0021096Y0093296D01*
X0021082Y0093690D01*
X0021077Y0094085D01*
X0021082Y0094479D01*
X0021096Y0094874D01*
X0021120Y0095268D01*
X0021153Y0095661D01*
X0021196Y0096053D01*
X0021249Y0096445D01*
X0021311Y0096834D01*
X0021382Y0097222D01*
X0021463Y0097609D01*
X0021553Y0097993D01*
X0021652Y0098375D01*
X0021761Y0098754D01*
X0021879Y0099131D01*
X0022006Y0099505D01*
X0022142Y0099875D01*
X0022287Y0100243D01*
X0022440Y0100606D01*
X0022603Y0100966D01*
X0022774Y0101321D01*
X0022954Y0101673D01*
X0023142Y0102019D01*
X0023339Y0102362D01*
X0023544Y0102699D01*
X0023757Y0103031D01*
X0023978Y0103358D01*
X0024207Y0103680D01*
X0024443Y0103996D01*
X0024688Y0104306D01*
X0024939Y0104610D01*
X0025198Y0104908D01*
X0025464Y0105199D01*
X0025737Y0105484D01*
X0026017Y0105762D01*
X0026304Y0106034D01*
X0026597Y0106298D01*
X0026897Y0106555D01*
X0027202Y0106805D01*
X0027514Y0107047D01*
X0027831Y0107282D01*
X0028154Y0107509D01*
X0038185Y0122666D02*
X0038187Y0122754D01*
X0038193Y0122842D01*
X0038203Y0122930D01*
X0038217Y0123018D01*
X0038234Y0123104D01*
X0038256Y0123190D01*
X0038281Y0123274D01*
X0038311Y0123358D01*
X0038343Y0123440D01*
X0038380Y0123520D01*
X0038420Y0123599D01*
X0038464Y0123676D01*
X0038511Y0123751D01*
X0038561Y0123823D01*
X0038615Y0123894D01*
X0038671Y0123961D01*
X0038731Y0124027D01*
X0038793Y0124089D01*
X0038859Y0124149D01*
X0038926Y0124205D01*
X0038997Y0124259D01*
X0039069Y0124309D01*
X0039144Y0124356D01*
X0039221Y0124400D01*
X0039300Y0124440D01*
X0039380Y0124477D01*
X0039462Y0124509D01*
X0039546Y0124539D01*
X0039630Y0124564D01*
X0039716Y0124586D01*
X0039802Y0124603D01*
X0039890Y0124617D01*
X0039978Y0124627D01*
X0040066Y0124633D01*
X0040154Y0124635D01*
X0040242Y0124633D01*
X0040330Y0124627D01*
X0040418Y0124617D01*
X0040506Y0124603D01*
X0040592Y0124586D01*
X0040678Y0124564D01*
X0040762Y0124539D01*
X0040846Y0124509D01*
X0040928Y0124477D01*
X0041008Y0124440D01*
X0041087Y0124400D01*
X0041164Y0124356D01*
X0041239Y0124309D01*
X0041311Y0124259D01*
X0041382Y0124205D01*
X0041449Y0124149D01*
X0041515Y0124089D01*
X0041577Y0124027D01*
X0041637Y0123961D01*
X0041693Y0123894D01*
X0041747Y0123823D01*
X0041797Y0123751D01*
X0041844Y0123676D01*
X0041888Y0123599D01*
X0041928Y0123520D01*
X0041965Y0123440D01*
X0041997Y0123358D01*
X0042027Y0123274D01*
X0042052Y0123190D01*
X0042074Y0123104D01*
X0042091Y0123018D01*
X0042105Y0122930D01*
X0042115Y0122842D01*
X0042121Y0122754D01*
X0042123Y0122666D01*
X0042121Y0122578D01*
X0042115Y0122490D01*
X0042105Y0122402D01*
X0042091Y0122314D01*
X0042074Y0122228D01*
X0042052Y0122142D01*
X0042027Y0122058D01*
X0041997Y0121974D01*
X0041965Y0121892D01*
X0041928Y0121812D01*
X0041888Y0121733D01*
X0041844Y0121656D01*
X0041797Y0121581D01*
X0041747Y0121509D01*
X0041693Y0121438D01*
X0041637Y0121371D01*
X0041577Y0121305D01*
X0041515Y0121243D01*
X0041449Y0121183D01*
X0041382Y0121127D01*
X0041311Y0121073D01*
X0041239Y0121023D01*
X0041164Y0120976D01*
X0041087Y0120932D01*
X0041008Y0120892D01*
X0040928Y0120855D01*
X0040846Y0120823D01*
X0040762Y0120793D01*
X0040678Y0120768D01*
X0040592Y0120746D01*
X0040506Y0120729D01*
X0040418Y0120715D01*
X0040330Y0120705D01*
X0040242Y0120699D01*
X0040154Y0120697D01*
X0040066Y0120699D01*
X0039978Y0120705D01*
X0039890Y0120715D01*
X0039802Y0120729D01*
X0039716Y0120746D01*
X0039630Y0120768D01*
X0039546Y0120793D01*
X0039462Y0120823D01*
X0039380Y0120855D01*
X0039300Y0120892D01*
X0039221Y0120932D01*
X0039144Y0120976D01*
X0039069Y0121023D01*
X0038997Y0121073D01*
X0038926Y0121127D01*
X0038859Y0121183D01*
X0038793Y0121243D01*
X0038731Y0121305D01*
X0038671Y0121371D01*
X0038615Y0121438D01*
X0038561Y0121509D01*
X0038511Y0121581D01*
X0038464Y0121656D01*
X0038420Y0121733D01*
X0038380Y0121812D01*
X0038343Y0121892D01*
X0038311Y0121974D01*
X0038281Y0122058D01*
X0038256Y0122142D01*
X0038234Y0122228D01*
X0038217Y0122314D01*
X0038203Y0122402D01*
X0038193Y0122490D01*
X0038187Y0122578D01*
X0038185Y0122666D01*
X0052154Y0107509D02*
X0058154Y0101509D01*
X0058154Y0094509D01*
D15*
X0081886Y0061643D03*
X0081886Y0051406D03*
X0067320Y0051406D03*
X0022241Y0027784D03*
M02*
