G75*
%MOIN*%
%OFA0B0*%
%FSLAX25Y25*%
%IPPOS*%
%LPD*%
%AMOC8*
5,1,8,0,0,1.08239X$1,22.5*
%
%ADD10C,0.00000*%
%ADD11C,0.00394*%
D10*
X0009674Y0009674D02*
X0009674Y0127784D01*
X0127784Y0127784D01*
X0127784Y0009674D01*
X0009674Y0009674D01*
X0088060Y0034871D02*
X0088062Y0034940D01*
X0088068Y0035008D01*
X0088078Y0035076D01*
X0088092Y0035143D01*
X0088110Y0035210D01*
X0088131Y0035275D01*
X0088157Y0035339D01*
X0088186Y0035401D01*
X0088218Y0035461D01*
X0088254Y0035520D01*
X0088294Y0035576D01*
X0088336Y0035630D01*
X0088382Y0035681D01*
X0088431Y0035730D01*
X0088482Y0035776D01*
X0088536Y0035818D01*
X0088592Y0035858D01*
X0088650Y0035894D01*
X0088711Y0035926D01*
X0088773Y0035955D01*
X0088837Y0035981D01*
X0088902Y0036002D01*
X0088969Y0036020D01*
X0089036Y0036034D01*
X0089104Y0036044D01*
X0089172Y0036050D01*
X0089241Y0036052D01*
X0089310Y0036050D01*
X0089378Y0036044D01*
X0089446Y0036034D01*
X0089513Y0036020D01*
X0089580Y0036002D01*
X0089645Y0035981D01*
X0089709Y0035955D01*
X0089771Y0035926D01*
X0089831Y0035894D01*
X0089890Y0035858D01*
X0089946Y0035818D01*
X0090000Y0035776D01*
X0090051Y0035730D01*
X0090100Y0035681D01*
X0090146Y0035630D01*
X0090188Y0035576D01*
X0090228Y0035520D01*
X0090264Y0035461D01*
X0090296Y0035401D01*
X0090325Y0035339D01*
X0090351Y0035275D01*
X0090372Y0035210D01*
X0090390Y0035143D01*
X0090404Y0035076D01*
X0090414Y0035008D01*
X0090420Y0034940D01*
X0090422Y0034871D01*
X0090420Y0034802D01*
X0090414Y0034734D01*
X0090404Y0034666D01*
X0090390Y0034599D01*
X0090372Y0034532D01*
X0090351Y0034467D01*
X0090325Y0034403D01*
X0090296Y0034341D01*
X0090264Y0034280D01*
X0090228Y0034222D01*
X0090188Y0034166D01*
X0090146Y0034112D01*
X0090100Y0034061D01*
X0090051Y0034012D01*
X0090000Y0033966D01*
X0089946Y0033924D01*
X0089890Y0033884D01*
X0089832Y0033848D01*
X0089771Y0033816D01*
X0089709Y0033787D01*
X0089645Y0033761D01*
X0089580Y0033740D01*
X0089513Y0033722D01*
X0089446Y0033708D01*
X0089378Y0033698D01*
X0089310Y0033692D01*
X0089241Y0033690D01*
X0089172Y0033692D01*
X0089104Y0033698D01*
X0089036Y0033708D01*
X0088969Y0033722D01*
X0088902Y0033740D01*
X0088837Y0033761D01*
X0088773Y0033787D01*
X0088711Y0033816D01*
X0088650Y0033848D01*
X0088592Y0033884D01*
X0088536Y0033924D01*
X0088482Y0033966D01*
X0088431Y0034012D01*
X0088382Y0034061D01*
X0088336Y0034112D01*
X0088294Y0034166D01*
X0088254Y0034222D01*
X0088218Y0034280D01*
X0088186Y0034341D01*
X0088157Y0034403D01*
X0088131Y0034467D01*
X0088110Y0034532D01*
X0088092Y0034599D01*
X0088078Y0034666D01*
X0088068Y0034734D01*
X0088062Y0034802D01*
X0088060Y0034871D01*
X0110816Y0034871D02*
X0110818Y0034940D01*
X0110824Y0035008D01*
X0110834Y0035076D01*
X0110848Y0035143D01*
X0110866Y0035210D01*
X0110887Y0035275D01*
X0110913Y0035339D01*
X0110942Y0035401D01*
X0110974Y0035461D01*
X0111010Y0035520D01*
X0111050Y0035576D01*
X0111092Y0035630D01*
X0111138Y0035681D01*
X0111187Y0035730D01*
X0111238Y0035776D01*
X0111292Y0035818D01*
X0111348Y0035858D01*
X0111406Y0035894D01*
X0111467Y0035926D01*
X0111529Y0035955D01*
X0111593Y0035981D01*
X0111658Y0036002D01*
X0111725Y0036020D01*
X0111792Y0036034D01*
X0111860Y0036044D01*
X0111928Y0036050D01*
X0111997Y0036052D01*
X0112066Y0036050D01*
X0112134Y0036044D01*
X0112202Y0036034D01*
X0112269Y0036020D01*
X0112336Y0036002D01*
X0112401Y0035981D01*
X0112465Y0035955D01*
X0112527Y0035926D01*
X0112587Y0035894D01*
X0112646Y0035858D01*
X0112702Y0035818D01*
X0112756Y0035776D01*
X0112807Y0035730D01*
X0112856Y0035681D01*
X0112902Y0035630D01*
X0112944Y0035576D01*
X0112984Y0035520D01*
X0113020Y0035461D01*
X0113052Y0035401D01*
X0113081Y0035339D01*
X0113107Y0035275D01*
X0113128Y0035210D01*
X0113146Y0035143D01*
X0113160Y0035076D01*
X0113170Y0035008D01*
X0113176Y0034940D01*
X0113178Y0034871D01*
X0113176Y0034802D01*
X0113170Y0034734D01*
X0113160Y0034666D01*
X0113146Y0034599D01*
X0113128Y0034532D01*
X0113107Y0034467D01*
X0113081Y0034403D01*
X0113052Y0034341D01*
X0113020Y0034280D01*
X0112984Y0034222D01*
X0112944Y0034166D01*
X0112902Y0034112D01*
X0112856Y0034061D01*
X0112807Y0034012D01*
X0112756Y0033966D01*
X0112702Y0033924D01*
X0112646Y0033884D01*
X0112588Y0033848D01*
X0112527Y0033816D01*
X0112465Y0033787D01*
X0112401Y0033761D01*
X0112336Y0033740D01*
X0112269Y0033722D01*
X0112202Y0033708D01*
X0112134Y0033698D01*
X0112066Y0033692D01*
X0111997Y0033690D01*
X0111928Y0033692D01*
X0111860Y0033698D01*
X0111792Y0033708D01*
X0111725Y0033722D01*
X0111658Y0033740D01*
X0111593Y0033761D01*
X0111529Y0033787D01*
X0111467Y0033816D01*
X0111406Y0033848D01*
X0111348Y0033884D01*
X0111292Y0033924D01*
X0111238Y0033966D01*
X0111187Y0034012D01*
X0111138Y0034061D01*
X0111092Y0034112D01*
X0111050Y0034166D01*
X0111010Y0034222D01*
X0110974Y0034280D01*
X0110942Y0034341D01*
X0110913Y0034403D01*
X0110887Y0034467D01*
X0110866Y0034532D01*
X0110848Y0034599D01*
X0110834Y0034666D01*
X0110824Y0034734D01*
X0110818Y0034802D01*
X0110816Y0034871D01*
D11*
X0116446Y0034674D02*
X0116446Y0039005D01*
X0116448Y0039072D01*
X0116454Y0039140D01*
X0116463Y0039206D01*
X0116477Y0039272D01*
X0116494Y0039338D01*
X0116515Y0039402D01*
X0116539Y0039465D01*
X0116567Y0039526D01*
X0116599Y0039586D01*
X0116633Y0039643D01*
X0116672Y0039699D01*
X0116713Y0039753D01*
X0116757Y0039804D01*
X0116804Y0039852D01*
X0116854Y0039898D01*
X0116906Y0039940D01*
X0116960Y0039980D01*
X0117017Y0040016D01*
X0117076Y0040050D01*
X0117136Y0040079D01*
X0117199Y0040106D01*
X0117262Y0040128D01*
X0117327Y0040147D01*
X0117392Y0040162D01*
X0117459Y0040174D01*
X0117526Y0040182D01*
X0117593Y0040186D01*
X0117661Y0040186D01*
X0117728Y0040182D01*
X0117795Y0040174D01*
X0117862Y0040162D01*
X0117927Y0040147D01*
X0117992Y0040128D01*
X0118055Y0040106D01*
X0118118Y0040079D01*
X0118178Y0040050D01*
X0118237Y0040016D01*
X0118294Y0039980D01*
X0118348Y0039940D01*
X0118400Y0039898D01*
X0118450Y0039852D01*
X0118497Y0039804D01*
X0118541Y0039753D01*
X0118582Y0039699D01*
X0118621Y0039643D01*
X0118655Y0039586D01*
X0118687Y0039526D01*
X0118715Y0039465D01*
X0118739Y0039402D01*
X0118760Y0039338D01*
X0118777Y0039272D01*
X0118791Y0039206D01*
X0118800Y0039140D01*
X0118806Y0039072D01*
X0118808Y0039005D01*
X0118808Y0034674D01*
X0118806Y0034607D01*
X0118800Y0034539D01*
X0118791Y0034473D01*
X0118777Y0034407D01*
X0118760Y0034341D01*
X0118739Y0034277D01*
X0118715Y0034214D01*
X0118687Y0034153D01*
X0118655Y0034093D01*
X0118621Y0034036D01*
X0118582Y0033980D01*
X0118541Y0033926D01*
X0118497Y0033875D01*
X0118450Y0033827D01*
X0118400Y0033781D01*
X0118348Y0033739D01*
X0118294Y0033699D01*
X0118237Y0033663D01*
X0118178Y0033629D01*
X0118118Y0033600D01*
X0118055Y0033573D01*
X0117992Y0033551D01*
X0117927Y0033532D01*
X0117862Y0033517D01*
X0117795Y0033505D01*
X0117728Y0033497D01*
X0117661Y0033493D01*
X0117593Y0033493D01*
X0117526Y0033497D01*
X0117459Y0033505D01*
X0117392Y0033517D01*
X0117327Y0033532D01*
X0117262Y0033551D01*
X0117199Y0033573D01*
X0117136Y0033600D01*
X0117076Y0033629D01*
X0117017Y0033663D01*
X0116960Y0033699D01*
X0116906Y0033739D01*
X0116854Y0033781D01*
X0116804Y0033827D01*
X0116757Y0033875D01*
X0116713Y0033926D01*
X0116672Y0033980D01*
X0116633Y0034036D01*
X0116599Y0034093D01*
X0116567Y0034153D01*
X0116539Y0034214D01*
X0116515Y0034277D01*
X0116494Y0034341D01*
X0116477Y0034407D01*
X0116463Y0034473D01*
X0116454Y0034539D01*
X0116448Y0034607D01*
X0116446Y0034674D01*
X0116446Y0021957D02*
X0116446Y0018808D01*
X0116448Y0018741D01*
X0116454Y0018673D01*
X0116463Y0018607D01*
X0116477Y0018541D01*
X0116494Y0018475D01*
X0116515Y0018411D01*
X0116539Y0018348D01*
X0116567Y0018287D01*
X0116599Y0018227D01*
X0116633Y0018170D01*
X0116672Y0018114D01*
X0116713Y0018060D01*
X0116757Y0018009D01*
X0116804Y0017961D01*
X0116854Y0017915D01*
X0116906Y0017873D01*
X0116960Y0017833D01*
X0117017Y0017797D01*
X0117076Y0017763D01*
X0117136Y0017734D01*
X0117199Y0017707D01*
X0117262Y0017685D01*
X0117327Y0017666D01*
X0117392Y0017651D01*
X0117459Y0017639D01*
X0117526Y0017631D01*
X0117593Y0017627D01*
X0117661Y0017627D01*
X0117728Y0017631D01*
X0117795Y0017639D01*
X0117862Y0017651D01*
X0117927Y0017666D01*
X0117992Y0017685D01*
X0118055Y0017707D01*
X0118118Y0017734D01*
X0118178Y0017763D01*
X0118237Y0017797D01*
X0118294Y0017833D01*
X0118348Y0017873D01*
X0118400Y0017915D01*
X0118450Y0017961D01*
X0118497Y0018009D01*
X0118541Y0018060D01*
X0118582Y0018114D01*
X0118621Y0018170D01*
X0118655Y0018227D01*
X0118687Y0018287D01*
X0118715Y0018348D01*
X0118739Y0018411D01*
X0118760Y0018475D01*
X0118777Y0018541D01*
X0118791Y0018607D01*
X0118800Y0018673D01*
X0118806Y0018741D01*
X0118808Y0018808D01*
X0118808Y0021957D01*
X0118806Y0022024D01*
X0118800Y0022092D01*
X0118791Y0022158D01*
X0118777Y0022224D01*
X0118760Y0022290D01*
X0118739Y0022354D01*
X0118715Y0022417D01*
X0118687Y0022478D01*
X0118655Y0022538D01*
X0118621Y0022595D01*
X0118582Y0022651D01*
X0118541Y0022705D01*
X0118497Y0022756D01*
X0118450Y0022804D01*
X0118400Y0022850D01*
X0118348Y0022892D01*
X0118294Y0022932D01*
X0118237Y0022968D01*
X0118178Y0023002D01*
X0118118Y0023031D01*
X0118055Y0023058D01*
X0117992Y0023080D01*
X0117927Y0023099D01*
X0117862Y0023114D01*
X0117795Y0023126D01*
X0117728Y0023134D01*
X0117661Y0023138D01*
X0117593Y0023138D01*
X0117526Y0023134D01*
X0117459Y0023126D01*
X0117392Y0023114D01*
X0117327Y0023099D01*
X0117262Y0023080D01*
X0117199Y0023058D01*
X0117136Y0023031D01*
X0117076Y0023002D01*
X0117017Y0022968D01*
X0116960Y0022932D01*
X0116906Y0022892D01*
X0116854Y0022850D01*
X0116804Y0022804D01*
X0116757Y0022756D01*
X0116713Y0022705D01*
X0116672Y0022651D01*
X0116633Y0022595D01*
X0116599Y0022538D01*
X0116567Y0022478D01*
X0116539Y0022417D01*
X0116515Y0022354D01*
X0116494Y0022290D01*
X0116477Y0022224D01*
X0116463Y0022158D01*
X0116454Y0022092D01*
X0116448Y0022024D01*
X0116446Y0021957D01*
X0084792Y0021957D02*
X0084792Y0018808D01*
X0084790Y0018741D01*
X0084784Y0018673D01*
X0084775Y0018607D01*
X0084761Y0018541D01*
X0084744Y0018475D01*
X0084723Y0018411D01*
X0084699Y0018348D01*
X0084671Y0018287D01*
X0084639Y0018227D01*
X0084605Y0018170D01*
X0084566Y0018114D01*
X0084525Y0018060D01*
X0084481Y0018009D01*
X0084434Y0017961D01*
X0084384Y0017915D01*
X0084332Y0017873D01*
X0084278Y0017833D01*
X0084221Y0017797D01*
X0084162Y0017763D01*
X0084102Y0017734D01*
X0084039Y0017707D01*
X0083976Y0017685D01*
X0083911Y0017666D01*
X0083846Y0017651D01*
X0083779Y0017639D01*
X0083712Y0017631D01*
X0083645Y0017627D01*
X0083577Y0017627D01*
X0083510Y0017631D01*
X0083443Y0017639D01*
X0083376Y0017651D01*
X0083311Y0017666D01*
X0083246Y0017685D01*
X0083183Y0017707D01*
X0083120Y0017734D01*
X0083060Y0017763D01*
X0083001Y0017797D01*
X0082944Y0017833D01*
X0082890Y0017873D01*
X0082838Y0017915D01*
X0082788Y0017961D01*
X0082741Y0018009D01*
X0082697Y0018060D01*
X0082656Y0018114D01*
X0082617Y0018170D01*
X0082583Y0018227D01*
X0082551Y0018287D01*
X0082523Y0018348D01*
X0082499Y0018411D01*
X0082478Y0018475D01*
X0082461Y0018541D01*
X0082447Y0018607D01*
X0082438Y0018673D01*
X0082432Y0018741D01*
X0082430Y0018808D01*
X0082430Y0021957D01*
X0082432Y0022024D01*
X0082438Y0022092D01*
X0082447Y0022158D01*
X0082461Y0022224D01*
X0082478Y0022290D01*
X0082499Y0022354D01*
X0082523Y0022417D01*
X0082551Y0022478D01*
X0082583Y0022538D01*
X0082617Y0022595D01*
X0082656Y0022651D01*
X0082697Y0022705D01*
X0082741Y0022756D01*
X0082788Y0022804D01*
X0082838Y0022850D01*
X0082890Y0022892D01*
X0082944Y0022932D01*
X0083001Y0022968D01*
X0083060Y0023002D01*
X0083120Y0023031D01*
X0083183Y0023058D01*
X0083246Y0023080D01*
X0083311Y0023099D01*
X0083376Y0023114D01*
X0083443Y0023126D01*
X0083510Y0023134D01*
X0083577Y0023138D01*
X0083645Y0023138D01*
X0083712Y0023134D01*
X0083779Y0023126D01*
X0083846Y0023114D01*
X0083911Y0023099D01*
X0083976Y0023080D01*
X0084039Y0023058D01*
X0084102Y0023031D01*
X0084162Y0023002D01*
X0084221Y0022968D01*
X0084278Y0022932D01*
X0084332Y0022892D01*
X0084384Y0022850D01*
X0084434Y0022804D01*
X0084481Y0022756D01*
X0084525Y0022705D01*
X0084566Y0022651D01*
X0084605Y0022595D01*
X0084639Y0022538D01*
X0084671Y0022478D01*
X0084699Y0022417D01*
X0084723Y0022354D01*
X0084744Y0022290D01*
X0084761Y0022224D01*
X0084775Y0022158D01*
X0084784Y0022092D01*
X0084790Y0022024D01*
X0084792Y0021957D01*
X0084792Y0034674D02*
X0084792Y0039005D01*
X0084790Y0039072D01*
X0084784Y0039140D01*
X0084775Y0039206D01*
X0084761Y0039272D01*
X0084744Y0039338D01*
X0084723Y0039402D01*
X0084699Y0039465D01*
X0084671Y0039526D01*
X0084639Y0039586D01*
X0084605Y0039643D01*
X0084566Y0039699D01*
X0084525Y0039753D01*
X0084481Y0039804D01*
X0084434Y0039852D01*
X0084384Y0039898D01*
X0084332Y0039940D01*
X0084278Y0039980D01*
X0084221Y0040016D01*
X0084162Y0040050D01*
X0084102Y0040079D01*
X0084039Y0040106D01*
X0083976Y0040128D01*
X0083911Y0040147D01*
X0083846Y0040162D01*
X0083779Y0040174D01*
X0083712Y0040182D01*
X0083645Y0040186D01*
X0083577Y0040186D01*
X0083510Y0040182D01*
X0083443Y0040174D01*
X0083376Y0040162D01*
X0083311Y0040147D01*
X0083246Y0040128D01*
X0083183Y0040106D01*
X0083120Y0040079D01*
X0083060Y0040050D01*
X0083001Y0040016D01*
X0082944Y0039980D01*
X0082890Y0039940D01*
X0082838Y0039898D01*
X0082788Y0039852D01*
X0082741Y0039804D01*
X0082697Y0039753D01*
X0082656Y0039699D01*
X0082617Y0039643D01*
X0082583Y0039586D01*
X0082551Y0039526D01*
X0082523Y0039465D01*
X0082499Y0039402D01*
X0082478Y0039338D01*
X0082461Y0039272D01*
X0082447Y0039206D01*
X0082438Y0039140D01*
X0082432Y0039072D01*
X0082430Y0039005D01*
X0082430Y0034674D01*
X0082432Y0034607D01*
X0082438Y0034539D01*
X0082447Y0034473D01*
X0082461Y0034407D01*
X0082478Y0034341D01*
X0082499Y0034277D01*
X0082523Y0034214D01*
X0082551Y0034153D01*
X0082583Y0034093D01*
X0082617Y0034036D01*
X0082656Y0033980D01*
X0082697Y0033926D01*
X0082741Y0033875D01*
X0082788Y0033827D01*
X0082838Y0033781D01*
X0082890Y0033739D01*
X0082944Y0033699D01*
X0083001Y0033663D01*
X0083060Y0033629D01*
X0083120Y0033600D01*
X0083183Y0033573D01*
X0083246Y0033551D01*
X0083311Y0033532D01*
X0083376Y0033517D01*
X0083443Y0033505D01*
X0083510Y0033497D01*
X0083577Y0033493D01*
X0083645Y0033493D01*
X0083712Y0033497D01*
X0083779Y0033505D01*
X0083846Y0033517D01*
X0083911Y0033532D01*
X0083976Y0033551D01*
X0084039Y0033573D01*
X0084102Y0033600D01*
X0084162Y0033629D01*
X0084221Y0033663D01*
X0084278Y0033699D01*
X0084332Y0033739D01*
X0084384Y0033781D01*
X0084434Y0033827D01*
X0084481Y0033875D01*
X0084525Y0033926D01*
X0084566Y0033980D01*
X0084605Y0034036D01*
X0084639Y0034093D01*
X0084671Y0034153D01*
X0084699Y0034214D01*
X0084723Y0034277D01*
X0084744Y0034341D01*
X0084761Y0034407D01*
X0084775Y0034473D01*
X0084784Y0034539D01*
X0084790Y0034607D01*
X0084792Y0034674D01*
M02*
