G75*
%MOIN*%
%OFA0B0*%
%FSLAX25Y25*%
%IPPOS*%
%LPD*%
%AMOC8*
5,1,8,0,0,1.08239X$1,22.5*
%
%ADD10C,0.00000*%
%ADD11R,0.06500X0.06500*%
%ADD12C,0.06500*%
%ADD13R,0.06299X0.06299*%
%ADD14C,0.06299*%
%ADD15C,0.01600*%
%ADD16C,0.02400*%
%ADD17C,0.00600*%
%ADD18C,0.00800*%
D10*
X0009674Y0009674D02*
X0009674Y0127784D01*
X0127784Y0127784D01*
X0127784Y0009674D01*
X0009674Y0009674D01*
X0088060Y0034871D02*
X0088062Y0034940D01*
X0088068Y0035008D01*
X0088078Y0035076D01*
X0088092Y0035143D01*
X0088110Y0035210D01*
X0088131Y0035275D01*
X0088157Y0035339D01*
X0088186Y0035401D01*
X0088218Y0035461D01*
X0088254Y0035520D01*
X0088294Y0035576D01*
X0088336Y0035630D01*
X0088382Y0035681D01*
X0088431Y0035730D01*
X0088482Y0035776D01*
X0088536Y0035818D01*
X0088592Y0035858D01*
X0088650Y0035894D01*
X0088711Y0035926D01*
X0088773Y0035955D01*
X0088837Y0035981D01*
X0088902Y0036002D01*
X0088969Y0036020D01*
X0089036Y0036034D01*
X0089104Y0036044D01*
X0089172Y0036050D01*
X0089241Y0036052D01*
X0089310Y0036050D01*
X0089378Y0036044D01*
X0089446Y0036034D01*
X0089513Y0036020D01*
X0089580Y0036002D01*
X0089645Y0035981D01*
X0089709Y0035955D01*
X0089771Y0035926D01*
X0089831Y0035894D01*
X0089890Y0035858D01*
X0089946Y0035818D01*
X0090000Y0035776D01*
X0090051Y0035730D01*
X0090100Y0035681D01*
X0090146Y0035630D01*
X0090188Y0035576D01*
X0090228Y0035520D01*
X0090264Y0035461D01*
X0090296Y0035401D01*
X0090325Y0035339D01*
X0090351Y0035275D01*
X0090372Y0035210D01*
X0090390Y0035143D01*
X0090404Y0035076D01*
X0090414Y0035008D01*
X0090420Y0034940D01*
X0090422Y0034871D01*
X0090420Y0034802D01*
X0090414Y0034734D01*
X0090404Y0034666D01*
X0090390Y0034599D01*
X0090372Y0034532D01*
X0090351Y0034467D01*
X0090325Y0034403D01*
X0090296Y0034341D01*
X0090264Y0034280D01*
X0090228Y0034222D01*
X0090188Y0034166D01*
X0090146Y0034112D01*
X0090100Y0034061D01*
X0090051Y0034012D01*
X0090000Y0033966D01*
X0089946Y0033924D01*
X0089890Y0033884D01*
X0089832Y0033848D01*
X0089771Y0033816D01*
X0089709Y0033787D01*
X0089645Y0033761D01*
X0089580Y0033740D01*
X0089513Y0033722D01*
X0089446Y0033708D01*
X0089378Y0033698D01*
X0089310Y0033692D01*
X0089241Y0033690D01*
X0089172Y0033692D01*
X0089104Y0033698D01*
X0089036Y0033708D01*
X0088969Y0033722D01*
X0088902Y0033740D01*
X0088837Y0033761D01*
X0088773Y0033787D01*
X0088711Y0033816D01*
X0088650Y0033848D01*
X0088592Y0033884D01*
X0088536Y0033924D01*
X0088482Y0033966D01*
X0088431Y0034012D01*
X0088382Y0034061D01*
X0088336Y0034112D01*
X0088294Y0034166D01*
X0088254Y0034222D01*
X0088218Y0034280D01*
X0088186Y0034341D01*
X0088157Y0034403D01*
X0088131Y0034467D01*
X0088110Y0034532D01*
X0088092Y0034599D01*
X0088078Y0034666D01*
X0088068Y0034734D01*
X0088062Y0034802D01*
X0088060Y0034871D01*
X0110816Y0034871D02*
X0110818Y0034940D01*
X0110824Y0035008D01*
X0110834Y0035076D01*
X0110848Y0035143D01*
X0110866Y0035210D01*
X0110887Y0035275D01*
X0110913Y0035339D01*
X0110942Y0035401D01*
X0110974Y0035461D01*
X0111010Y0035520D01*
X0111050Y0035576D01*
X0111092Y0035630D01*
X0111138Y0035681D01*
X0111187Y0035730D01*
X0111238Y0035776D01*
X0111292Y0035818D01*
X0111348Y0035858D01*
X0111406Y0035894D01*
X0111467Y0035926D01*
X0111529Y0035955D01*
X0111593Y0035981D01*
X0111658Y0036002D01*
X0111725Y0036020D01*
X0111792Y0036034D01*
X0111860Y0036044D01*
X0111928Y0036050D01*
X0111997Y0036052D01*
X0112066Y0036050D01*
X0112134Y0036044D01*
X0112202Y0036034D01*
X0112269Y0036020D01*
X0112336Y0036002D01*
X0112401Y0035981D01*
X0112465Y0035955D01*
X0112527Y0035926D01*
X0112587Y0035894D01*
X0112646Y0035858D01*
X0112702Y0035818D01*
X0112756Y0035776D01*
X0112807Y0035730D01*
X0112856Y0035681D01*
X0112902Y0035630D01*
X0112944Y0035576D01*
X0112984Y0035520D01*
X0113020Y0035461D01*
X0113052Y0035401D01*
X0113081Y0035339D01*
X0113107Y0035275D01*
X0113128Y0035210D01*
X0113146Y0035143D01*
X0113160Y0035076D01*
X0113170Y0035008D01*
X0113176Y0034940D01*
X0113178Y0034871D01*
X0113176Y0034802D01*
X0113170Y0034734D01*
X0113160Y0034666D01*
X0113146Y0034599D01*
X0113128Y0034532D01*
X0113107Y0034467D01*
X0113081Y0034403D01*
X0113052Y0034341D01*
X0113020Y0034280D01*
X0112984Y0034222D01*
X0112944Y0034166D01*
X0112902Y0034112D01*
X0112856Y0034061D01*
X0112807Y0034012D01*
X0112756Y0033966D01*
X0112702Y0033924D01*
X0112646Y0033884D01*
X0112588Y0033848D01*
X0112527Y0033816D01*
X0112465Y0033787D01*
X0112401Y0033761D01*
X0112336Y0033740D01*
X0112269Y0033722D01*
X0112202Y0033708D01*
X0112134Y0033698D01*
X0112066Y0033692D01*
X0111997Y0033690D01*
X0111928Y0033692D01*
X0111860Y0033698D01*
X0111792Y0033708D01*
X0111725Y0033722D01*
X0111658Y0033740D01*
X0111593Y0033761D01*
X0111529Y0033787D01*
X0111467Y0033816D01*
X0111406Y0033848D01*
X0111348Y0033884D01*
X0111292Y0033924D01*
X0111238Y0033966D01*
X0111187Y0034012D01*
X0111138Y0034061D01*
X0111092Y0034112D01*
X0111050Y0034166D01*
X0111010Y0034222D01*
X0110974Y0034280D01*
X0110942Y0034341D01*
X0110913Y0034403D01*
X0110887Y0034467D01*
X0110866Y0034532D01*
X0110848Y0034599D01*
X0110834Y0034666D01*
X0110824Y0034734D01*
X0110818Y0034802D01*
X0110816Y0034871D01*
D11*
X0056524Y0080540D03*
D12*
X0056524Y0090540D03*
X0056524Y0100540D03*
X0056524Y0110540D03*
X0056524Y0120540D03*
D13*
X0076209Y0073060D03*
D14*
X0076209Y0083060D03*
D15*
X0078518Y0078009D02*
X0079353Y0078355D01*
X0080914Y0079916D01*
X0081098Y0080360D01*
X0082022Y0080360D01*
X0083014Y0080771D01*
X0083121Y0080877D01*
X0083618Y0080877D01*
X0084942Y0081425D01*
X0085954Y0082438D01*
X0086502Y0083761D01*
X0086502Y0084477D01*
X0114957Y0084477D01*
X0116045Y0084027D01*
X0117477Y0084027D01*
X0118564Y0084477D01*
X0125384Y0084477D01*
X0125384Y0012074D01*
X0012074Y0012074D01*
X0012074Y0125384D01*
X0045107Y0125384D01*
X0045107Y0084477D01*
X0051595Y0084477D01*
X0051474Y0084027D01*
X0051474Y0080615D01*
X0056449Y0080615D01*
X0056449Y0080465D01*
X0051474Y0080465D01*
X0051474Y0077053D01*
X0051597Y0076595D01*
X0051834Y0076185D01*
X0052169Y0075850D01*
X0052580Y0075613D01*
X0053037Y0075490D01*
X0056449Y0075490D01*
X0056449Y0080465D01*
X0056599Y0080465D01*
X0056599Y0075490D01*
X0060011Y0075490D01*
X0060469Y0075613D01*
X0060880Y0075850D01*
X0061215Y0076185D01*
X0061452Y0076595D01*
X0061574Y0077053D01*
X0061574Y0080465D01*
X0056599Y0080465D01*
X0056599Y0080615D01*
X0061574Y0080615D01*
X0061574Y0084027D01*
X0061454Y0084477D01*
X0063730Y0084477D01*
X0069854Y0078353D01*
X0069854Y0077856D01*
X0070402Y0076532D01*
X0071260Y0075674D01*
X0071260Y0073835D01*
X0075435Y0073835D01*
X0075435Y0072285D01*
X0076984Y0072285D01*
X0076984Y0068110D01*
X0079596Y0068110D01*
X0080054Y0068233D01*
X0080464Y0068470D01*
X0080799Y0068805D01*
X0081036Y0069215D01*
X0081159Y0069673D01*
X0081159Y0072285D01*
X0076984Y0072285D01*
X0076984Y0073835D01*
X0081159Y0073835D01*
X0081159Y0076446D01*
X0081036Y0076904D01*
X0080799Y0077315D01*
X0080464Y0077650D01*
X0080054Y0077887D01*
X0079596Y0078009D01*
X0078518Y0078009D01*
X0079408Y0078410D02*
X0097145Y0078410D01*
X0097019Y0078107D02*
X0097567Y0079430D01*
X0098580Y0080442D01*
X0099903Y0080991D01*
X0101335Y0080991D01*
X0102658Y0080442D01*
X0103572Y0079529D01*
X0104485Y0080442D01*
X0105808Y0080991D01*
X0107240Y0080991D01*
X0108564Y0080442D01*
X0109576Y0079430D01*
X0110124Y0078107D01*
X0110124Y0077115D01*
X0110926Y0077447D01*
X0112359Y0077447D01*
X0113682Y0076899D01*
X0114694Y0075886D01*
X0115243Y0074563D01*
X0115243Y0073131D01*
X0114694Y0071808D01*
X0114371Y0071485D01*
X0114694Y0071162D01*
X0115243Y0069839D01*
X0115243Y0068407D01*
X0114694Y0067084D01*
X0113682Y0066071D01*
X0112359Y0065523D01*
X0111861Y0065523D01*
X0111117Y0064779D01*
X0111320Y0064694D01*
X0112332Y0063682D01*
X0112880Y0062359D01*
X0112880Y0060926D01*
X0112332Y0059603D01*
X0111320Y0058591D01*
X0109996Y0058043D01*
X0108564Y0058043D01*
X0107241Y0058591D01*
X0106889Y0058943D01*
X0101435Y0058943D01*
X0101083Y0058591D01*
X0099760Y0058043D01*
X0098328Y0058043D01*
X0097005Y0058591D01*
X0095992Y0059603D01*
X0095908Y0059806D01*
X0095849Y0059747D01*
X0094857Y0059336D01*
X0091895Y0059336D01*
X0075760Y0043201D01*
X0075760Y0026460D01*
X0075349Y0025467D01*
X0071148Y0021267D01*
X0071148Y0020769D01*
X0070600Y0019446D01*
X0069587Y0018433D01*
X0068264Y0017885D01*
X0066832Y0017885D01*
X0065509Y0018433D01*
X0064496Y0019446D01*
X0063948Y0020769D01*
X0063948Y0022201D01*
X0064385Y0023257D01*
X0063948Y0024312D01*
X0063948Y0025744D01*
X0064496Y0027068D01*
X0064622Y0027194D01*
X0064496Y0027320D01*
X0063948Y0028643D01*
X0063948Y0030075D01*
X0064164Y0030596D01*
X0053797Y0030596D01*
X0053446Y0030244D01*
X0052122Y0029696D01*
X0050690Y0029696D01*
X0049367Y0030244D01*
X0048998Y0030613D01*
X0047132Y0028747D01*
X0047132Y0027462D01*
X0046584Y0026139D01*
X0045572Y0025126D01*
X0044248Y0024578D01*
X0042816Y0024578D01*
X0041761Y0025015D01*
X0040705Y0024578D01*
X0039273Y0024578D01*
X0037950Y0025126D01*
X0036937Y0026139D01*
X0036389Y0027462D01*
X0036389Y0028894D01*
X0036937Y0030217D01*
X0037950Y0031230D01*
X0039273Y0031778D01*
X0040164Y0031778D01*
X0047908Y0039522D01*
X0048901Y0039933D01*
X0060911Y0039933D01*
X0060911Y0048006D01*
X0061322Y0048999D01*
X0063667Y0051344D01*
X0063667Y0053518D01*
X0064078Y0054511D01*
X0066834Y0057266D01*
X0067593Y0058026D01*
X0068586Y0058437D01*
X0073516Y0058437D01*
X0085741Y0070662D01*
X0085208Y0071950D01*
X0085208Y0073382D01*
X0085756Y0074705D01*
X0086769Y0075718D01*
X0088092Y0076266D01*
X0089524Y0076266D01*
X0090847Y0075718D01*
X0091761Y0074805D01*
X0092674Y0075718D01*
X0093997Y0076266D01*
X0095429Y0076266D01*
X0096753Y0075718D01*
X0096925Y0075546D01*
X0097322Y0075943D01*
X0097019Y0076674D01*
X0097019Y0078107D01*
X0097019Y0076811D02*
X0081061Y0076811D01*
X0081159Y0075213D02*
X0086264Y0075213D01*
X0085304Y0073614D02*
X0076984Y0073614D01*
X0075435Y0073614D02*
X0012074Y0073614D01*
X0012074Y0072016D02*
X0071260Y0072016D01*
X0071260Y0072285D02*
X0071260Y0069673D01*
X0071383Y0069215D01*
X0071619Y0068805D01*
X0071955Y0068470D01*
X0072365Y0068233D01*
X0072823Y0068110D01*
X0075435Y0068110D01*
X0075435Y0072285D01*
X0071260Y0072285D01*
X0071260Y0070417D02*
X0012074Y0070417D01*
X0012074Y0068819D02*
X0071611Y0068819D01*
X0075435Y0068819D02*
X0076984Y0068819D01*
X0076984Y0070417D02*
X0075435Y0070417D01*
X0075435Y0072016D02*
X0076984Y0072016D01*
X0081159Y0072016D02*
X0085208Y0072016D01*
X0085497Y0070417D02*
X0081159Y0070417D01*
X0080807Y0068819D02*
X0083898Y0068819D01*
X0082300Y0067220D02*
X0012074Y0067220D01*
X0012074Y0065622D02*
X0080701Y0065622D01*
X0079103Y0064023D02*
X0012074Y0064023D01*
X0012074Y0062425D02*
X0077504Y0062425D01*
X0075906Y0060826D02*
X0012074Y0060826D01*
X0012074Y0059228D02*
X0074307Y0059228D01*
X0067197Y0057629D02*
X0012074Y0057629D01*
X0012074Y0056031D02*
X0065598Y0056031D01*
X0064046Y0054432D02*
X0012074Y0054432D01*
X0012074Y0052834D02*
X0063667Y0052834D01*
X0063559Y0051235D02*
X0012074Y0051235D01*
X0012074Y0049637D02*
X0061960Y0049637D01*
X0060924Y0048038D02*
X0012074Y0048038D01*
X0012074Y0046440D02*
X0060911Y0046440D01*
X0060911Y0044841D02*
X0012074Y0044841D01*
X0012074Y0043243D02*
X0060911Y0043243D01*
X0060911Y0041644D02*
X0012074Y0041644D01*
X0012074Y0040046D02*
X0060911Y0040046D01*
X0064105Y0030455D02*
X0053656Y0030455D01*
X0049157Y0030455D02*
X0048840Y0030455D01*
X0047241Y0028856D02*
X0063948Y0028856D01*
X0064558Y0027258D02*
X0047048Y0027258D01*
X0046105Y0025659D02*
X0063948Y0025659D01*
X0064052Y0024061D02*
X0012074Y0024061D01*
X0012074Y0025659D02*
X0037417Y0025659D01*
X0036474Y0027258D02*
X0012074Y0027258D01*
X0012074Y0028856D02*
X0036389Y0028856D01*
X0037175Y0030455D02*
X0012074Y0030455D01*
X0012074Y0032053D02*
X0040440Y0032053D01*
X0042038Y0033652D02*
X0012074Y0033652D01*
X0012074Y0035250D02*
X0043637Y0035250D01*
X0045235Y0036849D02*
X0012074Y0036849D01*
X0012074Y0038447D02*
X0046834Y0038447D01*
X0064056Y0022462D02*
X0012074Y0022462D01*
X0012074Y0020864D02*
X0063948Y0020864D01*
X0064677Y0019265D02*
X0012074Y0019265D01*
X0012074Y0017667D02*
X0125384Y0017667D01*
X0125384Y0016068D02*
X0012074Y0016068D01*
X0012074Y0014470D02*
X0125384Y0014470D01*
X0125384Y0012871D02*
X0012074Y0012871D01*
X0070419Y0019265D02*
X0125384Y0019265D01*
X0125384Y0020864D02*
X0071148Y0020864D01*
X0072343Y0022462D02*
X0125384Y0022462D01*
X0125384Y0024061D02*
X0073942Y0024061D01*
X0075428Y0025659D02*
X0125384Y0025659D01*
X0125384Y0027258D02*
X0075760Y0027258D01*
X0075760Y0028856D02*
X0078708Y0028856D01*
X0078895Y0028669D02*
X0080218Y0028121D01*
X0081650Y0028121D01*
X0081680Y0028134D01*
X0085699Y0028134D01*
X0085730Y0028121D01*
X0087162Y0028121D01*
X0088485Y0028669D01*
X0089498Y0029682D01*
X0090046Y0031005D01*
X0090046Y0031328D01*
X0091269Y0031835D01*
X0092277Y0032842D01*
X0092822Y0034159D01*
X0092822Y0035583D01*
X0092277Y0036899D01*
X0091269Y0037907D01*
X0089953Y0038452D01*
X0088529Y0038452D01*
X0087212Y0037907D01*
X0086205Y0036899D01*
X0085660Y0035583D01*
X0085660Y0035292D01*
X0084406Y0034773D01*
X0083690Y0034057D01*
X0082973Y0034773D01*
X0081650Y0035321D01*
X0080218Y0035321D01*
X0078895Y0034773D01*
X0077882Y0033760D01*
X0077334Y0032437D01*
X0077334Y0031005D01*
X0077882Y0029682D01*
X0078895Y0028669D01*
X0077562Y0030455D02*
X0075760Y0030455D01*
X0075760Y0032053D02*
X0077334Y0032053D01*
X0077837Y0033652D02*
X0075760Y0033652D01*
X0075760Y0035250D02*
X0080046Y0035250D01*
X0081821Y0035250D02*
X0085558Y0035250D01*
X0086184Y0036849D02*
X0075760Y0036849D01*
X0075760Y0038447D02*
X0088517Y0038447D01*
X0089965Y0038447D02*
X0096106Y0038447D01*
X0096163Y0038471D02*
X0094839Y0037923D01*
X0093827Y0036910D01*
X0093279Y0035587D01*
X0093279Y0034155D01*
X0093827Y0032832D01*
X0094839Y0031819D01*
X0096163Y0031271D01*
X0097595Y0031271D01*
X0098918Y0031819D01*
X0099241Y0032142D01*
X0099564Y0031819D01*
X0100887Y0031271D01*
X0102319Y0031271D01*
X0103642Y0031819D01*
X0104655Y0032832D01*
X0105203Y0034155D01*
X0105203Y0035587D01*
X0104655Y0036910D01*
X0103642Y0037923D01*
X0102319Y0038471D01*
X0100887Y0038471D01*
X0100615Y0038358D01*
X0097867Y0038358D01*
X0097595Y0038471D01*
X0096163Y0038471D01*
X0097652Y0038447D02*
X0100830Y0038447D01*
X0102376Y0038447D02*
X0111273Y0038447D01*
X0111285Y0038452D02*
X0109968Y0037907D01*
X0108961Y0036899D01*
X0108416Y0035583D01*
X0108416Y0034159D01*
X0108961Y0032842D01*
X0109968Y0031835D01*
X0111285Y0031290D01*
X0112709Y0031290D01*
X0114025Y0031835D01*
X0115033Y0032842D01*
X0115578Y0034159D01*
X0115578Y0035583D01*
X0115033Y0036899D01*
X0114025Y0037907D01*
X0112709Y0038452D01*
X0111285Y0038452D01*
X0111786Y0039257D02*
X0112778Y0039669D01*
X0113436Y0040326D01*
X0113933Y0040326D01*
X0115257Y0040874D01*
X0116269Y0041887D01*
X0116817Y0043210D01*
X0116817Y0044642D01*
X0116269Y0045965D01*
X0115257Y0046978D01*
X0113933Y0047526D01*
X0112501Y0047526D01*
X0111178Y0046978D01*
X0110165Y0045965D01*
X0109624Y0044657D01*
X0093863Y0044657D01*
X0093853Y0044668D01*
X0093093Y0045428D01*
X0092101Y0045839D01*
X0088763Y0045839D01*
X0088710Y0045965D01*
X0087698Y0046978D01*
X0086374Y0047526D01*
X0084942Y0047526D01*
X0083619Y0046978D01*
X0082606Y0045965D01*
X0082058Y0044642D01*
X0082058Y0043210D01*
X0082606Y0041887D01*
X0083619Y0040874D01*
X0084942Y0040326D01*
X0086374Y0040326D01*
X0086646Y0040439D01*
X0090445Y0040439D01*
X0091215Y0039669D01*
X0092208Y0039257D01*
X0111786Y0039257D01*
X0112721Y0038447D02*
X0125384Y0038447D01*
X0125384Y0036849D02*
X0115054Y0036849D01*
X0115578Y0035250D02*
X0125384Y0035250D01*
X0125384Y0033652D02*
X0115368Y0033652D01*
X0114244Y0032053D02*
X0125384Y0032053D01*
X0125384Y0030455D02*
X0089818Y0030455D01*
X0091488Y0032053D02*
X0094605Y0032053D01*
X0093487Y0033652D02*
X0092612Y0033652D01*
X0092822Y0035250D02*
X0093279Y0035250D01*
X0093801Y0036849D02*
X0092298Y0036849D01*
X0090838Y0040046D02*
X0075760Y0040046D01*
X0075760Y0041644D02*
X0082849Y0041644D01*
X0082058Y0043243D02*
X0075801Y0043243D01*
X0077400Y0044841D02*
X0082141Y0044841D01*
X0083081Y0046440D02*
X0078998Y0046440D01*
X0080597Y0048038D02*
X0125384Y0048038D01*
X0125384Y0046440D02*
X0115795Y0046440D01*
X0116735Y0044841D02*
X0125384Y0044841D01*
X0125384Y0043243D02*
X0116817Y0043243D01*
X0116027Y0041644D02*
X0125384Y0041644D01*
X0125384Y0040046D02*
X0113155Y0040046D01*
X0108940Y0036849D02*
X0104680Y0036849D01*
X0105203Y0035250D02*
X0108416Y0035250D01*
X0108626Y0033652D02*
X0104995Y0033652D01*
X0103877Y0032053D02*
X0109750Y0032053D01*
X0099330Y0032053D02*
X0099152Y0032053D01*
X0088672Y0028856D02*
X0125384Y0028856D01*
X0109700Y0044841D02*
X0093679Y0044841D01*
X0088236Y0046440D02*
X0110640Y0046440D01*
X0111957Y0059228D02*
X0125384Y0059228D01*
X0125384Y0060826D02*
X0112839Y0060826D01*
X0112853Y0062425D02*
X0125384Y0062425D01*
X0125384Y0064023D02*
X0111991Y0064023D01*
X0112598Y0065622D02*
X0125384Y0065622D01*
X0125384Y0067220D02*
X0114751Y0067220D01*
X0115243Y0068819D02*
X0125384Y0068819D01*
X0125384Y0070417D02*
X0115003Y0070417D01*
X0114781Y0072016D02*
X0125384Y0072016D01*
X0125384Y0073614D02*
X0115243Y0073614D01*
X0114973Y0075213D02*
X0125384Y0075213D01*
X0125384Y0076811D02*
X0113769Y0076811D01*
X0109999Y0078410D02*
X0125384Y0078410D01*
X0125384Y0080009D02*
X0108998Y0080009D01*
X0104051Y0080009D02*
X0103092Y0080009D01*
X0098146Y0080009D02*
X0080952Y0080009D01*
X0085123Y0081607D02*
X0125384Y0081607D01*
X0125384Y0083206D02*
X0086272Y0083206D01*
X0091352Y0075213D02*
X0092169Y0075213D01*
X0091786Y0059228D02*
X0096368Y0059228D01*
X0090188Y0057629D02*
X0125384Y0057629D01*
X0125384Y0056031D02*
X0088589Y0056031D01*
X0086991Y0054432D02*
X0125384Y0054432D01*
X0125384Y0052834D02*
X0085392Y0052834D01*
X0083794Y0051235D02*
X0125384Y0051235D01*
X0125384Y0049637D02*
X0082195Y0049637D01*
X0071260Y0075213D02*
X0012074Y0075213D01*
X0012074Y0076811D02*
X0051539Y0076811D01*
X0051474Y0078410D02*
X0012074Y0078410D01*
X0012074Y0080009D02*
X0051474Y0080009D01*
X0051474Y0081607D02*
X0012074Y0081607D01*
X0012074Y0083206D02*
X0051474Y0083206D01*
X0056449Y0080009D02*
X0056599Y0080009D01*
X0056599Y0078410D02*
X0056449Y0078410D01*
X0056449Y0076811D02*
X0056599Y0076811D01*
X0061510Y0076811D02*
X0070286Y0076811D01*
X0069797Y0078410D02*
X0061574Y0078410D01*
X0061574Y0080009D02*
X0068198Y0080009D01*
X0066600Y0081607D02*
X0061574Y0081607D01*
X0061574Y0083206D02*
X0065001Y0083206D01*
X0045107Y0084804D02*
X0012074Y0084804D01*
X0012074Y0086403D02*
X0045107Y0086403D01*
X0045107Y0088001D02*
X0012074Y0088001D01*
X0012074Y0089600D02*
X0045107Y0089600D01*
X0045107Y0091198D02*
X0012074Y0091198D01*
X0012074Y0092797D02*
X0045107Y0092797D01*
X0045107Y0094395D02*
X0012074Y0094395D01*
X0012074Y0095994D02*
X0045107Y0095994D01*
X0045107Y0097592D02*
X0012074Y0097592D01*
X0012074Y0099191D02*
X0045107Y0099191D01*
X0045107Y0100789D02*
X0012074Y0100789D01*
X0012074Y0102388D02*
X0045107Y0102388D01*
X0045107Y0103986D02*
X0012074Y0103986D01*
X0012074Y0105585D02*
X0045107Y0105585D01*
X0045107Y0107183D02*
X0012074Y0107183D01*
X0012074Y0108782D02*
X0045107Y0108782D01*
X0045107Y0110380D02*
X0012074Y0110380D01*
X0012074Y0111979D02*
X0045107Y0111979D01*
X0045107Y0113577D02*
X0012074Y0113577D01*
X0012074Y0115176D02*
X0045107Y0115176D01*
X0045107Y0116774D02*
X0012074Y0116774D01*
X0012074Y0118373D02*
X0045107Y0118373D01*
X0045107Y0119971D02*
X0012074Y0119971D01*
X0012074Y0121570D02*
X0045107Y0121570D01*
X0045107Y0123168D02*
X0012074Y0123168D01*
X0012074Y0124767D02*
X0045107Y0124767D01*
D16*
X0082902Y0084477D03*
X0088808Y0084083D03*
X0100619Y0077391D03*
X0106524Y0077391D03*
X0111643Y0073847D03*
X0111643Y0069123D03*
X0109280Y0061643D03*
X0116367Y0061249D03*
X0108887Y0048257D03*
X0113217Y0043926D03*
X0123454Y0044320D03*
X0108493Y0024241D03*
X0100619Y0024241D03*
X0092745Y0024241D03*
X0086446Y0031721D03*
X0080934Y0031721D03*
X0079359Y0043926D03*
X0085658Y0043926D03*
X0096288Y0045107D03*
X0096879Y0034871D03*
X0101603Y0034871D03*
X0104556Y0014005D03*
X0112430Y0014005D03*
X0120304Y0014005D03*
X0096682Y0014005D03*
X0088808Y0014005D03*
X0080934Y0014005D03*
X0073060Y0014005D03*
X0067548Y0021485D03*
X0067548Y0025028D03*
X0067548Y0029359D03*
X0067548Y0033296D03*
X0058887Y0041957D03*
X0051406Y0033296D03*
X0043532Y0028178D03*
X0039989Y0028178D03*
X0045501Y0041957D03*
X0045501Y0051800D03*
X0045501Y0061643D03*
X0060068Y0066761D03*
X0060068Y0072666D03*
X0067942Y0061643D03*
X0070304Y0051800D03*
X0088808Y0072666D03*
X0094713Y0072666D03*
X0100225Y0069910D03*
X0100619Y0065186D03*
X0099044Y0061643D03*
X0117548Y0078572D03*
X0116761Y0087627D03*
X0114792Y0091564D03*
X0117154Y0093926D03*
X0073454Y0078572D03*
X0031328Y0041957D03*
X0017154Y0041957D03*
X0017154Y0051800D03*
X0017154Y0061643D03*
D17*
X0049438Y0037233D02*
X0040383Y0028178D01*
X0039989Y0028178D01*
X0043532Y0028178D02*
X0043532Y0028965D01*
X0050225Y0035658D01*
X0064005Y0035658D01*
X0065186Y0036839D01*
X0065186Y0047076D01*
X0067942Y0049831D01*
X0067942Y0052587D01*
X0069517Y0054162D01*
X0075028Y0054162D01*
X0089202Y0068335D01*
X0091564Y0068335D01*
X0094713Y0071485D01*
X0094713Y0072666D01*
X0099438Y0072272D02*
X0105343Y0072272D01*
X0106524Y0073454D01*
X0106524Y0077391D01*
X0100619Y0077391D02*
X0100619Y0075422D01*
X0091957Y0066761D01*
X0089595Y0066761D01*
X0068335Y0045501D01*
X0068335Y0034083D01*
X0067548Y0033296D01*
X0066761Y0035658D02*
X0066761Y0046288D01*
X0070304Y0049831D01*
X0070304Y0051800D01*
X0069123Y0055737D02*
X0074635Y0055737D01*
X0088808Y0069910D01*
X0088808Y0072666D01*
X0089989Y0065186D02*
X0092351Y0065186D01*
X0099438Y0072272D01*
X0100225Y0069910D02*
X0093926Y0063611D01*
X0090383Y0063611D01*
X0071485Y0044713D01*
X0071485Y0028572D01*
X0067548Y0025028D01*
X0067548Y0021485D02*
X0073060Y0026997D01*
X0073060Y0044320D01*
X0090776Y0062036D01*
X0094320Y0062036D01*
X0099831Y0067548D01*
X0106918Y0067548D01*
X0111643Y0072272D01*
X0111643Y0073847D01*
X0111643Y0069123D02*
X0107706Y0065186D01*
X0100619Y0065186D01*
X0099044Y0061643D02*
X0109280Y0061643D01*
X0113217Y0043926D02*
X0111249Y0041957D01*
X0092745Y0041957D01*
X0091564Y0043139D01*
X0086446Y0043139D01*
X0085658Y0043926D01*
X0096879Y0034871D02*
X0097666Y0035658D01*
X0100816Y0035658D01*
X0101603Y0034871D01*
X0089989Y0065186D02*
X0069910Y0045107D01*
X0069910Y0031721D01*
X0067548Y0029359D01*
X0064398Y0033296D02*
X0066761Y0035658D01*
X0064398Y0033296D02*
X0051406Y0033296D01*
X0049438Y0037233D02*
X0062824Y0037233D01*
X0063611Y0038020D01*
X0063611Y0047469D01*
X0066367Y0050225D01*
X0066367Y0052981D01*
X0069123Y0055737D01*
X0073454Y0078572D02*
X0061485Y0090540D01*
X0056524Y0090540D01*
X0058887Y0095501D02*
X0053769Y0095501D01*
X0051800Y0097469D01*
X0051800Y0115816D01*
X0056524Y0120540D01*
X0056524Y0110540D02*
X0061643Y0105422D01*
X0061643Y0098650D01*
X0069517Y0090776D01*
X0110855Y0090776D01*
X0114005Y0093926D01*
X0117154Y0093926D01*
X0114792Y0091564D02*
X0112430Y0089202D01*
X0069123Y0089202D01*
X0067863Y0089202D01*
X0056524Y0100540D01*
X0058887Y0095501D02*
X0066761Y0087627D01*
X0116761Y0087627D01*
X0082902Y0084477D02*
X0081485Y0083060D01*
X0076209Y0083060D01*
D18*
X0080934Y0031721D02*
X0081721Y0030934D01*
X0085658Y0030934D01*
X0086446Y0031721D01*
X0086052Y0031328D01*
M02*
