%
M48
M72
T01C0.01181
T02C0.02362
T03C0.03500
%
T01
X24800Y17942
X21650Y25028
X30705Y36839
X36217Y36839
X44879Y37627
X48028Y37233
X50784Y33690
X56296Y40776
X67713Y40383
X77162Y32509
X76375Y29359
X76375Y25028
X76375Y21485
X81886Y14005
X89760Y14005
X97635Y14005
X105509Y14005
X113383Y14005
X121257Y14005
X129131Y14005
X133461Y19123
X133461Y30540
X133461Y41170
X126375Y43926
X122044Y43926
X117713Y48257
X118501Y58099
X117713Y62430
X120863Y62430
X110627Y73454
X104721Y78178
X99209Y69517
X92910Y76209
X104721Y89595
X114957Y91564
X114957Y86839
X122438Y102587
X133461Y76603
X133461Y64792
X133461Y52981
X110430Y34871
X105705Y34871
X95272Y31721
X89760Y31721
X88973Y26997
X101572Y24241
X109446Y24241
X117320Y24241
X105115Y45107
X94485Y43926
X87792Y41170
X85823Y45107
X85430Y48257
X71257Y51800
X61020Y64398
X56296Y67154
X53146Y60855
X53146Y51800
X45666Y45107
X40154Y60855
X27162Y60855
X21257Y60855
X23619Y67154
X21257Y51800
X27162Y51800
X41335Y25816
X45666Y17942
X35036Y17942
X70469Y66367
X72831Y68729
X72831Y71879
X75587Y84083
X84642Y62430
X52753Y104556
X52753Y115973
X56690Y118729
X40154Y104556
X27162Y104556
X27162Y115973
X21650Y124635
T02
X98068Y34871
X120823Y34871
T03
X128343Y71288
X128343Y81288
X128343Y91288
X128343Y101288
X128343Y111288
X128343Y121288
M30
