G75*
%MOIN*%
%OFA0B0*%
%FSLAX25Y25*%
%IPPOS*%
%LPD*%
%AMOC8*
5,1,8,0,0,1.08239X$1,22.5*
%
%ADD10C,0.00000*%
%ADD11R,0.05906X0.02756*%
%ADD12C,0.02362*%
%ADD13R,0.02362X0.02362*%
%ADD14R,0.05906X0.05906*%
%ADD15R,0.04252X0.04134*%
%ADD16R,0.02165X0.02165*%
%ADD17R,0.04134X0.02559*%
%ADD18R,0.03642X0.02913*%
%ADD19R,0.02913X0.03642*%
%ADD20R,0.04134X0.04252*%
%ADD21R,0.03937X0.05669*%
%ADD22R,0.04724X0.05669*%
%ADD23R,0.02756X0.03543*%
%ADD24R,0.03150X0.03150*%
%ADD25R,0.03937X0.04724*%
%ADD26C,0.40000*%
%ADD27R,0.20000X0.10000*%
%ADD28R,0.00787X0.02362*%
%ADD29C,0.03937*%
%ADD30R,0.02165X0.03937*%
%ADD31R,0.00984X0.04331*%
%ADD32R,0.01772X0.02953*%
%ADD33R,0.03543X0.02756*%
D10*
X0018501Y0009674D02*
X0018501Y0127784D01*
X0136611Y0127784D01*
X0136611Y0009674D01*
X0018501Y0009674D01*
X0096887Y0034871D02*
X0096889Y0034940D01*
X0096895Y0035008D01*
X0096905Y0035076D01*
X0096919Y0035143D01*
X0096937Y0035210D01*
X0096958Y0035275D01*
X0096984Y0035339D01*
X0097013Y0035401D01*
X0097045Y0035461D01*
X0097081Y0035520D01*
X0097121Y0035576D01*
X0097163Y0035630D01*
X0097209Y0035681D01*
X0097258Y0035730D01*
X0097309Y0035776D01*
X0097363Y0035818D01*
X0097419Y0035858D01*
X0097477Y0035894D01*
X0097538Y0035926D01*
X0097600Y0035955D01*
X0097664Y0035981D01*
X0097729Y0036002D01*
X0097796Y0036020D01*
X0097863Y0036034D01*
X0097931Y0036044D01*
X0097999Y0036050D01*
X0098068Y0036052D01*
X0098137Y0036050D01*
X0098205Y0036044D01*
X0098273Y0036034D01*
X0098340Y0036020D01*
X0098407Y0036002D01*
X0098472Y0035981D01*
X0098536Y0035955D01*
X0098598Y0035926D01*
X0098658Y0035894D01*
X0098717Y0035858D01*
X0098773Y0035818D01*
X0098827Y0035776D01*
X0098878Y0035730D01*
X0098927Y0035681D01*
X0098973Y0035630D01*
X0099015Y0035576D01*
X0099055Y0035520D01*
X0099091Y0035461D01*
X0099123Y0035401D01*
X0099152Y0035339D01*
X0099178Y0035275D01*
X0099199Y0035210D01*
X0099217Y0035143D01*
X0099231Y0035076D01*
X0099241Y0035008D01*
X0099247Y0034940D01*
X0099249Y0034871D01*
X0099247Y0034802D01*
X0099241Y0034734D01*
X0099231Y0034666D01*
X0099217Y0034599D01*
X0099199Y0034532D01*
X0099178Y0034467D01*
X0099152Y0034403D01*
X0099123Y0034341D01*
X0099091Y0034280D01*
X0099055Y0034222D01*
X0099015Y0034166D01*
X0098973Y0034112D01*
X0098927Y0034061D01*
X0098878Y0034012D01*
X0098827Y0033966D01*
X0098773Y0033924D01*
X0098717Y0033884D01*
X0098659Y0033848D01*
X0098598Y0033816D01*
X0098536Y0033787D01*
X0098472Y0033761D01*
X0098407Y0033740D01*
X0098340Y0033722D01*
X0098273Y0033708D01*
X0098205Y0033698D01*
X0098137Y0033692D01*
X0098068Y0033690D01*
X0097999Y0033692D01*
X0097931Y0033698D01*
X0097863Y0033708D01*
X0097796Y0033722D01*
X0097729Y0033740D01*
X0097664Y0033761D01*
X0097600Y0033787D01*
X0097538Y0033816D01*
X0097477Y0033848D01*
X0097419Y0033884D01*
X0097363Y0033924D01*
X0097309Y0033966D01*
X0097258Y0034012D01*
X0097209Y0034061D01*
X0097163Y0034112D01*
X0097121Y0034166D01*
X0097081Y0034222D01*
X0097045Y0034280D01*
X0097013Y0034341D01*
X0096984Y0034403D01*
X0096958Y0034467D01*
X0096937Y0034532D01*
X0096919Y0034599D01*
X0096905Y0034666D01*
X0096895Y0034734D01*
X0096889Y0034802D01*
X0096887Y0034871D01*
X0119642Y0034871D02*
X0119644Y0034940D01*
X0119650Y0035008D01*
X0119660Y0035076D01*
X0119674Y0035143D01*
X0119692Y0035210D01*
X0119713Y0035275D01*
X0119739Y0035339D01*
X0119768Y0035401D01*
X0119800Y0035461D01*
X0119836Y0035520D01*
X0119876Y0035576D01*
X0119918Y0035630D01*
X0119964Y0035681D01*
X0120013Y0035730D01*
X0120064Y0035776D01*
X0120118Y0035818D01*
X0120174Y0035858D01*
X0120232Y0035894D01*
X0120293Y0035926D01*
X0120355Y0035955D01*
X0120419Y0035981D01*
X0120484Y0036002D01*
X0120551Y0036020D01*
X0120618Y0036034D01*
X0120686Y0036044D01*
X0120754Y0036050D01*
X0120823Y0036052D01*
X0120892Y0036050D01*
X0120960Y0036044D01*
X0121028Y0036034D01*
X0121095Y0036020D01*
X0121162Y0036002D01*
X0121227Y0035981D01*
X0121291Y0035955D01*
X0121353Y0035926D01*
X0121413Y0035894D01*
X0121472Y0035858D01*
X0121528Y0035818D01*
X0121582Y0035776D01*
X0121633Y0035730D01*
X0121682Y0035681D01*
X0121728Y0035630D01*
X0121770Y0035576D01*
X0121810Y0035520D01*
X0121846Y0035461D01*
X0121878Y0035401D01*
X0121907Y0035339D01*
X0121933Y0035275D01*
X0121954Y0035210D01*
X0121972Y0035143D01*
X0121986Y0035076D01*
X0121996Y0035008D01*
X0122002Y0034940D01*
X0122004Y0034871D01*
X0122002Y0034802D01*
X0121996Y0034734D01*
X0121986Y0034666D01*
X0121972Y0034599D01*
X0121954Y0034532D01*
X0121933Y0034467D01*
X0121907Y0034403D01*
X0121878Y0034341D01*
X0121846Y0034280D01*
X0121810Y0034222D01*
X0121770Y0034166D01*
X0121728Y0034112D01*
X0121682Y0034061D01*
X0121633Y0034012D01*
X0121582Y0033966D01*
X0121528Y0033924D01*
X0121472Y0033884D01*
X0121414Y0033848D01*
X0121353Y0033816D01*
X0121291Y0033787D01*
X0121227Y0033761D01*
X0121162Y0033740D01*
X0121095Y0033722D01*
X0121028Y0033708D01*
X0120960Y0033698D01*
X0120892Y0033692D01*
X0120823Y0033690D01*
X0120754Y0033692D01*
X0120686Y0033698D01*
X0120618Y0033708D01*
X0120551Y0033722D01*
X0120484Y0033740D01*
X0120419Y0033761D01*
X0120355Y0033787D01*
X0120293Y0033816D01*
X0120232Y0033848D01*
X0120174Y0033884D01*
X0120118Y0033924D01*
X0120064Y0033966D01*
X0120013Y0034012D01*
X0119964Y0034061D01*
X0119918Y0034112D01*
X0119876Y0034166D01*
X0119836Y0034222D01*
X0119800Y0034280D01*
X0119768Y0034341D01*
X0119739Y0034403D01*
X0119713Y0034467D01*
X0119692Y0034532D01*
X0119674Y0034599D01*
X0119660Y0034666D01*
X0119650Y0034734D01*
X0119644Y0034802D01*
X0119642Y0034871D01*
D11*
X0131099Y0067942D03*
X0131099Y0072272D03*
X0131099Y0076603D03*
X0131099Y0080934D03*
X0131099Y0085265D03*
X0131099Y0089595D03*
X0131099Y0093926D03*
X0131099Y0098257D03*
X0075981Y0098257D03*
X0075981Y0093926D03*
X0075981Y0089595D03*
X0075981Y0085265D03*
X0075981Y0080934D03*
X0075981Y0076603D03*
X0075981Y0072272D03*
X0075981Y0067942D03*
D12*
X0088776Y0066761D03*
X0088776Y0071485D03*
X0088776Y0076209D03*
X0088776Y0080934D03*
X0088776Y0085658D03*
X0088776Y0090383D03*
X0088776Y0095107D03*
X0094682Y0095107D03*
X0094682Y0090383D03*
X0094682Y0085658D03*
X0094682Y0080934D03*
X0094682Y0076209D03*
X0094682Y0071485D03*
X0094682Y0066761D03*
X0100587Y0066761D03*
X0100587Y0071485D03*
X0100587Y0076209D03*
X0100587Y0080934D03*
X0100587Y0085658D03*
X0100587Y0090383D03*
X0100587Y0095107D03*
X0106493Y0095107D03*
X0106493Y0090383D03*
X0106493Y0085658D03*
X0106493Y0080934D03*
X0106493Y0076209D03*
X0106493Y0071485D03*
X0106493Y0066761D03*
X0112398Y0066761D03*
X0112398Y0071485D03*
X0112398Y0076209D03*
X0112398Y0080934D03*
X0112398Y0085658D03*
X0112398Y0090383D03*
X0112398Y0095107D03*
X0118304Y0095107D03*
X0118304Y0090383D03*
X0118304Y0085658D03*
X0118304Y0080934D03*
X0118304Y0076209D03*
X0118304Y0071485D03*
X0118304Y0066761D03*
X0124209Y0071485D03*
X0124209Y0076209D03*
X0124209Y0080934D03*
D13*
X0124209Y0066761D03*
D14*
X0116827Y0102981D03*
X0107969Y0102981D03*
X0099111Y0102981D03*
X0090253Y0102981D03*
D15*
X0063776Y0062331D03*
X0063776Y0055442D03*
X0130705Y0052686D03*
X0130705Y0059576D03*
D16*
X0045371Y0121190D03*
X0045371Y0124143D03*
X0034938Y0124143D03*
X0034938Y0121190D03*
D17*
X0026867Y0022174D03*
X0026867Y0013709D03*
X0043205Y0013709D03*
X0043205Y0022174D03*
D18*
X0036808Y0040383D03*
X0031690Y0040383D03*
X0069485Y0036839D03*
X0074603Y0036839D03*
X0079721Y0036839D03*
X0084839Y0036839D03*
X0093501Y0059674D03*
X0098619Y0059674D03*
D19*
X0122831Y0053572D03*
X0122831Y0048454D03*
X0132674Y0030343D03*
X0132674Y0025225D03*
X0085430Y0026800D03*
X0085430Y0031918D03*
X0026768Y0037824D03*
X0026768Y0042942D03*
D20*
X0056788Y0036839D03*
X0063678Y0036839D03*
X0091434Y0054162D03*
X0098323Y0054162D03*
D21*
X0104131Y0058099D03*
X0111611Y0058099D03*
X0111611Y0049438D03*
D22*
X0104918Y0049438D03*
D23*
X0099012Y0048650D03*
X0093894Y0048650D03*
X0073028Y0030540D03*
X0067910Y0030540D03*
X0067910Y0025028D03*
X0073028Y0025028D03*
X0073028Y0019517D03*
X0067910Y0019517D03*
X0067910Y0014005D03*
X0073028Y0014005D03*
X0051768Y0041170D03*
X0046650Y0041170D03*
X0037201Y0044713D03*
X0032083Y0044713D03*
D24*
X0057083Y0030540D03*
X0057083Y0025028D03*
X0057083Y0019517D03*
X0057083Y0014005D03*
X0063383Y0014005D03*
X0063383Y0019517D03*
X0063383Y0025028D03*
X0063383Y0030540D03*
D25*
X0072044Y0046682D03*
X0081493Y0046682D03*
X0081493Y0056918D03*
X0072044Y0056918D03*
D26*
X0040154Y0082509D03*
D27*
X0040154Y0112509D03*
X0040154Y0052509D03*
D28*
X0059642Y0050127D03*
X0062201Y0050127D03*
X0064760Y0050127D03*
X0064760Y0042450D03*
X0062201Y0042450D03*
X0059642Y0042450D03*
D29*
X0092438Y0034673D02*
X0092438Y0034673D01*
X0092438Y0039005D01*
X0092438Y0039005D01*
X0092438Y0034673D01*
X0092438Y0038609D02*
X0092438Y0038609D01*
X0092438Y0018808D02*
X0092438Y0018808D01*
X0092438Y0021958D01*
X0092438Y0021958D01*
X0092438Y0018808D01*
X0126453Y0018808D02*
X0126453Y0018808D01*
X0126453Y0021958D01*
X0126453Y0021958D01*
X0126453Y0018808D01*
X0126453Y0034673D02*
X0126453Y0034673D01*
X0126453Y0039005D01*
X0126453Y0039005D01*
X0126453Y0034673D01*
X0126453Y0038609D02*
X0126453Y0038609D01*
D30*
X0122044Y0039300D03*
X0118894Y0039300D03*
X0099997Y0039300D03*
X0096847Y0039300D03*
D31*
X0102556Y0039103D03*
X0104524Y0039103D03*
X0106493Y0039103D03*
X0108461Y0039103D03*
X0110430Y0039103D03*
X0112398Y0039103D03*
X0114367Y0039103D03*
X0116335Y0039103D03*
D32*
X0036020Y0033296D03*
X0032477Y0033296D03*
X0028934Y0033296D03*
X0025390Y0033296D03*
X0025390Y0028572D03*
X0028934Y0028572D03*
X0032477Y0028572D03*
X0036020Y0028572D03*
D33*
X0044879Y0026800D03*
X0044879Y0031918D03*
X0022438Y0037430D03*
X0022438Y0042548D03*
M02*
