G75*
%MOIN*%
%OFA0B0*%
%FSLAX25Y25*%
%IPPOS*%
%LPD*%
%AMOC8*
5,1,8,0,0,1.08239X$1,22.5*
%
%ADD10C,0.00000*%
%ADD11R,0.06306X0.03156*%
%ADD12C,0.02762*%
%ADD13R,0.02762X0.02762*%
%ADD14R,0.06306X0.06306*%
%ADD15R,0.04652X0.04534*%
%ADD16R,0.02565X0.02565*%
%ADD17R,0.04528X0.02953*%
%ADD18R,0.04042X0.03313*%
%ADD19R,0.03313X0.04042*%
%ADD20R,0.04534X0.04652*%
%ADD21R,0.04337X0.06069*%
%ADD22R,0.05124X0.06069*%
%ADD23R,0.03156X0.03943*%
%ADD24R,0.03550X0.03550*%
%ADD25R,0.04337X0.05124*%
%ADD26C,0.40400*%
%ADD27R,0.20400X0.10400*%
%ADD28R,0.01378X0.02953*%
%ADD29R,0.06900X0.06900*%
%ADD30C,0.06900*%
%ADD31C,0.04337*%
%ADD32R,0.02756X0.04528*%
%ADD33R,0.01575X0.04921*%
D10*
X0009674Y0009674D02*
X0009674Y0127784D01*
X0127784Y0127784D01*
X0127784Y0009674D01*
X0009674Y0009674D01*
X0088060Y0034871D02*
X0088062Y0034940D01*
X0088068Y0035008D01*
X0088078Y0035076D01*
X0088092Y0035143D01*
X0088110Y0035210D01*
X0088131Y0035275D01*
X0088157Y0035339D01*
X0088186Y0035401D01*
X0088218Y0035461D01*
X0088254Y0035520D01*
X0088294Y0035576D01*
X0088336Y0035630D01*
X0088382Y0035681D01*
X0088431Y0035730D01*
X0088482Y0035776D01*
X0088536Y0035818D01*
X0088592Y0035858D01*
X0088650Y0035894D01*
X0088711Y0035926D01*
X0088773Y0035955D01*
X0088837Y0035981D01*
X0088902Y0036002D01*
X0088969Y0036020D01*
X0089036Y0036034D01*
X0089104Y0036044D01*
X0089172Y0036050D01*
X0089241Y0036052D01*
X0089310Y0036050D01*
X0089378Y0036044D01*
X0089446Y0036034D01*
X0089513Y0036020D01*
X0089580Y0036002D01*
X0089645Y0035981D01*
X0089709Y0035955D01*
X0089771Y0035926D01*
X0089831Y0035894D01*
X0089890Y0035858D01*
X0089946Y0035818D01*
X0090000Y0035776D01*
X0090051Y0035730D01*
X0090100Y0035681D01*
X0090146Y0035630D01*
X0090188Y0035576D01*
X0090228Y0035520D01*
X0090264Y0035461D01*
X0090296Y0035401D01*
X0090325Y0035339D01*
X0090351Y0035275D01*
X0090372Y0035210D01*
X0090390Y0035143D01*
X0090404Y0035076D01*
X0090414Y0035008D01*
X0090420Y0034940D01*
X0090422Y0034871D01*
X0090420Y0034802D01*
X0090414Y0034734D01*
X0090404Y0034666D01*
X0090390Y0034599D01*
X0090372Y0034532D01*
X0090351Y0034467D01*
X0090325Y0034403D01*
X0090296Y0034341D01*
X0090264Y0034280D01*
X0090228Y0034222D01*
X0090188Y0034166D01*
X0090146Y0034112D01*
X0090100Y0034061D01*
X0090051Y0034012D01*
X0090000Y0033966D01*
X0089946Y0033924D01*
X0089890Y0033884D01*
X0089832Y0033848D01*
X0089771Y0033816D01*
X0089709Y0033787D01*
X0089645Y0033761D01*
X0089580Y0033740D01*
X0089513Y0033722D01*
X0089446Y0033708D01*
X0089378Y0033698D01*
X0089310Y0033692D01*
X0089241Y0033690D01*
X0089172Y0033692D01*
X0089104Y0033698D01*
X0089036Y0033708D01*
X0088969Y0033722D01*
X0088902Y0033740D01*
X0088837Y0033761D01*
X0088773Y0033787D01*
X0088711Y0033816D01*
X0088650Y0033848D01*
X0088592Y0033884D01*
X0088536Y0033924D01*
X0088482Y0033966D01*
X0088431Y0034012D01*
X0088382Y0034061D01*
X0088336Y0034112D01*
X0088294Y0034166D01*
X0088254Y0034222D01*
X0088218Y0034280D01*
X0088186Y0034341D01*
X0088157Y0034403D01*
X0088131Y0034467D01*
X0088110Y0034532D01*
X0088092Y0034599D01*
X0088078Y0034666D01*
X0088068Y0034734D01*
X0088062Y0034802D01*
X0088060Y0034871D01*
X0110816Y0034871D02*
X0110818Y0034940D01*
X0110824Y0035008D01*
X0110834Y0035076D01*
X0110848Y0035143D01*
X0110866Y0035210D01*
X0110887Y0035275D01*
X0110913Y0035339D01*
X0110942Y0035401D01*
X0110974Y0035461D01*
X0111010Y0035520D01*
X0111050Y0035576D01*
X0111092Y0035630D01*
X0111138Y0035681D01*
X0111187Y0035730D01*
X0111238Y0035776D01*
X0111292Y0035818D01*
X0111348Y0035858D01*
X0111406Y0035894D01*
X0111467Y0035926D01*
X0111529Y0035955D01*
X0111593Y0035981D01*
X0111658Y0036002D01*
X0111725Y0036020D01*
X0111792Y0036034D01*
X0111860Y0036044D01*
X0111928Y0036050D01*
X0111997Y0036052D01*
X0112066Y0036050D01*
X0112134Y0036044D01*
X0112202Y0036034D01*
X0112269Y0036020D01*
X0112336Y0036002D01*
X0112401Y0035981D01*
X0112465Y0035955D01*
X0112527Y0035926D01*
X0112587Y0035894D01*
X0112646Y0035858D01*
X0112702Y0035818D01*
X0112756Y0035776D01*
X0112807Y0035730D01*
X0112856Y0035681D01*
X0112902Y0035630D01*
X0112944Y0035576D01*
X0112984Y0035520D01*
X0113020Y0035461D01*
X0113052Y0035401D01*
X0113081Y0035339D01*
X0113107Y0035275D01*
X0113128Y0035210D01*
X0113146Y0035143D01*
X0113160Y0035076D01*
X0113170Y0035008D01*
X0113176Y0034940D01*
X0113178Y0034871D01*
X0113176Y0034802D01*
X0113170Y0034734D01*
X0113160Y0034666D01*
X0113146Y0034599D01*
X0113128Y0034532D01*
X0113107Y0034467D01*
X0113081Y0034403D01*
X0113052Y0034341D01*
X0113020Y0034280D01*
X0112984Y0034222D01*
X0112944Y0034166D01*
X0112902Y0034112D01*
X0112856Y0034061D01*
X0112807Y0034012D01*
X0112756Y0033966D01*
X0112702Y0033924D01*
X0112646Y0033884D01*
X0112588Y0033848D01*
X0112527Y0033816D01*
X0112465Y0033787D01*
X0112401Y0033761D01*
X0112336Y0033740D01*
X0112269Y0033722D01*
X0112202Y0033708D01*
X0112134Y0033698D01*
X0112066Y0033692D01*
X0111997Y0033690D01*
X0111928Y0033692D01*
X0111860Y0033698D01*
X0111792Y0033708D01*
X0111725Y0033722D01*
X0111658Y0033740D01*
X0111593Y0033761D01*
X0111529Y0033787D01*
X0111467Y0033816D01*
X0111406Y0033848D01*
X0111348Y0033884D01*
X0111292Y0033924D01*
X0111238Y0033966D01*
X0111187Y0034012D01*
X0111138Y0034061D01*
X0111092Y0034112D01*
X0111050Y0034166D01*
X0111010Y0034222D01*
X0110974Y0034280D01*
X0110942Y0034341D01*
X0110913Y0034403D01*
X0110887Y0034467D01*
X0110866Y0034532D01*
X0110848Y0034599D01*
X0110834Y0034666D01*
X0110824Y0034734D01*
X0110818Y0034802D01*
X0110816Y0034871D01*
D11*
X0122272Y0067942D03*
X0122272Y0072272D03*
X0122272Y0076603D03*
X0122272Y0080934D03*
X0122272Y0085265D03*
X0122272Y0089595D03*
X0122272Y0093926D03*
X0122272Y0098257D03*
X0067154Y0098257D03*
X0067154Y0093926D03*
X0067154Y0089595D03*
X0067154Y0085265D03*
X0067154Y0080934D03*
X0067154Y0076603D03*
X0067154Y0072272D03*
X0067154Y0067942D03*
D12*
X0079950Y0066761D03*
X0079950Y0071485D03*
X0079950Y0076209D03*
X0079950Y0080934D03*
X0079950Y0085658D03*
X0079950Y0090383D03*
X0079950Y0095107D03*
X0085855Y0095107D03*
X0085855Y0090383D03*
X0085855Y0085658D03*
X0085855Y0080934D03*
X0085855Y0076209D03*
X0085855Y0071485D03*
X0085855Y0066761D03*
X0091761Y0066761D03*
X0091761Y0071485D03*
X0091761Y0076209D03*
X0091761Y0080934D03*
X0091761Y0085658D03*
X0091761Y0090383D03*
X0091761Y0095107D03*
X0097666Y0095107D03*
X0097666Y0090383D03*
X0097666Y0085658D03*
X0097666Y0080934D03*
X0097666Y0076209D03*
X0097666Y0071485D03*
X0097666Y0066761D03*
X0103572Y0066761D03*
X0103572Y0071485D03*
X0103572Y0076209D03*
X0103572Y0080934D03*
X0103572Y0085658D03*
X0103572Y0090383D03*
X0103572Y0095107D03*
X0109477Y0095107D03*
X0109477Y0090383D03*
X0109477Y0085658D03*
X0109477Y0080934D03*
X0109477Y0076209D03*
X0109477Y0071485D03*
X0109477Y0066761D03*
X0115383Y0071485D03*
X0115383Y0076209D03*
X0115383Y0080934D03*
X0111997Y0034871D03*
X0089241Y0034871D03*
D13*
X0115383Y0066761D03*
D14*
X0108001Y0102981D03*
X0099143Y0102981D03*
X0090284Y0102981D03*
X0081426Y0102981D03*
D15*
X0054950Y0062331D03*
X0054950Y0055442D03*
X0121879Y0052686D03*
X0121879Y0059576D03*
D16*
X0036544Y0121190D03*
X0036544Y0124143D03*
X0026111Y0124143D03*
X0026111Y0121190D03*
D17*
X0018040Y0036741D03*
X0018040Y0028276D03*
X0018040Y0022174D03*
X0018040Y0013709D03*
X0034379Y0013709D03*
X0034379Y0022174D03*
X0034379Y0028276D03*
X0034379Y0036741D03*
D18*
X0060658Y0036839D03*
X0065776Y0036839D03*
X0070894Y0036839D03*
X0076013Y0036839D03*
X0084674Y0059674D03*
X0089792Y0059674D03*
D19*
X0114005Y0053572D03*
X0114005Y0048454D03*
X0123847Y0030343D03*
X0123847Y0025225D03*
X0076603Y0026800D03*
X0076603Y0031918D03*
D20*
X0054851Y0036839D03*
X0047961Y0036839D03*
X0082607Y0054162D03*
X0089497Y0054162D03*
D21*
X0095304Y0058099D03*
X0102784Y0058099D03*
X0102784Y0049438D03*
D22*
X0096091Y0049438D03*
D23*
X0090186Y0048650D03*
X0085068Y0048650D03*
X0064202Y0030540D03*
X0059083Y0030540D03*
X0059083Y0025028D03*
X0064202Y0025028D03*
X0064202Y0019517D03*
X0059083Y0019517D03*
X0059083Y0014005D03*
X0064202Y0014005D03*
D24*
X0054556Y0014005D03*
X0054556Y0019517D03*
X0054556Y0025028D03*
X0054556Y0030540D03*
X0048257Y0030540D03*
X0048257Y0025028D03*
X0048257Y0019517D03*
X0048257Y0014005D03*
D25*
X0063217Y0046682D03*
X0072666Y0046682D03*
X0072666Y0056918D03*
X0063217Y0056918D03*
D26*
X0031328Y0080540D03*
D27*
X0031328Y0050540D03*
X0031328Y0110540D03*
D28*
X0050028Y0050127D03*
X0052587Y0050127D03*
X0055146Y0050127D03*
X0055146Y0042450D03*
X0052587Y0042450D03*
X0050028Y0042450D03*
D29*
X0056524Y0080540D03*
D30*
X0056524Y0090540D03*
X0056524Y0100540D03*
X0056524Y0110540D03*
X0056524Y0120540D03*
D31*
X0083611Y0034673D02*
X0083611Y0034673D01*
X0083611Y0039005D01*
X0083611Y0039005D01*
X0083611Y0034673D01*
X0083611Y0018808D02*
X0083611Y0018808D01*
X0083611Y0021958D01*
X0083611Y0021958D01*
X0083611Y0018808D01*
X0117627Y0018808D02*
X0117627Y0018808D01*
X0117627Y0021958D01*
X0117627Y0021958D01*
X0117627Y0018808D01*
X0117627Y0034673D02*
X0117627Y0034673D01*
X0117627Y0039005D01*
X0117627Y0039005D01*
X0117627Y0034673D01*
D32*
X0113217Y0039300D03*
X0110068Y0039300D03*
X0091170Y0039300D03*
X0088020Y0039300D03*
D33*
X0093729Y0039103D03*
X0095698Y0039103D03*
X0097666Y0039103D03*
X0099635Y0039103D03*
X0101603Y0039103D03*
X0103572Y0039103D03*
X0105540Y0039103D03*
X0107509Y0039103D03*
M02*
