G75*
%MOIN*%
%OFA0B0*%
%FSLAX25Y25*%
%IPPOS*%
%LPD*%
%AMOC8*
5,1,8,0,0,1.08239X$1,22.5*
%
%ADD10C,0.00000*%
%ADD11R,0.05906X0.02756*%
%ADD12C,0.02362*%
%ADD13R,0.02362X0.02362*%
%ADD14R,0.05906X0.05906*%
%ADD15R,0.04252X0.04134*%
%ADD16R,0.02165X0.02165*%
%ADD17R,0.04134X0.02559*%
%ADD18R,0.03642X0.02913*%
%ADD19R,0.02913X0.03642*%
%ADD20R,0.04134X0.04252*%
%ADD21R,0.03937X0.05669*%
%ADD22R,0.04724X0.05669*%
%ADD23R,0.02756X0.03543*%
%ADD24R,0.03150X0.03150*%
%ADD25R,0.03937X0.04724*%
%ADD26C,0.40000*%
%ADD27R,0.20000X0.10000*%
%ADD28R,0.00984X0.02559*%
%ADD29R,0.06500X0.06500*%
%ADD30C,0.06500*%
%ADD31C,0.03937*%
%ADD32R,0.02362X0.04134*%
%ADD33R,0.01181X0.04528*%
%ADD34R,0.01969X0.03150*%
%ADD35R,0.03543X0.02756*%
%ADD36C,0.01600*%
%ADD37C,0.02400*%
%ADD38C,0.00600*%
%ADD39C,0.00800*%
D10*
X0018501Y0009674D02*
X0018501Y0127784D01*
X0136611Y0127784D01*
X0136611Y0009674D01*
X0018501Y0009674D01*
X0096887Y0034871D02*
X0096889Y0034940D01*
X0096895Y0035008D01*
X0096905Y0035076D01*
X0096919Y0035143D01*
X0096937Y0035210D01*
X0096958Y0035275D01*
X0096984Y0035339D01*
X0097013Y0035401D01*
X0097045Y0035461D01*
X0097081Y0035520D01*
X0097121Y0035576D01*
X0097163Y0035630D01*
X0097209Y0035681D01*
X0097258Y0035730D01*
X0097309Y0035776D01*
X0097363Y0035818D01*
X0097419Y0035858D01*
X0097477Y0035894D01*
X0097538Y0035926D01*
X0097600Y0035955D01*
X0097664Y0035981D01*
X0097729Y0036002D01*
X0097796Y0036020D01*
X0097863Y0036034D01*
X0097931Y0036044D01*
X0097999Y0036050D01*
X0098068Y0036052D01*
X0098137Y0036050D01*
X0098205Y0036044D01*
X0098273Y0036034D01*
X0098340Y0036020D01*
X0098407Y0036002D01*
X0098472Y0035981D01*
X0098536Y0035955D01*
X0098598Y0035926D01*
X0098658Y0035894D01*
X0098717Y0035858D01*
X0098773Y0035818D01*
X0098827Y0035776D01*
X0098878Y0035730D01*
X0098927Y0035681D01*
X0098973Y0035630D01*
X0099015Y0035576D01*
X0099055Y0035520D01*
X0099091Y0035461D01*
X0099123Y0035401D01*
X0099152Y0035339D01*
X0099178Y0035275D01*
X0099199Y0035210D01*
X0099217Y0035143D01*
X0099231Y0035076D01*
X0099241Y0035008D01*
X0099247Y0034940D01*
X0099249Y0034871D01*
X0099247Y0034802D01*
X0099241Y0034734D01*
X0099231Y0034666D01*
X0099217Y0034599D01*
X0099199Y0034532D01*
X0099178Y0034467D01*
X0099152Y0034403D01*
X0099123Y0034341D01*
X0099091Y0034280D01*
X0099055Y0034222D01*
X0099015Y0034166D01*
X0098973Y0034112D01*
X0098927Y0034061D01*
X0098878Y0034012D01*
X0098827Y0033966D01*
X0098773Y0033924D01*
X0098717Y0033884D01*
X0098659Y0033848D01*
X0098598Y0033816D01*
X0098536Y0033787D01*
X0098472Y0033761D01*
X0098407Y0033740D01*
X0098340Y0033722D01*
X0098273Y0033708D01*
X0098205Y0033698D01*
X0098137Y0033692D01*
X0098068Y0033690D01*
X0097999Y0033692D01*
X0097931Y0033698D01*
X0097863Y0033708D01*
X0097796Y0033722D01*
X0097729Y0033740D01*
X0097664Y0033761D01*
X0097600Y0033787D01*
X0097538Y0033816D01*
X0097477Y0033848D01*
X0097419Y0033884D01*
X0097363Y0033924D01*
X0097309Y0033966D01*
X0097258Y0034012D01*
X0097209Y0034061D01*
X0097163Y0034112D01*
X0097121Y0034166D01*
X0097081Y0034222D01*
X0097045Y0034280D01*
X0097013Y0034341D01*
X0096984Y0034403D01*
X0096958Y0034467D01*
X0096937Y0034532D01*
X0096919Y0034599D01*
X0096905Y0034666D01*
X0096895Y0034734D01*
X0096889Y0034802D01*
X0096887Y0034871D01*
X0119642Y0034871D02*
X0119644Y0034940D01*
X0119650Y0035008D01*
X0119660Y0035076D01*
X0119674Y0035143D01*
X0119692Y0035210D01*
X0119713Y0035275D01*
X0119739Y0035339D01*
X0119768Y0035401D01*
X0119800Y0035461D01*
X0119836Y0035520D01*
X0119876Y0035576D01*
X0119918Y0035630D01*
X0119964Y0035681D01*
X0120013Y0035730D01*
X0120064Y0035776D01*
X0120118Y0035818D01*
X0120174Y0035858D01*
X0120232Y0035894D01*
X0120293Y0035926D01*
X0120355Y0035955D01*
X0120419Y0035981D01*
X0120484Y0036002D01*
X0120551Y0036020D01*
X0120618Y0036034D01*
X0120686Y0036044D01*
X0120754Y0036050D01*
X0120823Y0036052D01*
X0120892Y0036050D01*
X0120960Y0036044D01*
X0121028Y0036034D01*
X0121095Y0036020D01*
X0121162Y0036002D01*
X0121227Y0035981D01*
X0121291Y0035955D01*
X0121353Y0035926D01*
X0121413Y0035894D01*
X0121472Y0035858D01*
X0121528Y0035818D01*
X0121582Y0035776D01*
X0121633Y0035730D01*
X0121682Y0035681D01*
X0121728Y0035630D01*
X0121770Y0035576D01*
X0121810Y0035520D01*
X0121846Y0035461D01*
X0121878Y0035401D01*
X0121907Y0035339D01*
X0121933Y0035275D01*
X0121954Y0035210D01*
X0121972Y0035143D01*
X0121986Y0035076D01*
X0121996Y0035008D01*
X0122002Y0034940D01*
X0122004Y0034871D01*
X0122002Y0034802D01*
X0121996Y0034734D01*
X0121986Y0034666D01*
X0121972Y0034599D01*
X0121954Y0034532D01*
X0121933Y0034467D01*
X0121907Y0034403D01*
X0121878Y0034341D01*
X0121846Y0034280D01*
X0121810Y0034222D01*
X0121770Y0034166D01*
X0121728Y0034112D01*
X0121682Y0034061D01*
X0121633Y0034012D01*
X0121582Y0033966D01*
X0121528Y0033924D01*
X0121472Y0033884D01*
X0121414Y0033848D01*
X0121353Y0033816D01*
X0121291Y0033787D01*
X0121227Y0033761D01*
X0121162Y0033740D01*
X0121095Y0033722D01*
X0121028Y0033708D01*
X0120960Y0033698D01*
X0120892Y0033692D01*
X0120823Y0033690D01*
X0120754Y0033692D01*
X0120686Y0033698D01*
X0120618Y0033708D01*
X0120551Y0033722D01*
X0120484Y0033740D01*
X0120419Y0033761D01*
X0120355Y0033787D01*
X0120293Y0033816D01*
X0120232Y0033848D01*
X0120174Y0033884D01*
X0120118Y0033924D01*
X0120064Y0033966D01*
X0120013Y0034012D01*
X0119964Y0034061D01*
X0119918Y0034112D01*
X0119876Y0034166D01*
X0119836Y0034222D01*
X0119800Y0034280D01*
X0119768Y0034341D01*
X0119739Y0034403D01*
X0119713Y0034467D01*
X0119692Y0034532D01*
X0119674Y0034599D01*
X0119660Y0034666D01*
X0119650Y0034734D01*
X0119644Y0034802D01*
X0119642Y0034871D01*
D11*
X0131099Y0067942D03*
X0131099Y0072272D03*
X0131099Y0076603D03*
X0131099Y0080934D03*
X0131099Y0085265D03*
X0131099Y0089595D03*
X0131099Y0093926D03*
X0131099Y0098257D03*
X0075981Y0098257D03*
X0075981Y0093926D03*
X0075981Y0089595D03*
X0075981Y0085265D03*
X0075981Y0080934D03*
X0075981Y0076603D03*
X0075981Y0072272D03*
X0075981Y0067942D03*
D12*
X0088776Y0066761D03*
X0088776Y0071485D03*
X0088776Y0076209D03*
X0088776Y0080934D03*
X0088776Y0085658D03*
X0088776Y0090383D03*
X0088776Y0095107D03*
X0094682Y0095107D03*
X0094682Y0090383D03*
X0094682Y0085658D03*
X0094682Y0080934D03*
X0094682Y0076209D03*
X0094682Y0071485D03*
X0094682Y0066761D03*
X0100587Y0066761D03*
X0100587Y0071485D03*
X0100587Y0076209D03*
X0100587Y0080934D03*
X0100587Y0085658D03*
X0100587Y0090383D03*
X0100587Y0095107D03*
X0106493Y0095107D03*
X0106493Y0090383D03*
X0106493Y0085658D03*
X0106493Y0080934D03*
X0106493Y0076209D03*
X0106493Y0071485D03*
X0106493Y0066761D03*
X0112398Y0066761D03*
X0112398Y0071485D03*
X0112398Y0076209D03*
X0112398Y0080934D03*
X0112398Y0085658D03*
X0112398Y0090383D03*
X0112398Y0095107D03*
X0118304Y0095107D03*
X0118304Y0090383D03*
X0118304Y0085658D03*
X0118304Y0080934D03*
X0118304Y0076209D03*
X0118304Y0071485D03*
X0118304Y0066761D03*
X0124209Y0071485D03*
X0124209Y0076209D03*
X0124209Y0080934D03*
D13*
X0124209Y0066761D03*
D14*
X0116827Y0102981D03*
X0107969Y0102981D03*
X0099111Y0102981D03*
X0090253Y0102981D03*
D15*
X0063776Y0062331D03*
X0063776Y0055442D03*
X0130705Y0052686D03*
X0130705Y0059576D03*
D16*
X0045371Y0121190D03*
X0045371Y0124143D03*
X0034938Y0124143D03*
X0034938Y0121190D03*
D17*
X0026867Y0022174D03*
X0026867Y0013709D03*
X0043205Y0013709D03*
X0043205Y0022174D03*
D18*
X0036808Y0040383D03*
X0031690Y0040383D03*
X0069485Y0036839D03*
X0074603Y0036839D03*
X0079721Y0036839D03*
X0084839Y0036839D03*
X0093501Y0059674D03*
X0098619Y0059674D03*
D19*
X0122831Y0053572D03*
X0122831Y0048454D03*
X0132674Y0030343D03*
X0132674Y0025225D03*
X0085430Y0026800D03*
X0085430Y0031918D03*
X0026768Y0037824D03*
X0026768Y0042942D03*
D20*
X0056788Y0036839D03*
X0063678Y0036839D03*
X0091434Y0054162D03*
X0098323Y0054162D03*
D21*
X0104131Y0058099D03*
X0111611Y0058099D03*
X0111611Y0049438D03*
D22*
X0104918Y0049438D03*
D23*
X0099012Y0048650D03*
X0093894Y0048650D03*
X0073028Y0030540D03*
X0067910Y0030540D03*
X0067910Y0025028D03*
X0073028Y0025028D03*
X0073028Y0019517D03*
X0067910Y0019517D03*
X0067910Y0014005D03*
X0073028Y0014005D03*
X0051768Y0041170D03*
X0046650Y0041170D03*
X0037201Y0044713D03*
X0032083Y0044713D03*
D24*
X0057083Y0030540D03*
X0057083Y0025028D03*
X0057083Y0019517D03*
X0057083Y0014005D03*
X0063383Y0014005D03*
X0063383Y0019517D03*
X0063383Y0025028D03*
X0063383Y0030540D03*
D25*
X0072044Y0046682D03*
X0081493Y0046682D03*
X0081493Y0056918D03*
X0072044Y0056918D03*
D26*
X0040154Y0082509D03*
D27*
X0040154Y0112509D03*
X0040154Y0052509D03*
D28*
X0059642Y0050127D03*
X0062201Y0050127D03*
X0064760Y0050127D03*
X0064760Y0042450D03*
X0062201Y0042450D03*
X0059642Y0042450D03*
D29*
X0065351Y0080540D03*
D30*
X0065351Y0090540D03*
X0065351Y0100540D03*
X0065351Y0110540D03*
X0065351Y0120540D03*
D31*
X0092438Y0034673D02*
X0092438Y0034673D01*
X0092438Y0039005D01*
X0092438Y0039005D01*
X0092438Y0034673D01*
X0092438Y0038609D02*
X0092438Y0038609D01*
X0092438Y0018808D02*
X0092438Y0018808D01*
X0092438Y0021958D01*
X0092438Y0021958D01*
X0092438Y0018808D01*
X0126453Y0018808D02*
X0126453Y0018808D01*
X0126453Y0021958D01*
X0126453Y0021958D01*
X0126453Y0018808D01*
X0126453Y0034673D02*
X0126453Y0034673D01*
X0126453Y0039005D01*
X0126453Y0039005D01*
X0126453Y0034673D01*
X0126453Y0038609D02*
X0126453Y0038609D01*
D32*
X0122044Y0039300D03*
X0118894Y0039300D03*
X0099997Y0039300D03*
X0096847Y0039300D03*
D33*
X0102556Y0039103D03*
X0104524Y0039103D03*
X0106493Y0039103D03*
X0108461Y0039103D03*
X0110430Y0039103D03*
X0112398Y0039103D03*
X0114367Y0039103D03*
X0116335Y0039103D03*
D34*
X0036020Y0033296D03*
X0032477Y0033296D03*
X0028934Y0033296D03*
X0025390Y0033296D03*
X0025390Y0028572D03*
X0028934Y0028572D03*
X0032477Y0028572D03*
X0036020Y0028572D03*
D35*
X0044879Y0026800D03*
X0044879Y0031918D03*
X0022438Y0037430D03*
X0022438Y0042548D03*
D36*
X0022438Y0042548D01*
X0022438Y0045726D01*
X0023789Y0045726D01*
X0023871Y0045868D01*
X0024206Y0046203D01*
X0024617Y0046440D01*
X0025075Y0046563D01*
X0026768Y0046563D01*
X0026768Y0042942D01*
X0026768Y0042942D01*
X0026768Y0046563D01*
X0027948Y0046563D01*
X0027754Y0047031D01*
X0027754Y0057986D01*
X0028120Y0058868D01*
X0028795Y0059543D01*
X0029677Y0059909D01*
X0050632Y0059909D01*
X0051514Y0059543D01*
X0052189Y0058868D01*
X0052554Y0057986D01*
X0052554Y0049482D01*
X0057350Y0049482D01*
X0057350Y0050127D01*
X0059309Y0050127D01*
X0059309Y0050127D01*
X0057350Y0050127D01*
X0057350Y0051643D01*
X0057473Y0052101D01*
X0057710Y0052512D01*
X0058045Y0052847D01*
X0058455Y0053084D01*
X0058913Y0053206D01*
X0059250Y0053206D01*
X0059250Y0057986D01*
X0059616Y0058868D01*
X0060099Y0059351D01*
X0059973Y0059570D01*
X0059850Y0060028D01*
X0059850Y0062098D01*
X0063543Y0062098D01*
X0063543Y0062565D01*
X0063543Y0066198D01*
X0061413Y0066198D01*
X0060955Y0066076D01*
X0060545Y0065839D01*
X0060210Y0065504D01*
X0059973Y0065093D01*
X0059850Y0064635D01*
X0059850Y0062565D01*
X0063543Y0062565D01*
X0064010Y0062565D01*
X0067702Y0062565D01*
X0067702Y0064635D01*
X0067580Y0065093D01*
X0067343Y0065504D01*
X0067007Y0065839D01*
X0066597Y0066076D01*
X0066139Y0066198D01*
X0064010Y0066198D01*
X0064010Y0062565D01*
X0064010Y0062098D01*
X0067702Y0062098D01*
X0067702Y0060028D01*
X0067580Y0059570D01*
X0067454Y0059351D01*
X0067675Y0059130D01*
X0067675Y0059758D01*
X0068041Y0060640D01*
X0068716Y0061315D01*
X0069598Y0061680D01*
X0074490Y0061680D01*
X0075372Y0061315D01*
X0076047Y0060640D01*
X0076412Y0059758D01*
X0076412Y0055311D01*
X0076757Y0056142D01*
X0077124Y0056509D01*
X0077124Y0059758D01*
X0077490Y0060640D01*
X0078165Y0061315D01*
X0079047Y0061680D01*
X0079580Y0061680D01*
X0079580Y0064234D01*
X0079411Y0064164D01*
X0072551Y0064164D01*
X0071669Y0064529D01*
X0070994Y0065204D01*
X0070628Y0066086D01*
X0070628Y0069797D01*
X0070757Y0070107D01*
X0070628Y0070417D01*
X0070628Y0071209D01*
X0070239Y0071047D01*
X0064214Y0071047D01*
X0064214Y0070534D01*
X0063788Y0069505D01*
X0059502Y0065220D01*
X0059502Y0064076D01*
X0058954Y0062753D01*
X0057941Y0061740D01*
X0056618Y0061192D01*
X0055425Y0061192D01*
X0054792Y0060559D01*
X0053469Y0060011D01*
X0052037Y0060011D01*
X0050713Y0060559D01*
X0049701Y0061572D01*
X0049243Y0062677D01*
X0047705Y0062040D01*
X0046076Y0061511D01*
X0044410Y0061111D01*
X0042718Y0060843D01*
X0041011Y0060709D01*
X0040954Y0060709D01*
X0040954Y0081709D01*
X0039354Y0081709D01*
X0039354Y0060709D01*
X0039298Y0060709D01*
X0037590Y0060843D01*
X0035898Y0061111D01*
X0034232Y0061511D01*
X0032603Y0062040D01*
X0031020Y0062696D01*
X0029494Y0063474D01*
X0028033Y0064369D01*
X0026648Y0065376D01*
X0025345Y0066488D01*
X0024134Y0067699D01*
X0023021Y0069002D01*
X0022014Y0070388D01*
X0021119Y0071848D01*
X0020901Y0072277D01*
X0020901Y0045726D01*
X0022438Y0045726D01*
X0022438Y0042548D01*
X0022438Y0043243D02*
X0022438Y0043243D01*
X0022438Y0044841D02*
X0022438Y0044841D01*
X0020901Y0046440D02*
X0024617Y0046440D01*
X0026768Y0046440D02*
X0026768Y0046440D01*
X0026768Y0044841D02*
X0026768Y0044841D01*
X0026768Y0043243D02*
X0026768Y0043243D01*
X0027754Y0048038D02*
X0020901Y0048038D01*
X0020901Y0049637D02*
X0027754Y0049637D01*
X0027754Y0051235D02*
X0020901Y0051235D01*
X0020901Y0052834D02*
X0027754Y0052834D01*
X0027754Y0054432D02*
X0020901Y0054432D01*
X0020901Y0056031D02*
X0027754Y0056031D01*
X0027754Y0057629D02*
X0020901Y0057629D01*
X0020901Y0059228D02*
X0028479Y0059228D01*
X0031675Y0062425D02*
X0020901Y0062425D01*
X0020901Y0064023D02*
X0028597Y0064023D01*
X0026359Y0065622D02*
X0020901Y0065622D01*
X0020901Y0067220D02*
X0024613Y0067220D01*
X0023177Y0068819D02*
X0020901Y0068819D01*
X0020901Y0070417D02*
X0021996Y0070417D01*
X0021034Y0072016D02*
X0020901Y0072016D01*
X0020901Y0060826D02*
X0037802Y0060826D01*
X0039354Y0060826D02*
X0040954Y0060826D01*
X0042506Y0060826D02*
X0050446Y0060826D01*
X0049347Y0062425D02*
X0048634Y0062425D01*
X0051829Y0059228D02*
X0059975Y0059228D01*
X0059850Y0060826D02*
X0055059Y0060826D01*
X0058626Y0062425D02*
X0063543Y0062425D01*
X0064010Y0062425D02*
X0079580Y0062425D01*
X0079580Y0064023D02*
X0067702Y0064023D01*
X0067224Y0065622D02*
X0070821Y0065622D01*
X0070628Y0067220D02*
X0061503Y0067220D01*
X0060328Y0065622D02*
X0059904Y0065622D01*
X0059850Y0064023D02*
X0059480Y0064023D01*
X0063543Y0064023D02*
X0064010Y0064023D01*
X0064010Y0065622D02*
X0063543Y0065622D01*
X0063101Y0068819D02*
X0070628Y0068819D01*
X0070628Y0070417D02*
X0064166Y0070417D01*
X0067702Y0060826D02*
X0068227Y0060826D01*
X0067675Y0059228D02*
X0067577Y0059228D01*
X0059250Y0057629D02*
X0052554Y0057629D01*
X0052554Y0056031D02*
X0059250Y0056031D01*
X0059250Y0054432D02*
X0052554Y0054432D01*
X0052554Y0052834D02*
X0058032Y0052834D01*
X0057350Y0051235D02*
X0052554Y0051235D01*
X0052554Y0049637D02*
X0057350Y0049637D01*
X0056750Y0043882D02*
X0055355Y0043882D01*
X0055546Y0043419D01*
X0055546Y0040765D01*
X0056555Y0040765D01*
X0056555Y0037073D01*
X0057022Y0037073D01*
X0057022Y0039196D01*
X0056842Y0039629D01*
X0056842Y0039719D01*
X0056813Y0039805D01*
X0056842Y0040273D01*
X0056842Y0040470D01*
X0056750Y0040693D01*
X0056750Y0043882D01*
X0056750Y0043243D02*
X0055546Y0043243D01*
X0055546Y0041644D02*
X0056750Y0041644D01*
X0056828Y0040046D02*
X0056555Y0040046D01*
X0056555Y0038447D02*
X0057022Y0038447D01*
X0067582Y0040522D02*
X0067653Y0040693D01*
X0067653Y0043882D01*
X0067675Y0043882D01*
X0067675Y0043842D01*
X0068041Y0042960D01*
X0068716Y0042285D01*
X0069598Y0041920D01*
X0074490Y0041920D01*
X0075372Y0042285D01*
X0076047Y0042960D01*
X0076412Y0043842D01*
X0076412Y0048289D01*
X0076757Y0047458D01*
X0077124Y0047091D01*
X0077124Y0043842D01*
X0077490Y0042960D01*
X0078165Y0042285D01*
X0079047Y0041920D01*
X0080983Y0041920D01*
X0079759Y0040696D01*
X0077423Y0040696D01*
X0077162Y0040588D01*
X0076901Y0040696D01*
X0072305Y0040696D01*
X0071423Y0040331D01*
X0071188Y0040096D01*
X0069485Y0040096D01*
X0069485Y0036883D01*
X0069485Y0036883D01*
X0069485Y0040096D01*
X0067874Y0040096D01*
X0067779Y0040325D01*
X0067582Y0040522D01*
X0067653Y0041644D02*
X0080708Y0041644D01*
X0077373Y0043243D02*
X0076164Y0043243D01*
X0076412Y0044841D02*
X0077124Y0044841D01*
X0077124Y0046440D02*
X0076412Y0046440D01*
X0076412Y0048038D02*
X0076516Y0048038D01*
X0067924Y0043243D02*
X0067653Y0043243D01*
X0069485Y0040046D02*
X0069485Y0040046D01*
X0069485Y0038447D02*
X0069485Y0038447D01*
X0079975Y0032983D02*
X0081573Y0032983D01*
X0081573Y0029620D01*
X0081938Y0028738D01*
X0082173Y0028503D01*
X0082173Y0026800D01*
X0085430Y0026800D01*
X0088686Y0026800D01*
X0088686Y0028270D01*
X0089044Y0028121D01*
X0089638Y0028121D01*
X0089638Y0025335D01*
X0088734Y0024432D01*
X0088069Y0022826D01*
X0088069Y0017939D01*
X0088734Y0016333D01*
X0089963Y0015104D01*
X0091569Y0014439D01*
X0093307Y0014439D01*
X0094912Y0015104D01*
X0096141Y0016333D01*
X0096806Y0017939D01*
X0096806Y0022826D01*
X0096141Y0024432D01*
X0095238Y0025335D01*
X0095238Y0026559D01*
X0119530Y0026559D01*
X0120559Y0026985D01*
X0121347Y0027773D01*
X0123653Y0030080D01*
X0123653Y0025335D01*
X0122750Y0024432D01*
X0122085Y0022826D01*
X0122085Y0017939D01*
X0122750Y0016333D01*
X0123979Y0015104D01*
X0125584Y0014439D01*
X0127322Y0014439D01*
X0128928Y0015104D01*
X0130157Y0016333D01*
X0130822Y0017939D01*
X0130822Y0021004D01*
X0134211Y0021004D01*
X0134211Y0012074D01*
X0077869Y0012074D01*
X0081026Y0015231D01*
X0081437Y0016224D01*
X0081437Y0030684D01*
X0081026Y0031676D01*
X0080266Y0032435D01*
X0079975Y0032727D01*
X0079975Y0032983D01*
X0080266Y0032435D02*
X0080266Y0032435D01*
X0080649Y0032053D02*
X0081573Y0032053D01*
X0081573Y0030455D02*
X0081437Y0030455D01*
X0081437Y0028856D02*
X0081889Y0028856D01*
X0082173Y0027258D02*
X0081437Y0027258D01*
X0082173Y0026800D02*
X0082173Y0024742D01*
X0082296Y0024284D01*
X0082533Y0023874D01*
X0082868Y0023539D01*
X0083278Y0023302D01*
X0083736Y0023179D01*
X0085430Y0023179D01*
X0087123Y0023179D01*
X0087581Y0023302D01*
X0087992Y0023539D01*
X0088327Y0023874D01*
X0088564Y0024284D01*
X0088686Y0024742D01*
X0088686Y0026800D01*
X0085430Y0026800D01*
X0085430Y0026800D01*
X0085430Y0023179D01*
X0085430Y0026800D01*
X0085430Y0026800D01*
X0082173Y0026800D01*
X0082173Y0025659D02*
X0081437Y0025659D01*
X0081437Y0024061D02*
X0082425Y0024061D01*
X0081437Y0022462D02*
X0088069Y0022462D01*
X0088069Y0020864D02*
X0081437Y0020864D01*
X0081437Y0019265D02*
X0088069Y0019265D01*
X0088182Y0017667D02*
X0081437Y0017667D01*
X0081372Y0016068D02*
X0088999Y0016068D01*
X0091496Y0014470D02*
X0080264Y0014470D01*
X0078666Y0012871D02*
X0134211Y0012871D01*
X0134211Y0014470D02*
X0127395Y0014470D01*
X0125512Y0014470D02*
X0093379Y0014470D01*
X0095876Y0016068D02*
X0123015Y0016068D01*
X0122198Y0017667D02*
X0096693Y0017667D01*
X0096806Y0019265D02*
X0122085Y0019265D01*
X0122085Y0020864D02*
X0096806Y0020864D01*
X0096806Y0022462D02*
X0122085Y0022462D01*
X0122596Y0024061D02*
X0096295Y0024061D01*
X0095238Y0025659D02*
X0123653Y0025659D01*
X0123653Y0027258D02*
X0120831Y0027258D01*
X0122430Y0028856D02*
X0123653Y0028856D01*
X0130822Y0033922D02*
X0130822Y0039874D01*
X0130157Y0041479D01*
X0128928Y0042708D01*
X0127322Y0043373D01*
X0125644Y0043373D01*
X0125644Y0044597D01*
X0125648Y0044598D01*
X0126323Y0045273D01*
X0126688Y0046155D01*
X0126688Y0050752D01*
X0126323Y0051634D01*
X0126088Y0051869D01*
X0126088Y0053572D01*
X0126088Y0055629D01*
X0125965Y0056087D01*
X0125728Y0056498D01*
X0125393Y0056833D01*
X0124983Y0057070D01*
X0124525Y0057193D01*
X0122831Y0057193D01*
X0121138Y0057193D01*
X0120680Y0057070D01*
X0120269Y0056833D01*
X0119934Y0056498D01*
X0119697Y0056087D01*
X0119575Y0055629D01*
X0119575Y0053572D01*
X0122831Y0053572D01*
X0122831Y0057193D01*
X0122831Y0053572D01*
X0122831Y0053572D01*
X0122831Y0053572D01*
X0119575Y0053572D01*
X0119575Y0051869D01*
X0119340Y0051634D01*
X0118975Y0050752D01*
X0118975Y0046155D01*
X0119035Y0046009D01*
X0118992Y0045965D01*
X0118444Y0044642D01*
X0118444Y0043767D01*
X0113130Y0043767D01*
X0113130Y0044203D01*
X0114057Y0044203D01*
X0114939Y0044569D01*
X0115614Y0045244D01*
X0115979Y0046126D01*
X0115979Y0049638D01*
X0117385Y0050849D01*
X0117480Y0050889D01*
X0117789Y0051198D01*
X0118120Y0051483D01*
X0118167Y0051575D01*
X0118240Y0051649D01*
X0118407Y0052052D01*
X0118604Y0052442D01*
X0118612Y0052545D01*
X0118651Y0052641D01*
X0118651Y0053078D01*
X0118683Y0053514D01*
X0118651Y0053612D01*
X0118651Y0058043D01*
X0118823Y0058043D01*
X0120146Y0058591D01*
X0120498Y0058943D01*
X0121006Y0058943D01*
X0121999Y0059354D01*
X0125739Y0063094D01*
X0125825Y0063180D01*
X0125868Y0063180D01*
X0126750Y0063545D01*
X0127425Y0064220D01*
X0127441Y0064258D01*
X0127669Y0064164D01*
X0128399Y0064164D01*
X0128399Y0064043D01*
X0128102Y0064043D01*
X0127220Y0063677D01*
X0126545Y0063002D01*
X0126179Y0062120D01*
X0126179Y0057031D01*
X0126545Y0056149D01*
X0127028Y0055666D01*
X0126902Y0055448D01*
X0126779Y0054990D01*
X0126779Y0052919D01*
X0130472Y0052919D01*
X0130472Y0052452D01*
X0130939Y0052452D01*
X0130939Y0048819D01*
X0133068Y0048819D01*
X0133526Y0048942D01*
X0133937Y0049179D01*
X0134211Y0049453D01*
X0134211Y0033964D01*
X0132674Y0033964D01*
X0132674Y0030343D01*
X0132674Y0030343D01*
X0132674Y0033964D01*
X0130980Y0033964D01*
X0130822Y0033922D01*
X0130822Y0035250D02*
X0134211Y0035250D01*
X0134211Y0036849D02*
X0130822Y0036849D01*
X0130822Y0038447D02*
X0134211Y0038447D01*
X0134211Y0040046D02*
X0130751Y0040046D01*
X0129992Y0041644D02*
X0134211Y0041644D01*
X0134211Y0043243D02*
X0127637Y0043243D01*
X0125891Y0044841D02*
X0134211Y0044841D01*
X0134211Y0046440D02*
X0126688Y0046440D01*
X0126688Y0048038D02*
X0134211Y0048038D01*
X0130939Y0049637D02*
X0130472Y0049637D01*
X0130472Y0048819D02*
X0130472Y0052452D01*
X0126779Y0052452D01*
X0126779Y0050382D01*
X0126902Y0049924D01*
X0127139Y0049514D01*
X0127474Y0049179D01*
X0127885Y0048942D01*
X0128342Y0048819D01*
X0130472Y0048819D01*
X0130472Y0051235D02*
X0130939Y0051235D01*
X0130472Y0052834D02*
X0126088Y0052834D01*
X0126088Y0053572D02*
X0122831Y0053572D01*
X0126088Y0053572D01*
X0126088Y0054432D02*
X0126779Y0054432D01*
X0126663Y0056031D02*
X0125981Y0056031D01*
X0126179Y0057629D02*
X0118651Y0057629D01*
X0118651Y0056031D02*
X0119682Y0056031D01*
X0119575Y0054432D02*
X0118651Y0054432D01*
X0118651Y0052834D02*
X0119575Y0052834D01*
X0119175Y0051235D02*
X0117833Y0051235D01*
X0118975Y0049637D02*
X0115979Y0049637D01*
X0115979Y0048038D02*
X0118975Y0048038D01*
X0118975Y0046440D02*
X0115979Y0046440D01*
X0115212Y0044841D02*
X0118526Y0044841D01*
X0126688Y0049637D02*
X0127068Y0049637D01*
X0126779Y0051235D02*
X0126488Y0051235D01*
X0122831Y0053572D02*
X0122831Y0053572D01*
X0122831Y0054432D02*
X0122831Y0054432D01*
X0122831Y0056031D02*
X0122831Y0056031D01*
X0121695Y0059228D02*
X0126179Y0059228D01*
X0126179Y0060826D02*
X0123471Y0060826D01*
X0125070Y0062425D02*
X0126306Y0062425D01*
X0127228Y0064023D02*
X0128056Y0064023D01*
X0129075Y0072272D02*
X0129075Y0072272D01*
X0131099Y0072272D01*
X0131099Y0072272D01*
X0129075Y0072272D01*
X0105299Y0049057D02*
X0105299Y0044803D01*
X0105761Y0044803D01*
X0105761Y0043948D01*
X0105069Y0044640D01*
X0104537Y0044861D01*
X0104537Y0049057D01*
X0105299Y0049057D01*
X0105299Y0048038D02*
X0104537Y0048038D01*
X0104537Y0046440D02*
X0105299Y0046440D01*
X0105299Y0044841D02*
X0104584Y0044841D01*
X0091024Y0044977D02*
X0090885Y0044642D01*
X0090885Y0043210D01*
X0090927Y0043108D01*
X0089963Y0042708D01*
X0088734Y0041479D01*
X0088188Y0040162D01*
X0088020Y0040331D01*
X0087137Y0040696D01*
X0087124Y0040696D01*
X0087342Y0041224D01*
X0087342Y0057375D01*
X0089698Y0059730D01*
X0089880Y0059730D01*
X0089880Y0059674D01*
X0089880Y0058088D01*
X0089130Y0058088D01*
X0088672Y0057966D01*
X0088262Y0057729D01*
X0087926Y0057393D01*
X0087689Y0056983D01*
X0087567Y0056525D01*
X0087567Y0054396D01*
X0091200Y0054396D01*
X0091200Y0053929D01*
X0087567Y0053929D01*
X0087567Y0051799D01*
X0087689Y0051341D01*
X0087926Y0050931D01*
X0088262Y0050596D01*
X0088672Y0050359D01*
X0089130Y0050236D01*
X0090116Y0050236D01*
X0090116Y0046401D01*
X0090482Y0045519D01*
X0091024Y0044977D01*
X0090967Y0044841D02*
X0087342Y0044841D01*
X0087342Y0043243D02*
X0090885Y0043243D01*
X0088899Y0041644D02*
X0087342Y0041644D01*
X0087342Y0046440D02*
X0090116Y0046440D01*
X0090116Y0048038D02*
X0087342Y0048038D01*
X0087342Y0049637D02*
X0090116Y0049637D01*
X0087751Y0051235D02*
X0087342Y0051235D01*
X0087342Y0052834D02*
X0087567Y0052834D01*
X0087567Y0054432D02*
X0087342Y0054432D01*
X0087342Y0056031D02*
X0087567Y0056031D01*
X0087597Y0057629D02*
X0088162Y0057629D01*
X0089196Y0059228D02*
X0089880Y0059228D01*
X0089880Y0059674D02*
X0093501Y0059674D01*
X0093501Y0059674D01*
X0089880Y0059674D01*
X0077676Y0060826D02*
X0075860Y0060826D01*
X0076412Y0059228D02*
X0077124Y0059228D01*
X0077124Y0057629D02*
X0076412Y0057629D01*
X0076412Y0056031D02*
X0076711Y0056031D01*
X0085430Y0026800D02*
X0085430Y0026800D01*
X0085430Y0025659D02*
X0085430Y0025659D01*
X0085430Y0024061D02*
X0085430Y0024061D01*
X0088435Y0024061D02*
X0088580Y0024061D01*
X0088686Y0025659D02*
X0089638Y0025659D01*
X0089638Y0027258D02*
X0088686Y0027258D01*
X0053385Y0022236D02*
X0053109Y0021569D01*
X0053109Y0017464D01*
X0053400Y0016761D01*
X0053109Y0016057D01*
X0053109Y0012074D01*
X0047040Y0012074D01*
X0047072Y0012193D01*
X0047072Y0013709D01*
X0043205Y0013709D01*
X0039338Y0013709D01*
X0039338Y0012193D01*
X0039370Y0012074D01*
X0030702Y0012074D01*
X0030734Y0012193D01*
X0030734Y0013709D01*
X0026867Y0013709D01*
X0026867Y0013709D01*
X0030734Y0013709D01*
X0030734Y0015226D01*
X0030611Y0015684D01*
X0030374Y0016094D01*
X0030039Y0016429D01*
X0029628Y0016666D01*
X0029171Y0016789D01*
X0026867Y0016789D01*
X0026867Y0013710D01*
X0026867Y0013710D01*
X0026867Y0016789D01*
X0024563Y0016789D01*
X0024105Y0016666D01*
X0023695Y0016429D01*
X0023359Y0016094D01*
X0023123Y0015684D01*
X0023000Y0015226D01*
X0023000Y0013709D01*
X0023000Y0012193D01*
X0023032Y0012074D01*
X0020901Y0012074D01*
X0020901Y0032054D01*
X0022033Y0030922D01*
X0022116Y0030888D01*
X0022006Y0030624D01*
X0022006Y0026519D01*
X0022372Y0025637D01*
X0022981Y0025028D01*
X0022765Y0024813D01*
X0022400Y0023931D01*
X0022400Y0020417D01*
X0022765Y0019535D01*
X0023440Y0018860D01*
X0024322Y0018494D01*
X0029411Y0018494D01*
X0030293Y0018860D01*
X0030807Y0019374D01*
X0039265Y0019374D01*
X0039779Y0018860D01*
X0040661Y0018494D01*
X0045750Y0018494D01*
X0046632Y0018860D01*
X0047246Y0019474D01*
X0050042Y0019474D01*
X0051034Y0019885D01*
X0051794Y0020645D01*
X0053385Y0022236D01*
X0053109Y0020864D02*
X0052013Y0020864D01*
X0053109Y0019265D02*
X0047037Y0019265D01*
X0045967Y0016666D02*
X0045509Y0016789D01*
X0043205Y0016789D01*
X0040901Y0016789D01*
X0040444Y0016666D01*
X0040033Y0016429D01*
X0039698Y0016094D01*
X0039461Y0015684D01*
X0039338Y0015226D01*
X0039338Y0013709D01*
X0043205Y0013709D01*
X0043205Y0013709D01*
X0043205Y0013709D01*
X0043205Y0013710D02*
X0043205Y0016789D01*
X0043205Y0013710D01*
X0043205Y0013710D01*
X0043205Y0013709D02*
X0047072Y0013709D01*
X0047072Y0015226D01*
X0046950Y0015684D01*
X0046713Y0016094D01*
X0046378Y0016429D01*
X0045967Y0016666D01*
X0046728Y0016068D02*
X0053113Y0016068D01*
X0053109Y0014470D02*
X0047072Y0014470D01*
X0047072Y0012871D02*
X0053109Y0012871D01*
X0053109Y0017667D02*
X0020901Y0017667D01*
X0020901Y0019265D02*
X0023035Y0019265D01*
X0022400Y0020864D02*
X0020901Y0020864D01*
X0020901Y0022462D02*
X0022400Y0022462D01*
X0022454Y0024061D02*
X0020901Y0024061D01*
X0020901Y0025659D02*
X0022363Y0025659D01*
X0022006Y0027258D02*
X0020901Y0027258D01*
X0020901Y0028856D02*
X0022006Y0028856D01*
X0022006Y0030455D02*
X0020901Y0030455D01*
X0020901Y0032053D02*
X0020902Y0032053D01*
X0030698Y0019265D02*
X0039374Y0019265D01*
X0039683Y0016068D02*
X0030389Y0016068D01*
X0030734Y0014470D02*
X0039338Y0014470D01*
X0039338Y0012871D02*
X0030734Y0012871D01*
X0026867Y0013709D02*
X0023000Y0013709D01*
X0026867Y0013709D01*
X0026867Y0013709D01*
X0026867Y0014470D02*
X0026867Y0014470D01*
X0026867Y0016068D02*
X0026867Y0016068D01*
X0023344Y0016068D02*
X0020901Y0016068D01*
X0020901Y0014470D02*
X0023000Y0014470D01*
X0023000Y0012871D02*
X0020901Y0012871D01*
X0036020Y0033296D02*
X0036020Y0036671D01*
X0035868Y0036671D01*
X0035868Y0037126D01*
X0036808Y0037126D01*
X0037662Y0037126D01*
X0037387Y0036851D01*
X0037207Y0036671D01*
X0036020Y0036671D01*
X0036020Y0033296D01*
X0036020Y0033296D01*
X0036020Y0033652D02*
X0036020Y0033652D01*
X0036020Y0035250D02*
X0036020Y0035250D01*
X0035868Y0036849D02*
X0037385Y0036849D01*
X0036808Y0037126D02*
X0036808Y0040383D01*
X0040429Y0040383D01*
X0040429Y0041397D01*
X0040614Y0041582D01*
X0040979Y0042464D01*
X0040979Y0045109D01*
X0044232Y0045109D01*
X0043913Y0044976D01*
X0043238Y0044301D01*
X0042872Y0043419D01*
X0042872Y0039339D01*
X0042834Y0039246D01*
X0040429Y0039246D01*
X0040429Y0040383D01*
X0036808Y0040383D01*
X0036808Y0040383D01*
X0036808Y0040383D01*
X0036808Y0037126D01*
X0036808Y0038447D02*
X0036808Y0038447D01*
X0036808Y0040046D02*
X0036808Y0040046D01*
X0040429Y0040046D02*
X0042872Y0040046D01*
X0042872Y0041644D02*
X0040640Y0041644D01*
X0040979Y0043243D02*
X0042872Y0043243D01*
X0043778Y0044841D02*
X0040979Y0044841D01*
X0040954Y0062425D02*
X0039354Y0062425D01*
X0039354Y0064023D02*
X0040954Y0064023D01*
X0040954Y0065622D02*
X0039354Y0065622D01*
X0039354Y0067220D02*
X0040954Y0067220D01*
X0040954Y0068819D02*
X0039354Y0068819D01*
X0039354Y0070417D02*
X0040954Y0070417D01*
X0040954Y0072016D02*
X0039354Y0072016D01*
X0039354Y0073614D02*
X0040954Y0073614D01*
X0040954Y0075213D02*
X0039354Y0075213D01*
X0039354Y0076811D02*
X0040954Y0076811D01*
X0040954Y0078410D02*
X0039354Y0078410D01*
X0039354Y0080009D02*
X0040954Y0080009D01*
X0040954Y0081607D02*
X0039354Y0081607D01*
X0039354Y0083309D02*
X0039354Y0104309D01*
X0039298Y0104309D01*
X0037590Y0104174D01*
X0035898Y0103906D01*
X0034232Y0103506D01*
X0032603Y0102977D01*
X0031020Y0102321D01*
X0029494Y0101544D01*
X0028033Y0100649D01*
X0026648Y0099642D01*
X0025345Y0098529D01*
X0024134Y0097318D01*
X0023021Y0096015D01*
X0022014Y0094629D01*
X0021119Y0093169D01*
X0020901Y0092740D01*
X0020901Y0125384D01*
X0032055Y0125384D01*
X0032055Y0124143D01*
X0034938Y0124143D01*
X0037820Y0124143D01*
X0037820Y0125384D01*
X0041888Y0125384D01*
X0041888Y0119909D01*
X0037820Y0119909D01*
X0037820Y0121190D01*
X0037820Y0122509D01*
X0037778Y0122666D01*
X0037820Y0122823D01*
X0037820Y0124142D01*
X0034938Y0124142D01*
X0034938Y0121190D01*
X0037820Y0121190D01*
X0034938Y0121190D01*
X0034938Y0121190D01*
X0034938Y0121190D01*
X0034938Y0124072D01*
X0034938Y0124142D01*
X0034938Y0124142D01*
X0034938Y0124143D01*
X0034938Y0124142D01*
X0032055Y0124142D01*
X0032055Y0122823D01*
X0032097Y0122666D01*
X0032055Y0122509D01*
X0032055Y0121190D01*
X0034938Y0121190D01*
X0034938Y0121190D01*
X0032055Y0121190D01*
X0032055Y0119909D01*
X0029677Y0119909D01*
X0028795Y0119543D01*
X0028120Y0118868D01*
X0027754Y0117986D01*
X0027754Y0107031D01*
X0028120Y0106149D01*
X0028795Y0105474D01*
X0029677Y0105109D01*
X0050632Y0105109D01*
X0051514Y0105474D01*
X0052189Y0106149D01*
X0052554Y0107031D01*
X0052554Y0117986D01*
X0052346Y0118490D01*
X0053934Y0118490D01*
X0053934Y0099409D01*
X0053661Y0099642D01*
X0052275Y0100649D01*
X0050814Y0101544D01*
X0049288Y0102321D01*
X0047705Y0102977D01*
X0046076Y0103506D01*
X0044410Y0103906D01*
X0042718Y0104174D01*
X0041011Y0104309D01*
X0040954Y0104309D01*
X0040954Y0083309D01*
X0039354Y0083309D01*
X0039354Y0084804D02*
X0040954Y0084804D01*
X0040954Y0086403D02*
X0039354Y0086403D01*
X0039354Y0088001D02*
X0040954Y0088001D01*
X0040954Y0089600D02*
X0039354Y0089600D01*
X0039354Y0091198D02*
X0040954Y0091198D01*
X0040954Y0092797D02*
X0039354Y0092797D01*
X0039354Y0094395D02*
X0040954Y0094395D01*
X0040954Y0095994D02*
X0039354Y0095994D01*
X0039354Y0097592D02*
X0040954Y0097592D01*
X0040954Y0099191D02*
X0039354Y0099191D01*
X0039354Y0100789D02*
X0040954Y0100789D01*
X0040954Y0102388D02*
X0039354Y0102388D01*
X0039354Y0103986D02*
X0040954Y0103986D01*
X0043906Y0103986D02*
X0053934Y0103986D01*
X0053934Y0105585D02*
X0051624Y0105585D01*
X0052554Y0107183D02*
X0053934Y0107183D01*
X0053934Y0108782D02*
X0052554Y0108782D01*
X0052554Y0110380D02*
X0053934Y0110380D01*
X0053934Y0111979D02*
X0052554Y0111979D01*
X0052554Y0113577D02*
X0053934Y0113577D01*
X0053934Y0115176D02*
X0052554Y0115176D01*
X0052554Y0116774D02*
X0053934Y0116774D01*
X0053934Y0118373D02*
X0052394Y0118373D01*
X0041888Y0119971D02*
X0037820Y0119971D01*
X0037820Y0121570D02*
X0041888Y0121570D01*
X0041888Y0123168D02*
X0037820Y0123168D01*
X0037820Y0124767D02*
X0041888Y0124767D01*
X0034938Y0123168D02*
X0034938Y0123168D01*
X0034938Y0121570D02*
X0034938Y0121570D01*
X0032055Y0121570D02*
X0020901Y0121570D01*
X0020901Y0123168D02*
X0032055Y0123168D01*
X0032055Y0124767D02*
X0020901Y0124767D01*
X0020901Y0119971D02*
X0032055Y0119971D01*
X0027914Y0118373D02*
X0020901Y0118373D01*
X0020901Y0116774D02*
X0027754Y0116774D01*
X0027754Y0115176D02*
X0020901Y0115176D01*
X0020901Y0113577D02*
X0027754Y0113577D01*
X0027754Y0111979D02*
X0020901Y0111979D01*
X0020901Y0110380D02*
X0027754Y0110380D01*
X0027754Y0108782D02*
X0020901Y0108782D01*
X0020901Y0107183D02*
X0027754Y0107183D01*
X0028684Y0105585D02*
X0020901Y0105585D01*
X0020901Y0103986D02*
X0036403Y0103986D01*
X0031180Y0102388D02*
X0020901Y0102388D01*
X0020901Y0100789D02*
X0028263Y0100789D01*
X0026119Y0099191D02*
X0020901Y0099191D01*
X0020901Y0097592D02*
X0024408Y0097592D01*
X0023005Y0095994D02*
X0020901Y0095994D01*
X0020901Y0094395D02*
X0021871Y0094395D01*
X0020929Y0092797D02*
X0020901Y0092797D01*
X0049128Y0102388D02*
X0053934Y0102388D01*
X0053934Y0100789D02*
X0052046Y0100789D01*
X0132674Y0033652D02*
X0132674Y0033652D01*
X0132674Y0032053D02*
X0132674Y0032053D01*
X0132674Y0030455D02*
X0132674Y0030455D01*
X0134211Y0020864D02*
X0130822Y0020864D01*
X0130822Y0019265D02*
X0134211Y0019265D01*
X0134211Y0017667D02*
X0130709Y0017667D01*
X0129892Y0016068D02*
X0134211Y0016068D01*
X0043205Y0016068D02*
X0043205Y0016068D01*
X0043205Y0014470D02*
X0043205Y0014470D01*
D37*
X0045666Y0017942D03*
X0041335Y0025816D03*
X0035036Y0017942D03*
X0024800Y0017942D03*
X0021650Y0025028D03*
X0030705Y0036839D03*
X0036217Y0036839D03*
X0042123Y0042351D03*
X0046060Y0037627D03*
X0049209Y0037627D03*
X0055902Y0041564D03*
X0060233Y0033296D03*
X0052359Y0028178D03*
X0068107Y0041957D03*
X0076375Y0033296D03*
X0076375Y0029359D03*
X0076375Y0025028D03*
X0076375Y0021485D03*
X0081886Y0014005D03*
X0089760Y0014005D03*
X0097635Y0014005D03*
X0105509Y0014005D03*
X0113383Y0014005D03*
X0121257Y0014005D03*
X0129131Y0014005D03*
X0117320Y0024241D03*
X0109446Y0024241D03*
X0101572Y0024241D03*
X0095272Y0031721D03*
X0089760Y0031721D03*
X0088186Y0043926D03*
X0094485Y0043926D03*
X0105115Y0045107D03*
X0105705Y0034871D03*
X0110430Y0034871D03*
X0122044Y0043926D03*
X0117713Y0048257D03*
X0125194Y0061249D03*
X0118107Y0061643D03*
X0120469Y0069123D03*
X0120469Y0073847D03*
X0115351Y0077391D03*
X0109446Y0077391D03*
X0103540Y0072666D03*
X0109052Y0069910D03*
X0109446Y0065186D03*
X0107871Y0061643D03*
X0126375Y0078572D03*
X0125587Y0087627D03*
X0123619Y0091564D03*
X0125981Y0093926D03*
X0097635Y0084083D03*
X0091729Y0084477D03*
X0082280Y0078572D03*
X0067713Y0069517D03*
X0067713Y0062430D03*
X0058264Y0060855D03*
X0055902Y0064792D03*
X0052753Y0063611D03*
X0058264Y0053769D03*
X0076768Y0061643D03*
X0079131Y0051800D03*
X0025981Y0051800D03*
X0025981Y0061643D03*
X0132280Y0044320D03*
D38*
X0122831Y0044713D02*
X0122044Y0043926D01*
X0122044Y0039300D01*
X0122831Y0044713D02*
X0122831Y0048454D01*
X0115951Y0053178D02*
X0115951Y0068532D01*
X0118304Y0071485D01*
X0120469Y0069123D02*
X0127162Y0069123D01*
X0128343Y0067942D01*
X0131099Y0067942D01*
X0131099Y0059969D01*
X0130705Y0059576D01*
X0124209Y0065383D02*
X0124209Y0066761D01*
X0124209Y0065383D02*
X0120469Y0061643D01*
X0118107Y0061643D01*
X0114751Y0061839D02*
X0111611Y0058099D01*
X0108461Y0054950D01*
X0108461Y0039103D01*
X0108461Y0036643D01*
X0107871Y0036052D01*
X0107871Y0034083D01*
X0109446Y0032509D01*
X0111414Y0032509D01*
X0112989Y0034083D01*
X0112989Y0036052D01*
X0112398Y0036643D01*
X0112398Y0039103D01*
X0110430Y0039103D02*
X0110430Y0034871D01*
X0106493Y0035658D02*
X0105705Y0034871D01*
X0106493Y0035658D02*
X0106493Y0039103D01*
X0104524Y0039103D02*
X0104524Y0041367D01*
X0103540Y0042351D01*
X0101178Y0042351D01*
X0099012Y0044517D01*
X0099012Y0048650D01*
X0096453Y0052292D02*
X0098323Y0054162D01*
X0100194Y0054162D01*
X0104131Y0058099D01*
X0102556Y0059674D01*
X0098619Y0059674D01*
X0096453Y0052292D02*
X0096453Y0044956D01*
X0099997Y0041413D01*
X0099997Y0039300D01*
X0100784Y0038513D01*
X0096847Y0039300D02*
X0096847Y0041564D01*
X0094485Y0043926D01*
X0093894Y0044517D01*
X0093894Y0048650D01*
X0084642Y0041761D02*
X0084642Y0058493D01*
X0088579Y0062430D01*
X0107083Y0062430D01*
X0107871Y0061643D01*
X0108658Y0064398D02*
X0109446Y0065186D01*
X0108658Y0064398D02*
X0088186Y0064398D01*
X0081493Y0057706D01*
X0081493Y0056918D01*
X0082280Y0057706D01*
X0082280Y0078572D01*
X0090942Y0083690D02*
X0090942Y0070304D01*
X0092123Y0069123D01*
X0104131Y0069123D01*
X0106493Y0071485D01*
X0109052Y0069910D02*
X0110233Y0071091D01*
X0110233Y0074241D01*
X0112201Y0076209D01*
X0112398Y0076209D01*
X0109446Y0077391D02*
X0109446Y0087430D01*
X0106493Y0090383D01*
X0106493Y0095107D02*
X0100587Y0095107D01*
X0094682Y0095107D01*
X0090253Y0099536D01*
X0090253Y0102981D01*
X0099111Y0102981D01*
X0107969Y0102981D01*
X0116827Y0102981D01*
X0112398Y0095107D02*
X0106493Y0095107D01*
X0097635Y0092154D02*
X0094682Y0095107D01*
X0097635Y0092154D02*
X0097635Y0084083D01*
X0091729Y0084477D02*
X0090942Y0083690D01*
X0103540Y0072666D02*
X0106493Y0075619D01*
X0106493Y0076209D01*
X0112398Y0080737D02*
X0112398Y0080934D01*
X0115351Y0077981D01*
X0115351Y0077391D01*
X0118304Y0076209D02*
X0114751Y0073257D01*
X0114751Y0061839D01*
X0115951Y0053178D02*
X0111611Y0049438D01*
X0110430Y0048257D01*
X0110430Y0039103D01*
X0111583Y0049409D02*
X0111611Y0049438D01*
X0127162Y0069123D02*
X0126375Y0069910D01*
X0126375Y0073060D01*
X0124209Y0075225D01*
X0124209Y0076209D01*
X0126375Y0075028D02*
X0129131Y0072272D01*
X0131099Y0072272D01*
X0126375Y0075028D02*
X0126375Y0078572D01*
X0120469Y0082509D02*
X0120469Y0073847D01*
X0120469Y0082509D02*
X0123225Y0085265D01*
X0131099Y0085265D01*
X0131099Y0089595D02*
X0127556Y0089595D01*
X0125587Y0087627D01*
X0123619Y0091564D02*
X0123619Y0094713D01*
X0127162Y0098257D01*
X0131099Y0098257D01*
X0131099Y0093926D02*
X0125981Y0093926D01*
X0081493Y0046682D02*
X0081493Y0045501D01*
X0084642Y0041761D02*
X0079721Y0036839D01*
X0076375Y0033296D02*
X0076375Y0032509D01*
X0078737Y0030146D01*
X0078737Y0016761D01*
X0075981Y0014005D01*
X0073028Y0014005D01*
X0073028Y0019517D02*
X0074406Y0019517D01*
X0076375Y0021485D01*
X0076375Y0025028D02*
X0073028Y0025028D01*
X0074209Y0029359D02*
X0073028Y0030540D01*
X0074209Y0029359D02*
X0076375Y0029359D01*
X0052359Y0028178D02*
X0052359Y0025028D01*
X0049505Y0022174D01*
X0043205Y0022174D01*
X0045371Y0121190D02*
X0064701Y0121190D01*
X0065351Y0120540D01*
X0061749Y0124143D01*
X0045371Y0124143D01*
D39*
X0072044Y0098257D02*
X0070075Y0096288D01*
X0070075Y0076603D01*
X0068894Y0075422D01*
X0061020Y0075422D01*
X0059839Y0074241D01*
X0059839Y0071879D01*
X0052753Y0064792D01*
X0052753Y0063611D01*
X0055902Y0064792D02*
X0055902Y0065580D01*
X0061414Y0071091D01*
X0061414Y0073060D01*
X0062201Y0073847D01*
X0069682Y0073847D01*
X0071650Y0075816D01*
X0071650Y0091564D01*
X0074012Y0093926D01*
X0075981Y0093926D01*
X0075981Y0098257D02*
X0072044Y0098257D01*
X0072044Y0056918D02*
X0070568Y0055442D01*
X0063776Y0055442D01*
X0064760Y0054457D01*
X0064760Y0050127D01*
X0064760Y0042450D02*
X0064760Y0036741D01*
X0067418Y0034083D01*
X0071650Y0034083D01*
X0074406Y0036839D01*
X0074603Y0036839D01*
X0079721Y0036839D01*
X0084839Y0036839D02*
X0084839Y0032509D01*
X0085430Y0031918D01*
X0085627Y0031721D01*
X0089760Y0031721D01*
X0092438Y0031328D02*
X0094406Y0029359D01*
X0118973Y0029359D01*
X0126453Y0036839D01*
X0126453Y0022666D01*
X0129012Y0025225D01*
X0132674Y0025225D01*
X0126453Y0022666D02*
X0126453Y0020383D01*
X0115745Y0030934D02*
X0103146Y0030934D01*
X0100784Y0033296D01*
X0099209Y0031721D01*
X0095272Y0031721D01*
X0092438Y0031328D02*
X0092438Y0020383D01*
X0092438Y0031328D02*
X0092438Y0036839D01*
X0092438Y0036524D01*
X0100784Y0038513D02*
X0100784Y0033296D01*
X0115745Y0030934D02*
X0118107Y0033296D01*
X0118107Y0038513D01*
X0118894Y0039300D01*
X0081493Y0046682D02*
X0079131Y0049044D01*
X0079131Y0051800D01*
X0079131Y0054556D01*
X0081493Y0056918D01*
X0081493Y0054950D01*
X0072044Y0046682D02*
X0046768Y0046682D01*
X0040154Y0052509D01*
X0037201Y0050343D01*
X0037201Y0044713D01*
X0032083Y0044713D02*
X0031690Y0044713D01*
X0031690Y0040383D01*
X0033068Y0039398D01*
X0033068Y0035658D01*
X0032477Y0035068D01*
X0032477Y0033296D01*
X0028934Y0033296D02*
X0028934Y0035068D01*
X0029131Y0035265D01*
X0026768Y0037627D01*
X0026768Y0037824D01*
X0029131Y0035265D02*
X0030705Y0036839D01*
X0025390Y0033296D02*
X0023619Y0033296D01*
X0022438Y0034477D01*
X0022438Y0037430D01*
X0032477Y0028572D02*
X0032477Y0026406D01*
X0033461Y0025422D01*
X0037398Y0025422D01*
X0040548Y0028572D01*
X0040548Y0033690D01*
X0041729Y0034871D01*
X0045666Y0034871D01*
X0046453Y0034871D01*
X0049209Y0037627D01*
X0046650Y0038217D02*
X0046060Y0037627D01*
X0044879Y0036446D01*
X0040942Y0036446D01*
X0038973Y0034477D01*
X0038973Y0030146D01*
X0037398Y0028572D01*
X0036020Y0028572D01*
X0041335Y0025816D02*
X0043894Y0025816D01*
X0044879Y0026800D01*
X0047438Y0026800D01*
X0051178Y0030540D01*
X0051768Y0031131D01*
X0051768Y0041170D01*
X0046650Y0041170D02*
X0046650Y0038217D01*
X0045666Y0034871D02*
X0044091Y0033296D01*
X0044879Y0031918D01*
X0051178Y0030540D02*
X0057083Y0030540D01*
X0059839Y0033296D01*
X0060233Y0033296D01*
X0063383Y0030540D02*
X0067910Y0030540D01*
X0067910Y0025028D02*
X0063383Y0025028D01*
X0063383Y0019517D02*
X0067910Y0019517D01*
X0067910Y0014005D02*
X0063383Y0014005D01*
X0057083Y0014005D02*
X0057083Y0019517D01*
X0057083Y0025028D01*
X0057083Y0030540D01*
X0062595Y0036839D02*
X0063678Y0036839D01*
X0064760Y0036741D01*
X0062595Y0036839D02*
X0059642Y0040186D01*
X0059642Y0042450D01*
X0043205Y0022174D02*
X0026867Y0022174D01*
M02*
