G75*
%MOIN*%
%OFA0B0*%
%FSLAX25Y25*%
%IPPOS*%
%LPD*%
%AMOC8*
5,1,8,0,0,1.08239X$1,22.5*
%
%ADD10C,0.00000*%
%ADD11C,0.06600*%
%ADD12R,0.06500X0.06500*%
%ADD13C,0.06500*%
%ADD14C,0.40000*%
%ADD15R,0.10000X0.20000*%
%ADD16C,0.01600*%
%ADD17C,0.03562*%
%ADD18C,0.01000*%
D10*
X0022622Y0058041D02*
X0022622Y0210541D01*
X0112622Y0210541D01*
X0112622Y0058041D01*
X0022622Y0058041D01*
X0056795Y0070541D02*
X0056797Y0070629D01*
X0056803Y0070717D01*
X0056813Y0070805D01*
X0056827Y0070893D01*
X0056844Y0070979D01*
X0056866Y0071065D01*
X0056891Y0071149D01*
X0056921Y0071233D01*
X0056953Y0071315D01*
X0056990Y0071395D01*
X0057030Y0071474D01*
X0057074Y0071551D01*
X0057121Y0071626D01*
X0057171Y0071698D01*
X0057225Y0071769D01*
X0057281Y0071836D01*
X0057341Y0071902D01*
X0057403Y0071964D01*
X0057469Y0072024D01*
X0057536Y0072080D01*
X0057607Y0072134D01*
X0057679Y0072184D01*
X0057754Y0072231D01*
X0057831Y0072275D01*
X0057910Y0072315D01*
X0057990Y0072352D01*
X0058072Y0072384D01*
X0058156Y0072414D01*
X0058240Y0072439D01*
X0058326Y0072461D01*
X0058412Y0072478D01*
X0058500Y0072492D01*
X0058588Y0072502D01*
X0058676Y0072508D01*
X0058764Y0072510D01*
X0058852Y0072508D01*
X0058940Y0072502D01*
X0059028Y0072492D01*
X0059116Y0072478D01*
X0059202Y0072461D01*
X0059288Y0072439D01*
X0059372Y0072414D01*
X0059456Y0072384D01*
X0059538Y0072352D01*
X0059618Y0072315D01*
X0059697Y0072275D01*
X0059774Y0072231D01*
X0059849Y0072184D01*
X0059921Y0072134D01*
X0059992Y0072080D01*
X0060059Y0072024D01*
X0060125Y0071964D01*
X0060187Y0071902D01*
X0060247Y0071836D01*
X0060303Y0071769D01*
X0060357Y0071698D01*
X0060407Y0071626D01*
X0060454Y0071551D01*
X0060498Y0071474D01*
X0060538Y0071395D01*
X0060575Y0071315D01*
X0060607Y0071233D01*
X0060637Y0071149D01*
X0060662Y0071065D01*
X0060684Y0070979D01*
X0060701Y0070893D01*
X0060715Y0070805D01*
X0060725Y0070717D01*
X0060731Y0070629D01*
X0060733Y0070541D01*
X0060731Y0070453D01*
X0060725Y0070365D01*
X0060715Y0070277D01*
X0060701Y0070189D01*
X0060684Y0070103D01*
X0060662Y0070017D01*
X0060637Y0069933D01*
X0060607Y0069849D01*
X0060575Y0069767D01*
X0060538Y0069687D01*
X0060498Y0069608D01*
X0060454Y0069531D01*
X0060407Y0069456D01*
X0060357Y0069384D01*
X0060303Y0069313D01*
X0060247Y0069246D01*
X0060187Y0069180D01*
X0060125Y0069118D01*
X0060059Y0069058D01*
X0059992Y0069002D01*
X0059921Y0068948D01*
X0059849Y0068898D01*
X0059774Y0068851D01*
X0059697Y0068807D01*
X0059618Y0068767D01*
X0059538Y0068730D01*
X0059456Y0068698D01*
X0059372Y0068668D01*
X0059288Y0068643D01*
X0059202Y0068621D01*
X0059116Y0068604D01*
X0059028Y0068590D01*
X0058940Y0068580D01*
X0058852Y0068574D01*
X0058764Y0068572D01*
X0058676Y0068574D01*
X0058588Y0068580D01*
X0058500Y0068590D01*
X0058412Y0068604D01*
X0058326Y0068621D01*
X0058240Y0068643D01*
X0058156Y0068668D01*
X0058072Y0068698D01*
X0057990Y0068730D01*
X0057910Y0068767D01*
X0057831Y0068807D01*
X0057754Y0068851D01*
X0057679Y0068898D01*
X0057607Y0068948D01*
X0057536Y0069002D01*
X0057469Y0069058D01*
X0057403Y0069118D01*
X0057341Y0069180D01*
X0057281Y0069246D01*
X0057225Y0069313D01*
X0057171Y0069384D01*
X0057121Y0069456D01*
X0057074Y0069531D01*
X0057030Y0069608D01*
X0056990Y0069687D01*
X0056953Y0069767D01*
X0056921Y0069849D01*
X0056891Y0069933D01*
X0056866Y0070017D01*
X0056844Y0070103D01*
X0056827Y0070189D01*
X0056813Y0070277D01*
X0056803Y0070365D01*
X0056797Y0070453D01*
X0056795Y0070541D01*
X0074511Y0070541D02*
X0074513Y0070629D01*
X0074519Y0070717D01*
X0074529Y0070805D01*
X0074543Y0070893D01*
X0074560Y0070979D01*
X0074582Y0071065D01*
X0074607Y0071149D01*
X0074637Y0071233D01*
X0074669Y0071315D01*
X0074706Y0071395D01*
X0074746Y0071474D01*
X0074790Y0071551D01*
X0074837Y0071626D01*
X0074887Y0071698D01*
X0074941Y0071769D01*
X0074997Y0071836D01*
X0075057Y0071902D01*
X0075119Y0071964D01*
X0075185Y0072024D01*
X0075252Y0072080D01*
X0075323Y0072134D01*
X0075395Y0072184D01*
X0075470Y0072231D01*
X0075547Y0072275D01*
X0075626Y0072315D01*
X0075706Y0072352D01*
X0075788Y0072384D01*
X0075872Y0072414D01*
X0075956Y0072439D01*
X0076042Y0072461D01*
X0076128Y0072478D01*
X0076216Y0072492D01*
X0076304Y0072502D01*
X0076392Y0072508D01*
X0076480Y0072510D01*
X0076568Y0072508D01*
X0076656Y0072502D01*
X0076744Y0072492D01*
X0076832Y0072478D01*
X0076918Y0072461D01*
X0077004Y0072439D01*
X0077088Y0072414D01*
X0077172Y0072384D01*
X0077254Y0072352D01*
X0077334Y0072315D01*
X0077413Y0072275D01*
X0077490Y0072231D01*
X0077565Y0072184D01*
X0077637Y0072134D01*
X0077708Y0072080D01*
X0077775Y0072024D01*
X0077841Y0071964D01*
X0077903Y0071902D01*
X0077963Y0071836D01*
X0078019Y0071769D01*
X0078073Y0071698D01*
X0078123Y0071626D01*
X0078170Y0071551D01*
X0078214Y0071474D01*
X0078254Y0071395D01*
X0078291Y0071315D01*
X0078323Y0071233D01*
X0078353Y0071149D01*
X0078378Y0071065D01*
X0078400Y0070979D01*
X0078417Y0070893D01*
X0078431Y0070805D01*
X0078441Y0070717D01*
X0078447Y0070629D01*
X0078449Y0070541D01*
X0078447Y0070453D01*
X0078441Y0070365D01*
X0078431Y0070277D01*
X0078417Y0070189D01*
X0078400Y0070103D01*
X0078378Y0070017D01*
X0078353Y0069933D01*
X0078323Y0069849D01*
X0078291Y0069767D01*
X0078254Y0069687D01*
X0078214Y0069608D01*
X0078170Y0069531D01*
X0078123Y0069456D01*
X0078073Y0069384D01*
X0078019Y0069313D01*
X0077963Y0069246D01*
X0077903Y0069180D01*
X0077841Y0069118D01*
X0077775Y0069058D01*
X0077708Y0069002D01*
X0077637Y0068948D01*
X0077565Y0068898D01*
X0077490Y0068851D01*
X0077413Y0068807D01*
X0077334Y0068767D01*
X0077254Y0068730D01*
X0077172Y0068698D01*
X0077088Y0068668D01*
X0077004Y0068643D01*
X0076918Y0068621D01*
X0076832Y0068604D01*
X0076744Y0068590D01*
X0076656Y0068580D01*
X0076568Y0068574D01*
X0076480Y0068572D01*
X0076392Y0068574D01*
X0076304Y0068580D01*
X0076216Y0068590D01*
X0076128Y0068604D01*
X0076042Y0068621D01*
X0075956Y0068643D01*
X0075872Y0068668D01*
X0075788Y0068698D01*
X0075706Y0068730D01*
X0075626Y0068767D01*
X0075547Y0068807D01*
X0075470Y0068851D01*
X0075395Y0068898D01*
X0075323Y0068948D01*
X0075252Y0069002D01*
X0075185Y0069058D01*
X0075119Y0069118D01*
X0075057Y0069180D01*
X0074997Y0069246D01*
X0074941Y0069313D01*
X0074887Y0069384D01*
X0074837Y0069456D01*
X0074790Y0069531D01*
X0074746Y0069608D01*
X0074706Y0069687D01*
X0074669Y0069767D01*
X0074637Y0069849D01*
X0074607Y0069933D01*
X0074582Y0070017D01*
X0074560Y0070103D01*
X0074543Y0070189D01*
X0074529Y0070277D01*
X0074519Y0070365D01*
X0074513Y0070453D01*
X0074511Y0070541D01*
D11*
X0090063Y0067241D02*
X0090063Y0073841D01*
X0045181Y0073841D02*
X0045181Y0067241D01*
D12*
X0102622Y0068041D03*
X0102622Y0180541D03*
D13*
X0102622Y0190541D03*
X0102622Y0200541D03*
X0102622Y0108041D03*
X0102622Y0098041D03*
X0102622Y0088041D03*
X0102622Y0078041D03*
D14*
X0060435Y0186166D03*
D15*
X0090435Y0186166D03*
X0030435Y0186166D03*
D16*
X0033335Y0173766D02*
X0035912Y0173766D01*
X0036794Y0174132D01*
X0037469Y0174807D01*
X0037835Y0175689D01*
X0037835Y0196644D01*
X0037469Y0197526D01*
X0036794Y0198201D01*
X0035912Y0198566D01*
X0025022Y0198566D01*
X0025022Y0208141D01*
X0110222Y0208141D01*
X0110222Y0197043D01*
X0109890Y0197375D01*
X0109890Y0197375D01*
X0108327Y0198937D01*
X0108148Y0199117D01*
X0108272Y0199417D01*
X0108272Y0201665D01*
X0107412Y0203742D01*
X0105823Y0205331D01*
X0103746Y0206191D01*
X0101498Y0206191D01*
X0099422Y0205331D01*
X0097832Y0203742D01*
X0096972Y0201665D01*
X0096972Y0199417D01*
X0097832Y0197341D01*
X0099422Y0195752D01*
X0099929Y0195541D01*
X0099422Y0195331D01*
X0097835Y0193744D01*
X0097835Y0196644D01*
X0097469Y0197526D01*
X0096794Y0198201D01*
X0095912Y0198566D01*
X0084957Y0198566D01*
X0084075Y0198201D01*
X0083400Y0197526D01*
X0083035Y0196644D01*
X0083035Y0175689D01*
X0083400Y0174807D01*
X0084075Y0174132D01*
X0084957Y0173766D01*
X0091746Y0173766D01*
X0082671Y0164691D01*
X0071420Y0164691D01*
X0070354Y0164250D01*
X0068952Y0162847D01*
X0068040Y0162847D01*
X0066504Y0162211D01*
X0065328Y0161035D01*
X0064691Y0159498D01*
X0064691Y0157835D01*
X0065328Y0156298D01*
X0066504Y0155122D01*
X0068040Y0154485D01*
X0069704Y0154485D01*
X0071241Y0155122D01*
X0071372Y0155253D01*
X0071504Y0155122D01*
X0073040Y0154485D01*
X0074704Y0154485D01*
X0076241Y0155122D01*
X0076885Y0155766D01*
X0083824Y0155766D01*
X0084890Y0156208D01*
X0087622Y0158940D01*
X0087622Y0148041D01*
X0092622Y0148041D01*
X0092622Y0127537D01*
X0091949Y0127816D01*
X0072198Y0127816D01*
X0071553Y0128461D01*
X0070016Y0129097D01*
X0069897Y0129097D01*
X0069897Y0134403D01*
X0070542Y0135048D01*
X0071178Y0136585D01*
X0071178Y0138248D01*
X0070542Y0139785D01*
X0069366Y0140961D01*
X0067829Y0141597D01*
X0066165Y0141597D01*
X0064629Y0140961D01*
X0063453Y0139785D01*
X0063070Y0138861D01*
X0062574Y0139066D01*
X0059385Y0139066D01*
X0058741Y0139711D01*
X0057204Y0140347D01*
X0055540Y0140347D01*
X0054004Y0139711D01*
X0052828Y0138535D01*
X0052191Y0136998D01*
X0052191Y0135335D01*
X0052828Y0133798D01*
X0054004Y0132622D01*
X0055540Y0131985D01*
X0057204Y0131985D01*
X0058741Y0132622D01*
X0059385Y0133266D01*
X0060796Y0133266D01*
X0061597Y0132465D01*
X0061597Y0128702D01*
X0060641Y0129097D01*
X0058978Y0129097D01*
X0057466Y0128471D01*
X0055954Y0129097D01*
X0054290Y0129097D01*
X0052754Y0128461D01*
X0051578Y0127285D01*
X0050941Y0125748D01*
X0050941Y0124085D01*
X0051578Y0122548D01*
X0052754Y0121372D01*
X0054290Y0120735D01*
X0055202Y0120735D01*
X0060347Y0115590D01*
X0060347Y0097304D01*
X0059703Y0096660D01*
X0059066Y0095123D01*
X0059066Y0093460D01*
X0059703Y0091923D01*
X0060879Y0090747D01*
X0062415Y0090110D01*
X0063327Y0090110D01*
X0065629Y0087809D01*
X0065629Y0086897D01*
X0066265Y0085360D01*
X0067441Y0084184D01*
X0068978Y0083548D01*
X0070641Y0083548D01*
X0072178Y0084184D01*
X0073354Y0085360D01*
X0073991Y0086897D01*
X0073991Y0088561D01*
X0073354Y0090097D01*
X0073191Y0090260D01*
X0074366Y0090747D01*
X0075542Y0091923D01*
X0076178Y0093460D01*
X0076178Y0095123D01*
X0075542Y0096660D01*
X0074366Y0097836D01*
X0072829Y0098472D01*
X0071917Y0098472D01*
X0068335Y0102055D01*
X0068335Y0118579D01*
X0089546Y0118579D01*
X0094410Y0113715D01*
X0094410Y0102777D01*
X0094851Y0101711D01*
X0095667Y0100895D01*
X0097097Y0099466D01*
X0096972Y0099165D01*
X0096972Y0096917D01*
X0097832Y0094841D01*
X0099422Y0093252D01*
X0099929Y0093041D01*
X0099422Y0092831D01*
X0097832Y0091242D01*
X0096972Y0089165D01*
X0096972Y0086917D01*
X0097832Y0084841D01*
X0099422Y0083252D01*
X0099929Y0083041D01*
X0099422Y0082831D01*
X0097832Y0081242D01*
X0096972Y0079165D01*
X0096972Y0076917D01*
X0097832Y0074841D01*
X0099422Y0073252D01*
X0099808Y0073091D01*
X0099135Y0073091D01*
X0098677Y0072969D01*
X0098267Y0072732D01*
X0097932Y0072397D01*
X0097695Y0071986D01*
X0097572Y0071528D01*
X0097572Y0068116D01*
X0102547Y0068116D01*
X0102547Y0067966D01*
X0102697Y0067966D01*
X0102697Y0062991D01*
X0106109Y0062991D01*
X0106567Y0063114D01*
X0106977Y0063351D01*
X0107313Y0063686D01*
X0107549Y0064097D01*
X0107672Y0064554D01*
X0107672Y0067966D01*
X0102697Y0067966D01*
X0102697Y0068116D01*
X0107672Y0068116D01*
X0107672Y0071528D01*
X0107549Y0071986D01*
X0107313Y0072397D01*
X0106977Y0072732D01*
X0106567Y0072969D01*
X0106109Y0073091D01*
X0105436Y0073091D01*
X0105823Y0073252D01*
X0107412Y0074841D01*
X0108272Y0076917D01*
X0108272Y0079165D01*
X0107412Y0081242D01*
X0105823Y0082831D01*
X0105315Y0083041D01*
X0105823Y0083252D01*
X0107412Y0084841D01*
X0108272Y0086917D01*
X0108272Y0089165D01*
X0107412Y0091242D01*
X0105823Y0092831D01*
X0105315Y0093041D01*
X0105823Y0093252D01*
X0107412Y0094841D01*
X0108272Y0096917D01*
X0108272Y0099165D01*
X0107412Y0101242D01*
X0105823Y0102831D01*
X0105315Y0103041D01*
X0105823Y0103252D01*
X0107412Y0104841D01*
X0108272Y0106917D01*
X0108272Y0109165D01*
X0107412Y0111242D01*
X0105823Y0112831D01*
X0105522Y0112956D01*
X0105522Y0114243D01*
X0105081Y0115309D01*
X0099848Y0120541D01*
X0110222Y0120541D01*
X0110222Y0060441D01*
X0025022Y0060441D01*
X0025022Y0173766D01*
X0027535Y0173766D01*
X0027535Y0171214D01*
X0027976Y0170149D01*
X0030941Y0167184D01*
X0030941Y0166272D01*
X0031578Y0164735D01*
X0032754Y0163559D01*
X0034290Y0162923D01*
X0035954Y0162923D01*
X0037491Y0163559D01*
X0038667Y0164735D01*
X0039303Y0166272D01*
X0039303Y0167936D01*
X0038667Y0169472D01*
X0037491Y0170648D01*
X0035954Y0171285D01*
X0035042Y0171285D01*
X0033335Y0172993D01*
X0033335Y0173766D01*
X0033335Y0173134D02*
X0041490Y0173134D01*
X0041816Y0173461D02*
X0040640Y0172285D01*
X0040004Y0170748D01*
X0040004Y0169085D01*
X0040565Y0167729D01*
X0040004Y0166373D01*
X0040004Y0164710D01*
X0040640Y0163173D01*
X0041816Y0161997D01*
X0043353Y0161360D01*
X0044265Y0161360D01*
X0045347Y0160278D01*
X0045347Y0152304D01*
X0044703Y0151660D01*
X0044066Y0150123D01*
X0044066Y0148460D01*
X0044703Y0146923D01*
X0045879Y0145747D01*
X0047415Y0145110D01*
X0049079Y0145110D01*
X0050616Y0145747D01*
X0051792Y0146923D01*
X0052428Y0148460D01*
X0052428Y0150123D01*
X0051792Y0151660D01*
X0051147Y0152304D01*
X0051147Y0153540D01*
X0055316Y0149371D01*
X0055316Y0148460D01*
X0055953Y0146923D01*
X0057129Y0145747D01*
X0058665Y0145110D01*
X0060329Y0145110D01*
X0061866Y0145747D01*
X0063042Y0146923D01*
X0063678Y0148460D01*
X0063678Y0150123D01*
X0063042Y0151660D01*
X0061866Y0152836D01*
X0060329Y0153472D01*
X0059417Y0153472D01*
X0053335Y0159555D01*
X0053335Y0164243D01*
X0052893Y0165309D01*
X0052236Y0165966D01*
X0052883Y0165698D01*
X0054513Y0165169D01*
X0056178Y0164769D01*
X0057870Y0164501D01*
X0059578Y0164366D01*
X0059635Y0164366D01*
X0059635Y0185366D01*
X0061235Y0185366D01*
X0061235Y0186966D01*
X0082235Y0186966D01*
X0082235Y0187023D01*
X0082100Y0188731D01*
X0081832Y0190423D01*
X0081432Y0192088D01*
X0080903Y0193718D01*
X0080247Y0195300D01*
X0079470Y0196826D01*
X0078575Y0198287D01*
X0077568Y0199673D01*
X0076455Y0200976D01*
X0075244Y0202187D01*
X0073941Y0203299D01*
X0072555Y0204306D01*
X0071095Y0205201D01*
X0069568Y0205979D01*
X0067986Y0206635D01*
X0066357Y0207164D01*
X0064691Y0207564D01*
X0062999Y0207832D01*
X0061291Y0207966D01*
X0061235Y0207966D01*
X0061235Y0186966D01*
X0059635Y0186966D01*
X0059635Y0185366D01*
X0038635Y0185366D01*
X0038635Y0185310D01*
X0038769Y0183602D01*
X0039037Y0181910D01*
X0039437Y0180244D01*
X0039966Y0178615D01*
X0040622Y0177033D01*
X0041400Y0175506D01*
X0042295Y0174046D01*
X0042511Y0173748D01*
X0041816Y0173461D01*
X0041874Y0174733D02*
X0037395Y0174733D01*
X0037835Y0176331D02*
X0040979Y0176331D01*
X0040250Y0177930D02*
X0037835Y0177930D01*
X0037835Y0179528D02*
X0039670Y0179528D01*
X0039225Y0181127D02*
X0037835Y0181127D01*
X0037835Y0182725D02*
X0038908Y0182725D01*
X0038712Y0184324D02*
X0037835Y0184324D01*
X0037835Y0185922D02*
X0059635Y0185922D01*
X0059635Y0186966D02*
X0038635Y0186966D01*
X0038635Y0187023D01*
X0038769Y0188731D01*
X0039037Y0190423D01*
X0039437Y0192088D01*
X0039966Y0193718D01*
X0040622Y0195300D01*
X0041400Y0196826D01*
X0042295Y0198287D01*
X0043302Y0199673D01*
X0044414Y0200976D01*
X0045625Y0202187D01*
X0046928Y0203299D01*
X0048314Y0204306D01*
X0049775Y0205201D01*
X0051301Y0205979D01*
X0052883Y0206635D01*
X0054513Y0207164D01*
X0056178Y0207564D01*
X0057870Y0207832D01*
X0059578Y0207966D01*
X0059635Y0207966D01*
X0059635Y0186966D01*
X0059635Y0187521D02*
X0061235Y0187521D01*
X0061235Y0189119D02*
X0059635Y0189119D01*
X0059635Y0190718D02*
X0061235Y0190718D01*
X0061235Y0192316D02*
X0059635Y0192316D01*
X0059635Y0193915D02*
X0061235Y0193915D01*
X0061235Y0195513D02*
X0059635Y0195513D01*
X0059635Y0197112D02*
X0061235Y0197112D01*
X0061235Y0198710D02*
X0059635Y0198710D01*
X0059635Y0200309D02*
X0061235Y0200309D01*
X0061235Y0201907D02*
X0059635Y0201907D01*
X0059635Y0203506D02*
X0061235Y0203506D01*
X0061235Y0205104D02*
X0059635Y0205104D01*
X0059635Y0206703D02*
X0061235Y0206703D01*
X0067776Y0206703D02*
X0110222Y0206703D01*
X0110222Y0205104D02*
X0106049Y0205104D01*
X0107510Y0203506D02*
X0110222Y0203506D01*
X0110222Y0201907D02*
X0108172Y0201907D01*
X0108272Y0200309D02*
X0110222Y0200309D01*
X0110222Y0198710D02*
X0108554Y0198710D01*
X0110153Y0197112D02*
X0110222Y0197112D01*
X0099861Y0195513D02*
X0097835Y0195513D01*
X0097835Y0193915D02*
X0098005Y0193915D01*
X0098061Y0197112D02*
X0097641Y0197112D01*
X0097265Y0198710D02*
X0078267Y0198710D01*
X0079295Y0197112D02*
X0083229Y0197112D01*
X0083035Y0195513D02*
X0080139Y0195513D01*
X0080821Y0193915D02*
X0083035Y0193915D01*
X0083035Y0192316D02*
X0081358Y0192316D01*
X0081761Y0190718D02*
X0083035Y0190718D01*
X0083035Y0189119D02*
X0082039Y0189119D01*
X0082195Y0187521D02*
X0083035Y0187521D01*
X0083035Y0185922D02*
X0061235Y0185922D01*
X0061235Y0185366D02*
X0082235Y0185366D01*
X0082235Y0185310D01*
X0082100Y0183602D01*
X0081832Y0181910D01*
X0081432Y0180244D01*
X0080903Y0178615D01*
X0080247Y0177033D01*
X0079470Y0175506D01*
X0078575Y0174046D01*
X0077568Y0172660D01*
X0076455Y0171357D01*
X0075244Y0170146D01*
X0073941Y0169033D01*
X0072555Y0168026D01*
X0071095Y0167131D01*
X0069568Y0166354D01*
X0067986Y0165698D01*
X0066357Y0165169D01*
X0064691Y0164769D01*
X0062999Y0164501D01*
X0061291Y0164366D01*
X0061235Y0164366D01*
X0061235Y0185366D01*
X0061235Y0184324D02*
X0059635Y0184324D01*
X0059635Y0182725D02*
X0061235Y0182725D01*
X0061235Y0181127D02*
X0059635Y0181127D01*
X0059635Y0179528D02*
X0061235Y0179528D01*
X0061235Y0177930D02*
X0059635Y0177930D01*
X0059635Y0176331D02*
X0061235Y0176331D01*
X0061235Y0174733D02*
X0059635Y0174733D01*
X0059635Y0173134D02*
X0061235Y0173134D01*
X0061235Y0171536D02*
X0059635Y0171536D01*
X0059635Y0169937D02*
X0061235Y0169937D01*
X0061235Y0168339D02*
X0059635Y0168339D01*
X0059635Y0166740D02*
X0061235Y0166740D01*
X0061235Y0165142D02*
X0059635Y0165142D01*
X0054625Y0165142D02*
X0052963Y0165142D01*
X0053335Y0163543D02*
X0069648Y0163543D01*
X0070327Y0166740D02*
X0084720Y0166740D01*
X0086318Y0168339D02*
X0072985Y0168339D01*
X0075000Y0169937D02*
X0087917Y0169937D01*
X0089515Y0171536D02*
X0076608Y0171536D01*
X0077913Y0173134D02*
X0091114Y0173134D01*
X0083474Y0174733D02*
X0078996Y0174733D01*
X0079890Y0176331D02*
X0083035Y0176331D01*
X0083035Y0177930D02*
X0080619Y0177930D01*
X0081200Y0179528D02*
X0083035Y0179528D01*
X0083035Y0181127D02*
X0081644Y0181127D01*
X0081961Y0182725D02*
X0083035Y0182725D01*
X0083035Y0184324D02*
X0082157Y0184324D01*
X0077025Y0200309D02*
X0096972Y0200309D01*
X0097072Y0201907D02*
X0075523Y0201907D01*
X0073657Y0203506D02*
X0097735Y0203506D01*
X0099195Y0205104D02*
X0071253Y0205104D01*
X0053093Y0206703D02*
X0025022Y0206703D01*
X0025022Y0205104D02*
X0049616Y0205104D01*
X0047212Y0203506D02*
X0025022Y0203506D01*
X0025022Y0201907D02*
X0045346Y0201907D01*
X0043845Y0200309D02*
X0025022Y0200309D01*
X0025022Y0198710D02*
X0042602Y0198710D01*
X0041574Y0197112D02*
X0037641Y0197112D01*
X0037835Y0195513D02*
X0040730Y0195513D01*
X0040048Y0193915D02*
X0037835Y0193915D01*
X0037835Y0192316D02*
X0039511Y0192316D01*
X0039108Y0190718D02*
X0037835Y0190718D01*
X0037835Y0189119D02*
X0038831Y0189119D01*
X0038674Y0187521D02*
X0037835Y0187521D01*
X0040330Y0171536D02*
X0034792Y0171536D01*
X0038202Y0169937D02*
X0040004Y0169937D01*
X0040313Y0168339D02*
X0039136Y0168339D01*
X0039303Y0166740D02*
X0040156Y0166740D01*
X0040004Y0165142D02*
X0038835Y0165142D01*
X0037452Y0163543D02*
X0040487Y0163543D01*
X0041942Y0161945D02*
X0025022Y0161945D01*
X0025022Y0163543D02*
X0032793Y0163543D01*
X0031409Y0165142D02*
X0025022Y0165142D01*
X0025022Y0166740D02*
X0030941Y0166740D01*
X0029786Y0168339D02*
X0025022Y0168339D01*
X0025022Y0169937D02*
X0028188Y0169937D01*
X0027535Y0171536D02*
X0025022Y0171536D01*
X0025022Y0173134D02*
X0027535Y0173134D01*
X0025022Y0160346D02*
X0045279Y0160346D01*
X0045347Y0158748D02*
X0025022Y0158748D01*
X0025022Y0157149D02*
X0045347Y0157149D01*
X0045347Y0155551D02*
X0025022Y0155551D01*
X0025022Y0153952D02*
X0045347Y0153952D01*
X0045347Y0152354D02*
X0025022Y0152354D01*
X0025022Y0150755D02*
X0044328Y0150755D01*
X0044066Y0149156D02*
X0025022Y0149156D01*
X0025022Y0147558D02*
X0044440Y0147558D01*
X0045666Y0145959D02*
X0025022Y0145959D01*
X0025022Y0144361D02*
X0092622Y0144361D01*
X0092622Y0145959D02*
X0062078Y0145959D01*
X0063305Y0147558D02*
X0092622Y0147558D01*
X0092622Y0142762D02*
X0025022Y0142762D01*
X0025022Y0141164D02*
X0065119Y0141164D01*
X0063362Y0139565D02*
X0058886Y0139565D01*
X0056916Y0145959D02*
X0050828Y0145959D01*
X0052055Y0147558D02*
X0055690Y0147558D01*
X0055316Y0149156D02*
X0052428Y0149156D01*
X0052166Y0150755D02*
X0053932Y0150755D01*
X0052334Y0152354D02*
X0051147Y0152354D01*
X0055741Y0157149D02*
X0064975Y0157149D01*
X0064691Y0158748D02*
X0054142Y0158748D01*
X0053335Y0160346D02*
X0065042Y0160346D01*
X0066237Y0161945D02*
X0053335Y0161945D01*
X0057339Y0155551D02*
X0066075Y0155551D01*
X0062348Y0152354D02*
X0087622Y0152354D01*
X0087622Y0153952D02*
X0058938Y0153952D01*
X0063416Y0150755D02*
X0087622Y0150755D01*
X0087622Y0149156D02*
X0063678Y0149156D01*
X0068875Y0141164D02*
X0092622Y0141164D01*
X0092622Y0139565D02*
X0070633Y0139565D01*
X0071178Y0137967D02*
X0092622Y0137967D01*
X0092622Y0136368D02*
X0071089Y0136368D01*
X0070264Y0134770D02*
X0092622Y0134770D01*
X0092622Y0133171D02*
X0069897Y0133171D01*
X0069897Y0131573D02*
X0092622Y0131573D01*
X0092622Y0129974D02*
X0069897Y0129974D01*
X0071638Y0128376D02*
X0092622Y0128376D01*
X0090939Y0117186D02*
X0068335Y0117186D01*
X0068335Y0115588D02*
X0092537Y0115588D01*
X0094136Y0113989D02*
X0068335Y0113989D01*
X0068335Y0112391D02*
X0094410Y0112391D01*
X0094410Y0110792D02*
X0068335Y0110792D01*
X0068335Y0109194D02*
X0094410Y0109194D01*
X0094410Y0107595D02*
X0068335Y0107595D01*
X0068335Y0105997D02*
X0094410Y0105997D01*
X0094410Y0104398D02*
X0068335Y0104398D01*
X0068335Y0102800D02*
X0094410Y0102800D01*
X0095361Y0101201D02*
X0069189Y0101201D01*
X0070787Y0099603D02*
X0096960Y0099603D01*
X0096972Y0098004D02*
X0073959Y0098004D01*
X0075647Y0096406D02*
X0097184Y0096406D01*
X0097866Y0094807D02*
X0076178Y0094807D01*
X0076074Y0093209D02*
X0099525Y0093209D01*
X0098201Y0091610D02*
X0075229Y0091610D01*
X0073991Y0088413D02*
X0096972Y0088413D01*
X0097015Y0086815D02*
X0073957Y0086815D01*
X0073210Y0085216D02*
X0097677Y0085216D01*
X0099056Y0083618D02*
X0070810Y0083618D01*
X0068810Y0083618D02*
X0025022Y0083618D01*
X0025022Y0085216D02*
X0066409Y0085216D01*
X0065663Y0086815D02*
X0025022Y0086815D01*
X0025022Y0088413D02*
X0065024Y0088413D01*
X0063426Y0090012D02*
X0025022Y0090012D01*
X0025022Y0091610D02*
X0060015Y0091610D01*
X0059170Y0093209D02*
X0025022Y0093209D01*
X0025022Y0094807D02*
X0059066Y0094807D01*
X0059597Y0096406D02*
X0025022Y0096406D01*
X0025022Y0098004D02*
X0060347Y0098004D01*
X0060347Y0099603D02*
X0025022Y0099603D01*
X0025022Y0101201D02*
X0060347Y0101201D01*
X0060347Y0102800D02*
X0025022Y0102800D01*
X0025022Y0104398D02*
X0060347Y0104398D01*
X0060347Y0105997D02*
X0025022Y0105997D01*
X0025022Y0107595D02*
X0060347Y0107595D01*
X0060347Y0109194D02*
X0025022Y0109194D01*
X0025022Y0110792D02*
X0060347Y0110792D01*
X0060347Y0112391D02*
X0025022Y0112391D01*
X0025022Y0113989D02*
X0060347Y0113989D01*
X0060347Y0115588D02*
X0025022Y0115588D01*
X0025022Y0117186D02*
X0058751Y0117186D01*
X0057153Y0118785D02*
X0025022Y0118785D01*
X0025022Y0120383D02*
X0055554Y0120383D01*
X0052144Y0121982D02*
X0025022Y0121982D01*
X0025022Y0123580D02*
X0051150Y0123580D01*
X0050941Y0125179D02*
X0025022Y0125179D01*
X0025022Y0126777D02*
X0051367Y0126777D01*
X0052669Y0128376D02*
X0025022Y0128376D01*
X0025022Y0129974D02*
X0061597Y0129974D01*
X0061597Y0131573D02*
X0025022Y0131573D01*
X0025022Y0133171D02*
X0053454Y0133171D01*
X0052425Y0134770D02*
X0025022Y0134770D01*
X0025022Y0136368D02*
X0052191Y0136368D01*
X0052592Y0137967D02*
X0025022Y0137967D01*
X0025022Y0139565D02*
X0053858Y0139565D01*
X0059290Y0133171D02*
X0060891Y0133171D01*
X0076669Y0155551D02*
X0087622Y0155551D01*
X0087622Y0157149D02*
X0085831Y0157149D01*
X0087430Y0158748D02*
X0087622Y0158748D01*
X0083121Y0165142D02*
X0066244Y0165142D01*
X0100006Y0120383D02*
X0110222Y0120383D01*
X0110222Y0118785D02*
X0101605Y0118785D01*
X0103203Y0117186D02*
X0110222Y0117186D01*
X0110222Y0115588D02*
X0104802Y0115588D01*
X0105522Y0113989D02*
X0110222Y0113989D01*
X0110222Y0112391D02*
X0106263Y0112391D01*
X0107598Y0110792D02*
X0110222Y0110792D01*
X0110222Y0109194D02*
X0108260Y0109194D01*
X0108272Y0107595D02*
X0110222Y0107595D01*
X0110222Y0105997D02*
X0107891Y0105997D01*
X0106969Y0104398D02*
X0110222Y0104398D01*
X0110222Y0102800D02*
X0105854Y0102800D01*
X0107429Y0101201D02*
X0110222Y0101201D01*
X0110222Y0099603D02*
X0108091Y0099603D01*
X0108272Y0098004D02*
X0110222Y0098004D01*
X0110222Y0096406D02*
X0108060Y0096406D01*
X0107378Y0094807D02*
X0110222Y0094807D01*
X0110222Y0093209D02*
X0105719Y0093209D01*
X0107044Y0091610D02*
X0110222Y0091610D01*
X0110222Y0090012D02*
X0107922Y0090012D01*
X0108272Y0088413D02*
X0110222Y0088413D01*
X0110222Y0086815D02*
X0108230Y0086815D01*
X0107567Y0085216D02*
X0110222Y0085216D01*
X0110222Y0083618D02*
X0106189Y0083618D01*
X0106635Y0082019D02*
X0110222Y0082019D01*
X0110222Y0080420D02*
X0107752Y0080420D01*
X0108272Y0078822D02*
X0110222Y0078822D01*
X0110222Y0077223D02*
X0108272Y0077223D01*
X0107737Y0075625D02*
X0110222Y0075625D01*
X0110222Y0074026D02*
X0106598Y0074026D01*
X0107281Y0072428D02*
X0110222Y0072428D01*
X0110222Y0070829D02*
X0107672Y0070829D01*
X0107672Y0069231D02*
X0110222Y0069231D01*
X0110222Y0067632D02*
X0107672Y0067632D01*
X0107672Y0066034D02*
X0110222Y0066034D01*
X0110222Y0064435D02*
X0107640Y0064435D01*
X0110222Y0062837D02*
X0093720Y0062837D01*
X0093292Y0062409D02*
X0094895Y0064013D01*
X0095763Y0066108D01*
X0095763Y0074975D01*
X0094895Y0077070D01*
X0093292Y0078674D01*
X0091197Y0079541D01*
X0088929Y0079541D01*
X0086834Y0078674D01*
X0085231Y0077070D01*
X0084363Y0074975D01*
X0084363Y0066108D01*
X0085231Y0064013D01*
X0086834Y0062409D01*
X0088929Y0061541D01*
X0091197Y0061541D01*
X0093292Y0062409D01*
X0095070Y0064435D02*
X0097604Y0064435D01*
X0097572Y0064554D02*
X0097695Y0064097D01*
X0097932Y0063686D01*
X0098267Y0063351D01*
X0098677Y0063114D01*
X0099135Y0062991D01*
X0102547Y0062991D01*
X0102547Y0067966D01*
X0097572Y0067966D01*
X0097572Y0064554D01*
X0097572Y0066034D02*
X0095733Y0066034D01*
X0095763Y0067632D02*
X0097572Y0067632D01*
X0097572Y0069231D02*
X0095763Y0069231D01*
X0095763Y0070829D02*
X0097572Y0070829D01*
X0097963Y0072428D02*
X0095763Y0072428D01*
X0095763Y0074026D02*
X0098647Y0074026D01*
X0097508Y0075625D02*
X0095494Y0075625D01*
X0094742Y0077223D02*
X0096972Y0077223D01*
X0096972Y0078822D02*
X0092934Y0078822D01*
X0097492Y0080420D02*
X0025022Y0080420D01*
X0025022Y0078822D02*
X0042311Y0078822D01*
X0041952Y0078674D02*
X0040349Y0077070D01*
X0039481Y0074975D01*
X0039481Y0066108D01*
X0040349Y0064013D01*
X0041952Y0062409D01*
X0044047Y0061541D01*
X0046315Y0061541D01*
X0048410Y0062409D01*
X0050013Y0064013D01*
X0050881Y0066108D01*
X0050881Y0074975D01*
X0050013Y0077070D01*
X0048410Y0078674D01*
X0046315Y0079541D01*
X0044047Y0079541D01*
X0041952Y0078674D01*
X0040502Y0077223D02*
X0025022Y0077223D01*
X0025022Y0075625D02*
X0039750Y0075625D01*
X0039481Y0074026D02*
X0025022Y0074026D01*
X0025022Y0072428D02*
X0039481Y0072428D01*
X0039481Y0070829D02*
X0025022Y0070829D01*
X0025022Y0069231D02*
X0039481Y0069231D01*
X0039481Y0067632D02*
X0025022Y0067632D01*
X0025022Y0066034D02*
X0039512Y0066034D01*
X0040174Y0064435D02*
X0025022Y0064435D01*
X0025022Y0062837D02*
X0041525Y0062837D01*
X0048838Y0062837D02*
X0086407Y0062837D01*
X0085056Y0064435D02*
X0050189Y0064435D01*
X0050851Y0066034D02*
X0084394Y0066034D01*
X0084363Y0067632D02*
X0079750Y0067632D01*
X0080184Y0068067D02*
X0080849Y0069672D01*
X0080849Y0071410D01*
X0080184Y0073016D01*
X0078955Y0074245D01*
X0077349Y0074910D01*
X0075611Y0074910D01*
X0074006Y0074245D01*
X0072777Y0073016D01*
X0072112Y0071410D01*
X0072112Y0069672D01*
X0072777Y0068067D01*
X0074006Y0066838D01*
X0075611Y0066173D01*
X0077349Y0066173D01*
X0078955Y0066838D01*
X0080184Y0068067D01*
X0080666Y0069231D02*
X0084363Y0069231D01*
X0084363Y0070829D02*
X0080849Y0070829D01*
X0080427Y0072428D02*
X0084363Y0072428D01*
X0084363Y0074026D02*
X0079173Y0074026D01*
X0073788Y0074026D02*
X0061457Y0074026D01*
X0061238Y0074245D02*
X0059633Y0074910D01*
X0057895Y0074910D01*
X0056289Y0074245D01*
X0055060Y0073016D01*
X0054395Y0071410D01*
X0054395Y0069672D01*
X0055060Y0068067D01*
X0056289Y0066838D01*
X0057895Y0066173D01*
X0059633Y0066173D01*
X0061238Y0066838D01*
X0062467Y0068067D01*
X0063132Y0069672D01*
X0063132Y0071410D01*
X0062467Y0073016D01*
X0061238Y0074245D01*
X0062711Y0072428D02*
X0072533Y0072428D01*
X0072112Y0070829D02*
X0063132Y0070829D01*
X0062950Y0069231D02*
X0072295Y0069231D01*
X0073211Y0067632D02*
X0062033Y0067632D01*
X0056071Y0074026D02*
X0050881Y0074026D01*
X0050881Y0072428D02*
X0054817Y0072428D01*
X0054395Y0070829D02*
X0050881Y0070829D01*
X0050881Y0069231D02*
X0054578Y0069231D01*
X0055495Y0067632D02*
X0050881Y0067632D01*
X0050612Y0075625D02*
X0084632Y0075625D01*
X0085384Y0077223D02*
X0049860Y0077223D01*
X0048052Y0078822D02*
X0087193Y0078822D01*
X0097323Y0090012D02*
X0073390Y0090012D01*
X0098610Y0082019D02*
X0025022Y0082019D01*
X0025022Y0061238D02*
X0110222Y0061238D01*
X0102697Y0064435D02*
X0102547Y0064435D01*
X0102547Y0066034D02*
X0102697Y0066034D01*
X0102697Y0067632D02*
X0102547Y0067632D01*
D17*
X0089497Y0083666D03*
X0080122Y0061791D03*
X0067622Y0061791D03*
X0055122Y0061791D03*
X0069810Y0087729D03*
X0071997Y0094291D03*
X0063247Y0094291D03*
X0056372Y0105541D03*
X0055122Y0116791D03*
X0055122Y0124916D03*
X0059810Y0124916D03*
X0064497Y0124916D03*
X0069185Y0124916D03*
X0066997Y0137416D03*
X0059497Y0149291D03*
X0056372Y0136166D03*
X0049497Y0124916D03*
X0037622Y0113041D03*
X0027622Y0123666D03*
X0027622Y0133041D03*
X0044185Y0165541D03*
X0044185Y0169916D03*
X0035122Y0167104D03*
X0048247Y0149291D03*
X0056372Y0163666D03*
X0068872Y0158666D03*
X0073872Y0158666D03*
X0090435Y0137416D03*
X0077622Y0116791D03*
X0106997Y0117416D03*
X0093122Y0200541D03*
X0063122Y0200541D03*
X0038872Y0095541D03*
D18*
X0063247Y0116791D02*
X0055122Y0124916D01*
X0059810Y0124916D02*
X0065435Y0119291D01*
X0065435Y0100854D01*
X0071997Y0094291D01*
X0069810Y0087729D02*
X0063247Y0094291D01*
X0063247Y0116791D01*
X0067935Y0121479D02*
X0064497Y0124916D01*
X0064497Y0133666D01*
X0061997Y0136166D01*
X0056372Y0136166D01*
X0059497Y0149291D02*
X0050435Y0158354D01*
X0050435Y0163666D01*
X0044185Y0169916D01*
X0044185Y0165541D02*
X0048247Y0161479D01*
X0048247Y0149291D01*
X0035122Y0167104D02*
X0030435Y0171791D01*
X0030435Y0186166D01*
X0066997Y0137416D02*
X0066997Y0127104D01*
X0069185Y0124916D01*
X0091372Y0124916D01*
X0102622Y0113666D01*
X0102622Y0108041D01*
X0097310Y0103354D02*
X0097310Y0114916D01*
X0090747Y0121479D01*
X0067935Y0121479D01*
X0068872Y0158666D02*
X0071997Y0161791D01*
X0083872Y0161791D01*
X0097622Y0175541D01*
X0106997Y0175541D01*
X0107622Y0176166D01*
X0107622Y0185541D01*
X0102622Y0190541D01*
X0108247Y0194916D02*
X0106685Y0196479D01*
X0102622Y0200541D01*
X0108247Y0194916D02*
X0109497Y0193666D01*
X0109497Y0175541D01*
X0107622Y0173666D01*
X0098247Y0173666D01*
X0083247Y0158666D01*
X0073872Y0158666D01*
X0097310Y0103354D02*
X0102622Y0098041D01*
M02*
