%
M48
M72
T01C0.02362
T02C0.03500
T03C0.03937
%
T01
X38872Y95541
X37622Y113041
X27622Y123666
X27622Y133041
X44185Y165541
X44185Y169916
X35122Y167104
X48247Y149291
X56372Y136166
X55122Y124916
X59810Y124916
X64497Y124916
X69185Y124916
X66997Y137416
X59497Y149291
X56372Y163666
X68872Y158666
X73872Y158666
X90435Y137416
X77622Y116791
X71997Y94291
X69810Y87729
X63247Y94291
X56372Y105541
X55122Y116791
X49497Y124916
X55122Y61791
X67622Y61791
X80122Y61791
X89497Y83666
X106997Y117416
X93122Y200541
X63122Y200541
T02
X102622Y68041
X102622Y78041
X102622Y88041
X102622Y98041
X102622Y108041
X102622Y180541
X102622Y190541
X102622Y200541
T03
X45181Y70541
X58764Y70541
X76480Y70541
X90063Y70541
M30
