G75*
%MOIN*%
%OFA0B0*%
%FSLAX25Y25*%
%IPPOS*%
%LPD*%
%AMOC8*
5,1,8,0,0,1.08239X$1,22.5*
%
%ADD10C,0.00000*%
%ADD11C,0.00500*%
%ADD12C,0.00200*%
%ADD13C,0.00394*%
%ADD14C,0.00400*%
D10*
X0041335Y0037870D02*
X0041335Y0155980D01*
X0121650Y0155980D01*
X0121650Y0037870D01*
X0041335Y0037870D01*
D11*
X0062493Y0086799D02*
X0069493Y0086799D01*
X0062493Y0086799D02*
X0056493Y0092799D01*
X0056492Y0116799D02*
X0056719Y0117122D01*
X0056954Y0117439D01*
X0057196Y0117751D01*
X0057446Y0118056D01*
X0057703Y0118356D01*
X0057967Y0118649D01*
X0058239Y0118936D01*
X0058517Y0119216D01*
X0058802Y0119489D01*
X0059093Y0119755D01*
X0059391Y0120014D01*
X0059695Y0120265D01*
X0060005Y0120510D01*
X0060321Y0120746D01*
X0060643Y0120975D01*
X0060970Y0121196D01*
X0061302Y0121409D01*
X0061639Y0121614D01*
X0061982Y0121811D01*
X0062328Y0121999D01*
X0062680Y0122179D01*
X0063035Y0122350D01*
X0063395Y0122513D01*
X0063758Y0122666D01*
X0064126Y0122811D01*
X0064496Y0122947D01*
X0064870Y0123074D01*
X0065247Y0123192D01*
X0065626Y0123301D01*
X0066008Y0123400D01*
X0066392Y0123490D01*
X0066779Y0123571D01*
X0067167Y0123642D01*
X0067556Y0123704D01*
X0067948Y0123757D01*
X0068340Y0123800D01*
X0068733Y0123833D01*
X0069127Y0123857D01*
X0069522Y0123871D01*
X0069916Y0123876D01*
X0070311Y0123871D01*
X0070705Y0123857D01*
X0071099Y0123833D01*
X0071493Y0123799D01*
X0091492Y0123799D02*
X0091886Y0123833D01*
X0092280Y0123857D01*
X0092674Y0123871D01*
X0093069Y0123876D01*
X0093463Y0123871D01*
X0093858Y0123857D01*
X0094252Y0123833D01*
X0094645Y0123800D01*
X0095037Y0123757D01*
X0095429Y0123704D01*
X0095818Y0123642D01*
X0096206Y0123571D01*
X0096593Y0123490D01*
X0096977Y0123400D01*
X0097359Y0123301D01*
X0097738Y0123192D01*
X0098115Y0123074D01*
X0098489Y0122947D01*
X0098859Y0122811D01*
X0099227Y0122666D01*
X0099590Y0122513D01*
X0099950Y0122350D01*
X0100305Y0122179D01*
X0100657Y0121999D01*
X0101003Y0121811D01*
X0101346Y0121614D01*
X0101683Y0121409D01*
X0102015Y0121196D01*
X0102342Y0120975D01*
X0102664Y0120746D01*
X0102980Y0120510D01*
X0103290Y0120265D01*
X0103594Y0120014D01*
X0103892Y0119755D01*
X0104183Y0119489D01*
X0104468Y0119216D01*
X0104746Y0118936D01*
X0105018Y0118649D01*
X0105282Y0118356D01*
X0105539Y0118056D01*
X0105789Y0117751D01*
X0106031Y0117439D01*
X0106266Y0117122D01*
X0106493Y0116799D01*
X0106493Y0092799D02*
X0100493Y0086799D01*
X0093493Y0086799D01*
D12*
X0086031Y0127734D02*
X0084752Y0127734D01*
X0084326Y0128160D01*
X0084326Y0128587D01*
X0084752Y0129013D01*
X0086031Y0129013D01*
X0084752Y0129013D02*
X0084326Y0129439D01*
X0084326Y0129866D01*
X0084752Y0130292D01*
X0086031Y0130292D01*
X0086031Y0127734D01*
X0083494Y0127734D02*
X0083494Y0129439D01*
X0082641Y0130292D01*
X0081788Y0129439D01*
X0081788Y0127734D01*
X0081788Y0129013D02*
X0083494Y0129013D01*
X0080956Y0130292D02*
X0079251Y0130292D01*
X0080103Y0130292D02*
X0080103Y0127734D01*
X0078419Y0127734D02*
X0076713Y0127734D01*
X0077566Y0127734D02*
X0077566Y0130292D01*
X0078419Y0129439D01*
D13*
X0064367Y0044169D02*
X0064367Y0038264D01*
X0098619Y0038264D01*
X0098619Y0044169D01*
D14*
X0058688Y0126653D02*
X0056619Y0126653D01*
X0056102Y0127170D01*
X0056102Y0128204D01*
X0056619Y0128721D01*
X0056102Y0129876D02*
X0059205Y0129876D01*
X0056102Y0131944D01*
X0059205Y0131944D01*
X0058688Y0133098D02*
X0059205Y0133615D01*
X0059205Y0134650D01*
X0058688Y0135167D01*
X0058171Y0135167D01*
X0057654Y0134650D01*
X0057136Y0135167D01*
X0056619Y0135167D01*
X0056102Y0134650D01*
X0056102Y0133615D01*
X0056619Y0133098D01*
X0057654Y0134132D02*
X0057654Y0134650D01*
X0058688Y0128721D02*
X0059205Y0128204D01*
X0059205Y0127170D01*
X0058688Y0126653D01*
M02*
