%
M48
M72
T01C0.01181
T02C0.03500
%
T01
X44091Y41020
X44091Y48894
X44091Y56768
X50390Y68972
X50390Y72122
X62595Y65035
X67713Y62280
X75587Y66610
X75981Y72516
X81493Y70547
X81493Y67398
X88186Y73303
X95666Y70154
X96847Y64248
X98422Y53224
X94091Y48894
X87792Y52437
X74800Y47319
X71650Y48500
X68107Y48500
X63383Y52043
X56296Y46138
X55509Y41020
X92910Y81965
X108264Y79209
X107477Y91413
X110627Y91413
X118894Y70154
X118894Y60311
X118894Y50075
X118894Y41020
X59446Y86689
X57477Y89051
X44091Y116610
X63776Y120941
X63776Y125665
X63383Y131571
X98028Y121335
X108658Y117004
T02
X113383Y85350
X113383Y75350
X113383Y65350
X113383Y55350
X113383Y45350
M30
