G75*
%MOIN*%
%OFA0B0*%
%FSLAX25Y25*%
%IPPOS*%
%LPD*%
%AMOC8*
5,1,8,0,0,1.08239X$1,22.5*
%
%ADD10C,0.00000*%
%ADD11R,0.04652X0.04534*%
%ADD12R,0.04042X0.03313*%
%ADD13R,0.03313X0.04042*%
%ADD14R,0.04534X0.04652*%
%ADD15R,0.04724X0.07874*%
%ADD16R,0.01575X0.07874*%
%ADD17R,0.01575X0.05512*%
%ADD18R,0.06900X0.06900*%
%ADD19C,0.06900*%
%ADD20R,0.04337X0.06069*%
%ADD21R,0.05124X0.06069*%
%ADD22R,0.04337X0.05124*%
%ADD23R,0.03550X0.03550*%
%ADD24R,0.03156X0.03943*%
%ADD25R,0.03943X0.03156*%
%ADD26R,0.02953X0.04528*%
%ADD27R,0.02565X0.02565*%
%ADD28R,0.06306X0.03156*%
%ADD29C,0.02762*%
%ADD30R,0.02762X0.02762*%
%ADD31R,0.06306X0.06306*%
%ADD32R,0.01378X0.02953*%
%ADD33R,0.02362X0.03543*%
D10*
X0041335Y0037870D02*
X0041335Y0155980D01*
X0121650Y0155980D01*
X0121650Y0037870D01*
X0041335Y0037870D01*
D11*
X0103934Y0079307D03*
X0103934Y0086197D03*
X0106296Y0052339D03*
X0106296Y0045449D03*
D12*
X0091926Y0061098D03*
X0091926Y0065823D03*
X0086808Y0065823D03*
X0086808Y0061098D03*
X0086020Y0055980D03*
X0091138Y0055980D03*
D13*
X0101178Y0046728D03*
X0101178Y0041610D03*
X0066926Y0053028D03*
X0066926Y0058146D03*
X0056690Y0054996D03*
X0056690Y0049878D03*
X0062201Y0046728D03*
X0062201Y0041610D03*
X0048028Y0047909D03*
X0048028Y0053028D03*
D14*
X0064268Y0068972D03*
X0071158Y0068972D03*
X0100095Y0069760D03*
X0106985Y0069760D03*
D15*
X0095823Y0042791D03*
X0067162Y0042791D03*
D16*
X0070666Y0042791D03*
X0092320Y0042791D03*
D17*
X0090351Y0042791D03*
X0088383Y0042791D03*
X0086414Y0042791D03*
X0084446Y0042791D03*
X0082477Y0042791D03*
X0080509Y0042791D03*
X0078540Y0042791D03*
X0076572Y0042791D03*
X0074603Y0042791D03*
X0072635Y0042791D03*
D18*
X0113383Y0045350D03*
D19*
X0113383Y0055350D03*
X0113383Y0065350D03*
X0113383Y0075350D03*
X0113383Y0085350D03*
D20*
X0079327Y0062673D03*
X0071847Y0062673D03*
X0079327Y0054012D03*
D21*
X0072635Y0054012D03*
D22*
X0079131Y0078421D03*
X0088579Y0078421D03*
X0088579Y0088264D03*
X0079131Y0088264D03*
D23*
X0048422Y0088657D03*
X0048422Y0082358D03*
X0048422Y0094563D03*
X0048422Y0100862D03*
X0048422Y0106768D03*
X0048422Y0113067D03*
X0048422Y0118972D03*
X0048422Y0125272D03*
D24*
X0064367Y0089839D03*
X0064367Y0085114D03*
X0064367Y0080390D03*
X0064367Y0075665D03*
X0069485Y0075665D03*
X0069485Y0080390D03*
X0069485Y0085114D03*
X0069485Y0089839D03*
X0085233Y0049287D03*
X0090351Y0049287D03*
D25*
X0058658Y0069169D03*
X0053934Y0069169D03*
X0053934Y0074287D03*
X0058658Y0074287D03*
X0046453Y0074287D03*
X0046453Y0069169D03*
X0052359Y0053028D03*
X0052359Y0047909D03*
D26*
X0053835Y0132063D03*
X0045371Y0132063D03*
X0045371Y0148402D03*
X0053835Y0148402D03*
D27*
X0094977Y0086787D03*
X0097930Y0086787D03*
X0097930Y0076354D03*
X0094977Y0076354D03*
D28*
X0113776Y0097319D03*
X0113776Y0101650D03*
X0113776Y0105980D03*
X0113776Y0110311D03*
X0113776Y0114642D03*
X0113776Y0118972D03*
X0113776Y0123303D03*
X0113776Y0127634D03*
X0058658Y0127634D03*
X0058658Y0123303D03*
X0058658Y0118972D03*
X0058658Y0114642D03*
X0058658Y0110311D03*
X0058658Y0105980D03*
X0058658Y0101650D03*
X0058658Y0097319D03*
D29*
X0071453Y0096138D03*
X0071453Y0100862D03*
X0071453Y0105587D03*
X0071453Y0110311D03*
X0071453Y0115035D03*
X0071453Y0119760D03*
X0071453Y0124484D03*
X0077359Y0124484D03*
X0077359Y0119760D03*
X0077359Y0115035D03*
X0077359Y0110311D03*
X0077359Y0105587D03*
X0077359Y0100862D03*
X0077359Y0096138D03*
X0083264Y0096138D03*
X0083264Y0100862D03*
X0083264Y0105587D03*
X0083264Y0110311D03*
X0083264Y0115035D03*
X0083264Y0119760D03*
X0083264Y0124484D03*
X0089170Y0124484D03*
X0089170Y0119760D03*
X0089170Y0115035D03*
X0089170Y0110311D03*
X0089170Y0105587D03*
X0089170Y0100862D03*
X0089170Y0096138D03*
X0095075Y0096138D03*
X0095075Y0100862D03*
X0095075Y0105587D03*
X0095075Y0110311D03*
X0095075Y0115035D03*
X0095075Y0119760D03*
X0095075Y0124484D03*
X0100981Y0124484D03*
X0100981Y0119760D03*
X0100981Y0115035D03*
X0100981Y0110311D03*
X0100981Y0105587D03*
X0100981Y0100862D03*
X0100981Y0096138D03*
X0106886Y0100862D03*
X0106886Y0105587D03*
X0106886Y0110311D03*
D30*
X0106886Y0096138D03*
D31*
X0099505Y0132358D03*
X0090646Y0132358D03*
X0081788Y0132358D03*
X0072930Y0132358D03*
D32*
X0100194Y0064543D03*
X0102753Y0064543D03*
X0105312Y0064543D03*
X0105312Y0056866D03*
X0102753Y0056866D03*
X0100194Y0056866D03*
D33*
X0056886Y0059917D03*
X0053343Y0059917D03*
X0049800Y0059917D03*
X0046257Y0059917D03*
X0046257Y0064642D03*
X0049800Y0064642D03*
X0053343Y0064642D03*
X0056886Y0064642D03*
M02*
