%
M48
M72
T01C0.01181
T02C0.03500
%
T01
X44091Y41020
X44091Y48894
X44091Y56768
X53146Y56374
X56296Y45744
X55509Y41020
X63383Y52831
X68501Y48500
X71650Y48500
X74800Y47319
X87792Y52437
X94091Y48894
X98422Y50862
X95666Y58343
X96060Y65035
X94485Y69366
X101965Y77240
X100390Y84720
X97635Y83933
X103934Y85114
X100784Y96531
X100784Y99681
X93698Y92201
X76375Y72516
X79131Y67004
X75587Y65429
X83068Y62280
X85430Y68972
X67713Y62280
X50390Y68972
X50390Y72122
X50390Y78028
X44485Y78815
X44485Y116610
X64564Y131571
X66138Y127634
X66138Y123303
X100784Y115035
X111020Y116217
X111808Y119760
X111808Y123303
X111808Y127240
X118894Y90232
X118894Y80390
X118894Y70154
X118894Y60311
X118894Y50075
X118894Y41020
T02
X113383Y45350
X113383Y55350
X113383Y65350
X113383Y75350
X113383Y85350
M30
