G75*
%MOIN*%
%OFA0B0*%
%FSLAX25Y25*%
%IPPOS*%
%LPD*%
%AMOC8*
5,1,8,0,0,1.08239X$1,22.5*
%
%ADD10C,0.00000*%
%ADD11C,0.00500*%
%ADD12C,0.00200*%
%ADD13C,0.00394*%
%ADD14C,0.00400*%
D10*
X0041335Y0037870D02*
X0041335Y0155980D01*
X0121650Y0155980D01*
X0121650Y0037870D01*
X0041335Y0037870D01*
D11*
X0059737Y0085618D02*
X0066737Y0085618D01*
X0059737Y0085618D02*
X0053737Y0091618D01*
X0053736Y0115618D02*
X0053963Y0115941D01*
X0054198Y0116258D01*
X0054440Y0116570D01*
X0054690Y0116875D01*
X0054947Y0117175D01*
X0055211Y0117468D01*
X0055483Y0117755D01*
X0055761Y0118035D01*
X0056046Y0118308D01*
X0056337Y0118574D01*
X0056635Y0118833D01*
X0056939Y0119084D01*
X0057249Y0119329D01*
X0057565Y0119565D01*
X0057887Y0119794D01*
X0058214Y0120015D01*
X0058546Y0120228D01*
X0058883Y0120433D01*
X0059226Y0120630D01*
X0059572Y0120818D01*
X0059924Y0120998D01*
X0060279Y0121169D01*
X0060639Y0121332D01*
X0061002Y0121485D01*
X0061370Y0121630D01*
X0061740Y0121766D01*
X0062114Y0121893D01*
X0062491Y0122011D01*
X0062870Y0122120D01*
X0063252Y0122219D01*
X0063636Y0122309D01*
X0064023Y0122390D01*
X0064411Y0122461D01*
X0064800Y0122523D01*
X0065192Y0122576D01*
X0065584Y0122619D01*
X0065977Y0122652D01*
X0066371Y0122676D01*
X0066766Y0122690D01*
X0067160Y0122695D01*
X0067555Y0122690D01*
X0067949Y0122676D01*
X0068343Y0122652D01*
X0068737Y0122618D01*
X0088736Y0122618D02*
X0089130Y0122652D01*
X0089524Y0122676D01*
X0089918Y0122690D01*
X0090313Y0122695D01*
X0090707Y0122690D01*
X0091102Y0122676D01*
X0091496Y0122652D01*
X0091889Y0122619D01*
X0092281Y0122576D01*
X0092673Y0122523D01*
X0093062Y0122461D01*
X0093450Y0122390D01*
X0093837Y0122309D01*
X0094221Y0122219D01*
X0094603Y0122120D01*
X0094982Y0122011D01*
X0095359Y0121893D01*
X0095733Y0121766D01*
X0096103Y0121630D01*
X0096471Y0121485D01*
X0096834Y0121332D01*
X0097194Y0121169D01*
X0097549Y0120998D01*
X0097901Y0120818D01*
X0098247Y0120630D01*
X0098590Y0120433D01*
X0098927Y0120228D01*
X0099259Y0120015D01*
X0099586Y0119794D01*
X0099908Y0119565D01*
X0100224Y0119329D01*
X0100534Y0119084D01*
X0100838Y0118833D01*
X0101136Y0118574D01*
X0101427Y0118308D01*
X0101712Y0118035D01*
X0101990Y0117755D01*
X0102262Y0117468D01*
X0102526Y0117175D01*
X0102783Y0116875D01*
X0103033Y0116570D01*
X0103275Y0116258D01*
X0103510Y0115941D01*
X0103737Y0115618D01*
X0103737Y0091618D02*
X0097737Y0085618D01*
X0090737Y0085618D01*
D12*
X0060835Y0086986D02*
X0059555Y0086986D01*
X0059129Y0087412D01*
X0059129Y0087839D01*
X0059555Y0088265D01*
X0060835Y0088265D01*
X0060835Y0089544D02*
X0059555Y0089544D01*
X0059129Y0089118D01*
X0059129Y0088691D01*
X0059555Y0088265D01*
X0058297Y0088265D02*
X0056592Y0088265D01*
X0056592Y0088691D02*
X0056592Y0086986D01*
X0054907Y0086986D02*
X0054907Y0089544D01*
X0055759Y0089544D02*
X0054054Y0089544D01*
X0053222Y0088691D02*
X0052369Y0089544D01*
X0052369Y0086986D01*
X0053222Y0086986D02*
X0051516Y0086986D01*
X0056592Y0088691D02*
X0057444Y0089544D01*
X0058297Y0088691D01*
X0058297Y0086986D01*
X0060835Y0086986D02*
X0060835Y0089544D01*
D13*
X0064367Y0044169D02*
X0064367Y0038264D01*
X0098619Y0038264D01*
X0098619Y0044169D01*
D14*
X0059400Y0120646D02*
X0057332Y0120646D01*
X0056815Y0121163D01*
X0056815Y0122197D01*
X0057332Y0122714D01*
X0056815Y0123869D02*
X0059917Y0123869D01*
X0056815Y0125937D01*
X0059917Y0125937D01*
X0059400Y0127091D02*
X0059917Y0127609D01*
X0059917Y0128643D01*
X0059400Y0129160D01*
X0058883Y0129160D01*
X0058366Y0128643D01*
X0057849Y0129160D01*
X0057332Y0129160D01*
X0056815Y0128643D01*
X0056815Y0127609D01*
X0057332Y0127091D01*
X0058366Y0128126D02*
X0058366Y0128643D01*
X0059400Y0122714D02*
X0059917Y0122197D01*
X0059917Y0121163D01*
X0059400Y0120646D01*
M02*
