G75*
%MOIN*%
%OFA0B0*%
%FSLAX25Y25*%
%IPPOS*%
%LPD*%
%AMOC8*
5,1,8,0,0,1.08239X$1,22.5*
%
%ADD10C,0.00000*%
%ADD11C,0.05250*%
%ADD12C,0.01600*%
%ADD13C,0.01981*%
%ADD14C,0.00800*%
%ADD15C,0.01000*%
D10*
X0041335Y0037870D02*
X0041335Y0155980D01*
X0121650Y0155980D01*
X0121650Y0037870D01*
X0041335Y0037870D01*
D11*
X0113383Y0045350D03*
X0113383Y0055350D03*
X0113383Y0065350D03*
X0113383Y0075350D03*
X0113383Y0085350D03*
D12*
X0117963Y0087424D02*
X0119250Y0087424D01*
X0118408Y0086350D02*
X0117643Y0088197D01*
X0116229Y0089610D01*
X0114382Y0090375D01*
X0112383Y0090375D01*
X0110536Y0089610D01*
X0109123Y0088197D01*
X0108358Y0086350D01*
X0108358Y0084351D01*
X0109123Y0082504D01*
X0110536Y0081090D01*
X0112323Y0080350D01*
X0110536Y0079610D01*
X0109123Y0078197D01*
X0108358Y0076350D01*
X0108358Y0074351D01*
X0109123Y0072504D01*
X0110536Y0071090D01*
X0112323Y0070350D01*
X0110536Y0069610D01*
X0109123Y0068197D01*
X0108358Y0066350D01*
X0108358Y0064351D01*
X0109123Y0062504D01*
X0110536Y0061090D01*
X0112323Y0060350D01*
X0110536Y0059610D01*
X0109123Y0058197D01*
X0108358Y0056350D01*
X0108358Y0054351D01*
X0109123Y0052504D01*
X0110536Y0051090D01*
X0112383Y0050325D01*
X0114382Y0050325D01*
X0116229Y0051090D01*
X0117643Y0052504D01*
X0118408Y0054351D01*
X0118408Y0056350D01*
X0117643Y0058197D01*
X0116229Y0059610D01*
X0114442Y0060350D01*
X0116229Y0061090D01*
X0117643Y0062504D01*
X0118408Y0064351D01*
X0118408Y0066350D01*
X0117643Y0068197D01*
X0116229Y0069610D01*
X0114442Y0070350D01*
X0116229Y0071090D01*
X0117643Y0072504D01*
X0118408Y0074351D01*
X0118408Y0076350D01*
X0117643Y0078197D01*
X0116229Y0079610D01*
X0114442Y0080350D01*
X0116229Y0081090D01*
X0117643Y0082504D01*
X0118408Y0084351D01*
X0118408Y0086350D01*
X0118408Y0085825D02*
X0119250Y0085825D01*
X0119250Y0084227D02*
X0118356Y0084227D01*
X0117694Y0082628D02*
X0119250Y0082628D01*
X0119250Y0081030D02*
X0116083Y0081030D01*
X0116408Y0079431D02*
X0119250Y0079431D01*
X0119250Y0077833D02*
X0117793Y0077833D01*
X0118408Y0076234D02*
X0119250Y0076234D01*
X0119250Y0074636D02*
X0118408Y0074636D01*
X0117863Y0073037D02*
X0119250Y0073037D01*
X0119250Y0071439D02*
X0116577Y0071439D01*
X0115674Y0069840D02*
X0119250Y0069840D01*
X0119250Y0068242D02*
X0117598Y0068242D01*
X0118286Y0066643D02*
X0119250Y0066643D01*
X0119250Y0065045D02*
X0118408Y0065045D01*
X0118033Y0063446D02*
X0119250Y0063446D01*
X0119250Y0061848D02*
X0116986Y0061848D01*
X0119250Y0060249D02*
X0114687Y0060249D01*
X0112078Y0060249D02*
X0085832Y0060249D01*
X0085942Y0060359D02*
X0086458Y0061605D01*
X0086458Y0062954D01*
X0085942Y0064200D01*
X0084988Y0065154D01*
X0083742Y0065670D01*
X0082393Y0065670D01*
X0082218Y0065597D01*
X0082521Y0066330D01*
X0082521Y0067135D01*
X0082555Y0067052D01*
X0083509Y0066098D01*
X0084755Y0065582D01*
X0086104Y0065582D01*
X0087350Y0066098D01*
X0088304Y0067052D01*
X0088820Y0068298D01*
X0088820Y0068797D01*
X0098794Y0078771D01*
X0098979Y0078771D01*
X0100008Y0079197D01*
X0100796Y0079985D01*
X0102747Y0081936D01*
X0103259Y0081724D01*
X0104608Y0081724D01*
X0105854Y0082240D01*
X0106808Y0083194D01*
X0107324Y0084440D01*
X0107324Y0085789D01*
X0106808Y0087035D01*
X0105854Y0087989D01*
X0104608Y0088505D01*
X0103259Y0088505D01*
X0102013Y0087989D01*
X0101822Y0087797D01*
X0101065Y0088111D01*
X0099716Y0088111D01*
X0098470Y0087595D01*
X0098199Y0087324D01*
X0096960Y0087324D01*
X0095714Y0086807D01*
X0094760Y0085854D01*
X0094244Y0084607D01*
X0094244Y0084502D01*
X0084270Y0074528D01*
X0079157Y0074528D01*
X0078295Y0075390D01*
X0077049Y0075906D01*
X0075700Y0075906D01*
X0074454Y0075390D01*
X0073500Y0074436D01*
X0072984Y0073190D01*
X0072984Y0073085D01*
X0069309Y0069410D01*
X0065581Y0069410D01*
X0064552Y0068984D01*
X0063765Y0068196D01*
X0054890Y0059322D01*
X0053821Y0059765D01*
X0052472Y0059765D01*
X0051226Y0059248D01*
X0050272Y0058295D01*
X0049756Y0057048D01*
X0049756Y0055700D01*
X0050272Y0054453D01*
X0051226Y0053500D01*
X0052472Y0052983D01*
X0053496Y0052983D01*
X0053496Y0047739D01*
X0053422Y0047665D01*
X0052905Y0046419D01*
X0052905Y0045070D01*
X0053422Y0043823D01*
X0054375Y0042870D01*
X0055621Y0042354D01*
X0056970Y0042354D01*
X0058217Y0042870D01*
X0059170Y0043823D01*
X0059686Y0045070D01*
X0059686Y0046419D01*
X0059170Y0047665D01*
X0059096Y0047739D01*
X0059096Y0052852D01*
X0065721Y0059477D01*
X0065793Y0059405D01*
X0067039Y0058889D01*
X0068388Y0058889D01*
X0069634Y0059405D01*
X0069708Y0059480D01*
X0081073Y0059480D01*
X0081147Y0059405D01*
X0082393Y0058889D01*
X0083742Y0058889D01*
X0084988Y0059405D01*
X0085942Y0060359D01*
X0086458Y0061848D02*
X0109779Y0061848D01*
X0108732Y0063446D02*
X0086254Y0063446D01*
X0085097Y0065045D02*
X0108358Y0065045D01*
X0108479Y0066643D02*
X0087896Y0066643D01*
X0088797Y0068242D02*
X0109168Y0068242D01*
X0111091Y0069840D02*
X0089864Y0069840D01*
X0091462Y0071439D02*
X0110188Y0071439D01*
X0108902Y0073037D02*
X0093061Y0073037D01*
X0094659Y0074636D02*
X0108358Y0074636D01*
X0108358Y0076234D02*
X0096258Y0076234D01*
X0097856Y0077833D02*
X0108972Y0077833D01*
X0110357Y0079431D02*
X0100242Y0079431D01*
X0101841Y0081030D02*
X0110682Y0081030D01*
X0109071Y0082628D02*
X0106243Y0082628D01*
X0107236Y0084227D02*
X0108409Y0084227D01*
X0108358Y0085825D02*
X0107309Y0085825D01*
X0106419Y0087424D02*
X0108802Y0087424D01*
X0109948Y0089022D02*
X0043735Y0089022D01*
X0043735Y0087424D02*
X0098299Y0087424D01*
X0094748Y0085825D02*
X0043735Y0085825D01*
X0043735Y0084227D02*
X0093969Y0084227D01*
X0092370Y0082628D02*
X0043735Y0082628D01*
X0043735Y0081030D02*
X0048779Y0081030D01*
X0048470Y0080902D02*
X0047516Y0079948D01*
X0047000Y0078702D01*
X0047000Y0077353D01*
X0047516Y0076107D01*
X0048470Y0075153D01*
X0048659Y0075075D01*
X0048470Y0074996D01*
X0047516Y0074043D01*
X0047000Y0072796D01*
X0047000Y0071448D01*
X0047373Y0070547D01*
X0047000Y0069647D01*
X0047000Y0068298D01*
X0047516Y0067052D01*
X0048470Y0066098D01*
X0049716Y0065582D01*
X0051065Y0065582D01*
X0052311Y0066098D01*
X0053265Y0067052D01*
X0053781Y0068298D01*
X0053781Y0069647D01*
X0053408Y0070547D01*
X0053781Y0071448D01*
X0053781Y0072796D01*
X0053265Y0074043D01*
X0052311Y0074996D01*
X0052122Y0075075D01*
X0052311Y0075153D01*
X0053265Y0076107D01*
X0053781Y0077353D01*
X0053781Y0078702D01*
X0053265Y0079948D01*
X0052311Y0080902D01*
X0051065Y0081418D01*
X0049716Y0081418D01*
X0048470Y0080902D01*
X0047302Y0079431D02*
X0043735Y0079431D01*
X0043735Y0077833D02*
X0047000Y0077833D01*
X0047463Y0076234D02*
X0043735Y0076234D01*
X0043735Y0074636D02*
X0048109Y0074636D01*
X0047100Y0073037D02*
X0043735Y0073037D01*
X0043735Y0071439D02*
X0047004Y0071439D01*
X0047080Y0069840D02*
X0043735Y0069840D01*
X0043735Y0068242D02*
X0047023Y0068242D01*
X0047925Y0066643D02*
X0043735Y0066643D01*
X0043735Y0065045D02*
X0060613Y0065045D01*
X0062212Y0066643D02*
X0052856Y0066643D01*
X0053758Y0068242D02*
X0063810Y0068242D01*
X0059015Y0063446D02*
X0043735Y0063446D01*
X0043735Y0061848D02*
X0057416Y0061848D01*
X0055818Y0060249D02*
X0043735Y0060249D01*
X0043735Y0058651D02*
X0050628Y0058651D01*
X0049757Y0057052D02*
X0043735Y0057052D01*
X0043735Y0055454D02*
X0049858Y0055454D01*
X0050870Y0053855D02*
X0043735Y0053855D01*
X0043735Y0052257D02*
X0053496Y0052257D01*
X0053496Y0050658D02*
X0043735Y0050658D01*
X0043735Y0049060D02*
X0053496Y0049060D01*
X0053337Y0047461D02*
X0043735Y0047461D01*
X0043735Y0045863D02*
X0052905Y0045863D01*
X0053239Y0044264D02*
X0043735Y0044264D01*
X0043735Y0042666D02*
X0054868Y0042666D01*
X0057724Y0042666D02*
X0109864Y0042666D01*
X0110007Y0042468D02*
X0110500Y0041975D01*
X0111063Y0041566D01*
X0111684Y0041250D01*
X0112346Y0041034D01*
X0113034Y0040925D01*
X0113308Y0040925D01*
X0113308Y0045275D01*
X0113458Y0045275D01*
X0113458Y0045425D01*
X0117808Y0045425D01*
X0117808Y0045699D01*
X0117699Y0046387D01*
X0117483Y0047049D01*
X0117167Y0047670D01*
X0116758Y0048233D01*
X0116265Y0048726D01*
X0115702Y0049135D01*
X0115081Y0049451D01*
X0114419Y0049666D01*
X0113731Y0049775D01*
X0113458Y0049775D01*
X0113458Y0045425D01*
X0113308Y0045425D01*
X0113307Y0045425D02*
X0113307Y0045275D01*
X0108958Y0045275D01*
X0108958Y0045002D01*
X0109066Y0044314D01*
X0109282Y0043652D01*
X0109598Y0043031D01*
X0110007Y0042468D01*
X0109083Y0044264D02*
X0083720Y0044264D01*
X0083529Y0044073D02*
X0084345Y0044889D01*
X0088528Y0049072D01*
X0089713Y0049563D01*
X0090666Y0050516D01*
X0091183Y0051763D01*
X0091183Y0053111D01*
X0090666Y0054358D01*
X0089713Y0055311D01*
X0088466Y0055828D01*
X0087118Y0055828D01*
X0085871Y0055311D01*
X0084918Y0054358D01*
X0084427Y0053173D01*
X0080685Y0049431D01*
X0077482Y0049431D01*
X0076720Y0050193D01*
X0075474Y0050709D01*
X0074236Y0050709D01*
X0073571Y0051374D01*
X0072325Y0051891D01*
X0070976Y0051891D01*
X0070075Y0051518D01*
X0069175Y0051891D01*
X0067826Y0051891D01*
X0066580Y0051374D01*
X0065626Y0050421D01*
X0065110Y0049174D01*
X0065110Y0047826D01*
X0065626Y0046579D01*
X0066580Y0045626D01*
X0067826Y0045109D01*
X0069175Y0045109D01*
X0070075Y0045482D01*
X0070976Y0045109D01*
X0072214Y0045109D01*
X0072879Y0044445D01*
X0074125Y0043928D01*
X0074294Y0043928D01*
X0075010Y0043631D01*
X0082463Y0043631D01*
X0083529Y0044073D01*
X0084345Y0044889D02*
X0084345Y0044889D01*
X0085319Y0045863D02*
X0092549Y0045863D01*
X0092171Y0046019D02*
X0093417Y0045503D01*
X0094766Y0045503D01*
X0096012Y0046019D01*
X0096966Y0046973D01*
X0097482Y0048219D01*
X0097482Y0049568D01*
X0096966Y0050814D01*
X0096012Y0051768D01*
X0094766Y0052284D01*
X0093417Y0052284D01*
X0092171Y0051768D01*
X0091217Y0050814D01*
X0090701Y0049568D01*
X0090701Y0048219D01*
X0091217Y0046973D01*
X0092171Y0046019D01*
X0091015Y0047461D02*
X0086917Y0047461D01*
X0088516Y0049060D02*
X0090701Y0049060D01*
X0090725Y0050658D02*
X0091152Y0050658D01*
X0091183Y0052257D02*
X0093350Y0052257D01*
X0094832Y0052257D02*
X0109370Y0052257D01*
X0108563Y0053855D02*
X0090874Y0053855D01*
X0089369Y0055454D02*
X0108358Y0055454D01*
X0108648Y0057052D02*
X0063296Y0057052D01*
X0061698Y0055454D02*
X0086215Y0055454D01*
X0084710Y0053855D02*
X0060099Y0053855D01*
X0059096Y0052257D02*
X0083510Y0052257D01*
X0081912Y0050658D02*
X0075598Y0050658D01*
X0073315Y0044264D02*
X0059353Y0044264D01*
X0059686Y0045863D02*
X0066343Y0045863D01*
X0065261Y0047461D02*
X0059255Y0047461D01*
X0059096Y0049060D02*
X0065110Y0049060D01*
X0065864Y0050658D02*
X0059096Y0050658D01*
X0064895Y0058651D02*
X0109576Y0058651D01*
X0111580Y0050658D02*
X0097030Y0050658D01*
X0097482Y0049060D02*
X0110960Y0049060D01*
X0111063Y0049135D02*
X0110500Y0048726D01*
X0110007Y0048233D01*
X0109598Y0047670D01*
X0109282Y0047049D01*
X0109066Y0046387D01*
X0108958Y0045699D01*
X0108958Y0045425D01*
X0113307Y0045425D01*
X0113308Y0045425D02*
X0113308Y0049775D01*
X0113034Y0049775D01*
X0112346Y0049666D01*
X0111684Y0049451D01*
X0111063Y0049135D01*
X0113308Y0049060D02*
X0113458Y0049060D01*
X0113458Y0047461D02*
X0113308Y0047461D01*
X0113308Y0045863D02*
X0113458Y0045863D01*
X0113458Y0045275D02*
X0117808Y0045275D01*
X0117808Y0045002D01*
X0117699Y0044314D01*
X0117483Y0043652D01*
X0117167Y0043031D01*
X0116758Y0042468D01*
X0116265Y0041975D01*
X0115702Y0041566D01*
X0115081Y0041250D01*
X0114419Y0041034D01*
X0113731Y0040925D01*
X0113458Y0040925D01*
X0113458Y0045275D01*
X0113458Y0044264D02*
X0113308Y0044264D01*
X0113308Y0042666D02*
X0113458Y0042666D01*
X0113458Y0041067D02*
X0113308Y0041067D01*
X0112246Y0041067D02*
X0043735Y0041067D01*
X0043735Y0040270D02*
X0043735Y0117398D01*
X0109375Y0117398D01*
X0109887Y0116885D01*
X0111133Y0116369D01*
X0112482Y0116369D01*
X0113728Y0116885D01*
X0114240Y0117398D01*
X0119250Y0117398D01*
X0119250Y0040270D01*
X0043735Y0040270D01*
X0053701Y0069840D02*
X0069739Y0069840D01*
X0071338Y0071439D02*
X0053777Y0071439D01*
X0053681Y0073037D02*
X0072936Y0073037D01*
X0073700Y0074636D02*
X0052672Y0074636D01*
X0053318Y0076234D02*
X0085976Y0076234D01*
X0084377Y0074636D02*
X0079050Y0074636D01*
X0082521Y0066643D02*
X0082964Y0066643D01*
X0087575Y0077833D02*
X0053781Y0077833D01*
X0053479Y0079431D02*
X0089173Y0079431D01*
X0090772Y0081030D02*
X0052002Y0081030D01*
X0043735Y0090621D02*
X0119250Y0090621D01*
X0119250Y0092219D02*
X0043735Y0092219D01*
X0043735Y0093818D02*
X0098703Y0093818D01*
X0098864Y0093657D02*
X0100110Y0093141D01*
X0101459Y0093141D01*
X0102705Y0093657D01*
X0103658Y0094611D01*
X0104175Y0095857D01*
X0104175Y0097206D01*
X0103802Y0098106D01*
X0104175Y0099007D01*
X0104175Y0100356D01*
X0103658Y0101602D01*
X0102705Y0102555D01*
X0101459Y0103072D01*
X0100110Y0103072D01*
X0098864Y0102555D01*
X0097910Y0101602D01*
X0097394Y0100356D01*
X0097394Y0099007D01*
X0097767Y0098106D01*
X0097394Y0097206D01*
X0097394Y0095857D01*
X0097910Y0094611D01*
X0098864Y0093657D01*
X0097576Y0095416D02*
X0043735Y0095416D01*
X0043735Y0097015D02*
X0097394Y0097015D01*
X0097556Y0098614D02*
X0043735Y0098614D01*
X0043735Y0100212D02*
X0097394Y0100212D01*
X0098119Y0101811D02*
X0043735Y0101811D01*
X0043735Y0103409D02*
X0119250Y0103409D01*
X0119250Y0101811D02*
X0103450Y0101811D01*
X0104175Y0100212D02*
X0119250Y0100212D01*
X0119250Y0098614D02*
X0104012Y0098614D01*
X0104175Y0097015D02*
X0119250Y0097015D01*
X0119250Y0095416D02*
X0103992Y0095416D01*
X0102866Y0093818D02*
X0119250Y0093818D01*
X0119250Y0089022D02*
X0116817Y0089022D01*
X0119250Y0105008D02*
X0043735Y0105008D01*
X0043735Y0106606D02*
X0119250Y0106606D01*
X0119250Y0108205D02*
X0043735Y0108205D01*
X0043735Y0109803D02*
X0119250Y0109803D01*
X0119250Y0111402D02*
X0043735Y0111402D01*
X0043735Y0113000D02*
X0119250Y0113000D01*
X0119250Y0114599D02*
X0043735Y0114599D01*
X0043735Y0116197D02*
X0119250Y0116197D01*
X0119250Y0058651D02*
X0117189Y0058651D01*
X0118117Y0057052D02*
X0119250Y0057052D01*
X0119250Y0055454D02*
X0118408Y0055454D01*
X0118202Y0053855D02*
X0119250Y0053855D01*
X0119250Y0052257D02*
X0117395Y0052257D01*
X0119250Y0050658D02*
X0115185Y0050658D01*
X0115805Y0049060D02*
X0119250Y0049060D01*
X0119250Y0047461D02*
X0117273Y0047461D01*
X0117782Y0045863D02*
X0119250Y0045863D01*
X0119250Y0044264D02*
X0117682Y0044264D01*
X0116902Y0042666D02*
X0119250Y0042666D01*
X0119250Y0041067D02*
X0114520Y0041067D01*
X0108984Y0045863D02*
X0095633Y0045863D01*
X0097168Y0047461D02*
X0109492Y0047461D01*
D13*
X0118894Y0050075D03*
X0118894Y0041020D03*
X0118894Y0060311D03*
X0118894Y0070154D03*
X0118894Y0080390D03*
X0118894Y0090232D03*
X0103934Y0085114D03*
X0100390Y0084720D03*
X0097635Y0083933D03*
X0101965Y0077240D03*
X0094485Y0069366D03*
X0096060Y0065035D03*
X0095666Y0058343D03*
X0098422Y0050862D03*
X0094091Y0048894D03*
X0087792Y0052437D03*
X0083068Y0062280D03*
X0079131Y0067004D03*
X0075587Y0065429D03*
X0076375Y0072516D03*
X0085430Y0068972D03*
X0067713Y0062280D03*
X0063383Y0052831D03*
X0068501Y0048500D03*
X0071650Y0048500D03*
X0074800Y0047319D03*
X0056296Y0045744D03*
X0055509Y0041020D03*
X0044091Y0041020D03*
X0044091Y0048894D03*
X0044091Y0056768D03*
X0053146Y0056374D03*
X0050390Y0068972D03*
X0050390Y0072122D03*
X0050390Y0078028D03*
X0044485Y0078815D03*
X0044485Y0116610D03*
X0064564Y0131571D03*
X0066138Y0127634D03*
X0066138Y0123303D03*
X0093698Y0092201D03*
X0100784Y0096531D03*
X0100784Y0099681D03*
X0100784Y0115035D03*
X0111020Y0116217D03*
X0111808Y0119760D03*
X0111808Y0123303D03*
X0111808Y0127240D03*
D14*
X0100390Y0084720D02*
X0100390Y0083539D01*
X0098422Y0081571D01*
X0097635Y0081571D01*
X0085430Y0069366D01*
X0085430Y0068972D01*
X0085430Y0071728D02*
X0078737Y0071728D01*
X0071650Y0064642D01*
X0066926Y0064642D01*
X0056296Y0054012D01*
X0056296Y0045744D01*
X0055902Y0056374D02*
X0053146Y0056374D01*
X0055902Y0056374D02*
X0066138Y0066610D01*
X0070469Y0066610D01*
X0076375Y0072516D01*
X0085430Y0071728D02*
X0097635Y0083933D01*
X0083068Y0062280D02*
X0067713Y0062280D01*
D15*
X0074800Y0047319D02*
X0075587Y0046531D01*
X0081886Y0046531D01*
X0087792Y0052437D01*
M02*
