G75*
%MOIN*%
%OFA0B0*%
%FSLAX25Y25*%
%IPPOS*%
%LPD*%
%AMOC8*
5,1,8,0,0,1.08239X$1,22.5*
%
%ADD10C,0.00000*%
%ADD11R,0.04134X0.04252*%
%ADD12R,0.03642X0.02913*%
%ADD13R,0.02913X0.03642*%
%ADD14R,0.04252X0.04134*%
%ADD15R,0.04331X0.07480*%
%ADD16R,0.01181X0.07480*%
%ADD17R,0.01181X0.05118*%
%ADD18R,0.06500X0.06500*%
%ADD19C,0.06500*%
%ADD20R,0.03937X0.05669*%
%ADD21R,0.04724X0.05669*%
%ADD22R,0.03937X0.04724*%
%ADD23R,0.03150X0.03150*%
%ADD24R,0.02756X0.03543*%
%ADD25R,0.03543X0.02756*%
%ADD26R,0.02559X0.04134*%
%ADD27R,0.02165X0.02165*%
%ADD28R,0.05906X0.02756*%
%ADD29C,0.02362*%
%ADD30R,0.02362X0.02362*%
%ADD31R,0.05906X0.05906*%
%ADD32R,0.00984X0.02559*%
%ADD33R,0.01969X0.03150*%
%ADD34C,0.01981*%
%ADD35C,0.00800*%
%ADD36C,0.01600*%
%ADD37C,0.01000*%
D10*
X0041335Y0037870D02*
X0041335Y0155980D01*
X0121650Y0155980D01*
X0121650Y0037870D01*
X0041335Y0037870D01*
D11*
X0064268Y0068972D03*
X0071158Y0068972D03*
X0099308Y0070154D03*
X0106198Y0070154D03*
X0106198Y0089445D03*
X0099308Y0089445D03*
D12*
X0091532Y0065823D03*
X0091532Y0061098D03*
X0091532Y0055980D03*
X0086414Y0055980D03*
X0086414Y0061098D03*
X0086414Y0065823D03*
D13*
X0101178Y0046728D03*
X0101178Y0041610D03*
X0066926Y0053028D03*
X0066926Y0058146D03*
X0056690Y0054996D03*
X0056690Y0049878D03*
X0062201Y0046728D03*
X0062201Y0041610D03*
X0048028Y0047909D03*
X0048028Y0053028D03*
D14*
X0106296Y0052339D03*
X0106296Y0045449D03*
D15*
X0095823Y0042791D03*
X0067162Y0042791D03*
D16*
X0070666Y0042791D03*
X0092320Y0042791D03*
D17*
X0090351Y0042791D03*
X0088383Y0042791D03*
X0086414Y0042791D03*
X0084446Y0042791D03*
X0082477Y0042791D03*
X0080509Y0042791D03*
X0078540Y0042791D03*
X0076572Y0042791D03*
X0074603Y0042791D03*
X0072635Y0042791D03*
D18*
X0113383Y0045350D03*
D19*
X0113383Y0055350D03*
X0113383Y0065350D03*
X0113383Y0075350D03*
X0113383Y0085350D03*
D20*
X0079327Y0062673D03*
X0071847Y0062673D03*
X0079327Y0054012D03*
D21*
X0072635Y0054012D03*
D22*
X0079918Y0077634D03*
X0089367Y0077634D03*
X0089367Y0088264D03*
X0079918Y0088264D03*
D23*
X0050784Y0086295D03*
X0050784Y0092594D03*
X0050784Y0098106D03*
X0050784Y0104406D03*
X0050784Y0109917D03*
X0050784Y0116217D03*
X0050784Y0121728D03*
X0050784Y0128028D03*
D24*
X0063579Y0089839D03*
X0063579Y0085114D03*
X0063579Y0080390D03*
X0063579Y0075665D03*
X0068698Y0075665D03*
X0068698Y0080390D03*
X0068698Y0085114D03*
X0068698Y0089839D03*
X0085233Y0049287D03*
X0090351Y0049287D03*
D25*
X0058658Y0069169D03*
X0053934Y0069169D03*
X0053934Y0074287D03*
X0058658Y0074287D03*
X0046847Y0074287D03*
X0046847Y0069169D03*
X0052359Y0053028D03*
X0052359Y0047909D03*
D26*
X0048914Y0134819D03*
X0057379Y0134819D03*
X0057379Y0151157D03*
X0048914Y0151157D03*
D27*
X0096749Y0078717D03*
X0096749Y0075764D03*
X0107182Y0075764D03*
X0107182Y0078717D03*
D28*
X0116532Y0097319D03*
X0116532Y0101650D03*
X0116532Y0105980D03*
X0116532Y0110311D03*
X0116532Y0114642D03*
X0116532Y0118972D03*
X0116532Y0123303D03*
X0116532Y0127634D03*
X0061414Y0127634D03*
X0061414Y0123303D03*
X0061414Y0118972D03*
X0061414Y0114642D03*
X0061414Y0110311D03*
X0061414Y0105980D03*
X0061414Y0101650D03*
X0061414Y0097319D03*
D29*
X0074209Y0096138D03*
X0074209Y0100862D03*
X0074209Y0105587D03*
X0074209Y0110311D03*
X0074209Y0115035D03*
X0074209Y0119760D03*
X0074209Y0124484D03*
X0080115Y0124484D03*
X0080115Y0119760D03*
X0080115Y0115035D03*
X0080115Y0110311D03*
X0080115Y0105587D03*
X0080115Y0100862D03*
X0080115Y0096138D03*
X0086020Y0096138D03*
X0086020Y0100862D03*
X0086020Y0105587D03*
X0086020Y0110311D03*
X0086020Y0115035D03*
X0086020Y0119760D03*
X0086020Y0124484D03*
X0091926Y0124484D03*
X0091926Y0119760D03*
X0091926Y0115035D03*
X0091926Y0110311D03*
X0091926Y0105587D03*
X0091926Y0100862D03*
X0091926Y0096138D03*
X0097831Y0096138D03*
X0097831Y0100862D03*
X0097831Y0105587D03*
X0097831Y0110311D03*
X0097831Y0115035D03*
X0097831Y0119760D03*
X0097831Y0124484D03*
X0103737Y0124484D03*
X0103737Y0119760D03*
X0103737Y0115035D03*
X0103737Y0110311D03*
X0103737Y0105587D03*
X0103737Y0100862D03*
X0103737Y0096138D03*
X0109642Y0100862D03*
X0109642Y0105587D03*
X0109642Y0110311D03*
D30*
X0109642Y0096138D03*
D31*
X0102260Y0132358D03*
X0093402Y0132358D03*
X0084544Y0132358D03*
X0075686Y0132358D03*
D32*
X0099406Y0064543D03*
X0101965Y0064543D03*
X0104524Y0064543D03*
X0104524Y0056866D03*
X0101965Y0056866D03*
X0099406Y0056866D03*
D33*
X0056886Y0059917D03*
X0053343Y0059917D03*
X0049800Y0059917D03*
X0046257Y0059917D03*
X0046257Y0064642D03*
X0049800Y0064642D03*
X0053343Y0064642D03*
X0056886Y0064642D03*
D34*
X0050390Y0068972D03*
X0050390Y0072122D03*
X0050390Y0078028D03*
X0067713Y0062280D03*
X0075587Y0065429D03*
X0079131Y0067004D03*
X0083068Y0062280D03*
X0085430Y0068972D03*
X0094485Y0069366D03*
X0099603Y0075665D03*
X0103146Y0081571D03*
X0103146Y0084720D03*
X0100390Y0085114D03*
X0097635Y0083933D03*
X0099603Y0098500D03*
X0101768Y0103618D03*
X0100784Y0107161D03*
X0094879Y0110311D03*
X0089760Y0107949D03*
X0088973Y0104406D03*
X0088973Y0101650D03*
X0100784Y0115035D03*
X0111414Y0113067D03*
X0111808Y0118972D03*
X0111808Y0123303D03*
X0111808Y0127240D03*
X0072044Y0087870D03*
X0077556Y0081965D03*
X0073225Y0078028D03*
X0076375Y0072516D03*
X0087792Y0052437D03*
X0094091Y0048894D03*
X0095666Y0058343D03*
X0074800Y0047319D03*
X0071650Y0048500D03*
X0068501Y0048500D03*
X0063383Y0052831D03*
X0056296Y0045744D03*
X0053146Y0056374D03*
X0045272Y0043776D03*
X0066138Y0123303D03*
X0066138Y0127634D03*
X0066138Y0131571D03*
X0066138Y0134327D03*
X0046847Y0130783D03*
D35*
X0046847Y0132752D01*
X0048914Y0134819D01*
X0048914Y0151157D01*
X0057379Y0151157D02*
X0057379Y0134819D01*
X0057871Y0134327D01*
X0066138Y0134327D01*
X0066138Y0127634D02*
X0061414Y0127634D01*
X0061414Y0123303D02*
X0066138Y0123303D01*
X0057083Y0121728D02*
X0050784Y0128028D01*
X0050784Y0121728D02*
X0047635Y0118579D01*
X0047635Y0107949D01*
X0049603Y0109917D01*
X0050784Y0109917D01*
X0047635Y0107949D02*
X0047635Y0095744D01*
X0049997Y0098106D01*
X0050784Y0098106D01*
X0047635Y0095744D02*
X0047635Y0089445D01*
X0050784Y0086295D01*
X0050390Y0085902D01*
X0050390Y0078028D01*
X0048422Y0078028D01*
X0046847Y0076453D01*
X0046847Y0074287D01*
X0049603Y0072122D02*
X0046847Y0069366D01*
X0046847Y0069169D01*
X0046257Y0068579D01*
X0046257Y0064642D01*
X0049800Y0064642D02*
X0049800Y0068382D01*
X0050390Y0068972D01*
X0050587Y0069169D01*
X0053934Y0069169D01*
X0050390Y0072122D02*
X0049603Y0072122D01*
X0053934Y0074287D02*
X0053934Y0075665D01*
X0051572Y0078028D01*
X0050390Y0078028D01*
X0059052Y0079996D02*
X0059052Y0084327D01*
X0050784Y0092594D01*
X0053934Y0091807D02*
X0053934Y0101256D01*
X0050784Y0104406D01*
X0055509Y0111492D02*
X0050784Y0116217D01*
X0055509Y0111492D02*
X0055509Y0092594D01*
X0062989Y0085114D01*
X0063579Y0085114D01*
X0060627Y0085114D02*
X0060627Y0081965D01*
X0062201Y0080390D01*
X0063579Y0080390D01*
X0060627Y0085114D02*
X0053934Y0091807D01*
X0057083Y0093776D02*
X0057083Y0121728D01*
X0075686Y0128913D02*
X0080115Y0124484D01*
X0086020Y0124484D01*
X0091926Y0124484D01*
X0097831Y0124484D01*
X0100784Y0121531D01*
X0100784Y0115035D01*
X0097831Y0110311D02*
X0095469Y0107949D01*
X0089760Y0107949D01*
X0090154Y0105587D02*
X0088973Y0104406D01*
X0090154Y0105587D02*
X0091926Y0105587D01*
X0094879Y0102634D02*
X0094879Y0094169D01*
X0092910Y0092201D01*
X0077556Y0092201D01*
X0076375Y0091020D01*
X0076375Y0085902D01*
X0075587Y0085114D01*
X0068698Y0085114D01*
X0072044Y0087870D02*
X0070075Y0089839D01*
X0068698Y0089839D01*
X0063579Y0089839D02*
X0061020Y0089839D01*
X0057083Y0093776D01*
X0068698Y0080390D02*
X0075981Y0080390D01*
X0077556Y0081965D01*
X0079918Y0077634D02*
X0079918Y0076059D01*
X0076375Y0072516D01*
X0079131Y0067004D02*
X0079131Y0062870D01*
X0079327Y0062673D01*
X0079524Y0062870D01*
X0075587Y0065429D02*
X0075587Y0059327D01*
X0079327Y0055587D01*
X0079327Y0054012D01*
X0072635Y0054012D02*
X0071650Y0053028D01*
X0066926Y0053028D01*
X0063383Y0052831D02*
X0060430Y0049878D01*
X0056690Y0049878D01*
X0056296Y0045744D02*
X0056296Y0044957D01*
X0055509Y0044169D01*
X0053146Y0044169D01*
X0052359Y0044957D01*
X0052359Y0047909D01*
X0052359Y0053028D02*
X0052359Y0054012D01*
X0049800Y0056571D01*
X0048028Y0054799D01*
X0048028Y0053028D01*
X0049800Y0056571D02*
X0049800Y0059917D01*
X0053146Y0059720D02*
X0053146Y0056374D01*
X0055312Y0056374D01*
X0056690Y0054996D01*
X0056886Y0059917D02*
X0059446Y0062476D01*
X0059446Y0068382D01*
X0058658Y0069169D01*
X0058658Y0074287D02*
X0063973Y0068972D01*
X0064268Y0068972D01*
X0063579Y0075469D02*
X0059052Y0079996D01*
X0063579Y0075665D02*
X0063579Y0075469D01*
X0068698Y0075665D02*
X0071060Y0078028D01*
X0073225Y0078028D01*
X0079918Y0077634D02*
X0083855Y0081571D01*
X0079918Y0085508D01*
X0079918Y0088264D01*
X0083855Y0081571D02*
X0103146Y0081571D01*
X0105509Y0083933D01*
X0105509Y0088756D01*
X0106198Y0089445D01*
X0108658Y0089445D01*
X0116532Y0097319D01*
X0113776Y0097319D01*
X0112201Y0098894D01*
X0112201Y0101846D01*
X0109642Y0104406D01*
X0109642Y0105587D01*
X0112201Y0104012D02*
X0114564Y0101650D01*
X0116532Y0101650D01*
X0112201Y0104012D02*
X0112201Y0112280D01*
X0111414Y0113067D01*
X0109052Y0115429D02*
X0115745Y0115429D01*
X0116532Y0114642D01*
X0116532Y0118972D02*
X0111808Y0118972D01*
X0111808Y0123303D02*
X0116532Y0123303D01*
X0116138Y0127240D02*
X0116532Y0127634D01*
X0116138Y0127240D02*
X0111808Y0127240D01*
X0102260Y0132358D02*
X0093402Y0132358D01*
X0084544Y0132358D01*
X0075686Y0132358D01*
X0075686Y0128913D01*
X0091926Y0119760D02*
X0094879Y0116807D01*
X0094879Y0110311D01*
X0097831Y0105587D02*
X0094879Y0102634D01*
X0091926Y0100862D02*
X0089760Y0100862D01*
X0088973Y0101650D01*
X0099603Y0098500D02*
X0101965Y0100862D01*
X0103737Y0100862D01*
X0101768Y0103618D02*
X0103737Y0105587D01*
X0105509Y0107949D02*
X0101572Y0107949D01*
X0100784Y0107161D01*
X0105509Y0107949D02*
X0106296Y0108736D01*
X0106296Y0112673D01*
X0109052Y0115429D01*
X0109642Y0096138D02*
X0106493Y0092988D01*
X0103934Y0092988D01*
X0102753Y0091807D01*
X0102753Y0085114D01*
X0103146Y0084720D01*
X0100390Y0085114D02*
X0099308Y0086197D01*
X0099308Y0089445D01*
X0097635Y0083933D02*
X0093698Y0083933D01*
X0089367Y0088264D01*
X0089367Y0077634D02*
X0089367Y0076453D01*
X0092516Y0073303D01*
X0102260Y0073303D01*
X0106198Y0070154D01*
X0104524Y0069268D01*
X0104524Y0064543D01*
X0099406Y0058933D02*
X0097241Y0061098D01*
X0091532Y0061098D01*
X0086808Y0065823D01*
X0086414Y0065823D01*
X0085430Y0066807D01*
X0085430Y0068972D01*
X0096749Y0075764D02*
X0099505Y0075764D01*
X0099603Y0075665D01*
X0107182Y0075764D02*
X0107182Y0078717D01*
X0107930Y0078717D01*
X0113383Y0085350D01*
X0099406Y0058933D02*
X0099406Y0056866D01*
X0099406Y0054209D01*
X0101572Y0052043D01*
X0106001Y0052043D01*
X0106296Y0052339D01*
X0104524Y0054110D01*
X0104524Y0056866D01*
X0098816Y0047713D02*
X0095272Y0047713D01*
X0094091Y0048894D01*
X0098816Y0047713D02*
X0099800Y0046728D01*
X0101178Y0046728D01*
X0101178Y0041610D02*
X0110823Y0041610D01*
X0113383Y0045350D01*
X0107575Y0044169D01*
X0106296Y0045449D01*
X0071847Y0062673D02*
X0071158Y0063362D01*
X0071158Y0068972D01*
X0071847Y0062673D02*
X0071453Y0062280D01*
X0067713Y0062280D01*
X0066926Y0061492D01*
X0066926Y0058146D01*
X0053343Y0059917D02*
X0053146Y0059720D01*
X0046257Y0059917D02*
X0044091Y0057752D01*
X0044091Y0044957D01*
X0045272Y0043776D01*
D36*
X0045877Y0044411D02*
X0046335Y0044289D01*
X0048028Y0044289D01*
X0048028Y0047909D01*
X0048028Y0047909D01*
X0044772Y0047909D01*
X0044772Y0045852D01*
X0044894Y0045394D01*
X0045131Y0044983D01*
X0045466Y0044648D01*
X0045877Y0044411D01*
X0044772Y0045863D02*
X0043735Y0045863D01*
X0043735Y0047461D02*
X0044772Y0047461D01*
X0044772Y0047909D02*
X0048028Y0047909D01*
X0048028Y0047909D01*
X0048028Y0044289D01*
X0049605Y0044289D01*
X0049985Y0043371D01*
X0050773Y0042583D01*
X0051560Y0041796D01*
X0052589Y0041369D01*
X0056065Y0041369D01*
X0057095Y0041796D01*
X0057882Y0042583D01*
X0058135Y0042836D01*
X0058217Y0042870D01*
X0058802Y0043456D01*
X0058945Y0043313D01*
X0058945Y0041610D01*
X0058945Y0040270D01*
X0043735Y0040270D01*
X0043735Y0057405D01*
X0043832Y0057237D01*
X0044167Y0056902D01*
X0044578Y0056665D01*
X0044906Y0056577D01*
X0044537Y0056208D01*
X0044172Y0055326D01*
X0044172Y0050729D01*
X0044537Y0049847D01*
X0044772Y0049613D01*
X0044772Y0047909D01*
X0044772Y0049060D02*
X0043735Y0049060D01*
X0043735Y0050658D02*
X0044201Y0050658D01*
X0044172Y0052257D02*
X0043735Y0052257D01*
X0043735Y0053855D02*
X0044172Y0053855D01*
X0044224Y0055454D02*
X0043735Y0055454D01*
X0043735Y0057052D02*
X0044017Y0057052D01*
X0048028Y0047461D02*
X0048028Y0047461D01*
X0048028Y0045863D02*
X0048028Y0045863D01*
X0049615Y0044264D02*
X0043735Y0044264D01*
X0043735Y0042666D02*
X0050690Y0042666D01*
X0043735Y0041067D02*
X0058945Y0041067D01*
X0058945Y0041610D02*
X0062201Y0041610D01*
X0062201Y0041610D01*
X0058945Y0041610D01*
X0058945Y0042666D02*
X0057965Y0042666D01*
X0059946Y0050816D02*
X0059946Y0051581D01*
X0060181Y0051816D01*
X0060546Y0052698D01*
X0060546Y0057294D01*
X0060271Y0057960D01*
X0060271Y0059342D01*
X0061032Y0060103D01*
X0061819Y0060890D01*
X0062246Y0061919D01*
X0062246Y0065046D01*
X0064035Y0065046D01*
X0064035Y0068739D01*
X0064502Y0068739D01*
X0064502Y0065046D01*
X0065685Y0065046D01*
X0064839Y0064200D01*
X0064323Y0062954D01*
X0064323Y0062524D01*
X0064126Y0062049D01*
X0064126Y0062008D01*
X0064110Y0062001D01*
X0063435Y0061326D01*
X0063069Y0060444D01*
X0063069Y0055847D01*
X0063435Y0054965D01*
X0063669Y0054731D01*
X0063669Y0053028D01*
X0066926Y0053028D01*
X0066926Y0053027D01*
X0063669Y0053027D01*
X0063669Y0051400D01*
X0063396Y0051400D01*
X0062330Y0050958D01*
X0062321Y0050949D01*
X0060267Y0050949D01*
X0059946Y0050816D01*
X0060364Y0052257D02*
X0063669Y0052257D01*
X0063669Y0053855D02*
X0060546Y0053855D01*
X0060546Y0055454D02*
X0063232Y0055454D01*
X0063069Y0057052D02*
X0060546Y0057052D01*
X0060271Y0058651D02*
X0063069Y0058651D01*
X0063069Y0060249D02*
X0061178Y0060249D01*
X0062216Y0061848D02*
X0063956Y0061848D01*
X0064527Y0063446D02*
X0062246Y0063446D01*
X0062246Y0065045D02*
X0065684Y0065045D01*
X0064502Y0066643D02*
X0064035Y0066643D01*
X0064035Y0068242D02*
X0064502Y0068242D01*
X0064035Y0068739D02*
X0062830Y0068739D01*
X0062830Y0069206D01*
X0064035Y0069206D01*
X0064035Y0068739D01*
X0079048Y0070394D02*
X0079249Y0070595D01*
X0079765Y0071841D01*
X0079765Y0071946D01*
X0080690Y0072872D01*
X0082364Y0072872D01*
X0083246Y0073237D01*
X0083921Y0073912D01*
X0084286Y0074794D01*
X0084286Y0078043D01*
X0084998Y0078754D01*
X0084998Y0074794D01*
X0085364Y0073912D01*
X0086039Y0073237D01*
X0086921Y0072872D01*
X0088988Y0072872D01*
X0090930Y0070929D01*
X0091959Y0070503D01*
X0095441Y0070503D01*
X0095441Y0070387D01*
X0099074Y0070387D01*
X0099074Y0069920D01*
X0095441Y0069920D01*
X0095441Y0067791D01*
X0095563Y0067333D01*
X0095800Y0066922D01*
X0096136Y0066587D01*
X0096546Y0066350D01*
X0097004Y0066228D01*
X0097159Y0066228D01*
X0097114Y0066060D01*
X0097114Y0064543D01*
X0097114Y0063898D01*
X0095394Y0063898D01*
X0095388Y0063915D01*
X0095153Y0064149D01*
X0095153Y0065823D01*
X0095153Y0067516D01*
X0095030Y0067974D01*
X0094793Y0068385D01*
X0094458Y0068720D01*
X0094048Y0068957D01*
X0093590Y0069080D01*
X0091532Y0069080D01*
X0089829Y0069080D01*
X0089594Y0069314D01*
X0088820Y0069635D01*
X0088820Y0069647D01*
X0088304Y0070893D01*
X0087350Y0071847D01*
X0086104Y0072363D01*
X0084755Y0072363D01*
X0083509Y0071847D01*
X0082555Y0070893D01*
X0082039Y0069647D01*
X0082039Y0068842D01*
X0082005Y0068925D01*
X0081051Y0069878D01*
X0079805Y0070394D01*
X0079048Y0070394D01*
X0079598Y0071439D02*
X0083101Y0071439D01*
X0082764Y0073037D02*
X0086521Y0073037D01*
X0087758Y0071439D02*
X0090421Y0071439D01*
X0088740Y0069840D02*
X0095441Y0069840D01*
X0095441Y0068242D02*
X0094876Y0068242D01*
X0095153Y0066643D02*
X0096079Y0066643D01*
X0095153Y0065823D02*
X0091532Y0065823D01*
X0091532Y0069080D01*
X0091532Y0065823D01*
X0091532Y0065823D01*
X0091532Y0065823D01*
X0095153Y0065823D01*
X0095153Y0065045D02*
X0097114Y0065045D01*
X0097114Y0064543D02*
X0099073Y0064543D01*
X0097114Y0064543D01*
X0099073Y0064543D02*
X0099073Y0064543D01*
X0096081Y0058298D02*
X0096514Y0057865D01*
X0096514Y0055109D01*
X0096606Y0054887D01*
X0096606Y0053652D01*
X0097032Y0052623D01*
X0098863Y0050792D01*
X0098362Y0050584D01*
X0098290Y0050513D01*
X0097091Y0050513D01*
X0096966Y0050814D01*
X0096012Y0051768D01*
X0094766Y0052284D01*
X0093819Y0052284D01*
X0093764Y0052419D01*
X0093459Y0052724D01*
X0093590Y0052724D01*
X0094048Y0052846D01*
X0094458Y0053083D01*
X0094793Y0053418D01*
X0095030Y0053829D01*
X0095153Y0054287D01*
X0095153Y0055980D01*
X0091532Y0055980D01*
X0091532Y0055980D01*
X0095153Y0055980D01*
X0095153Y0057674D01*
X0095074Y0057969D01*
X0095388Y0058282D01*
X0095394Y0058298D01*
X0096081Y0058298D01*
X0096514Y0057052D02*
X0095153Y0057052D01*
X0095153Y0055454D02*
X0096514Y0055454D01*
X0096606Y0053855D02*
X0095037Y0053855D01*
X0094832Y0052257D02*
X0097398Y0052257D01*
X0097030Y0050658D02*
X0098541Y0050658D01*
X0106062Y0045215D02*
X0106529Y0045215D01*
X0106529Y0041582D01*
X0108408Y0041582D01*
X0108455Y0041406D01*
X0108692Y0040995D01*
X0109027Y0040660D01*
X0109438Y0040423D01*
X0109896Y0040300D01*
X0113308Y0040300D01*
X0113308Y0045275D01*
X0113458Y0045275D01*
X0113458Y0045425D01*
X0118433Y0045425D01*
X0118433Y0048837D01*
X0118310Y0049295D01*
X0118073Y0049706D01*
X0117738Y0050041D01*
X0117327Y0050278D01*
X0116870Y0050400D01*
X0116196Y0050400D01*
X0116583Y0050561D01*
X0118172Y0052150D01*
X0119033Y0054227D01*
X0119033Y0056474D01*
X0118172Y0058551D01*
X0116583Y0060140D01*
X0116076Y0060350D01*
X0116583Y0060561D01*
X0118172Y0062150D01*
X0119033Y0064227D01*
X0119033Y0066474D01*
X0118172Y0068551D01*
X0116583Y0070140D01*
X0116076Y0070350D01*
X0116583Y0070561D01*
X0118172Y0072150D01*
X0119033Y0074227D01*
X0119033Y0076474D01*
X0118172Y0078551D01*
X0116583Y0080140D01*
X0116076Y0080350D01*
X0116583Y0080561D01*
X0118172Y0082150D01*
X0119033Y0084227D01*
X0119250Y0084227D01*
X0119033Y0084227D02*
X0119033Y0086474D01*
X0118172Y0088551D01*
X0116583Y0090140D01*
X0114506Y0091000D01*
X0114173Y0091000D01*
X0116714Y0093541D01*
X0119250Y0093541D01*
X0119250Y0040270D01*
X0104434Y0040270D01*
X0104434Y0041582D01*
X0106062Y0041582D01*
X0106062Y0045215D01*
X0106529Y0045215D02*
X0106529Y0045682D01*
X0108333Y0045682D01*
X0108333Y0045425D01*
X0113307Y0045425D01*
X0113307Y0045275D01*
X0108333Y0045275D01*
X0108333Y0045215D01*
X0106529Y0045215D01*
X0106529Y0044264D02*
X0106062Y0044264D01*
X0106062Y0042666D02*
X0106529Y0042666D01*
X0104434Y0041067D02*
X0108651Y0041067D01*
X0113308Y0041067D02*
X0113458Y0041067D01*
X0113458Y0040300D02*
X0116870Y0040300D01*
X0117327Y0040423D01*
X0117738Y0040660D01*
X0118073Y0040995D01*
X0118310Y0041406D01*
X0118433Y0041863D01*
X0118433Y0045275D01*
X0113458Y0045275D01*
X0113458Y0040300D01*
X0113458Y0042666D02*
X0113308Y0042666D01*
X0113308Y0044264D02*
X0113458Y0044264D01*
X0118433Y0044264D02*
X0119250Y0044264D01*
X0119250Y0042666D02*
X0118433Y0042666D01*
X0118114Y0041067D02*
X0119250Y0041067D01*
X0119250Y0045863D02*
X0118433Y0045863D01*
X0118433Y0047461D02*
X0119250Y0047461D01*
X0119250Y0049060D02*
X0118373Y0049060D01*
X0119250Y0050658D02*
X0116681Y0050658D01*
X0118217Y0052257D02*
X0119250Y0052257D01*
X0119250Y0053855D02*
X0118879Y0053855D01*
X0119033Y0055454D02*
X0119250Y0055454D01*
X0119250Y0057052D02*
X0118793Y0057052D01*
X0119250Y0058651D02*
X0118072Y0058651D01*
X0119250Y0060249D02*
X0116320Y0060249D01*
X0117870Y0061848D02*
X0119250Y0061848D01*
X0119250Y0063446D02*
X0118709Y0063446D01*
X0119033Y0065045D02*
X0119250Y0065045D01*
X0119250Y0066643D02*
X0118963Y0066643D01*
X0119250Y0068242D02*
X0118300Y0068242D01*
X0119250Y0069840D02*
X0116883Y0069840D01*
X0117461Y0071439D02*
X0119250Y0071439D01*
X0119250Y0073037D02*
X0118540Y0073037D01*
X0119033Y0074636D02*
X0119250Y0074636D01*
X0119250Y0076234D02*
X0119033Y0076234D01*
X0119250Y0077833D02*
X0118470Y0077833D01*
X0119250Y0079431D02*
X0117292Y0079431D01*
X0117052Y0081030D02*
X0119250Y0081030D01*
X0119250Y0082628D02*
X0118371Y0082628D01*
X0119033Y0085825D02*
X0119250Y0085825D01*
X0119250Y0087424D02*
X0118639Y0087424D01*
X0119250Y0089022D02*
X0117701Y0089022D01*
X0119250Y0090621D02*
X0115422Y0090621D01*
X0115392Y0092219D02*
X0119250Y0092219D01*
X0103699Y0078180D02*
X0103699Y0075738D01*
X0103575Y0075838D01*
X0103189Y0075949D01*
X0102817Y0076103D01*
X0102658Y0076103D01*
X0102505Y0076148D01*
X0102105Y0076103D01*
X0099631Y0076103D01*
X0099631Y0077083D01*
X0099589Y0077240D01*
X0099631Y0077397D01*
X0099631Y0078716D01*
X0096749Y0078716D01*
X0096749Y0076103D01*
X0096749Y0076103D01*
X0096749Y0078646D01*
X0096749Y0078716D01*
X0096749Y0078716D01*
X0096749Y0078717D01*
X0099631Y0078717D01*
X0099631Y0078771D01*
X0101151Y0078771D01*
X0101226Y0078696D01*
X0102472Y0078180D01*
X0103699Y0078180D01*
X0103699Y0077833D02*
X0099631Y0077833D01*
X0099631Y0076234D02*
X0103699Y0076234D01*
X0096749Y0076234D02*
X0096749Y0076234D01*
X0096749Y0077833D02*
X0096749Y0077833D01*
X0096749Y0078716D02*
X0093866Y0078716D01*
X0093866Y0077397D01*
X0093908Y0077240D01*
X0093866Y0077083D01*
X0093866Y0076103D01*
X0093735Y0076103D01*
X0093735Y0078771D01*
X0093866Y0078771D01*
X0093866Y0078717D01*
X0096749Y0078717D01*
X0096749Y0078716D01*
X0093866Y0077833D02*
X0093735Y0077833D01*
X0093735Y0076234D02*
X0093866Y0076234D01*
X0091532Y0068242D02*
X0091532Y0068242D01*
X0091532Y0066643D02*
X0091532Y0066643D01*
X0085064Y0074636D02*
X0084221Y0074636D01*
X0084286Y0076234D02*
X0084998Y0076234D01*
X0084998Y0077833D02*
X0084286Y0077833D01*
X0082119Y0069840D02*
X0081089Y0069840D01*
X0094857Y0086733D02*
X0093735Y0087855D01*
X0093735Y0089512D01*
X0094496Y0089827D01*
X0095284Y0090615D01*
X0095441Y0090772D01*
X0095441Y0089678D01*
X0099074Y0089678D01*
X0099074Y0089211D01*
X0095441Y0089211D01*
X0095441Y0087082D01*
X0095534Y0086733D01*
X0094857Y0086733D01*
X0095441Y0087424D02*
X0094166Y0087424D01*
X0093735Y0089022D02*
X0095441Y0089022D01*
X0095441Y0090621D02*
X0095290Y0090621D01*
D37*
X0079131Y0063264D02*
X0079524Y0062870D01*
X0079327Y0062673D02*
X0082477Y0059524D01*
X0082477Y0042791D01*
X0080509Y0042791D02*
X0080509Y0052831D01*
X0079327Y0054012D01*
X0084446Y0048500D02*
X0085233Y0049287D01*
X0084446Y0048500D02*
X0084446Y0042791D01*
X0086414Y0042791D02*
X0086414Y0045547D01*
X0087792Y0046925D01*
X0087792Y0052437D01*
X0086414Y0053815D01*
X0086414Y0055980D01*
X0086414Y0061098D01*
X0084249Y0061098D01*
X0083068Y0062280D01*
X0090351Y0049287D02*
X0092320Y0047122D01*
X0094091Y0048894D01*
X0092320Y0047122D02*
X0092320Y0042791D01*
X0076572Y0042791D02*
X0076572Y0045547D01*
X0074800Y0047319D01*
X0071650Y0048500D02*
X0070666Y0047516D01*
X0070666Y0042791D01*
X0067162Y0042791D02*
X0067162Y0047161D01*
X0068501Y0048500D01*
X0063973Y0048500D01*
X0062201Y0046728D01*
M02*
