G75*
%MOIN*%
%OFA0B0*%
%FSLAX25Y25*%
%IPPOS*%
%LPD*%
%AMOC8*
5,1,8,0,0,1.08239X$1,22.5*
%
%ADD10C,0.00000*%
%ADD11R,0.06693X0.01575*%
%ADD12R,0.01575X0.06693*%
%ADD13R,0.04724X0.01969*%
%ADD14R,0.06496X0.10039*%
%ADD15R,0.04652X0.04534*%
%ADD16R,0.04534X0.04652*%
%ADD17R,0.06699X0.07487*%
%ADD18R,0.04337X0.04731*%
%ADD19R,0.07880X0.06306*%
%ADD20R,0.04731X0.04337*%
%ADD21R,0.02953X0.04528*%
%ADD22R,0.05167X0.02657*%
%ADD23R,0.06900X0.06900*%
%ADD24C,0.06900*%
%ADD25C,0.07000*%
%ADD26C,0.04337*%
%ADD27R,0.08274X0.05124*%
%ADD28R,0.03550X0.03550*%
%ADD29R,0.11030X0.09061*%
D10*
X0024428Y0011800D02*
X0024428Y0101800D01*
X0204428Y0101800D01*
X0204428Y0011800D01*
X0024428Y0011800D01*
X0192459Y0047942D02*
X0192461Y0048030D01*
X0192467Y0048118D01*
X0192477Y0048206D01*
X0192491Y0048294D01*
X0192508Y0048380D01*
X0192530Y0048466D01*
X0192555Y0048550D01*
X0192585Y0048634D01*
X0192617Y0048716D01*
X0192654Y0048796D01*
X0192694Y0048875D01*
X0192738Y0048952D01*
X0192785Y0049027D01*
X0192835Y0049099D01*
X0192889Y0049170D01*
X0192945Y0049237D01*
X0193005Y0049303D01*
X0193067Y0049365D01*
X0193133Y0049425D01*
X0193200Y0049481D01*
X0193271Y0049535D01*
X0193343Y0049585D01*
X0193418Y0049632D01*
X0193495Y0049676D01*
X0193574Y0049716D01*
X0193654Y0049753D01*
X0193736Y0049785D01*
X0193820Y0049815D01*
X0193904Y0049840D01*
X0193990Y0049862D01*
X0194076Y0049879D01*
X0194164Y0049893D01*
X0194252Y0049903D01*
X0194340Y0049909D01*
X0194428Y0049911D01*
X0194516Y0049909D01*
X0194604Y0049903D01*
X0194692Y0049893D01*
X0194780Y0049879D01*
X0194866Y0049862D01*
X0194952Y0049840D01*
X0195036Y0049815D01*
X0195120Y0049785D01*
X0195202Y0049753D01*
X0195282Y0049716D01*
X0195361Y0049676D01*
X0195438Y0049632D01*
X0195513Y0049585D01*
X0195585Y0049535D01*
X0195656Y0049481D01*
X0195723Y0049425D01*
X0195789Y0049365D01*
X0195851Y0049303D01*
X0195911Y0049237D01*
X0195967Y0049170D01*
X0196021Y0049099D01*
X0196071Y0049027D01*
X0196118Y0048952D01*
X0196162Y0048875D01*
X0196202Y0048796D01*
X0196239Y0048716D01*
X0196271Y0048634D01*
X0196301Y0048550D01*
X0196326Y0048466D01*
X0196348Y0048380D01*
X0196365Y0048294D01*
X0196379Y0048206D01*
X0196389Y0048118D01*
X0196395Y0048030D01*
X0196397Y0047942D01*
X0196395Y0047854D01*
X0196389Y0047766D01*
X0196379Y0047678D01*
X0196365Y0047590D01*
X0196348Y0047504D01*
X0196326Y0047418D01*
X0196301Y0047334D01*
X0196271Y0047250D01*
X0196239Y0047168D01*
X0196202Y0047088D01*
X0196162Y0047009D01*
X0196118Y0046932D01*
X0196071Y0046857D01*
X0196021Y0046785D01*
X0195967Y0046714D01*
X0195911Y0046647D01*
X0195851Y0046581D01*
X0195789Y0046519D01*
X0195723Y0046459D01*
X0195656Y0046403D01*
X0195585Y0046349D01*
X0195513Y0046299D01*
X0195438Y0046252D01*
X0195361Y0046208D01*
X0195282Y0046168D01*
X0195202Y0046131D01*
X0195120Y0046099D01*
X0195036Y0046069D01*
X0194952Y0046044D01*
X0194866Y0046022D01*
X0194780Y0046005D01*
X0194692Y0045991D01*
X0194604Y0045981D01*
X0194516Y0045975D01*
X0194428Y0045973D01*
X0194340Y0045975D01*
X0194252Y0045981D01*
X0194164Y0045991D01*
X0194076Y0046005D01*
X0193990Y0046022D01*
X0193904Y0046044D01*
X0193820Y0046069D01*
X0193736Y0046099D01*
X0193654Y0046131D01*
X0193574Y0046168D01*
X0193495Y0046208D01*
X0193418Y0046252D01*
X0193343Y0046299D01*
X0193271Y0046349D01*
X0193200Y0046403D01*
X0193133Y0046459D01*
X0193067Y0046519D01*
X0193005Y0046581D01*
X0192945Y0046647D01*
X0192889Y0046714D01*
X0192835Y0046785D01*
X0192785Y0046857D01*
X0192738Y0046932D01*
X0192694Y0047009D01*
X0192654Y0047088D01*
X0192617Y0047168D01*
X0192585Y0047250D01*
X0192555Y0047334D01*
X0192530Y0047418D01*
X0192508Y0047504D01*
X0192491Y0047590D01*
X0192477Y0047678D01*
X0192467Y0047766D01*
X0192461Y0047854D01*
X0192459Y0047942D01*
X0192459Y0065658D02*
X0192461Y0065746D01*
X0192467Y0065834D01*
X0192477Y0065922D01*
X0192491Y0066010D01*
X0192508Y0066096D01*
X0192530Y0066182D01*
X0192555Y0066266D01*
X0192585Y0066350D01*
X0192617Y0066432D01*
X0192654Y0066512D01*
X0192694Y0066591D01*
X0192738Y0066668D01*
X0192785Y0066743D01*
X0192835Y0066815D01*
X0192889Y0066886D01*
X0192945Y0066953D01*
X0193005Y0067019D01*
X0193067Y0067081D01*
X0193133Y0067141D01*
X0193200Y0067197D01*
X0193271Y0067251D01*
X0193343Y0067301D01*
X0193418Y0067348D01*
X0193495Y0067392D01*
X0193574Y0067432D01*
X0193654Y0067469D01*
X0193736Y0067501D01*
X0193820Y0067531D01*
X0193904Y0067556D01*
X0193990Y0067578D01*
X0194076Y0067595D01*
X0194164Y0067609D01*
X0194252Y0067619D01*
X0194340Y0067625D01*
X0194428Y0067627D01*
X0194516Y0067625D01*
X0194604Y0067619D01*
X0194692Y0067609D01*
X0194780Y0067595D01*
X0194866Y0067578D01*
X0194952Y0067556D01*
X0195036Y0067531D01*
X0195120Y0067501D01*
X0195202Y0067469D01*
X0195282Y0067432D01*
X0195361Y0067392D01*
X0195438Y0067348D01*
X0195513Y0067301D01*
X0195585Y0067251D01*
X0195656Y0067197D01*
X0195723Y0067141D01*
X0195789Y0067081D01*
X0195851Y0067019D01*
X0195911Y0066953D01*
X0195967Y0066886D01*
X0196021Y0066815D01*
X0196071Y0066743D01*
X0196118Y0066668D01*
X0196162Y0066591D01*
X0196202Y0066512D01*
X0196239Y0066432D01*
X0196271Y0066350D01*
X0196301Y0066266D01*
X0196326Y0066182D01*
X0196348Y0066096D01*
X0196365Y0066010D01*
X0196379Y0065922D01*
X0196389Y0065834D01*
X0196395Y0065746D01*
X0196397Y0065658D01*
X0196395Y0065570D01*
X0196389Y0065482D01*
X0196379Y0065394D01*
X0196365Y0065306D01*
X0196348Y0065220D01*
X0196326Y0065134D01*
X0196301Y0065050D01*
X0196271Y0064966D01*
X0196239Y0064884D01*
X0196202Y0064804D01*
X0196162Y0064725D01*
X0196118Y0064648D01*
X0196071Y0064573D01*
X0196021Y0064501D01*
X0195967Y0064430D01*
X0195911Y0064363D01*
X0195851Y0064297D01*
X0195789Y0064235D01*
X0195723Y0064175D01*
X0195656Y0064119D01*
X0195585Y0064065D01*
X0195513Y0064015D01*
X0195438Y0063968D01*
X0195361Y0063924D01*
X0195282Y0063884D01*
X0195202Y0063847D01*
X0195120Y0063815D01*
X0195036Y0063785D01*
X0194952Y0063760D01*
X0194866Y0063738D01*
X0194780Y0063721D01*
X0194692Y0063707D01*
X0194604Y0063697D01*
X0194516Y0063691D01*
X0194428Y0063689D01*
X0194340Y0063691D01*
X0194252Y0063697D01*
X0194164Y0063707D01*
X0194076Y0063721D01*
X0193990Y0063738D01*
X0193904Y0063760D01*
X0193820Y0063785D01*
X0193736Y0063815D01*
X0193654Y0063847D01*
X0193574Y0063884D01*
X0193495Y0063924D01*
X0193418Y0063968D01*
X0193343Y0064015D01*
X0193271Y0064065D01*
X0193200Y0064119D01*
X0193133Y0064175D01*
X0193067Y0064235D01*
X0193005Y0064297D01*
X0192945Y0064363D01*
X0192889Y0064430D01*
X0192835Y0064501D01*
X0192785Y0064573D01*
X0192738Y0064648D01*
X0192694Y0064725D01*
X0192654Y0064804D01*
X0192617Y0064884D01*
X0192585Y0064966D01*
X0192555Y0065050D01*
X0192530Y0065134D01*
X0192508Y0065220D01*
X0192491Y0065306D01*
X0192477Y0065394D01*
X0192467Y0065482D01*
X0192461Y0065570D01*
X0192459Y0065658D01*
D11*
X0140354Y0065658D03*
X0140354Y0067627D03*
X0140354Y0069595D03*
X0140354Y0071564D03*
X0140354Y0063690D03*
X0140354Y0061721D03*
X0140354Y0059753D03*
X0140354Y0057784D03*
X0140354Y0055816D03*
X0140354Y0053847D03*
X0140354Y0051879D03*
X0140354Y0049910D03*
X0140354Y0047942D03*
X0140354Y0045973D03*
X0140354Y0044005D03*
X0140354Y0042036D03*
X0093503Y0042036D03*
X0093503Y0044005D03*
X0093503Y0045973D03*
X0093503Y0047942D03*
X0093503Y0049910D03*
X0093503Y0051879D03*
X0093503Y0053847D03*
X0093503Y0055816D03*
X0093503Y0057784D03*
X0093503Y0059753D03*
X0093503Y0061721D03*
X0093503Y0063690D03*
X0093503Y0065658D03*
X0093503Y0067627D03*
X0093503Y0069595D03*
X0093503Y0071564D03*
D12*
X0102165Y0080225D03*
X0104133Y0080225D03*
X0106102Y0080225D03*
X0108070Y0080225D03*
X0110039Y0080225D03*
X0112007Y0080225D03*
X0113976Y0080225D03*
X0115944Y0080225D03*
X0117913Y0080225D03*
X0119881Y0080225D03*
X0121850Y0080225D03*
X0123818Y0080225D03*
X0125787Y0080225D03*
X0127755Y0080225D03*
X0129724Y0080225D03*
X0131692Y0080225D03*
X0131692Y0033375D03*
X0129724Y0033375D03*
X0127755Y0033375D03*
X0125787Y0033375D03*
X0123818Y0033375D03*
X0121850Y0033375D03*
X0119881Y0033375D03*
X0117913Y0033375D03*
X0115944Y0033375D03*
X0113976Y0033375D03*
X0112007Y0033375D03*
X0110039Y0033375D03*
X0108070Y0033375D03*
X0106102Y0033375D03*
X0104133Y0033375D03*
X0102165Y0033375D03*
D13*
X0158129Y0063060D03*
X0158129Y0066800D03*
X0158129Y0070540D03*
X0170728Y0070540D03*
X0170728Y0066800D03*
X0170728Y0063060D03*
D14*
X0164428Y0066800D03*
D15*
X0159428Y0052745D03*
X0170678Y0052745D03*
X0170678Y0045855D03*
X0159428Y0045855D03*
X0084428Y0075855D03*
X0084428Y0082745D03*
X0101928Y0090855D03*
X0101928Y0097745D03*
D16*
X0060373Y0094300D03*
X0053484Y0094300D03*
X0053484Y0084300D03*
X0060373Y0084300D03*
X0060373Y0074300D03*
X0053484Y0074300D03*
X0053484Y0064300D03*
X0060373Y0064300D03*
X0060373Y0054300D03*
X0053484Y0054300D03*
X0053484Y0044300D03*
X0060373Y0044300D03*
X0070984Y0034300D03*
X0077873Y0034300D03*
X0088484Y0021800D03*
X0095373Y0021800D03*
X0138484Y0031800D03*
X0145373Y0031800D03*
X0160984Y0019300D03*
X0167873Y0019300D03*
X0165373Y0079300D03*
X0158484Y0079300D03*
X0150373Y0079300D03*
X0143484Y0079300D03*
X0173484Y0079300D03*
X0180373Y0079300D03*
D17*
X0147440Y0019300D03*
X0136417Y0019300D03*
D18*
X0095275Y0031800D03*
X0088582Y0031800D03*
X0077775Y0021800D03*
X0071082Y0021800D03*
X0060275Y0021800D03*
X0053582Y0021800D03*
X0053582Y0034300D03*
X0060275Y0034300D03*
X0068582Y0094300D03*
X0075275Y0094300D03*
D19*
X0071928Y0085009D03*
X0071928Y0073591D03*
D20*
X0089428Y0090954D03*
X0089428Y0097646D03*
X0111928Y0097646D03*
X0111928Y0090954D03*
D21*
X0043661Y0092469D03*
X0035196Y0092469D03*
X0035196Y0076131D03*
X0043661Y0076131D03*
X0043661Y0062469D03*
X0035196Y0062469D03*
X0035196Y0046131D03*
X0043661Y0046131D03*
D22*
X0159876Y0035540D03*
X0159876Y0031800D03*
X0159876Y0028060D03*
X0168981Y0028060D03*
X0168981Y0031800D03*
X0168981Y0035540D03*
D23*
X0124428Y0094300D03*
D24*
X0134428Y0094300D03*
X0144428Y0094300D03*
X0154428Y0094300D03*
X0164428Y0094300D03*
X0174428Y0094300D03*
X0184428Y0094300D03*
D25*
X0191128Y0079241D02*
X0197728Y0079241D01*
X0197728Y0034359D02*
X0191128Y0034359D01*
D26*
X0194428Y0047942D03*
X0194428Y0065658D03*
D27*
X0184192Y0060737D03*
X0184192Y0052863D03*
X0184192Y0043020D03*
X0184192Y0070580D03*
D28*
X0042381Y0034300D03*
X0036476Y0034300D03*
X0036476Y0021800D03*
X0042381Y0021800D03*
D29*
X0071928Y0048788D03*
X0071928Y0059812D03*
M02*
