G75*
%MOIN*%
%OFA0B0*%
%FSLAX25Y25*%
%IPPOS*%
%LPD*%
%AMOC8*
5,1,8,0,0,1.08239X$1,22.5*
%
%ADD10C,0.00000*%
D10*
X0024428Y0011800D02*
X0024428Y0101800D01*
X0204428Y0101800D01*
X0204428Y0011800D01*
X0024428Y0011800D01*
X0192459Y0047942D02*
X0192461Y0048030D01*
X0192467Y0048118D01*
X0192477Y0048206D01*
X0192491Y0048294D01*
X0192508Y0048380D01*
X0192530Y0048466D01*
X0192555Y0048550D01*
X0192585Y0048634D01*
X0192617Y0048716D01*
X0192654Y0048796D01*
X0192694Y0048875D01*
X0192738Y0048952D01*
X0192785Y0049027D01*
X0192835Y0049099D01*
X0192889Y0049170D01*
X0192945Y0049237D01*
X0193005Y0049303D01*
X0193067Y0049365D01*
X0193133Y0049425D01*
X0193200Y0049481D01*
X0193271Y0049535D01*
X0193343Y0049585D01*
X0193418Y0049632D01*
X0193495Y0049676D01*
X0193574Y0049716D01*
X0193654Y0049753D01*
X0193736Y0049785D01*
X0193820Y0049815D01*
X0193904Y0049840D01*
X0193990Y0049862D01*
X0194076Y0049879D01*
X0194164Y0049893D01*
X0194252Y0049903D01*
X0194340Y0049909D01*
X0194428Y0049911D01*
X0194516Y0049909D01*
X0194604Y0049903D01*
X0194692Y0049893D01*
X0194780Y0049879D01*
X0194866Y0049862D01*
X0194952Y0049840D01*
X0195036Y0049815D01*
X0195120Y0049785D01*
X0195202Y0049753D01*
X0195282Y0049716D01*
X0195361Y0049676D01*
X0195438Y0049632D01*
X0195513Y0049585D01*
X0195585Y0049535D01*
X0195656Y0049481D01*
X0195723Y0049425D01*
X0195789Y0049365D01*
X0195851Y0049303D01*
X0195911Y0049237D01*
X0195967Y0049170D01*
X0196021Y0049099D01*
X0196071Y0049027D01*
X0196118Y0048952D01*
X0196162Y0048875D01*
X0196202Y0048796D01*
X0196239Y0048716D01*
X0196271Y0048634D01*
X0196301Y0048550D01*
X0196326Y0048466D01*
X0196348Y0048380D01*
X0196365Y0048294D01*
X0196379Y0048206D01*
X0196389Y0048118D01*
X0196395Y0048030D01*
X0196397Y0047942D01*
X0196395Y0047854D01*
X0196389Y0047766D01*
X0196379Y0047678D01*
X0196365Y0047590D01*
X0196348Y0047504D01*
X0196326Y0047418D01*
X0196301Y0047334D01*
X0196271Y0047250D01*
X0196239Y0047168D01*
X0196202Y0047088D01*
X0196162Y0047009D01*
X0196118Y0046932D01*
X0196071Y0046857D01*
X0196021Y0046785D01*
X0195967Y0046714D01*
X0195911Y0046647D01*
X0195851Y0046581D01*
X0195789Y0046519D01*
X0195723Y0046459D01*
X0195656Y0046403D01*
X0195585Y0046349D01*
X0195513Y0046299D01*
X0195438Y0046252D01*
X0195361Y0046208D01*
X0195282Y0046168D01*
X0195202Y0046131D01*
X0195120Y0046099D01*
X0195036Y0046069D01*
X0194952Y0046044D01*
X0194866Y0046022D01*
X0194780Y0046005D01*
X0194692Y0045991D01*
X0194604Y0045981D01*
X0194516Y0045975D01*
X0194428Y0045973D01*
X0194340Y0045975D01*
X0194252Y0045981D01*
X0194164Y0045991D01*
X0194076Y0046005D01*
X0193990Y0046022D01*
X0193904Y0046044D01*
X0193820Y0046069D01*
X0193736Y0046099D01*
X0193654Y0046131D01*
X0193574Y0046168D01*
X0193495Y0046208D01*
X0193418Y0046252D01*
X0193343Y0046299D01*
X0193271Y0046349D01*
X0193200Y0046403D01*
X0193133Y0046459D01*
X0193067Y0046519D01*
X0193005Y0046581D01*
X0192945Y0046647D01*
X0192889Y0046714D01*
X0192835Y0046785D01*
X0192785Y0046857D01*
X0192738Y0046932D01*
X0192694Y0047009D01*
X0192654Y0047088D01*
X0192617Y0047168D01*
X0192585Y0047250D01*
X0192555Y0047334D01*
X0192530Y0047418D01*
X0192508Y0047504D01*
X0192491Y0047590D01*
X0192477Y0047678D01*
X0192467Y0047766D01*
X0192461Y0047854D01*
X0192459Y0047942D01*
X0192459Y0065658D02*
X0192461Y0065746D01*
X0192467Y0065834D01*
X0192477Y0065922D01*
X0192491Y0066010D01*
X0192508Y0066096D01*
X0192530Y0066182D01*
X0192555Y0066266D01*
X0192585Y0066350D01*
X0192617Y0066432D01*
X0192654Y0066512D01*
X0192694Y0066591D01*
X0192738Y0066668D01*
X0192785Y0066743D01*
X0192835Y0066815D01*
X0192889Y0066886D01*
X0192945Y0066953D01*
X0193005Y0067019D01*
X0193067Y0067081D01*
X0193133Y0067141D01*
X0193200Y0067197D01*
X0193271Y0067251D01*
X0193343Y0067301D01*
X0193418Y0067348D01*
X0193495Y0067392D01*
X0193574Y0067432D01*
X0193654Y0067469D01*
X0193736Y0067501D01*
X0193820Y0067531D01*
X0193904Y0067556D01*
X0193990Y0067578D01*
X0194076Y0067595D01*
X0194164Y0067609D01*
X0194252Y0067619D01*
X0194340Y0067625D01*
X0194428Y0067627D01*
X0194516Y0067625D01*
X0194604Y0067619D01*
X0194692Y0067609D01*
X0194780Y0067595D01*
X0194866Y0067578D01*
X0194952Y0067556D01*
X0195036Y0067531D01*
X0195120Y0067501D01*
X0195202Y0067469D01*
X0195282Y0067432D01*
X0195361Y0067392D01*
X0195438Y0067348D01*
X0195513Y0067301D01*
X0195585Y0067251D01*
X0195656Y0067197D01*
X0195723Y0067141D01*
X0195789Y0067081D01*
X0195851Y0067019D01*
X0195911Y0066953D01*
X0195967Y0066886D01*
X0196021Y0066815D01*
X0196071Y0066743D01*
X0196118Y0066668D01*
X0196162Y0066591D01*
X0196202Y0066512D01*
X0196239Y0066432D01*
X0196271Y0066350D01*
X0196301Y0066266D01*
X0196326Y0066182D01*
X0196348Y0066096D01*
X0196365Y0066010D01*
X0196379Y0065922D01*
X0196389Y0065834D01*
X0196395Y0065746D01*
X0196397Y0065658D01*
X0196395Y0065570D01*
X0196389Y0065482D01*
X0196379Y0065394D01*
X0196365Y0065306D01*
X0196348Y0065220D01*
X0196326Y0065134D01*
X0196301Y0065050D01*
X0196271Y0064966D01*
X0196239Y0064884D01*
X0196202Y0064804D01*
X0196162Y0064725D01*
X0196118Y0064648D01*
X0196071Y0064573D01*
X0196021Y0064501D01*
X0195967Y0064430D01*
X0195911Y0064363D01*
X0195851Y0064297D01*
X0195789Y0064235D01*
X0195723Y0064175D01*
X0195656Y0064119D01*
X0195585Y0064065D01*
X0195513Y0064015D01*
X0195438Y0063968D01*
X0195361Y0063924D01*
X0195282Y0063884D01*
X0195202Y0063847D01*
X0195120Y0063815D01*
X0195036Y0063785D01*
X0194952Y0063760D01*
X0194866Y0063738D01*
X0194780Y0063721D01*
X0194692Y0063707D01*
X0194604Y0063697D01*
X0194516Y0063691D01*
X0194428Y0063689D01*
X0194340Y0063691D01*
X0194252Y0063697D01*
X0194164Y0063707D01*
X0194076Y0063721D01*
X0193990Y0063738D01*
X0193904Y0063760D01*
X0193820Y0063785D01*
X0193736Y0063815D01*
X0193654Y0063847D01*
X0193574Y0063884D01*
X0193495Y0063924D01*
X0193418Y0063968D01*
X0193343Y0064015D01*
X0193271Y0064065D01*
X0193200Y0064119D01*
X0193133Y0064175D01*
X0193067Y0064235D01*
X0193005Y0064297D01*
X0192945Y0064363D01*
X0192889Y0064430D01*
X0192835Y0064501D01*
X0192785Y0064573D01*
X0192738Y0064648D01*
X0192694Y0064725D01*
X0192654Y0064804D01*
X0192617Y0064884D01*
X0192585Y0064966D01*
X0192555Y0065050D01*
X0192530Y0065134D01*
X0192508Y0065220D01*
X0192491Y0065306D01*
X0192477Y0065394D01*
X0192467Y0065482D01*
X0192461Y0065570D01*
X0192459Y0065658D01*
M02*
