G75*
%MOIN*%
%OFA0B0*%
%FSLAX25Y25*%
%IPPOS*%
%LPD*%
%AMOC8*
5,1,8,0,0,1.08239X$1,22.5*
%
%ADD10C,0.00000*%
%ADD11R,0.06500X0.06500*%
%ADD12C,0.06500*%
%ADD13C,0.06600*%
%ADD14C,0.03562*%
%ADD15C,0.01200*%
%ADD16C,0.01600*%
D10*
X0024428Y0011800D02*
X0024428Y0101800D01*
X0204428Y0101800D01*
X0204428Y0011800D01*
X0024428Y0011800D01*
X0192459Y0047942D02*
X0192461Y0048030D01*
X0192467Y0048118D01*
X0192477Y0048206D01*
X0192491Y0048294D01*
X0192508Y0048380D01*
X0192530Y0048466D01*
X0192555Y0048550D01*
X0192585Y0048634D01*
X0192617Y0048716D01*
X0192654Y0048796D01*
X0192694Y0048875D01*
X0192738Y0048952D01*
X0192785Y0049027D01*
X0192835Y0049099D01*
X0192889Y0049170D01*
X0192945Y0049237D01*
X0193005Y0049303D01*
X0193067Y0049365D01*
X0193133Y0049425D01*
X0193200Y0049481D01*
X0193271Y0049535D01*
X0193343Y0049585D01*
X0193418Y0049632D01*
X0193495Y0049676D01*
X0193574Y0049716D01*
X0193654Y0049753D01*
X0193736Y0049785D01*
X0193820Y0049815D01*
X0193904Y0049840D01*
X0193990Y0049862D01*
X0194076Y0049879D01*
X0194164Y0049893D01*
X0194252Y0049903D01*
X0194340Y0049909D01*
X0194428Y0049911D01*
X0194516Y0049909D01*
X0194604Y0049903D01*
X0194692Y0049893D01*
X0194780Y0049879D01*
X0194866Y0049862D01*
X0194952Y0049840D01*
X0195036Y0049815D01*
X0195120Y0049785D01*
X0195202Y0049753D01*
X0195282Y0049716D01*
X0195361Y0049676D01*
X0195438Y0049632D01*
X0195513Y0049585D01*
X0195585Y0049535D01*
X0195656Y0049481D01*
X0195723Y0049425D01*
X0195789Y0049365D01*
X0195851Y0049303D01*
X0195911Y0049237D01*
X0195967Y0049170D01*
X0196021Y0049099D01*
X0196071Y0049027D01*
X0196118Y0048952D01*
X0196162Y0048875D01*
X0196202Y0048796D01*
X0196239Y0048716D01*
X0196271Y0048634D01*
X0196301Y0048550D01*
X0196326Y0048466D01*
X0196348Y0048380D01*
X0196365Y0048294D01*
X0196379Y0048206D01*
X0196389Y0048118D01*
X0196395Y0048030D01*
X0196397Y0047942D01*
X0196395Y0047854D01*
X0196389Y0047766D01*
X0196379Y0047678D01*
X0196365Y0047590D01*
X0196348Y0047504D01*
X0196326Y0047418D01*
X0196301Y0047334D01*
X0196271Y0047250D01*
X0196239Y0047168D01*
X0196202Y0047088D01*
X0196162Y0047009D01*
X0196118Y0046932D01*
X0196071Y0046857D01*
X0196021Y0046785D01*
X0195967Y0046714D01*
X0195911Y0046647D01*
X0195851Y0046581D01*
X0195789Y0046519D01*
X0195723Y0046459D01*
X0195656Y0046403D01*
X0195585Y0046349D01*
X0195513Y0046299D01*
X0195438Y0046252D01*
X0195361Y0046208D01*
X0195282Y0046168D01*
X0195202Y0046131D01*
X0195120Y0046099D01*
X0195036Y0046069D01*
X0194952Y0046044D01*
X0194866Y0046022D01*
X0194780Y0046005D01*
X0194692Y0045991D01*
X0194604Y0045981D01*
X0194516Y0045975D01*
X0194428Y0045973D01*
X0194340Y0045975D01*
X0194252Y0045981D01*
X0194164Y0045991D01*
X0194076Y0046005D01*
X0193990Y0046022D01*
X0193904Y0046044D01*
X0193820Y0046069D01*
X0193736Y0046099D01*
X0193654Y0046131D01*
X0193574Y0046168D01*
X0193495Y0046208D01*
X0193418Y0046252D01*
X0193343Y0046299D01*
X0193271Y0046349D01*
X0193200Y0046403D01*
X0193133Y0046459D01*
X0193067Y0046519D01*
X0193005Y0046581D01*
X0192945Y0046647D01*
X0192889Y0046714D01*
X0192835Y0046785D01*
X0192785Y0046857D01*
X0192738Y0046932D01*
X0192694Y0047009D01*
X0192654Y0047088D01*
X0192617Y0047168D01*
X0192585Y0047250D01*
X0192555Y0047334D01*
X0192530Y0047418D01*
X0192508Y0047504D01*
X0192491Y0047590D01*
X0192477Y0047678D01*
X0192467Y0047766D01*
X0192461Y0047854D01*
X0192459Y0047942D01*
X0192459Y0065658D02*
X0192461Y0065746D01*
X0192467Y0065834D01*
X0192477Y0065922D01*
X0192491Y0066010D01*
X0192508Y0066096D01*
X0192530Y0066182D01*
X0192555Y0066266D01*
X0192585Y0066350D01*
X0192617Y0066432D01*
X0192654Y0066512D01*
X0192694Y0066591D01*
X0192738Y0066668D01*
X0192785Y0066743D01*
X0192835Y0066815D01*
X0192889Y0066886D01*
X0192945Y0066953D01*
X0193005Y0067019D01*
X0193067Y0067081D01*
X0193133Y0067141D01*
X0193200Y0067197D01*
X0193271Y0067251D01*
X0193343Y0067301D01*
X0193418Y0067348D01*
X0193495Y0067392D01*
X0193574Y0067432D01*
X0193654Y0067469D01*
X0193736Y0067501D01*
X0193820Y0067531D01*
X0193904Y0067556D01*
X0193990Y0067578D01*
X0194076Y0067595D01*
X0194164Y0067609D01*
X0194252Y0067619D01*
X0194340Y0067625D01*
X0194428Y0067627D01*
X0194516Y0067625D01*
X0194604Y0067619D01*
X0194692Y0067609D01*
X0194780Y0067595D01*
X0194866Y0067578D01*
X0194952Y0067556D01*
X0195036Y0067531D01*
X0195120Y0067501D01*
X0195202Y0067469D01*
X0195282Y0067432D01*
X0195361Y0067392D01*
X0195438Y0067348D01*
X0195513Y0067301D01*
X0195585Y0067251D01*
X0195656Y0067197D01*
X0195723Y0067141D01*
X0195789Y0067081D01*
X0195851Y0067019D01*
X0195911Y0066953D01*
X0195967Y0066886D01*
X0196021Y0066815D01*
X0196071Y0066743D01*
X0196118Y0066668D01*
X0196162Y0066591D01*
X0196202Y0066512D01*
X0196239Y0066432D01*
X0196271Y0066350D01*
X0196301Y0066266D01*
X0196326Y0066182D01*
X0196348Y0066096D01*
X0196365Y0066010D01*
X0196379Y0065922D01*
X0196389Y0065834D01*
X0196395Y0065746D01*
X0196397Y0065658D01*
X0196395Y0065570D01*
X0196389Y0065482D01*
X0196379Y0065394D01*
X0196365Y0065306D01*
X0196348Y0065220D01*
X0196326Y0065134D01*
X0196301Y0065050D01*
X0196271Y0064966D01*
X0196239Y0064884D01*
X0196202Y0064804D01*
X0196162Y0064725D01*
X0196118Y0064648D01*
X0196071Y0064573D01*
X0196021Y0064501D01*
X0195967Y0064430D01*
X0195911Y0064363D01*
X0195851Y0064297D01*
X0195789Y0064235D01*
X0195723Y0064175D01*
X0195656Y0064119D01*
X0195585Y0064065D01*
X0195513Y0064015D01*
X0195438Y0063968D01*
X0195361Y0063924D01*
X0195282Y0063884D01*
X0195202Y0063847D01*
X0195120Y0063815D01*
X0195036Y0063785D01*
X0194952Y0063760D01*
X0194866Y0063738D01*
X0194780Y0063721D01*
X0194692Y0063707D01*
X0194604Y0063697D01*
X0194516Y0063691D01*
X0194428Y0063689D01*
X0194340Y0063691D01*
X0194252Y0063697D01*
X0194164Y0063707D01*
X0194076Y0063721D01*
X0193990Y0063738D01*
X0193904Y0063760D01*
X0193820Y0063785D01*
X0193736Y0063815D01*
X0193654Y0063847D01*
X0193574Y0063884D01*
X0193495Y0063924D01*
X0193418Y0063968D01*
X0193343Y0064015D01*
X0193271Y0064065D01*
X0193200Y0064119D01*
X0193133Y0064175D01*
X0193067Y0064235D01*
X0193005Y0064297D01*
X0192945Y0064363D01*
X0192889Y0064430D01*
X0192835Y0064501D01*
X0192785Y0064573D01*
X0192738Y0064648D01*
X0192694Y0064725D01*
X0192654Y0064804D01*
X0192617Y0064884D01*
X0192585Y0064966D01*
X0192555Y0065050D01*
X0192530Y0065134D01*
X0192508Y0065220D01*
X0192491Y0065306D01*
X0192477Y0065394D01*
X0192467Y0065482D01*
X0192461Y0065570D01*
X0192459Y0065658D01*
D11*
X0134428Y0094300D03*
D12*
X0124428Y0094300D03*
X0114428Y0094300D03*
X0104428Y0094300D03*
X0094428Y0094300D03*
X0084428Y0094300D03*
X0074428Y0094300D03*
D13*
X0191128Y0079241D02*
X0197728Y0079241D01*
X0197728Y0034359D02*
X0191128Y0034359D01*
D14*
X0172553Y0035863D03*
X0162553Y0047112D03*
X0148803Y0049300D03*
X0148803Y0038988D03*
X0126928Y0046800D03*
X0106928Y0046800D03*
X0086928Y0042113D03*
X0084428Y0038050D03*
X0064428Y0045237D03*
X0056928Y0041800D03*
X0050678Y0028050D03*
X0029428Y0028050D03*
X0084428Y0026800D03*
X0105991Y0023675D03*
X0134116Y0025862D03*
X0085678Y0060550D03*
X0106928Y0066800D03*
X0126928Y0066800D03*
X0149428Y0066800D03*
X0153491Y0060862D03*
X0176303Y0070550D03*
X0176303Y0076800D03*
X0151928Y0076800D03*
X0098397Y0085863D03*
X0081997Y0077587D03*
X0065678Y0071800D03*
X0060678Y0079300D03*
D15*
X0060678Y0072113D01*
X0065991Y0066800D01*
X0065991Y0046800D01*
X0064428Y0045237D01*
X0074428Y0048050D02*
X0074428Y0094300D01*
X0076303Y0086175D02*
X0084428Y0094300D01*
X0081928Y0088987D02*
X0078178Y0085238D01*
X0078178Y0068050D01*
X0085678Y0060550D01*
X0076303Y0052425D02*
X0076303Y0086175D01*
X0081928Y0088987D02*
X0099116Y0088987D01*
X0104428Y0094300D01*
X0098397Y0085863D02*
X0098444Y0085816D01*
X0100413Y0085816D01*
X0109116Y0077113D01*
X0151616Y0077113D01*
X0151928Y0076800D01*
X0136616Y0061487D01*
X0136616Y0028362D01*
X0134116Y0025862D01*
X0108178Y0025862D01*
X0105991Y0023675D01*
X0084428Y0038050D02*
X0074428Y0048050D01*
X0076303Y0052425D02*
X0080366Y0048362D01*
X0086928Y0042113D01*
X0148803Y0038988D02*
X0148803Y0049300D01*
X0153491Y0060862D02*
X0163178Y0070550D01*
X0176303Y0070550D01*
D16*
X0178672Y0067005D02*
X0179848Y0068182D01*
X0180485Y0069718D01*
X0180485Y0071382D01*
X0179848Y0072918D01*
X0178672Y0074095D01*
X0177135Y0074731D01*
X0175472Y0074731D01*
X0173935Y0074095D01*
X0173390Y0073550D01*
X0162582Y0073550D01*
X0161479Y0073093D01*
X0160635Y0072249D01*
X0153429Y0065044D01*
X0152659Y0065044D01*
X0151123Y0064407D01*
X0149946Y0063231D01*
X0149310Y0061694D01*
X0149310Y0060031D01*
X0149946Y0058494D01*
X0151123Y0057318D01*
X0152659Y0056681D01*
X0154323Y0056681D01*
X0155859Y0057318D01*
X0157036Y0058494D01*
X0157672Y0060031D01*
X0157672Y0060801D01*
X0164421Y0067550D01*
X0173390Y0067550D01*
X0173935Y0067005D01*
X0175472Y0066369D01*
X0177135Y0066369D01*
X0178672Y0067005D01*
X0179414Y0067748D02*
X0190566Y0067748D01*
X0190725Y0068133D02*
X0190060Y0066527D01*
X0190060Y0064789D01*
X0190725Y0063184D01*
X0191954Y0061955D01*
X0193560Y0061290D01*
X0195297Y0061290D01*
X0196903Y0061955D01*
X0198132Y0063184D01*
X0198797Y0064789D01*
X0198797Y0066527D01*
X0198132Y0068133D01*
X0196903Y0069362D01*
X0195297Y0070027D01*
X0193560Y0070027D01*
X0191954Y0069362D01*
X0190725Y0068133D01*
X0191939Y0069346D02*
X0180330Y0069346D01*
X0180485Y0070945D02*
X0202028Y0070945D01*
X0202028Y0072543D02*
X0180003Y0072543D01*
X0178557Y0074142D02*
X0190721Y0074142D01*
X0190727Y0074141D02*
X0194244Y0074141D01*
X0194244Y0079057D01*
X0186028Y0079057D01*
X0186028Y0078840D01*
X0186154Y0078047D01*
X0186402Y0077283D01*
X0186767Y0076568D01*
X0187238Y0075919D01*
X0187806Y0075351D01*
X0188455Y0074879D01*
X0189171Y0074515D01*
X0189934Y0074267D01*
X0190727Y0074141D01*
X0194244Y0074142D02*
X0194613Y0074142D01*
X0194613Y0074141D02*
X0198130Y0074141D01*
X0198923Y0074267D01*
X0199686Y0074515D01*
X0200401Y0074879D01*
X0201051Y0075351D01*
X0201619Y0075919D01*
X0202028Y0076483D01*
X0202028Y0037117D01*
X0201619Y0037681D01*
X0201051Y0038249D01*
X0200401Y0038721D01*
X0199686Y0039085D01*
X0198923Y0039333D01*
X0198130Y0039459D01*
X0194613Y0039459D01*
X0194613Y0034543D01*
X0194244Y0034543D01*
X0194244Y0034175D01*
X0186028Y0034175D01*
X0186028Y0033958D01*
X0186154Y0033165D01*
X0186402Y0032401D01*
X0186767Y0031686D01*
X0187238Y0031037D01*
X0187806Y0030469D01*
X0188455Y0029997D01*
X0189171Y0029633D01*
X0189934Y0029385D01*
X0190727Y0029259D01*
X0194244Y0029259D01*
X0194244Y0034175D01*
X0194613Y0034175D01*
X0194613Y0029259D01*
X0198130Y0029259D01*
X0198923Y0029385D01*
X0199686Y0029633D01*
X0200401Y0029997D01*
X0201051Y0030469D01*
X0201619Y0031037D01*
X0202028Y0031601D01*
X0202028Y0014200D01*
X0026828Y0014200D01*
X0026828Y0099400D01*
X0071977Y0099400D01*
X0071228Y0099090D01*
X0069639Y0097500D01*
X0068778Y0095424D01*
X0068778Y0093176D01*
X0069639Y0091100D01*
X0071228Y0089510D01*
X0071428Y0089427D01*
X0071428Y0047453D01*
X0071885Y0046351D01*
X0072729Y0045507D01*
X0080247Y0037988D01*
X0080247Y0037218D01*
X0080884Y0035682D01*
X0082060Y0034505D01*
X0083597Y0033869D01*
X0085260Y0033869D01*
X0086797Y0034505D01*
X0087973Y0035682D01*
X0088610Y0037218D01*
X0088610Y0038283D01*
X0089297Y0038568D01*
X0090473Y0039744D01*
X0091110Y0041281D01*
X0091110Y0042944D01*
X0090473Y0044481D01*
X0089297Y0045657D01*
X0087760Y0046294D01*
X0086888Y0046294D01*
X0082462Y0050509D01*
X0079303Y0053668D01*
X0079303Y0062682D01*
X0081497Y0060488D01*
X0081497Y0059718D01*
X0082134Y0058182D01*
X0083310Y0057005D01*
X0084847Y0056369D01*
X0086510Y0056369D01*
X0088047Y0057005D01*
X0089223Y0058182D01*
X0089860Y0059718D01*
X0089860Y0061382D01*
X0089223Y0062918D01*
X0088047Y0064095D01*
X0086510Y0064731D01*
X0085740Y0064731D01*
X0081178Y0069293D01*
X0081178Y0083995D01*
X0083171Y0085988D01*
X0094216Y0085988D01*
X0094216Y0085031D01*
X0094853Y0083494D01*
X0096029Y0082318D01*
X0097566Y0081681D01*
X0099229Y0081681D01*
X0099989Y0081996D01*
X0107417Y0074569D01*
X0108519Y0074113D01*
X0144998Y0074113D01*
X0134917Y0064031D01*
X0134917Y0064031D01*
X0134073Y0063187D01*
X0133616Y0062084D01*
X0133616Y0030044D01*
X0133284Y0030044D01*
X0131748Y0029407D01*
X0131203Y0028862D01*
X0107582Y0028862D01*
X0106479Y0028406D01*
X0105929Y0027856D01*
X0105159Y0027856D01*
X0103623Y0027220D01*
X0102446Y0026043D01*
X0101810Y0024507D01*
X0101810Y0022843D01*
X0102446Y0021307D01*
X0103623Y0020130D01*
X0105159Y0019494D01*
X0106823Y0019494D01*
X0108359Y0020130D01*
X0109536Y0021307D01*
X0110172Y0022843D01*
X0110172Y0022862D01*
X0131203Y0022862D01*
X0131748Y0022318D01*
X0133284Y0021681D01*
X0134948Y0021681D01*
X0136484Y0022318D01*
X0137661Y0023494D01*
X0138297Y0025031D01*
X0138297Y0025801D01*
X0138315Y0025819D01*
X0139159Y0026663D01*
X0139616Y0027766D01*
X0139616Y0060245D01*
X0151990Y0072619D01*
X0152760Y0072619D01*
X0154297Y0073255D01*
X0155473Y0074432D01*
X0156110Y0075968D01*
X0156110Y0077632D01*
X0155473Y0079168D01*
X0154297Y0080345D01*
X0152760Y0080981D01*
X0151097Y0080981D01*
X0149560Y0080345D01*
X0149328Y0080112D01*
X0110359Y0080112D01*
X0102956Y0087515D01*
X0102421Y0088050D01*
X0103104Y0088733D01*
X0103305Y0088650D01*
X0105552Y0088650D01*
X0107629Y0089510D01*
X0109218Y0091100D01*
X0109428Y0091607D01*
X0109639Y0091100D01*
X0111228Y0089510D01*
X0113305Y0088650D01*
X0115552Y0088650D01*
X0117629Y0089510D01*
X0119218Y0091100D01*
X0119745Y0092372D01*
X0119748Y0092361D01*
X0120109Y0091653D01*
X0120577Y0091010D01*
X0121139Y0090448D01*
X0121782Y0089981D01*
X0122490Y0089620D01*
X0123246Y0089374D01*
X0124031Y0089250D01*
X0124353Y0089250D01*
X0124353Y0094225D01*
X0124503Y0094225D01*
X0124503Y0089250D01*
X0124826Y0089250D01*
X0125611Y0089374D01*
X0126367Y0089620D01*
X0127075Y0089981D01*
X0127718Y0090448D01*
X0128280Y0091010D01*
X0128748Y0091653D01*
X0128778Y0091714D01*
X0128778Y0090573D01*
X0129144Y0089691D01*
X0129819Y0089015D01*
X0130701Y0088650D01*
X0138156Y0088650D01*
X0139038Y0089015D01*
X0139713Y0089691D01*
X0140078Y0090573D01*
X0140078Y0098027D01*
X0139713Y0098909D01*
X0139223Y0099400D01*
X0202028Y0099400D01*
X0202028Y0081999D01*
X0201619Y0082563D01*
X0201051Y0083131D01*
X0200401Y0083603D01*
X0199686Y0083967D01*
X0198923Y0084215D01*
X0198130Y0084341D01*
X0194613Y0084341D01*
X0194613Y0079425D01*
X0194244Y0079425D01*
X0194244Y0079057D01*
X0194613Y0079057D01*
X0194613Y0074141D01*
X0198136Y0074142D02*
X0202028Y0074142D01*
X0202028Y0075740D02*
X0201440Y0075740D01*
X0194613Y0075740D02*
X0194244Y0075740D01*
X0194244Y0077339D02*
X0194613Y0077339D01*
X0194613Y0078937D02*
X0194244Y0078937D01*
X0194244Y0079425D02*
X0186028Y0079425D01*
X0186028Y0079642D01*
X0186154Y0080435D01*
X0186402Y0081199D01*
X0186767Y0081914D01*
X0187238Y0082563D01*
X0187806Y0083131D01*
X0188455Y0083603D01*
X0189171Y0083967D01*
X0189934Y0084215D01*
X0190727Y0084341D01*
X0194244Y0084341D01*
X0194244Y0079425D01*
X0194244Y0080536D02*
X0194613Y0080536D01*
X0194613Y0082134D02*
X0194244Y0082134D01*
X0194244Y0083733D02*
X0194613Y0083733D01*
X0200146Y0083733D02*
X0202028Y0083733D01*
X0202028Y0082134D02*
X0201930Y0082134D01*
X0202028Y0085332D02*
X0105140Y0085332D01*
X0103541Y0086930D02*
X0202028Y0086930D01*
X0202028Y0088529D02*
X0102900Y0088529D01*
X0108246Y0090127D02*
X0110611Y0090127D01*
X0118246Y0090127D02*
X0121580Y0090127D01*
X0120072Y0091726D02*
X0119478Y0091726D01*
X0124353Y0091726D02*
X0124503Y0091726D01*
X0124503Y0093324D02*
X0124353Y0093324D01*
X0124353Y0094375D02*
X0124353Y0099350D01*
X0124031Y0099350D01*
X0123246Y0099226D01*
X0122490Y0098980D01*
X0121782Y0098619D01*
X0121139Y0098152D01*
X0120577Y0097590D01*
X0120109Y0096947D01*
X0119748Y0096239D01*
X0119745Y0096228D01*
X0119218Y0097500D01*
X0117629Y0099090D01*
X0116880Y0099400D01*
X0129634Y0099400D01*
X0129144Y0098909D01*
X0128778Y0098027D01*
X0128778Y0096886D01*
X0128748Y0096947D01*
X0128280Y0097590D01*
X0127718Y0098152D01*
X0127075Y0098619D01*
X0126367Y0098980D01*
X0125611Y0099226D01*
X0124826Y0099350D01*
X0124503Y0099350D01*
X0124503Y0094375D01*
X0124353Y0094375D01*
X0124353Y0094923D02*
X0124503Y0094923D01*
X0124503Y0096521D02*
X0124353Y0096521D01*
X0124353Y0098120D02*
X0124503Y0098120D01*
X0121106Y0098120D02*
X0118599Y0098120D01*
X0119624Y0096521D02*
X0119892Y0096521D01*
X0127751Y0098120D02*
X0128817Y0098120D01*
X0140040Y0098120D02*
X0202028Y0098120D01*
X0202028Y0096521D02*
X0140078Y0096521D01*
X0140078Y0094923D02*
X0202028Y0094923D01*
X0202028Y0093324D02*
X0140078Y0093324D01*
X0140078Y0091726D02*
X0202028Y0091726D01*
X0202028Y0090127D02*
X0139894Y0090127D01*
X0128963Y0090127D02*
X0127276Y0090127D01*
X0124503Y0090127D02*
X0124353Y0090127D01*
X0108337Y0082134D02*
X0186927Y0082134D01*
X0188711Y0083733D02*
X0106738Y0083733D01*
X0109935Y0080536D02*
X0150022Y0080536D01*
X0153835Y0080536D02*
X0186187Y0080536D01*
X0186028Y0078937D02*
X0155569Y0078937D01*
X0156110Y0077339D02*
X0186384Y0077339D01*
X0187416Y0075740D02*
X0156015Y0075740D01*
X0155183Y0074142D02*
X0174049Y0074142D01*
X0160929Y0072543D02*
X0151915Y0072543D01*
X0150316Y0070945D02*
X0159331Y0070945D01*
X0160635Y0072249D02*
X0160635Y0072249D01*
X0157732Y0069346D02*
X0148718Y0069346D01*
X0147119Y0067748D02*
X0156134Y0067748D01*
X0154535Y0066149D02*
X0145520Y0066149D01*
X0143922Y0064551D02*
X0151470Y0064551D01*
X0149831Y0062952D02*
X0142323Y0062952D01*
X0140725Y0061354D02*
X0149310Y0061354D01*
X0149424Y0059755D02*
X0139616Y0059755D01*
X0139616Y0058157D02*
X0150284Y0058157D01*
X0156698Y0058157D02*
X0202028Y0058157D01*
X0202028Y0059755D02*
X0157558Y0059755D01*
X0158225Y0061354D02*
X0193405Y0061354D01*
X0195452Y0061354D02*
X0202028Y0061354D01*
X0202028Y0062952D02*
X0197901Y0062952D01*
X0198698Y0064551D02*
X0202028Y0064551D01*
X0202028Y0066149D02*
X0198797Y0066149D01*
X0198291Y0067748D02*
X0202028Y0067748D01*
X0202028Y0069346D02*
X0196918Y0069346D01*
X0190060Y0066149D02*
X0163020Y0066149D01*
X0161422Y0064551D02*
X0190159Y0064551D01*
X0190956Y0062952D02*
X0159823Y0062952D01*
X0151172Y0052845D02*
X0149635Y0053481D01*
X0147972Y0053481D01*
X0146435Y0052845D01*
X0145259Y0051668D01*
X0144622Y0050132D01*
X0144622Y0048468D01*
X0145259Y0046932D01*
X0145803Y0046387D01*
X0145803Y0041900D01*
X0145259Y0041356D01*
X0144622Y0039819D01*
X0144622Y0038156D01*
X0145259Y0036619D01*
X0146435Y0035443D01*
X0147972Y0034806D01*
X0149635Y0034806D01*
X0151172Y0035443D01*
X0152348Y0036619D01*
X0152985Y0038156D01*
X0152985Y0039819D01*
X0152348Y0041356D01*
X0151803Y0041900D01*
X0151803Y0046387D01*
X0152348Y0046932D01*
X0152985Y0048468D01*
X0152985Y0050132D01*
X0152348Y0051668D01*
X0151172Y0052845D01*
X0149924Y0053361D02*
X0202028Y0053361D01*
X0202028Y0051763D02*
X0196619Y0051763D01*
X0196903Y0051645D02*
X0195297Y0052310D01*
X0193560Y0052310D01*
X0191954Y0051645D01*
X0190725Y0050416D01*
X0190060Y0048811D01*
X0190060Y0047073D01*
X0190725Y0045467D01*
X0191954Y0044238D01*
X0193560Y0043573D01*
X0195297Y0043573D01*
X0196903Y0044238D01*
X0198132Y0045467D01*
X0198797Y0047073D01*
X0198797Y0048811D01*
X0198132Y0050416D01*
X0196903Y0051645D01*
X0198236Y0050164D02*
X0202028Y0050164D01*
X0202028Y0048566D02*
X0198797Y0048566D01*
X0198753Y0046967D02*
X0202028Y0046967D01*
X0202028Y0045369D02*
X0198033Y0045369D01*
X0195773Y0043770D02*
X0202028Y0043770D01*
X0202028Y0042172D02*
X0151803Y0042172D01*
X0151803Y0043770D02*
X0193084Y0043770D01*
X0190823Y0045369D02*
X0151803Y0045369D01*
X0152363Y0046967D02*
X0190104Y0046967D01*
X0190060Y0048566D02*
X0152985Y0048566D01*
X0152971Y0050164D02*
X0190621Y0050164D01*
X0192238Y0051763D02*
X0152254Y0051763D01*
X0147683Y0053361D02*
X0139616Y0053361D01*
X0139616Y0051763D02*
X0145353Y0051763D01*
X0144636Y0050164D02*
X0139616Y0050164D01*
X0139616Y0048566D02*
X0144622Y0048566D01*
X0145244Y0046967D02*
X0139616Y0046967D01*
X0139616Y0045369D02*
X0145803Y0045369D01*
X0145803Y0043770D02*
X0139616Y0043770D01*
X0139616Y0042172D02*
X0145803Y0042172D01*
X0144935Y0040573D02*
X0139616Y0040573D01*
X0139616Y0038975D02*
X0144622Y0038975D01*
X0144945Y0037376D02*
X0139616Y0037376D01*
X0139616Y0035778D02*
X0146100Y0035778D01*
X0151507Y0035778D02*
X0186227Y0035778D01*
X0186154Y0035553D02*
X0186028Y0034760D01*
X0186028Y0034543D01*
X0194244Y0034543D01*
X0194244Y0039459D01*
X0190727Y0039459D01*
X0189934Y0039333D01*
X0189171Y0039085D01*
X0188455Y0038721D01*
X0187806Y0038249D01*
X0187238Y0037681D01*
X0186767Y0037032D01*
X0186402Y0036317D01*
X0186154Y0035553D01*
X0187017Y0037376D02*
X0152662Y0037376D01*
X0152985Y0038975D02*
X0188953Y0038975D01*
X0194244Y0038975D02*
X0194613Y0038975D01*
X0194613Y0037376D02*
X0194244Y0037376D01*
X0194244Y0035778D02*
X0194613Y0035778D01*
X0194244Y0034179D02*
X0139616Y0034179D01*
X0139616Y0032581D02*
X0186344Y0032581D01*
X0187293Y0030982D02*
X0139616Y0030982D01*
X0139616Y0029384D02*
X0189941Y0029384D01*
X0194244Y0029384D02*
X0194613Y0029384D01*
X0194613Y0030982D02*
X0194244Y0030982D01*
X0194244Y0032581D02*
X0194613Y0032581D01*
X0198916Y0029384D02*
X0202028Y0029384D01*
X0202028Y0030982D02*
X0201564Y0030982D01*
X0202028Y0027785D02*
X0139616Y0027785D01*
X0138683Y0026187D02*
X0202028Y0026187D01*
X0202028Y0024588D02*
X0138114Y0024588D01*
X0137156Y0022990D02*
X0202028Y0022990D01*
X0202028Y0021391D02*
X0109571Y0021391D01*
X0107544Y0019793D02*
X0202028Y0019793D01*
X0202028Y0018194D02*
X0026828Y0018194D01*
X0026828Y0016596D02*
X0202028Y0016596D01*
X0202028Y0014997D02*
X0026828Y0014997D01*
X0026828Y0019793D02*
X0104438Y0019793D01*
X0102411Y0021391D02*
X0026828Y0021391D01*
X0026828Y0022990D02*
X0101810Y0022990D01*
X0101844Y0024588D02*
X0026828Y0024588D01*
X0026828Y0026187D02*
X0102590Y0026187D01*
X0104988Y0027785D02*
X0026828Y0027785D01*
X0026828Y0029384D02*
X0131724Y0029384D01*
X0133616Y0030982D02*
X0026828Y0030982D01*
X0026828Y0032581D02*
X0133616Y0032581D01*
X0133616Y0034179D02*
X0086009Y0034179D01*
X0088013Y0035778D02*
X0133616Y0035778D01*
X0133616Y0037376D02*
X0088610Y0037376D01*
X0089704Y0038975D02*
X0133616Y0038975D01*
X0133616Y0040573D02*
X0090816Y0040573D01*
X0091110Y0042172D02*
X0133616Y0042172D01*
X0133616Y0043770D02*
X0090767Y0043770D01*
X0089585Y0045369D02*
X0133616Y0045369D01*
X0133616Y0046967D02*
X0086181Y0046967D01*
X0084503Y0048566D02*
X0133616Y0048566D01*
X0133616Y0050164D02*
X0082824Y0050164D01*
X0081208Y0051763D02*
X0133616Y0051763D01*
X0133616Y0053361D02*
X0079610Y0053361D01*
X0079303Y0054960D02*
X0133616Y0054960D01*
X0133616Y0056558D02*
X0086967Y0056558D01*
X0084389Y0056558D02*
X0079303Y0056558D01*
X0079303Y0058157D02*
X0082159Y0058157D01*
X0081497Y0059755D02*
X0079303Y0059755D01*
X0079303Y0061354D02*
X0080632Y0061354D01*
X0086945Y0064551D02*
X0135437Y0064551D01*
X0137035Y0066149D02*
X0084322Y0066149D01*
X0082723Y0067748D02*
X0138634Y0067748D01*
X0140232Y0069346D02*
X0081178Y0069346D01*
X0081178Y0070945D02*
X0141831Y0070945D01*
X0143429Y0072543D02*
X0081178Y0072543D01*
X0081178Y0074142D02*
X0108448Y0074142D01*
X0106245Y0075740D02*
X0081178Y0075740D01*
X0081178Y0077339D02*
X0104647Y0077339D01*
X0103048Y0078937D02*
X0081178Y0078937D01*
X0081178Y0080536D02*
X0101450Y0080536D01*
X0096472Y0082134D02*
X0081178Y0082134D01*
X0081178Y0083733D02*
X0094754Y0083733D01*
X0094216Y0085332D02*
X0082515Y0085332D01*
X0071428Y0085332D02*
X0026828Y0085332D01*
X0026828Y0086930D02*
X0071428Y0086930D01*
X0071428Y0088529D02*
X0026828Y0088529D01*
X0026828Y0090127D02*
X0070611Y0090127D01*
X0069379Y0091726D02*
X0026828Y0091726D01*
X0026828Y0093324D02*
X0068778Y0093324D01*
X0068778Y0094923D02*
X0026828Y0094923D01*
X0026828Y0096521D02*
X0069233Y0096521D01*
X0070258Y0098120D02*
X0026828Y0098120D01*
X0026828Y0083733D02*
X0071428Y0083733D01*
X0071428Y0082134D02*
X0063757Y0082134D01*
X0064223Y0081668D02*
X0063047Y0082845D01*
X0061510Y0083481D01*
X0059847Y0083481D01*
X0058310Y0082845D01*
X0057134Y0081668D01*
X0056497Y0080132D01*
X0056497Y0078468D01*
X0057134Y0076932D01*
X0057678Y0076387D01*
X0057678Y0071516D01*
X0058135Y0070413D01*
X0058979Y0069569D01*
X0062991Y0065557D01*
X0062991Y0049168D01*
X0062060Y0048782D01*
X0060884Y0047606D01*
X0060247Y0046069D01*
X0060247Y0044406D01*
X0060884Y0042869D01*
X0062060Y0041693D01*
X0063597Y0041056D01*
X0065260Y0041056D01*
X0066797Y0041693D01*
X0067973Y0042869D01*
X0068610Y0044406D01*
X0068610Y0045282D01*
X0068991Y0046203D01*
X0068991Y0067397D01*
X0068534Y0068499D01*
X0063678Y0073355D01*
X0063678Y0076387D01*
X0064223Y0076932D01*
X0064860Y0078468D01*
X0064860Y0080132D01*
X0064223Y0081668D01*
X0064692Y0080536D02*
X0071428Y0080536D01*
X0071428Y0078937D02*
X0064860Y0078937D01*
X0064392Y0077339D02*
X0071428Y0077339D01*
X0071428Y0075740D02*
X0063678Y0075740D01*
X0063678Y0074142D02*
X0071428Y0074142D01*
X0071428Y0072543D02*
X0064490Y0072543D01*
X0066089Y0070945D02*
X0071428Y0070945D01*
X0071428Y0069346D02*
X0067687Y0069346D01*
X0068846Y0067748D02*
X0071428Y0067748D01*
X0071428Y0066149D02*
X0068991Y0066149D01*
X0068991Y0064551D02*
X0071428Y0064551D01*
X0071428Y0062952D02*
X0068991Y0062952D01*
X0068991Y0061354D02*
X0071428Y0061354D01*
X0071428Y0059755D02*
X0068991Y0059755D01*
X0068991Y0058157D02*
X0071428Y0058157D01*
X0071428Y0056558D02*
X0068991Y0056558D01*
X0068991Y0054960D02*
X0071428Y0054960D01*
X0071428Y0053361D02*
X0068991Y0053361D01*
X0068991Y0051763D02*
X0071428Y0051763D01*
X0071428Y0050164D02*
X0068991Y0050164D01*
X0068991Y0048566D02*
X0071428Y0048566D01*
X0071630Y0046967D02*
X0068991Y0046967D01*
X0068645Y0045369D02*
X0072867Y0045369D01*
X0074466Y0043770D02*
X0068346Y0043770D01*
X0067276Y0042172D02*
X0076064Y0042172D01*
X0077663Y0040573D02*
X0026828Y0040573D01*
X0026828Y0042172D02*
X0061581Y0042172D01*
X0060511Y0043770D02*
X0026828Y0043770D01*
X0026828Y0045369D02*
X0060247Y0045369D01*
X0060619Y0046967D02*
X0026828Y0046967D01*
X0026828Y0048566D02*
X0061844Y0048566D01*
X0062991Y0050164D02*
X0026828Y0050164D01*
X0026828Y0051763D02*
X0062991Y0051763D01*
X0062991Y0053361D02*
X0026828Y0053361D01*
X0026828Y0054960D02*
X0062991Y0054960D01*
X0062991Y0056558D02*
X0026828Y0056558D01*
X0026828Y0058157D02*
X0062991Y0058157D01*
X0062991Y0059755D02*
X0026828Y0059755D01*
X0026828Y0061354D02*
X0062991Y0061354D01*
X0062991Y0062952D02*
X0026828Y0062952D01*
X0026828Y0064551D02*
X0062991Y0064551D01*
X0062399Y0066149D02*
X0026828Y0066149D01*
X0026828Y0067748D02*
X0060800Y0067748D01*
X0059202Y0069346D02*
X0026828Y0069346D01*
X0026828Y0070945D02*
X0057915Y0070945D01*
X0057678Y0072543D02*
X0026828Y0072543D01*
X0026828Y0074142D02*
X0057678Y0074142D01*
X0057678Y0075740D02*
X0026828Y0075740D01*
X0026828Y0077339D02*
X0056965Y0077339D01*
X0056497Y0078937D02*
X0026828Y0078937D01*
X0026828Y0080536D02*
X0056665Y0080536D01*
X0057600Y0082134D02*
X0026828Y0082134D01*
X0089189Y0062952D02*
X0133976Y0062952D01*
X0133616Y0061354D02*
X0089860Y0061354D01*
X0089860Y0059755D02*
X0133616Y0059755D01*
X0133616Y0058157D02*
X0089198Y0058157D01*
X0079261Y0038975D02*
X0026828Y0038975D01*
X0026828Y0037376D02*
X0080247Y0037376D01*
X0080844Y0035778D02*
X0026828Y0035778D01*
X0026828Y0034179D02*
X0082848Y0034179D01*
X0139616Y0054960D02*
X0202028Y0054960D01*
X0202028Y0056558D02*
X0139616Y0056558D01*
X0152672Y0040573D02*
X0202028Y0040573D01*
X0202028Y0038975D02*
X0199903Y0038975D01*
X0201840Y0037376D02*
X0202028Y0037376D01*
M02*
