%
M48
M72
T01C0.02362
T02C0.03500
T03C0.03937
%
T01
X82553Y89300
X95747Y85712
X106616Y87112
X96303Y97112
X135366Y84300
X135366Y79613
X134116Y73988
X133491Y66175
X124428Y64300
X109428Y64300
X100366Y68363
X106616Y72738
X85678Y53987
X87241Y42113
X88491Y37425
X93803Y36800
X108178Y39613
X109428Y49300
X124428Y49300
X129741Y39613
X148803Y38988
X159428Y40863
X170678Y40863
X175053Y31800
X150053Y26487
X119428Y19300
X107866Y22425
X107866Y26800
X81928Y28050
X65678Y29612
X50678Y28050
X65678Y21175
X29428Y28050
X65678Y39300
X41928Y68050
X148803Y49300
X151928Y57112
X165366Y74613
T02
X184428Y94300
X174428Y94300
X164428Y94300
X154428Y94300
X144428Y94300
X134428Y94300
X124428Y94300
T03
X194428Y79241
X194428Y65658
X194428Y47942
X194428Y34359
M30
