G75*
%MOIN*%
%OFA0B0*%
%FSLAX25Y25*%
%IPPOS*%
%LPD*%
%AMOC8*
5,1,8,0,0,1.08239X$1,22.5*
%
%ADD10C,0.00000*%
%ADD11R,0.06299X0.01181*%
%ADD12R,0.01181X0.06299*%
%ADD13R,0.04331X0.01772*%
%ADD14R,0.06299X0.09843*%
%ADD15R,0.04252X0.04134*%
%ADD16R,0.04134X0.04252*%
%ADD17R,0.06299X0.07087*%
%ADD18R,0.03937X0.04331*%
%ADD19R,0.07480X0.05906*%
%ADD20R,0.04331X0.03937*%
%ADD21R,0.02559X0.04134*%
%ADD22R,0.04724X0.02362*%
%ADD23R,0.06500X0.06500*%
%ADD24C,0.06500*%
%ADD25C,0.06600*%
%ADD26R,0.07874X0.04724*%
%ADD27R,0.03150X0.03150*%
%ADD28R,0.10630X0.08661*%
%ADD29C,0.01200*%
%ADD30C,0.03562*%
D10*
X0024428Y0011800D02*
X0024428Y0101800D01*
X0204428Y0101800D01*
X0204428Y0011800D01*
X0024428Y0011800D01*
X0192459Y0047942D02*
X0192461Y0048030D01*
X0192467Y0048118D01*
X0192477Y0048206D01*
X0192491Y0048294D01*
X0192508Y0048380D01*
X0192530Y0048466D01*
X0192555Y0048550D01*
X0192585Y0048634D01*
X0192617Y0048716D01*
X0192654Y0048796D01*
X0192694Y0048875D01*
X0192738Y0048952D01*
X0192785Y0049027D01*
X0192835Y0049099D01*
X0192889Y0049170D01*
X0192945Y0049237D01*
X0193005Y0049303D01*
X0193067Y0049365D01*
X0193133Y0049425D01*
X0193200Y0049481D01*
X0193271Y0049535D01*
X0193343Y0049585D01*
X0193418Y0049632D01*
X0193495Y0049676D01*
X0193574Y0049716D01*
X0193654Y0049753D01*
X0193736Y0049785D01*
X0193820Y0049815D01*
X0193904Y0049840D01*
X0193990Y0049862D01*
X0194076Y0049879D01*
X0194164Y0049893D01*
X0194252Y0049903D01*
X0194340Y0049909D01*
X0194428Y0049911D01*
X0194516Y0049909D01*
X0194604Y0049903D01*
X0194692Y0049893D01*
X0194780Y0049879D01*
X0194866Y0049862D01*
X0194952Y0049840D01*
X0195036Y0049815D01*
X0195120Y0049785D01*
X0195202Y0049753D01*
X0195282Y0049716D01*
X0195361Y0049676D01*
X0195438Y0049632D01*
X0195513Y0049585D01*
X0195585Y0049535D01*
X0195656Y0049481D01*
X0195723Y0049425D01*
X0195789Y0049365D01*
X0195851Y0049303D01*
X0195911Y0049237D01*
X0195967Y0049170D01*
X0196021Y0049099D01*
X0196071Y0049027D01*
X0196118Y0048952D01*
X0196162Y0048875D01*
X0196202Y0048796D01*
X0196239Y0048716D01*
X0196271Y0048634D01*
X0196301Y0048550D01*
X0196326Y0048466D01*
X0196348Y0048380D01*
X0196365Y0048294D01*
X0196379Y0048206D01*
X0196389Y0048118D01*
X0196395Y0048030D01*
X0196397Y0047942D01*
X0196395Y0047854D01*
X0196389Y0047766D01*
X0196379Y0047678D01*
X0196365Y0047590D01*
X0196348Y0047504D01*
X0196326Y0047418D01*
X0196301Y0047334D01*
X0196271Y0047250D01*
X0196239Y0047168D01*
X0196202Y0047088D01*
X0196162Y0047009D01*
X0196118Y0046932D01*
X0196071Y0046857D01*
X0196021Y0046785D01*
X0195967Y0046714D01*
X0195911Y0046647D01*
X0195851Y0046581D01*
X0195789Y0046519D01*
X0195723Y0046459D01*
X0195656Y0046403D01*
X0195585Y0046349D01*
X0195513Y0046299D01*
X0195438Y0046252D01*
X0195361Y0046208D01*
X0195282Y0046168D01*
X0195202Y0046131D01*
X0195120Y0046099D01*
X0195036Y0046069D01*
X0194952Y0046044D01*
X0194866Y0046022D01*
X0194780Y0046005D01*
X0194692Y0045991D01*
X0194604Y0045981D01*
X0194516Y0045975D01*
X0194428Y0045973D01*
X0194340Y0045975D01*
X0194252Y0045981D01*
X0194164Y0045991D01*
X0194076Y0046005D01*
X0193990Y0046022D01*
X0193904Y0046044D01*
X0193820Y0046069D01*
X0193736Y0046099D01*
X0193654Y0046131D01*
X0193574Y0046168D01*
X0193495Y0046208D01*
X0193418Y0046252D01*
X0193343Y0046299D01*
X0193271Y0046349D01*
X0193200Y0046403D01*
X0193133Y0046459D01*
X0193067Y0046519D01*
X0193005Y0046581D01*
X0192945Y0046647D01*
X0192889Y0046714D01*
X0192835Y0046785D01*
X0192785Y0046857D01*
X0192738Y0046932D01*
X0192694Y0047009D01*
X0192654Y0047088D01*
X0192617Y0047168D01*
X0192585Y0047250D01*
X0192555Y0047334D01*
X0192530Y0047418D01*
X0192508Y0047504D01*
X0192491Y0047590D01*
X0192477Y0047678D01*
X0192467Y0047766D01*
X0192461Y0047854D01*
X0192459Y0047942D01*
X0192459Y0065658D02*
X0192461Y0065746D01*
X0192467Y0065834D01*
X0192477Y0065922D01*
X0192491Y0066010D01*
X0192508Y0066096D01*
X0192530Y0066182D01*
X0192555Y0066266D01*
X0192585Y0066350D01*
X0192617Y0066432D01*
X0192654Y0066512D01*
X0192694Y0066591D01*
X0192738Y0066668D01*
X0192785Y0066743D01*
X0192835Y0066815D01*
X0192889Y0066886D01*
X0192945Y0066953D01*
X0193005Y0067019D01*
X0193067Y0067081D01*
X0193133Y0067141D01*
X0193200Y0067197D01*
X0193271Y0067251D01*
X0193343Y0067301D01*
X0193418Y0067348D01*
X0193495Y0067392D01*
X0193574Y0067432D01*
X0193654Y0067469D01*
X0193736Y0067501D01*
X0193820Y0067531D01*
X0193904Y0067556D01*
X0193990Y0067578D01*
X0194076Y0067595D01*
X0194164Y0067609D01*
X0194252Y0067619D01*
X0194340Y0067625D01*
X0194428Y0067627D01*
X0194516Y0067625D01*
X0194604Y0067619D01*
X0194692Y0067609D01*
X0194780Y0067595D01*
X0194866Y0067578D01*
X0194952Y0067556D01*
X0195036Y0067531D01*
X0195120Y0067501D01*
X0195202Y0067469D01*
X0195282Y0067432D01*
X0195361Y0067392D01*
X0195438Y0067348D01*
X0195513Y0067301D01*
X0195585Y0067251D01*
X0195656Y0067197D01*
X0195723Y0067141D01*
X0195789Y0067081D01*
X0195851Y0067019D01*
X0195911Y0066953D01*
X0195967Y0066886D01*
X0196021Y0066815D01*
X0196071Y0066743D01*
X0196118Y0066668D01*
X0196162Y0066591D01*
X0196202Y0066512D01*
X0196239Y0066432D01*
X0196271Y0066350D01*
X0196301Y0066266D01*
X0196326Y0066182D01*
X0196348Y0066096D01*
X0196365Y0066010D01*
X0196379Y0065922D01*
X0196389Y0065834D01*
X0196395Y0065746D01*
X0196397Y0065658D01*
X0196395Y0065570D01*
X0196389Y0065482D01*
X0196379Y0065394D01*
X0196365Y0065306D01*
X0196348Y0065220D01*
X0196326Y0065134D01*
X0196301Y0065050D01*
X0196271Y0064966D01*
X0196239Y0064884D01*
X0196202Y0064804D01*
X0196162Y0064725D01*
X0196118Y0064648D01*
X0196071Y0064573D01*
X0196021Y0064501D01*
X0195967Y0064430D01*
X0195911Y0064363D01*
X0195851Y0064297D01*
X0195789Y0064235D01*
X0195723Y0064175D01*
X0195656Y0064119D01*
X0195585Y0064065D01*
X0195513Y0064015D01*
X0195438Y0063968D01*
X0195361Y0063924D01*
X0195282Y0063884D01*
X0195202Y0063847D01*
X0195120Y0063815D01*
X0195036Y0063785D01*
X0194952Y0063760D01*
X0194866Y0063738D01*
X0194780Y0063721D01*
X0194692Y0063707D01*
X0194604Y0063697D01*
X0194516Y0063691D01*
X0194428Y0063689D01*
X0194340Y0063691D01*
X0194252Y0063697D01*
X0194164Y0063707D01*
X0194076Y0063721D01*
X0193990Y0063738D01*
X0193904Y0063760D01*
X0193820Y0063785D01*
X0193736Y0063815D01*
X0193654Y0063847D01*
X0193574Y0063884D01*
X0193495Y0063924D01*
X0193418Y0063968D01*
X0193343Y0064015D01*
X0193271Y0064065D01*
X0193200Y0064119D01*
X0193133Y0064175D01*
X0193067Y0064235D01*
X0193005Y0064297D01*
X0192945Y0064363D01*
X0192889Y0064430D01*
X0192835Y0064501D01*
X0192785Y0064573D01*
X0192738Y0064648D01*
X0192694Y0064725D01*
X0192654Y0064804D01*
X0192617Y0064884D01*
X0192585Y0064966D01*
X0192555Y0065050D01*
X0192530Y0065134D01*
X0192508Y0065220D01*
X0192491Y0065306D01*
X0192477Y0065394D01*
X0192467Y0065482D01*
X0192461Y0065570D01*
X0192459Y0065658D01*
D11*
X0140354Y0065658D03*
X0140354Y0067627D03*
X0140354Y0069595D03*
X0140354Y0071564D03*
X0140354Y0063690D03*
X0140354Y0061721D03*
X0140354Y0059753D03*
X0140354Y0057784D03*
X0140354Y0055816D03*
X0140354Y0053847D03*
X0140354Y0051879D03*
X0140354Y0049910D03*
X0140354Y0047942D03*
X0140354Y0045973D03*
X0140354Y0044005D03*
X0140354Y0042036D03*
X0093503Y0042036D03*
X0093503Y0044005D03*
X0093503Y0045973D03*
X0093503Y0047942D03*
X0093503Y0049910D03*
X0093503Y0051879D03*
X0093503Y0053847D03*
X0093503Y0055816D03*
X0093503Y0057784D03*
X0093503Y0059753D03*
X0093503Y0061721D03*
X0093503Y0063690D03*
X0093503Y0065658D03*
X0093503Y0067627D03*
X0093503Y0069595D03*
X0093503Y0071564D03*
D12*
X0102165Y0080225D03*
X0104133Y0080225D03*
X0106102Y0080225D03*
X0108070Y0080225D03*
X0110039Y0080225D03*
X0112007Y0080225D03*
X0113976Y0080225D03*
X0115944Y0080225D03*
X0117913Y0080225D03*
X0119881Y0080225D03*
X0121850Y0080225D03*
X0123818Y0080225D03*
X0125787Y0080225D03*
X0127755Y0080225D03*
X0129724Y0080225D03*
X0131692Y0080225D03*
X0131692Y0033375D03*
X0129724Y0033375D03*
X0127755Y0033375D03*
X0125787Y0033375D03*
X0123818Y0033375D03*
X0121850Y0033375D03*
X0119881Y0033375D03*
X0117913Y0033375D03*
X0115944Y0033375D03*
X0113976Y0033375D03*
X0112007Y0033375D03*
X0110039Y0033375D03*
X0108070Y0033375D03*
X0106102Y0033375D03*
X0104133Y0033375D03*
X0102165Y0033375D03*
D13*
X0158129Y0063060D03*
X0158129Y0066800D03*
X0158129Y0070540D03*
X0170728Y0070540D03*
X0170728Y0066800D03*
X0170728Y0063060D03*
D14*
X0164428Y0066800D03*
D15*
X0159428Y0052745D03*
X0170678Y0052745D03*
X0170678Y0045855D03*
X0159428Y0045855D03*
X0084428Y0075855D03*
X0084428Y0082745D03*
X0101928Y0090855D03*
X0101928Y0097745D03*
D16*
X0060373Y0094300D03*
X0053484Y0094300D03*
X0053484Y0084300D03*
X0060373Y0084300D03*
X0060373Y0074300D03*
X0053484Y0074300D03*
X0053484Y0064300D03*
X0060373Y0064300D03*
X0060373Y0054300D03*
X0053484Y0054300D03*
X0053484Y0044300D03*
X0060373Y0044300D03*
X0070984Y0034300D03*
X0077873Y0034300D03*
X0088484Y0021800D03*
X0095373Y0021800D03*
X0138484Y0031800D03*
X0145373Y0031800D03*
X0160984Y0019300D03*
X0167873Y0019300D03*
X0165373Y0079300D03*
X0158484Y0079300D03*
X0150373Y0079300D03*
X0143484Y0079300D03*
X0173484Y0079300D03*
X0180373Y0079300D03*
D17*
X0147440Y0019300D03*
X0136417Y0019300D03*
D18*
X0095275Y0031800D03*
X0088582Y0031800D03*
X0077775Y0021800D03*
X0071082Y0021800D03*
X0060275Y0021800D03*
X0053582Y0021800D03*
X0053582Y0034300D03*
X0060275Y0034300D03*
X0068582Y0094300D03*
X0075275Y0094300D03*
D19*
X0071928Y0085009D03*
X0071928Y0073591D03*
D20*
X0089428Y0090954D03*
X0089428Y0097646D03*
X0111928Y0097646D03*
X0111928Y0090954D03*
D21*
X0043661Y0092469D03*
X0035196Y0092469D03*
X0035196Y0076131D03*
X0043661Y0076131D03*
X0043661Y0062469D03*
X0035196Y0062469D03*
X0035196Y0046131D03*
X0043661Y0046131D03*
D22*
X0159901Y0035540D03*
X0159901Y0031800D03*
X0159901Y0028060D03*
X0168956Y0028060D03*
X0168956Y0031800D03*
X0168956Y0035540D03*
D23*
X0124428Y0094300D03*
D24*
X0134428Y0094300D03*
X0144428Y0094300D03*
X0154428Y0094300D03*
X0164428Y0094300D03*
X0174428Y0094300D03*
X0184428Y0094300D03*
D25*
X0191128Y0079241D02*
X0197728Y0079241D01*
X0197728Y0034359D02*
X0191128Y0034359D01*
D26*
X0184192Y0043020D03*
X0184192Y0052863D03*
X0184192Y0060737D03*
X0184192Y0070580D03*
D27*
X0042381Y0034300D03*
X0036476Y0034300D03*
X0036476Y0021800D03*
X0042381Y0021800D03*
D28*
X0071928Y0048788D03*
X0071928Y0059812D03*
D29*
X0065885Y0059812D01*
X0060373Y0054300D01*
X0055722Y0058026D02*
X0053917Y0058026D01*
X0053917Y0054734D01*
X0053050Y0054734D01*
X0053050Y0058026D01*
X0051206Y0058026D01*
X0050799Y0057917D01*
X0050434Y0057706D01*
X0050136Y0057408D01*
X0049926Y0057044D01*
X0049817Y0056637D01*
X0049817Y0054733D01*
X0053050Y0054733D01*
X0053050Y0053867D01*
X0049817Y0053867D01*
X0049817Y0051963D01*
X0049926Y0051556D01*
X0050136Y0051192D01*
X0050434Y0050894D01*
X0050799Y0050683D01*
X0051206Y0050574D01*
X0053050Y0050574D01*
X0053050Y0053866D01*
X0053917Y0053866D01*
X0053917Y0050574D01*
X0055722Y0050574D01*
X0055763Y0050475D01*
X0056607Y0049631D01*
X0057406Y0049300D01*
X0056607Y0048969D01*
X0055763Y0048125D01*
X0055722Y0048026D01*
X0053917Y0048026D01*
X0053917Y0044734D01*
X0053050Y0044734D01*
X0053050Y0048026D01*
X0051206Y0048026D01*
X0050799Y0047917D01*
X0050434Y0047706D01*
X0050136Y0047408D01*
X0049926Y0047044D01*
X0049817Y0046637D01*
X0049817Y0044733D01*
X0053050Y0044733D01*
X0053050Y0043867D01*
X0049817Y0043867D01*
X0049817Y0041963D01*
X0049926Y0041556D01*
X0050136Y0041192D01*
X0050434Y0040894D01*
X0050799Y0040683D01*
X0051206Y0040574D01*
X0053050Y0040574D01*
X0053050Y0043866D01*
X0053917Y0043866D01*
X0053917Y0040574D01*
X0055722Y0040574D01*
X0055763Y0040475D01*
X0056607Y0039631D01*
X0057358Y0039320D01*
X0056928Y0039142D01*
X0056147Y0039465D01*
X0051017Y0039465D01*
X0049914Y0039009D01*
X0049070Y0038165D01*
X0048961Y0037900D01*
X0046173Y0037900D01*
X0045655Y0038418D01*
X0044553Y0038875D01*
X0040210Y0038875D01*
X0039107Y0038418D01*
X0038263Y0037574D01*
X0038222Y0037475D01*
X0036663Y0037475D01*
X0036663Y0034487D01*
X0036288Y0034487D01*
X0036288Y0034113D01*
X0033301Y0034113D01*
X0033301Y0032515D01*
X0033410Y0032108D01*
X0033621Y0031743D01*
X0033918Y0031445D01*
X0034283Y0031234D01*
X0034690Y0031125D01*
X0036288Y0031125D01*
X0036288Y0034113D01*
X0036663Y0034113D01*
X0036663Y0031125D01*
X0038222Y0031125D01*
X0038263Y0031026D01*
X0039107Y0030182D01*
X0040210Y0029725D01*
X0044553Y0029725D01*
X0045655Y0030182D01*
X0046173Y0030700D01*
X0048961Y0030700D01*
X0049070Y0030435D01*
X0049914Y0029591D01*
X0051017Y0029135D01*
X0056147Y0029135D01*
X0056928Y0029458D01*
X0057710Y0029135D01*
X0060897Y0029135D01*
X0060897Y0028661D01*
X0061600Y0026965D01*
X0057710Y0026965D01*
X0056928Y0026642D01*
X0056147Y0026965D01*
X0051017Y0026965D01*
X0049914Y0026509D01*
X0049070Y0025665D01*
X0048961Y0025400D01*
X0046173Y0025400D01*
X0045655Y0025918D01*
X0044553Y0026375D01*
X0040210Y0026375D01*
X0039107Y0025918D01*
X0038263Y0025074D01*
X0038222Y0024975D01*
X0036663Y0024975D01*
X0036663Y0021987D01*
X0036288Y0021987D01*
X0036288Y0021613D01*
X0033301Y0021613D01*
X0033301Y0020015D01*
X0033410Y0019608D01*
X0033621Y0019243D01*
X0033918Y0018945D01*
X0034283Y0018734D01*
X0034690Y0018625D01*
X0036288Y0018625D01*
X0036288Y0021613D01*
X0036663Y0021613D01*
X0036663Y0018625D01*
X0038222Y0018625D01*
X0038263Y0018526D01*
X0039107Y0017682D01*
X0040210Y0017225D01*
X0044553Y0017225D01*
X0045655Y0017682D01*
X0046173Y0018200D01*
X0048961Y0018200D01*
X0049070Y0017935D01*
X0049914Y0017091D01*
X0051017Y0016635D01*
X0056147Y0016635D01*
X0056928Y0016958D01*
X0057710Y0016635D01*
X0062840Y0016635D01*
X0063493Y0016905D01*
X0064727Y0016394D01*
X0066629Y0016394D01*
X0067864Y0016905D01*
X0068517Y0016635D01*
X0073647Y0016635D01*
X0074750Y0017091D01*
X0075594Y0017935D01*
X0075635Y0018035D01*
X0077391Y0018035D01*
X0077391Y0021416D01*
X0078159Y0021416D01*
X0078159Y0022184D01*
X0081343Y0022184D01*
X0081343Y0024176D01*
X0081234Y0024583D01*
X0081024Y0024948D01*
X0080726Y0025246D01*
X0080361Y0025456D01*
X0079954Y0025565D01*
X0078159Y0025565D01*
X0078159Y0022184D01*
X0077391Y0022184D01*
X0077391Y0025565D01*
X0075635Y0025565D01*
X0075594Y0025665D01*
X0074750Y0026509D01*
X0074584Y0026578D01*
X0074584Y0029433D01*
X0075210Y0029174D01*
X0080537Y0029174D01*
X0081640Y0029631D01*
X0082484Y0030475D01*
X0082940Y0031577D01*
X0082940Y0032885D01*
X0083614Y0032211D01*
X0083614Y0029038D01*
X0084070Y0027935D01*
X0084914Y0027091D01*
X0086017Y0026635D01*
X0091147Y0026635D01*
X0091928Y0026958D01*
X0092358Y0026780D01*
X0091607Y0026469D01*
X0090763Y0025625D01*
X0090722Y0025526D01*
X0088917Y0025526D01*
X0088917Y0022234D01*
X0088050Y0022234D01*
X0088050Y0025526D01*
X0086206Y0025526D01*
X0085799Y0025417D01*
X0085434Y0025206D01*
X0085136Y0024908D01*
X0084926Y0024544D01*
X0084817Y0024137D01*
X0084817Y0022233D01*
X0088050Y0022233D01*
X0088050Y0021367D01*
X0084817Y0021367D01*
X0084817Y0019463D01*
X0084926Y0019056D01*
X0085136Y0018692D01*
X0085434Y0018394D01*
X0085799Y0018183D01*
X0086206Y0018074D01*
X0088050Y0018074D01*
X0088050Y0021366D01*
X0088917Y0021366D01*
X0088917Y0018074D01*
X0090722Y0018074D01*
X0090763Y0017975D01*
X0091607Y0017131D01*
X0092710Y0016674D01*
X0098037Y0016674D01*
X0099140Y0017131D01*
X0099984Y0017975D01*
X0100257Y0018635D01*
X0100530Y0018748D01*
X0101543Y0019761D01*
X0103135Y0021353D01*
X0103813Y0019717D01*
X0105158Y0018372D01*
X0106915Y0017644D01*
X0108817Y0017644D01*
X0110574Y0018372D01*
X0111919Y0019717D01*
X0112647Y0021474D01*
X0112647Y0022115D01*
X0115059Y0024527D01*
X0115607Y0025850D01*
X0115607Y0027225D01*
X0124155Y0027225D01*
X0124155Y0026507D01*
X0124703Y0025184D01*
X0130267Y0019620D01*
X0130267Y0015160D01*
X0130416Y0014800D01*
X0027428Y0014800D01*
X0027428Y0098800D01*
X0049548Y0098800D01*
X0048873Y0098125D01*
X0048417Y0097023D01*
X0048417Y0096069D01*
X0047552Y0096069D01*
X0047484Y0096236D01*
X0046640Y0097079D01*
X0045537Y0097536D01*
X0041784Y0097536D01*
X0040682Y0097079D01*
X0039838Y0096236D01*
X0039381Y0095133D01*
X0039381Y0089806D01*
X0039838Y0088703D01*
X0040061Y0088480D01*
X0040061Y0080120D01*
X0039838Y0079897D01*
X0039381Y0078794D01*
X0039381Y0073467D01*
X0039838Y0072364D01*
X0039842Y0072361D01*
X0039220Y0072103D01*
X0037875Y0070758D01*
X0037147Y0069001D01*
X0037147Y0067099D01*
X0037875Y0065342D01*
X0039220Y0063997D01*
X0039381Y0063930D01*
X0039381Y0059806D01*
X0039838Y0058703D01*
X0040061Y0058480D01*
X0040061Y0050120D01*
X0039838Y0049897D01*
X0039381Y0048794D01*
X0039381Y0043467D01*
X0039838Y0042364D01*
X0040682Y0041520D01*
X0041784Y0041064D01*
X0045537Y0041064D01*
X0046640Y0041520D01*
X0047484Y0042364D01*
X0047940Y0043467D01*
X0047940Y0048794D01*
X0047484Y0049897D01*
X0047261Y0050120D01*
X0047261Y0058480D01*
X0047484Y0058703D01*
X0047641Y0059082D01*
X0048343Y0059373D01*
X0049159Y0060189D01*
X0049717Y0059631D01*
X0050820Y0059174D01*
X0056147Y0059174D01*
X0057250Y0059631D01*
X0058094Y0060475D01*
X0058135Y0060574D01*
X0059940Y0060574D01*
X0059940Y0063866D01*
X0060807Y0063866D01*
X0060807Y0060574D01*
X0061556Y0060574D01*
X0060408Y0059426D01*
X0057710Y0059426D01*
X0056607Y0058969D01*
X0055763Y0058125D01*
X0055722Y0058026D01*
X0056180Y0058542D02*
X0047323Y0058542D01*
X0047261Y0057343D02*
X0050099Y0057343D01*
X0049817Y0056145D02*
X0047261Y0056145D01*
X0047261Y0054946D02*
X0049817Y0054946D01*
X0049817Y0053748D02*
X0047261Y0053748D01*
X0047261Y0052549D02*
X0049817Y0052549D01*
X0050044Y0051351D02*
X0047261Y0051351D01*
X0047261Y0050152D02*
X0056085Y0050152D01*
X0056592Y0048954D02*
X0047874Y0048954D01*
X0047940Y0047755D02*
X0050519Y0047755D01*
X0049817Y0046557D02*
X0047940Y0046557D01*
X0047940Y0045358D02*
X0049817Y0045358D01*
X0047940Y0044160D02*
X0053050Y0044160D01*
X0053050Y0045358D02*
X0053917Y0045358D01*
X0053917Y0046557D02*
X0053050Y0046557D01*
X0053050Y0047755D02*
X0053917Y0047755D01*
X0060373Y0044300D02*
X0064862Y0048788D01*
X0071928Y0048788D01*
X0073604Y0048788D01*
X0086537Y0061721D01*
X0093503Y0061721D01*
X0093503Y0059753D02*
X0087694Y0059753D01*
X0085678Y0057737D01*
X0085678Y0053987D01*
X0087226Y0049910D02*
X0071616Y0034300D01*
X0070984Y0034300D01*
X0070984Y0021898D01*
X0071082Y0021800D01*
X0065678Y0021175D02*
X0060900Y0021175D01*
X0060275Y0021800D01*
X0053582Y0021800D02*
X0042381Y0021800D01*
X0038226Y0024984D02*
X0027428Y0024984D01*
X0027428Y0026182D02*
X0039745Y0026182D01*
X0036288Y0024975D02*
X0034690Y0024975D01*
X0034283Y0024866D01*
X0033918Y0024655D01*
X0033621Y0024357D01*
X0033410Y0023992D01*
X0033301Y0023585D01*
X0033301Y0021987D01*
X0036288Y0021987D01*
X0036288Y0024975D01*
X0036288Y0023785D02*
X0036663Y0023785D01*
X0036663Y0022587D02*
X0036288Y0022587D01*
X0036288Y0021388D02*
X0036663Y0021388D01*
X0036663Y0020190D02*
X0036288Y0020190D01*
X0036288Y0018991D02*
X0036663Y0018991D01*
X0038996Y0017793D02*
X0027428Y0017793D01*
X0027428Y0018991D02*
X0033872Y0018991D01*
X0033301Y0020190D02*
X0027428Y0020190D01*
X0027428Y0021388D02*
X0033301Y0021388D01*
X0033301Y0022587D02*
X0027428Y0022587D01*
X0027428Y0023785D02*
X0033354Y0023785D01*
X0027428Y0027381D02*
X0061428Y0027381D01*
X0060931Y0028579D02*
X0027428Y0028579D01*
X0027428Y0029778D02*
X0040083Y0029778D01*
X0038313Y0030976D02*
X0027428Y0030976D01*
X0027428Y0032175D02*
X0033392Y0032175D01*
X0033301Y0033373D02*
X0027428Y0033373D01*
X0027428Y0034572D02*
X0033301Y0034572D01*
X0033301Y0034487D02*
X0036288Y0034487D01*
X0036288Y0037475D01*
X0034690Y0037475D01*
X0034283Y0037366D01*
X0033918Y0037155D01*
X0033621Y0036857D01*
X0033410Y0036492D01*
X0033301Y0036085D01*
X0033301Y0034487D01*
X0033301Y0035770D02*
X0027428Y0035770D01*
X0027428Y0036969D02*
X0033732Y0036969D01*
X0036288Y0036969D02*
X0036663Y0036969D01*
X0036663Y0035770D02*
X0036288Y0035770D01*
X0036288Y0034572D02*
X0036663Y0034572D01*
X0036663Y0033373D02*
X0036288Y0033373D01*
X0036288Y0032175D02*
X0036663Y0032175D01*
X0042381Y0034300D02*
X0053582Y0034300D01*
X0060275Y0034300D02*
X0060991Y0034300D01*
X0065678Y0029612D01*
X0065917Y0034465D02*
X0065243Y0035139D01*
X0065243Y0037062D01*
X0064787Y0038165D01*
X0063943Y0039009D01*
X0063290Y0039279D01*
X0064140Y0039631D01*
X0064984Y0040475D01*
X0065440Y0041577D01*
X0065440Y0041696D01*
X0066017Y0041457D01*
X0073682Y0041457D01*
X0071651Y0039426D01*
X0068320Y0039426D01*
X0067217Y0038969D01*
X0066373Y0038125D01*
X0065917Y0037023D01*
X0065917Y0034465D01*
X0065917Y0034572D02*
X0065810Y0034572D01*
X0065917Y0035770D02*
X0065243Y0035770D01*
X0065243Y0036969D02*
X0065917Y0036969D01*
X0066415Y0038167D02*
X0064784Y0038167D01*
X0063500Y0039366D02*
X0068175Y0039366D01*
X0065021Y0040564D02*
X0072789Y0040564D01*
X0077866Y0037425D02*
X0083803Y0043362D01*
X0088383Y0047942D01*
X0093503Y0047942D01*
X0093503Y0049910D02*
X0087226Y0049910D01*
X0083803Y0043362D02*
X0083803Y0037113D01*
X0088582Y0032334D01*
X0088582Y0031800D01*
X0083614Y0032175D02*
X0082940Y0032175D01*
X0082691Y0030976D02*
X0083614Y0030976D01*
X0083614Y0029778D02*
X0081787Y0029778D01*
X0083804Y0028579D02*
X0074584Y0028579D01*
X0074584Y0027381D02*
X0084625Y0027381D01*
X0085212Y0024984D02*
X0080988Y0024984D01*
X0081343Y0023785D02*
X0084817Y0023785D01*
X0084817Y0022587D02*
X0081343Y0022587D01*
X0081343Y0021416D02*
X0078159Y0021416D01*
X0078159Y0018035D01*
X0079954Y0018035D01*
X0080361Y0018144D01*
X0080726Y0018354D01*
X0081024Y0018652D01*
X0081234Y0019017D01*
X0081343Y0019424D01*
X0081343Y0021416D01*
X0081343Y0021388D02*
X0088050Y0021388D01*
X0088050Y0020190D02*
X0088917Y0020190D01*
X0088917Y0018991D02*
X0088050Y0018991D01*
X0084963Y0018991D02*
X0081219Y0018991D01*
X0081343Y0020190D02*
X0084817Y0020190D01*
X0088050Y0022587D02*
X0088917Y0022587D01*
X0088917Y0023785D02*
X0088050Y0023785D01*
X0088050Y0024984D02*
X0088917Y0024984D01*
X0091320Y0026182D02*
X0075076Y0026182D01*
X0077391Y0024984D02*
X0078159Y0024984D01*
X0078159Y0023785D02*
X0077391Y0023785D01*
X0077391Y0022587D02*
X0078159Y0022587D01*
X0078159Y0021388D02*
X0077391Y0021388D01*
X0077391Y0020190D02*
X0078159Y0020190D01*
X0078159Y0018991D02*
X0077391Y0018991D01*
X0075451Y0017793D02*
X0090945Y0017793D01*
X0095373Y0021800D02*
X0098491Y0021800D01*
X0106102Y0029411D01*
X0106102Y0033375D01*
X0106102Y0037536D01*
X0108178Y0039613D01*
X0103448Y0040685D02*
X0102168Y0041964D01*
X0101155Y0042977D01*
X0099832Y0043525D01*
X0099653Y0043525D01*
X0099653Y0056409D01*
X0100358Y0056701D01*
X0101155Y0057498D01*
X0102168Y0058511D01*
X0102716Y0059834D01*
X0102716Y0064161D01*
X0103074Y0064309D01*
X0104419Y0065654D01*
X0105147Y0067411D01*
X0105147Y0068171D01*
X0105665Y0067956D01*
X0107567Y0067956D01*
X0109324Y0068684D01*
X0110669Y0070029D01*
X0111397Y0071786D01*
X0111397Y0073689D01*
X0111237Y0074076D01*
X0129335Y0074076D01*
X0129335Y0073036D01*
X0130063Y0071279D01*
X0131017Y0070325D01*
X0130783Y0070228D01*
X0129438Y0068883D01*
X0128710Y0067126D01*
X0128710Y0065224D01*
X0129438Y0063467D01*
X0130783Y0062122D01*
X0132540Y0061394D01*
X0134204Y0061394D01*
X0134204Y0041331D01*
X0133794Y0042321D01*
X0132449Y0043666D01*
X0130692Y0044394D01*
X0128790Y0044394D01*
X0127033Y0043666D01*
X0125688Y0042321D01*
X0124960Y0040564D01*
X0112959Y0040564D01*
X0112960Y0040564D02*
X0112232Y0042321D01*
X0110887Y0043666D01*
X0109129Y0044394D01*
X0107227Y0044394D01*
X0105470Y0043666D01*
X0104125Y0042321D01*
X0103448Y0040685D01*
X0103894Y0041763D02*
X0102369Y0041763D01*
X0101171Y0042961D02*
X0104766Y0042961D01*
X0104133Y0044005D02*
X0109428Y0049300D01*
X0099653Y0048954D02*
X0134204Y0048954D01*
X0134204Y0050152D02*
X0099653Y0050152D01*
X0099653Y0051351D02*
X0134204Y0051351D01*
X0134204Y0052549D02*
X0099653Y0052549D01*
X0099653Y0053748D02*
X0134204Y0053748D01*
X0134204Y0054946D02*
X0099653Y0054946D01*
X0099653Y0056145D02*
X0134204Y0056145D01*
X0134204Y0057343D02*
X0101001Y0057343D01*
X0102181Y0058542D02*
X0134204Y0058542D01*
X0134204Y0059740D02*
X0102677Y0059740D01*
X0102716Y0060939D02*
X0134204Y0060939D01*
X0130767Y0062137D02*
X0102716Y0062137D01*
X0102716Y0063336D02*
X0129568Y0063336D01*
X0128995Y0064534D02*
X0103299Y0064534D01*
X0104452Y0065733D02*
X0128710Y0065733D01*
X0128710Y0066932D02*
X0104948Y0066932D01*
X0105147Y0068130D02*
X0105246Y0068130D01*
X0107986Y0068130D02*
X0129126Y0068130D01*
X0129883Y0069329D02*
X0109969Y0069329D01*
X0110875Y0070527D02*
X0130815Y0070527D01*
X0129724Y0069595D02*
X0124428Y0064300D01*
X0133491Y0066175D02*
X0134943Y0067627D01*
X0140354Y0067627D01*
X0140354Y0065658D02*
X0145883Y0065658D01*
X0148803Y0062737D01*
X0148803Y0049300D01*
X0153129Y0051351D02*
X0154302Y0051351D01*
X0154302Y0052549D02*
X0153406Y0052549D01*
X0152879Y0052331D02*
X0154302Y0052921D01*
X0154302Y0050081D01*
X0154759Y0048979D01*
X0155603Y0048135D01*
X0155702Y0048094D01*
X0155702Y0046289D01*
X0158995Y0046289D01*
X0158995Y0045422D01*
X0155702Y0045422D01*
X0155702Y0043578D01*
X0155812Y0043171D01*
X0156022Y0042806D01*
X0156320Y0042508D01*
X0156685Y0042297D01*
X0157092Y0042188D01*
X0158995Y0042188D01*
X0158995Y0045422D01*
X0159862Y0045422D01*
X0159862Y0042188D01*
X0160828Y0042188D01*
X0160828Y0039721D01*
X0158161Y0039721D01*
X0152074Y0045809D01*
X0152857Y0046592D01*
X0153585Y0048349D01*
X0153585Y0050251D01*
X0152857Y0052008D01*
X0152534Y0052331D01*
X0152879Y0052331D01*
X0153585Y0050152D02*
X0154302Y0050152D01*
X0154784Y0048954D02*
X0153585Y0048954D01*
X0153339Y0047755D02*
X0155702Y0047755D01*
X0155702Y0046557D02*
X0152822Y0046557D01*
X0152524Y0045358D02*
X0155702Y0045358D01*
X0155702Y0044160D02*
X0153722Y0044160D01*
X0154921Y0042961D02*
X0155932Y0042961D01*
X0156119Y0041763D02*
X0160828Y0041763D01*
X0160828Y0040564D02*
X0157318Y0040564D01*
X0158995Y0042961D02*
X0159862Y0042961D01*
X0159862Y0044160D02*
X0158995Y0044160D01*
X0158995Y0045358D02*
X0159862Y0045358D01*
X0168028Y0042272D02*
X0168342Y0042188D01*
X0170245Y0042188D01*
X0170245Y0045422D01*
X0171112Y0045422D01*
X0171112Y0042188D01*
X0172703Y0042188D01*
X0172703Y0039395D01*
X0171915Y0039721D01*
X0168028Y0039721D01*
X0168028Y0042272D01*
X0168028Y0041763D02*
X0172703Y0041763D01*
X0172703Y0040564D02*
X0168028Y0040564D01*
X0170245Y0042961D02*
X0171112Y0042961D01*
X0171112Y0044160D02*
X0170245Y0044160D01*
X0170245Y0045358D02*
X0171112Y0045358D01*
X0178178Y0048675D02*
X0182366Y0052863D01*
X0184192Y0052863D01*
X0191129Y0052549D02*
X0192569Y0052549D01*
X0193440Y0052910D02*
X0191614Y0052154D01*
X0191129Y0051669D01*
X0191129Y0055822D01*
X0190724Y0056800D01*
X0191129Y0057778D01*
X0191129Y0061931D01*
X0191614Y0061446D01*
X0193440Y0060690D01*
X0195417Y0060690D01*
X0197243Y0061446D01*
X0198641Y0062844D01*
X0199397Y0064670D01*
X0199397Y0066647D01*
X0198641Y0068473D01*
X0197243Y0069870D01*
X0195417Y0070627D01*
X0193440Y0070627D01*
X0191614Y0069870D01*
X0191129Y0069386D01*
X0191129Y0073538D01*
X0190797Y0074341D01*
X0194044Y0074341D01*
X0194044Y0078857D01*
X0186228Y0078857D01*
X0186228Y0078855D01*
X0186349Y0078094D01*
X0186587Y0077360D01*
X0186938Y0076673D01*
X0187391Y0076049D01*
X0187498Y0075942D01*
X0183471Y0075942D01*
X0183721Y0076192D01*
X0183931Y0076556D01*
X0184040Y0076963D01*
X0184040Y0078867D01*
X0180807Y0078867D01*
X0180807Y0079733D01*
X0184040Y0079733D01*
X0184040Y0081637D01*
X0183931Y0082044D01*
X0183721Y0082408D01*
X0183423Y0082706D01*
X0183058Y0082917D01*
X0182651Y0083026D01*
X0180807Y0083026D01*
X0180807Y0079734D01*
X0179940Y0079734D01*
X0179940Y0083026D01*
X0178135Y0083026D01*
X0178094Y0083125D01*
X0177250Y0083969D01*
X0176147Y0084426D01*
X0173456Y0084426D01*
X0173105Y0084777D01*
X0172093Y0085789D01*
X0170770Y0086337D01*
X0161205Y0086337D01*
X0159882Y0085789D01*
X0158518Y0084426D01*
X0155820Y0084426D01*
X0154717Y0083969D01*
X0153873Y0083125D01*
X0153619Y0082510D01*
X0153423Y0082706D01*
X0153058Y0082917D01*
X0152651Y0083026D01*
X0150807Y0083026D01*
X0150807Y0079734D01*
X0149940Y0079734D01*
X0149940Y0083026D01*
X0148135Y0083026D01*
X0148094Y0083125D01*
X0147250Y0083969D01*
X0146147Y0084426D01*
X0145271Y0084426D01*
X0146545Y0085700D01*
X0150145Y0085700D01*
X0151468Y0086248D01*
X0152480Y0087261D01*
X0153270Y0088050D01*
X0155672Y0088050D01*
X0157969Y0089002D01*
X0159428Y0090461D01*
X0160888Y0089002D01*
X0163185Y0088050D01*
X0165672Y0088050D01*
X0167969Y0089002D01*
X0169428Y0090461D01*
X0170888Y0089002D01*
X0173185Y0088050D01*
X0175672Y0088050D01*
X0177969Y0089002D01*
X0179428Y0090461D01*
X0180888Y0089002D01*
X0183185Y0088050D01*
X0185672Y0088050D01*
X0187969Y0089002D01*
X0189727Y0090760D01*
X0190678Y0093057D01*
X0190678Y0095543D01*
X0189727Y0097840D01*
X0188767Y0098800D01*
X0201428Y0098800D01*
X0201428Y0082471D01*
X0200921Y0082978D01*
X0200297Y0083432D01*
X0199609Y0083782D01*
X0198876Y0084020D01*
X0198114Y0084141D01*
X0194813Y0084141D01*
X0194813Y0079625D01*
X0194044Y0079625D01*
X0194044Y0078857D01*
X0194813Y0078857D01*
X0194813Y0074341D01*
X0198114Y0074341D01*
X0198876Y0074462D01*
X0199609Y0074700D01*
X0200297Y0075050D01*
X0200921Y0075503D01*
X0201428Y0076011D01*
X0201428Y0037589D01*
X0200921Y0038097D01*
X0200297Y0038550D01*
X0199609Y0038900D01*
X0198876Y0039138D01*
X0198114Y0039259D01*
X0194813Y0039259D01*
X0194813Y0034743D01*
X0194044Y0034743D01*
X0194044Y0033975D01*
X0186228Y0033975D01*
X0186228Y0033973D01*
X0186349Y0033212D01*
X0186587Y0032478D01*
X0186938Y0031791D01*
X0187391Y0031167D01*
X0187936Y0030622D01*
X0188560Y0030168D01*
X0189248Y0029818D01*
X0189981Y0029580D01*
X0190743Y0029459D01*
X0194044Y0029459D01*
X0194044Y0033975D01*
X0194813Y0033975D01*
X0194813Y0029459D01*
X0198114Y0029459D01*
X0198876Y0029580D01*
X0199609Y0029818D01*
X0200297Y0030168D01*
X0200921Y0030622D01*
X0201428Y0031129D01*
X0201428Y0014800D01*
X0164919Y0014800D01*
X0165594Y0015475D01*
X0165635Y0015574D01*
X0167440Y0015574D01*
X0167440Y0018866D01*
X0168307Y0018866D01*
X0168307Y0015574D01*
X0170151Y0015574D01*
X0170558Y0015683D01*
X0170923Y0015894D01*
X0171221Y0016192D01*
X0171431Y0016556D01*
X0171540Y0016963D01*
X0171540Y0018867D01*
X0168307Y0018867D01*
X0168307Y0019733D01*
X0171540Y0019733D01*
X0171540Y0021637D01*
X0171431Y0022044D01*
X0171221Y0022408D01*
X0170923Y0022706D01*
X0170558Y0022917D01*
X0170151Y0023026D01*
X0168307Y0023026D01*
X0168307Y0019734D01*
X0167440Y0019734D01*
X0167440Y0023026D01*
X0167308Y0023026D01*
X0167480Y0023198D01*
X0167762Y0023879D01*
X0171915Y0023879D01*
X0173018Y0024335D01*
X0173142Y0024460D01*
X0177029Y0024460D01*
X0178353Y0025008D01*
X0181230Y0027886D01*
X0181778Y0029209D01*
X0181778Y0039058D01*
X0183611Y0039058D01*
X0183611Y0042439D01*
X0184773Y0042439D01*
X0184773Y0039058D01*
X0188340Y0039058D01*
X0188747Y0039167D01*
X0189112Y0039378D01*
X0189410Y0039676D01*
X0189620Y0040041D01*
X0189729Y0040448D01*
X0189729Y0042439D01*
X0184773Y0042439D01*
X0184773Y0043602D01*
X0183611Y0043602D01*
X0183611Y0046983D01*
X0181778Y0046983D01*
X0181778Y0047184D01*
X0182095Y0047501D01*
X0188726Y0047501D01*
X0189460Y0047805D01*
X0189460Y0046953D01*
X0190216Y0045127D01*
X0191614Y0043730D01*
X0193440Y0042973D01*
X0195417Y0042973D01*
X0197243Y0043730D01*
X0198641Y0045127D01*
X0199397Y0046953D01*
X0199397Y0048930D01*
X0198641Y0050756D01*
X0197243Y0052154D01*
X0195417Y0052910D01*
X0193440Y0052910D01*
X0191129Y0053748D02*
X0201428Y0053748D01*
X0201428Y0054946D02*
X0191129Y0054946D01*
X0190995Y0056145D02*
X0201428Y0056145D01*
X0201428Y0057343D02*
X0190949Y0057343D01*
X0191129Y0058542D02*
X0201428Y0058542D01*
X0201428Y0059740D02*
X0191129Y0059740D01*
X0191129Y0060939D02*
X0192839Y0060939D01*
X0196018Y0060939D02*
X0201428Y0060939D01*
X0201428Y0062137D02*
X0197934Y0062137D01*
X0198844Y0063336D02*
X0201428Y0063336D01*
X0201428Y0064534D02*
X0199341Y0064534D01*
X0199397Y0065733D02*
X0201428Y0065733D01*
X0201428Y0066932D02*
X0199279Y0066932D01*
X0198782Y0068130D02*
X0201428Y0068130D01*
X0201428Y0069329D02*
X0197785Y0069329D01*
X0195657Y0070527D02*
X0201428Y0070527D01*
X0201428Y0071726D02*
X0191129Y0071726D01*
X0191129Y0072924D02*
X0201428Y0072924D01*
X0201428Y0074123D02*
X0190887Y0074123D01*
X0194044Y0075321D02*
X0194813Y0075321D01*
X0194813Y0076520D02*
X0194044Y0076520D01*
X0194044Y0077718D02*
X0194813Y0077718D01*
X0194044Y0078917D02*
X0180807Y0078917D01*
X0180373Y0079300D02*
X0176616Y0075543D01*
X0176616Y0069613D01*
X0173803Y0066800D01*
X0170728Y0066800D01*
X0172876Y0063060D02*
X0176616Y0066800D01*
X0180366Y0070550D01*
X0184163Y0070550D01*
X0184192Y0070580D01*
X0191129Y0070527D02*
X0193199Y0070527D01*
X0200670Y0075321D02*
X0201428Y0075321D01*
X0194813Y0080115D02*
X0194044Y0080115D01*
X0194044Y0079625D02*
X0194044Y0084141D01*
X0190743Y0084141D01*
X0189981Y0084020D01*
X0189248Y0083782D01*
X0188560Y0083432D01*
X0187936Y0082978D01*
X0187391Y0082433D01*
X0186938Y0081809D01*
X0186587Y0081122D01*
X0186349Y0080388D01*
X0186228Y0079627D01*
X0186228Y0079625D01*
X0194044Y0079625D01*
X0194044Y0081314D02*
X0194813Y0081314D01*
X0194813Y0082512D02*
X0194044Y0082512D01*
X0194044Y0083711D02*
X0194813Y0083711D01*
X0199749Y0083711D02*
X0201428Y0083711D01*
X0201428Y0084909D02*
X0172973Y0084909D01*
X0171324Y0086108D02*
X0201428Y0086108D01*
X0201428Y0087306D02*
X0152526Y0087306D01*
X0151129Y0086108D02*
X0160650Y0086108D01*
X0159002Y0084909D02*
X0145754Y0084909D01*
X0147508Y0083711D02*
X0154459Y0083711D01*
X0153619Y0082512D02*
X0153617Y0082512D01*
X0150807Y0082512D02*
X0149940Y0082512D01*
X0149940Y0081314D02*
X0150807Y0081314D01*
X0150807Y0080115D02*
X0149940Y0080115D01*
X0145678Y0077105D02*
X0143484Y0079300D01*
X0145678Y0077105D02*
X0145678Y0073050D01*
X0146928Y0074300D01*
X0151616Y0074300D01*
X0153803Y0072113D01*
X0153803Y0074620D01*
X0158484Y0079300D01*
X0161921Y0082738D01*
X0170053Y0082738D01*
X0173484Y0079307D01*
X0173484Y0079300D01*
X0168619Y0076090D02*
X0168873Y0075475D01*
X0169717Y0074631D01*
X0170212Y0074426D01*
X0167966Y0074426D01*
X0166863Y0073969D01*
X0166215Y0073321D01*
X0165028Y0073321D01*
X0165028Y0067400D01*
X0163828Y0067400D01*
X0163828Y0073321D01*
X0162642Y0073321D01*
X0161994Y0073969D01*
X0161323Y0074247D01*
X0162250Y0074631D01*
X0163094Y0075475D01*
X0163135Y0075574D01*
X0164940Y0075574D01*
X0164940Y0078866D01*
X0165807Y0078866D01*
X0165807Y0075574D01*
X0167651Y0075574D01*
X0168058Y0075683D01*
X0168423Y0075894D01*
X0168619Y0076090D01*
X0169027Y0075321D02*
X0162940Y0075321D01*
X0161624Y0074123D02*
X0167233Y0074123D01*
X0165028Y0072924D02*
X0163828Y0072924D01*
X0163828Y0071726D02*
X0165028Y0071726D01*
X0165028Y0070527D02*
X0163828Y0070527D01*
X0163828Y0069329D02*
X0165028Y0069329D01*
X0165028Y0068130D02*
X0163828Y0068130D01*
X0158129Y0070540D02*
X0155376Y0070540D01*
X0155044Y0070540D01*
X0151928Y0067425D01*
X0151928Y0057112D01*
X0153803Y0059925D02*
X0155366Y0058362D01*
X0159428Y0054300D01*
X0159428Y0052745D01*
X0164428Y0055862D02*
X0161928Y0058362D01*
X0165678Y0058362D01*
X0173491Y0058362D01*
X0176616Y0061487D01*
X0176616Y0066800D01*
X0172876Y0063060D02*
X0170728Y0063060D01*
X0165678Y0058362D02*
X0170678Y0053362D01*
X0170678Y0052745D01*
X0176303Y0054612D02*
X0182428Y0060737D01*
X0184192Y0060737D01*
X0176303Y0054612D02*
X0176303Y0037425D01*
X0174419Y0035540D01*
X0168956Y0035540D01*
X0164428Y0033988D02*
X0164428Y0055862D01*
X0161928Y0058362D02*
X0155366Y0058362D01*
X0153803Y0059925D02*
X0153803Y0061175D01*
X0155678Y0063050D01*
X0158119Y0063050D01*
X0158129Y0063060D01*
X0145678Y0062112D02*
X0145678Y0047112D01*
X0157241Y0035550D01*
X0159891Y0035550D01*
X0159901Y0035540D01*
X0162241Y0031800D02*
X0164428Y0033988D01*
X0162241Y0031800D02*
X0159901Y0031800D01*
X0162241Y0031800D02*
X0164428Y0029612D01*
X0164428Y0025237D01*
X0160984Y0021793D01*
X0160984Y0019300D01*
X0155917Y0018991D02*
X0148040Y0018991D01*
X0148040Y0018700D02*
X0148040Y0019900D01*
X0146840Y0019900D01*
X0146840Y0018700D01*
X0142691Y0018700D01*
X0142691Y0015546D01*
X0142800Y0015139D01*
X0142996Y0014800D01*
X0142417Y0014800D01*
X0142566Y0015160D01*
X0142566Y0023440D01*
X0142110Y0024543D01*
X0141266Y0025387D01*
X0140357Y0025763D01*
X0140530Y0025936D01*
X0141354Y0026760D01*
X0142250Y0027131D01*
X0143094Y0027975D01*
X0143135Y0028074D01*
X0144940Y0028074D01*
X0144940Y0031366D01*
X0145807Y0031366D01*
X0145807Y0028074D01*
X0147651Y0028074D01*
X0148058Y0028183D01*
X0148423Y0028394D01*
X0148721Y0028692D01*
X0148931Y0029056D01*
X0149040Y0029463D01*
X0149040Y0030847D01*
X0154879Y0025008D01*
X0155370Y0024805D01*
X0155839Y0024335D01*
X0156942Y0023879D01*
X0157127Y0023879D01*
X0156373Y0023125D01*
X0155917Y0022023D01*
X0155917Y0016577D01*
X0156373Y0015475D01*
X0157048Y0014800D01*
X0151885Y0014800D01*
X0152081Y0015139D01*
X0152190Y0015546D01*
X0152190Y0018700D01*
X0148040Y0018700D01*
X0148040Y0019900D02*
X0152190Y0019900D01*
X0152190Y0023054D01*
X0152081Y0023461D01*
X0151870Y0023826D01*
X0151572Y0024124D01*
X0151207Y0024334D01*
X0150801Y0024443D01*
X0148040Y0024443D01*
X0148040Y0019900D01*
X0148040Y0020190D02*
X0146840Y0020190D01*
X0146840Y0019900D02*
X0146840Y0024443D01*
X0144080Y0024443D01*
X0143673Y0024334D01*
X0143308Y0024124D01*
X0143010Y0023826D01*
X0142800Y0023461D01*
X0142691Y0023054D01*
X0142691Y0019900D01*
X0146840Y0019900D01*
X0146840Y0018991D02*
X0142566Y0018991D01*
X0142566Y0017793D02*
X0142691Y0017793D01*
X0142691Y0016594D02*
X0142566Y0016594D01*
X0142566Y0015396D02*
X0142731Y0015396D01*
X0142691Y0020190D02*
X0142566Y0020190D01*
X0142566Y0021388D02*
X0142691Y0021388D01*
X0142691Y0022587D02*
X0142566Y0022587D01*
X0142423Y0023785D02*
X0142987Y0023785D01*
X0141669Y0024984D02*
X0154938Y0024984D01*
X0153705Y0026182D02*
X0140777Y0026182D01*
X0140530Y0025936D02*
X0140530Y0025936D01*
X0142500Y0027381D02*
X0152507Y0027381D01*
X0151308Y0028579D02*
X0148608Y0028579D01*
X0149040Y0029778D02*
X0150110Y0029778D01*
X0145807Y0029778D02*
X0144940Y0029778D01*
X0144940Y0030976D02*
X0145807Y0030976D01*
X0145807Y0032234D02*
X0144940Y0032234D01*
X0144940Y0035526D01*
X0143135Y0035526D01*
X0143094Y0035625D01*
X0142250Y0036469D01*
X0141147Y0036926D01*
X0135820Y0036926D01*
X0135292Y0036707D01*
X0135292Y0038377D01*
X0134771Y0039636D01*
X0135505Y0038902D01*
X0136607Y0038446D01*
X0144022Y0038446D01*
X0144022Y0038036D01*
X0144750Y0036279D01*
X0145203Y0035826D01*
X0145203Y0035459D01*
X0145752Y0034136D01*
X0145807Y0034080D01*
X0145807Y0032234D01*
X0145807Y0033373D02*
X0144940Y0033373D01*
X0144940Y0034572D02*
X0145571Y0034572D01*
X0145203Y0035770D02*
X0142949Y0035770D01*
X0144465Y0036969D02*
X0135292Y0036969D01*
X0135292Y0038167D02*
X0144022Y0038167D01*
X0148803Y0038988D02*
X0148803Y0036175D01*
X0156919Y0028060D01*
X0159901Y0028060D01*
X0168956Y0028060D02*
X0176313Y0028060D01*
X0178178Y0029925D01*
X0178178Y0048675D01*
X0183611Y0046557D02*
X0184773Y0046557D01*
X0184773Y0046983D02*
X0184773Y0043602D01*
X0189729Y0043602D01*
X0189729Y0045593D01*
X0189620Y0046000D01*
X0189410Y0046365D01*
X0189112Y0046663D01*
X0188747Y0046874D01*
X0188340Y0046983D01*
X0184773Y0046983D01*
X0184773Y0045358D02*
X0183611Y0045358D01*
X0183611Y0044160D02*
X0184773Y0044160D01*
X0184773Y0042961D02*
X0201428Y0042961D01*
X0201428Y0041763D02*
X0189729Y0041763D01*
X0189729Y0040564D02*
X0201428Y0040564D01*
X0201428Y0039366D02*
X0189091Y0039366D01*
X0189248Y0038900D02*
X0189981Y0039138D01*
X0190743Y0039259D01*
X0194044Y0039259D01*
X0194044Y0034743D01*
X0186228Y0034743D01*
X0186228Y0034745D01*
X0186349Y0035506D01*
X0186587Y0036240D01*
X0186938Y0036927D01*
X0187391Y0037551D01*
X0187936Y0038097D01*
X0188560Y0038550D01*
X0189248Y0038900D01*
X0188034Y0038167D02*
X0181778Y0038167D01*
X0181778Y0036969D02*
X0186968Y0036969D01*
X0186435Y0035770D02*
X0181778Y0035770D01*
X0181778Y0034572D02*
X0194044Y0034572D01*
X0194044Y0035770D02*
X0194813Y0035770D01*
X0194813Y0036969D02*
X0194044Y0036969D01*
X0194044Y0038167D02*
X0194813Y0038167D01*
X0200823Y0038167D02*
X0201428Y0038167D01*
X0201428Y0044160D02*
X0197673Y0044160D01*
X0198736Y0045358D02*
X0201428Y0045358D01*
X0201428Y0046557D02*
X0199233Y0046557D01*
X0199397Y0047755D02*
X0201428Y0047755D01*
X0201428Y0048954D02*
X0199387Y0048954D01*
X0198891Y0050152D02*
X0201428Y0050152D01*
X0201428Y0051351D02*
X0198046Y0051351D01*
X0196288Y0052549D02*
X0201428Y0052549D01*
X0189460Y0047755D02*
X0189341Y0047755D01*
X0189218Y0046557D02*
X0189624Y0046557D01*
X0189729Y0045358D02*
X0190121Y0045358D01*
X0189729Y0044160D02*
X0191184Y0044160D01*
X0184773Y0041763D02*
X0183611Y0041763D01*
X0183611Y0040564D02*
X0184773Y0040564D01*
X0184773Y0039366D02*
X0183611Y0039366D01*
X0181778Y0033373D02*
X0186324Y0033373D01*
X0186742Y0032175D02*
X0181778Y0032175D01*
X0181778Y0030976D02*
X0187582Y0030976D01*
X0189372Y0029778D02*
X0181778Y0029778D01*
X0181518Y0028579D02*
X0201428Y0028579D01*
X0201428Y0027381D02*
X0180725Y0027381D01*
X0179527Y0026182D02*
X0201428Y0026182D01*
X0201428Y0024984D02*
X0178294Y0024984D01*
X0171042Y0022587D02*
X0201428Y0022587D01*
X0201428Y0023785D02*
X0167723Y0023785D01*
X0167440Y0022587D02*
X0168307Y0022587D01*
X0168307Y0021388D02*
X0167440Y0021388D01*
X0167440Y0020190D02*
X0168307Y0020190D01*
X0168307Y0018991D02*
X0201428Y0018991D01*
X0201428Y0017793D02*
X0171540Y0017793D01*
X0171441Y0016594D02*
X0201428Y0016594D01*
X0201428Y0015396D02*
X0165515Y0015396D01*
X0167440Y0016594D02*
X0168307Y0016594D01*
X0168307Y0017793D02*
X0167440Y0017793D01*
X0171540Y0020190D02*
X0201428Y0020190D01*
X0201428Y0021388D02*
X0171540Y0021388D01*
X0157033Y0023785D02*
X0151894Y0023785D01*
X0152190Y0022587D02*
X0156150Y0022587D01*
X0155917Y0021388D02*
X0152190Y0021388D01*
X0152190Y0020190D02*
X0155917Y0020190D01*
X0155917Y0017793D02*
X0152190Y0017793D01*
X0152190Y0016594D02*
X0155917Y0016594D01*
X0156452Y0015396D02*
X0152150Y0015396D01*
X0148040Y0021388D02*
X0146840Y0021388D01*
X0146840Y0022587D02*
X0148040Y0022587D01*
X0148040Y0023785D02*
X0146840Y0023785D01*
X0149116Y0025550D02*
X0150053Y0026487D01*
X0149116Y0025550D02*
X0132241Y0025550D01*
X0129724Y0028067D01*
X0129724Y0033375D01*
X0131692Y0033375D02*
X0131692Y0037661D01*
X0129741Y0039613D01*
X0124960Y0039524D02*
X0124960Y0040564D01*
X0124960Y0039524D02*
X0124599Y0039524D01*
X0112960Y0039524D01*
X0112960Y0040564D01*
X0112463Y0041763D02*
X0125457Y0041763D01*
X0126328Y0042961D02*
X0111591Y0042961D01*
X0109694Y0044160D02*
X0128226Y0044160D01*
X0131256Y0044160D02*
X0134204Y0044160D01*
X0134204Y0045358D02*
X0099653Y0045358D01*
X0099653Y0044160D02*
X0106663Y0044160D01*
X0104133Y0044005D02*
X0104133Y0033375D01*
X0102165Y0033375D02*
X0102165Y0036876D01*
X0099116Y0039925D01*
X0090991Y0039925D01*
X0088491Y0037425D01*
X0093803Y0036800D02*
X0093803Y0033271D01*
X0095275Y0031800D01*
X0095366Y0031709D01*
X0107866Y0026800D02*
X0110039Y0028973D01*
X0110039Y0033375D01*
X0112007Y0033375D02*
X0112007Y0026566D01*
X0107866Y0022425D01*
X0111194Y0018991D02*
X0130267Y0018991D01*
X0130267Y0017793D02*
X0109176Y0017793D01*
X0106556Y0017793D02*
X0099801Y0017793D01*
X0100773Y0018991D02*
X0104538Y0018991D01*
X0103617Y0020190D02*
X0101972Y0020190D01*
X0112115Y0020190D02*
X0129698Y0020190D01*
X0128499Y0021388D02*
X0112611Y0021388D01*
X0113119Y0022587D02*
X0127301Y0022587D01*
X0126102Y0023785D02*
X0114317Y0023785D01*
X0115248Y0024984D02*
X0124904Y0024984D01*
X0124290Y0026182D02*
X0115607Y0026182D01*
X0127755Y0027223D02*
X0135678Y0019300D01*
X0136417Y0019300D01*
X0130267Y0016594D02*
X0067113Y0016594D01*
X0064244Y0016594D02*
X0027428Y0016594D01*
X0027428Y0015396D02*
X0130267Y0015396D01*
X0127755Y0027223D02*
X0127755Y0033375D01*
X0131692Y0033375D02*
X0131692Y0028911D01*
X0133178Y0027425D01*
X0136928Y0027425D01*
X0138491Y0028987D01*
X0138491Y0031793D01*
X0138484Y0031800D01*
X0144940Y0028579D02*
X0145807Y0028579D01*
X0168956Y0031800D02*
X0175053Y0031800D01*
X0194044Y0032175D02*
X0194813Y0032175D01*
X0194813Y0033373D02*
X0194044Y0033373D01*
X0194044Y0030976D02*
X0194813Y0030976D01*
X0194813Y0029778D02*
X0194044Y0029778D01*
X0199485Y0029778D02*
X0201428Y0029778D01*
X0201428Y0030976D02*
X0201275Y0030976D01*
X0145678Y0062112D02*
X0144101Y0063690D01*
X0140354Y0063690D01*
X0140354Y0069595D02*
X0129724Y0069595D01*
X0129878Y0071726D02*
X0111372Y0071726D01*
X0111397Y0072924D02*
X0129381Y0072924D01*
X0134116Y0073988D02*
X0136540Y0071564D01*
X0140354Y0071564D01*
X0144192Y0071564D01*
X0145678Y0073050D01*
X0153803Y0072113D02*
X0155376Y0070540D01*
X0164940Y0076520D02*
X0165807Y0076520D01*
X0165807Y0077718D02*
X0164940Y0077718D01*
X0177508Y0083711D02*
X0189108Y0083711D01*
X0187470Y0082512D02*
X0183617Y0082512D01*
X0184040Y0081314D02*
X0186685Y0081314D01*
X0186306Y0080115D02*
X0184040Y0080115D01*
X0180807Y0080115D02*
X0179940Y0080115D01*
X0179940Y0081314D02*
X0180807Y0081314D01*
X0180807Y0082512D02*
X0179940Y0082512D01*
X0184040Y0077718D02*
X0186471Y0077718D01*
X0187049Y0076520D02*
X0183910Y0076520D01*
X0201387Y0082512D02*
X0201428Y0082512D01*
X0201428Y0088505D02*
X0186769Y0088505D01*
X0188671Y0089703D02*
X0201428Y0089703D01*
X0201428Y0090902D02*
X0189786Y0090902D01*
X0190282Y0092100D02*
X0201428Y0092100D01*
X0201428Y0093299D02*
X0190678Y0093299D01*
X0190678Y0094497D02*
X0201428Y0094497D01*
X0201428Y0095696D02*
X0190615Y0095696D01*
X0190119Y0096894D02*
X0201428Y0096894D01*
X0201428Y0098093D02*
X0189474Y0098093D01*
X0180186Y0089703D02*
X0178671Y0089703D01*
X0176769Y0088505D02*
X0182087Y0088505D01*
X0172087Y0088505D02*
X0166769Y0088505D01*
X0168671Y0089703D02*
X0170186Y0089703D01*
X0164428Y0094300D02*
X0159116Y0099612D01*
X0120053Y0099612D01*
X0118803Y0098362D01*
X0118803Y0085238D01*
X0119881Y0084160D01*
X0119881Y0080225D01*
X0110039Y0080225D02*
X0110039Y0089064D01*
X0111928Y0090954D01*
X0106909Y0093870D02*
X0106598Y0094621D01*
X0105754Y0095465D01*
X0105654Y0095506D01*
X0105654Y0097311D01*
X0102362Y0097311D01*
X0102362Y0098178D01*
X0105654Y0098178D01*
X0105654Y0098800D01*
X0108163Y0098800D01*
X0108163Y0098031D01*
X0111544Y0098031D01*
X0111544Y0097262D01*
X0108163Y0097262D01*
X0108163Y0095506D01*
X0108064Y0095465D01*
X0107220Y0094621D01*
X0106909Y0093870D01*
X0106649Y0094497D02*
X0107168Y0094497D01*
X0108163Y0095696D02*
X0105654Y0095696D01*
X0105654Y0096894D02*
X0108163Y0096894D01*
X0108163Y0098093D02*
X0102362Y0098093D01*
X0101495Y0098093D02*
X0094594Y0098093D01*
X0094594Y0098800D02*
X0098202Y0098800D01*
X0098202Y0098178D01*
X0101495Y0098178D01*
X0101495Y0097311D01*
X0098202Y0097311D01*
X0098202Y0095506D01*
X0098103Y0095465D01*
X0097259Y0094621D01*
X0097190Y0094455D01*
X0094334Y0094455D01*
X0094594Y0095081D01*
X0094594Y0098800D01*
X0094594Y0096894D02*
X0098202Y0096894D01*
X0098202Y0095696D02*
X0094594Y0095696D01*
X0094352Y0094497D02*
X0097208Y0094497D01*
X0101928Y0090855D02*
X0089527Y0090855D01*
X0089428Y0090954D01*
X0084263Y0090902D02*
X0080345Y0090902D01*
X0080293Y0091027D02*
X0079043Y0092277D01*
X0078843Y0092476D01*
X0078843Y0093916D01*
X0075659Y0093916D01*
X0075659Y0094684D01*
X0078843Y0094684D01*
X0078843Y0096012D01*
X0084263Y0096012D01*
X0084263Y0095081D01*
X0084587Y0094300D01*
X0084263Y0093519D01*
X0084263Y0088388D01*
X0084720Y0087286D01*
X0085564Y0086442D01*
X0085636Y0086412D01*
X0084862Y0086412D01*
X0084862Y0083178D01*
X0088154Y0083178D01*
X0088154Y0085022D01*
X0088045Y0085429D01*
X0087835Y0085794D01*
X0087644Y0085985D01*
X0092191Y0085985D01*
X0093293Y0086442D01*
X0094107Y0087255D01*
X0097190Y0087255D01*
X0097259Y0087089D01*
X0098103Y0086245D01*
X0098565Y0086054D01*
X0098565Y0079509D01*
X0098574Y0079486D01*
X0098574Y0076479D01*
X0098641Y0076318D01*
X0098641Y0075164D01*
X0092787Y0075164D01*
X0090211Y0075164D01*
X0089554Y0075820D01*
X0089554Y0078519D01*
X0089098Y0079621D01*
X0088254Y0080465D01*
X0088154Y0080506D01*
X0088154Y0082311D01*
X0084862Y0082311D01*
X0084862Y0083178D01*
X0083995Y0083178D01*
X0083995Y0086412D01*
X0082092Y0086412D01*
X0081685Y0086303D01*
X0081320Y0086092D01*
X0081022Y0085794D01*
X0080841Y0085480D01*
X0080841Y0089704D01*
X0080293Y0091027D01*
X0080841Y0089703D02*
X0084263Y0089703D01*
X0084263Y0088505D02*
X0080841Y0088505D01*
X0080841Y0087306D02*
X0084711Y0087306D01*
X0084862Y0086108D02*
X0083995Y0086108D01*
X0083995Y0084909D02*
X0084862Y0084909D01*
X0084862Y0083711D02*
X0083995Y0083711D01*
X0084862Y0082512D02*
X0098565Y0082512D01*
X0098565Y0081314D02*
X0088154Y0081314D01*
X0088604Y0080115D02*
X0098565Y0080115D01*
X0098574Y0078917D02*
X0089390Y0078917D01*
X0089554Y0077718D02*
X0098574Y0077718D01*
X0098574Y0076520D02*
X0089554Y0076520D01*
X0090054Y0075321D02*
X0098641Y0075321D01*
X0102241Y0074300D02*
X0102241Y0080149D01*
X0102165Y0080225D01*
X0102165Y0090619D01*
X0101928Y0090855D01*
X0106616Y0087112D02*
X0104133Y0084630D01*
X0104133Y0080225D01*
X0098565Y0083711D02*
X0088154Y0083711D01*
X0088154Y0084909D02*
X0098565Y0084909D01*
X0098434Y0086108D02*
X0092487Y0086108D01*
X0084263Y0092100D02*
X0079219Y0092100D01*
X0078843Y0093299D02*
X0084263Y0093299D01*
X0084505Y0094497D02*
X0075659Y0094497D01*
X0078843Y0095696D02*
X0084263Y0095696D01*
X0086928Y0099612D02*
X0088895Y0097646D01*
X0089428Y0097646D01*
X0086928Y0099612D02*
X0058796Y0099612D01*
X0053484Y0094300D01*
X0051653Y0092469D01*
X0043661Y0092469D01*
X0043661Y0076131D01*
X0047940Y0076520D02*
X0049817Y0076520D01*
X0049817Y0076637D02*
X0049817Y0074733D01*
X0053050Y0074733D01*
X0053050Y0073867D01*
X0049817Y0073867D01*
X0049817Y0071963D01*
X0049926Y0071556D01*
X0050136Y0071192D01*
X0050434Y0070894D01*
X0050799Y0070683D01*
X0051206Y0070574D01*
X0053050Y0070574D01*
X0053050Y0073866D01*
X0053917Y0073866D01*
X0053917Y0070574D01*
X0055722Y0070574D01*
X0055763Y0070475D01*
X0056607Y0069631D01*
X0057710Y0069174D01*
X0063037Y0069174D01*
X0064140Y0069631D01*
X0064984Y0070475D01*
X0065077Y0070700D01*
X0065188Y0070700D01*
X0065188Y0070042D01*
X0065645Y0068939D01*
X0066489Y0068095D01*
X0067592Y0067639D01*
X0072790Y0067639D01*
X0073286Y0067143D01*
X0066017Y0067143D01*
X0064914Y0066686D01*
X0064070Y0065842D01*
X0064040Y0065770D01*
X0064040Y0066637D01*
X0063931Y0067044D01*
X0063721Y0067408D01*
X0063423Y0067706D01*
X0063058Y0067917D01*
X0062651Y0068026D01*
X0060807Y0068026D01*
X0060807Y0064734D01*
X0059940Y0064734D01*
X0059940Y0068026D01*
X0058135Y0068026D01*
X0058094Y0068125D01*
X0057250Y0068969D01*
X0056147Y0069426D01*
X0050820Y0069426D01*
X0049717Y0068969D01*
X0048873Y0068125D01*
X0048780Y0067900D01*
X0047462Y0067900D01*
X0046984Y0067702D01*
X0046713Y0068357D01*
X0046710Y0068360D01*
X0046710Y0069001D01*
X0045982Y0070758D01*
X0045635Y0071105D01*
X0046640Y0071520D01*
X0047484Y0072364D01*
X0047940Y0073467D01*
X0047940Y0078794D01*
X0047484Y0079897D01*
X0047261Y0080120D01*
X0047261Y0088480D01*
X0047484Y0088703D01*
X0047552Y0088869D01*
X0052369Y0088869D01*
X0053105Y0089174D01*
X0053518Y0089174D01*
X0054666Y0088026D01*
X0053917Y0088026D01*
X0053917Y0084734D01*
X0053050Y0084734D01*
X0053050Y0088026D01*
X0051206Y0088026D01*
X0050799Y0087917D01*
X0050434Y0087706D01*
X0050136Y0087408D01*
X0049926Y0087044D01*
X0049817Y0086637D01*
X0049817Y0084733D01*
X0053050Y0084733D01*
X0053050Y0083867D01*
X0049817Y0083867D01*
X0049817Y0081963D01*
X0049926Y0081556D01*
X0050136Y0081192D01*
X0050434Y0080894D01*
X0050799Y0080683D01*
X0051206Y0080574D01*
X0053050Y0080574D01*
X0053050Y0083866D01*
X0053917Y0083866D01*
X0053917Y0080574D01*
X0055722Y0080574D01*
X0055763Y0080475D01*
X0056607Y0079631D01*
X0057406Y0079300D01*
X0056607Y0078969D01*
X0055763Y0078125D01*
X0055722Y0078026D01*
X0053917Y0078026D01*
X0053917Y0074734D01*
X0053050Y0074734D01*
X0053050Y0078026D01*
X0051206Y0078026D01*
X0050799Y0077917D01*
X0050434Y0077706D01*
X0050136Y0077408D01*
X0049926Y0077044D01*
X0049817Y0076637D01*
X0050455Y0077718D02*
X0047940Y0077718D01*
X0047890Y0078917D02*
X0056554Y0078917D01*
X0056123Y0080115D02*
X0047265Y0080115D01*
X0047261Y0081314D02*
X0050066Y0081314D01*
X0049817Y0082512D02*
X0047261Y0082512D01*
X0047261Y0083711D02*
X0049817Y0083711D01*
X0049817Y0084909D02*
X0047261Y0084909D01*
X0047261Y0086108D02*
X0049817Y0086108D01*
X0050077Y0087306D02*
X0047261Y0087306D01*
X0047285Y0088505D02*
X0054188Y0088505D01*
X0053917Y0087306D02*
X0053050Y0087306D01*
X0053050Y0086108D02*
X0053917Y0086108D01*
X0053917Y0084909D02*
X0053050Y0084909D01*
X0053050Y0083711D02*
X0053917Y0083711D01*
X0053917Y0082512D02*
X0053050Y0082512D01*
X0053050Y0081314D02*
X0053917Y0081314D01*
X0060373Y0084300D02*
X0072637Y0084300D01*
X0073377Y0083561D01*
X0078491Y0078446D01*
X0078491Y0072113D01*
X0082977Y0067627D01*
X0093503Y0067627D01*
X0093503Y0065658D02*
X0079862Y0065658D01*
X0071928Y0073591D01*
X0071220Y0074300D01*
X0060373Y0074300D01*
X0053917Y0075321D02*
X0053050Y0075321D01*
X0053050Y0074123D02*
X0047940Y0074123D01*
X0047940Y0075321D02*
X0049817Y0075321D01*
X0049817Y0072924D02*
X0047715Y0072924D01*
X0046845Y0071726D02*
X0049880Y0071726D01*
X0046077Y0070527D02*
X0055741Y0070527D01*
X0056382Y0069329D02*
X0057337Y0069329D01*
X0058089Y0068130D02*
X0066454Y0068130D01*
X0065507Y0066932D02*
X0063961Y0066932D01*
X0063410Y0069329D02*
X0065484Y0069329D01*
X0065188Y0070527D02*
X0065005Y0070527D01*
X0060807Y0066932D02*
X0059940Y0066932D01*
X0059940Y0065733D02*
X0060807Y0065733D01*
X0060807Y0063336D02*
X0059940Y0063336D01*
X0059940Y0062137D02*
X0060807Y0062137D01*
X0060807Y0060939D02*
X0059940Y0060939D01*
X0060723Y0059740D02*
X0057360Y0059740D01*
X0053917Y0057343D02*
X0053050Y0057343D01*
X0053050Y0056145D02*
X0053917Y0056145D01*
X0053917Y0054946D02*
X0053050Y0054946D01*
X0053050Y0053748D02*
X0053917Y0053748D01*
X0053917Y0052549D02*
X0053050Y0052549D01*
X0053050Y0051351D02*
X0053917Y0051351D01*
X0043661Y0046131D02*
X0043661Y0062469D01*
X0043705Y0062425D01*
X0046303Y0062425D01*
X0048178Y0064300D01*
X0053484Y0064300D01*
X0049608Y0059740D02*
X0048710Y0059740D01*
X0043661Y0062469D02*
X0043661Y0066318D01*
X0041928Y0068050D01*
X0037147Y0068130D02*
X0027428Y0068130D01*
X0027428Y0066932D02*
X0037217Y0066932D01*
X0037093Y0066027D02*
X0036686Y0066136D01*
X0035236Y0066136D01*
X0035236Y0062509D01*
X0038076Y0062509D01*
X0038076Y0064747D01*
X0037967Y0065154D01*
X0037756Y0065519D01*
X0037458Y0065817D01*
X0037093Y0066027D01*
X0037542Y0065733D02*
X0037713Y0065733D01*
X0038076Y0064534D02*
X0038682Y0064534D01*
X0038076Y0063336D02*
X0039381Y0063336D01*
X0039381Y0062137D02*
X0038076Y0062137D01*
X0038076Y0062430D02*
X0038076Y0060192D01*
X0037967Y0059785D01*
X0037756Y0059420D01*
X0037458Y0059122D01*
X0037093Y0058911D01*
X0036686Y0058802D01*
X0035236Y0058802D01*
X0035236Y0062429D01*
X0035156Y0062429D01*
X0035156Y0058802D01*
X0033706Y0058802D01*
X0033299Y0058911D01*
X0032934Y0059122D01*
X0032636Y0059420D01*
X0032426Y0059785D01*
X0032317Y0060192D01*
X0032317Y0062430D01*
X0035156Y0062430D01*
X0035156Y0062509D01*
X0032317Y0062509D01*
X0032317Y0064747D01*
X0032426Y0065154D01*
X0032636Y0065519D01*
X0032934Y0065817D01*
X0033299Y0066027D01*
X0033706Y0066136D01*
X0035156Y0066136D01*
X0035156Y0062509D01*
X0035236Y0062509D01*
X0035236Y0062430D01*
X0038076Y0062430D01*
X0038076Y0060939D02*
X0039381Y0060939D01*
X0039408Y0059740D02*
X0037941Y0059740D01*
X0039999Y0058542D02*
X0027428Y0058542D01*
X0027428Y0059740D02*
X0032451Y0059740D01*
X0032317Y0060939D02*
X0027428Y0060939D01*
X0027428Y0062137D02*
X0032317Y0062137D01*
X0032317Y0063336D02*
X0027428Y0063336D01*
X0027428Y0064534D02*
X0032317Y0064534D01*
X0032851Y0065733D02*
X0027428Y0065733D01*
X0027428Y0069329D02*
X0037283Y0069329D01*
X0037779Y0070527D02*
X0027428Y0070527D01*
X0027428Y0071726D02*
X0038843Y0071726D01*
X0039606Y0072924D02*
X0037599Y0072924D01*
X0037458Y0072783D02*
X0037756Y0073081D01*
X0037967Y0073446D01*
X0038076Y0073853D01*
X0038076Y0076091D01*
X0035236Y0076091D01*
X0035236Y0076170D01*
X0038076Y0076170D01*
X0038076Y0078408D01*
X0037967Y0078815D01*
X0037756Y0079180D01*
X0037458Y0079478D01*
X0037093Y0079689D01*
X0036686Y0079798D01*
X0035236Y0079798D01*
X0035236Y0076171D01*
X0035156Y0076171D01*
X0035156Y0079798D01*
X0033706Y0079798D01*
X0033299Y0079689D01*
X0032934Y0079478D01*
X0032636Y0079180D01*
X0032426Y0078815D01*
X0032317Y0078408D01*
X0032317Y0076170D01*
X0035156Y0076170D01*
X0035156Y0076091D01*
X0032317Y0076091D01*
X0032317Y0073853D01*
X0032426Y0073446D01*
X0032636Y0073081D01*
X0032934Y0072783D01*
X0033299Y0072573D01*
X0033706Y0072464D01*
X0035156Y0072464D01*
X0035156Y0076091D01*
X0035236Y0076091D01*
X0035236Y0072464D01*
X0036686Y0072464D01*
X0037093Y0072573D01*
X0037458Y0072783D01*
X0038076Y0074123D02*
X0039381Y0074123D01*
X0039381Y0075321D02*
X0038076Y0075321D01*
X0038076Y0076520D02*
X0039381Y0076520D01*
X0039381Y0077718D02*
X0038076Y0077718D01*
X0037908Y0078917D02*
X0039432Y0078917D01*
X0040056Y0080115D02*
X0027428Y0080115D01*
X0027428Y0078917D02*
X0032484Y0078917D01*
X0032317Y0077718D02*
X0027428Y0077718D01*
X0027428Y0076520D02*
X0032317Y0076520D01*
X0032317Y0075321D02*
X0027428Y0075321D01*
X0027428Y0074123D02*
X0032317Y0074123D01*
X0032794Y0072924D02*
X0027428Y0072924D01*
X0035156Y0072924D02*
X0035236Y0072924D01*
X0035236Y0074123D02*
X0035156Y0074123D01*
X0035156Y0075321D02*
X0035236Y0075321D01*
X0035236Y0076520D02*
X0035156Y0076520D01*
X0035156Y0077718D02*
X0035236Y0077718D01*
X0035236Y0078917D02*
X0035156Y0078917D01*
X0040061Y0081314D02*
X0027428Y0081314D01*
X0027428Y0082512D02*
X0040061Y0082512D01*
X0040061Y0083711D02*
X0027428Y0083711D01*
X0027428Y0084909D02*
X0040061Y0084909D01*
X0040061Y0086108D02*
X0027428Y0086108D01*
X0027428Y0087306D02*
X0040061Y0087306D01*
X0040036Y0088505D02*
X0027428Y0088505D01*
X0027428Y0089703D02*
X0032473Y0089703D01*
X0032426Y0089785D02*
X0032636Y0089420D01*
X0032934Y0089122D01*
X0033299Y0088911D01*
X0033706Y0088802D01*
X0035156Y0088802D01*
X0035156Y0092429D01*
X0035236Y0092429D01*
X0035236Y0088802D01*
X0036686Y0088802D01*
X0037093Y0088911D01*
X0037458Y0089122D01*
X0037756Y0089420D01*
X0037967Y0089785D01*
X0038076Y0090192D01*
X0038076Y0092430D01*
X0035236Y0092430D01*
X0035236Y0092509D01*
X0038076Y0092509D01*
X0038076Y0094747D01*
X0037967Y0095154D01*
X0037756Y0095519D01*
X0037458Y0095817D01*
X0037093Y0096027D01*
X0036686Y0096136D01*
X0035236Y0096136D01*
X0035236Y0092509D01*
X0035156Y0092509D01*
X0035156Y0092430D01*
X0032317Y0092430D01*
X0032317Y0090192D01*
X0032426Y0089785D01*
X0032317Y0090902D02*
X0027428Y0090902D01*
X0027428Y0092100D02*
X0032317Y0092100D01*
X0032317Y0092509D02*
X0035156Y0092509D01*
X0035156Y0096136D01*
X0033706Y0096136D01*
X0033299Y0096027D01*
X0032934Y0095817D01*
X0032636Y0095519D01*
X0032426Y0095154D01*
X0032317Y0094747D01*
X0032317Y0092509D01*
X0032317Y0093299D02*
X0027428Y0093299D01*
X0027428Y0094497D02*
X0032317Y0094497D01*
X0032813Y0095696D02*
X0027428Y0095696D01*
X0027428Y0096894D02*
X0040497Y0096894D01*
X0039614Y0095696D02*
X0037579Y0095696D01*
X0038076Y0094497D02*
X0039381Y0094497D01*
X0039381Y0093299D02*
X0038076Y0093299D01*
X0038076Y0092100D02*
X0039381Y0092100D01*
X0039381Y0090902D02*
X0038076Y0090902D01*
X0037920Y0089703D02*
X0039424Y0089703D01*
X0035236Y0089703D02*
X0035156Y0089703D01*
X0035156Y0090902D02*
X0035236Y0090902D01*
X0035236Y0092100D02*
X0035156Y0092100D01*
X0035156Y0093299D02*
X0035236Y0093299D01*
X0035236Y0094497D02*
X0035156Y0094497D01*
X0035156Y0095696D02*
X0035236Y0095696D01*
X0027428Y0098093D02*
X0048860Y0098093D01*
X0048417Y0096894D02*
X0046825Y0096894D01*
X0053484Y0094300D02*
X0057546Y0090237D01*
X0075991Y0090237D01*
X0077241Y0088987D01*
X0077241Y0082425D01*
X0080366Y0079300D01*
X0080366Y0073050D01*
X0083821Y0069595D01*
X0093503Y0069595D01*
X0093503Y0071564D02*
X0102630Y0071564D01*
X0103803Y0072738D01*
X0102241Y0074300D01*
X0103803Y0072738D02*
X0106616Y0072738D01*
X0100366Y0068363D02*
X0099116Y0067113D01*
X0099116Y0060550D01*
X0098319Y0059753D01*
X0093503Y0059753D01*
X0093503Y0063690D02*
X0075806Y0063690D01*
X0071928Y0059812D01*
X0050585Y0069329D02*
X0046574Y0069329D01*
X0046807Y0068130D02*
X0048878Y0068130D01*
X0053050Y0071726D02*
X0053917Y0071726D01*
X0053917Y0072924D02*
X0053050Y0072924D01*
X0053050Y0076520D02*
X0053917Y0076520D01*
X0053917Y0077718D02*
X0053050Y0077718D01*
X0071928Y0085009D02*
X0072637Y0084300D01*
X0080841Y0086108D02*
X0081347Y0086108D01*
X0068582Y0094300D02*
X0060373Y0094300D01*
X0084428Y0075855D02*
X0088720Y0071564D01*
X0093503Y0071564D01*
X0124428Y0094300D02*
X0131692Y0087036D01*
X0131692Y0080225D01*
X0135366Y0079613D02*
X0145053Y0089300D01*
X0149428Y0089300D01*
X0154428Y0094300D01*
X0158671Y0089703D02*
X0160186Y0089703D01*
X0162087Y0088505D02*
X0156769Y0088505D01*
X0144428Y0094300D02*
X0141928Y0094300D01*
X0135366Y0087737D01*
X0135366Y0084300D01*
X0134204Y0047755D02*
X0099653Y0047755D01*
X0099653Y0046557D02*
X0134204Y0046557D01*
X0134204Y0042961D02*
X0133154Y0042961D01*
X0134025Y0041763D02*
X0134204Y0041763D01*
X0134883Y0039366D02*
X0135041Y0039366D01*
X0093503Y0042036D02*
X0086692Y0042036D01*
X0087241Y0042113D01*
X0077866Y0037425D02*
X0077866Y0034307D01*
X0077873Y0034300D01*
X0057247Y0039366D02*
X0056388Y0039366D01*
X0055726Y0040564D02*
X0027428Y0040564D01*
X0027428Y0039366D02*
X0050776Y0039366D01*
X0049073Y0038167D02*
X0045906Y0038167D01*
X0046882Y0041763D02*
X0049870Y0041763D01*
X0049817Y0042961D02*
X0047731Y0042961D01*
X0053050Y0042961D02*
X0053917Y0042961D01*
X0053917Y0041763D02*
X0053050Y0041763D01*
X0040440Y0041763D02*
X0027428Y0041763D01*
X0027428Y0042961D02*
X0032756Y0042961D01*
X0032636Y0043081D02*
X0032934Y0042783D01*
X0033299Y0042573D01*
X0033706Y0042464D01*
X0035156Y0042464D01*
X0035156Y0046091D01*
X0032317Y0046091D01*
X0032317Y0043853D01*
X0032426Y0043446D01*
X0032636Y0043081D01*
X0032317Y0044160D02*
X0027428Y0044160D01*
X0027428Y0045358D02*
X0032317Y0045358D01*
X0032317Y0046170D02*
X0035156Y0046170D01*
X0035156Y0046091D01*
X0035236Y0046091D01*
X0035236Y0046170D01*
X0038076Y0046170D01*
X0038076Y0048408D01*
X0037967Y0048815D01*
X0037756Y0049180D01*
X0037458Y0049478D01*
X0037093Y0049689D01*
X0036686Y0049798D01*
X0035236Y0049798D01*
X0035236Y0046171D01*
X0035156Y0046171D01*
X0035156Y0049798D01*
X0033706Y0049798D01*
X0033299Y0049689D01*
X0032934Y0049478D01*
X0032636Y0049180D01*
X0032426Y0048815D01*
X0032317Y0048408D01*
X0032317Y0046170D01*
X0032317Y0046557D02*
X0027428Y0046557D01*
X0027428Y0047755D02*
X0032317Y0047755D01*
X0032506Y0048954D02*
X0027428Y0048954D01*
X0027428Y0050152D02*
X0040061Y0050152D01*
X0040061Y0051351D02*
X0027428Y0051351D01*
X0027428Y0052549D02*
X0040061Y0052549D01*
X0040061Y0053748D02*
X0027428Y0053748D01*
X0027428Y0054946D02*
X0040061Y0054946D01*
X0040061Y0056145D02*
X0027428Y0056145D01*
X0027428Y0057343D02*
X0040061Y0057343D01*
X0035236Y0059740D02*
X0035156Y0059740D01*
X0035156Y0060939D02*
X0035236Y0060939D01*
X0035236Y0062137D02*
X0035156Y0062137D01*
X0035156Y0063336D02*
X0035236Y0063336D01*
X0035236Y0064534D02*
X0035156Y0064534D01*
X0035156Y0065733D02*
X0035236Y0065733D01*
X0035156Y0048954D02*
X0035236Y0048954D01*
X0035236Y0047755D02*
X0035156Y0047755D01*
X0035156Y0046557D02*
X0035236Y0046557D01*
X0035236Y0046091D02*
X0038076Y0046091D01*
X0038076Y0043853D01*
X0037967Y0043446D01*
X0037756Y0043081D01*
X0037458Y0042783D01*
X0037093Y0042573D01*
X0036686Y0042464D01*
X0035236Y0042464D01*
X0035236Y0046091D01*
X0035236Y0045358D02*
X0035156Y0045358D01*
X0035156Y0044160D02*
X0035236Y0044160D01*
X0035236Y0042961D02*
X0035156Y0042961D01*
X0037636Y0042961D02*
X0039591Y0042961D01*
X0039381Y0044160D02*
X0038076Y0044160D01*
X0038076Y0045358D02*
X0039381Y0045358D01*
X0039381Y0046557D02*
X0038076Y0046557D01*
X0038076Y0047755D02*
X0039381Y0047755D01*
X0039447Y0048954D02*
X0037887Y0048954D01*
X0038856Y0038167D02*
X0027428Y0038167D01*
X0044679Y0029778D02*
X0049728Y0029778D01*
X0049588Y0026182D02*
X0045018Y0026182D01*
X0045766Y0017793D02*
X0049213Y0017793D01*
D30*
X0065678Y0021175D03*
X0050678Y0028050D03*
X0065678Y0029612D03*
X0081928Y0028050D03*
X0088491Y0037425D03*
X0093803Y0036800D03*
X0087241Y0042113D03*
X0108178Y0039613D03*
X0109428Y0049300D03*
X0124428Y0049300D03*
X0129741Y0039613D03*
X0148803Y0038988D03*
X0159428Y0040863D03*
X0170678Y0040863D03*
X0175053Y0031800D03*
X0150053Y0026487D03*
X0119428Y0019300D03*
X0107866Y0022425D03*
X0107866Y0026800D03*
X0065678Y0039300D03*
X0085678Y0053987D03*
X0109428Y0064300D03*
X0100366Y0068363D03*
X0106616Y0072738D03*
X0124428Y0064300D03*
X0133491Y0066175D03*
X0134116Y0073988D03*
X0135366Y0079613D03*
X0135366Y0084300D03*
X0106616Y0087112D03*
X0095747Y0085712D03*
X0082553Y0089300D03*
X0096303Y0097112D03*
X0041928Y0068050D03*
X0029428Y0028050D03*
X0148803Y0049300D03*
X0151928Y0057112D03*
X0165366Y0074613D03*
M02*
