%
M48
M72
T01C0.02362
T02C0.03500
T03C0.03937
%
T01
X60678Y79300
X65678Y71800
X81997Y77587
X98397Y85863
X106928Y66800
X126928Y66800
X149428Y66800
X153491Y60862
X148803Y49300
X162553Y47112
X148803Y38988
X126928Y46800
X106928Y46800
X86928Y42113
X84428Y38050
X64428Y45237
X56928Y41800
X50678Y28050
X29428Y28050
X84428Y26800
X105991Y23675
X134116Y25862
X172553Y35863
X176303Y70550
X176303Y76800
X151928Y76800
X85678Y60550
T02
X74428Y94300
X84428Y94300
X94428Y94300
X104428Y94300
X114428Y94300
X124428Y94300
X134428Y94300
T03
X194428Y34359
X194428Y47942
X194428Y65658
X194428Y79241
M30
