G75*
%MOIN*%
%OFA0B0*%
%FSLAX25Y25*%
%IPPOS*%
%LPD*%
%AMOC8*
5,1,8,0,0,1.08239X$1,22.5*
%
%ADD10C,0.00000*%
%ADD11C,0.00394*%
D10*
X0024428Y0011800D02*
X0024428Y0101800D01*
X0204428Y0101800D01*
X0204428Y0011800D01*
X0024428Y0011800D01*
X0192459Y0047942D02*
X0192461Y0048030D01*
X0192467Y0048118D01*
X0192477Y0048206D01*
X0192491Y0048294D01*
X0192508Y0048380D01*
X0192530Y0048466D01*
X0192555Y0048550D01*
X0192585Y0048634D01*
X0192617Y0048716D01*
X0192654Y0048796D01*
X0192694Y0048875D01*
X0192738Y0048952D01*
X0192785Y0049027D01*
X0192835Y0049099D01*
X0192889Y0049170D01*
X0192945Y0049237D01*
X0193005Y0049303D01*
X0193067Y0049365D01*
X0193133Y0049425D01*
X0193200Y0049481D01*
X0193271Y0049535D01*
X0193343Y0049585D01*
X0193418Y0049632D01*
X0193495Y0049676D01*
X0193574Y0049716D01*
X0193654Y0049753D01*
X0193736Y0049785D01*
X0193820Y0049815D01*
X0193904Y0049840D01*
X0193990Y0049862D01*
X0194076Y0049879D01*
X0194164Y0049893D01*
X0194252Y0049903D01*
X0194340Y0049909D01*
X0194428Y0049911D01*
X0194516Y0049909D01*
X0194604Y0049903D01*
X0194692Y0049893D01*
X0194780Y0049879D01*
X0194866Y0049862D01*
X0194952Y0049840D01*
X0195036Y0049815D01*
X0195120Y0049785D01*
X0195202Y0049753D01*
X0195282Y0049716D01*
X0195361Y0049676D01*
X0195438Y0049632D01*
X0195513Y0049585D01*
X0195585Y0049535D01*
X0195656Y0049481D01*
X0195723Y0049425D01*
X0195789Y0049365D01*
X0195851Y0049303D01*
X0195911Y0049237D01*
X0195967Y0049170D01*
X0196021Y0049099D01*
X0196071Y0049027D01*
X0196118Y0048952D01*
X0196162Y0048875D01*
X0196202Y0048796D01*
X0196239Y0048716D01*
X0196271Y0048634D01*
X0196301Y0048550D01*
X0196326Y0048466D01*
X0196348Y0048380D01*
X0196365Y0048294D01*
X0196379Y0048206D01*
X0196389Y0048118D01*
X0196395Y0048030D01*
X0196397Y0047942D01*
X0196395Y0047854D01*
X0196389Y0047766D01*
X0196379Y0047678D01*
X0196365Y0047590D01*
X0196348Y0047504D01*
X0196326Y0047418D01*
X0196301Y0047334D01*
X0196271Y0047250D01*
X0196239Y0047168D01*
X0196202Y0047088D01*
X0196162Y0047009D01*
X0196118Y0046932D01*
X0196071Y0046857D01*
X0196021Y0046785D01*
X0195967Y0046714D01*
X0195911Y0046647D01*
X0195851Y0046581D01*
X0195789Y0046519D01*
X0195723Y0046459D01*
X0195656Y0046403D01*
X0195585Y0046349D01*
X0195513Y0046299D01*
X0195438Y0046252D01*
X0195361Y0046208D01*
X0195282Y0046168D01*
X0195202Y0046131D01*
X0195120Y0046099D01*
X0195036Y0046069D01*
X0194952Y0046044D01*
X0194866Y0046022D01*
X0194780Y0046005D01*
X0194692Y0045991D01*
X0194604Y0045981D01*
X0194516Y0045975D01*
X0194428Y0045973D01*
X0194340Y0045975D01*
X0194252Y0045981D01*
X0194164Y0045991D01*
X0194076Y0046005D01*
X0193990Y0046022D01*
X0193904Y0046044D01*
X0193820Y0046069D01*
X0193736Y0046099D01*
X0193654Y0046131D01*
X0193574Y0046168D01*
X0193495Y0046208D01*
X0193418Y0046252D01*
X0193343Y0046299D01*
X0193271Y0046349D01*
X0193200Y0046403D01*
X0193133Y0046459D01*
X0193067Y0046519D01*
X0193005Y0046581D01*
X0192945Y0046647D01*
X0192889Y0046714D01*
X0192835Y0046785D01*
X0192785Y0046857D01*
X0192738Y0046932D01*
X0192694Y0047009D01*
X0192654Y0047088D01*
X0192617Y0047168D01*
X0192585Y0047250D01*
X0192555Y0047334D01*
X0192530Y0047418D01*
X0192508Y0047504D01*
X0192491Y0047590D01*
X0192477Y0047678D01*
X0192467Y0047766D01*
X0192461Y0047854D01*
X0192459Y0047942D01*
X0192459Y0065658D02*
X0192461Y0065746D01*
X0192467Y0065834D01*
X0192477Y0065922D01*
X0192491Y0066010D01*
X0192508Y0066096D01*
X0192530Y0066182D01*
X0192555Y0066266D01*
X0192585Y0066350D01*
X0192617Y0066432D01*
X0192654Y0066512D01*
X0192694Y0066591D01*
X0192738Y0066668D01*
X0192785Y0066743D01*
X0192835Y0066815D01*
X0192889Y0066886D01*
X0192945Y0066953D01*
X0193005Y0067019D01*
X0193067Y0067081D01*
X0193133Y0067141D01*
X0193200Y0067197D01*
X0193271Y0067251D01*
X0193343Y0067301D01*
X0193418Y0067348D01*
X0193495Y0067392D01*
X0193574Y0067432D01*
X0193654Y0067469D01*
X0193736Y0067501D01*
X0193820Y0067531D01*
X0193904Y0067556D01*
X0193990Y0067578D01*
X0194076Y0067595D01*
X0194164Y0067609D01*
X0194252Y0067619D01*
X0194340Y0067625D01*
X0194428Y0067627D01*
X0194516Y0067625D01*
X0194604Y0067619D01*
X0194692Y0067609D01*
X0194780Y0067595D01*
X0194866Y0067578D01*
X0194952Y0067556D01*
X0195036Y0067531D01*
X0195120Y0067501D01*
X0195202Y0067469D01*
X0195282Y0067432D01*
X0195361Y0067392D01*
X0195438Y0067348D01*
X0195513Y0067301D01*
X0195585Y0067251D01*
X0195656Y0067197D01*
X0195723Y0067141D01*
X0195789Y0067081D01*
X0195851Y0067019D01*
X0195911Y0066953D01*
X0195967Y0066886D01*
X0196021Y0066815D01*
X0196071Y0066743D01*
X0196118Y0066668D01*
X0196162Y0066591D01*
X0196202Y0066512D01*
X0196239Y0066432D01*
X0196271Y0066350D01*
X0196301Y0066266D01*
X0196326Y0066182D01*
X0196348Y0066096D01*
X0196365Y0066010D01*
X0196379Y0065922D01*
X0196389Y0065834D01*
X0196395Y0065746D01*
X0196397Y0065658D01*
X0196395Y0065570D01*
X0196389Y0065482D01*
X0196379Y0065394D01*
X0196365Y0065306D01*
X0196348Y0065220D01*
X0196326Y0065134D01*
X0196301Y0065050D01*
X0196271Y0064966D01*
X0196239Y0064884D01*
X0196202Y0064804D01*
X0196162Y0064725D01*
X0196118Y0064648D01*
X0196071Y0064573D01*
X0196021Y0064501D01*
X0195967Y0064430D01*
X0195911Y0064363D01*
X0195851Y0064297D01*
X0195789Y0064235D01*
X0195723Y0064175D01*
X0195656Y0064119D01*
X0195585Y0064065D01*
X0195513Y0064015D01*
X0195438Y0063968D01*
X0195361Y0063924D01*
X0195282Y0063884D01*
X0195202Y0063847D01*
X0195120Y0063815D01*
X0195036Y0063785D01*
X0194952Y0063760D01*
X0194866Y0063738D01*
X0194780Y0063721D01*
X0194692Y0063707D01*
X0194604Y0063697D01*
X0194516Y0063691D01*
X0194428Y0063689D01*
X0194340Y0063691D01*
X0194252Y0063697D01*
X0194164Y0063707D01*
X0194076Y0063721D01*
X0193990Y0063738D01*
X0193904Y0063760D01*
X0193820Y0063785D01*
X0193736Y0063815D01*
X0193654Y0063847D01*
X0193574Y0063884D01*
X0193495Y0063924D01*
X0193418Y0063968D01*
X0193343Y0064015D01*
X0193271Y0064065D01*
X0193200Y0064119D01*
X0193133Y0064175D01*
X0193067Y0064235D01*
X0193005Y0064297D01*
X0192945Y0064363D01*
X0192889Y0064430D01*
X0192835Y0064501D01*
X0192785Y0064573D01*
X0192738Y0064648D01*
X0192694Y0064725D01*
X0192654Y0064804D01*
X0192617Y0064884D01*
X0192585Y0064966D01*
X0192555Y0065050D01*
X0192530Y0065134D01*
X0192508Y0065220D01*
X0192491Y0065306D01*
X0192477Y0065394D01*
X0192467Y0065482D01*
X0192461Y0065570D01*
X0192459Y0065658D01*
D11*
X0191476Y0077272D02*
X0197381Y0077272D01*
X0197468Y0077274D01*
X0197555Y0077280D01*
X0197642Y0077289D01*
X0197728Y0077303D01*
X0197813Y0077320D01*
X0197898Y0077341D01*
X0197981Y0077366D01*
X0198064Y0077394D01*
X0198145Y0077426D01*
X0198224Y0077462D01*
X0198302Y0077501D01*
X0198378Y0077543D01*
X0198452Y0077589D01*
X0198524Y0077638D01*
X0198594Y0077690D01*
X0198661Y0077745D01*
X0198726Y0077803D01*
X0198789Y0077864D01*
X0198848Y0077928D01*
X0198905Y0077994D01*
X0198958Y0078063D01*
X0199009Y0078134D01*
X0199056Y0078207D01*
X0199101Y0078282D01*
X0199141Y0078359D01*
X0199179Y0078437D01*
X0199212Y0078518D01*
X0199243Y0078599D01*
X0199269Y0078682D01*
X0199292Y0078767D01*
X0199311Y0078852D01*
X0199326Y0078937D01*
X0199338Y0079024D01*
X0199346Y0079110D01*
X0199350Y0079197D01*
X0199350Y0079285D01*
X0199346Y0079372D01*
X0199338Y0079458D01*
X0199326Y0079545D01*
X0199311Y0079630D01*
X0199292Y0079715D01*
X0199269Y0079800D01*
X0199243Y0079883D01*
X0199212Y0079964D01*
X0199179Y0080045D01*
X0199141Y0080123D01*
X0199101Y0080200D01*
X0199056Y0080275D01*
X0199009Y0080348D01*
X0198958Y0080419D01*
X0198905Y0080488D01*
X0198848Y0080554D01*
X0198789Y0080618D01*
X0198726Y0080679D01*
X0198661Y0080737D01*
X0198594Y0080792D01*
X0198524Y0080844D01*
X0198452Y0080893D01*
X0198378Y0080939D01*
X0198302Y0080981D01*
X0198224Y0081020D01*
X0198145Y0081056D01*
X0198064Y0081088D01*
X0197981Y0081116D01*
X0197898Y0081141D01*
X0197813Y0081162D01*
X0197728Y0081179D01*
X0197642Y0081193D01*
X0197555Y0081202D01*
X0197468Y0081208D01*
X0197381Y0081210D01*
X0197381Y0081209D02*
X0191476Y0081209D01*
X0191476Y0081210D02*
X0191389Y0081208D01*
X0191302Y0081202D01*
X0191215Y0081193D01*
X0191129Y0081179D01*
X0191044Y0081162D01*
X0190959Y0081141D01*
X0190876Y0081116D01*
X0190793Y0081088D01*
X0190712Y0081056D01*
X0190633Y0081020D01*
X0190555Y0080981D01*
X0190479Y0080939D01*
X0190405Y0080893D01*
X0190333Y0080844D01*
X0190263Y0080792D01*
X0190196Y0080737D01*
X0190131Y0080679D01*
X0190068Y0080618D01*
X0190009Y0080554D01*
X0189952Y0080488D01*
X0189899Y0080419D01*
X0189848Y0080348D01*
X0189801Y0080275D01*
X0189756Y0080200D01*
X0189716Y0080123D01*
X0189678Y0080045D01*
X0189645Y0079964D01*
X0189614Y0079883D01*
X0189588Y0079800D01*
X0189565Y0079715D01*
X0189546Y0079630D01*
X0189531Y0079545D01*
X0189519Y0079458D01*
X0189511Y0079372D01*
X0189507Y0079285D01*
X0189507Y0079197D01*
X0189511Y0079110D01*
X0189519Y0079024D01*
X0189531Y0078937D01*
X0189546Y0078852D01*
X0189565Y0078767D01*
X0189588Y0078682D01*
X0189614Y0078599D01*
X0189645Y0078518D01*
X0189678Y0078437D01*
X0189716Y0078359D01*
X0189756Y0078282D01*
X0189801Y0078207D01*
X0189848Y0078134D01*
X0189899Y0078063D01*
X0189952Y0077994D01*
X0190009Y0077928D01*
X0190068Y0077864D01*
X0190131Y0077803D01*
X0190196Y0077745D01*
X0190263Y0077690D01*
X0190333Y0077638D01*
X0190405Y0077589D01*
X0190479Y0077543D01*
X0190555Y0077501D01*
X0190633Y0077462D01*
X0190712Y0077426D01*
X0190793Y0077394D01*
X0190876Y0077366D01*
X0190959Y0077341D01*
X0191044Y0077320D01*
X0191129Y0077303D01*
X0191215Y0077289D01*
X0191302Y0077280D01*
X0191389Y0077274D01*
X0191476Y0077272D01*
X0191476Y0036328D02*
X0197381Y0036328D01*
X0197468Y0036326D01*
X0197555Y0036320D01*
X0197642Y0036311D01*
X0197728Y0036297D01*
X0197813Y0036280D01*
X0197898Y0036259D01*
X0197981Y0036234D01*
X0198064Y0036206D01*
X0198145Y0036174D01*
X0198224Y0036138D01*
X0198302Y0036099D01*
X0198378Y0036057D01*
X0198452Y0036011D01*
X0198524Y0035962D01*
X0198594Y0035910D01*
X0198661Y0035855D01*
X0198726Y0035797D01*
X0198789Y0035736D01*
X0198848Y0035672D01*
X0198905Y0035606D01*
X0198958Y0035537D01*
X0199009Y0035466D01*
X0199056Y0035393D01*
X0199101Y0035318D01*
X0199141Y0035241D01*
X0199179Y0035163D01*
X0199212Y0035082D01*
X0199243Y0035001D01*
X0199269Y0034918D01*
X0199292Y0034833D01*
X0199311Y0034748D01*
X0199326Y0034663D01*
X0199338Y0034576D01*
X0199346Y0034490D01*
X0199350Y0034403D01*
X0199350Y0034315D01*
X0199346Y0034228D01*
X0199338Y0034142D01*
X0199326Y0034055D01*
X0199311Y0033970D01*
X0199292Y0033885D01*
X0199269Y0033800D01*
X0199243Y0033717D01*
X0199212Y0033636D01*
X0199179Y0033555D01*
X0199141Y0033477D01*
X0199101Y0033400D01*
X0199056Y0033325D01*
X0199009Y0033252D01*
X0198958Y0033181D01*
X0198905Y0033112D01*
X0198848Y0033046D01*
X0198789Y0032982D01*
X0198726Y0032921D01*
X0198661Y0032863D01*
X0198594Y0032808D01*
X0198524Y0032756D01*
X0198452Y0032707D01*
X0198378Y0032661D01*
X0198302Y0032619D01*
X0198224Y0032580D01*
X0198145Y0032544D01*
X0198064Y0032512D01*
X0197981Y0032484D01*
X0197898Y0032459D01*
X0197813Y0032438D01*
X0197728Y0032421D01*
X0197642Y0032407D01*
X0197555Y0032398D01*
X0197468Y0032392D01*
X0197381Y0032390D01*
X0197381Y0032391D02*
X0191476Y0032391D01*
X0191476Y0032390D02*
X0191389Y0032392D01*
X0191302Y0032398D01*
X0191215Y0032407D01*
X0191129Y0032421D01*
X0191044Y0032438D01*
X0190959Y0032459D01*
X0190876Y0032484D01*
X0190793Y0032512D01*
X0190712Y0032544D01*
X0190633Y0032580D01*
X0190555Y0032619D01*
X0190479Y0032661D01*
X0190405Y0032707D01*
X0190333Y0032756D01*
X0190263Y0032808D01*
X0190196Y0032863D01*
X0190131Y0032921D01*
X0190068Y0032982D01*
X0190009Y0033046D01*
X0189952Y0033112D01*
X0189899Y0033181D01*
X0189848Y0033252D01*
X0189801Y0033325D01*
X0189756Y0033400D01*
X0189716Y0033477D01*
X0189678Y0033555D01*
X0189645Y0033636D01*
X0189614Y0033717D01*
X0189588Y0033800D01*
X0189565Y0033885D01*
X0189546Y0033970D01*
X0189531Y0034055D01*
X0189519Y0034142D01*
X0189511Y0034228D01*
X0189507Y0034315D01*
X0189507Y0034403D01*
X0189511Y0034490D01*
X0189519Y0034576D01*
X0189531Y0034663D01*
X0189546Y0034748D01*
X0189565Y0034833D01*
X0189588Y0034918D01*
X0189614Y0035001D01*
X0189645Y0035082D01*
X0189678Y0035163D01*
X0189716Y0035241D01*
X0189756Y0035318D01*
X0189801Y0035393D01*
X0189848Y0035466D01*
X0189899Y0035537D01*
X0189952Y0035606D01*
X0190009Y0035672D01*
X0190068Y0035736D01*
X0190131Y0035797D01*
X0190196Y0035855D01*
X0190263Y0035910D01*
X0190333Y0035962D01*
X0190405Y0036011D01*
X0190479Y0036057D01*
X0190555Y0036099D01*
X0190633Y0036138D01*
X0190712Y0036174D01*
X0190793Y0036206D01*
X0190876Y0036234D01*
X0190959Y0036259D01*
X0191044Y0036280D01*
X0191129Y0036297D01*
X0191215Y0036311D01*
X0191302Y0036320D01*
X0191389Y0036326D01*
X0191476Y0036328D01*
M02*
