G75*
%MOIN*%
%OFA0B0*%
%FSLAX25Y25*%
%IPPOS*%
%LPD*%
%AMOC8*
5,1,8,0,0,1.08239X$1,22.5*
%
%ADD10C,0.00000*%
%ADD11C,0.00200*%
%ADD12C,0.00500*%
%ADD13C,0.00400*%
D10*
X0037794Y0060631D02*
X0037794Y0195631D01*
X0112794Y0195631D01*
X0112794Y0060631D01*
X0037794Y0060631D01*
X0064467Y0070631D02*
X0064469Y0070719D01*
X0064475Y0070807D01*
X0064485Y0070895D01*
X0064499Y0070983D01*
X0064516Y0071069D01*
X0064538Y0071155D01*
X0064563Y0071239D01*
X0064593Y0071323D01*
X0064625Y0071405D01*
X0064662Y0071485D01*
X0064702Y0071564D01*
X0064746Y0071641D01*
X0064793Y0071716D01*
X0064843Y0071788D01*
X0064897Y0071859D01*
X0064953Y0071926D01*
X0065013Y0071992D01*
X0065075Y0072054D01*
X0065141Y0072114D01*
X0065208Y0072170D01*
X0065279Y0072224D01*
X0065351Y0072274D01*
X0065426Y0072321D01*
X0065503Y0072365D01*
X0065582Y0072405D01*
X0065662Y0072442D01*
X0065744Y0072474D01*
X0065828Y0072504D01*
X0065912Y0072529D01*
X0065998Y0072551D01*
X0066084Y0072568D01*
X0066172Y0072582D01*
X0066260Y0072592D01*
X0066348Y0072598D01*
X0066436Y0072600D01*
X0066524Y0072598D01*
X0066612Y0072592D01*
X0066700Y0072582D01*
X0066788Y0072568D01*
X0066874Y0072551D01*
X0066960Y0072529D01*
X0067044Y0072504D01*
X0067128Y0072474D01*
X0067210Y0072442D01*
X0067290Y0072405D01*
X0067369Y0072365D01*
X0067446Y0072321D01*
X0067521Y0072274D01*
X0067593Y0072224D01*
X0067664Y0072170D01*
X0067731Y0072114D01*
X0067797Y0072054D01*
X0067859Y0071992D01*
X0067919Y0071926D01*
X0067975Y0071859D01*
X0068029Y0071788D01*
X0068079Y0071716D01*
X0068126Y0071641D01*
X0068170Y0071564D01*
X0068210Y0071485D01*
X0068247Y0071405D01*
X0068279Y0071323D01*
X0068309Y0071239D01*
X0068334Y0071155D01*
X0068356Y0071069D01*
X0068373Y0070983D01*
X0068387Y0070895D01*
X0068397Y0070807D01*
X0068403Y0070719D01*
X0068405Y0070631D01*
X0068403Y0070543D01*
X0068397Y0070455D01*
X0068387Y0070367D01*
X0068373Y0070279D01*
X0068356Y0070193D01*
X0068334Y0070107D01*
X0068309Y0070023D01*
X0068279Y0069939D01*
X0068247Y0069857D01*
X0068210Y0069777D01*
X0068170Y0069698D01*
X0068126Y0069621D01*
X0068079Y0069546D01*
X0068029Y0069474D01*
X0067975Y0069403D01*
X0067919Y0069336D01*
X0067859Y0069270D01*
X0067797Y0069208D01*
X0067731Y0069148D01*
X0067664Y0069092D01*
X0067593Y0069038D01*
X0067521Y0068988D01*
X0067446Y0068941D01*
X0067369Y0068897D01*
X0067290Y0068857D01*
X0067210Y0068820D01*
X0067128Y0068788D01*
X0067044Y0068758D01*
X0066960Y0068733D01*
X0066874Y0068711D01*
X0066788Y0068694D01*
X0066700Y0068680D01*
X0066612Y0068670D01*
X0066524Y0068664D01*
X0066436Y0068662D01*
X0066348Y0068664D01*
X0066260Y0068670D01*
X0066172Y0068680D01*
X0066084Y0068694D01*
X0065998Y0068711D01*
X0065912Y0068733D01*
X0065828Y0068758D01*
X0065744Y0068788D01*
X0065662Y0068820D01*
X0065582Y0068857D01*
X0065503Y0068897D01*
X0065426Y0068941D01*
X0065351Y0068988D01*
X0065279Y0069038D01*
X0065208Y0069092D01*
X0065141Y0069148D01*
X0065075Y0069208D01*
X0065013Y0069270D01*
X0064953Y0069336D01*
X0064897Y0069403D01*
X0064843Y0069474D01*
X0064793Y0069546D01*
X0064746Y0069621D01*
X0064702Y0069698D01*
X0064662Y0069777D01*
X0064625Y0069857D01*
X0064593Y0069939D01*
X0064563Y0070023D01*
X0064538Y0070107D01*
X0064516Y0070193D01*
X0064499Y0070279D01*
X0064485Y0070367D01*
X0064475Y0070455D01*
X0064469Y0070543D01*
X0064467Y0070631D01*
X0082183Y0070631D02*
X0082185Y0070719D01*
X0082191Y0070807D01*
X0082201Y0070895D01*
X0082215Y0070983D01*
X0082232Y0071069D01*
X0082254Y0071155D01*
X0082279Y0071239D01*
X0082309Y0071323D01*
X0082341Y0071405D01*
X0082378Y0071485D01*
X0082418Y0071564D01*
X0082462Y0071641D01*
X0082509Y0071716D01*
X0082559Y0071788D01*
X0082613Y0071859D01*
X0082669Y0071926D01*
X0082729Y0071992D01*
X0082791Y0072054D01*
X0082857Y0072114D01*
X0082924Y0072170D01*
X0082995Y0072224D01*
X0083067Y0072274D01*
X0083142Y0072321D01*
X0083219Y0072365D01*
X0083298Y0072405D01*
X0083378Y0072442D01*
X0083460Y0072474D01*
X0083544Y0072504D01*
X0083628Y0072529D01*
X0083714Y0072551D01*
X0083800Y0072568D01*
X0083888Y0072582D01*
X0083976Y0072592D01*
X0084064Y0072598D01*
X0084152Y0072600D01*
X0084240Y0072598D01*
X0084328Y0072592D01*
X0084416Y0072582D01*
X0084504Y0072568D01*
X0084590Y0072551D01*
X0084676Y0072529D01*
X0084760Y0072504D01*
X0084844Y0072474D01*
X0084926Y0072442D01*
X0085006Y0072405D01*
X0085085Y0072365D01*
X0085162Y0072321D01*
X0085237Y0072274D01*
X0085309Y0072224D01*
X0085380Y0072170D01*
X0085447Y0072114D01*
X0085513Y0072054D01*
X0085575Y0071992D01*
X0085635Y0071926D01*
X0085691Y0071859D01*
X0085745Y0071788D01*
X0085795Y0071716D01*
X0085842Y0071641D01*
X0085886Y0071564D01*
X0085926Y0071485D01*
X0085963Y0071405D01*
X0085995Y0071323D01*
X0086025Y0071239D01*
X0086050Y0071155D01*
X0086072Y0071069D01*
X0086089Y0070983D01*
X0086103Y0070895D01*
X0086113Y0070807D01*
X0086119Y0070719D01*
X0086121Y0070631D01*
X0086119Y0070543D01*
X0086113Y0070455D01*
X0086103Y0070367D01*
X0086089Y0070279D01*
X0086072Y0070193D01*
X0086050Y0070107D01*
X0086025Y0070023D01*
X0085995Y0069939D01*
X0085963Y0069857D01*
X0085926Y0069777D01*
X0085886Y0069698D01*
X0085842Y0069621D01*
X0085795Y0069546D01*
X0085745Y0069474D01*
X0085691Y0069403D01*
X0085635Y0069336D01*
X0085575Y0069270D01*
X0085513Y0069208D01*
X0085447Y0069148D01*
X0085380Y0069092D01*
X0085309Y0069038D01*
X0085237Y0068988D01*
X0085162Y0068941D01*
X0085085Y0068897D01*
X0085006Y0068857D01*
X0084926Y0068820D01*
X0084844Y0068788D01*
X0084760Y0068758D01*
X0084676Y0068733D01*
X0084590Y0068711D01*
X0084504Y0068694D01*
X0084416Y0068680D01*
X0084328Y0068670D01*
X0084240Y0068664D01*
X0084152Y0068662D01*
X0084064Y0068664D01*
X0083976Y0068670D01*
X0083888Y0068680D01*
X0083800Y0068694D01*
X0083714Y0068711D01*
X0083628Y0068733D01*
X0083544Y0068758D01*
X0083460Y0068788D01*
X0083378Y0068820D01*
X0083298Y0068857D01*
X0083219Y0068897D01*
X0083142Y0068941D01*
X0083067Y0068988D01*
X0082995Y0069038D01*
X0082924Y0069092D01*
X0082857Y0069148D01*
X0082791Y0069208D01*
X0082729Y0069270D01*
X0082669Y0069336D01*
X0082613Y0069403D01*
X0082559Y0069474D01*
X0082509Y0069546D01*
X0082462Y0069621D01*
X0082418Y0069698D01*
X0082378Y0069777D01*
X0082341Y0069857D01*
X0082309Y0069939D01*
X0082279Y0070023D01*
X0082254Y0070107D01*
X0082232Y0070193D01*
X0082215Y0070279D01*
X0082201Y0070367D01*
X0082191Y0070455D01*
X0082185Y0070543D01*
X0082183Y0070631D01*
D11*
X0097207Y0129087D02*
X0099008Y0129087D01*
X0099008Y0129988D01*
X0098708Y0130288D01*
X0098107Y0130288D01*
X0097807Y0129988D01*
X0097807Y0129087D01*
X0097507Y0130929D02*
X0098708Y0132130D01*
X0097507Y0132130D01*
X0097207Y0131830D01*
X0097207Y0131229D01*
X0097507Y0130929D01*
X0098708Y0130929D01*
X0099008Y0131229D01*
X0099008Y0131830D01*
X0098708Y0132130D01*
X0097507Y0132771D02*
X0097507Y0133071D01*
X0097207Y0133071D01*
X0097207Y0132771D01*
X0097507Y0132771D01*
X0097207Y0133691D02*
X0098408Y0134892D01*
X0098708Y0134892D01*
X0099008Y0134592D01*
X0099008Y0133992D01*
X0098708Y0133691D01*
X0097207Y0133691D02*
X0097207Y0134892D01*
X0097507Y0135533D02*
X0097207Y0135833D01*
X0097207Y0136434D01*
X0097507Y0136734D01*
X0098107Y0136734D01*
X0098408Y0136434D01*
X0098408Y0136133D01*
X0098107Y0135533D01*
X0099008Y0135533D01*
X0099008Y0136734D01*
X0099008Y0139087D02*
X0097207Y0139087D01*
X0097807Y0139087D02*
X0097807Y0139988D01*
X0098107Y0140288D01*
X0098708Y0140288D01*
X0099008Y0139988D01*
X0099008Y0139087D01*
X0098408Y0140929D02*
X0099008Y0141529D01*
X0097207Y0141529D01*
X0097207Y0140929D02*
X0097207Y0142130D01*
X0097207Y0142771D02*
X0097207Y0143071D01*
X0097507Y0143071D01*
X0097507Y0142771D01*
X0097207Y0142771D01*
X0097507Y0143691D02*
X0098708Y0144892D01*
X0097507Y0144892D01*
X0097207Y0144592D01*
X0097207Y0143992D01*
X0097507Y0143691D01*
X0098708Y0143691D01*
X0099008Y0143992D01*
X0099008Y0144592D01*
X0098708Y0144892D01*
X0098708Y0145533D02*
X0099008Y0145833D01*
X0099008Y0146434D01*
X0098708Y0146734D01*
X0098408Y0146734D01*
X0097207Y0145533D01*
X0097207Y0146734D01*
D12*
X0094544Y0152631D02*
X0087544Y0152631D01*
X0094544Y0152631D02*
X0100544Y0158631D01*
X0100545Y0182631D02*
X0100318Y0182954D01*
X0100083Y0183271D01*
X0099841Y0183583D01*
X0099591Y0183888D01*
X0099334Y0184188D01*
X0099070Y0184481D01*
X0098798Y0184768D01*
X0098520Y0185048D01*
X0098235Y0185321D01*
X0097944Y0185587D01*
X0097646Y0185846D01*
X0097342Y0186097D01*
X0097032Y0186342D01*
X0096716Y0186578D01*
X0096394Y0186807D01*
X0096067Y0187028D01*
X0095735Y0187241D01*
X0095398Y0187446D01*
X0095055Y0187643D01*
X0094709Y0187831D01*
X0094357Y0188011D01*
X0094002Y0188182D01*
X0093642Y0188345D01*
X0093279Y0188498D01*
X0092911Y0188643D01*
X0092541Y0188779D01*
X0092167Y0188906D01*
X0091790Y0189024D01*
X0091411Y0189133D01*
X0091029Y0189232D01*
X0090645Y0189322D01*
X0090258Y0189403D01*
X0089870Y0189474D01*
X0089481Y0189536D01*
X0089089Y0189589D01*
X0088697Y0189632D01*
X0088304Y0189665D01*
X0087910Y0189689D01*
X0087515Y0189703D01*
X0087121Y0189708D01*
X0086726Y0189703D01*
X0086332Y0189689D01*
X0085938Y0189665D01*
X0085544Y0189631D01*
X0065545Y0189631D02*
X0065151Y0189665D01*
X0064757Y0189689D01*
X0064363Y0189703D01*
X0063968Y0189708D01*
X0063574Y0189703D01*
X0063179Y0189689D01*
X0062785Y0189665D01*
X0062392Y0189632D01*
X0062000Y0189589D01*
X0061608Y0189536D01*
X0061219Y0189474D01*
X0060831Y0189403D01*
X0060444Y0189322D01*
X0060060Y0189232D01*
X0059678Y0189133D01*
X0059299Y0189024D01*
X0058922Y0188906D01*
X0058548Y0188779D01*
X0058178Y0188643D01*
X0057810Y0188498D01*
X0057447Y0188345D01*
X0057087Y0188182D01*
X0056732Y0188011D01*
X0056380Y0187831D01*
X0056034Y0187643D01*
X0055691Y0187446D01*
X0055354Y0187241D01*
X0055022Y0187028D01*
X0054695Y0186807D01*
X0054373Y0186578D01*
X0054057Y0186342D01*
X0053747Y0186097D01*
X0053443Y0185846D01*
X0053145Y0185587D01*
X0052854Y0185321D01*
X0052569Y0185048D01*
X0052291Y0184768D01*
X0052019Y0184481D01*
X0051755Y0184188D01*
X0051498Y0183888D01*
X0051248Y0183583D01*
X0051006Y0183271D01*
X0050771Y0182954D01*
X0050544Y0182631D01*
X0050544Y0158631D02*
X0056544Y0152631D01*
X0063544Y0152631D01*
D13*
X0082869Y0140722D02*
X0082869Y0139688D01*
X0083386Y0139171D01*
X0084421Y0139171D02*
X0084938Y0140205D01*
X0084938Y0140722D01*
X0084421Y0141239D01*
X0083386Y0141239D01*
X0082869Y0140722D01*
X0084421Y0139171D02*
X0085972Y0139171D01*
X0085972Y0141239D01*
X0085972Y0138016D02*
X0082869Y0138016D01*
X0085972Y0135948D01*
X0082869Y0135948D01*
X0083386Y0134794D02*
X0082869Y0134276D01*
X0082869Y0133242D01*
X0083386Y0132725D01*
X0085455Y0132725D01*
X0085972Y0133242D01*
X0085972Y0134276D01*
X0085455Y0134794D01*
M02*
