G75*
%MOIN*%
%OFA0B0*%
%FSLAX25Y25*%
%IPPOS*%
%LPD*%
%AMOC8*
5,1,8,0,0,1.08239X$1,22.5*
%
%ADD10C,0.00000*%
%ADD11C,0.00200*%
%ADD12C,0.00500*%
%ADD13C,0.00300*%
%ADD14C,0.01378*%
%ADD15R,0.01575X0.01575*%
D10*
X0037794Y0060631D02*
X0037794Y0195631D01*
X0112794Y0195631D01*
X0112794Y0060631D01*
X0037794Y0060631D01*
X0064467Y0070631D02*
X0064469Y0070719D01*
X0064475Y0070807D01*
X0064485Y0070895D01*
X0064499Y0070983D01*
X0064516Y0071069D01*
X0064538Y0071155D01*
X0064563Y0071239D01*
X0064593Y0071323D01*
X0064625Y0071405D01*
X0064662Y0071485D01*
X0064702Y0071564D01*
X0064746Y0071641D01*
X0064793Y0071716D01*
X0064843Y0071788D01*
X0064897Y0071859D01*
X0064953Y0071926D01*
X0065013Y0071992D01*
X0065075Y0072054D01*
X0065141Y0072114D01*
X0065208Y0072170D01*
X0065279Y0072224D01*
X0065351Y0072274D01*
X0065426Y0072321D01*
X0065503Y0072365D01*
X0065582Y0072405D01*
X0065662Y0072442D01*
X0065744Y0072474D01*
X0065828Y0072504D01*
X0065912Y0072529D01*
X0065998Y0072551D01*
X0066084Y0072568D01*
X0066172Y0072582D01*
X0066260Y0072592D01*
X0066348Y0072598D01*
X0066436Y0072600D01*
X0066524Y0072598D01*
X0066612Y0072592D01*
X0066700Y0072582D01*
X0066788Y0072568D01*
X0066874Y0072551D01*
X0066960Y0072529D01*
X0067044Y0072504D01*
X0067128Y0072474D01*
X0067210Y0072442D01*
X0067290Y0072405D01*
X0067369Y0072365D01*
X0067446Y0072321D01*
X0067521Y0072274D01*
X0067593Y0072224D01*
X0067664Y0072170D01*
X0067731Y0072114D01*
X0067797Y0072054D01*
X0067859Y0071992D01*
X0067919Y0071926D01*
X0067975Y0071859D01*
X0068029Y0071788D01*
X0068079Y0071716D01*
X0068126Y0071641D01*
X0068170Y0071564D01*
X0068210Y0071485D01*
X0068247Y0071405D01*
X0068279Y0071323D01*
X0068309Y0071239D01*
X0068334Y0071155D01*
X0068356Y0071069D01*
X0068373Y0070983D01*
X0068387Y0070895D01*
X0068397Y0070807D01*
X0068403Y0070719D01*
X0068405Y0070631D01*
X0068403Y0070543D01*
X0068397Y0070455D01*
X0068387Y0070367D01*
X0068373Y0070279D01*
X0068356Y0070193D01*
X0068334Y0070107D01*
X0068309Y0070023D01*
X0068279Y0069939D01*
X0068247Y0069857D01*
X0068210Y0069777D01*
X0068170Y0069698D01*
X0068126Y0069621D01*
X0068079Y0069546D01*
X0068029Y0069474D01*
X0067975Y0069403D01*
X0067919Y0069336D01*
X0067859Y0069270D01*
X0067797Y0069208D01*
X0067731Y0069148D01*
X0067664Y0069092D01*
X0067593Y0069038D01*
X0067521Y0068988D01*
X0067446Y0068941D01*
X0067369Y0068897D01*
X0067290Y0068857D01*
X0067210Y0068820D01*
X0067128Y0068788D01*
X0067044Y0068758D01*
X0066960Y0068733D01*
X0066874Y0068711D01*
X0066788Y0068694D01*
X0066700Y0068680D01*
X0066612Y0068670D01*
X0066524Y0068664D01*
X0066436Y0068662D01*
X0066348Y0068664D01*
X0066260Y0068670D01*
X0066172Y0068680D01*
X0066084Y0068694D01*
X0065998Y0068711D01*
X0065912Y0068733D01*
X0065828Y0068758D01*
X0065744Y0068788D01*
X0065662Y0068820D01*
X0065582Y0068857D01*
X0065503Y0068897D01*
X0065426Y0068941D01*
X0065351Y0068988D01*
X0065279Y0069038D01*
X0065208Y0069092D01*
X0065141Y0069148D01*
X0065075Y0069208D01*
X0065013Y0069270D01*
X0064953Y0069336D01*
X0064897Y0069403D01*
X0064843Y0069474D01*
X0064793Y0069546D01*
X0064746Y0069621D01*
X0064702Y0069698D01*
X0064662Y0069777D01*
X0064625Y0069857D01*
X0064593Y0069939D01*
X0064563Y0070023D01*
X0064538Y0070107D01*
X0064516Y0070193D01*
X0064499Y0070279D01*
X0064485Y0070367D01*
X0064475Y0070455D01*
X0064469Y0070543D01*
X0064467Y0070631D01*
X0082183Y0070631D02*
X0082185Y0070719D01*
X0082191Y0070807D01*
X0082201Y0070895D01*
X0082215Y0070983D01*
X0082232Y0071069D01*
X0082254Y0071155D01*
X0082279Y0071239D01*
X0082309Y0071323D01*
X0082341Y0071405D01*
X0082378Y0071485D01*
X0082418Y0071564D01*
X0082462Y0071641D01*
X0082509Y0071716D01*
X0082559Y0071788D01*
X0082613Y0071859D01*
X0082669Y0071926D01*
X0082729Y0071992D01*
X0082791Y0072054D01*
X0082857Y0072114D01*
X0082924Y0072170D01*
X0082995Y0072224D01*
X0083067Y0072274D01*
X0083142Y0072321D01*
X0083219Y0072365D01*
X0083298Y0072405D01*
X0083378Y0072442D01*
X0083460Y0072474D01*
X0083544Y0072504D01*
X0083628Y0072529D01*
X0083714Y0072551D01*
X0083800Y0072568D01*
X0083888Y0072582D01*
X0083976Y0072592D01*
X0084064Y0072598D01*
X0084152Y0072600D01*
X0084240Y0072598D01*
X0084328Y0072592D01*
X0084416Y0072582D01*
X0084504Y0072568D01*
X0084590Y0072551D01*
X0084676Y0072529D01*
X0084760Y0072504D01*
X0084844Y0072474D01*
X0084926Y0072442D01*
X0085006Y0072405D01*
X0085085Y0072365D01*
X0085162Y0072321D01*
X0085237Y0072274D01*
X0085309Y0072224D01*
X0085380Y0072170D01*
X0085447Y0072114D01*
X0085513Y0072054D01*
X0085575Y0071992D01*
X0085635Y0071926D01*
X0085691Y0071859D01*
X0085745Y0071788D01*
X0085795Y0071716D01*
X0085842Y0071641D01*
X0085886Y0071564D01*
X0085926Y0071485D01*
X0085963Y0071405D01*
X0085995Y0071323D01*
X0086025Y0071239D01*
X0086050Y0071155D01*
X0086072Y0071069D01*
X0086089Y0070983D01*
X0086103Y0070895D01*
X0086113Y0070807D01*
X0086119Y0070719D01*
X0086121Y0070631D01*
X0086119Y0070543D01*
X0086113Y0070455D01*
X0086103Y0070367D01*
X0086089Y0070279D01*
X0086072Y0070193D01*
X0086050Y0070107D01*
X0086025Y0070023D01*
X0085995Y0069939D01*
X0085963Y0069857D01*
X0085926Y0069777D01*
X0085886Y0069698D01*
X0085842Y0069621D01*
X0085795Y0069546D01*
X0085745Y0069474D01*
X0085691Y0069403D01*
X0085635Y0069336D01*
X0085575Y0069270D01*
X0085513Y0069208D01*
X0085447Y0069148D01*
X0085380Y0069092D01*
X0085309Y0069038D01*
X0085237Y0068988D01*
X0085162Y0068941D01*
X0085085Y0068897D01*
X0085006Y0068857D01*
X0084926Y0068820D01*
X0084844Y0068788D01*
X0084760Y0068758D01*
X0084676Y0068733D01*
X0084590Y0068711D01*
X0084504Y0068694D01*
X0084416Y0068680D01*
X0084328Y0068670D01*
X0084240Y0068664D01*
X0084152Y0068662D01*
X0084064Y0068664D01*
X0083976Y0068670D01*
X0083888Y0068680D01*
X0083800Y0068694D01*
X0083714Y0068711D01*
X0083628Y0068733D01*
X0083544Y0068758D01*
X0083460Y0068788D01*
X0083378Y0068820D01*
X0083298Y0068857D01*
X0083219Y0068897D01*
X0083142Y0068941D01*
X0083067Y0068988D01*
X0082995Y0069038D01*
X0082924Y0069092D01*
X0082857Y0069148D01*
X0082791Y0069208D01*
X0082729Y0069270D01*
X0082669Y0069336D01*
X0082613Y0069403D01*
X0082559Y0069474D01*
X0082509Y0069546D01*
X0082462Y0069621D01*
X0082418Y0069698D01*
X0082378Y0069777D01*
X0082341Y0069857D01*
X0082309Y0069939D01*
X0082279Y0070023D01*
X0082254Y0070107D01*
X0082232Y0070193D01*
X0082215Y0070279D01*
X0082201Y0070367D01*
X0082191Y0070455D01*
X0082185Y0070543D01*
X0082183Y0070631D01*
D11*
X0083886Y0086231D02*
X0084487Y0086231D01*
X0084787Y0086531D01*
X0085428Y0086531D02*
X0085428Y0086231D01*
X0085428Y0086531D02*
X0086629Y0087732D01*
X0086629Y0088032D01*
X0085428Y0088032D01*
X0084787Y0087732D02*
X0084487Y0088032D01*
X0083886Y0088032D01*
X0083586Y0087732D01*
X0083586Y0086531D01*
X0083886Y0086231D01*
X0088307Y0086231D02*
X0088307Y0088032D01*
X0089508Y0088032D01*
X0090149Y0088032D02*
X0090149Y0086231D01*
X0091049Y0086231D01*
X0091350Y0086531D01*
X0091350Y0086831D01*
X0091049Y0087132D01*
X0090149Y0087132D01*
X0091049Y0087132D02*
X0091350Y0087432D01*
X0091350Y0087732D01*
X0091049Y0088032D01*
X0090149Y0088032D01*
X0088907Y0087132D02*
X0088307Y0087132D01*
X0091990Y0087432D02*
X0092591Y0088032D01*
X0092591Y0086231D01*
X0093191Y0086231D02*
X0091990Y0086231D01*
X0094836Y0086531D02*
X0095136Y0086231D01*
X0095737Y0086231D01*
X0096037Y0086531D01*
X0096678Y0086531D02*
X0096978Y0086231D01*
X0097578Y0086231D01*
X0097879Y0086531D01*
X0097879Y0087132D01*
X0097578Y0087432D01*
X0097278Y0087432D01*
X0096678Y0087132D01*
X0096678Y0088032D01*
X0097879Y0088032D01*
X0096037Y0087732D02*
X0095737Y0088032D01*
X0095136Y0088032D01*
X0094836Y0087732D01*
X0094836Y0086531D01*
X0094404Y0080962D02*
X0093670Y0080962D01*
X0093303Y0080595D01*
X0093303Y0079127D01*
X0093670Y0078760D01*
X0094404Y0078760D01*
X0094771Y0079127D01*
X0095513Y0078760D02*
X0095513Y0080962D01*
X0096980Y0078760D01*
X0096980Y0080962D01*
X0097722Y0080228D02*
X0098456Y0080962D01*
X0098456Y0078760D01*
X0097722Y0078760D02*
X0099190Y0078760D01*
X0094771Y0080595D02*
X0094404Y0080962D01*
X0098107Y0102631D02*
X0098707Y0102631D01*
X0099008Y0102931D01*
X0099648Y0102931D02*
X0099949Y0102631D01*
X0100549Y0102631D01*
X0100849Y0102931D01*
X0100849Y0103231D01*
X0100549Y0103532D01*
X0099648Y0103532D01*
X0099648Y0102931D01*
X0099648Y0103532D02*
X0100249Y0104132D01*
X0100849Y0104432D01*
X0099008Y0104132D02*
X0098707Y0104432D01*
X0098107Y0104432D01*
X0097807Y0104132D01*
X0097807Y0102931D01*
X0098107Y0102631D01*
X0098137Y0109793D02*
X0097536Y0109793D01*
X0097236Y0110094D01*
X0097236Y0110394D01*
X0097536Y0110694D01*
X0098137Y0110694D01*
X0098437Y0110394D01*
X0098437Y0110094D01*
X0098137Y0109793D01*
X0098137Y0110694D02*
X0098437Y0110994D01*
X0098437Y0111295D01*
X0098137Y0111595D01*
X0097536Y0111595D01*
X0097236Y0111295D01*
X0097236Y0110994D01*
X0097536Y0110694D01*
X0096595Y0110094D02*
X0096295Y0109793D01*
X0095694Y0109793D01*
X0095394Y0110094D01*
X0095394Y0111295D01*
X0095694Y0111595D01*
X0096295Y0111595D01*
X0096595Y0111295D01*
X0094028Y0112918D02*
X0092827Y0112918D01*
X0094028Y0114119D01*
X0094028Y0114420D01*
X0093728Y0114720D01*
X0093128Y0114720D01*
X0092827Y0114420D01*
X0092187Y0114720D02*
X0092187Y0112918D01*
X0091586Y0113519D01*
X0090986Y0112918D01*
X0090986Y0114720D01*
X0090345Y0114420D02*
X0090045Y0114720D01*
X0089444Y0114720D01*
X0089144Y0114420D01*
X0089144Y0114119D01*
X0089444Y0113819D01*
X0090045Y0113819D01*
X0090345Y0113519D01*
X0090345Y0113219D01*
X0090045Y0112918D01*
X0089444Y0112918D01*
X0089144Y0113219D01*
X0083504Y0112732D02*
X0083203Y0113032D01*
X0082603Y0113032D01*
X0082303Y0112732D01*
X0082303Y0112432D01*
X0082603Y0112132D01*
X0083504Y0112132D01*
X0083504Y0112732D02*
X0083504Y0111531D01*
X0083203Y0111231D01*
X0082603Y0111231D01*
X0082303Y0111531D01*
X0081662Y0111531D02*
X0081362Y0111231D01*
X0080761Y0111231D01*
X0080461Y0111531D01*
X0080461Y0112732D01*
X0080761Y0113032D01*
X0081362Y0113032D01*
X0081662Y0112732D01*
X0075716Y0096157D02*
X0075716Y0094356D01*
X0076316Y0094356D02*
X0075115Y0094356D01*
X0074475Y0094656D02*
X0074475Y0095857D01*
X0074174Y0096157D01*
X0073274Y0096157D01*
X0073274Y0094356D01*
X0074174Y0094356D01*
X0074475Y0094656D01*
X0075115Y0095557D02*
X0075716Y0096157D01*
X0070816Y0092770D02*
X0070816Y0091569D01*
X0070516Y0091268D01*
X0069915Y0091268D01*
X0069615Y0091569D01*
X0070816Y0092770D01*
X0070516Y0093070D01*
X0069915Y0093070D01*
X0069615Y0092770D01*
X0069615Y0091569D01*
X0068974Y0091268D02*
X0067773Y0091268D01*
X0068374Y0091268D02*
X0068374Y0093070D01*
X0067773Y0092469D01*
X0067133Y0092770D02*
X0066832Y0093070D01*
X0066232Y0093070D01*
X0065932Y0092770D01*
X0065932Y0091569D01*
X0066232Y0091268D01*
X0066832Y0091268D01*
X0067133Y0091569D01*
X0057509Y0089441D02*
X0057143Y0089808D01*
X0056409Y0089808D01*
X0056042Y0089441D01*
X0055300Y0089808D02*
X0055300Y0087973D01*
X0054933Y0087606D01*
X0054199Y0087606D01*
X0053832Y0087973D01*
X0053832Y0089808D01*
X0056042Y0087606D02*
X0057509Y0089074D01*
X0057509Y0089441D01*
X0057509Y0087606D02*
X0056042Y0087606D01*
X0055624Y0099137D02*
X0056825Y0100338D01*
X0056825Y0100638D01*
X0056525Y0100938D01*
X0055925Y0100938D01*
X0055624Y0100638D01*
X0054984Y0100638D02*
X0054684Y0100938D01*
X0053783Y0100938D01*
X0053783Y0099137D01*
X0054684Y0099137D01*
X0054984Y0099437D01*
X0054984Y0100638D01*
X0055624Y0099137D02*
X0056825Y0099137D01*
X0056525Y0109449D02*
X0055925Y0109449D01*
X0055624Y0109750D01*
X0054984Y0109750D02*
X0054984Y0110951D01*
X0054684Y0111251D01*
X0053783Y0111251D01*
X0053783Y0109449D01*
X0054684Y0109449D01*
X0054984Y0109750D01*
X0055624Y0110951D02*
X0055925Y0111251D01*
X0056525Y0111251D01*
X0056825Y0110951D01*
X0056825Y0110650D01*
X0056525Y0110350D01*
X0056825Y0110050D01*
X0056825Y0109750D01*
X0056525Y0109449D01*
X0056525Y0110350D02*
X0056225Y0110350D01*
X0065461Y0118731D02*
X0065461Y0120532D01*
X0066362Y0120532D01*
X0066662Y0120232D01*
X0066662Y0119632D01*
X0066362Y0119331D01*
X0065461Y0119331D01*
X0066062Y0119331D02*
X0066662Y0118731D01*
X0067303Y0118731D02*
X0068504Y0118731D01*
X0067903Y0118731D02*
X0067903Y0120532D01*
X0067303Y0119932D01*
X0069486Y0112120D02*
X0069186Y0111820D01*
X0069186Y0110619D01*
X0069486Y0110318D01*
X0070087Y0110318D01*
X0070387Y0110619D01*
X0071028Y0110619D02*
X0071328Y0110318D01*
X0071928Y0110318D01*
X0072229Y0110619D01*
X0072229Y0110919D01*
X0071928Y0111219D01*
X0071628Y0111219D01*
X0071928Y0111219D02*
X0072229Y0111519D01*
X0072229Y0111820D01*
X0071928Y0112120D01*
X0071328Y0112120D01*
X0071028Y0111820D01*
X0070387Y0111820D02*
X0070087Y0112120D01*
X0069486Y0112120D01*
X0048904Y0077893D02*
X0047703Y0077893D01*
X0048303Y0077893D02*
X0048303Y0079695D01*
X0047703Y0079094D01*
X0047062Y0077893D02*
X0045861Y0077893D01*
X0046462Y0077893D02*
X0046462Y0079695D01*
X0045861Y0079094D01*
X0045220Y0079395D02*
X0044920Y0079695D01*
X0044320Y0079695D01*
X0044019Y0079395D01*
X0044019Y0078194D01*
X0044320Y0077893D01*
X0044920Y0077893D01*
X0045220Y0078194D01*
X0041507Y0074365D02*
X0041507Y0073164D01*
X0040306Y0074365D01*
X0040005Y0074365D01*
X0039705Y0074065D01*
X0039705Y0073464D01*
X0040005Y0073164D01*
X0040005Y0072523D02*
X0040306Y0072523D01*
X0040606Y0072223D01*
X0040606Y0071322D01*
X0041507Y0071322D02*
X0039705Y0071322D01*
X0039705Y0072223D01*
X0040005Y0072523D01*
X0040606Y0072223D02*
X0040906Y0072523D01*
X0041206Y0072523D01*
X0041507Y0072223D01*
X0041507Y0071322D01*
X0040606Y0070081D02*
X0040606Y0069481D01*
X0041507Y0069481D02*
X0039705Y0069481D01*
X0039705Y0070682D01*
X0040280Y0106668D02*
X0041481Y0106668D01*
X0041782Y0106969D01*
X0041782Y0107569D01*
X0041481Y0107869D01*
X0040881Y0108510D02*
X0040881Y0109711D01*
X0041782Y0109411D02*
X0039980Y0109411D01*
X0040881Y0108510D01*
X0040280Y0107869D02*
X0039980Y0107569D01*
X0039980Y0106969D01*
X0040280Y0106668D01*
X0043769Y0126356D02*
X0043769Y0128157D01*
X0044670Y0128157D01*
X0044970Y0127857D01*
X0044970Y0127257D01*
X0044670Y0126956D01*
X0043769Y0126956D01*
X0044370Y0126956D02*
X0044970Y0126356D01*
X0045611Y0126656D02*
X0045911Y0126356D01*
X0046512Y0126356D01*
X0046812Y0126656D01*
X0046812Y0127257D01*
X0046512Y0127557D01*
X0046211Y0127557D01*
X0045611Y0127257D01*
X0045611Y0128157D01*
X0046812Y0128157D01*
X0046512Y0134793D02*
X0046512Y0136595D01*
X0045611Y0135694D01*
X0046812Y0135694D01*
X0044970Y0135694D02*
X0044670Y0135394D01*
X0043769Y0135394D01*
X0043769Y0134793D02*
X0043769Y0136595D01*
X0044670Y0136595D01*
X0044970Y0136295D01*
X0044970Y0135694D01*
X0044370Y0135394D02*
X0044970Y0134793D01*
X0041382Y0146668D02*
X0039580Y0146668D01*
X0039580Y0147569D01*
X0039880Y0147869D01*
X0040481Y0147869D01*
X0040781Y0147569D01*
X0040781Y0146668D01*
X0040781Y0147269D02*
X0041382Y0147869D01*
X0041081Y0148510D02*
X0041382Y0148810D01*
X0041382Y0149411D01*
X0041081Y0149711D01*
X0040781Y0149711D01*
X0040481Y0149411D01*
X0040481Y0149110D01*
X0040481Y0149411D02*
X0040181Y0149711D01*
X0039880Y0149711D01*
X0039580Y0149411D01*
X0039580Y0148810D01*
X0039880Y0148510D01*
X0039580Y0161668D02*
X0039580Y0162569D01*
X0039880Y0162869D01*
X0040481Y0162869D01*
X0040781Y0162569D01*
X0040781Y0161668D01*
X0041382Y0161668D02*
X0039580Y0161668D01*
X0040781Y0162269D02*
X0041382Y0162869D01*
X0041081Y0163510D02*
X0041382Y0163810D01*
X0041382Y0164411D01*
X0041081Y0164711D01*
X0040781Y0164711D01*
X0040481Y0164411D01*
X0040481Y0163510D01*
X0041081Y0163510D01*
X0040481Y0163510D02*
X0039880Y0164110D01*
X0039580Y0164711D01*
X0039643Y0168856D02*
X0041444Y0168856D01*
X0041444Y0170057D01*
X0041444Y0170697D02*
X0041444Y0171598D01*
X0041144Y0171898D01*
X0039943Y0171898D01*
X0039643Y0171598D01*
X0039643Y0170697D01*
X0041444Y0170697D01*
X0041444Y0172539D02*
X0041444Y0173740D01*
X0041444Y0173140D02*
X0039643Y0173140D01*
X0040243Y0172539D01*
X0039643Y0174481D02*
X0041444Y0174481D01*
X0041444Y0175682D01*
X0041444Y0176322D02*
X0041444Y0177223D01*
X0041144Y0177523D01*
X0039943Y0177523D01*
X0039643Y0177223D01*
X0039643Y0176322D01*
X0041444Y0176322D01*
X0041444Y0178164D02*
X0040243Y0179365D01*
X0039943Y0179365D01*
X0039643Y0179065D01*
X0039643Y0178464D01*
X0039943Y0178164D01*
X0041444Y0178164D02*
X0041444Y0179365D01*
X0041444Y0180106D02*
X0041444Y0181307D01*
X0041444Y0181947D02*
X0041444Y0182848D01*
X0041144Y0183148D01*
X0039943Y0183148D01*
X0039643Y0182848D01*
X0039643Y0181947D01*
X0041444Y0181947D01*
X0041444Y0180106D02*
X0039643Y0180106D01*
X0039943Y0183789D02*
X0039643Y0184089D01*
X0039643Y0184690D01*
X0039943Y0184990D01*
X0040243Y0184990D01*
X0040543Y0184690D01*
X0040844Y0184990D01*
X0041144Y0184990D01*
X0041444Y0184690D01*
X0041444Y0184089D01*
X0041144Y0183789D01*
X0040543Y0184390D02*
X0040543Y0184690D01*
X0039643Y0185731D02*
X0041444Y0185731D01*
X0041444Y0186932D01*
X0041444Y0187572D02*
X0041444Y0188473D01*
X0041144Y0188773D01*
X0039943Y0188773D01*
X0039643Y0188473D01*
X0039643Y0187572D01*
X0041444Y0187572D01*
X0040543Y0189414D02*
X0040543Y0190615D01*
X0039643Y0190315D02*
X0040543Y0189414D01*
X0039643Y0190315D02*
X0041444Y0190315D01*
X0055957Y0179095D02*
X0057158Y0177293D01*
X0057798Y0177293D02*
X0058999Y0177293D01*
X0058399Y0177293D02*
X0058399Y0179095D01*
X0057798Y0178494D01*
X0057158Y0179095D02*
X0055957Y0177293D01*
X0072807Y0179806D02*
X0073107Y0179506D01*
X0073707Y0179506D01*
X0074008Y0179806D01*
X0074648Y0179506D02*
X0075849Y0180707D01*
X0075849Y0181007D01*
X0075549Y0181307D01*
X0074949Y0181307D01*
X0074648Y0181007D01*
X0074008Y0181007D02*
X0073707Y0181307D01*
X0073107Y0181307D01*
X0072807Y0181007D01*
X0072807Y0179806D01*
X0074648Y0179506D02*
X0075849Y0179506D01*
X0075954Y0175469D02*
X0075954Y0173968D01*
X0076254Y0173668D01*
X0076854Y0173668D01*
X0077155Y0173968D01*
X0077155Y0175469D01*
X0077795Y0175169D02*
X0078095Y0175469D01*
X0078696Y0175469D01*
X0078996Y0175169D01*
X0078996Y0174869D01*
X0078696Y0174569D01*
X0078996Y0174268D01*
X0078996Y0173968D01*
X0078696Y0173668D01*
X0078095Y0173668D01*
X0077795Y0173968D01*
X0078396Y0174569D02*
X0078696Y0174569D01*
X0085019Y0170407D02*
X0085920Y0170407D01*
X0086220Y0170107D01*
X0086220Y0169507D01*
X0085920Y0169206D01*
X0085019Y0169206D01*
X0085019Y0168606D02*
X0085019Y0170407D01*
X0085620Y0169206D02*
X0086220Y0168606D01*
X0086861Y0168606D02*
X0086861Y0168906D01*
X0088062Y0170107D01*
X0088062Y0170407D01*
X0086861Y0170407D01*
X0090019Y0173543D02*
X0090019Y0175345D01*
X0090920Y0175345D01*
X0091220Y0175045D01*
X0091220Y0174444D01*
X0090920Y0174144D01*
X0090019Y0174144D01*
X0090620Y0174144D02*
X0091220Y0173543D01*
X0091861Y0173844D02*
X0091861Y0174144D01*
X0092161Y0174444D01*
X0092762Y0174444D01*
X0093062Y0174144D01*
X0093062Y0173844D01*
X0092762Y0173543D01*
X0092161Y0173543D01*
X0091861Y0173844D01*
X0092161Y0174444D02*
X0091861Y0174744D01*
X0091861Y0175045D01*
X0092161Y0175345D01*
X0092762Y0175345D01*
X0093062Y0175045D01*
X0093062Y0174744D01*
X0092762Y0174444D01*
X0090528Y0190418D02*
X0089327Y0190418D01*
X0090528Y0191619D01*
X0090528Y0191920D01*
X0090228Y0192220D01*
X0089628Y0192220D01*
X0089327Y0191920D01*
X0088086Y0192220D02*
X0088086Y0190418D01*
X0087486Y0190418D02*
X0088687Y0190418D01*
X0087486Y0191619D02*
X0088086Y0192220D01*
X0086845Y0191920D02*
X0086545Y0192220D01*
X0085944Y0192220D01*
X0085644Y0191920D01*
X0085644Y0190719D01*
X0085944Y0190418D01*
X0086545Y0190418D01*
X0086845Y0190719D01*
X0075849Y0186068D02*
X0074648Y0186068D01*
X0075249Y0186068D02*
X0075249Y0187870D01*
X0074648Y0187269D01*
X0074008Y0187570D02*
X0073707Y0187870D01*
X0073107Y0187870D01*
X0072807Y0187570D01*
X0072807Y0186369D01*
X0073107Y0186068D01*
X0073707Y0186068D01*
X0074008Y0186369D01*
X0111393Y0186061D02*
X0113195Y0186061D01*
X0112594Y0185461D01*
X0113195Y0184860D01*
X0111393Y0184860D01*
X0111693Y0184220D02*
X0111393Y0183919D01*
X0111393Y0183319D01*
X0111693Y0183019D01*
X0111994Y0183019D01*
X0112294Y0183319D01*
X0112294Y0183919D01*
X0112594Y0184220D01*
X0112894Y0184220D01*
X0113195Y0183919D01*
X0113195Y0183319D01*
X0112894Y0183019D01*
X0113195Y0186702D02*
X0113195Y0187903D01*
X0113195Y0187302D02*
X0111393Y0187302D01*
X0111994Y0186702D01*
X0110757Y0121273D02*
X0109856Y0120373D01*
X0110156Y0120072D02*
X0108955Y0121273D01*
X0108955Y0120072D02*
X0110757Y0120072D01*
X0110757Y0119432D02*
X0110757Y0118231D01*
X0108955Y0118231D01*
X0109255Y0117590D02*
X0108955Y0117290D01*
X0108955Y0116690D01*
X0109255Y0116389D01*
X0110456Y0116389D01*
X0110757Y0116690D01*
X0110757Y0117290D01*
X0110456Y0117590D01*
X0109856Y0115749D02*
X0109255Y0115749D01*
X0108955Y0115449D01*
X0108955Y0114548D01*
X0110757Y0114548D01*
X0110156Y0114548D02*
X0110156Y0115449D01*
X0109856Y0115749D01*
X0110456Y0110046D02*
X0109255Y0110046D01*
X0108955Y0109746D01*
X0108955Y0109145D01*
X0109255Y0108845D01*
X0110456Y0108845D01*
X0110757Y0109145D01*
X0110757Y0109746D01*
X0110456Y0110046D01*
X0110757Y0108218D02*
X0110757Y0107617D01*
X0110757Y0107917D02*
X0108955Y0107917D01*
X0108955Y0107617D02*
X0108955Y0108218D01*
X0109255Y0106977D02*
X0109856Y0106977D01*
X0110156Y0106676D01*
X0110156Y0105775D01*
X0110757Y0105775D02*
X0108955Y0105775D01*
X0108955Y0106676D01*
X0109255Y0106977D01*
X0109255Y0100353D02*
X0108955Y0100052D01*
X0108955Y0099152D01*
X0110757Y0099152D01*
X0110757Y0100052D01*
X0110456Y0100353D01*
X0109255Y0100353D01*
X0109255Y0098511D02*
X0108955Y0098211D01*
X0108955Y0097310D01*
X0110757Y0097310D01*
X0110757Y0098211D01*
X0110456Y0098511D01*
X0109255Y0098511D01*
X0108955Y0096670D02*
X0110156Y0096670D01*
X0110757Y0096069D01*
X0110156Y0095469D01*
X0108955Y0095469D01*
X0109255Y0090353D02*
X0108955Y0090052D01*
X0108955Y0089152D01*
X0110757Y0089152D01*
X0110757Y0090052D01*
X0110456Y0090353D01*
X0109255Y0090353D01*
X0108955Y0088511D02*
X0110757Y0088511D01*
X0108955Y0087310D01*
X0110757Y0087310D01*
X0110456Y0086670D02*
X0109856Y0086670D01*
X0109856Y0086069D01*
X0110456Y0085469D02*
X0110757Y0085769D01*
X0110757Y0086369D01*
X0110456Y0086670D01*
X0109255Y0086670D02*
X0108955Y0086369D01*
X0108955Y0085769D01*
X0109255Y0085469D01*
X0110456Y0085469D01*
X0110519Y0073840D02*
X0110819Y0073540D01*
X0110819Y0072940D01*
X0110519Y0072639D01*
X0110519Y0071999D02*
X0110819Y0071699D01*
X0110819Y0070798D01*
X0109018Y0070798D01*
X0109018Y0071699D01*
X0109318Y0071999D01*
X0109618Y0071999D01*
X0109918Y0071699D01*
X0109918Y0070798D01*
X0109918Y0071699D02*
X0110219Y0071999D01*
X0110519Y0071999D01*
X0109318Y0072639D02*
X0109018Y0072940D01*
X0109018Y0073540D01*
X0109318Y0073840D01*
X0109618Y0073840D01*
X0109918Y0073540D01*
X0110219Y0073840D01*
X0110519Y0073840D01*
X0109918Y0073540D02*
X0109918Y0073240D01*
X0109018Y0070157D02*
X0109018Y0068956D01*
X0110819Y0068956D01*
X0109918Y0068956D02*
X0109918Y0069557D01*
D12*
X0095319Y0115606D02*
X0089020Y0115606D01*
X0090200Y0118756D02*
X0090202Y0118844D01*
X0090208Y0118932D01*
X0090218Y0119020D01*
X0090232Y0119108D01*
X0090249Y0119194D01*
X0090271Y0119280D01*
X0090296Y0119364D01*
X0090326Y0119448D01*
X0090358Y0119530D01*
X0090395Y0119610D01*
X0090435Y0119689D01*
X0090479Y0119766D01*
X0090526Y0119841D01*
X0090576Y0119913D01*
X0090630Y0119984D01*
X0090686Y0120051D01*
X0090746Y0120117D01*
X0090808Y0120179D01*
X0090874Y0120239D01*
X0090941Y0120295D01*
X0091012Y0120349D01*
X0091084Y0120399D01*
X0091159Y0120446D01*
X0091236Y0120490D01*
X0091315Y0120530D01*
X0091395Y0120567D01*
X0091477Y0120599D01*
X0091561Y0120629D01*
X0091645Y0120654D01*
X0091731Y0120676D01*
X0091817Y0120693D01*
X0091905Y0120707D01*
X0091993Y0120717D01*
X0092081Y0120723D01*
X0092169Y0120725D01*
X0092257Y0120723D01*
X0092345Y0120717D01*
X0092433Y0120707D01*
X0092521Y0120693D01*
X0092607Y0120676D01*
X0092693Y0120654D01*
X0092777Y0120629D01*
X0092861Y0120599D01*
X0092943Y0120567D01*
X0093023Y0120530D01*
X0093102Y0120490D01*
X0093179Y0120446D01*
X0093254Y0120399D01*
X0093326Y0120349D01*
X0093397Y0120295D01*
X0093464Y0120239D01*
X0093530Y0120179D01*
X0093592Y0120117D01*
X0093652Y0120051D01*
X0093708Y0119984D01*
X0093762Y0119913D01*
X0093812Y0119841D01*
X0093859Y0119766D01*
X0093903Y0119689D01*
X0093943Y0119610D01*
X0093980Y0119530D01*
X0094012Y0119448D01*
X0094042Y0119364D01*
X0094067Y0119280D01*
X0094089Y0119194D01*
X0094106Y0119108D01*
X0094120Y0119020D01*
X0094130Y0118932D01*
X0094136Y0118844D01*
X0094138Y0118756D01*
X0094136Y0118668D01*
X0094130Y0118580D01*
X0094120Y0118492D01*
X0094106Y0118404D01*
X0094089Y0118318D01*
X0094067Y0118232D01*
X0094042Y0118148D01*
X0094012Y0118064D01*
X0093980Y0117982D01*
X0093943Y0117902D01*
X0093903Y0117823D01*
X0093859Y0117746D01*
X0093812Y0117671D01*
X0093762Y0117599D01*
X0093708Y0117528D01*
X0093652Y0117461D01*
X0093592Y0117395D01*
X0093530Y0117333D01*
X0093464Y0117273D01*
X0093397Y0117217D01*
X0093326Y0117163D01*
X0093254Y0117113D01*
X0093179Y0117066D01*
X0093102Y0117022D01*
X0093023Y0116982D01*
X0092943Y0116945D01*
X0092861Y0116913D01*
X0092777Y0116883D01*
X0092693Y0116858D01*
X0092607Y0116836D01*
X0092521Y0116819D01*
X0092433Y0116805D01*
X0092345Y0116795D01*
X0092257Y0116789D01*
X0092169Y0116787D01*
X0092081Y0116789D01*
X0091993Y0116795D01*
X0091905Y0116805D01*
X0091817Y0116819D01*
X0091731Y0116836D01*
X0091645Y0116858D01*
X0091561Y0116883D01*
X0091477Y0116913D01*
X0091395Y0116945D01*
X0091315Y0116982D01*
X0091236Y0117022D01*
X0091159Y0117066D01*
X0091084Y0117113D01*
X0091012Y0117163D01*
X0090941Y0117217D01*
X0090874Y0117273D01*
X0090808Y0117333D01*
X0090746Y0117395D01*
X0090686Y0117461D01*
X0090630Y0117528D01*
X0090576Y0117599D01*
X0090526Y0117671D01*
X0090479Y0117746D01*
X0090435Y0117823D01*
X0090395Y0117902D01*
X0090358Y0117982D01*
X0090326Y0118064D01*
X0090296Y0118148D01*
X0090271Y0118232D01*
X0090249Y0118318D01*
X0090232Y0118404D01*
X0090218Y0118492D01*
X0090208Y0118580D01*
X0090202Y0118668D01*
X0090200Y0118756D01*
X0089020Y0121906D02*
X0095319Y0121906D01*
X0112306Y0124962D02*
X0051282Y0124962D01*
X0051282Y0166300D01*
X0112306Y0166300D01*
X0112306Y0124962D01*
X0052580Y0099054D02*
X0052580Y0096199D01*
X0052580Y0099054D02*
X0049194Y0099054D01*
X0047383Y0094428D02*
X0047383Y0092459D01*
X0049194Y0087833D02*
X0052580Y0087833D01*
X0052580Y0090687D01*
X0053306Y0168894D02*
X0042282Y0168894D01*
X0042282Y0173618D01*
X0053306Y0173618D01*
X0053306Y0168894D01*
X0053306Y0174519D02*
X0053306Y0179243D01*
X0042282Y0179243D01*
X0042282Y0174519D01*
X0053306Y0174519D01*
X0053306Y0180144D02*
X0053306Y0184868D01*
X0042282Y0184868D01*
X0042282Y0180144D01*
X0053306Y0180144D01*
X0053306Y0185769D02*
X0053306Y0190493D01*
X0042282Y0190493D01*
X0042282Y0185769D01*
X0053306Y0185769D01*
D13*
X0090985Y0170994D02*
X0090985Y0168575D01*
X0091468Y0168091D01*
X0092436Y0168091D01*
X0092920Y0168575D01*
X0092920Y0170994D01*
X0093931Y0170026D02*
X0094899Y0170994D01*
X0094899Y0168091D01*
X0095866Y0168091D02*
X0093931Y0168091D01*
X0101602Y0082983D02*
X0101252Y0082632D01*
X0101252Y0081231D01*
X0101602Y0080881D01*
X0102303Y0080881D01*
X0102653Y0081231D01*
X0103462Y0080881D02*
X0103462Y0082983D01*
X0104863Y0080881D01*
X0104863Y0082983D01*
X0105672Y0082632D02*
X0106022Y0082983D01*
X0106723Y0082983D01*
X0107073Y0082632D01*
X0107073Y0082282D01*
X0105672Y0080881D01*
X0107073Y0080881D01*
X0102653Y0082632D02*
X0102303Y0082983D01*
X0101602Y0082983D01*
D14*
X0064607Y0172193D03*
D15*
X0077770Y0186911D03*
X0061662Y0120043D03*
X0061662Y0110043D03*
M02*
