G75*
%MOIN*%
%OFA0B0*%
%FSLAX25Y25*%
%IPPOS*%
%LPD*%
%AMOC8*
5,1,8,0,0,1.08239X$1,22.5*
%
%ADD10C,0.00000*%
%ADD11C,0.06600*%
%ADD12C,0.40000*%
%ADD13R,0.10000X0.20000*%
%ADD14R,0.06500X0.06500*%
%ADD15C,0.06500*%
%ADD16R,0.06299X0.06299*%
%ADD17C,0.06299*%
%ADD18C,0.01600*%
%ADD19C,0.02756*%
%ADD20C,0.01000*%
%ADD21C,0.00800*%
D10*
X0037794Y0060631D02*
X0037794Y0195631D01*
X0112794Y0195631D01*
X0112794Y0060631D01*
X0037794Y0060631D01*
X0064467Y0070631D02*
X0064469Y0070719D01*
X0064475Y0070807D01*
X0064485Y0070895D01*
X0064499Y0070983D01*
X0064516Y0071069D01*
X0064538Y0071155D01*
X0064563Y0071239D01*
X0064593Y0071323D01*
X0064625Y0071405D01*
X0064662Y0071485D01*
X0064702Y0071564D01*
X0064746Y0071641D01*
X0064793Y0071716D01*
X0064843Y0071788D01*
X0064897Y0071859D01*
X0064953Y0071926D01*
X0065013Y0071992D01*
X0065075Y0072054D01*
X0065141Y0072114D01*
X0065208Y0072170D01*
X0065279Y0072224D01*
X0065351Y0072274D01*
X0065426Y0072321D01*
X0065503Y0072365D01*
X0065582Y0072405D01*
X0065662Y0072442D01*
X0065744Y0072474D01*
X0065828Y0072504D01*
X0065912Y0072529D01*
X0065998Y0072551D01*
X0066084Y0072568D01*
X0066172Y0072582D01*
X0066260Y0072592D01*
X0066348Y0072598D01*
X0066436Y0072600D01*
X0066524Y0072598D01*
X0066612Y0072592D01*
X0066700Y0072582D01*
X0066788Y0072568D01*
X0066874Y0072551D01*
X0066960Y0072529D01*
X0067044Y0072504D01*
X0067128Y0072474D01*
X0067210Y0072442D01*
X0067290Y0072405D01*
X0067369Y0072365D01*
X0067446Y0072321D01*
X0067521Y0072274D01*
X0067593Y0072224D01*
X0067664Y0072170D01*
X0067731Y0072114D01*
X0067797Y0072054D01*
X0067859Y0071992D01*
X0067919Y0071926D01*
X0067975Y0071859D01*
X0068029Y0071788D01*
X0068079Y0071716D01*
X0068126Y0071641D01*
X0068170Y0071564D01*
X0068210Y0071485D01*
X0068247Y0071405D01*
X0068279Y0071323D01*
X0068309Y0071239D01*
X0068334Y0071155D01*
X0068356Y0071069D01*
X0068373Y0070983D01*
X0068387Y0070895D01*
X0068397Y0070807D01*
X0068403Y0070719D01*
X0068405Y0070631D01*
X0068403Y0070543D01*
X0068397Y0070455D01*
X0068387Y0070367D01*
X0068373Y0070279D01*
X0068356Y0070193D01*
X0068334Y0070107D01*
X0068309Y0070023D01*
X0068279Y0069939D01*
X0068247Y0069857D01*
X0068210Y0069777D01*
X0068170Y0069698D01*
X0068126Y0069621D01*
X0068079Y0069546D01*
X0068029Y0069474D01*
X0067975Y0069403D01*
X0067919Y0069336D01*
X0067859Y0069270D01*
X0067797Y0069208D01*
X0067731Y0069148D01*
X0067664Y0069092D01*
X0067593Y0069038D01*
X0067521Y0068988D01*
X0067446Y0068941D01*
X0067369Y0068897D01*
X0067290Y0068857D01*
X0067210Y0068820D01*
X0067128Y0068788D01*
X0067044Y0068758D01*
X0066960Y0068733D01*
X0066874Y0068711D01*
X0066788Y0068694D01*
X0066700Y0068680D01*
X0066612Y0068670D01*
X0066524Y0068664D01*
X0066436Y0068662D01*
X0066348Y0068664D01*
X0066260Y0068670D01*
X0066172Y0068680D01*
X0066084Y0068694D01*
X0065998Y0068711D01*
X0065912Y0068733D01*
X0065828Y0068758D01*
X0065744Y0068788D01*
X0065662Y0068820D01*
X0065582Y0068857D01*
X0065503Y0068897D01*
X0065426Y0068941D01*
X0065351Y0068988D01*
X0065279Y0069038D01*
X0065208Y0069092D01*
X0065141Y0069148D01*
X0065075Y0069208D01*
X0065013Y0069270D01*
X0064953Y0069336D01*
X0064897Y0069403D01*
X0064843Y0069474D01*
X0064793Y0069546D01*
X0064746Y0069621D01*
X0064702Y0069698D01*
X0064662Y0069777D01*
X0064625Y0069857D01*
X0064593Y0069939D01*
X0064563Y0070023D01*
X0064538Y0070107D01*
X0064516Y0070193D01*
X0064499Y0070279D01*
X0064485Y0070367D01*
X0064475Y0070455D01*
X0064469Y0070543D01*
X0064467Y0070631D01*
X0082183Y0070631D02*
X0082185Y0070719D01*
X0082191Y0070807D01*
X0082201Y0070895D01*
X0082215Y0070983D01*
X0082232Y0071069D01*
X0082254Y0071155D01*
X0082279Y0071239D01*
X0082309Y0071323D01*
X0082341Y0071405D01*
X0082378Y0071485D01*
X0082418Y0071564D01*
X0082462Y0071641D01*
X0082509Y0071716D01*
X0082559Y0071788D01*
X0082613Y0071859D01*
X0082669Y0071926D01*
X0082729Y0071992D01*
X0082791Y0072054D01*
X0082857Y0072114D01*
X0082924Y0072170D01*
X0082995Y0072224D01*
X0083067Y0072274D01*
X0083142Y0072321D01*
X0083219Y0072365D01*
X0083298Y0072405D01*
X0083378Y0072442D01*
X0083460Y0072474D01*
X0083544Y0072504D01*
X0083628Y0072529D01*
X0083714Y0072551D01*
X0083800Y0072568D01*
X0083888Y0072582D01*
X0083976Y0072592D01*
X0084064Y0072598D01*
X0084152Y0072600D01*
X0084240Y0072598D01*
X0084328Y0072592D01*
X0084416Y0072582D01*
X0084504Y0072568D01*
X0084590Y0072551D01*
X0084676Y0072529D01*
X0084760Y0072504D01*
X0084844Y0072474D01*
X0084926Y0072442D01*
X0085006Y0072405D01*
X0085085Y0072365D01*
X0085162Y0072321D01*
X0085237Y0072274D01*
X0085309Y0072224D01*
X0085380Y0072170D01*
X0085447Y0072114D01*
X0085513Y0072054D01*
X0085575Y0071992D01*
X0085635Y0071926D01*
X0085691Y0071859D01*
X0085745Y0071788D01*
X0085795Y0071716D01*
X0085842Y0071641D01*
X0085886Y0071564D01*
X0085926Y0071485D01*
X0085963Y0071405D01*
X0085995Y0071323D01*
X0086025Y0071239D01*
X0086050Y0071155D01*
X0086072Y0071069D01*
X0086089Y0070983D01*
X0086103Y0070895D01*
X0086113Y0070807D01*
X0086119Y0070719D01*
X0086121Y0070631D01*
X0086119Y0070543D01*
X0086113Y0070455D01*
X0086103Y0070367D01*
X0086089Y0070279D01*
X0086072Y0070193D01*
X0086050Y0070107D01*
X0086025Y0070023D01*
X0085995Y0069939D01*
X0085963Y0069857D01*
X0085926Y0069777D01*
X0085886Y0069698D01*
X0085842Y0069621D01*
X0085795Y0069546D01*
X0085745Y0069474D01*
X0085691Y0069403D01*
X0085635Y0069336D01*
X0085575Y0069270D01*
X0085513Y0069208D01*
X0085447Y0069148D01*
X0085380Y0069092D01*
X0085309Y0069038D01*
X0085237Y0068988D01*
X0085162Y0068941D01*
X0085085Y0068897D01*
X0085006Y0068857D01*
X0084926Y0068820D01*
X0084844Y0068788D01*
X0084760Y0068758D01*
X0084676Y0068733D01*
X0084590Y0068711D01*
X0084504Y0068694D01*
X0084416Y0068680D01*
X0084328Y0068670D01*
X0084240Y0068664D01*
X0084152Y0068662D01*
X0084064Y0068664D01*
X0083976Y0068670D01*
X0083888Y0068680D01*
X0083800Y0068694D01*
X0083714Y0068711D01*
X0083628Y0068733D01*
X0083544Y0068758D01*
X0083460Y0068788D01*
X0083378Y0068820D01*
X0083298Y0068857D01*
X0083219Y0068897D01*
X0083142Y0068941D01*
X0083067Y0068988D01*
X0082995Y0069038D01*
X0082924Y0069092D01*
X0082857Y0069148D01*
X0082791Y0069208D01*
X0082729Y0069270D01*
X0082669Y0069336D01*
X0082613Y0069403D01*
X0082559Y0069474D01*
X0082509Y0069546D01*
X0082462Y0069621D01*
X0082418Y0069698D01*
X0082378Y0069777D01*
X0082341Y0069857D01*
X0082309Y0069939D01*
X0082279Y0070023D01*
X0082254Y0070107D01*
X0082232Y0070193D01*
X0082215Y0070279D01*
X0082201Y0070367D01*
X0082191Y0070455D01*
X0082185Y0070543D01*
X0082183Y0070631D01*
D11*
X0097735Y0067331D02*
X0097735Y0073931D01*
X0052853Y0073931D02*
X0052853Y0067331D01*
D12*
X0075544Y0170631D03*
D13*
X0045544Y0170631D03*
X0105544Y0170631D03*
D14*
X0104294Y0088131D03*
D15*
X0104294Y0098131D03*
X0104294Y0108131D03*
X0104294Y0118131D03*
D16*
X0091794Y0143131D03*
D17*
X0091794Y0133131D03*
D18*
X0083644Y0133492D02*
X0083644Y0121929D01*
X0084086Y0120863D01*
X0084901Y0120047D01*
X0096394Y0108555D01*
X0096394Y0102554D01*
X0096836Y0101488D01*
X0098769Y0099555D01*
X0098644Y0099255D01*
X0098644Y0097007D01*
X0099504Y0094930D01*
X0101094Y0093341D01*
X0101480Y0093181D01*
X0100807Y0093181D01*
X0100349Y0093058D01*
X0099939Y0092821D01*
X0099604Y0092486D01*
X0099367Y0092076D01*
X0099244Y0091618D01*
X0099244Y0088206D01*
X0104219Y0088206D01*
X0104219Y0088056D01*
X0099244Y0088056D01*
X0099244Y0084644D01*
X0099367Y0084186D01*
X0099604Y0083776D01*
X0099939Y0083441D01*
X0100349Y0083204D01*
X0100807Y0083081D01*
X0104219Y0083081D01*
X0104219Y0088056D01*
X0104369Y0088056D01*
X0104369Y0083081D01*
X0107781Y0083081D01*
X0108239Y0083204D01*
X0108649Y0083441D01*
X0108985Y0083776D01*
X0109222Y0084186D01*
X0109344Y0084644D01*
X0109344Y0088056D01*
X0104369Y0088056D01*
X0104369Y0088206D01*
X0109344Y0088206D01*
X0109344Y0091618D01*
X0109222Y0092076D01*
X0108985Y0092486D01*
X0108649Y0092821D01*
X0108239Y0093058D01*
X0107781Y0093181D01*
X0107108Y0093181D01*
X0107495Y0093341D01*
X0109084Y0094930D01*
X0109944Y0097007D01*
X0109944Y0099255D01*
X0109084Y0101331D01*
X0107495Y0102921D01*
X0106987Y0103131D01*
X0107495Y0103341D01*
X0109084Y0104930D01*
X0109944Y0107007D01*
X0109944Y0109255D01*
X0109084Y0111331D01*
X0107495Y0112921D01*
X0106987Y0113131D01*
X0107495Y0113341D01*
X0109084Y0114930D01*
X0109944Y0117007D01*
X0109944Y0118131D01*
X0110394Y0118131D01*
X0110394Y0063031D01*
X0101496Y0063031D01*
X0102567Y0064102D01*
X0103435Y0066197D01*
X0103435Y0075065D01*
X0102567Y0077160D01*
X0100964Y0078763D01*
X0098869Y0079631D01*
X0096601Y0079631D01*
X0094506Y0078763D01*
X0092903Y0077160D01*
X0092035Y0075065D01*
X0092035Y0066197D01*
X0092903Y0064102D01*
X0093974Y0063031D01*
X0056614Y0063031D01*
X0057685Y0064102D01*
X0058553Y0066197D01*
X0058553Y0075065D01*
X0057685Y0077160D01*
X0056082Y0078763D01*
X0053987Y0079631D01*
X0051719Y0079631D01*
X0049624Y0078763D01*
X0048021Y0077160D01*
X0047153Y0075065D01*
X0047153Y0066197D01*
X0048021Y0064102D01*
X0049092Y0063031D01*
X0040194Y0063031D01*
X0040194Y0158231D01*
X0040832Y0158231D01*
X0040832Y0155054D01*
X0041273Y0153988D01*
X0043957Y0151305D01*
X0043957Y0145895D01*
X0041898Y0143836D01*
X0041892Y0143822D01*
X0041154Y0143083D01*
X0040579Y0141695D01*
X0040579Y0140192D01*
X0041154Y0138803D01*
X0042217Y0137741D01*
X0043605Y0137165D01*
X0045108Y0137165D01*
X0046497Y0137741D01*
X0046700Y0137944D01*
X0047529Y0137116D01*
X0048918Y0136540D01*
X0050421Y0136540D01*
X0051809Y0137116D01*
X0052872Y0138178D01*
X0053447Y0139567D01*
X0053447Y0141070D01*
X0052872Y0142458D01*
X0052469Y0142861D01*
X0052469Y0144651D01*
X0052872Y0145053D01*
X0053246Y0145956D01*
X0056259Y0145956D01*
X0057079Y0145137D01*
X0057079Y0144567D01*
X0057654Y0143178D01*
X0058717Y0142116D01*
X0060105Y0141540D01*
X0061608Y0141540D01*
X0062997Y0142116D01*
X0064059Y0143178D01*
X0064635Y0144567D01*
X0064635Y0146070D01*
X0064169Y0147193D01*
X0064635Y0148317D01*
X0064635Y0149820D01*
X0064059Y0151208D01*
X0062997Y0152271D01*
X0061608Y0152846D01*
X0061039Y0152846D01*
X0060880Y0153005D01*
X0059851Y0153431D01*
X0055829Y0153431D01*
X0051027Y0158233D01*
X0051904Y0158596D01*
X0052579Y0159271D01*
X0052944Y0160154D01*
X0052944Y0181108D01*
X0052579Y0181990D01*
X0051904Y0182666D01*
X0051022Y0183031D01*
X0040194Y0183031D01*
X0040194Y0193231D01*
X0110394Y0193231D01*
X0110394Y0183031D01*
X0104947Y0183031D01*
X0104947Y0183882D01*
X0104372Y0185271D01*
X0103309Y0186334D01*
X0101921Y0186909D01*
X0100418Y0186909D01*
X0099029Y0186334D01*
X0097966Y0185271D01*
X0097391Y0183882D01*
X0097391Y0183313D01*
X0097145Y0183066D01*
X0096921Y0183159D01*
X0095418Y0183159D01*
X0094029Y0182584D01*
X0093879Y0182434D01*
X0093684Y0182752D01*
X0092677Y0184138D01*
X0091565Y0185440D01*
X0090353Y0186651D01*
X0089051Y0187764D01*
X0087665Y0188771D01*
X0086204Y0189666D01*
X0084678Y0190444D01*
X0083095Y0191099D01*
X0081466Y0191629D01*
X0079800Y0192029D01*
X0078108Y0192296D01*
X0076401Y0192431D01*
X0076344Y0192431D01*
X0076344Y0171431D01*
X0074744Y0171431D01*
X0074744Y0169831D01*
X0053744Y0169831D01*
X0053744Y0169774D01*
X0053879Y0168067D01*
X0054147Y0166375D01*
X0054546Y0164709D01*
X0055076Y0163080D01*
X0055731Y0161497D01*
X0056509Y0159971D01*
X0057404Y0158510D01*
X0058411Y0157124D01*
X0059524Y0155822D01*
X0060735Y0154610D01*
X0062038Y0153498D01*
X0063423Y0152491D01*
X0064884Y0151596D01*
X0066410Y0150818D01*
X0067993Y0150163D01*
X0069622Y0149633D01*
X0071288Y0149233D01*
X0072980Y0148965D01*
X0074688Y0148831D01*
X0074744Y0148831D01*
X0074744Y0169831D01*
X0076344Y0169831D01*
X0076344Y0148831D01*
X0076401Y0148831D01*
X0078108Y0148965D01*
X0079800Y0149233D01*
X0081466Y0149633D01*
X0083095Y0150163D01*
X0084678Y0150818D01*
X0086204Y0151596D01*
X0087665Y0152491D01*
X0089051Y0153498D01*
X0089294Y0153706D01*
X0089294Y0150618D01*
X0087175Y0150618D01*
X0086146Y0150192D01*
X0084896Y0148942D01*
X0084108Y0148154D01*
X0083682Y0147125D01*
X0083682Y0143486D01*
X0083279Y0143083D01*
X0082704Y0141695D01*
X0082704Y0141080D01*
X0082394Y0140333D01*
X0082394Y0135367D01*
X0082836Y0134301D01*
X0083644Y0133492D01*
X0083644Y0132564D02*
X0073568Y0132564D01*
X0073434Y0132241D02*
X0074010Y0133629D01*
X0074010Y0135132D01*
X0073434Y0136521D01*
X0072372Y0137584D01*
X0070983Y0138159D01*
X0070260Y0138159D01*
X0070260Y0138882D01*
X0069684Y0140271D01*
X0068622Y0141334D01*
X0067233Y0141909D01*
X0065730Y0141909D01*
X0064342Y0141334D01*
X0063279Y0140271D01*
X0062704Y0138882D01*
X0062704Y0138313D01*
X0061833Y0137442D01*
X0061045Y0136654D01*
X0060619Y0135625D01*
X0060619Y0134537D01*
X0059421Y0135034D01*
X0057918Y0135034D01*
X0056529Y0134459D01*
X0055466Y0133396D01*
X0054891Y0132007D01*
X0054891Y0131579D01*
X0050961Y0127649D01*
X0050519Y0126583D01*
X0050519Y0125261D01*
X0050216Y0124958D01*
X0049641Y0123570D01*
X0049641Y0123566D01*
X0048779Y0123209D01*
X0047716Y0122146D01*
X0047141Y0120757D01*
X0047141Y0119254D01*
X0047716Y0117866D01*
X0048779Y0116803D01*
X0050168Y0116228D01*
X0051671Y0116228D01*
X0053059Y0116803D01*
X0053462Y0117206D01*
X0055226Y0117206D01*
X0055863Y0117470D01*
X0056217Y0117116D01*
X0057605Y0116540D01*
X0058033Y0116540D01*
X0067957Y0106617D01*
X0067957Y0105261D01*
X0067953Y0105252D01*
X0067957Y0104683D01*
X0067957Y0104117D01*
X0067960Y0104108D01*
X0068003Y0097433D01*
X0067716Y0097146D01*
X0067141Y0095757D01*
X0067141Y0094254D01*
X0067716Y0092866D01*
X0068779Y0091803D01*
X0070168Y0091228D01*
X0070596Y0091228D01*
X0073391Y0088433D01*
X0073391Y0088004D01*
X0073966Y0086616D01*
X0075029Y0085553D01*
X0076418Y0084978D01*
X0077921Y0084978D01*
X0079309Y0085553D01*
X0080372Y0086616D01*
X0080947Y0088004D01*
X0080947Y0089507D01*
X0080372Y0090896D01*
X0080040Y0091228D01*
X0080421Y0091228D01*
X0081809Y0091803D01*
X0082872Y0092866D01*
X0083447Y0094254D01*
X0083447Y0095757D01*
X0082872Y0097146D01*
X0082569Y0097449D01*
X0082569Y0097708D01*
X0082128Y0098774D01*
X0081312Y0099589D01*
X0077194Y0103707D01*
X0077194Y0109708D01*
X0076753Y0110774D01*
X0075937Y0111589D01*
X0067954Y0119573D01*
X0068747Y0120366D01*
X0069322Y0121754D01*
X0069322Y0123257D01*
X0068747Y0124646D01*
X0068444Y0124949D01*
X0068444Y0126545D01*
X0069112Y0126268D01*
X0069651Y0126268D01*
X0070154Y0125053D01*
X0071217Y0123991D01*
X0072605Y0123415D01*
X0074108Y0123415D01*
X0075497Y0123991D01*
X0076559Y0125053D01*
X0077135Y0126442D01*
X0077135Y0127945D01*
X0076559Y0129333D01*
X0075497Y0130396D01*
X0074108Y0130971D01*
X0073539Y0130971D01*
X0073068Y0131442D01*
X0072762Y0131569D01*
X0073434Y0132241D01*
X0074123Y0130965D02*
X0083644Y0130965D01*
X0083644Y0129367D02*
X0076526Y0129367D01*
X0077135Y0127768D02*
X0083644Y0127768D01*
X0083644Y0126170D02*
X0077022Y0126170D01*
X0076077Y0124571D02*
X0083644Y0124571D01*
X0083644Y0122973D02*
X0069322Y0122973D01*
X0069165Y0121374D02*
X0083874Y0121374D01*
X0085173Y0119776D02*
X0068157Y0119776D01*
X0069349Y0118177D02*
X0086772Y0118177D01*
X0088370Y0116579D02*
X0070948Y0116579D01*
X0072546Y0114980D02*
X0089969Y0114980D01*
X0091567Y0113382D02*
X0074145Y0113382D01*
X0075743Y0111783D02*
X0093166Y0111783D01*
X0094764Y0110185D02*
X0076997Y0110185D01*
X0077194Y0108586D02*
X0096363Y0108586D01*
X0096394Y0106988D02*
X0077194Y0106988D01*
X0077194Y0105389D02*
X0096394Y0105389D01*
X0096394Y0103791D02*
X0077194Y0103791D01*
X0078709Y0102192D02*
X0096544Y0102192D01*
X0097730Y0100594D02*
X0080308Y0100594D01*
X0081906Y0098995D02*
X0098644Y0098995D01*
X0098644Y0097397D02*
X0082621Y0097397D01*
X0083430Y0095798D02*
X0099145Y0095798D01*
X0100235Y0094200D02*
X0083424Y0094200D01*
X0082607Y0092601D02*
X0099719Y0092601D01*
X0099244Y0091003D02*
X0080265Y0091003D01*
X0080947Y0089404D02*
X0099244Y0089404D01*
X0099244Y0087806D02*
X0080865Y0087806D01*
X0079963Y0086207D02*
X0099244Y0086207D01*
X0099254Y0084609D02*
X0040194Y0084609D01*
X0040194Y0086207D02*
X0074375Y0086207D01*
X0073474Y0087806D02*
X0040194Y0087806D01*
X0040194Y0089404D02*
X0072420Y0089404D01*
X0070821Y0091003D02*
X0040194Y0091003D01*
X0040194Y0092601D02*
X0067981Y0092601D01*
X0067164Y0094200D02*
X0040194Y0094200D01*
X0040194Y0095798D02*
X0067158Y0095798D01*
X0067967Y0097397D02*
X0040194Y0097397D01*
X0040194Y0098995D02*
X0067993Y0098995D01*
X0067983Y0100594D02*
X0040194Y0100594D01*
X0040194Y0102192D02*
X0067973Y0102192D01*
X0067962Y0103791D02*
X0040194Y0103791D01*
X0040194Y0105389D02*
X0067957Y0105389D01*
X0067586Y0106988D02*
X0040194Y0106988D01*
X0040194Y0108586D02*
X0065988Y0108586D01*
X0064389Y0110185D02*
X0040194Y0110185D01*
X0040194Y0111783D02*
X0062791Y0111783D01*
X0061192Y0113382D02*
X0040194Y0113382D01*
X0040194Y0114980D02*
X0059594Y0114980D01*
X0057513Y0116579D02*
X0052518Y0116579D01*
X0049321Y0116579D02*
X0040194Y0116579D01*
X0040194Y0118177D02*
X0047587Y0118177D01*
X0047141Y0119776D02*
X0040194Y0119776D01*
X0040194Y0121374D02*
X0047397Y0121374D01*
X0048543Y0122973D02*
X0040194Y0122973D01*
X0040194Y0124571D02*
X0050056Y0124571D01*
X0050519Y0126170D02*
X0040194Y0126170D01*
X0040194Y0127768D02*
X0051080Y0127768D01*
X0052679Y0129367D02*
X0040194Y0129367D01*
X0040194Y0130965D02*
X0054277Y0130965D01*
X0055122Y0132564D02*
X0040194Y0132564D01*
X0040194Y0134162D02*
X0056233Y0134162D01*
X0060675Y0135761D02*
X0040194Y0135761D01*
X0040194Y0137359D02*
X0043137Y0137359D01*
X0045577Y0137359D02*
X0047285Y0137359D01*
X0052053Y0137359D02*
X0061750Y0137359D01*
X0062735Y0138958D02*
X0053195Y0138958D01*
X0053447Y0140556D02*
X0063564Y0140556D01*
X0063036Y0142155D02*
X0082894Y0142155D01*
X0082487Y0140556D02*
X0069399Y0140556D01*
X0070228Y0138958D02*
X0082394Y0138958D01*
X0082394Y0137359D02*
X0072596Y0137359D01*
X0073749Y0135761D02*
X0082394Y0135761D01*
X0082974Y0134162D02*
X0074010Y0134162D01*
X0069691Y0126170D02*
X0068444Y0126170D01*
X0068778Y0124571D02*
X0070636Y0124571D01*
X0064298Y0143753D02*
X0083682Y0143753D01*
X0083682Y0145352D02*
X0064635Y0145352D01*
X0064270Y0146951D02*
X0083682Y0146951D01*
X0084503Y0148549D02*
X0064635Y0148549D01*
X0064499Y0150148D02*
X0068039Y0150148D01*
X0064639Y0151746D02*
X0063522Y0151746D01*
X0062248Y0153345D02*
X0060060Y0153345D01*
X0060402Y0154943D02*
X0054317Y0154943D01*
X0052718Y0156542D02*
X0058909Y0156542D01*
X0057673Y0158140D02*
X0051120Y0158140D01*
X0052772Y0159739D02*
X0056651Y0159739D01*
X0055813Y0161337D02*
X0052944Y0161337D01*
X0052944Y0162936D02*
X0055136Y0162936D01*
X0054603Y0164534D02*
X0052944Y0164534D01*
X0052944Y0166133D02*
X0054205Y0166133D01*
X0053932Y0167731D02*
X0052944Y0167731D01*
X0052944Y0169330D02*
X0053779Y0169330D01*
X0052944Y0170928D02*
X0074744Y0170928D01*
X0074744Y0171431D02*
X0053744Y0171431D01*
X0053744Y0171487D01*
X0053879Y0173195D01*
X0054147Y0174887D01*
X0054546Y0176553D01*
X0055076Y0178182D01*
X0055731Y0179765D01*
X0056509Y0181291D01*
X0057404Y0182752D01*
X0058411Y0184138D01*
X0059524Y0185440D01*
X0060735Y0186651D01*
X0062038Y0187764D01*
X0063423Y0188771D01*
X0064884Y0189666D01*
X0066410Y0190444D01*
X0067993Y0191099D01*
X0069622Y0191629D01*
X0071288Y0192029D01*
X0072980Y0192296D01*
X0074688Y0192431D01*
X0074744Y0192431D01*
X0074744Y0171431D01*
X0074744Y0172527D02*
X0076344Y0172527D01*
X0076344Y0174125D02*
X0074744Y0174125D01*
X0074744Y0175724D02*
X0076344Y0175724D01*
X0076344Y0177322D02*
X0074744Y0177322D01*
X0074744Y0178921D02*
X0076344Y0178921D01*
X0076344Y0180519D02*
X0074744Y0180519D01*
X0074744Y0182118D02*
X0076344Y0182118D01*
X0076344Y0183716D02*
X0074744Y0183716D01*
X0074744Y0185315D02*
X0076344Y0185315D01*
X0076344Y0186913D02*
X0074744Y0186913D01*
X0074744Y0188512D02*
X0076344Y0188512D01*
X0076344Y0190110D02*
X0074744Y0190110D01*
X0074744Y0191709D02*
X0076344Y0191709D01*
X0081132Y0191709D02*
X0110394Y0191709D01*
X0110394Y0190110D02*
X0085332Y0190110D01*
X0088022Y0188512D02*
X0110394Y0188512D01*
X0110394Y0186913D02*
X0090047Y0186913D01*
X0091672Y0185315D02*
X0098010Y0185315D01*
X0097391Y0183716D02*
X0092983Y0183716D01*
X0104328Y0185315D02*
X0110394Y0185315D01*
X0110394Y0183716D02*
X0104947Y0183716D01*
X0089294Y0153345D02*
X0088840Y0153345D01*
X0089294Y0151746D02*
X0086449Y0151746D01*
X0086101Y0150148D02*
X0083049Y0150148D01*
X0076344Y0150148D02*
X0074744Y0150148D01*
X0074744Y0151746D02*
X0076344Y0151746D01*
X0076344Y0153345D02*
X0074744Y0153345D01*
X0074744Y0154943D02*
X0076344Y0154943D01*
X0076344Y0156542D02*
X0074744Y0156542D01*
X0074744Y0158140D02*
X0076344Y0158140D01*
X0076344Y0159739D02*
X0074744Y0159739D01*
X0074744Y0161337D02*
X0076344Y0161337D01*
X0076344Y0162936D02*
X0074744Y0162936D01*
X0074744Y0164534D02*
X0076344Y0164534D01*
X0076344Y0166133D02*
X0074744Y0166133D01*
X0074744Y0167731D02*
X0076344Y0167731D01*
X0076344Y0169330D02*
X0074744Y0169330D01*
X0063067Y0188512D02*
X0040194Y0188512D01*
X0040194Y0190110D02*
X0065756Y0190110D01*
X0069956Y0191709D02*
X0040194Y0191709D01*
X0040194Y0186913D02*
X0061041Y0186913D01*
X0059417Y0185315D02*
X0040194Y0185315D01*
X0040194Y0183716D02*
X0058105Y0183716D01*
X0057016Y0182118D02*
X0052451Y0182118D01*
X0052944Y0180519D02*
X0056116Y0180519D01*
X0055382Y0178921D02*
X0052944Y0178921D01*
X0052944Y0177322D02*
X0054796Y0177322D01*
X0054347Y0175724D02*
X0052944Y0175724D01*
X0052944Y0174125D02*
X0054026Y0174125D01*
X0053826Y0172527D02*
X0052944Y0172527D01*
X0041917Y0153345D02*
X0040194Y0153345D01*
X0040194Y0154943D02*
X0040878Y0154943D01*
X0040832Y0156542D02*
X0040194Y0156542D01*
X0040194Y0158140D02*
X0040832Y0158140D01*
X0040194Y0151746D02*
X0043515Y0151746D01*
X0043957Y0150148D02*
X0040194Y0150148D01*
X0040194Y0148549D02*
X0043957Y0148549D01*
X0043957Y0146951D02*
X0040194Y0146951D01*
X0040194Y0145352D02*
X0043414Y0145352D01*
X0041824Y0143753D02*
X0040194Y0143753D01*
X0040194Y0142155D02*
X0040769Y0142155D01*
X0040579Y0140556D02*
X0040194Y0140556D01*
X0040194Y0138958D02*
X0041090Y0138958D01*
X0052998Y0142155D02*
X0058677Y0142155D01*
X0057416Y0143753D02*
X0052469Y0143753D01*
X0052996Y0145352D02*
X0056863Y0145352D01*
X0040194Y0083010D02*
X0110394Y0083010D01*
X0110394Y0081412D02*
X0040194Y0081412D01*
X0040194Y0079813D02*
X0110394Y0079813D01*
X0110394Y0078215D02*
X0101513Y0078215D01*
X0102793Y0076616D02*
X0110394Y0076616D01*
X0110394Y0075018D02*
X0103435Y0075018D01*
X0103435Y0073419D02*
X0110394Y0073419D01*
X0110394Y0071820D02*
X0103435Y0071820D01*
X0103435Y0070222D02*
X0110394Y0070222D01*
X0110394Y0068623D02*
X0103435Y0068623D01*
X0103435Y0067025D02*
X0110394Y0067025D01*
X0110394Y0065426D02*
X0103116Y0065426D01*
X0102293Y0063828D02*
X0110394Y0063828D01*
X0110394Y0084609D02*
X0109335Y0084609D01*
X0109344Y0086207D02*
X0110394Y0086207D01*
X0110394Y0087806D02*
X0109344Y0087806D01*
X0109344Y0089404D02*
X0110394Y0089404D01*
X0110394Y0091003D02*
X0109344Y0091003D01*
X0108870Y0092601D02*
X0110394Y0092601D01*
X0110394Y0094200D02*
X0108353Y0094200D01*
X0109443Y0095798D02*
X0110394Y0095798D01*
X0110394Y0097397D02*
X0109944Y0097397D01*
X0109944Y0098995D02*
X0110394Y0098995D01*
X0110394Y0100594D02*
X0109390Y0100594D01*
X0110394Y0102192D02*
X0108223Y0102192D01*
X0107944Y0103791D02*
X0110394Y0103791D01*
X0110394Y0105389D02*
X0109274Y0105389D01*
X0109936Y0106988D02*
X0110394Y0106988D01*
X0110394Y0108586D02*
X0109944Y0108586D01*
X0109559Y0110185D02*
X0110394Y0110185D01*
X0110394Y0111783D02*
X0108632Y0111783D01*
X0107535Y0113382D02*
X0110394Y0113382D01*
X0110394Y0114980D02*
X0109105Y0114980D01*
X0109767Y0116579D02*
X0110394Y0116579D01*
X0104369Y0087806D02*
X0104219Y0087806D01*
X0104219Y0086207D02*
X0104369Y0086207D01*
X0104369Y0084609D02*
X0104219Y0084609D01*
X0093958Y0078215D02*
X0056631Y0078215D01*
X0057911Y0076616D02*
X0092678Y0076616D01*
X0092035Y0075018D02*
X0058553Y0075018D01*
X0058553Y0073419D02*
X0063046Y0073419D01*
X0062732Y0073105D02*
X0062067Y0071500D01*
X0062067Y0069762D01*
X0062732Y0068156D01*
X0063961Y0066927D01*
X0065567Y0066262D01*
X0067305Y0066262D01*
X0068910Y0066927D01*
X0070139Y0068156D01*
X0070804Y0069762D01*
X0070804Y0071500D01*
X0070139Y0073105D01*
X0068910Y0074334D01*
X0067305Y0074999D01*
X0065567Y0074999D01*
X0063961Y0074334D01*
X0062732Y0073105D01*
X0062200Y0071820D02*
X0058553Y0071820D01*
X0058553Y0070222D02*
X0062067Y0070222D01*
X0062539Y0068623D02*
X0058553Y0068623D01*
X0058553Y0067025D02*
X0063864Y0067025D01*
X0069008Y0067025D02*
X0081580Y0067025D01*
X0081678Y0066927D02*
X0083284Y0066262D01*
X0085021Y0066262D01*
X0086627Y0066927D01*
X0087856Y0068156D01*
X0088521Y0069762D01*
X0088521Y0071500D01*
X0087856Y0073105D01*
X0086627Y0074334D01*
X0085021Y0074999D01*
X0083284Y0074999D01*
X0081678Y0074334D01*
X0080449Y0073105D01*
X0079784Y0071500D01*
X0079784Y0069762D01*
X0080449Y0068156D01*
X0081678Y0066927D01*
X0080256Y0068623D02*
X0070333Y0068623D01*
X0070804Y0070222D02*
X0079784Y0070222D01*
X0079917Y0071820D02*
X0070672Y0071820D01*
X0069826Y0073419D02*
X0080763Y0073419D01*
X0086725Y0067025D02*
X0092035Y0067025D01*
X0092035Y0068623D02*
X0088049Y0068623D01*
X0088521Y0070222D02*
X0092035Y0070222D01*
X0092035Y0071820D02*
X0088388Y0071820D01*
X0087542Y0073419D02*
X0092035Y0073419D01*
X0092354Y0065426D02*
X0058234Y0065426D01*
X0057411Y0063828D02*
X0093177Y0063828D01*
X0049076Y0078215D02*
X0040194Y0078215D01*
X0040194Y0076616D02*
X0047796Y0076616D01*
X0047153Y0075018D02*
X0040194Y0075018D01*
X0040194Y0073419D02*
X0047153Y0073419D01*
X0047153Y0071820D02*
X0040194Y0071820D01*
X0040194Y0070222D02*
X0047153Y0070222D01*
X0047153Y0068623D02*
X0040194Y0068623D01*
X0040194Y0067025D02*
X0047153Y0067025D01*
X0047472Y0065426D02*
X0040194Y0065426D01*
X0040194Y0063828D02*
X0048295Y0063828D01*
D19*
X0042794Y0063756D03*
X0040919Y0079381D03*
X0040919Y0101256D03*
X0041544Y0117506D03*
X0049607Y0127506D03*
X0053419Y0122818D03*
X0050919Y0120006D03*
X0058357Y0120318D03*
X0060919Y0123443D03*
X0065544Y0122506D03*
X0058669Y0131256D03*
X0066482Y0134381D03*
X0066482Y0138131D03*
X0070232Y0134381D03*
X0073357Y0127193D03*
X0078669Y0111881D03*
X0085919Y0100006D03*
X0079669Y0095006D03*
X0077169Y0088756D03*
X0070919Y0095006D03*
X0066169Y0105943D03*
X0049669Y0140318D03*
X0044357Y0140943D03*
X0049669Y0147193D03*
X0049607Y0150943D03*
X0046482Y0157193D03*
X0060857Y0149068D03*
X0060857Y0145318D03*
X0074794Y0177193D03*
X0075294Y0192506D03*
X0059044Y0192506D03*
X0042794Y0192506D03*
X0086482Y0140943D03*
X0088044Y0137506D03*
X0095232Y0137506D03*
X0093732Y0123443D03*
X0089982Y0123443D03*
X0095919Y0100006D03*
X0109044Y0103131D03*
X0109044Y0112506D03*
X0109044Y0093131D03*
X0109044Y0079381D03*
X0107794Y0063756D03*
X0091544Y0063756D03*
X0075294Y0063756D03*
X0059044Y0063756D03*
X0095232Y0156568D03*
X0096169Y0179381D03*
X0101169Y0183131D03*
X0105544Y0183443D03*
X0107794Y0192506D03*
X0091544Y0192506D03*
D20*
X0091794Y0143131D02*
X0091794Y0139068D01*
X0093357Y0137506D01*
X0095232Y0137506D01*
X0091794Y0135943D02*
X0091794Y0133131D01*
X0089294Y0133131D01*
X0086544Y0134693D02*
X0086544Y0122506D01*
X0099294Y0109756D01*
X0099294Y0103131D01*
X0104294Y0098131D01*
X0091794Y0135943D02*
X0090232Y0137506D01*
X0088044Y0137506D01*
X0085294Y0135943D02*
X0086544Y0134693D01*
X0085294Y0135943D02*
X0085294Y0139756D01*
X0086482Y0140943D01*
X0060919Y0122506D02*
X0074294Y0109131D01*
X0074294Y0102506D01*
X0079669Y0097131D01*
X0079669Y0095006D01*
X0077169Y0088756D02*
X0070919Y0095006D01*
X0070857Y0104693D01*
X0070857Y0107818D01*
X0058357Y0120318D01*
X0060919Y0122506D02*
X0060919Y0123443D01*
X0065544Y0122506D02*
X0065544Y0133443D01*
X0066482Y0134381D01*
X0058669Y0131256D02*
X0053419Y0126006D01*
X0053419Y0122818D01*
X0044357Y0140943D02*
X0044357Y0142193D01*
X0046857Y0144693D01*
X0046857Y0152506D01*
X0043732Y0155631D01*
X0043732Y0168818D01*
X0045544Y0170631D01*
X0044357Y0169443D01*
D21*
X0046482Y0157193D02*
X0048107Y0157193D01*
X0054669Y0150631D01*
X0059294Y0150631D01*
X0060857Y0149068D01*
X0057419Y0148756D02*
X0060857Y0145318D01*
X0057419Y0148756D02*
X0051794Y0148756D01*
X0049607Y0150943D01*
X0049669Y0147193D02*
X0049669Y0140318D01*
X0063419Y0131256D02*
X0055919Y0123756D01*
X0055919Y0121256D01*
X0054669Y0120006D01*
X0050919Y0120006D01*
X0063419Y0131256D02*
X0063419Y0135068D01*
X0066482Y0138131D01*
X0070232Y0134381D02*
X0068669Y0132818D01*
X0068669Y0130068D01*
X0069669Y0129068D01*
X0071482Y0129068D01*
X0073357Y0127193D01*
X0086482Y0140943D02*
X0086482Y0146568D01*
X0087732Y0147818D01*
X0091169Y0147818D01*
X0092419Y0149068D01*
X0092419Y0157193D01*
X0097419Y0162193D01*
X0097419Y0175631D01*
X0096169Y0176881D01*
X0096169Y0179381D01*
X0098982Y0180943D02*
X0101169Y0183131D01*
X0098982Y0180943D02*
X0098982Y0160318D01*
X0095232Y0156568D01*
X0093732Y0123443D02*
X0099044Y0118131D01*
X0104294Y0118131D01*
X0104294Y0109131D02*
X0104294Y0108131D01*
X0104294Y0109131D02*
X0089982Y0123443D01*
M02*
