G75*
%MOIN*%
%OFA0B0*%
%FSLAX25Y25*%
%IPPOS*%
%LPD*%
%AMOC8*
5,1,8,0,0,1.08239X$1,22.5*
%
%ADD10C,0.00000*%
%ADD11R,0.01575X0.02362*%
%ADD12R,0.02362X0.01575*%
%ADD13R,0.04331X0.07480*%
%ADD14R,0.04134X0.04252*%
%ADD15R,0.04252X0.04134*%
%ADD16R,0.02913X0.03642*%
%ADD17R,0.03642X0.02913*%
%ADD18R,0.05669X0.03937*%
%ADD19R,0.05669X0.04724*%
%ADD20C,0.06600*%
%ADD21R,0.04724X0.07874*%
%ADD22R,0.02756X0.03543*%
%ADD23R,0.02559X0.04134*%
%ADD24R,0.02165X0.02165*%
%ADD25R,0.03543X0.02756*%
%ADD26R,0.05512X0.03937*%
%ADD27R,0.03937X0.04724*%
%ADD28R,0.03150X0.03150*%
%ADD29R,0.06500X0.06500*%
%ADD30C,0.06500*%
%ADD31R,0.03346X0.01181*%
%ADD32C,0.01600*%
%ADD33C,0.02756*%
%ADD34C,0.00800*%
%ADD35C,0.01000*%
%ADD36C,0.01200*%
D10*
X0037794Y0060631D02*
X0037794Y0195631D01*
X0112794Y0195631D01*
X0112794Y0060631D01*
X0037794Y0060631D01*
X0064467Y0070631D02*
X0064469Y0070719D01*
X0064475Y0070807D01*
X0064485Y0070895D01*
X0064499Y0070983D01*
X0064516Y0071069D01*
X0064538Y0071155D01*
X0064563Y0071239D01*
X0064593Y0071323D01*
X0064625Y0071405D01*
X0064662Y0071485D01*
X0064702Y0071564D01*
X0064746Y0071641D01*
X0064793Y0071716D01*
X0064843Y0071788D01*
X0064897Y0071859D01*
X0064953Y0071926D01*
X0065013Y0071992D01*
X0065075Y0072054D01*
X0065141Y0072114D01*
X0065208Y0072170D01*
X0065279Y0072224D01*
X0065351Y0072274D01*
X0065426Y0072321D01*
X0065503Y0072365D01*
X0065582Y0072405D01*
X0065662Y0072442D01*
X0065744Y0072474D01*
X0065828Y0072504D01*
X0065912Y0072529D01*
X0065998Y0072551D01*
X0066084Y0072568D01*
X0066172Y0072582D01*
X0066260Y0072592D01*
X0066348Y0072598D01*
X0066436Y0072600D01*
X0066524Y0072598D01*
X0066612Y0072592D01*
X0066700Y0072582D01*
X0066788Y0072568D01*
X0066874Y0072551D01*
X0066960Y0072529D01*
X0067044Y0072504D01*
X0067128Y0072474D01*
X0067210Y0072442D01*
X0067290Y0072405D01*
X0067369Y0072365D01*
X0067446Y0072321D01*
X0067521Y0072274D01*
X0067593Y0072224D01*
X0067664Y0072170D01*
X0067731Y0072114D01*
X0067797Y0072054D01*
X0067859Y0071992D01*
X0067919Y0071926D01*
X0067975Y0071859D01*
X0068029Y0071788D01*
X0068079Y0071716D01*
X0068126Y0071641D01*
X0068170Y0071564D01*
X0068210Y0071485D01*
X0068247Y0071405D01*
X0068279Y0071323D01*
X0068309Y0071239D01*
X0068334Y0071155D01*
X0068356Y0071069D01*
X0068373Y0070983D01*
X0068387Y0070895D01*
X0068397Y0070807D01*
X0068403Y0070719D01*
X0068405Y0070631D01*
X0068403Y0070543D01*
X0068397Y0070455D01*
X0068387Y0070367D01*
X0068373Y0070279D01*
X0068356Y0070193D01*
X0068334Y0070107D01*
X0068309Y0070023D01*
X0068279Y0069939D01*
X0068247Y0069857D01*
X0068210Y0069777D01*
X0068170Y0069698D01*
X0068126Y0069621D01*
X0068079Y0069546D01*
X0068029Y0069474D01*
X0067975Y0069403D01*
X0067919Y0069336D01*
X0067859Y0069270D01*
X0067797Y0069208D01*
X0067731Y0069148D01*
X0067664Y0069092D01*
X0067593Y0069038D01*
X0067521Y0068988D01*
X0067446Y0068941D01*
X0067369Y0068897D01*
X0067290Y0068857D01*
X0067210Y0068820D01*
X0067128Y0068788D01*
X0067044Y0068758D01*
X0066960Y0068733D01*
X0066874Y0068711D01*
X0066788Y0068694D01*
X0066700Y0068680D01*
X0066612Y0068670D01*
X0066524Y0068664D01*
X0066436Y0068662D01*
X0066348Y0068664D01*
X0066260Y0068670D01*
X0066172Y0068680D01*
X0066084Y0068694D01*
X0065998Y0068711D01*
X0065912Y0068733D01*
X0065828Y0068758D01*
X0065744Y0068788D01*
X0065662Y0068820D01*
X0065582Y0068857D01*
X0065503Y0068897D01*
X0065426Y0068941D01*
X0065351Y0068988D01*
X0065279Y0069038D01*
X0065208Y0069092D01*
X0065141Y0069148D01*
X0065075Y0069208D01*
X0065013Y0069270D01*
X0064953Y0069336D01*
X0064897Y0069403D01*
X0064843Y0069474D01*
X0064793Y0069546D01*
X0064746Y0069621D01*
X0064702Y0069698D01*
X0064662Y0069777D01*
X0064625Y0069857D01*
X0064593Y0069939D01*
X0064563Y0070023D01*
X0064538Y0070107D01*
X0064516Y0070193D01*
X0064499Y0070279D01*
X0064485Y0070367D01*
X0064475Y0070455D01*
X0064469Y0070543D01*
X0064467Y0070631D01*
X0082183Y0070631D02*
X0082185Y0070719D01*
X0082191Y0070807D01*
X0082201Y0070895D01*
X0082215Y0070983D01*
X0082232Y0071069D01*
X0082254Y0071155D01*
X0082279Y0071239D01*
X0082309Y0071323D01*
X0082341Y0071405D01*
X0082378Y0071485D01*
X0082418Y0071564D01*
X0082462Y0071641D01*
X0082509Y0071716D01*
X0082559Y0071788D01*
X0082613Y0071859D01*
X0082669Y0071926D01*
X0082729Y0071992D01*
X0082791Y0072054D01*
X0082857Y0072114D01*
X0082924Y0072170D01*
X0082995Y0072224D01*
X0083067Y0072274D01*
X0083142Y0072321D01*
X0083219Y0072365D01*
X0083298Y0072405D01*
X0083378Y0072442D01*
X0083460Y0072474D01*
X0083544Y0072504D01*
X0083628Y0072529D01*
X0083714Y0072551D01*
X0083800Y0072568D01*
X0083888Y0072582D01*
X0083976Y0072592D01*
X0084064Y0072598D01*
X0084152Y0072600D01*
X0084240Y0072598D01*
X0084328Y0072592D01*
X0084416Y0072582D01*
X0084504Y0072568D01*
X0084590Y0072551D01*
X0084676Y0072529D01*
X0084760Y0072504D01*
X0084844Y0072474D01*
X0084926Y0072442D01*
X0085006Y0072405D01*
X0085085Y0072365D01*
X0085162Y0072321D01*
X0085237Y0072274D01*
X0085309Y0072224D01*
X0085380Y0072170D01*
X0085447Y0072114D01*
X0085513Y0072054D01*
X0085575Y0071992D01*
X0085635Y0071926D01*
X0085691Y0071859D01*
X0085745Y0071788D01*
X0085795Y0071716D01*
X0085842Y0071641D01*
X0085886Y0071564D01*
X0085926Y0071485D01*
X0085963Y0071405D01*
X0085995Y0071323D01*
X0086025Y0071239D01*
X0086050Y0071155D01*
X0086072Y0071069D01*
X0086089Y0070983D01*
X0086103Y0070895D01*
X0086113Y0070807D01*
X0086119Y0070719D01*
X0086121Y0070631D01*
X0086119Y0070543D01*
X0086113Y0070455D01*
X0086103Y0070367D01*
X0086089Y0070279D01*
X0086072Y0070193D01*
X0086050Y0070107D01*
X0086025Y0070023D01*
X0085995Y0069939D01*
X0085963Y0069857D01*
X0085926Y0069777D01*
X0085886Y0069698D01*
X0085842Y0069621D01*
X0085795Y0069546D01*
X0085745Y0069474D01*
X0085691Y0069403D01*
X0085635Y0069336D01*
X0085575Y0069270D01*
X0085513Y0069208D01*
X0085447Y0069148D01*
X0085380Y0069092D01*
X0085309Y0069038D01*
X0085237Y0068988D01*
X0085162Y0068941D01*
X0085085Y0068897D01*
X0085006Y0068857D01*
X0084926Y0068820D01*
X0084844Y0068788D01*
X0084760Y0068758D01*
X0084676Y0068733D01*
X0084590Y0068711D01*
X0084504Y0068694D01*
X0084416Y0068680D01*
X0084328Y0068670D01*
X0084240Y0068664D01*
X0084152Y0068662D01*
X0084064Y0068664D01*
X0083976Y0068670D01*
X0083888Y0068680D01*
X0083800Y0068694D01*
X0083714Y0068711D01*
X0083628Y0068733D01*
X0083544Y0068758D01*
X0083460Y0068788D01*
X0083378Y0068820D01*
X0083298Y0068857D01*
X0083219Y0068897D01*
X0083142Y0068941D01*
X0083067Y0068988D01*
X0082995Y0069038D01*
X0082924Y0069092D01*
X0082857Y0069148D01*
X0082791Y0069208D01*
X0082729Y0069270D01*
X0082669Y0069336D01*
X0082613Y0069403D01*
X0082559Y0069474D01*
X0082509Y0069546D01*
X0082462Y0069621D01*
X0082418Y0069698D01*
X0082378Y0069777D01*
X0082341Y0069857D01*
X0082309Y0069939D01*
X0082279Y0070023D01*
X0082254Y0070107D01*
X0082232Y0070193D01*
X0082215Y0070279D01*
X0082201Y0070367D01*
X0082191Y0070455D01*
X0082185Y0070543D01*
X0082183Y0070631D01*
D11*
X0082778Y0127324D03*
X0081204Y0130867D03*
X0084353Y0130867D03*
X0087503Y0130867D03*
X0090652Y0130867D03*
X0089078Y0127324D03*
X0092227Y0127324D03*
X0093802Y0130867D03*
X0096558Y0127324D03*
X0079629Y0127324D03*
X0076479Y0127324D03*
X0074904Y0130867D03*
X0078054Y0130867D03*
X0071755Y0130867D03*
X0068605Y0130867D03*
X0067030Y0127324D03*
X0063881Y0127324D03*
X0065456Y0130867D03*
X0062306Y0130867D03*
X0060731Y0127324D03*
X0057582Y0127324D03*
X0070180Y0127324D03*
X0068605Y0160395D03*
X0070180Y0163938D03*
X0071755Y0160395D03*
X0073330Y0163938D03*
X0074904Y0160395D03*
X0076479Y0163938D03*
X0078054Y0160395D03*
X0079629Y0163938D03*
X0081204Y0160395D03*
X0082778Y0163938D03*
X0089078Y0163938D03*
X0092227Y0163938D03*
X0096558Y0163938D03*
X0067030Y0163938D03*
D12*
X0057188Y0153505D03*
X0057188Y0150355D03*
X0057188Y0147206D03*
X0057188Y0144056D03*
X0057188Y0140906D03*
X0057188Y0137757D03*
X0053645Y0139332D03*
X0053645Y0142481D03*
X0053645Y0145631D03*
X0053645Y0148781D03*
X0053645Y0151930D03*
X0053645Y0155080D03*
X0053645Y0158229D03*
X0053645Y0161379D03*
X0053645Y0164529D03*
X0053645Y0136182D03*
X0053645Y0133032D03*
X0053645Y0129883D03*
X0053645Y0126733D03*
X0079629Y0137757D03*
X0079629Y0140906D03*
X0079629Y0144056D03*
X0079629Y0147206D03*
X0079629Y0150355D03*
X0079629Y0153505D03*
D13*
X0069528Y0172193D03*
X0059685Y0172193D03*
D14*
X0062724Y0180631D03*
X0062724Y0186881D03*
X0069614Y0186881D03*
X0069614Y0180631D03*
X0067787Y0115318D03*
X0074677Y0115318D03*
X0087412Y0104381D03*
X0094302Y0104381D03*
X0051864Y0083131D03*
X0044974Y0083131D03*
D15*
X0045294Y0104999D03*
X0045294Y0111888D03*
X0062482Y0098138D03*
X0062482Y0091249D03*
D16*
X0044169Y0074440D03*
X0044169Y0069322D03*
X0081857Y0116197D03*
X0081857Y0121315D03*
X0085919Y0096315D03*
X0085919Y0091197D03*
X0090919Y0091197D03*
X0090919Y0096315D03*
X0095919Y0096315D03*
X0095919Y0091197D03*
X0106419Y0074440D03*
X0106419Y0069322D03*
D17*
X0092228Y0110318D03*
X0087110Y0110318D03*
X0085798Y0187818D03*
X0090916Y0187818D03*
D18*
X0079625Y0106871D03*
X0079625Y0099391D03*
X0070963Y0099391D03*
D19*
X0070963Y0106084D03*
D20*
X0052853Y0073931D02*
X0052853Y0067331D01*
X0097735Y0067331D02*
X0097735Y0073931D01*
D21*
X0089074Y0080867D03*
X0079231Y0080867D03*
X0071357Y0080867D03*
X0061515Y0080867D03*
D22*
X0071485Y0121256D03*
X0076603Y0121256D03*
X0047791Y0123443D03*
X0042673Y0123443D03*
X0042673Y0131881D03*
X0047791Y0131881D03*
X0077360Y0169443D03*
X0082478Y0169443D03*
X0082360Y0174381D03*
X0087478Y0174381D03*
D23*
X0099749Y0171837D03*
X0108214Y0171837D03*
X0108214Y0188175D03*
X0099749Y0188175D03*
D24*
X0097386Y0120232D03*
X0097386Y0117280D03*
X0086953Y0117280D03*
X0086953Y0120232D03*
D25*
X0044294Y0145884D03*
X0044294Y0151002D03*
X0044294Y0160884D03*
X0044294Y0166002D03*
D26*
X0045651Y0097184D03*
X0045651Y0089703D03*
X0054312Y0093443D03*
D27*
X0051820Y0105318D03*
X0051820Y0115318D03*
X0061269Y0115318D03*
X0061269Y0105318D03*
D28*
X0050944Y0171256D03*
X0050944Y0176881D03*
X0050944Y0182506D03*
X0050944Y0188131D03*
X0044645Y0188131D03*
X0044645Y0182506D03*
X0044645Y0176881D03*
X0044645Y0171256D03*
D29*
X0104294Y0088131D03*
D30*
X0104294Y0098131D03*
X0104294Y0108131D03*
X0104294Y0118131D03*
D31*
X0090565Y0178053D03*
X0090565Y0180022D03*
X0090565Y0181990D03*
X0090565Y0183959D03*
X0079148Y0183959D03*
X0079148Y0181990D03*
X0079148Y0180022D03*
X0079148Y0178053D03*
D32*
X0076754Y0175800D02*
X0075833Y0174880D01*
X0075045Y0174092D01*
X0074712Y0173287D01*
X0074623Y0173250D01*
X0074093Y0172720D01*
X0074093Y0176411D01*
X0073728Y0177293D01*
X0073304Y0177717D01*
X0073358Y0177810D01*
X0073481Y0178268D01*
X0073481Y0180397D01*
X0069848Y0180397D01*
X0069848Y0180864D01*
X0073481Y0180864D01*
X0073481Y0182994D01*
X0073358Y0183452D01*
X0073183Y0183756D01*
X0073358Y0184060D01*
X0073481Y0184518D01*
X0073481Y0186647D01*
X0069848Y0186647D01*
X0069848Y0187114D01*
X0073481Y0187114D01*
X0073481Y0189244D01*
X0073358Y0189702D01*
X0073121Y0190112D01*
X0072786Y0190447D01*
X0072376Y0190684D01*
X0071918Y0190807D01*
X0069848Y0190807D01*
X0069848Y0187114D01*
X0069381Y0187114D01*
X0069381Y0190807D01*
X0067310Y0190807D01*
X0066852Y0190684D01*
X0066634Y0190558D01*
X0066151Y0191041D01*
X0065269Y0191407D01*
X0060180Y0191407D01*
X0059298Y0191041D01*
X0058623Y0190366D01*
X0058257Y0189484D01*
X0058257Y0186374D01*
X0056920Y0185037D01*
X0056494Y0184008D01*
X0056494Y0178106D01*
X0056161Y0177968D01*
X0055485Y0177293D01*
X0055120Y0176411D01*
X0055120Y0171881D01*
X0054919Y0171881D01*
X0054919Y0173308D01*
X0054604Y0174068D01*
X0054919Y0174829D01*
X0054919Y0178933D01*
X0054604Y0179693D01*
X0054919Y0180454D01*
X0054919Y0184558D01*
X0054604Y0185318D01*
X0054919Y0186079D01*
X0054919Y0190183D01*
X0054553Y0191065D01*
X0053878Y0191740D01*
X0052996Y0192106D01*
X0048892Y0192106D01*
X0048009Y0191740D01*
X0047794Y0191525D01*
X0047579Y0191740D01*
X0046697Y0192106D01*
X0042592Y0192106D01*
X0041710Y0191740D01*
X0041035Y0191065D01*
X0040670Y0190183D01*
X0040670Y0188091D01*
X0040194Y0187616D01*
X0040194Y0193231D01*
X0110394Y0193231D01*
X0110394Y0192467D01*
X0109971Y0192642D01*
X0106457Y0192642D01*
X0105575Y0192277D01*
X0104900Y0191602D01*
X0104640Y0190975D01*
X0104407Y0190975D01*
X0103377Y0190549D01*
X0102829Y0190000D01*
X0102829Y0190479D01*
X0102706Y0190937D01*
X0102469Y0191347D01*
X0102134Y0191682D01*
X0101724Y0191919D01*
X0101266Y0192042D01*
X0099749Y0192042D01*
X0098233Y0192042D01*
X0097775Y0191919D01*
X0097365Y0191682D01*
X0097030Y0191347D01*
X0096793Y0190937D01*
X0096670Y0190479D01*
X0096670Y0188775D01*
X0096668Y0188779D01*
X0095880Y0189567D01*
X0095255Y0190192D01*
X0094892Y0190342D01*
X0094771Y0190635D01*
X0094096Y0191310D01*
X0093214Y0191675D01*
X0088617Y0191675D01*
X0087735Y0191310D01*
X0087501Y0191075D01*
X0085798Y0191075D01*
X0085798Y0187819D01*
X0085798Y0187819D01*
X0085798Y0191075D01*
X0083740Y0191075D01*
X0083282Y0190952D01*
X0082872Y0190715D01*
X0082536Y0190380D01*
X0082299Y0189970D01*
X0082177Y0189512D01*
X0082177Y0187818D01*
X0082177Y0186585D01*
X0081299Y0186949D01*
X0076997Y0186949D01*
X0076115Y0186584D01*
X0075440Y0185909D01*
X0075075Y0185027D01*
X0075075Y0178954D01*
X0075440Y0178072D01*
X0075675Y0177837D01*
X0075675Y0177226D01*
X0075797Y0176768D01*
X0076034Y0176357D01*
X0076370Y0176022D01*
X0076754Y0175800D01*
X0076677Y0175724D02*
X0074093Y0175724D01*
X0074093Y0174125D02*
X0075079Y0174125D01*
X0075675Y0177322D02*
X0073699Y0177322D01*
X0073481Y0178921D02*
X0075088Y0178921D01*
X0075075Y0180519D02*
X0069848Y0180519D01*
X0069848Y0180864D02*
X0069381Y0180864D01*
X0069381Y0184557D01*
X0069381Y0186647D01*
X0069848Y0186647D01*
X0069848Y0180864D01*
X0069848Y0182118D02*
X0069381Y0182118D01*
X0069381Y0183716D02*
X0069848Y0183716D01*
X0069848Y0185315D02*
X0069381Y0185315D01*
X0069848Y0186913D02*
X0076911Y0186913D01*
X0075194Y0185315D02*
X0073481Y0185315D01*
X0073206Y0183716D02*
X0075075Y0183716D01*
X0075075Y0182118D02*
X0073481Y0182118D01*
X0073481Y0188512D02*
X0082177Y0188512D01*
X0082177Y0187818D02*
X0085798Y0187818D01*
X0082177Y0187818D01*
X0082177Y0186913D02*
X0081385Y0186913D01*
X0082381Y0190110D02*
X0073122Y0190110D01*
X0069848Y0190110D02*
X0069381Y0190110D01*
X0069381Y0188512D02*
X0069848Y0188512D01*
X0058517Y0190110D02*
X0054919Y0190110D01*
X0054919Y0188512D02*
X0058257Y0188512D01*
X0058257Y0186913D02*
X0054919Y0186913D01*
X0054605Y0185315D02*
X0057198Y0185315D01*
X0056494Y0183716D02*
X0054919Y0183716D01*
X0054919Y0182118D02*
X0056494Y0182118D01*
X0056494Y0180519D02*
X0054919Y0180519D01*
X0054919Y0178921D02*
X0056494Y0178921D01*
X0055515Y0177322D02*
X0054919Y0177322D01*
X0054919Y0175724D02*
X0055120Y0175724D01*
X0055120Y0174125D02*
X0054627Y0174125D01*
X0054919Y0172527D02*
X0055120Y0172527D01*
X0053910Y0191709D02*
X0097410Y0191709D01*
X0096670Y0190110D02*
X0095337Y0190110D01*
X0099749Y0190110D02*
X0099749Y0190110D01*
X0099749Y0188512D02*
X0099749Y0188512D01*
X0099749Y0188175D02*
X0099749Y0192042D01*
X0099749Y0188175D01*
X0099749Y0188175D01*
X0099749Y0191709D02*
X0099749Y0191709D01*
X0102089Y0191709D02*
X0105007Y0191709D01*
X0102939Y0190110D02*
X0102829Y0190110D01*
X0105198Y0184450D02*
X0105575Y0184074D01*
X0106182Y0183822D01*
X0106182Y0176189D01*
X0105575Y0175938D01*
X0104900Y0175263D01*
X0104534Y0174381D01*
X0104534Y0171881D01*
X0102829Y0171881D01*
X0102829Y0174141D01*
X0102706Y0174598D01*
X0102469Y0175009D01*
X0102134Y0175344D01*
X0101724Y0175581D01*
X0101266Y0175704D01*
X0099749Y0175704D01*
X0098233Y0175704D01*
X0097775Y0175581D01*
X0097365Y0175344D01*
X0097094Y0175073D01*
X0097094Y0175675D01*
X0098309Y0176178D01*
X0099372Y0177241D01*
X0099947Y0178629D01*
X0099947Y0179548D01*
X0100418Y0179353D01*
X0101921Y0179353D01*
X0103309Y0179928D01*
X0104372Y0180991D01*
X0104947Y0182379D01*
X0104947Y0183882D01*
X0104854Y0184106D01*
X0105198Y0184450D01*
X0104947Y0183716D02*
X0106182Y0183716D01*
X0106182Y0182118D02*
X0104839Y0182118D01*
X0103900Y0180519D02*
X0106182Y0180519D01*
X0106182Y0178921D02*
X0099947Y0178921D01*
X0099406Y0177322D02*
X0106182Y0177322D01*
X0105361Y0175724D02*
X0097212Y0175724D01*
X0099749Y0175704D02*
X0099749Y0171881D01*
X0099749Y0171881D01*
X0099749Y0175704D01*
X0099749Y0174125D02*
X0099749Y0174125D01*
X0099749Y0172527D02*
X0099749Y0172527D01*
X0102829Y0172527D02*
X0104534Y0172527D01*
X0104534Y0174125D02*
X0102829Y0174125D01*
X0085798Y0187818D02*
X0085798Y0187818D01*
X0085798Y0188512D02*
X0085798Y0188512D01*
X0085798Y0190110D02*
X0085798Y0190110D01*
X0047978Y0191709D02*
X0047610Y0191709D01*
X0041679Y0191709D02*
X0040194Y0191709D01*
X0040194Y0190110D02*
X0040670Y0190110D01*
X0040670Y0188512D02*
X0040194Y0188512D01*
X0040194Y0119530D02*
X0040817Y0119272D01*
X0042394Y0119272D01*
X0042394Y0117242D01*
X0042761Y0116355D01*
X0042691Y0116355D01*
X0041809Y0115990D01*
X0041134Y0115315D01*
X0040768Y0114433D01*
X0040768Y0109344D01*
X0041134Y0108462D01*
X0041617Y0107979D01*
X0041491Y0107760D01*
X0041368Y0107302D01*
X0041368Y0105232D01*
X0045061Y0105232D01*
X0045061Y0104765D01*
X0045528Y0104765D01*
X0045528Y0101132D01*
X0047657Y0101132D01*
X0048115Y0101254D01*
X0048143Y0101270D01*
X0048461Y0100952D01*
X0045835Y0100952D01*
X0045835Y0097368D01*
X0045467Y0097368D01*
X0045467Y0100952D01*
X0042658Y0100952D01*
X0042200Y0100829D01*
X0041790Y0100592D01*
X0041455Y0100257D01*
X0041218Y0099847D01*
X0041095Y0099389D01*
X0041095Y0097368D01*
X0045467Y0097368D01*
X0045467Y0096999D01*
X0041095Y0096999D01*
X0041095Y0094978D01*
X0041218Y0094520D01*
X0041455Y0094110D01*
X0041764Y0093801D01*
X0041536Y0093706D01*
X0040860Y0093031D01*
X0040495Y0092149D01*
X0040495Y0087257D01*
X0040860Y0086375D01*
X0041250Y0085986D01*
X0041230Y0085952D01*
X0041107Y0085494D01*
X0041107Y0083364D01*
X0044741Y0083364D01*
X0044741Y0082897D01*
X0045208Y0082897D01*
X0045208Y0079580D01*
X0044289Y0078661D01*
X0042235Y0078661D01*
X0041353Y0078295D01*
X0040678Y0077620D01*
X0040313Y0076738D01*
X0040313Y0072142D01*
X0040678Y0071260D01*
X0040913Y0071025D01*
X0040913Y0069322D01*
X0044169Y0069322D01*
X0044169Y0069322D01*
X0040913Y0069322D01*
X0040913Y0067264D01*
X0041035Y0066806D01*
X0041272Y0066396D01*
X0041607Y0066061D01*
X0042018Y0065824D01*
X0042476Y0065701D01*
X0044169Y0065701D01*
X0044169Y0069322D01*
X0044169Y0069322D01*
X0044169Y0065701D01*
X0045863Y0065701D01*
X0046321Y0065824D01*
X0046731Y0066061D01*
X0047066Y0066396D01*
X0047153Y0066546D01*
X0047153Y0066197D01*
X0048021Y0064102D01*
X0049092Y0063031D01*
X0040194Y0063031D01*
X0040194Y0119530D01*
X0040194Y0118177D02*
X0042394Y0118177D01*
X0042669Y0116579D02*
X0040194Y0116579D01*
X0040194Y0114980D02*
X0040995Y0114980D01*
X0040768Y0113382D02*
X0040194Y0113382D01*
X0040194Y0111783D02*
X0040768Y0111783D01*
X0040768Y0110185D02*
X0040194Y0110185D01*
X0040194Y0108586D02*
X0041082Y0108586D01*
X0041368Y0106988D02*
X0040194Y0106988D01*
X0040194Y0105389D02*
X0041368Y0105389D01*
X0041368Y0104765D02*
X0041368Y0102695D01*
X0041491Y0102237D01*
X0041728Y0101826D01*
X0042063Y0101491D01*
X0042473Y0101254D01*
X0042931Y0101132D01*
X0045061Y0101132D01*
X0045061Y0104765D01*
X0041368Y0104765D01*
X0041368Y0103791D02*
X0040194Y0103791D01*
X0040194Y0102192D02*
X0041517Y0102192D01*
X0041792Y0100594D02*
X0040194Y0100594D01*
X0040194Y0098995D02*
X0041095Y0098995D01*
X0041095Y0097397D02*
X0040194Y0097397D01*
X0040194Y0095798D02*
X0041095Y0095798D01*
X0041403Y0094200D02*
X0040194Y0094200D01*
X0040194Y0092601D02*
X0040682Y0092601D01*
X0040495Y0091003D02*
X0040194Y0091003D01*
X0040194Y0089404D02*
X0040495Y0089404D01*
X0040495Y0087806D02*
X0040194Y0087806D01*
X0040194Y0086207D02*
X0041029Y0086207D01*
X0041107Y0084609D02*
X0040194Y0084609D01*
X0040194Y0083010D02*
X0044741Y0083010D01*
X0044741Y0082897D02*
X0041107Y0082897D01*
X0041107Y0080768D01*
X0041230Y0080310D01*
X0041467Y0079900D01*
X0041802Y0079565D01*
X0042213Y0079328D01*
X0042670Y0079205D01*
X0044741Y0079205D01*
X0044741Y0082897D01*
X0044741Y0081412D02*
X0045208Y0081412D01*
X0045208Y0079813D02*
X0044741Y0079813D01*
X0041554Y0079813D02*
X0040194Y0079813D01*
X0040194Y0078215D02*
X0041272Y0078215D01*
X0040313Y0076616D02*
X0040194Y0076616D01*
X0040194Y0075018D02*
X0040313Y0075018D01*
X0040313Y0073419D02*
X0040194Y0073419D01*
X0040194Y0071820D02*
X0040446Y0071820D01*
X0040194Y0070222D02*
X0040913Y0070222D01*
X0040913Y0068623D02*
X0040194Y0068623D01*
X0040194Y0067025D02*
X0040977Y0067025D01*
X0040194Y0065426D02*
X0047472Y0065426D01*
X0048295Y0063828D02*
X0040194Y0063828D01*
X0044169Y0067025D02*
X0044169Y0067025D01*
X0044169Y0068623D02*
X0044169Y0068623D01*
X0041107Y0081412D02*
X0040194Y0081412D01*
X0045467Y0097397D02*
X0045835Y0097397D01*
X0045835Y0098995D02*
X0045467Y0098995D01*
X0045467Y0100594D02*
X0045835Y0100594D01*
X0045528Y0102192D02*
X0045061Y0102192D01*
X0045061Y0103791D02*
X0045528Y0103791D01*
X0064169Y0109892D02*
X0064169Y0110744D01*
X0064597Y0110922D01*
X0064694Y0111019D01*
X0065242Y0110792D01*
X0070331Y0110792D01*
X0071213Y0111158D01*
X0071697Y0111641D01*
X0071915Y0111515D01*
X0072373Y0111392D01*
X0074443Y0111392D01*
X0074443Y0115085D01*
X0074910Y0115085D01*
X0074910Y0115552D01*
X0078543Y0115552D01*
X0078543Y0117119D01*
X0078600Y0117143D01*
X0078600Y0116197D01*
X0081857Y0116197D01*
X0081857Y0112576D01*
X0083023Y0112576D01*
X0082889Y0112252D01*
X0082889Y0111240D01*
X0076313Y0111240D01*
X0075431Y0110874D01*
X0074756Y0110199D01*
X0074680Y0110015D01*
X0074493Y0110123D01*
X0074035Y0110246D01*
X0071345Y0110246D01*
X0071345Y0106465D01*
X0070582Y0106465D01*
X0070582Y0105703D01*
X0066329Y0105703D01*
X0066329Y0103484D01*
X0066441Y0103066D01*
X0066094Y0102719D01*
X0065729Y0101837D01*
X0065729Y0101630D01*
X0065713Y0101646D01*
X0065373Y0101842D01*
X0065637Y0102479D01*
X0065637Y0108158D01*
X0065272Y0109040D01*
X0064597Y0109715D01*
X0064169Y0109892D01*
X0064169Y0110185D02*
X0067664Y0110185D01*
X0067892Y0110246D02*
X0067434Y0110123D01*
X0067024Y0109886D01*
X0066688Y0109551D01*
X0066452Y0109141D01*
X0066329Y0108683D01*
X0066329Y0106465D01*
X0070582Y0106465D01*
X0070582Y0110246D01*
X0067892Y0110246D01*
X0066329Y0108586D02*
X0065460Y0108586D01*
X0065637Y0106988D02*
X0066329Y0106988D01*
X0066329Y0105389D02*
X0065637Y0105389D01*
X0065637Y0103791D02*
X0066329Y0103791D01*
X0065876Y0102192D02*
X0065518Y0102192D01*
X0070582Y0106988D02*
X0071345Y0106988D01*
X0071345Y0108586D02*
X0070582Y0108586D01*
X0070582Y0110185D02*
X0071345Y0110185D01*
X0074263Y0110185D02*
X0074750Y0110185D01*
X0074910Y0111392D02*
X0076980Y0111392D01*
X0077438Y0111515D01*
X0077849Y0111752D01*
X0078184Y0112087D01*
X0078421Y0112498D01*
X0078543Y0112955D01*
X0078543Y0115085D01*
X0074910Y0115085D01*
X0074910Y0111392D01*
X0074910Y0111783D02*
X0074443Y0111783D01*
X0074443Y0113382D02*
X0074910Y0113382D01*
X0074910Y0114980D02*
X0074443Y0114980D01*
X0077880Y0111783D02*
X0082889Y0111783D01*
X0081857Y0112576D02*
X0081857Y0116197D01*
X0081857Y0116197D01*
X0081857Y0116197D01*
X0078600Y0116197D01*
X0078600Y0114139D01*
X0078723Y0113681D01*
X0078960Y0113271D01*
X0079295Y0112936D01*
X0079705Y0112699D01*
X0080163Y0112576D01*
X0081857Y0112576D01*
X0081857Y0113382D02*
X0081857Y0113382D01*
X0081857Y0114980D02*
X0081857Y0114980D01*
X0078600Y0114980D02*
X0078543Y0114980D01*
X0078543Y0113382D02*
X0078896Y0113382D01*
X0078600Y0116579D02*
X0078543Y0116579D01*
X0089408Y0114175D02*
X0090070Y0114837D01*
X0090435Y0115719D01*
X0090435Y0119381D01*
X0094503Y0119381D01*
X0094503Y0118913D01*
X0094545Y0118756D01*
X0094503Y0118599D01*
X0094503Y0117280D01*
X0097386Y0117280D01*
X0097386Y0117280D01*
X0097386Y0119381D01*
X0097386Y0119381D01*
X0097386Y0117280D01*
X0097386Y0117279D01*
X0097386Y0114397D01*
X0098705Y0114397D01*
X0099163Y0114520D01*
X0099574Y0114756D01*
X0099626Y0114809D01*
X0101094Y0113341D01*
X0101601Y0113131D01*
X0101094Y0112921D01*
X0099504Y0111331D01*
X0098644Y0109255D01*
X0098644Y0107007D01*
X0099504Y0104930D01*
X0101094Y0103341D01*
X0101601Y0103131D01*
X0101094Y0102921D01*
X0099504Y0101331D01*
X0098691Y0099367D01*
X0098481Y0099576D01*
X0098071Y0099813D01*
X0097613Y0099936D01*
X0095919Y0099936D01*
X0094226Y0099936D01*
X0094024Y0099882D01*
X0093735Y0100170D01*
X0093719Y0100177D01*
X0093719Y0100455D01*
X0094068Y0100455D01*
X0094068Y0104147D01*
X0094535Y0104147D01*
X0094535Y0100455D01*
X0096605Y0100455D01*
X0097063Y0100578D01*
X0097474Y0100815D01*
X0097809Y0101150D01*
X0098046Y0101560D01*
X0098168Y0102018D01*
X0098168Y0104147D01*
X0094535Y0104147D01*
X0094535Y0104614D01*
X0098168Y0104614D01*
X0098168Y0106744D01*
X0098046Y0107202D01*
X0097809Y0107612D01*
X0097474Y0107947D01*
X0097063Y0108184D01*
X0096605Y0108307D01*
X0095764Y0108307D01*
X0095849Y0108625D01*
X0095849Y0110318D01*
X0092228Y0110318D01*
X0092228Y0110318D01*
X0092228Y0110319D02*
X0092228Y0113575D01*
X0090525Y0113575D01*
X0090290Y0113810D01*
X0089408Y0114175D01*
X0089408Y0114175D01*
X0090129Y0114980D02*
X0094974Y0114980D01*
X0094863Y0115092D02*
X0095198Y0114756D01*
X0095608Y0114520D01*
X0096066Y0114397D01*
X0097386Y0114397D01*
X0097386Y0117279D01*
X0097386Y0117279D01*
X0094503Y0117279D01*
X0094503Y0115960D01*
X0094626Y0115502D01*
X0094863Y0115092D01*
X0094503Y0116579D02*
X0090435Y0116579D01*
X0090435Y0118177D02*
X0094503Y0118177D01*
X0094286Y0113575D02*
X0092228Y0113575D01*
X0092228Y0110319D01*
X0092228Y0110319D01*
X0092228Y0110318D02*
X0095849Y0110318D01*
X0095849Y0112012D01*
X0095726Y0112470D01*
X0095489Y0112880D01*
X0095154Y0113215D01*
X0094744Y0113452D01*
X0094286Y0113575D01*
X0094866Y0113382D02*
X0101053Y0113382D01*
X0099956Y0111783D02*
X0095849Y0111783D01*
X0095849Y0110185D02*
X0099029Y0110185D01*
X0098644Y0108586D02*
X0095839Y0108586D01*
X0098103Y0106988D02*
X0098652Y0106988D01*
X0098168Y0105389D02*
X0099314Y0105389D01*
X0098168Y0103791D02*
X0100644Y0103791D01*
X0100365Y0102192D02*
X0098168Y0102192D01*
X0099199Y0100594D02*
X0097091Y0100594D01*
X0095919Y0099936D02*
X0095919Y0096315D01*
X0095919Y0099936D01*
X0095919Y0098995D02*
X0095919Y0098995D01*
X0095919Y0097397D02*
X0095919Y0097397D01*
X0095919Y0096315D02*
X0095919Y0096315D01*
X0094535Y0100594D02*
X0094068Y0100594D01*
X0094068Y0102192D02*
X0094535Y0102192D01*
X0094535Y0103791D02*
X0094068Y0103791D01*
X0092228Y0111783D02*
X0092228Y0111783D01*
X0092228Y0113382D02*
X0092228Y0113382D01*
X0097386Y0114980D02*
X0097386Y0114980D01*
X0097386Y0116579D02*
X0097386Y0116579D01*
X0097386Y0118177D02*
X0097386Y0118177D01*
X0106987Y0113131D02*
X0107495Y0113341D01*
X0109084Y0114930D01*
X0109944Y0117007D01*
X0109944Y0119255D01*
X0109892Y0119381D01*
X0110394Y0119381D01*
X0110394Y0063031D01*
X0101496Y0063031D01*
X0102567Y0064102D01*
X0103435Y0066197D01*
X0103435Y0066546D01*
X0103522Y0066396D01*
X0103857Y0066061D01*
X0104268Y0065824D01*
X0104726Y0065701D01*
X0106419Y0065701D01*
X0106419Y0069322D01*
X0106419Y0069322D01*
X0109676Y0069322D01*
X0109676Y0071025D01*
X0109910Y0071260D01*
X0110276Y0072142D01*
X0110276Y0076738D01*
X0109910Y0077620D01*
X0109235Y0078295D01*
X0108353Y0078661D01*
X0104485Y0078661D01*
X0103603Y0078295D01*
X0102928Y0077620D01*
X0102812Y0077340D01*
X0102387Y0077340D01*
X0100964Y0078763D01*
X0098869Y0079631D01*
X0096601Y0079631D01*
X0094506Y0078763D01*
X0093836Y0078093D01*
X0093836Y0083881D01*
X0094953Y0083881D01*
X0096056Y0084338D01*
X0097619Y0085900D01*
X0098462Y0086744D01*
X0098705Y0087329D01*
X0098735Y0087341D01*
X0099244Y0087850D01*
X0099244Y0084644D01*
X0099367Y0084186D01*
X0099604Y0083776D01*
X0099939Y0083441D01*
X0100349Y0083204D01*
X0100807Y0083081D01*
X0104219Y0083081D01*
X0104219Y0088056D01*
X0104369Y0088056D01*
X0104369Y0083081D01*
X0107781Y0083081D01*
X0108239Y0083204D01*
X0108649Y0083441D01*
X0108985Y0083776D01*
X0109222Y0084186D01*
X0109344Y0084644D01*
X0109344Y0088056D01*
X0104369Y0088056D01*
X0104369Y0088206D01*
X0109344Y0088206D01*
X0109344Y0091618D01*
X0109222Y0092076D01*
X0108985Y0092486D01*
X0108649Y0092821D01*
X0108239Y0093058D01*
X0107781Y0093181D01*
X0107108Y0093181D01*
X0107495Y0093341D01*
X0109084Y0094930D01*
X0109944Y0097007D01*
X0109944Y0099255D01*
X0109084Y0101331D01*
X0107495Y0102921D01*
X0106987Y0103131D01*
X0107495Y0103341D01*
X0109084Y0104930D01*
X0109944Y0107007D01*
X0109944Y0109255D01*
X0109084Y0111331D01*
X0107495Y0112921D01*
X0106987Y0113131D01*
X0107535Y0113382D02*
X0110394Y0113382D01*
X0110394Y0114980D02*
X0109105Y0114980D01*
X0109767Y0116579D02*
X0110394Y0116579D01*
X0110394Y0118177D02*
X0109944Y0118177D01*
X0110394Y0111783D02*
X0108632Y0111783D01*
X0109559Y0110185D02*
X0110394Y0110185D01*
X0110394Y0108586D02*
X0109944Y0108586D01*
X0109936Y0106988D02*
X0110394Y0106988D01*
X0110394Y0105389D02*
X0109274Y0105389D01*
X0110394Y0103791D02*
X0107944Y0103791D01*
X0108223Y0102192D02*
X0110394Y0102192D01*
X0110394Y0100594D02*
X0109390Y0100594D01*
X0109944Y0098995D02*
X0110394Y0098995D01*
X0110394Y0097397D02*
X0109944Y0097397D01*
X0110394Y0095798D02*
X0109443Y0095798D01*
X0110394Y0094200D02*
X0108353Y0094200D01*
X0108870Y0092601D02*
X0110394Y0092601D01*
X0110394Y0091003D02*
X0109344Y0091003D01*
X0109344Y0089404D02*
X0110394Y0089404D01*
X0110394Y0087806D02*
X0109344Y0087806D01*
X0109344Y0086207D02*
X0110394Y0086207D01*
X0110394Y0084609D02*
X0109335Y0084609D01*
X0110394Y0083010D02*
X0093836Y0083010D01*
X0093836Y0081412D02*
X0110394Y0081412D01*
X0110394Y0079813D02*
X0093836Y0079813D01*
X0093836Y0078215D02*
X0093958Y0078215D01*
X0096327Y0084609D02*
X0099254Y0084609D01*
X0099244Y0086207D02*
X0097926Y0086207D01*
X0099200Y0087806D02*
X0099244Y0087806D01*
X0104219Y0087806D02*
X0104369Y0087806D01*
X0104369Y0086207D02*
X0104219Y0086207D01*
X0104219Y0084609D02*
X0104369Y0084609D01*
X0103522Y0078215D02*
X0101513Y0078215D01*
X0106419Y0069322D02*
X0106419Y0069322D01*
X0106419Y0065701D01*
X0108113Y0065701D01*
X0108571Y0065824D01*
X0108981Y0066061D01*
X0109316Y0066396D01*
X0109553Y0066806D01*
X0109676Y0067264D01*
X0109676Y0069322D01*
X0106419Y0069322D01*
X0106419Y0068623D02*
X0106419Y0068623D01*
X0106419Y0067025D02*
X0106419Y0067025D01*
X0109612Y0067025D02*
X0110394Y0067025D01*
X0110394Y0068623D02*
X0109676Y0068623D01*
X0109676Y0070222D02*
X0110394Y0070222D01*
X0110394Y0071820D02*
X0110143Y0071820D01*
X0110276Y0073419D02*
X0110394Y0073419D01*
X0110394Y0075018D02*
X0110276Y0075018D01*
X0110276Y0076616D02*
X0110394Y0076616D01*
X0110394Y0078215D02*
X0109316Y0078215D01*
X0110394Y0065426D02*
X0103116Y0065426D01*
X0102293Y0063828D02*
X0110394Y0063828D01*
X0093974Y0063031D02*
X0056614Y0063031D01*
X0057685Y0064102D01*
X0058553Y0066197D01*
X0058553Y0067831D01*
X0060384Y0067831D01*
X0062608Y0065607D01*
X0063396Y0064820D01*
X0064425Y0064393D01*
X0086476Y0064393D01*
X0087505Y0064820D01*
X0090516Y0067831D01*
X0092035Y0067831D01*
X0092035Y0066197D01*
X0092903Y0064102D01*
X0093974Y0063031D01*
X0093177Y0063828D02*
X0057411Y0063828D01*
X0058234Y0065426D02*
X0062789Y0065426D01*
X0061190Y0067025D02*
X0058553Y0067025D01*
X0085919Y0096315D02*
X0085919Y0099855D01*
X0085919Y0099855D01*
X0085919Y0096315D01*
X0085919Y0096315D01*
X0085919Y0097397D02*
X0085919Y0097397D01*
X0085919Y0098995D02*
X0085919Y0098995D01*
X0089711Y0067025D02*
X0092035Y0067025D01*
X0092354Y0065426D02*
X0088112Y0065426D01*
D33*
X0091544Y0063756D03*
X0077169Y0088756D03*
X0079669Y0095006D03*
X0085919Y0100006D03*
X0078669Y0111881D03*
X0073357Y0127193D03*
X0070232Y0134381D03*
X0066482Y0134381D03*
X0066482Y0138131D03*
X0060857Y0145318D03*
X0060857Y0149068D03*
X0058669Y0131256D03*
X0060919Y0123443D03*
X0058357Y0120318D03*
X0053419Y0122818D03*
X0050919Y0120006D03*
X0049607Y0127506D03*
X0049669Y0140318D03*
X0044357Y0140943D03*
X0049669Y0147193D03*
X0049607Y0150943D03*
X0046482Y0157193D03*
X0065544Y0122506D03*
X0066169Y0105943D03*
X0070919Y0095006D03*
X0075294Y0063756D03*
X0059044Y0063756D03*
X0042794Y0063756D03*
X0040919Y0079381D03*
X0040919Y0101256D03*
X0041544Y0117506D03*
X0074794Y0177193D03*
X0075294Y0192506D03*
X0059044Y0192506D03*
X0042794Y0192506D03*
X0086482Y0140943D03*
X0088044Y0137506D03*
X0095232Y0137506D03*
X0093732Y0123443D03*
X0089982Y0123443D03*
X0095919Y0100006D03*
X0109044Y0103131D03*
X0109044Y0112506D03*
X0109044Y0093131D03*
X0109044Y0079381D03*
X0107794Y0063756D03*
X0095232Y0156568D03*
X0096169Y0179381D03*
X0101169Y0183131D03*
X0105544Y0183443D03*
X0107794Y0192506D03*
X0091544Y0192506D03*
D34*
X0090916Y0187818D02*
X0093669Y0187818D01*
X0094294Y0187193D01*
X0094294Y0184786D01*
X0093466Y0183959D01*
X0090565Y0183959D01*
X0087934Y0183959D01*
X0082360Y0178384D01*
X0082360Y0174381D01*
X0082419Y0173815D01*
X0078728Y0173815D01*
X0077419Y0172506D01*
X0077419Y0169502D01*
X0077360Y0169443D01*
X0082478Y0169443D02*
X0082794Y0169443D01*
X0084919Y0171568D01*
X0084919Y0178756D01*
X0086169Y0180006D01*
X0090550Y0180006D01*
X0090565Y0180022D01*
X0090565Y0178053D02*
X0093122Y0178053D01*
X0094294Y0176881D01*
X0094294Y0175318D01*
X0093357Y0174381D01*
X0087478Y0174381D01*
X0086794Y0173697D01*
X0086794Y0157818D01*
X0085232Y0156256D01*
X0073419Y0156256D01*
X0062482Y0145318D01*
X0060857Y0145318D01*
X0060857Y0149068D02*
X0059669Y0150256D01*
X0059669Y0151881D01*
X0058045Y0153505D01*
X0057188Y0153505D01*
X0057562Y0153131D01*
X0058419Y0153131D01*
X0054993Y0155080D02*
X0062732Y0162818D01*
X0062732Y0167193D01*
X0067732Y0172193D01*
X0069528Y0172193D01*
X0062724Y0178997D01*
X0062724Y0180631D01*
X0059294Y0183451D02*
X0062724Y0186881D01*
X0059294Y0183451D02*
X0059294Y0172585D01*
X0059685Y0172193D01*
X0060544Y0171335D01*
X0060544Y0162818D01*
X0055955Y0158229D01*
X0053645Y0158229D01*
X0053645Y0155080D02*
X0054993Y0155080D01*
X0053645Y0148781D02*
X0051770Y0148781D01*
X0049607Y0150943D01*
X0047169Y0149693D02*
X0049669Y0147193D01*
X0047482Y0145631D02*
X0048419Y0144693D01*
X0050607Y0144693D01*
X0051544Y0145631D01*
X0053645Y0145631D01*
X0053645Y0142481D02*
X0052194Y0142481D01*
X0052169Y0142506D01*
X0051232Y0142506D01*
X0050607Y0143131D01*
X0048419Y0143131D01*
X0046857Y0141568D01*
X0046857Y0139381D01*
X0047791Y0138447D01*
X0047791Y0131881D01*
X0050681Y0136182D02*
X0049669Y0137193D01*
X0049669Y0140318D01*
X0050656Y0139332D01*
X0053645Y0139332D01*
X0053645Y0136182D02*
X0050681Y0136182D01*
X0053645Y0126733D02*
X0053480Y0126568D01*
X0050919Y0120006D02*
X0048732Y0120006D01*
X0047791Y0120947D01*
X0047791Y0123443D01*
X0042673Y0123443D02*
X0042673Y0126065D01*
X0039669Y0129068D01*
X0039669Y0183131D01*
X0044216Y0187678D01*
X0044645Y0188131D01*
X0044645Y0182506D02*
X0043732Y0182506D01*
X0041232Y0180006D01*
X0041232Y0135943D01*
X0042673Y0134502D01*
X0042673Y0131881D01*
X0044548Y0145631D02*
X0047482Y0145631D01*
X0047169Y0149693D02*
X0047169Y0152193D01*
X0050919Y0155943D01*
X0050919Y0159068D01*
X0049044Y0160943D01*
X0049044Y0169356D01*
X0050944Y0171256D01*
X0050944Y0176881D01*
X0050944Y0182506D01*
X0050944Y0188131D01*
X0056232Y0189693D02*
X0059044Y0192506D01*
X0056232Y0189693D02*
X0056232Y0165318D01*
X0055294Y0164381D01*
X0053792Y0164381D01*
X0053645Y0164529D01*
X0053357Y0164816D01*
X0050919Y0170459D02*
X0050944Y0171256D01*
X0047482Y0175943D02*
X0046544Y0176881D01*
X0044645Y0176881D01*
X0044645Y0171256D02*
X0044294Y0170906D01*
X0044294Y0166002D01*
X0044294Y0160884D02*
X0044294Y0159381D01*
X0046482Y0157193D01*
X0049357Y0156568D02*
X0044294Y0151506D01*
X0044294Y0151002D01*
X0044294Y0145884D02*
X0044548Y0145631D01*
X0049357Y0156568D02*
X0049357Y0158131D01*
X0047482Y0160006D01*
X0047482Y0175943D01*
X0057249Y0137818D02*
X0057188Y0137757D01*
X0066108Y0137757D01*
X0066482Y0138131D01*
X0070232Y0134381D02*
X0068605Y0132754D01*
X0068605Y0130867D01*
X0073357Y0127193D02*
X0073357Y0124756D01*
X0076603Y0121509D01*
X0076603Y0121256D01*
X0076662Y0121315D01*
X0081857Y0121315D01*
X0082939Y0120232D01*
X0086953Y0120232D01*
X0086953Y0117280D01*
X0089982Y0123443D02*
X0089078Y0124347D01*
X0089078Y0127324D01*
X0092227Y0127324D02*
X0092227Y0124948D01*
X0093732Y0123443D01*
X0096544Y0122506D02*
X0096558Y0122520D01*
X0096558Y0127324D01*
X0096544Y0122506D02*
X0097386Y0121664D01*
X0097386Y0120232D01*
X0087412Y0104381D02*
X0090919Y0100874D01*
X0090919Y0096315D01*
X0087412Y0104381D02*
X0086153Y0104381D01*
X0083663Y0106871D01*
X0087110Y0110318D01*
X0083663Y0106871D02*
X0079625Y0106871D01*
X0071485Y0121256D02*
X0066794Y0121256D01*
X0065544Y0122506D01*
X0065607Y0122506D01*
X0071485Y0121256D02*
X0071544Y0121315D01*
X0079629Y0150355D02*
X0081831Y0150355D01*
X0088044Y0156568D01*
X0095232Y0156568D01*
X0096558Y0163938D02*
X0092227Y0163938D01*
X0096558Y0163938D02*
X0096558Y0168958D01*
X0099749Y0171837D01*
X0096169Y0179381D02*
X0096169Y0181256D01*
X0093466Y0183959D01*
X0087478Y0174381D02*
X0086794Y0173072D01*
X0082478Y0169443D02*
X0084919Y0167002D01*
X0084919Y0158756D01*
X0083982Y0157818D01*
X0073419Y0157818D01*
X0071755Y0159483D01*
X0071755Y0160395D01*
X0074794Y0177193D02*
X0075654Y0178053D01*
X0079148Y0178053D01*
X0101169Y0183131D02*
X0101169Y0184381D01*
X0104963Y0188175D01*
X0108214Y0188175D01*
X0108982Y0187720D01*
X0108982Y0172917D01*
X0108214Y0171837D01*
X0097735Y0070631D02*
X0089357Y0070631D01*
X0085919Y0067193D01*
X0064982Y0067193D01*
X0061544Y0070631D01*
X0052853Y0070631D01*
D35*
X0048798Y0079068D02*
X0044169Y0074440D01*
X0048798Y0079068D02*
X0059966Y0079068D01*
X0061515Y0080867D01*
X0065919Y0076881D02*
X0068732Y0074068D01*
X0081857Y0074068D01*
X0084669Y0076881D01*
X0084669Y0085318D01*
X0085919Y0086568D01*
X0085919Y0091197D01*
X0079669Y0095006D02*
X0079669Y0099346D01*
X0079625Y0099391D01*
X0079669Y0095006D02*
X0071544Y0086881D01*
X0071544Y0081054D01*
X0071357Y0080867D01*
X0079044Y0086881D02*
X0077169Y0088756D01*
X0079044Y0086881D02*
X0079044Y0081054D01*
X0079231Y0080867D01*
X0070919Y0095006D02*
X0070919Y0099346D01*
X0070963Y0099391D01*
X0066169Y0101826D02*
X0066169Y0105943D01*
X0066169Y0101826D02*
X0062482Y0098138D01*
X0060287Y0093443D02*
X0062482Y0091249D01*
X0065919Y0087811D01*
X0065919Y0076881D01*
X0060287Y0093443D02*
X0054312Y0093443D01*
X0054312Y0095899D01*
X0056552Y0098138D01*
X0056552Y0100936D01*
X0056544Y0100943D01*
X0056544Y0108131D01*
X0054357Y0110318D01*
X0053732Y0110318D01*
X0055294Y0111881D01*
X0055294Y0120631D01*
X0053419Y0122818D01*
X0053480Y0126568D02*
X0050544Y0126568D01*
X0049607Y0127506D01*
X0053645Y0129883D02*
X0057296Y0129883D01*
X0058669Y0131256D01*
X0056232Y0134381D02*
X0054431Y0136182D01*
X0053645Y0136182D01*
X0054056Y0136182D01*
X0056232Y0134381D02*
X0066482Y0134381D01*
X0068982Y0136881D01*
X0071482Y0136881D01*
X0074607Y0133756D01*
X0081857Y0133756D01*
X0085294Y0137193D01*
X0085294Y0139756D01*
X0086482Y0140943D01*
X0088044Y0137506D02*
X0084353Y0133815D01*
X0084353Y0130867D01*
X0087503Y0130867D02*
X0087503Y0132902D01*
X0092107Y0137506D01*
X0095232Y0137506D01*
X0068669Y0130931D02*
X0068605Y0130867D01*
X0065544Y0122506D02*
X0061269Y0118230D01*
X0061269Y0115318D01*
X0061269Y0105318D01*
X0067787Y0115318D02*
X0065544Y0117561D01*
X0065544Y0122506D01*
X0060919Y0123443D02*
X0060919Y0127136D01*
X0060731Y0127324D01*
X0057582Y0127324D02*
X0057582Y0121094D01*
X0058357Y0120318D01*
X0051820Y0115318D02*
X0047794Y0115318D01*
X0045294Y0117818D01*
X0045294Y0138131D01*
X0044357Y0139068D01*
X0044357Y0140943D01*
X0053620Y0142506D02*
X0053645Y0142481D01*
X0053620Y0148756D02*
X0053645Y0148781D01*
X0047787Y0111888D02*
X0045294Y0111888D01*
X0047787Y0111888D02*
X0049357Y0110318D01*
X0053732Y0110318D01*
X0051820Y0105318D02*
X0051820Y0099031D01*
X0049982Y0097193D01*
X0049982Y0093131D01*
X0046554Y0089703D01*
X0046554Y0088441D01*
X0051864Y0083131D01*
X0046554Y0089703D02*
X0045651Y0089703D01*
X0097735Y0070631D02*
X0099044Y0070631D01*
X0102853Y0074440D01*
X0106419Y0074440D01*
D36*
X0094357Y0086881D02*
X0095919Y0088443D01*
X0095919Y0091197D01*
X0095919Y0091256D01*
X0090919Y0096256D01*
X0090919Y0096315D01*
X0090919Y0091197D02*
X0085919Y0091197D01*
X0090607Y0086881D02*
X0089074Y0085348D01*
X0089074Y0080867D01*
X0090607Y0086881D02*
X0094357Y0086881D01*
M02*
