G75*
%MOIN*%
%OFA0B0*%
%FSLAX25Y25*%
%IPPOS*%
%LPD*%
%AMOC8*
5,1,8,0,0,1.08239X$1,22.5*
%
%ADD10C,0.00000*%
%ADD11C,0.40000*%
%ADD12R,0.10000X0.20000*%
D10*
X0037794Y0060631D02*
X0037794Y0195631D01*
X0112794Y0195631D01*
X0112794Y0060631D01*
X0037794Y0060631D01*
X0064467Y0070631D02*
X0064469Y0070719D01*
X0064475Y0070807D01*
X0064485Y0070895D01*
X0064499Y0070983D01*
X0064516Y0071069D01*
X0064538Y0071155D01*
X0064563Y0071239D01*
X0064593Y0071323D01*
X0064625Y0071405D01*
X0064662Y0071485D01*
X0064702Y0071564D01*
X0064746Y0071641D01*
X0064793Y0071716D01*
X0064843Y0071788D01*
X0064897Y0071859D01*
X0064953Y0071926D01*
X0065013Y0071992D01*
X0065075Y0072054D01*
X0065141Y0072114D01*
X0065208Y0072170D01*
X0065279Y0072224D01*
X0065351Y0072274D01*
X0065426Y0072321D01*
X0065503Y0072365D01*
X0065582Y0072405D01*
X0065662Y0072442D01*
X0065744Y0072474D01*
X0065828Y0072504D01*
X0065912Y0072529D01*
X0065998Y0072551D01*
X0066084Y0072568D01*
X0066172Y0072582D01*
X0066260Y0072592D01*
X0066348Y0072598D01*
X0066436Y0072600D01*
X0066524Y0072598D01*
X0066612Y0072592D01*
X0066700Y0072582D01*
X0066788Y0072568D01*
X0066874Y0072551D01*
X0066960Y0072529D01*
X0067044Y0072504D01*
X0067128Y0072474D01*
X0067210Y0072442D01*
X0067290Y0072405D01*
X0067369Y0072365D01*
X0067446Y0072321D01*
X0067521Y0072274D01*
X0067593Y0072224D01*
X0067664Y0072170D01*
X0067731Y0072114D01*
X0067797Y0072054D01*
X0067859Y0071992D01*
X0067919Y0071926D01*
X0067975Y0071859D01*
X0068029Y0071788D01*
X0068079Y0071716D01*
X0068126Y0071641D01*
X0068170Y0071564D01*
X0068210Y0071485D01*
X0068247Y0071405D01*
X0068279Y0071323D01*
X0068309Y0071239D01*
X0068334Y0071155D01*
X0068356Y0071069D01*
X0068373Y0070983D01*
X0068387Y0070895D01*
X0068397Y0070807D01*
X0068403Y0070719D01*
X0068405Y0070631D01*
X0068403Y0070543D01*
X0068397Y0070455D01*
X0068387Y0070367D01*
X0068373Y0070279D01*
X0068356Y0070193D01*
X0068334Y0070107D01*
X0068309Y0070023D01*
X0068279Y0069939D01*
X0068247Y0069857D01*
X0068210Y0069777D01*
X0068170Y0069698D01*
X0068126Y0069621D01*
X0068079Y0069546D01*
X0068029Y0069474D01*
X0067975Y0069403D01*
X0067919Y0069336D01*
X0067859Y0069270D01*
X0067797Y0069208D01*
X0067731Y0069148D01*
X0067664Y0069092D01*
X0067593Y0069038D01*
X0067521Y0068988D01*
X0067446Y0068941D01*
X0067369Y0068897D01*
X0067290Y0068857D01*
X0067210Y0068820D01*
X0067128Y0068788D01*
X0067044Y0068758D01*
X0066960Y0068733D01*
X0066874Y0068711D01*
X0066788Y0068694D01*
X0066700Y0068680D01*
X0066612Y0068670D01*
X0066524Y0068664D01*
X0066436Y0068662D01*
X0066348Y0068664D01*
X0066260Y0068670D01*
X0066172Y0068680D01*
X0066084Y0068694D01*
X0065998Y0068711D01*
X0065912Y0068733D01*
X0065828Y0068758D01*
X0065744Y0068788D01*
X0065662Y0068820D01*
X0065582Y0068857D01*
X0065503Y0068897D01*
X0065426Y0068941D01*
X0065351Y0068988D01*
X0065279Y0069038D01*
X0065208Y0069092D01*
X0065141Y0069148D01*
X0065075Y0069208D01*
X0065013Y0069270D01*
X0064953Y0069336D01*
X0064897Y0069403D01*
X0064843Y0069474D01*
X0064793Y0069546D01*
X0064746Y0069621D01*
X0064702Y0069698D01*
X0064662Y0069777D01*
X0064625Y0069857D01*
X0064593Y0069939D01*
X0064563Y0070023D01*
X0064538Y0070107D01*
X0064516Y0070193D01*
X0064499Y0070279D01*
X0064485Y0070367D01*
X0064475Y0070455D01*
X0064469Y0070543D01*
X0064467Y0070631D01*
X0082183Y0070631D02*
X0082185Y0070719D01*
X0082191Y0070807D01*
X0082201Y0070895D01*
X0082215Y0070983D01*
X0082232Y0071069D01*
X0082254Y0071155D01*
X0082279Y0071239D01*
X0082309Y0071323D01*
X0082341Y0071405D01*
X0082378Y0071485D01*
X0082418Y0071564D01*
X0082462Y0071641D01*
X0082509Y0071716D01*
X0082559Y0071788D01*
X0082613Y0071859D01*
X0082669Y0071926D01*
X0082729Y0071992D01*
X0082791Y0072054D01*
X0082857Y0072114D01*
X0082924Y0072170D01*
X0082995Y0072224D01*
X0083067Y0072274D01*
X0083142Y0072321D01*
X0083219Y0072365D01*
X0083298Y0072405D01*
X0083378Y0072442D01*
X0083460Y0072474D01*
X0083544Y0072504D01*
X0083628Y0072529D01*
X0083714Y0072551D01*
X0083800Y0072568D01*
X0083888Y0072582D01*
X0083976Y0072592D01*
X0084064Y0072598D01*
X0084152Y0072600D01*
X0084240Y0072598D01*
X0084328Y0072592D01*
X0084416Y0072582D01*
X0084504Y0072568D01*
X0084590Y0072551D01*
X0084676Y0072529D01*
X0084760Y0072504D01*
X0084844Y0072474D01*
X0084926Y0072442D01*
X0085006Y0072405D01*
X0085085Y0072365D01*
X0085162Y0072321D01*
X0085237Y0072274D01*
X0085309Y0072224D01*
X0085380Y0072170D01*
X0085447Y0072114D01*
X0085513Y0072054D01*
X0085575Y0071992D01*
X0085635Y0071926D01*
X0085691Y0071859D01*
X0085745Y0071788D01*
X0085795Y0071716D01*
X0085842Y0071641D01*
X0085886Y0071564D01*
X0085926Y0071485D01*
X0085963Y0071405D01*
X0085995Y0071323D01*
X0086025Y0071239D01*
X0086050Y0071155D01*
X0086072Y0071069D01*
X0086089Y0070983D01*
X0086103Y0070895D01*
X0086113Y0070807D01*
X0086119Y0070719D01*
X0086121Y0070631D01*
X0086119Y0070543D01*
X0086113Y0070455D01*
X0086103Y0070367D01*
X0086089Y0070279D01*
X0086072Y0070193D01*
X0086050Y0070107D01*
X0086025Y0070023D01*
X0085995Y0069939D01*
X0085963Y0069857D01*
X0085926Y0069777D01*
X0085886Y0069698D01*
X0085842Y0069621D01*
X0085795Y0069546D01*
X0085745Y0069474D01*
X0085691Y0069403D01*
X0085635Y0069336D01*
X0085575Y0069270D01*
X0085513Y0069208D01*
X0085447Y0069148D01*
X0085380Y0069092D01*
X0085309Y0069038D01*
X0085237Y0068988D01*
X0085162Y0068941D01*
X0085085Y0068897D01*
X0085006Y0068857D01*
X0084926Y0068820D01*
X0084844Y0068788D01*
X0084760Y0068758D01*
X0084676Y0068733D01*
X0084590Y0068711D01*
X0084504Y0068694D01*
X0084416Y0068680D01*
X0084328Y0068670D01*
X0084240Y0068664D01*
X0084152Y0068662D01*
X0084064Y0068664D01*
X0083976Y0068670D01*
X0083888Y0068680D01*
X0083800Y0068694D01*
X0083714Y0068711D01*
X0083628Y0068733D01*
X0083544Y0068758D01*
X0083460Y0068788D01*
X0083378Y0068820D01*
X0083298Y0068857D01*
X0083219Y0068897D01*
X0083142Y0068941D01*
X0083067Y0068988D01*
X0082995Y0069038D01*
X0082924Y0069092D01*
X0082857Y0069148D01*
X0082791Y0069208D01*
X0082729Y0069270D01*
X0082669Y0069336D01*
X0082613Y0069403D01*
X0082559Y0069474D01*
X0082509Y0069546D01*
X0082462Y0069621D01*
X0082418Y0069698D01*
X0082378Y0069777D01*
X0082341Y0069857D01*
X0082309Y0069939D01*
X0082279Y0070023D01*
X0082254Y0070107D01*
X0082232Y0070193D01*
X0082215Y0070279D01*
X0082201Y0070367D01*
X0082191Y0070455D01*
X0082185Y0070543D01*
X0082183Y0070631D01*
D11*
X0075544Y0170631D03*
D12*
X0045544Y0170631D03*
X0105544Y0170631D03*
M02*
