G75*
%MOIN*%
%OFA0B0*%
%FSLAX25Y25*%
%IPPOS*%
%LPD*%
%AMOC8*
5,1,8,0,0,1.08239X$1,22.5*
%
%ADD10C,0.00000*%
%ADD11R,0.01975X0.02762*%
%ADD12R,0.02762X0.01975*%
%ADD13R,0.04731X0.07880*%
%ADD14R,0.04534X0.04652*%
%ADD15R,0.04652X0.04534*%
%ADD16R,0.03313X0.04042*%
%ADD17R,0.04042X0.03313*%
%ADD18R,0.06069X0.04337*%
%ADD19R,0.06069X0.05124*%
%ADD20C,0.07000*%
%ADD21C,0.04337*%
%ADD22R,0.05124X0.08274*%
%ADD23R,0.03156X0.03943*%
%ADD24R,0.02953X0.04528*%
%ADD25R,0.02565X0.02565*%
%ADD26R,0.03943X0.03156*%
%ADD27R,0.05912X0.04337*%
%ADD28R,0.04337X0.05124*%
%ADD29R,0.03550X0.03550*%
%ADD30R,0.06900X0.06900*%
%ADD31C,0.06900*%
%ADD32R,0.03740X0.01575*%
D10*
X0037794Y0060631D02*
X0037794Y0195631D01*
X0112794Y0195631D01*
X0112794Y0060631D01*
X0037794Y0060631D01*
X0064467Y0070631D02*
X0064469Y0070719D01*
X0064475Y0070807D01*
X0064485Y0070895D01*
X0064499Y0070983D01*
X0064516Y0071069D01*
X0064538Y0071155D01*
X0064563Y0071239D01*
X0064593Y0071323D01*
X0064625Y0071405D01*
X0064662Y0071485D01*
X0064702Y0071564D01*
X0064746Y0071641D01*
X0064793Y0071716D01*
X0064843Y0071788D01*
X0064897Y0071859D01*
X0064953Y0071926D01*
X0065013Y0071992D01*
X0065075Y0072054D01*
X0065141Y0072114D01*
X0065208Y0072170D01*
X0065279Y0072224D01*
X0065351Y0072274D01*
X0065426Y0072321D01*
X0065503Y0072365D01*
X0065582Y0072405D01*
X0065662Y0072442D01*
X0065744Y0072474D01*
X0065828Y0072504D01*
X0065912Y0072529D01*
X0065998Y0072551D01*
X0066084Y0072568D01*
X0066172Y0072582D01*
X0066260Y0072592D01*
X0066348Y0072598D01*
X0066436Y0072600D01*
X0066524Y0072598D01*
X0066612Y0072592D01*
X0066700Y0072582D01*
X0066788Y0072568D01*
X0066874Y0072551D01*
X0066960Y0072529D01*
X0067044Y0072504D01*
X0067128Y0072474D01*
X0067210Y0072442D01*
X0067290Y0072405D01*
X0067369Y0072365D01*
X0067446Y0072321D01*
X0067521Y0072274D01*
X0067593Y0072224D01*
X0067664Y0072170D01*
X0067731Y0072114D01*
X0067797Y0072054D01*
X0067859Y0071992D01*
X0067919Y0071926D01*
X0067975Y0071859D01*
X0068029Y0071788D01*
X0068079Y0071716D01*
X0068126Y0071641D01*
X0068170Y0071564D01*
X0068210Y0071485D01*
X0068247Y0071405D01*
X0068279Y0071323D01*
X0068309Y0071239D01*
X0068334Y0071155D01*
X0068356Y0071069D01*
X0068373Y0070983D01*
X0068387Y0070895D01*
X0068397Y0070807D01*
X0068403Y0070719D01*
X0068405Y0070631D01*
X0068403Y0070543D01*
X0068397Y0070455D01*
X0068387Y0070367D01*
X0068373Y0070279D01*
X0068356Y0070193D01*
X0068334Y0070107D01*
X0068309Y0070023D01*
X0068279Y0069939D01*
X0068247Y0069857D01*
X0068210Y0069777D01*
X0068170Y0069698D01*
X0068126Y0069621D01*
X0068079Y0069546D01*
X0068029Y0069474D01*
X0067975Y0069403D01*
X0067919Y0069336D01*
X0067859Y0069270D01*
X0067797Y0069208D01*
X0067731Y0069148D01*
X0067664Y0069092D01*
X0067593Y0069038D01*
X0067521Y0068988D01*
X0067446Y0068941D01*
X0067369Y0068897D01*
X0067290Y0068857D01*
X0067210Y0068820D01*
X0067128Y0068788D01*
X0067044Y0068758D01*
X0066960Y0068733D01*
X0066874Y0068711D01*
X0066788Y0068694D01*
X0066700Y0068680D01*
X0066612Y0068670D01*
X0066524Y0068664D01*
X0066436Y0068662D01*
X0066348Y0068664D01*
X0066260Y0068670D01*
X0066172Y0068680D01*
X0066084Y0068694D01*
X0065998Y0068711D01*
X0065912Y0068733D01*
X0065828Y0068758D01*
X0065744Y0068788D01*
X0065662Y0068820D01*
X0065582Y0068857D01*
X0065503Y0068897D01*
X0065426Y0068941D01*
X0065351Y0068988D01*
X0065279Y0069038D01*
X0065208Y0069092D01*
X0065141Y0069148D01*
X0065075Y0069208D01*
X0065013Y0069270D01*
X0064953Y0069336D01*
X0064897Y0069403D01*
X0064843Y0069474D01*
X0064793Y0069546D01*
X0064746Y0069621D01*
X0064702Y0069698D01*
X0064662Y0069777D01*
X0064625Y0069857D01*
X0064593Y0069939D01*
X0064563Y0070023D01*
X0064538Y0070107D01*
X0064516Y0070193D01*
X0064499Y0070279D01*
X0064485Y0070367D01*
X0064475Y0070455D01*
X0064469Y0070543D01*
X0064467Y0070631D01*
X0082183Y0070631D02*
X0082185Y0070719D01*
X0082191Y0070807D01*
X0082201Y0070895D01*
X0082215Y0070983D01*
X0082232Y0071069D01*
X0082254Y0071155D01*
X0082279Y0071239D01*
X0082309Y0071323D01*
X0082341Y0071405D01*
X0082378Y0071485D01*
X0082418Y0071564D01*
X0082462Y0071641D01*
X0082509Y0071716D01*
X0082559Y0071788D01*
X0082613Y0071859D01*
X0082669Y0071926D01*
X0082729Y0071992D01*
X0082791Y0072054D01*
X0082857Y0072114D01*
X0082924Y0072170D01*
X0082995Y0072224D01*
X0083067Y0072274D01*
X0083142Y0072321D01*
X0083219Y0072365D01*
X0083298Y0072405D01*
X0083378Y0072442D01*
X0083460Y0072474D01*
X0083544Y0072504D01*
X0083628Y0072529D01*
X0083714Y0072551D01*
X0083800Y0072568D01*
X0083888Y0072582D01*
X0083976Y0072592D01*
X0084064Y0072598D01*
X0084152Y0072600D01*
X0084240Y0072598D01*
X0084328Y0072592D01*
X0084416Y0072582D01*
X0084504Y0072568D01*
X0084590Y0072551D01*
X0084676Y0072529D01*
X0084760Y0072504D01*
X0084844Y0072474D01*
X0084926Y0072442D01*
X0085006Y0072405D01*
X0085085Y0072365D01*
X0085162Y0072321D01*
X0085237Y0072274D01*
X0085309Y0072224D01*
X0085380Y0072170D01*
X0085447Y0072114D01*
X0085513Y0072054D01*
X0085575Y0071992D01*
X0085635Y0071926D01*
X0085691Y0071859D01*
X0085745Y0071788D01*
X0085795Y0071716D01*
X0085842Y0071641D01*
X0085886Y0071564D01*
X0085926Y0071485D01*
X0085963Y0071405D01*
X0085995Y0071323D01*
X0086025Y0071239D01*
X0086050Y0071155D01*
X0086072Y0071069D01*
X0086089Y0070983D01*
X0086103Y0070895D01*
X0086113Y0070807D01*
X0086119Y0070719D01*
X0086121Y0070631D01*
X0086119Y0070543D01*
X0086113Y0070455D01*
X0086103Y0070367D01*
X0086089Y0070279D01*
X0086072Y0070193D01*
X0086050Y0070107D01*
X0086025Y0070023D01*
X0085995Y0069939D01*
X0085963Y0069857D01*
X0085926Y0069777D01*
X0085886Y0069698D01*
X0085842Y0069621D01*
X0085795Y0069546D01*
X0085745Y0069474D01*
X0085691Y0069403D01*
X0085635Y0069336D01*
X0085575Y0069270D01*
X0085513Y0069208D01*
X0085447Y0069148D01*
X0085380Y0069092D01*
X0085309Y0069038D01*
X0085237Y0068988D01*
X0085162Y0068941D01*
X0085085Y0068897D01*
X0085006Y0068857D01*
X0084926Y0068820D01*
X0084844Y0068788D01*
X0084760Y0068758D01*
X0084676Y0068733D01*
X0084590Y0068711D01*
X0084504Y0068694D01*
X0084416Y0068680D01*
X0084328Y0068670D01*
X0084240Y0068664D01*
X0084152Y0068662D01*
X0084064Y0068664D01*
X0083976Y0068670D01*
X0083888Y0068680D01*
X0083800Y0068694D01*
X0083714Y0068711D01*
X0083628Y0068733D01*
X0083544Y0068758D01*
X0083460Y0068788D01*
X0083378Y0068820D01*
X0083298Y0068857D01*
X0083219Y0068897D01*
X0083142Y0068941D01*
X0083067Y0068988D01*
X0082995Y0069038D01*
X0082924Y0069092D01*
X0082857Y0069148D01*
X0082791Y0069208D01*
X0082729Y0069270D01*
X0082669Y0069336D01*
X0082613Y0069403D01*
X0082559Y0069474D01*
X0082509Y0069546D01*
X0082462Y0069621D01*
X0082418Y0069698D01*
X0082378Y0069777D01*
X0082341Y0069857D01*
X0082309Y0069939D01*
X0082279Y0070023D01*
X0082254Y0070107D01*
X0082232Y0070193D01*
X0082215Y0070279D01*
X0082201Y0070367D01*
X0082191Y0070455D01*
X0082185Y0070543D01*
X0082183Y0070631D01*
D11*
X0082778Y0127324D03*
X0081204Y0130867D03*
X0084353Y0130867D03*
X0087503Y0130867D03*
X0090652Y0130867D03*
X0089078Y0127324D03*
X0092227Y0127324D03*
X0093802Y0130867D03*
X0096558Y0127324D03*
X0079629Y0127324D03*
X0076479Y0127324D03*
X0074904Y0130867D03*
X0078054Y0130867D03*
X0071755Y0130867D03*
X0068605Y0130867D03*
X0067030Y0127324D03*
X0063881Y0127324D03*
X0065456Y0130867D03*
X0062306Y0130867D03*
X0060731Y0127324D03*
X0057582Y0127324D03*
X0070180Y0127324D03*
X0068605Y0160395D03*
X0070180Y0163938D03*
X0071755Y0160395D03*
X0073330Y0163938D03*
X0074904Y0160395D03*
X0076479Y0163938D03*
X0078054Y0160395D03*
X0079629Y0163938D03*
X0081204Y0160395D03*
X0082778Y0163938D03*
X0089078Y0163938D03*
X0092227Y0163938D03*
X0096558Y0163938D03*
X0067030Y0163938D03*
D12*
X0057188Y0153505D03*
X0057188Y0150355D03*
X0057188Y0147206D03*
X0057188Y0144056D03*
X0057188Y0140906D03*
X0057188Y0137757D03*
X0053645Y0139332D03*
X0053645Y0142481D03*
X0053645Y0145631D03*
X0053645Y0148781D03*
X0053645Y0151930D03*
X0053645Y0155080D03*
X0053645Y0158229D03*
X0053645Y0161379D03*
X0053645Y0164529D03*
X0053645Y0136182D03*
X0053645Y0133032D03*
X0053645Y0129883D03*
X0053645Y0126733D03*
X0079629Y0137757D03*
X0079629Y0140906D03*
X0079629Y0144056D03*
X0079629Y0147206D03*
X0079629Y0150355D03*
X0079629Y0153505D03*
D13*
X0069528Y0172193D03*
X0059685Y0172193D03*
D14*
X0062724Y0180631D03*
X0062724Y0186881D03*
X0069614Y0186881D03*
X0069614Y0180631D03*
X0067787Y0115318D03*
X0074677Y0115318D03*
X0087412Y0104381D03*
X0094302Y0104381D03*
X0051864Y0083131D03*
X0044974Y0083131D03*
D15*
X0045294Y0104999D03*
X0045294Y0111888D03*
X0062482Y0098138D03*
X0062482Y0091249D03*
D16*
X0044169Y0074440D03*
X0044169Y0069322D03*
X0081857Y0116197D03*
X0081857Y0121315D03*
X0085919Y0096315D03*
X0085919Y0091197D03*
X0090919Y0091197D03*
X0090919Y0096315D03*
X0095919Y0096315D03*
X0095919Y0091197D03*
X0106419Y0074440D03*
X0106419Y0069322D03*
D17*
X0092228Y0110318D03*
X0087110Y0110318D03*
X0085798Y0187818D03*
X0090916Y0187818D03*
D18*
X0079625Y0106871D03*
X0079625Y0099391D03*
X0070963Y0099391D03*
D19*
X0070963Y0106084D03*
D20*
X0052853Y0073931D02*
X0052853Y0067331D01*
X0097735Y0067331D02*
X0097735Y0073931D01*
D21*
X0084152Y0070631D03*
X0066436Y0070631D03*
D22*
X0071357Y0080867D03*
X0079231Y0080867D03*
X0089074Y0080867D03*
X0061515Y0080867D03*
D23*
X0071485Y0121256D03*
X0076603Y0121256D03*
X0047791Y0123443D03*
X0042673Y0123443D03*
X0042673Y0131881D03*
X0047791Y0131881D03*
X0077360Y0169443D03*
X0082478Y0169443D03*
X0082360Y0174381D03*
X0087478Y0174381D03*
D24*
X0099749Y0171837D03*
X0108214Y0171837D03*
X0108214Y0188175D03*
X0099749Y0188175D03*
D25*
X0097386Y0120232D03*
X0097386Y0117280D03*
X0086953Y0117280D03*
X0086953Y0120232D03*
D26*
X0044294Y0145884D03*
X0044294Y0151002D03*
X0044294Y0160884D03*
X0044294Y0166002D03*
D27*
X0045651Y0097184D03*
X0045651Y0089703D03*
X0054312Y0093443D03*
D28*
X0051820Y0105318D03*
X0051820Y0115318D03*
X0061269Y0115318D03*
X0061269Y0105318D03*
D29*
X0050944Y0171256D03*
X0050944Y0176881D03*
X0050944Y0182506D03*
X0050944Y0188131D03*
X0044645Y0188131D03*
X0044645Y0182506D03*
X0044645Y0176881D03*
X0044645Y0171256D03*
D30*
X0104294Y0088131D03*
D31*
X0104294Y0098131D03*
X0104294Y0108131D03*
X0104294Y0118131D03*
D32*
X0090565Y0178053D03*
X0090565Y0180022D03*
X0090565Y0181990D03*
X0090565Y0183959D03*
X0079148Y0183959D03*
X0079148Y0181990D03*
X0079148Y0180022D03*
X0079148Y0178053D03*
M02*
