%
M48
M72
T01C0.01200
T02C0.03500
T03C0.03937
%
T01
X42794Y63756
X40919Y79381
X40919Y101256
X41544Y117506
X49607Y127506
X53419Y122818
X50919Y120006
X58357Y120318
X60919Y123443
X65544Y122506
X58669Y131256
X66482Y134381
X66482Y138131
X70232Y134381
X73357Y127193
X78669Y111881
X85919Y100006
X79669Y95006
X77169Y88756
X70919Y95006
X66169Y105943
X59044Y63756
X75294Y63756
X91544Y63756
X107794Y63756
X109044Y79381
X109044Y93131
X109044Y103131
X109044Y112506
X95919Y100006
X93732Y123443
X89982Y123443
X88044Y137506
X86482Y140943
X95232Y137506
X95232Y156568
X96169Y179381
X101169Y183131
X105544Y183443
X107794Y192506
X91544Y192506
X75294Y192506
X74794Y177193
X59044Y192506
X42794Y192506
X46482Y157193
X49607Y150943
X49669Y147193
X49669Y140318
X44357Y140943
X60857Y145318
X60857Y149068
T02
X104294Y118131
X104294Y108131
X104294Y98131
X104294Y88131
T03
X52853Y70631
X66436Y70631
X84152Y70631
X97735Y70631
M30
