G75*
%MOIN*%
%OFA0B0*%
%FSLAX25Y25*%
%IPPOS*%
%LPD*%
%AMOC8*
5,1,8,0,0,1.08239X$1,22.5*
%
%ADD10C,0.00000*%
%ADD11C,0.00394*%
D10*
X0037794Y0060631D02*
X0037794Y0195631D01*
X0112794Y0195631D01*
X0112794Y0060631D01*
X0037794Y0060631D01*
X0064467Y0070631D02*
X0064469Y0070719D01*
X0064475Y0070807D01*
X0064485Y0070895D01*
X0064499Y0070983D01*
X0064516Y0071069D01*
X0064538Y0071155D01*
X0064563Y0071239D01*
X0064593Y0071323D01*
X0064625Y0071405D01*
X0064662Y0071485D01*
X0064702Y0071564D01*
X0064746Y0071641D01*
X0064793Y0071716D01*
X0064843Y0071788D01*
X0064897Y0071859D01*
X0064953Y0071926D01*
X0065013Y0071992D01*
X0065075Y0072054D01*
X0065141Y0072114D01*
X0065208Y0072170D01*
X0065279Y0072224D01*
X0065351Y0072274D01*
X0065426Y0072321D01*
X0065503Y0072365D01*
X0065582Y0072405D01*
X0065662Y0072442D01*
X0065744Y0072474D01*
X0065828Y0072504D01*
X0065912Y0072529D01*
X0065998Y0072551D01*
X0066084Y0072568D01*
X0066172Y0072582D01*
X0066260Y0072592D01*
X0066348Y0072598D01*
X0066436Y0072600D01*
X0066524Y0072598D01*
X0066612Y0072592D01*
X0066700Y0072582D01*
X0066788Y0072568D01*
X0066874Y0072551D01*
X0066960Y0072529D01*
X0067044Y0072504D01*
X0067128Y0072474D01*
X0067210Y0072442D01*
X0067290Y0072405D01*
X0067369Y0072365D01*
X0067446Y0072321D01*
X0067521Y0072274D01*
X0067593Y0072224D01*
X0067664Y0072170D01*
X0067731Y0072114D01*
X0067797Y0072054D01*
X0067859Y0071992D01*
X0067919Y0071926D01*
X0067975Y0071859D01*
X0068029Y0071788D01*
X0068079Y0071716D01*
X0068126Y0071641D01*
X0068170Y0071564D01*
X0068210Y0071485D01*
X0068247Y0071405D01*
X0068279Y0071323D01*
X0068309Y0071239D01*
X0068334Y0071155D01*
X0068356Y0071069D01*
X0068373Y0070983D01*
X0068387Y0070895D01*
X0068397Y0070807D01*
X0068403Y0070719D01*
X0068405Y0070631D01*
X0068403Y0070543D01*
X0068397Y0070455D01*
X0068387Y0070367D01*
X0068373Y0070279D01*
X0068356Y0070193D01*
X0068334Y0070107D01*
X0068309Y0070023D01*
X0068279Y0069939D01*
X0068247Y0069857D01*
X0068210Y0069777D01*
X0068170Y0069698D01*
X0068126Y0069621D01*
X0068079Y0069546D01*
X0068029Y0069474D01*
X0067975Y0069403D01*
X0067919Y0069336D01*
X0067859Y0069270D01*
X0067797Y0069208D01*
X0067731Y0069148D01*
X0067664Y0069092D01*
X0067593Y0069038D01*
X0067521Y0068988D01*
X0067446Y0068941D01*
X0067369Y0068897D01*
X0067290Y0068857D01*
X0067210Y0068820D01*
X0067128Y0068788D01*
X0067044Y0068758D01*
X0066960Y0068733D01*
X0066874Y0068711D01*
X0066788Y0068694D01*
X0066700Y0068680D01*
X0066612Y0068670D01*
X0066524Y0068664D01*
X0066436Y0068662D01*
X0066348Y0068664D01*
X0066260Y0068670D01*
X0066172Y0068680D01*
X0066084Y0068694D01*
X0065998Y0068711D01*
X0065912Y0068733D01*
X0065828Y0068758D01*
X0065744Y0068788D01*
X0065662Y0068820D01*
X0065582Y0068857D01*
X0065503Y0068897D01*
X0065426Y0068941D01*
X0065351Y0068988D01*
X0065279Y0069038D01*
X0065208Y0069092D01*
X0065141Y0069148D01*
X0065075Y0069208D01*
X0065013Y0069270D01*
X0064953Y0069336D01*
X0064897Y0069403D01*
X0064843Y0069474D01*
X0064793Y0069546D01*
X0064746Y0069621D01*
X0064702Y0069698D01*
X0064662Y0069777D01*
X0064625Y0069857D01*
X0064593Y0069939D01*
X0064563Y0070023D01*
X0064538Y0070107D01*
X0064516Y0070193D01*
X0064499Y0070279D01*
X0064485Y0070367D01*
X0064475Y0070455D01*
X0064469Y0070543D01*
X0064467Y0070631D01*
X0082183Y0070631D02*
X0082185Y0070719D01*
X0082191Y0070807D01*
X0082201Y0070895D01*
X0082215Y0070983D01*
X0082232Y0071069D01*
X0082254Y0071155D01*
X0082279Y0071239D01*
X0082309Y0071323D01*
X0082341Y0071405D01*
X0082378Y0071485D01*
X0082418Y0071564D01*
X0082462Y0071641D01*
X0082509Y0071716D01*
X0082559Y0071788D01*
X0082613Y0071859D01*
X0082669Y0071926D01*
X0082729Y0071992D01*
X0082791Y0072054D01*
X0082857Y0072114D01*
X0082924Y0072170D01*
X0082995Y0072224D01*
X0083067Y0072274D01*
X0083142Y0072321D01*
X0083219Y0072365D01*
X0083298Y0072405D01*
X0083378Y0072442D01*
X0083460Y0072474D01*
X0083544Y0072504D01*
X0083628Y0072529D01*
X0083714Y0072551D01*
X0083800Y0072568D01*
X0083888Y0072582D01*
X0083976Y0072592D01*
X0084064Y0072598D01*
X0084152Y0072600D01*
X0084240Y0072598D01*
X0084328Y0072592D01*
X0084416Y0072582D01*
X0084504Y0072568D01*
X0084590Y0072551D01*
X0084676Y0072529D01*
X0084760Y0072504D01*
X0084844Y0072474D01*
X0084926Y0072442D01*
X0085006Y0072405D01*
X0085085Y0072365D01*
X0085162Y0072321D01*
X0085237Y0072274D01*
X0085309Y0072224D01*
X0085380Y0072170D01*
X0085447Y0072114D01*
X0085513Y0072054D01*
X0085575Y0071992D01*
X0085635Y0071926D01*
X0085691Y0071859D01*
X0085745Y0071788D01*
X0085795Y0071716D01*
X0085842Y0071641D01*
X0085886Y0071564D01*
X0085926Y0071485D01*
X0085963Y0071405D01*
X0085995Y0071323D01*
X0086025Y0071239D01*
X0086050Y0071155D01*
X0086072Y0071069D01*
X0086089Y0070983D01*
X0086103Y0070895D01*
X0086113Y0070807D01*
X0086119Y0070719D01*
X0086121Y0070631D01*
X0086119Y0070543D01*
X0086113Y0070455D01*
X0086103Y0070367D01*
X0086089Y0070279D01*
X0086072Y0070193D01*
X0086050Y0070107D01*
X0086025Y0070023D01*
X0085995Y0069939D01*
X0085963Y0069857D01*
X0085926Y0069777D01*
X0085886Y0069698D01*
X0085842Y0069621D01*
X0085795Y0069546D01*
X0085745Y0069474D01*
X0085691Y0069403D01*
X0085635Y0069336D01*
X0085575Y0069270D01*
X0085513Y0069208D01*
X0085447Y0069148D01*
X0085380Y0069092D01*
X0085309Y0069038D01*
X0085237Y0068988D01*
X0085162Y0068941D01*
X0085085Y0068897D01*
X0085006Y0068857D01*
X0084926Y0068820D01*
X0084844Y0068788D01*
X0084760Y0068758D01*
X0084676Y0068733D01*
X0084590Y0068711D01*
X0084504Y0068694D01*
X0084416Y0068680D01*
X0084328Y0068670D01*
X0084240Y0068664D01*
X0084152Y0068662D01*
X0084064Y0068664D01*
X0083976Y0068670D01*
X0083888Y0068680D01*
X0083800Y0068694D01*
X0083714Y0068711D01*
X0083628Y0068733D01*
X0083544Y0068758D01*
X0083460Y0068788D01*
X0083378Y0068820D01*
X0083298Y0068857D01*
X0083219Y0068897D01*
X0083142Y0068941D01*
X0083067Y0068988D01*
X0082995Y0069038D01*
X0082924Y0069092D01*
X0082857Y0069148D01*
X0082791Y0069208D01*
X0082729Y0069270D01*
X0082669Y0069336D01*
X0082613Y0069403D01*
X0082559Y0069474D01*
X0082509Y0069546D01*
X0082462Y0069621D01*
X0082418Y0069698D01*
X0082378Y0069777D01*
X0082341Y0069857D01*
X0082309Y0069939D01*
X0082279Y0070023D01*
X0082254Y0070107D01*
X0082232Y0070193D01*
X0082215Y0070279D01*
X0082201Y0070367D01*
X0082191Y0070455D01*
X0082185Y0070543D01*
X0082183Y0070631D01*
D11*
X0095767Y0073584D02*
X0095767Y0067678D01*
X0095766Y0067678D02*
X0095768Y0067591D01*
X0095774Y0067504D01*
X0095783Y0067417D01*
X0095797Y0067331D01*
X0095814Y0067246D01*
X0095835Y0067161D01*
X0095860Y0067078D01*
X0095888Y0066995D01*
X0095920Y0066914D01*
X0095956Y0066835D01*
X0095995Y0066757D01*
X0096037Y0066681D01*
X0096083Y0066607D01*
X0096132Y0066535D01*
X0096184Y0066465D01*
X0096239Y0066398D01*
X0096297Y0066333D01*
X0096358Y0066270D01*
X0096422Y0066211D01*
X0096488Y0066154D01*
X0096557Y0066101D01*
X0096628Y0066050D01*
X0096701Y0066003D01*
X0096776Y0065958D01*
X0096853Y0065918D01*
X0096931Y0065880D01*
X0097012Y0065847D01*
X0097093Y0065816D01*
X0097176Y0065790D01*
X0097261Y0065767D01*
X0097346Y0065748D01*
X0097431Y0065733D01*
X0097518Y0065721D01*
X0097604Y0065713D01*
X0097691Y0065709D01*
X0097779Y0065709D01*
X0097866Y0065713D01*
X0097952Y0065721D01*
X0098039Y0065733D01*
X0098124Y0065748D01*
X0098209Y0065767D01*
X0098294Y0065790D01*
X0098377Y0065816D01*
X0098458Y0065847D01*
X0098539Y0065880D01*
X0098617Y0065918D01*
X0098694Y0065958D01*
X0098769Y0066003D01*
X0098842Y0066050D01*
X0098913Y0066101D01*
X0098982Y0066154D01*
X0099048Y0066211D01*
X0099112Y0066270D01*
X0099173Y0066333D01*
X0099231Y0066398D01*
X0099286Y0066465D01*
X0099338Y0066535D01*
X0099387Y0066607D01*
X0099433Y0066681D01*
X0099475Y0066757D01*
X0099514Y0066835D01*
X0099550Y0066914D01*
X0099582Y0066995D01*
X0099610Y0067078D01*
X0099635Y0067161D01*
X0099656Y0067246D01*
X0099673Y0067331D01*
X0099687Y0067417D01*
X0099696Y0067504D01*
X0099702Y0067591D01*
X0099704Y0067678D01*
X0099704Y0073584D01*
X0099702Y0073671D01*
X0099696Y0073758D01*
X0099687Y0073845D01*
X0099673Y0073931D01*
X0099656Y0074016D01*
X0099635Y0074101D01*
X0099610Y0074184D01*
X0099582Y0074267D01*
X0099550Y0074348D01*
X0099514Y0074427D01*
X0099475Y0074505D01*
X0099433Y0074581D01*
X0099387Y0074655D01*
X0099338Y0074727D01*
X0099286Y0074797D01*
X0099231Y0074864D01*
X0099173Y0074929D01*
X0099112Y0074992D01*
X0099048Y0075051D01*
X0098982Y0075108D01*
X0098913Y0075161D01*
X0098842Y0075212D01*
X0098769Y0075259D01*
X0098694Y0075304D01*
X0098617Y0075344D01*
X0098539Y0075382D01*
X0098458Y0075415D01*
X0098377Y0075446D01*
X0098294Y0075472D01*
X0098209Y0075495D01*
X0098124Y0075514D01*
X0098039Y0075529D01*
X0097952Y0075541D01*
X0097866Y0075549D01*
X0097779Y0075553D01*
X0097691Y0075553D01*
X0097604Y0075549D01*
X0097518Y0075541D01*
X0097431Y0075529D01*
X0097346Y0075514D01*
X0097261Y0075495D01*
X0097176Y0075472D01*
X0097093Y0075446D01*
X0097012Y0075415D01*
X0096931Y0075382D01*
X0096853Y0075344D01*
X0096776Y0075304D01*
X0096701Y0075259D01*
X0096628Y0075212D01*
X0096557Y0075161D01*
X0096488Y0075108D01*
X0096422Y0075051D01*
X0096358Y0074992D01*
X0096297Y0074929D01*
X0096239Y0074864D01*
X0096184Y0074797D01*
X0096132Y0074727D01*
X0096083Y0074655D01*
X0096037Y0074581D01*
X0095995Y0074505D01*
X0095956Y0074427D01*
X0095920Y0074348D01*
X0095888Y0074267D01*
X0095860Y0074184D01*
X0095835Y0074101D01*
X0095814Y0074016D01*
X0095797Y0073931D01*
X0095783Y0073845D01*
X0095774Y0073758D01*
X0095768Y0073671D01*
X0095766Y0073584D01*
X0054822Y0073584D02*
X0054822Y0067678D01*
X0054820Y0067591D01*
X0054814Y0067504D01*
X0054805Y0067417D01*
X0054791Y0067331D01*
X0054774Y0067246D01*
X0054753Y0067161D01*
X0054728Y0067078D01*
X0054700Y0066995D01*
X0054668Y0066914D01*
X0054632Y0066835D01*
X0054593Y0066757D01*
X0054551Y0066681D01*
X0054505Y0066607D01*
X0054456Y0066535D01*
X0054404Y0066465D01*
X0054349Y0066398D01*
X0054291Y0066333D01*
X0054230Y0066270D01*
X0054166Y0066211D01*
X0054100Y0066154D01*
X0054031Y0066101D01*
X0053960Y0066050D01*
X0053887Y0066003D01*
X0053812Y0065958D01*
X0053735Y0065918D01*
X0053657Y0065880D01*
X0053576Y0065847D01*
X0053495Y0065816D01*
X0053412Y0065790D01*
X0053327Y0065767D01*
X0053242Y0065748D01*
X0053157Y0065733D01*
X0053070Y0065721D01*
X0052984Y0065713D01*
X0052897Y0065709D01*
X0052809Y0065709D01*
X0052722Y0065713D01*
X0052636Y0065721D01*
X0052549Y0065733D01*
X0052464Y0065748D01*
X0052379Y0065767D01*
X0052294Y0065790D01*
X0052211Y0065816D01*
X0052130Y0065847D01*
X0052049Y0065880D01*
X0051971Y0065918D01*
X0051894Y0065958D01*
X0051819Y0066003D01*
X0051746Y0066050D01*
X0051675Y0066101D01*
X0051606Y0066154D01*
X0051540Y0066211D01*
X0051476Y0066270D01*
X0051415Y0066333D01*
X0051357Y0066398D01*
X0051302Y0066465D01*
X0051250Y0066535D01*
X0051201Y0066607D01*
X0051155Y0066681D01*
X0051113Y0066757D01*
X0051074Y0066835D01*
X0051038Y0066914D01*
X0051006Y0066995D01*
X0050978Y0067078D01*
X0050953Y0067161D01*
X0050932Y0067246D01*
X0050915Y0067331D01*
X0050901Y0067417D01*
X0050892Y0067504D01*
X0050886Y0067591D01*
X0050884Y0067678D01*
X0050885Y0067678D02*
X0050885Y0073584D01*
X0050884Y0073584D02*
X0050886Y0073671D01*
X0050892Y0073758D01*
X0050901Y0073845D01*
X0050915Y0073931D01*
X0050932Y0074016D01*
X0050953Y0074101D01*
X0050978Y0074184D01*
X0051006Y0074267D01*
X0051038Y0074348D01*
X0051074Y0074427D01*
X0051113Y0074505D01*
X0051155Y0074581D01*
X0051201Y0074655D01*
X0051250Y0074727D01*
X0051302Y0074797D01*
X0051357Y0074864D01*
X0051415Y0074929D01*
X0051476Y0074992D01*
X0051540Y0075051D01*
X0051606Y0075108D01*
X0051675Y0075161D01*
X0051746Y0075212D01*
X0051819Y0075259D01*
X0051894Y0075304D01*
X0051971Y0075344D01*
X0052049Y0075382D01*
X0052130Y0075415D01*
X0052211Y0075446D01*
X0052294Y0075472D01*
X0052379Y0075495D01*
X0052464Y0075514D01*
X0052549Y0075529D01*
X0052636Y0075541D01*
X0052722Y0075549D01*
X0052809Y0075553D01*
X0052897Y0075553D01*
X0052984Y0075549D01*
X0053070Y0075541D01*
X0053157Y0075529D01*
X0053242Y0075514D01*
X0053327Y0075495D01*
X0053412Y0075472D01*
X0053495Y0075446D01*
X0053576Y0075415D01*
X0053657Y0075382D01*
X0053735Y0075344D01*
X0053812Y0075304D01*
X0053887Y0075259D01*
X0053960Y0075212D01*
X0054031Y0075161D01*
X0054100Y0075108D01*
X0054166Y0075051D01*
X0054230Y0074992D01*
X0054291Y0074929D01*
X0054349Y0074864D01*
X0054404Y0074797D01*
X0054456Y0074727D01*
X0054505Y0074655D01*
X0054551Y0074581D01*
X0054593Y0074505D01*
X0054632Y0074427D01*
X0054668Y0074348D01*
X0054700Y0074267D01*
X0054728Y0074184D01*
X0054753Y0074101D01*
X0054774Y0074016D01*
X0054791Y0073931D01*
X0054805Y0073845D01*
X0054814Y0073758D01*
X0054820Y0073671D01*
X0054822Y0073584D01*
M02*
