%
M48
M72
T01C0.02362
T02C0.03500
T03C0.03937
%
T01
X40122Y90541
X42622Y105541
X49497Y124916
X55122Y124916
X59810Y124916
X64497Y124916
X69185Y124916
X66997Y137416
X59810Y151166
X61685Y156791
X56372Y163666
X41685Y161479
X41685Y166479
X36372Y160541
X27622Y128666
X27622Y119291
X56372Y116791
X56372Y105541
X63247Y94291
X69810Y87729
X71997Y94291
X77622Y116791
X90435Y137416
X106997Y117416
X89497Y83666
X80122Y61791
X67622Y61791
X55122Y61791
X56372Y136166
X73872Y158666
X80747Y170541
X85435Y170541
X80435Y197416
X77622Y201791
X93122Y200541
T02
X102622Y68041
X102622Y78041
X102622Y88041
X102622Y98041
X102622Y108041
X102622Y180541
X102622Y190541
X102622Y200541
T03
X45181Y70541
X58764Y70541
X76480Y70541
X90063Y70541
M30
