G75*
%MOIN*%
%OFA0B0*%
%FSLAX25Y25*%
%IPPOS*%
%LPD*%
%AMOC8*
5,1,8,0,0,1.08239X$1,22.5*
%
%ADD10C,0.00000*%
%ADD11C,0.00394*%
D10*
X0035145Y0060631D02*
X0035145Y0195631D01*
X0110145Y0195631D01*
X0110145Y0060631D01*
X0035145Y0060631D01*
X0061817Y0070631D02*
X0061819Y0070719D01*
X0061825Y0070807D01*
X0061835Y0070895D01*
X0061849Y0070983D01*
X0061866Y0071069D01*
X0061888Y0071155D01*
X0061913Y0071239D01*
X0061943Y0071323D01*
X0061975Y0071405D01*
X0062012Y0071485D01*
X0062052Y0071564D01*
X0062096Y0071641D01*
X0062143Y0071716D01*
X0062193Y0071788D01*
X0062247Y0071859D01*
X0062303Y0071926D01*
X0062363Y0071992D01*
X0062425Y0072054D01*
X0062491Y0072114D01*
X0062558Y0072170D01*
X0062629Y0072224D01*
X0062701Y0072274D01*
X0062776Y0072321D01*
X0062853Y0072365D01*
X0062932Y0072405D01*
X0063012Y0072442D01*
X0063094Y0072474D01*
X0063178Y0072504D01*
X0063262Y0072529D01*
X0063348Y0072551D01*
X0063434Y0072568D01*
X0063522Y0072582D01*
X0063610Y0072592D01*
X0063698Y0072598D01*
X0063786Y0072600D01*
X0063874Y0072598D01*
X0063962Y0072592D01*
X0064050Y0072582D01*
X0064138Y0072568D01*
X0064224Y0072551D01*
X0064310Y0072529D01*
X0064394Y0072504D01*
X0064478Y0072474D01*
X0064560Y0072442D01*
X0064640Y0072405D01*
X0064719Y0072365D01*
X0064796Y0072321D01*
X0064871Y0072274D01*
X0064943Y0072224D01*
X0065014Y0072170D01*
X0065081Y0072114D01*
X0065147Y0072054D01*
X0065209Y0071992D01*
X0065269Y0071926D01*
X0065325Y0071859D01*
X0065379Y0071788D01*
X0065429Y0071716D01*
X0065476Y0071641D01*
X0065520Y0071564D01*
X0065560Y0071485D01*
X0065597Y0071405D01*
X0065629Y0071323D01*
X0065659Y0071239D01*
X0065684Y0071155D01*
X0065706Y0071069D01*
X0065723Y0070983D01*
X0065737Y0070895D01*
X0065747Y0070807D01*
X0065753Y0070719D01*
X0065755Y0070631D01*
X0065753Y0070543D01*
X0065747Y0070455D01*
X0065737Y0070367D01*
X0065723Y0070279D01*
X0065706Y0070193D01*
X0065684Y0070107D01*
X0065659Y0070023D01*
X0065629Y0069939D01*
X0065597Y0069857D01*
X0065560Y0069777D01*
X0065520Y0069698D01*
X0065476Y0069621D01*
X0065429Y0069546D01*
X0065379Y0069474D01*
X0065325Y0069403D01*
X0065269Y0069336D01*
X0065209Y0069270D01*
X0065147Y0069208D01*
X0065081Y0069148D01*
X0065014Y0069092D01*
X0064943Y0069038D01*
X0064871Y0068988D01*
X0064796Y0068941D01*
X0064719Y0068897D01*
X0064640Y0068857D01*
X0064560Y0068820D01*
X0064478Y0068788D01*
X0064394Y0068758D01*
X0064310Y0068733D01*
X0064224Y0068711D01*
X0064138Y0068694D01*
X0064050Y0068680D01*
X0063962Y0068670D01*
X0063874Y0068664D01*
X0063786Y0068662D01*
X0063698Y0068664D01*
X0063610Y0068670D01*
X0063522Y0068680D01*
X0063434Y0068694D01*
X0063348Y0068711D01*
X0063262Y0068733D01*
X0063178Y0068758D01*
X0063094Y0068788D01*
X0063012Y0068820D01*
X0062932Y0068857D01*
X0062853Y0068897D01*
X0062776Y0068941D01*
X0062701Y0068988D01*
X0062629Y0069038D01*
X0062558Y0069092D01*
X0062491Y0069148D01*
X0062425Y0069208D01*
X0062363Y0069270D01*
X0062303Y0069336D01*
X0062247Y0069403D01*
X0062193Y0069474D01*
X0062143Y0069546D01*
X0062096Y0069621D01*
X0062052Y0069698D01*
X0062012Y0069777D01*
X0061975Y0069857D01*
X0061943Y0069939D01*
X0061913Y0070023D01*
X0061888Y0070107D01*
X0061866Y0070193D01*
X0061849Y0070279D01*
X0061835Y0070367D01*
X0061825Y0070455D01*
X0061819Y0070543D01*
X0061817Y0070631D01*
X0079534Y0070631D02*
X0079536Y0070719D01*
X0079542Y0070807D01*
X0079552Y0070895D01*
X0079566Y0070983D01*
X0079583Y0071069D01*
X0079605Y0071155D01*
X0079630Y0071239D01*
X0079660Y0071323D01*
X0079692Y0071405D01*
X0079729Y0071485D01*
X0079769Y0071564D01*
X0079813Y0071641D01*
X0079860Y0071716D01*
X0079910Y0071788D01*
X0079964Y0071859D01*
X0080020Y0071926D01*
X0080080Y0071992D01*
X0080142Y0072054D01*
X0080208Y0072114D01*
X0080275Y0072170D01*
X0080346Y0072224D01*
X0080418Y0072274D01*
X0080493Y0072321D01*
X0080570Y0072365D01*
X0080649Y0072405D01*
X0080729Y0072442D01*
X0080811Y0072474D01*
X0080895Y0072504D01*
X0080979Y0072529D01*
X0081065Y0072551D01*
X0081151Y0072568D01*
X0081239Y0072582D01*
X0081327Y0072592D01*
X0081415Y0072598D01*
X0081503Y0072600D01*
X0081591Y0072598D01*
X0081679Y0072592D01*
X0081767Y0072582D01*
X0081855Y0072568D01*
X0081941Y0072551D01*
X0082027Y0072529D01*
X0082111Y0072504D01*
X0082195Y0072474D01*
X0082277Y0072442D01*
X0082357Y0072405D01*
X0082436Y0072365D01*
X0082513Y0072321D01*
X0082588Y0072274D01*
X0082660Y0072224D01*
X0082731Y0072170D01*
X0082798Y0072114D01*
X0082864Y0072054D01*
X0082926Y0071992D01*
X0082986Y0071926D01*
X0083042Y0071859D01*
X0083096Y0071788D01*
X0083146Y0071716D01*
X0083193Y0071641D01*
X0083237Y0071564D01*
X0083277Y0071485D01*
X0083314Y0071405D01*
X0083346Y0071323D01*
X0083376Y0071239D01*
X0083401Y0071155D01*
X0083423Y0071069D01*
X0083440Y0070983D01*
X0083454Y0070895D01*
X0083464Y0070807D01*
X0083470Y0070719D01*
X0083472Y0070631D01*
X0083470Y0070543D01*
X0083464Y0070455D01*
X0083454Y0070367D01*
X0083440Y0070279D01*
X0083423Y0070193D01*
X0083401Y0070107D01*
X0083376Y0070023D01*
X0083346Y0069939D01*
X0083314Y0069857D01*
X0083277Y0069777D01*
X0083237Y0069698D01*
X0083193Y0069621D01*
X0083146Y0069546D01*
X0083096Y0069474D01*
X0083042Y0069403D01*
X0082986Y0069336D01*
X0082926Y0069270D01*
X0082864Y0069208D01*
X0082798Y0069148D01*
X0082731Y0069092D01*
X0082660Y0069038D01*
X0082588Y0068988D01*
X0082513Y0068941D01*
X0082436Y0068897D01*
X0082357Y0068857D01*
X0082277Y0068820D01*
X0082195Y0068788D01*
X0082111Y0068758D01*
X0082027Y0068733D01*
X0081941Y0068711D01*
X0081855Y0068694D01*
X0081767Y0068680D01*
X0081679Y0068670D01*
X0081591Y0068664D01*
X0081503Y0068662D01*
X0081415Y0068664D01*
X0081327Y0068670D01*
X0081239Y0068680D01*
X0081151Y0068694D01*
X0081065Y0068711D01*
X0080979Y0068733D01*
X0080895Y0068758D01*
X0080811Y0068788D01*
X0080729Y0068820D01*
X0080649Y0068857D01*
X0080570Y0068897D01*
X0080493Y0068941D01*
X0080418Y0068988D01*
X0080346Y0069038D01*
X0080275Y0069092D01*
X0080208Y0069148D01*
X0080142Y0069208D01*
X0080080Y0069270D01*
X0080020Y0069336D01*
X0079964Y0069403D01*
X0079910Y0069474D01*
X0079860Y0069546D01*
X0079813Y0069621D01*
X0079769Y0069698D01*
X0079729Y0069777D01*
X0079692Y0069857D01*
X0079660Y0069939D01*
X0079630Y0070023D01*
X0079605Y0070107D01*
X0079583Y0070193D01*
X0079566Y0070279D01*
X0079552Y0070367D01*
X0079542Y0070455D01*
X0079536Y0070543D01*
X0079534Y0070631D01*
D11*
X0093117Y0073584D02*
X0093117Y0067678D01*
X0093119Y0067591D01*
X0093125Y0067504D01*
X0093134Y0067417D01*
X0093148Y0067331D01*
X0093165Y0067246D01*
X0093186Y0067161D01*
X0093211Y0067078D01*
X0093239Y0066995D01*
X0093271Y0066914D01*
X0093307Y0066835D01*
X0093346Y0066757D01*
X0093388Y0066681D01*
X0093434Y0066607D01*
X0093483Y0066535D01*
X0093535Y0066465D01*
X0093590Y0066398D01*
X0093648Y0066333D01*
X0093709Y0066270D01*
X0093773Y0066211D01*
X0093839Y0066154D01*
X0093908Y0066101D01*
X0093979Y0066050D01*
X0094052Y0066003D01*
X0094127Y0065958D01*
X0094204Y0065918D01*
X0094282Y0065880D01*
X0094363Y0065847D01*
X0094444Y0065816D01*
X0094527Y0065790D01*
X0094612Y0065767D01*
X0094697Y0065748D01*
X0094782Y0065733D01*
X0094869Y0065721D01*
X0094955Y0065713D01*
X0095042Y0065709D01*
X0095130Y0065709D01*
X0095217Y0065713D01*
X0095303Y0065721D01*
X0095390Y0065733D01*
X0095475Y0065748D01*
X0095560Y0065767D01*
X0095645Y0065790D01*
X0095728Y0065816D01*
X0095809Y0065847D01*
X0095890Y0065880D01*
X0095968Y0065918D01*
X0096045Y0065958D01*
X0096120Y0066003D01*
X0096193Y0066050D01*
X0096264Y0066101D01*
X0096333Y0066154D01*
X0096399Y0066211D01*
X0096463Y0066270D01*
X0096524Y0066333D01*
X0096582Y0066398D01*
X0096637Y0066465D01*
X0096689Y0066535D01*
X0096738Y0066607D01*
X0096784Y0066681D01*
X0096826Y0066757D01*
X0096865Y0066835D01*
X0096901Y0066914D01*
X0096933Y0066995D01*
X0096961Y0067078D01*
X0096986Y0067161D01*
X0097007Y0067246D01*
X0097024Y0067331D01*
X0097038Y0067417D01*
X0097047Y0067504D01*
X0097053Y0067591D01*
X0097055Y0067678D01*
X0097054Y0067678D02*
X0097054Y0073584D01*
X0097055Y0073584D02*
X0097053Y0073671D01*
X0097047Y0073758D01*
X0097038Y0073845D01*
X0097024Y0073931D01*
X0097007Y0074016D01*
X0096986Y0074101D01*
X0096961Y0074184D01*
X0096933Y0074267D01*
X0096901Y0074348D01*
X0096865Y0074427D01*
X0096826Y0074505D01*
X0096784Y0074581D01*
X0096738Y0074655D01*
X0096689Y0074727D01*
X0096637Y0074797D01*
X0096582Y0074864D01*
X0096524Y0074929D01*
X0096463Y0074992D01*
X0096399Y0075051D01*
X0096333Y0075108D01*
X0096264Y0075161D01*
X0096193Y0075212D01*
X0096120Y0075259D01*
X0096045Y0075304D01*
X0095968Y0075344D01*
X0095890Y0075382D01*
X0095809Y0075415D01*
X0095728Y0075446D01*
X0095645Y0075472D01*
X0095560Y0075495D01*
X0095475Y0075514D01*
X0095390Y0075529D01*
X0095303Y0075541D01*
X0095217Y0075549D01*
X0095130Y0075553D01*
X0095042Y0075553D01*
X0094955Y0075549D01*
X0094869Y0075541D01*
X0094782Y0075529D01*
X0094697Y0075514D01*
X0094612Y0075495D01*
X0094527Y0075472D01*
X0094444Y0075446D01*
X0094363Y0075415D01*
X0094282Y0075382D01*
X0094204Y0075344D01*
X0094127Y0075304D01*
X0094052Y0075259D01*
X0093979Y0075212D01*
X0093908Y0075161D01*
X0093839Y0075108D01*
X0093773Y0075051D01*
X0093709Y0074992D01*
X0093648Y0074929D01*
X0093590Y0074864D01*
X0093535Y0074797D01*
X0093483Y0074727D01*
X0093434Y0074655D01*
X0093388Y0074581D01*
X0093346Y0074505D01*
X0093307Y0074427D01*
X0093271Y0074348D01*
X0093239Y0074267D01*
X0093211Y0074184D01*
X0093186Y0074101D01*
X0093165Y0074016D01*
X0093148Y0073931D01*
X0093134Y0073845D01*
X0093125Y0073758D01*
X0093119Y0073671D01*
X0093117Y0073584D01*
X0052172Y0073584D02*
X0052172Y0067678D01*
X0052173Y0067678D02*
X0052171Y0067591D01*
X0052165Y0067504D01*
X0052156Y0067417D01*
X0052142Y0067331D01*
X0052125Y0067246D01*
X0052104Y0067161D01*
X0052079Y0067078D01*
X0052051Y0066995D01*
X0052019Y0066914D01*
X0051983Y0066835D01*
X0051944Y0066757D01*
X0051902Y0066681D01*
X0051856Y0066607D01*
X0051807Y0066535D01*
X0051755Y0066465D01*
X0051700Y0066398D01*
X0051642Y0066333D01*
X0051581Y0066270D01*
X0051517Y0066211D01*
X0051451Y0066154D01*
X0051382Y0066101D01*
X0051311Y0066050D01*
X0051238Y0066003D01*
X0051163Y0065958D01*
X0051086Y0065918D01*
X0051008Y0065880D01*
X0050927Y0065847D01*
X0050846Y0065816D01*
X0050763Y0065790D01*
X0050678Y0065767D01*
X0050593Y0065748D01*
X0050508Y0065733D01*
X0050421Y0065721D01*
X0050335Y0065713D01*
X0050248Y0065709D01*
X0050160Y0065709D01*
X0050073Y0065713D01*
X0049987Y0065721D01*
X0049900Y0065733D01*
X0049815Y0065748D01*
X0049730Y0065767D01*
X0049645Y0065790D01*
X0049562Y0065816D01*
X0049481Y0065847D01*
X0049400Y0065880D01*
X0049322Y0065918D01*
X0049245Y0065958D01*
X0049170Y0066003D01*
X0049097Y0066050D01*
X0049026Y0066101D01*
X0048957Y0066154D01*
X0048891Y0066211D01*
X0048827Y0066270D01*
X0048766Y0066333D01*
X0048708Y0066398D01*
X0048653Y0066465D01*
X0048601Y0066535D01*
X0048552Y0066607D01*
X0048506Y0066681D01*
X0048464Y0066757D01*
X0048425Y0066835D01*
X0048389Y0066914D01*
X0048357Y0066995D01*
X0048329Y0067078D01*
X0048304Y0067161D01*
X0048283Y0067246D01*
X0048266Y0067331D01*
X0048252Y0067417D01*
X0048243Y0067504D01*
X0048237Y0067591D01*
X0048235Y0067678D01*
X0048235Y0073584D01*
X0048237Y0073671D01*
X0048243Y0073758D01*
X0048252Y0073845D01*
X0048266Y0073931D01*
X0048283Y0074016D01*
X0048304Y0074101D01*
X0048329Y0074184D01*
X0048357Y0074267D01*
X0048389Y0074348D01*
X0048425Y0074427D01*
X0048464Y0074505D01*
X0048506Y0074581D01*
X0048552Y0074655D01*
X0048601Y0074727D01*
X0048653Y0074797D01*
X0048708Y0074864D01*
X0048766Y0074929D01*
X0048827Y0074992D01*
X0048891Y0075051D01*
X0048957Y0075108D01*
X0049026Y0075161D01*
X0049097Y0075212D01*
X0049170Y0075259D01*
X0049245Y0075304D01*
X0049322Y0075344D01*
X0049400Y0075382D01*
X0049481Y0075415D01*
X0049562Y0075446D01*
X0049645Y0075472D01*
X0049730Y0075495D01*
X0049815Y0075514D01*
X0049900Y0075529D01*
X0049987Y0075541D01*
X0050073Y0075549D01*
X0050160Y0075553D01*
X0050248Y0075553D01*
X0050335Y0075549D01*
X0050421Y0075541D01*
X0050508Y0075529D01*
X0050593Y0075514D01*
X0050678Y0075495D01*
X0050763Y0075472D01*
X0050846Y0075446D01*
X0050927Y0075415D01*
X0051008Y0075382D01*
X0051086Y0075344D01*
X0051163Y0075304D01*
X0051238Y0075259D01*
X0051311Y0075212D01*
X0051382Y0075161D01*
X0051451Y0075108D01*
X0051517Y0075051D01*
X0051581Y0074992D01*
X0051642Y0074929D01*
X0051700Y0074864D01*
X0051755Y0074797D01*
X0051807Y0074727D01*
X0051856Y0074655D01*
X0051902Y0074581D01*
X0051944Y0074505D01*
X0051983Y0074427D01*
X0052019Y0074348D01*
X0052051Y0074267D01*
X0052079Y0074184D01*
X0052104Y0074101D01*
X0052125Y0074016D01*
X0052142Y0073931D01*
X0052156Y0073845D01*
X0052165Y0073758D01*
X0052171Y0073671D01*
X0052173Y0073584D01*
M02*
