%
M48
M72
T01C0.01575
T02C0.03500
T03C0.03937
%
T01
X40145Y63756
X38270Y79381
X38270Y101256
X38895Y117506
X46957Y127506
X50770Y122818
X48270Y120006
X55707Y120318
X58270Y123443
X62895Y122506
X70707Y127193
X67582Y134381
X63832Y134381
X63832Y138131
X58207Y145318
X58207Y149068
X56020Y131256
X47020Y140318
X41707Y142193
X47020Y148131
X47270Y151881
X44145Y158131
X50707Y170006
X56395Y192506
X72645Y192506
X72145Y177193
X88895Y192506
X93520Y179381
X98520Y183131
X102895Y183443
X105145Y192506
X92582Y156568
X83832Y140943
X85395Y137506
X92582Y137506
X90770Y124068
X87332Y124068
X76020Y111881
X83270Y100006
X77020Y95006
X74520Y88756
X68270Y95006
X63520Y105943
X56395Y63756
X72645Y63756
X88895Y63756
X105145Y63756
X106395Y79381
X106395Y93131
X106395Y103131
X106395Y112506
X93270Y100006
X40145Y192506
T02
X101645Y118131
X101645Y108131
X101645Y98131
X101645Y88131
T03
X50204Y70631
X63786Y70631
X81503Y70631
X95086Y70631
M30
