G75*
%MOIN*%
%OFA0B0*%
%FSLAX25Y25*%
%IPPOS*%
%LPD*%
%AMOC8*
5,1,8,0,0,1.08239X$1,22.5*
%
%ADD10C,0.00000*%
%ADD11C,0.40000*%
%ADD12R,0.10000X0.20000*%
D10*
X0035145Y0060631D02*
X0035145Y0195631D01*
X0110145Y0195631D01*
X0110145Y0060631D01*
X0035145Y0060631D01*
X0061817Y0070631D02*
X0061819Y0070719D01*
X0061825Y0070807D01*
X0061835Y0070895D01*
X0061849Y0070983D01*
X0061866Y0071069D01*
X0061888Y0071155D01*
X0061913Y0071239D01*
X0061943Y0071323D01*
X0061975Y0071405D01*
X0062012Y0071485D01*
X0062052Y0071564D01*
X0062096Y0071641D01*
X0062143Y0071716D01*
X0062193Y0071788D01*
X0062247Y0071859D01*
X0062303Y0071926D01*
X0062363Y0071992D01*
X0062425Y0072054D01*
X0062491Y0072114D01*
X0062558Y0072170D01*
X0062629Y0072224D01*
X0062701Y0072274D01*
X0062776Y0072321D01*
X0062853Y0072365D01*
X0062932Y0072405D01*
X0063012Y0072442D01*
X0063094Y0072474D01*
X0063178Y0072504D01*
X0063262Y0072529D01*
X0063348Y0072551D01*
X0063434Y0072568D01*
X0063522Y0072582D01*
X0063610Y0072592D01*
X0063698Y0072598D01*
X0063786Y0072600D01*
X0063874Y0072598D01*
X0063962Y0072592D01*
X0064050Y0072582D01*
X0064138Y0072568D01*
X0064224Y0072551D01*
X0064310Y0072529D01*
X0064394Y0072504D01*
X0064478Y0072474D01*
X0064560Y0072442D01*
X0064640Y0072405D01*
X0064719Y0072365D01*
X0064796Y0072321D01*
X0064871Y0072274D01*
X0064943Y0072224D01*
X0065014Y0072170D01*
X0065081Y0072114D01*
X0065147Y0072054D01*
X0065209Y0071992D01*
X0065269Y0071926D01*
X0065325Y0071859D01*
X0065379Y0071788D01*
X0065429Y0071716D01*
X0065476Y0071641D01*
X0065520Y0071564D01*
X0065560Y0071485D01*
X0065597Y0071405D01*
X0065629Y0071323D01*
X0065659Y0071239D01*
X0065684Y0071155D01*
X0065706Y0071069D01*
X0065723Y0070983D01*
X0065737Y0070895D01*
X0065747Y0070807D01*
X0065753Y0070719D01*
X0065755Y0070631D01*
X0065753Y0070543D01*
X0065747Y0070455D01*
X0065737Y0070367D01*
X0065723Y0070279D01*
X0065706Y0070193D01*
X0065684Y0070107D01*
X0065659Y0070023D01*
X0065629Y0069939D01*
X0065597Y0069857D01*
X0065560Y0069777D01*
X0065520Y0069698D01*
X0065476Y0069621D01*
X0065429Y0069546D01*
X0065379Y0069474D01*
X0065325Y0069403D01*
X0065269Y0069336D01*
X0065209Y0069270D01*
X0065147Y0069208D01*
X0065081Y0069148D01*
X0065014Y0069092D01*
X0064943Y0069038D01*
X0064871Y0068988D01*
X0064796Y0068941D01*
X0064719Y0068897D01*
X0064640Y0068857D01*
X0064560Y0068820D01*
X0064478Y0068788D01*
X0064394Y0068758D01*
X0064310Y0068733D01*
X0064224Y0068711D01*
X0064138Y0068694D01*
X0064050Y0068680D01*
X0063962Y0068670D01*
X0063874Y0068664D01*
X0063786Y0068662D01*
X0063698Y0068664D01*
X0063610Y0068670D01*
X0063522Y0068680D01*
X0063434Y0068694D01*
X0063348Y0068711D01*
X0063262Y0068733D01*
X0063178Y0068758D01*
X0063094Y0068788D01*
X0063012Y0068820D01*
X0062932Y0068857D01*
X0062853Y0068897D01*
X0062776Y0068941D01*
X0062701Y0068988D01*
X0062629Y0069038D01*
X0062558Y0069092D01*
X0062491Y0069148D01*
X0062425Y0069208D01*
X0062363Y0069270D01*
X0062303Y0069336D01*
X0062247Y0069403D01*
X0062193Y0069474D01*
X0062143Y0069546D01*
X0062096Y0069621D01*
X0062052Y0069698D01*
X0062012Y0069777D01*
X0061975Y0069857D01*
X0061943Y0069939D01*
X0061913Y0070023D01*
X0061888Y0070107D01*
X0061866Y0070193D01*
X0061849Y0070279D01*
X0061835Y0070367D01*
X0061825Y0070455D01*
X0061819Y0070543D01*
X0061817Y0070631D01*
X0079534Y0070631D02*
X0079536Y0070719D01*
X0079542Y0070807D01*
X0079552Y0070895D01*
X0079566Y0070983D01*
X0079583Y0071069D01*
X0079605Y0071155D01*
X0079630Y0071239D01*
X0079660Y0071323D01*
X0079692Y0071405D01*
X0079729Y0071485D01*
X0079769Y0071564D01*
X0079813Y0071641D01*
X0079860Y0071716D01*
X0079910Y0071788D01*
X0079964Y0071859D01*
X0080020Y0071926D01*
X0080080Y0071992D01*
X0080142Y0072054D01*
X0080208Y0072114D01*
X0080275Y0072170D01*
X0080346Y0072224D01*
X0080418Y0072274D01*
X0080493Y0072321D01*
X0080570Y0072365D01*
X0080649Y0072405D01*
X0080729Y0072442D01*
X0080811Y0072474D01*
X0080895Y0072504D01*
X0080979Y0072529D01*
X0081065Y0072551D01*
X0081151Y0072568D01*
X0081239Y0072582D01*
X0081327Y0072592D01*
X0081415Y0072598D01*
X0081503Y0072600D01*
X0081591Y0072598D01*
X0081679Y0072592D01*
X0081767Y0072582D01*
X0081855Y0072568D01*
X0081941Y0072551D01*
X0082027Y0072529D01*
X0082111Y0072504D01*
X0082195Y0072474D01*
X0082277Y0072442D01*
X0082357Y0072405D01*
X0082436Y0072365D01*
X0082513Y0072321D01*
X0082588Y0072274D01*
X0082660Y0072224D01*
X0082731Y0072170D01*
X0082798Y0072114D01*
X0082864Y0072054D01*
X0082926Y0071992D01*
X0082986Y0071926D01*
X0083042Y0071859D01*
X0083096Y0071788D01*
X0083146Y0071716D01*
X0083193Y0071641D01*
X0083237Y0071564D01*
X0083277Y0071485D01*
X0083314Y0071405D01*
X0083346Y0071323D01*
X0083376Y0071239D01*
X0083401Y0071155D01*
X0083423Y0071069D01*
X0083440Y0070983D01*
X0083454Y0070895D01*
X0083464Y0070807D01*
X0083470Y0070719D01*
X0083472Y0070631D01*
X0083470Y0070543D01*
X0083464Y0070455D01*
X0083454Y0070367D01*
X0083440Y0070279D01*
X0083423Y0070193D01*
X0083401Y0070107D01*
X0083376Y0070023D01*
X0083346Y0069939D01*
X0083314Y0069857D01*
X0083277Y0069777D01*
X0083237Y0069698D01*
X0083193Y0069621D01*
X0083146Y0069546D01*
X0083096Y0069474D01*
X0083042Y0069403D01*
X0082986Y0069336D01*
X0082926Y0069270D01*
X0082864Y0069208D01*
X0082798Y0069148D01*
X0082731Y0069092D01*
X0082660Y0069038D01*
X0082588Y0068988D01*
X0082513Y0068941D01*
X0082436Y0068897D01*
X0082357Y0068857D01*
X0082277Y0068820D01*
X0082195Y0068788D01*
X0082111Y0068758D01*
X0082027Y0068733D01*
X0081941Y0068711D01*
X0081855Y0068694D01*
X0081767Y0068680D01*
X0081679Y0068670D01*
X0081591Y0068664D01*
X0081503Y0068662D01*
X0081415Y0068664D01*
X0081327Y0068670D01*
X0081239Y0068680D01*
X0081151Y0068694D01*
X0081065Y0068711D01*
X0080979Y0068733D01*
X0080895Y0068758D01*
X0080811Y0068788D01*
X0080729Y0068820D01*
X0080649Y0068857D01*
X0080570Y0068897D01*
X0080493Y0068941D01*
X0080418Y0068988D01*
X0080346Y0069038D01*
X0080275Y0069092D01*
X0080208Y0069148D01*
X0080142Y0069208D01*
X0080080Y0069270D01*
X0080020Y0069336D01*
X0079964Y0069403D01*
X0079910Y0069474D01*
X0079860Y0069546D01*
X0079813Y0069621D01*
X0079769Y0069698D01*
X0079729Y0069777D01*
X0079692Y0069857D01*
X0079660Y0069939D01*
X0079630Y0070023D01*
X0079605Y0070107D01*
X0079583Y0070193D01*
X0079566Y0070279D01*
X0079552Y0070367D01*
X0079542Y0070455D01*
X0079536Y0070543D01*
X0079534Y0070631D01*
D11*
X0072895Y0170631D03*
D12*
X0042895Y0170631D03*
X0102895Y0170631D03*
M02*
