G75*
%MOIN*%
%OFA0B0*%
%FSLAX25Y25*%
%IPPOS*%
%LPD*%
%AMOC8*
5,1,8,0,0,1.08239X$1,22.5*
%
%ADD10C,0.00800*%
%ADD11C,0.00394*%
%ADD12C,0.00000*%
D10*
X0001400Y0001400D02*
X0080140Y0001400D01*
X0080140Y0276991D01*
X0198250Y0276991D01*
X0198250Y0001400D01*
X0080140Y0001400D01*
X0001400Y0001400D02*
X0001400Y0080140D01*
X0276991Y0080140D01*
X0276991Y0001400D01*
X0198250Y0001400D01*
X0276991Y0080140D02*
X0276991Y0198250D01*
X0001400Y0198250D01*
X0001400Y0276991D01*
X0080140Y0276991D01*
X0001400Y0198250D02*
X0001400Y0080140D01*
X0198250Y0276991D02*
X0276991Y0276991D01*
X0276991Y0198250D01*
D11*
X0189274Y0109471D02*
X0189274Y0105140D01*
X0189272Y0105073D01*
X0189266Y0105005D01*
X0189257Y0104939D01*
X0189243Y0104873D01*
X0189226Y0104807D01*
X0189205Y0104743D01*
X0189181Y0104680D01*
X0189153Y0104619D01*
X0189121Y0104559D01*
X0189087Y0104502D01*
X0189048Y0104446D01*
X0189007Y0104392D01*
X0188963Y0104341D01*
X0188916Y0104293D01*
X0188866Y0104247D01*
X0188814Y0104205D01*
X0188760Y0104165D01*
X0188703Y0104129D01*
X0188644Y0104095D01*
X0188584Y0104066D01*
X0188521Y0104039D01*
X0188458Y0104017D01*
X0188393Y0103998D01*
X0188328Y0103983D01*
X0188261Y0103971D01*
X0188194Y0103963D01*
X0188127Y0103959D01*
X0188059Y0103959D01*
X0187992Y0103963D01*
X0187925Y0103971D01*
X0187858Y0103983D01*
X0187793Y0103998D01*
X0187728Y0104017D01*
X0187665Y0104039D01*
X0187602Y0104066D01*
X0187542Y0104095D01*
X0187483Y0104129D01*
X0187426Y0104165D01*
X0187372Y0104205D01*
X0187320Y0104247D01*
X0187270Y0104293D01*
X0187223Y0104341D01*
X0187179Y0104392D01*
X0187138Y0104446D01*
X0187099Y0104502D01*
X0187065Y0104559D01*
X0187033Y0104619D01*
X0187005Y0104680D01*
X0186981Y0104743D01*
X0186960Y0104807D01*
X0186943Y0104873D01*
X0186929Y0104939D01*
X0186920Y0105005D01*
X0186914Y0105073D01*
X0186912Y0105140D01*
X0186912Y0109471D01*
X0186914Y0109538D01*
X0186920Y0109606D01*
X0186929Y0109672D01*
X0186943Y0109738D01*
X0186960Y0109804D01*
X0186981Y0109868D01*
X0187005Y0109931D01*
X0187033Y0109992D01*
X0187065Y0110052D01*
X0187099Y0110109D01*
X0187138Y0110165D01*
X0187179Y0110219D01*
X0187223Y0110270D01*
X0187270Y0110318D01*
X0187320Y0110364D01*
X0187372Y0110406D01*
X0187426Y0110446D01*
X0187483Y0110482D01*
X0187542Y0110516D01*
X0187602Y0110545D01*
X0187665Y0110572D01*
X0187728Y0110594D01*
X0187793Y0110613D01*
X0187858Y0110628D01*
X0187925Y0110640D01*
X0187992Y0110648D01*
X0188059Y0110652D01*
X0188127Y0110652D01*
X0188194Y0110648D01*
X0188261Y0110640D01*
X0188328Y0110628D01*
X0188393Y0110613D01*
X0188458Y0110594D01*
X0188521Y0110572D01*
X0188584Y0110545D01*
X0188644Y0110516D01*
X0188703Y0110482D01*
X0188760Y0110446D01*
X0188814Y0110406D01*
X0188866Y0110364D01*
X0188916Y0110318D01*
X0188963Y0110270D01*
X0189007Y0110219D01*
X0189048Y0110165D01*
X0189087Y0110109D01*
X0189121Y0110052D01*
X0189153Y0109992D01*
X0189181Y0109931D01*
X0189205Y0109868D01*
X0189226Y0109804D01*
X0189243Y0109738D01*
X0189257Y0109672D01*
X0189266Y0109606D01*
X0189272Y0109538D01*
X0189274Y0109471D01*
X0189274Y0092424D02*
X0189274Y0089274D01*
X0189272Y0089207D01*
X0189266Y0089139D01*
X0189257Y0089073D01*
X0189243Y0089007D01*
X0189226Y0088941D01*
X0189205Y0088877D01*
X0189181Y0088814D01*
X0189153Y0088753D01*
X0189121Y0088693D01*
X0189087Y0088636D01*
X0189048Y0088580D01*
X0189007Y0088526D01*
X0188963Y0088475D01*
X0188916Y0088427D01*
X0188866Y0088381D01*
X0188814Y0088339D01*
X0188760Y0088299D01*
X0188703Y0088263D01*
X0188644Y0088229D01*
X0188584Y0088200D01*
X0188521Y0088173D01*
X0188458Y0088151D01*
X0188393Y0088132D01*
X0188328Y0088117D01*
X0188261Y0088105D01*
X0188194Y0088097D01*
X0188127Y0088093D01*
X0188059Y0088093D01*
X0187992Y0088097D01*
X0187925Y0088105D01*
X0187858Y0088117D01*
X0187793Y0088132D01*
X0187728Y0088151D01*
X0187665Y0088173D01*
X0187602Y0088200D01*
X0187542Y0088229D01*
X0187483Y0088263D01*
X0187426Y0088299D01*
X0187372Y0088339D01*
X0187320Y0088381D01*
X0187270Y0088427D01*
X0187223Y0088475D01*
X0187179Y0088526D01*
X0187138Y0088580D01*
X0187099Y0088636D01*
X0187065Y0088693D01*
X0187033Y0088753D01*
X0187005Y0088814D01*
X0186981Y0088877D01*
X0186960Y0088941D01*
X0186943Y0089007D01*
X0186929Y0089073D01*
X0186920Y0089139D01*
X0186914Y0089207D01*
X0186912Y0089274D01*
X0186912Y0092424D01*
X0186914Y0092491D01*
X0186920Y0092559D01*
X0186929Y0092625D01*
X0186943Y0092691D01*
X0186960Y0092757D01*
X0186981Y0092821D01*
X0187005Y0092884D01*
X0187033Y0092945D01*
X0187065Y0093005D01*
X0187099Y0093062D01*
X0187138Y0093118D01*
X0187179Y0093172D01*
X0187223Y0093223D01*
X0187270Y0093271D01*
X0187320Y0093317D01*
X0187372Y0093359D01*
X0187426Y0093399D01*
X0187483Y0093435D01*
X0187542Y0093469D01*
X0187602Y0093498D01*
X0187665Y0093525D01*
X0187728Y0093547D01*
X0187793Y0093566D01*
X0187858Y0093581D01*
X0187925Y0093593D01*
X0187992Y0093601D01*
X0188059Y0093605D01*
X0188127Y0093605D01*
X0188194Y0093601D01*
X0188261Y0093593D01*
X0188328Y0093581D01*
X0188393Y0093566D01*
X0188458Y0093547D01*
X0188521Y0093525D01*
X0188584Y0093498D01*
X0188644Y0093469D01*
X0188703Y0093435D01*
X0188760Y0093399D01*
X0188814Y0093359D01*
X0188866Y0093317D01*
X0188916Y0093271D01*
X0188963Y0093223D01*
X0189007Y0093172D01*
X0189048Y0093118D01*
X0189087Y0093062D01*
X0189121Y0093005D01*
X0189153Y0092945D01*
X0189181Y0092884D01*
X0189205Y0092821D01*
X0189226Y0092757D01*
X0189243Y0092691D01*
X0189257Y0092625D01*
X0189266Y0092559D01*
X0189272Y0092491D01*
X0189274Y0092424D01*
X0155258Y0092424D02*
X0155258Y0089274D01*
X0155256Y0089207D01*
X0155250Y0089139D01*
X0155241Y0089073D01*
X0155227Y0089007D01*
X0155210Y0088941D01*
X0155189Y0088877D01*
X0155165Y0088814D01*
X0155137Y0088753D01*
X0155105Y0088693D01*
X0155071Y0088636D01*
X0155032Y0088580D01*
X0154991Y0088526D01*
X0154947Y0088475D01*
X0154900Y0088427D01*
X0154850Y0088381D01*
X0154798Y0088339D01*
X0154744Y0088299D01*
X0154687Y0088263D01*
X0154628Y0088229D01*
X0154568Y0088200D01*
X0154505Y0088173D01*
X0154442Y0088151D01*
X0154377Y0088132D01*
X0154312Y0088117D01*
X0154245Y0088105D01*
X0154178Y0088097D01*
X0154111Y0088093D01*
X0154043Y0088093D01*
X0153976Y0088097D01*
X0153909Y0088105D01*
X0153842Y0088117D01*
X0153777Y0088132D01*
X0153712Y0088151D01*
X0153649Y0088173D01*
X0153586Y0088200D01*
X0153526Y0088229D01*
X0153467Y0088263D01*
X0153410Y0088299D01*
X0153356Y0088339D01*
X0153304Y0088381D01*
X0153254Y0088427D01*
X0153207Y0088475D01*
X0153163Y0088526D01*
X0153122Y0088580D01*
X0153083Y0088636D01*
X0153049Y0088693D01*
X0153017Y0088753D01*
X0152989Y0088814D01*
X0152965Y0088877D01*
X0152944Y0088941D01*
X0152927Y0089007D01*
X0152913Y0089073D01*
X0152904Y0089139D01*
X0152898Y0089207D01*
X0152896Y0089274D01*
X0152896Y0092424D01*
X0152898Y0092491D01*
X0152904Y0092559D01*
X0152913Y0092625D01*
X0152927Y0092691D01*
X0152944Y0092757D01*
X0152965Y0092821D01*
X0152989Y0092884D01*
X0153017Y0092945D01*
X0153049Y0093005D01*
X0153083Y0093062D01*
X0153122Y0093118D01*
X0153163Y0093172D01*
X0153207Y0093223D01*
X0153254Y0093271D01*
X0153304Y0093317D01*
X0153356Y0093359D01*
X0153410Y0093399D01*
X0153467Y0093435D01*
X0153526Y0093469D01*
X0153586Y0093498D01*
X0153649Y0093525D01*
X0153712Y0093547D01*
X0153777Y0093566D01*
X0153842Y0093581D01*
X0153909Y0093593D01*
X0153976Y0093601D01*
X0154043Y0093605D01*
X0154111Y0093605D01*
X0154178Y0093601D01*
X0154245Y0093593D01*
X0154312Y0093581D01*
X0154377Y0093566D01*
X0154442Y0093547D01*
X0154505Y0093525D01*
X0154568Y0093498D01*
X0154628Y0093469D01*
X0154687Y0093435D01*
X0154744Y0093399D01*
X0154798Y0093359D01*
X0154850Y0093317D01*
X0154900Y0093271D01*
X0154947Y0093223D01*
X0154991Y0093172D01*
X0155032Y0093118D01*
X0155071Y0093062D01*
X0155105Y0093005D01*
X0155137Y0092945D01*
X0155165Y0092884D01*
X0155189Y0092821D01*
X0155210Y0092757D01*
X0155227Y0092691D01*
X0155241Y0092625D01*
X0155250Y0092559D01*
X0155256Y0092491D01*
X0155258Y0092424D01*
X0155258Y0105140D02*
X0155258Y0109471D01*
X0155256Y0109538D01*
X0155250Y0109606D01*
X0155241Y0109672D01*
X0155227Y0109738D01*
X0155210Y0109804D01*
X0155189Y0109868D01*
X0155165Y0109931D01*
X0155137Y0109992D01*
X0155105Y0110052D01*
X0155071Y0110109D01*
X0155032Y0110165D01*
X0154991Y0110219D01*
X0154947Y0110270D01*
X0154900Y0110318D01*
X0154850Y0110364D01*
X0154798Y0110406D01*
X0154744Y0110446D01*
X0154687Y0110482D01*
X0154628Y0110516D01*
X0154568Y0110545D01*
X0154505Y0110572D01*
X0154442Y0110594D01*
X0154377Y0110613D01*
X0154312Y0110628D01*
X0154245Y0110640D01*
X0154178Y0110648D01*
X0154111Y0110652D01*
X0154043Y0110652D01*
X0153976Y0110648D01*
X0153909Y0110640D01*
X0153842Y0110628D01*
X0153777Y0110613D01*
X0153712Y0110594D01*
X0153649Y0110572D01*
X0153586Y0110545D01*
X0153526Y0110516D01*
X0153467Y0110482D01*
X0153410Y0110446D01*
X0153356Y0110406D01*
X0153304Y0110364D01*
X0153254Y0110318D01*
X0153207Y0110270D01*
X0153163Y0110219D01*
X0153122Y0110165D01*
X0153083Y0110109D01*
X0153049Y0110052D01*
X0153017Y0109992D01*
X0152989Y0109931D01*
X0152965Y0109868D01*
X0152944Y0109804D01*
X0152927Y0109738D01*
X0152913Y0109672D01*
X0152904Y0109606D01*
X0152898Y0109538D01*
X0152896Y0109471D01*
X0152896Y0105140D01*
X0152898Y0105073D01*
X0152904Y0105005D01*
X0152913Y0104939D01*
X0152927Y0104873D01*
X0152944Y0104807D01*
X0152965Y0104743D01*
X0152989Y0104680D01*
X0153017Y0104619D01*
X0153049Y0104559D01*
X0153083Y0104502D01*
X0153122Y0104446D01*
X0153163Y0104392D01*
X0153207Y0104341D01*
X0153254Y0104293D01*
X0153304Y0104247D01*
X0153356Y0104205D01*
X0153410Y0104165D01*
X0153467Y0104129D01*
X0153526Y0104095D01*
X0153586Y0104066D01*
X0153649Y0104039D01*
X0153712Y0104017D01*
X0153777Y0103998D01*
X0153842Y0103983D01*
X0153909Y0103971D01*
X0153976Y0103963D01*
X0154043Y0103959D01*
X0154111Y0103959D01*
X0154178Y0103963D01*
X0154245Y0103971D01*
X0154312Y0103983D01*
X0154377Y0103998D01*
X0154442Y0104017D01*
X0154505Y0104039D01*
X0154568Y0104066D01*
X0154628Y0104095D01*
X0154687Y0104129D01*
X0154744Y0104165D01*
X0154798Y0104205D01*
X0154850Y0104247D01*
X0154900Y0104293D01*
X0154947Y0104341D01*
X0154991Y0104392D01*
X0155032Y0104446D01*
X0155071Y0104502D01*
X0155105Y0104559D01*
X0155137Y0104619D01*
X0155165Y0104680D01*
X0155189Y0104743D01*
X0155210Y0104807D01*
X0155227Y0104873D01*
X0155241Y0104939D01*
X0155250Y0105005D01*
X0155256Y0105073D01*
X0155258Y0105140D01*
D12*
X0158526Y0105337D02*
X0158528Y0105406D01*
X0158534Y0105474D01*
X0158544Y0105542D01*
X0158558Y0105609D01*
X0158576Y0105676D01*
X0158597Y0105741D01*
X0158623Y0105805D01*
X0158652Y0105867D01*
X0158684Y0105927D01*
X0158720Y0105986D01*
X0158760Y0106042D01*
X0158802Y0106096D01*
X0158848Y0106147D01*
X0158897Y0106196D01*
X0158948Y0106242D01*
X0159002Y0106284D01*
X0159058Y0106324D01*
X0159116Y0106360D01*
X0159177Y0106392D01*
X0159239Y0106421D01*
X0159303Y0106447D01*
X0159368Y0106468D01*
X0159435Y0106486D01*
X0159502Y0106500D01*
X0159570Y0106510D01*
X0159638Y0106516D01*
X0159707Y0106518D01*
X0159776Y0106516D01*
X0159844Y0106510D01*
X0159912Y0106500D01*
X0159979Y0106486D01*
X0160046Y0106468D01*
X0160111Y0106447D01*
X0160175Y0106421D01*
X0160237Y0106392D01*
X0160297Y0106360D01*
X0160356Y0106324D01*
X0160412Y0106284D01*
X0160466Y0106242D01*
X0160517Y0106196D01*
X0160566Y0106147D01*
X0160612Y0106096D01*
X0160654Y0106042D01*
X0160694Y0105986D01*
X0160730Y0105927D01*
X0160762Y0105867D01*
X0160791Y0105805D01*
X0160817Y0105741D01*
X0160838Y0105676D01*
X0160856Y0105609D01*
X0160870Y0105542D01*
X0160880Y0105474D01*
X0160886Y0105406D01*
X0160888Y0105337D01*
X0160886Y0105268D01*
X0160880Y0105200D01*
X0160870Y0105132D01*
X0160856Y0105065D01*
X0160838Y0104998D01*
X0160817Y0104933D01*
X0160791Y0104869D01*
X0160762Y0104807D01*
X0160730Y0104746D01*
X0160694Y0104688D01*
X0160654Y0104632D01*
X0160612Y0104578D01*
X0160566Y0104527D01*
X0160517Y0104478D01*
X0160466Y0104432D01*
X0160412Y0104390D01*
X0160356Y0104350D01*
X0160298Y0104314D01*
X0160237Y0104282D01*
X0160175Y0104253D01*
X0160111Y0104227D01*
X0160046Y0104206D01*
X0159979Y0104188D01*
X0159912Y0104174D01*
X0159844Y0104164D01*
X0159776Y0104158D01*
X0159707Y0104156D01*
X0159638Y0104158D01*
X0159570Y0104164D01*
X0159502Y0104174D01*
X0159435Y0104188D01*
X0159368Y0104206D01*
X0159303Y0104227D01*
X0159239Y0104253D01*
X0159177Y0104282D01*
X0159116Y0104314D01*
X0159058Y0104350D01*
X0159002Y0104390D01*
X0158948Y0104432D01*
X0158897Y0104478D01*
X0158848Y0104527D01*
X0158802Y0104578D01*
X0158760Y0104632D01*
X0158720Y0104688D01*
X0158684Y0104746D01*
X0158652Y0104807D01*
X0158623Y0104869D01*
X0158597Y0104933D01*
X0158576Y0104998D01*
X0158558Y0105065D01*
X0158544Y0105132D01*
X0158534Y0105200D01*
X0158528Y0105268D01*
X0158526Y0105337D01*
X0181282Y0105337D02*
X0181284Y0105406D01*
X0181290Y0105474D01*
X0181300Y0105542D01*
X0181314Y0105609D01*
X0181332Y0105676D01*
X0181353Y0105741D01*
X0181379Y0105805D01*
X0181408Y0105867D01*
X0181440Y0105927D01*
X0181476Y0105986D01*
X0181516Y0106042D01*
X0181558Y0106096D01*
X0181604Y0106147D01*
X0181653Y0106196D01*
X0181704Y0106242D01*
X0181758Y0106284D01*
X0181814Y0106324D01*
X0181872Y0106360D01*
X0181933Y0106392D01*
X0181995Y0106421D01*
X0182059Y0106447D01*
X0182124Y0106468D01*
X0182191Y0106486D01*
X0182258Y0106500D01*
X0182326Y0106510D01*
X0182394Y0106516D01*
X0182463Y0106518D01*
X0182532Y0106516D01*
X0182600Y0106510D01*
X0182668Y0106500D01*
X0182735Y0106486D01*
X0182802Y0106468D01*
X0182867Y0106447D01*
X0182931Y0106421D01*
X0182993Y0106392D01*
X0183053Y0106360D01*
X0183112Y0106324D01*
X0183168Y0106284D01*
X0183222Y0106242D01*
X0183273Y0106196D01*
X0183322Y0106147D01*
X0183368Y0106096D01*
X0183410Y0106042D01*
X0183450Y0105986D01*
X0183486Y0105927D01*
X0183518Y0105867D01*
X0183547Y0105805D01*
X0183573Y0105741D01*
X0183594Y0105676D01*
X0183612Y0105609D01*
X0183626Y0105542D01*
X0183636Y0105474D01*
X0183642Y0105406D01*
X0183644Y0105337D01*
X0183642Y0105268D01*
X0183636Y0105200D01*
X0183626Y0105132D01*
X0183612Y0105065D01*
X0183594Y0104998D01*
X0183573Y0104933D01*
X0183547Y0104869D01*
X0183518Y0104807D01*
X0183486Y0104746D01*
X0183450Y0104688D01*
X0183410Y0104632D01*
X0183368Y0104578D01*
X0183322Y0104527D01*
X0183273Y0104478D01*
X0183222Y0104432D01*
X0183168Y0104390D01*
X0183112Y0104350D01*
X0183054Y0104314D01*
X0182993Y0104282D01*
X0182931Y0104253D01*
X0182867Y0104227D01*
X0182802Y0104206D01*
X0182735Y0104188D01*
X0182668Y0104174D01*
X0182600Y0104164D01*
X0182532Y0104158D01*
X0182463Y0104156D01*
X0182394Y0104158D01*
X0182326Y0104164D01*
X0182258Y0104174D01*
X0182191Y0104188D01*
X0182124Y0104206D01*
X0182059Y0104227D01*
X0181995Y0104253D01*
X0181933Y0104282D01*
X0181872Y0104314D01*
X0181814Y0104350D01*
X0181758Y0104390D01*
X0181704Y0104432D01*
X0181653Y0104478D01*
X0181604Y0104527D01*
X0181558Y0104578D01*
X0181516Y0104632D01*
X0181476Y0104688D01*
X0181440Y0104746D01*
X0181408Y0104807D01*
X0181379Y0104869D01*
X0181353Y0104933D01*
X0181332Y0104998D01*
X0181314Y0105065D01*
X0181300Y0105132D01*
X0181290Y0105200D01*
X0181284Y0105268D01*
X0181282Y0105337D01*
M02*
