%
M48
M72
T01C0.01181
T02C0.02165
T03C0.02362
T04C0.03500
%
T01
X195101Y147069
X195101Y135258
X195101Y123447
X188014Y114392
X183683Y114392
X179353Y118723
X180928Y124235
X178959Y128959
X180534Y131715
X183683Y132896
X172266Y143920
X172266Y148644
X166361Y148644
X160849Y139983
X154550Y146676
X146282Y132896
X134471Y139195
X134471Y142345
X132109Y136833
X121085Y133290
X117935Y137620
X114392Y133290
X108880Y131321
X101794Y131321
X95494Y131321
X88802Y131321
X82896Y131321
X85258Y137620
X82896Y122266
X88802Y122266
X92345Y107306
X97857Y107306
X106518Y108093
X109668Y107699
X112424Y104156
X102975Y96282
X107306Y88408
X96676Y88408
X86439Y88408
X83290Y95494
X102975Y114786
X123054Y115967
X129746Y111636
X137620Y115967
X132896Y122266
X147069Y118723
X147463Y115573
X149431Y111636
X156124Y114392
X166754Y115573
X167345Y105337
X172069Y105337
X171085Y94707
X163211Y94707
X156912Y101794
X151400Y101794
X138802Y102975
X138014Y99825
X138014Y95494
X138014Y91951
X136833Y105731
X159274Y84471
X167148Y84471
X175022Y84471
X182896Y84471
X190770Y84471
X195101Y89589
X195101Y101006
X195101Y111636
X178959Y94707
X137227Y154550
X114392Y175022
X114392Y186439
X118329Y189195
X101794Y175022
X88802Y175022
X88802Y186439
X83290Y195101
X166361Y160061
X176597Y162030
X176597Y156912
X184077Y173054
T02
X188093Y107306
X188093Y90849
X154077Y107306
X154077Y90849
T03
X182463Y105337
X159707Y105337
T04
X189983Y191754
X189983Y181754
X189983Y171754
X189983Y161754
X189983Y151754
X189983Y141754
M30
