G75*
%MOIN*%
%OFA0B0*%
%FSLAX25Y25*%
%IPPOS*%
%LPD*%
%AMOC8*
5,1,8,0,0,1.08239X$1,22.5*
%
%ADD10C,0.00800*%
%ADD11C,0.00000*%
%ADD12C,0.04528*%
%ADD13C,0.04134*%
%ADD14R,0.06500X0.06500*%
%ADD15C,0.06500*%
%ADD16C,0.01600*%
%ADD17C,0.02381*%
D10*
X0001400Y0001400D02*
X0080140Y0001400D01*
X0080140Y0276991D01*
X0198250Y0276991D01*
X0198250Y0001400D01*
X0080140Y0001400D01*
X0001400Y0001400D02*
X0001400Y0080140D01*
X0276991Y0080140D01*
X0276991Y0001400D01*
X0198250Y0001400D01*
X0276991Y0080140D02*
X0276991Y0198250D01*
X0001400Y0198250D01*
X0001400Y0276991D01*
X0080140Y0276991D01*
X0001400Y0198250D02*
X0001400Y0080140D01*
X0092345Y0099825D02*
X0092345Y0107306D01*
X0092345Y0099825D02*
X0095888Y0096282D01*
X0102975Y0096282D01*
X0112424Y0104156D02*
X0112424Y0110061D01*
X0134471Y0132109D01*
X0134471Y0139195D01*
X0134471Y0142345D02*
X0129746Y0137620D01*
X0129746Y0132109D01*
X0106518Y0108880D01*
X0106518Y0108093D01*
X0109668Y0107699D02*
X0109668Y0109668D01*
X0132109Y0132109D01*
X0132109Y0136833D01*
X0143920Y0126203D02*
X0145101Y0126203D01*
X0156912Y0138014D01*
X0156912Y0144313D01*
X0154550Y0146676D01*
X0158487Y0140770D02*
X0158487Y0137227D01*
X0145888Y0124628D01*
X0144707Y0124628D01*
X0141557Y0121479D01*
X0141557Y0102187D01*
X0139195Y0099825D01*
X0138014Y0099825D01*
X0138802Y0102975D02*
X0138802Y0104156D01*
X0139983Y0105337D01*
X0139983Y0122266D01*
X0143920Y0126203D01*
X0145494Y0123054D02*
X0143132Y0120691D01*
X0143132Y0099431D01*
X0139195Y0095494D01*
X0138014Y0095494D01*
X0138014Y0091951D02*
X0144707Y0098644D01*
X0144707Y0119904D01*
X0146282Y0121479D01*
X0147463Y0121479D01*
X0169904Y0143920D01*
X0169904Y0146282D01*
X0172266Y0148644D01*
X0172266Y0143920D02*
X0172266Y0137620D01*
X0173447Y0136439D01*
X0180140Y0136439D01*
X0183683Y0132896D01*
X0180534Y0131715D02*
X0177778Y0134471D01*
X0162817Y0134471D01*
X0147069Y0118723D01*
X0149431Y0118723D02*
X0163605Y0132896D01*
X0175022Y0132896D01*
X0178959Y0128959D01*
X0183683Y0114392D02*
X0181715Y0112424D01*
X0163211Y0112424D01*
X0162030Y0113605D01*
X0156912Y0113605D01*
X0156124Y0114392D01*
X0149431Y0117542D02*
X0149431Y0118723D01*
X0149431Y0117542D02*
X0147463Y0115573D01*
X0146676Y0123054D02*
X0160849Y0137227D01*
X0160849Y0139983D01*
X0158487Y0140770D02*
X0166361Y0148644D01*
X0171479Y0157699D02*
X0175809Y0162030D01*
X0176597Y0162030D01*
X0178959Y0162030D01*
X0181715Y0164786D01*
X0181715Y0174235D01*
X0189235Y0181754D01*
X0189983Y0181754D01*
X0185258Y0180140D02*
X0185258Y0187030D01*
X0189983Y0191754D01*
X0185258Y0180140D02*
X0180140Y0175022D01*
X0180140Y0165967D01*
X0178565Y0164392D01*
X0175809Y0164392D01*
X0171479Y0160061D01*
X0166361Y0160061D01*
X0171479Y0157699D02*
X0128172Y0157699D01*
X0118329Y0167542D01*
X0118329Y0189195D01*
X0176597Y0156912D02*
X0177778Y0155731D01*
X0186046Y0155731D01*
X0189983Y0151794D01*
X0189983Y0151754D01*
X0189983Y0161754D02*
X0186715Y0161754D01*
X0184077Y0164392D01*
X0184077Y0173054D01*
X0146676Y0123054D02*
X0145494Y0123054D01*
X0137620Y0115967D02*
X0137620Y0106518D01*
X0136833Y0105731D01*
X0151400Y0101794D02*
X0152187Y0101006D01*
X0156124Y0101006D01*
X0156912Y0101794D01*
X0167345Y0105337D02*
X0168132Y0106124D01*
X0171282Y0106124D01*
X0172069Y0105337D01*
X0276991Y0198250D02*
X0276991Y0276991D01*
X0198250Y0276991D01*
D11*
X0181282Y0105337D02*
X0181284Y0105406D01*
X0181290Y0105474D01*
X0181300Y0105542D01*
X0181314Y0105609D01*
X0181332Y0105676D01*
X0181353Y0105741D01*
X0181379Y0105805D01*
X0181408Y0105867D01*
X0181440Y0105927D01*
X0181476Y0105986D01*
X0181516Y0106042D01*
X0181558Y0106096D01*
X0181604Y0106147D01*
X0181653Y0106196D01*
X0181704Y0106242D01*
X0181758Y0106284D01*
X0181814Y0106324D01*
X0181872Y0106360D01*
X0181933Y0106392D01*
X0181995Y0106421D01*
X0182059Y0106447D01*
X0182124Y0106468D01*
X0182191Y0106486D01*
X0182258Y0106500D01*
X0182326Y0106510D01*
X0182394Y0106516D01*
X0182463Y0106518D01*
X0182532Y0106516D01*
X0182600Y0106510D01*
X0182668Y0106500D01*
X0182735Y0106486D01*
X0182802Y0106468D01*
X0182867Y0106447D01*
X0182931Y0106421D01*
X0182993Y0106392D01*
X0183053Y0106360D01*
X0183112Y0106324D01*
X0183168Y0106284D01*
X0183222Y0106242D01*
X0183273Y0106196D01*
X0183322Y0106147D01*
X0183368Y0106096D01*
X0183410Y0106042D01*
X0183450Y0105986D01*
X0183486Y0105927D01*
X0183518Y0105867D01*
X0183547Y0105805D01*
X0183573Y0105741D01*
X0183594Y0105676D01*
X0183612Y0105609D01*
X0183626Y0105542D01*
X0183636Y0105474D01*
X0183642Y0105406D01*
X0183644Y0105337D01*
X0183642Y0105268D01*
X0183636Y0105200D01*
X0183626Y0105132D01*
X0183612Y0105065D01*
X0183594Y0104998D01*
X0183573Y0104933D01*
X0183547Y0104869D01*
X0183518Y0104807D01*
X0183486Y0104746D01*
X0183450Y0104688D01*
X0183410Y0104632D01*
X0183368Y0104578D01*
X0183322Y0104527D01*
X0183273Y0104478D01*
X0183222Y0104432D01*
X0183168Y0104390D01*
X0183112Y0104350D01*
X0183054Y0104314D01*
X0182993Y0104282D01*
X0182931Y0104253D01*
X0182867Y0104227D01*
X0182802Y0104206D01*
X0182735Y0104188D01*
X0182668Y0104174D01*
X0182600Y0104164D01*
X0182532Y0104158D01*
X0182463Y0104156D01*
X0182394Y0104158D01*
X0182326Y0104164D01*
X0182258Y0104174D01*
X0182191Y0104188D01*
X0182124Y0104206D01*
X0182059Y0104227D01*
X0181995Y0104253D01*
X0181933Y0104282D01*
X0181872Y0104314D01*
X0181814Y0104350D01*
X0181758Y0104390D01*
X0181704Y0104432D01*
X0181653Y0104478D01*
X0181604Y0104527D01*
X0181558Y0104578D01*
X0181516Y0104632D01*
X0181476Y0104688D01*
X0181440Y0104746D01*
X0181408Y0104807D01*
X0181379Y0104869D01*
X0181353Y0104933D01*
X0181332Y0104998D01*
X0181314Y0105065D01*
X0181300Y0105132D01*
X0181290Y0105200D01*
X0181284Y0105268D01*
X0181282Y0105337D01*
X0158526Y0105337D02*
X0158528Y0105406D01*
X0158534Y0105474D01*
X0158544Y0105542D01*
X0158558Y0105609D01*
X0158576Y0105676D01*
X0158597Y0105741D01*
X0158623Y0105805D01*
X0158652Y0105867D01*
X0158684Y0105927D01*
X0158720Y0105986D01*
X0158760Y0106042D01*
X0158802Y0106096D01*
X0158848Y0106147D01*
X0158897Y0106196D01*
X0158948Y0106242D01*
X0159002Y0106284D01*
X0159058Y0106324D01*
X0159116Y0106360D01*
X0159177Y0106392D01*
X0159239Y0106421D01*
X0159303Y0106447D01*
X0159368Y0106468D01*
X0159435Y0106486D01*
X0159502Y0106500D01*
X0159570Y0106510D01*
X0159638Y0106516D01*
X0159707Y0106518D01*
X0159776Y0106516D01*
X0159844Y0106510D01*
X0159912Y0106500D01*
X0159979Y0106486D01*
X0160046Y0106468D01*
X0160111Y0106447D01*
X0160175Y0106421D01*
X0160237Y0106392D01*
X0160297Y0106360D01*
X0160356Y0106324D01*
X0160412Y0106284D01*
X0160466Y0106242D01*
X0160517Y0106196D01*
X0160566Y0106147D01*
X0160612Y0106096D01*
X0160654Y0106042D01*
X0160694Y0105986D01*
X0160730Y0105927D01*
X0160762Y0105867D01*
X0160791Y0105805D01*
X0160817Y0105741D01*
X0160838Y0105676D01*
X0160856Y0105609D01*
X0160870Y0105542D01*
X0160880Y0105474D01*
X0160886Y0105406D01*
X0160888Y0105337D01*
X0160886Y0105268D01*
X0160880Y0105200D01*
X0160870Y0105132D01*
X0160856Y0105065D01*
X0160838Y0104998D01*
X0160817Y0104933D01*
X0160791Y0104869D01*
X0160762Y0104807D01*
X0160730Y0104746D01*
X0160694Y0104688D01*
X0160654Y0104632D01*
X0160612Y0104578D01*
X0160566Y0104527D01*
X0160517Y0104478D01*
X0160466Y0104432D01*
X0160412Y0104390D01*
X0160356Y0104350D01*
X0160298Y0104314D01*
X0160237Y0104282D01*
X0160175Y0104253D01*
X0160111Y0104227D01*
X0160046Y0104206D01*
X0159979Y0104188D01*
X0159912Y0104174D01*
X0159844Y0104164D01*
X0159776Y0104158D01*
X0159707Y0104156D01*
X0159638Y0104158D01*
X0159570Y0104164D01*
X0159502Y0104174D01*
X0159435Y0104188D01*
X0159368Y0104206D01*
X0159303Y0104227D01*
X0159239Y0104253D01*
X0159177Y0104282D01*
X0159116Y0104314D01*
X0159058Y0104350D01*
X0159002Y0104390D01*
X0158948Y0104432D01*
X0158897Y0104478D01*
X0158848Y0104527D01*
X0158802Y0104578D01*
X0158760Y0104632D01*
X0158720Y0104688D01*
X0158684Y0104746D01*
X0158652Y0104807D01*
X0158623Y0104869D01*
X0158597Y0104933D01*
X0158576Y0104998D01*
X0158558Y0105065D01*
X0158544Y0105132D01*
X0158534Y0105200D01*
X0158528Y0105268D01*
X0158526Y0105337D01*
D12*
X0154077Y0105042D02*
X0154077Y0109569D01*
X0188093Y0109569D02*
X0188093Y0105042D01*
D13*
X0188093Y0092916D02*
X0188093Y0088782D01*
X0154077Y0088782D02*
X0154077Y0092916D01*
D14*
X0189983Y0141754D03*
D15*
X0189983Y0151754D03*
X0189983Y0161754D03*
X0189983Y0171754D03*
X0189983Y0181754D03*
X0189983Y0191754D03*
D16*
X0173526Y0154943D02*
X0172142Y0154943D01*
X0172036Y0154899D01*
X0127615Y0154899D01*
X0127508Y0154943D01*
X0115573Y0154943D01*
X0115573Y0166878D01*
X0115529Y0166985D01*
X0115529Y0186917D01*
X0115285Y0187161D01*
X0114739Y0188481D01*
X0114739Y0189909D01*
X0115285Y0191229D01*
X0115573Y0191517D01*
X0115573Y0195450D01*
X0082940Y0195450D01*
X0082940Y0082940D01*
X0195450Y0082940D01*
X0195450Y0150190D01*
X0194773Y0148554D01*
X0193183Y0146964D01*
X0192796Y0146804D01*
X0193470Y0146804D01*
X0193927Y0146682D01*
X0194338Y0146445D01*
X0194673Y0146110D01*
X0194910Y0145699D01*
X0195033Y0145241D01*
X0195033Y0141829D01*
X0190058Y0141829D01*
X0190058Y0141679D01*
X0195033Y0141679D01*
X0195033Y0138267D01*
X0194910Y0137810D01*
X0194673Y0137399D01*
X0194338Y0137064D01*
X0193927Y0136827D01*
X0193470Y0136704D01*
X0190058Y0136704D01*
X0190058Y0141679D01*
X0189908Y0141679D01*
X0189908Y0136704D01*
X0186496Y0136704D01*
X0186038Y0136827D01*
X0185627Y0137064D01*
X0185292Y0137399D01*
X0185055Y0137810D01*
X0184933Y0138267D01*
X0184933Y0141679D01*
X0189908Y0141679D01*
X0189908Y0141829D01*
X0184933Y0141829D01*
X0184933Y0145241D01*
X0185055Y0145699D01*
X0185292Y0146110D01*
X0185627Y0146445D01*
X0186038Y0146682D01*
X0186496Y0146804D01*
X0187169Y0146804D01*
X0186782Y0146964D01*
X0185193Y0148554D01*
X0184333Y0150630D01*
X0184333Y0152878D01*
X0184354Y0152931D01*
X0177221Y0152931D01*
X0176278Y0153321D01*
X0175883Y0153321D01*
X0174563Y0153868D01*
X0173553Y0154878D01*
X0173526Y0154943D01*
X0173574Y0154857D02*
X0082940Y0154857D01*
X0082940Y0153259D02*
X0176429Y0153259D01*
X0174328Y0151660D02*
X0184333Y0151660D01*
X0184568Y0150062D02*
X0175565Y0150062D01*
X0175310Y0150678D02*
X0175857Y0149358D01*
X0175857Y0147930D01*
X0175310Y0146610D01*
X0174982Y0146282D01*
X0175310Y0145954D01*
X0175857Y0144634D01*
X0175857Y0143205D01*
X0175310Y0141886D01*
X0175066Y0141642D01*
X0175066Y0139239D01*
X0180697Y0139239D01*
X0181726Y0138813D01*
X0184053Y0136487D01*
X0184398Y0136487D01*
X0185717Y0135940D01*
X0186727Y0134930D01*
X0187274Y0133610D01*
X0187274Y0132182D01*
X0186727Y0130862D01*
X0185717Y0129852D01*
X0184398Y0129306D01*
X0183202Y0129306D01*
X0182568Y0128671D01*
X0182550Y0128664D01*
X0182550Y0128245D01*
X0182003Y0126925D01*
X0180993Y0125915D01*
X0179673Y0125369D01*
X0178245Y0125369D01*
X0176925Y0125915D01*
X0175915Y0126925D01*
X0175369Y0128245D01*
X0175369Y0128590D01*
X0173862Y0130096D01*
X0164765Y0130096D01*
X0152231Y0117563D01*
X0152231Y0116985D01*
X0151805Y0115956D01*
X0151054Y0115204D01*
X0151054Y0114859D01*
X0150507Y0113539D01*
X0149497Y0112529D01*
X0148177Y0111983D01*
X0147507Y0111983D01*
X0147507Y0098087D01*
X0147081Y0097058D01*
X0146293Y0096270D01*
X0141605Y0091582D01*
X0141605Y0091237D01*
X0141058Y0089917D01*
X0140048Y0088907D01*
X0138728Y0088361D01*
X0137300Y0088361D01*
X0135980Y0088907D01*
X0134970Y0089917D01*
X0134424Y0091237D01*
X0134424Y0092665D01*
X0134862Y0093723D01*
X0134424Y0094780D01*
X0134424Y0096209D01*
X0134970Y0097528D01*
X0135102Y0097660D01*
X0134970Y0097791D01*
X0134424Y0099111D01*
X0134424Y0100539D01*
X0134970Y0101859D01*
X0135258Y0102147D01*
X0135211Y0102261D01*
X0135211Y0102516D01*
X0134799Y0102687D01*
X0133789Y0103697D01*
X0133243Y0105016D01*
X0133243Y0106445D01*
X0133789Y0107765D01*
X0134799Y0108775D01*
X0134820Y0108783D01*
X0134820Y0113689D01*
X0134577Y0113933D01*
X0134030Y0115253D01*
X0134030Y0116681D01*
X0134577Y0118001D01*
X0135587Y0119011D01*
X0136906Y0119557D01*
X0137183Y0119557D01*
X0137183Y0122823D01*
X0137609Y0123852D01*
X0141546Y0127789D01*
X0142334Y0128577D01*
X0143363Y0129003D01*
X0143941Y0129003D01*
X0154112Y0139174D01*
X0154112Y0143085D01*
X0153835Y0143085D01*
X0152516Y0143632D01*
X0151506Y0144642D01*
X0150959Y0145961D01*
X0150959Y0147390D01*
X0151506Y0148709D01*
X0152516Y0149720D01*
X0153835Y0150266D01*
X0155264Y0150266D01*
X0156583Y0149720D01*
X0157594Y0148709D01*
X0158140Y0147390D01*
X0158140Y0147045D01*
X0159286Y0145899D01*
X0159394Y0145637D01*
X0162770Y0149013D01*
X0162770Y0149358D01*
X0163317Y0150678D01*
X0164327Y0151688D01*
X0165646Y0152235D01*
X0167075Y0152235D01*
X0168395Y0151688D01*
X0169313Y0150769D01*
X0170232Y0151688D01*
X0171552Y0152235D01*
X0172980Y0152235D01*
X0174300Y0151688D01*
X0175310Y0150678D01*
X0175857Y0148463D02*
X0185284Y0148463D01*
X0187024Y0146865D02*
X0175415Y0146865D01*
X0175595Y0145266D02*
X0184939Y0145266D01*
X0184933Y0143668D02*
X0175857Y0143668D01*
X0175386Y0142069D02*
X0184933Y0142069D01*
X0184933Y0140470D02*
X0175066Y0140470D01*
X0181584Y0138872D02*
X0184933Y0138872D01*
X0185418Y0137273D02*
X0183266Y0137273D01*
X0185982Y0135675D02*
X0195450Y0135675D01*
X0195450Y0137273D02*
X0194547Y0137273D01*
X0195033Y0138872D02*
X0195450Y0138872D01*
X0195450Y0140470D02*
X0195033Y0140470D01*
X0195033Y0142069D02*
X0195450Y0142069D01*
X0195450Y0143668D02*
X0195033Y0143668D01*
X0195026Y0145266D02*
X0195450Y0145266D01*
X0195450Y0146865D02*
X0192942Y0146865D01*
X0194682Y0148463D02*
X0195450Y0148463D01*
X0195397Y0150062D02*
X0195450Y0150062D01*
X0190058Y0140470D02*
X0189908Y0140470D01*
X0189908Y0138872D02*
X0190058Y0138872D01*
X0190058Y0137273D02*
X0189908Y0137273D01*
X0187081Y0134076D02*
X0195450Y0134076D01*
X0195450Y0132478D02*
X0187274Y0132478D01*
X0186735Y0130879D02*
X0195450Y0130879D01*
X0195450Y0129281D02*
X0183178Y0129281D01*
X0182317Y0127682D02*
X0195450Y0127682D01*
X0195450Y0126084D02*
X0181162Y0126084D01*
X0176756Y0126084D02*
X0160752Y0126084D01*
X0159154Y0124485D02*
X0195450Y0124485D01*
X0195450Y0122887D02*
X0157555Y0122887D01*
X0155957Y0121288D02*
X0195450Y0121288D01*
X0195450Y0119690D02*
X0154358Y0119690D01*
X0155410Y0117983D02*
X0154091Y0117436D01*
X0153080Y0116426D01*
X0152534Y0115106D01*
X0152534Y0113978D01*
X0151435Y0113523D01*
X0150123Y0112211D01*
X0149413Y0110497D01*
X0149413Y0104857D01*
X0149366Y0104838D01*
X0148356Y0103828D01*
X0147809Y0102508D01*
X0147809Y0101079D01*
X0148356Y0099760D01*
X0149366Y0098750D01*
X0150686Y0098203D01*
X0152114Y0098203D01*
X0152122Y0098206D01*
X0156190Y0098206D01*
X0156198Y0098203D01*
X0157626Y0098203D01*
X0158946Y0098750D01*
X0159956Y0099760D01*
X0160502Y0101079D01*
X0160502Y0101790D01*
X0161736Y0102301D01*
X0162743Y0103308D01*
X0163288Y0104625D01*
X0163288Y0106049D01*
X0162743Y0107366D01*
X0161736Y0108373D01*
X0160419Y0108918D01*
X0158995Y0108918D01*
X0158741Y0108813D01*
X0158741Y0110497D01*
X0158613Y0110805D01*
X0160870Y0110805D01*
X0161625Y0110050D01*
X0162654Y0109624D01*
X0182272Y0109624D01*
X0183301Y0110050D01*
X0183429Y0110178D01*
X0183429Y0108813D01*
X0183175Y0108918D01*
X0181751Y0108918D01*
X0180434Y0108373D01*
X0179427Y0107366D01*
X0178882Y0106049D01*
X0178882Y0104625D01*
X0179427Y0103308D01*
X0180434Y0102301D01*
X0181751Y0101756D01*
X0183175Y0101756D01*
X0184312Y0102227D01*
X0185451Y0101088D01*
X0187165Y0100378D01*
X0189021Y0100378D01*
X0190735Y0101088D01*
X0192047Y0102400D01*
X0192757Y0104114D01*
X0192757Y0110497D01*
X0192047Y0112211D01*
X0190735Y0113523D01*
X0189021Y0114233D01*
X0187274Y0114233D01*
X0187274Y0115106D01*
X0186727Y0116426D01*
X0185717Y0117436D01*
X0184398Y0117983D01*
X0182969Y0117983D01*
X0181650Y0117436D01*
X0180640Y0116426D01*
X0180141Y0115224D01*
X0164371Y0115224D01*
X0163616Y0115978D01*
X0162587Y0116405D01*
X0159177Y0116405D01*
X0159168Y0116426D01*
X0158158Y0117436D01*
X0156839Y0117983D01*
X0155410Y0117983D01*
X0152760Y0118091D02*
X0195450Y0118091D01*
X0195450Y0116493D02*
X0186661Y0116493D01*
X0187274Y0114894D02*
X0195450Y0114894D01*
X0195450Y0113296D02*
X0190962Y0113296D01*
X0192259Y0111697D02*
X0195450Y0111697D01*
X0195450Y0110099D02*
X0192757Y0110099D01*
X0192757Y0108500D02*
X0195450Y0108500D01*
X0195450Y0106902D02*
X0192757Y0106902D01*
X0192757Y0105303D02*
X0195450Y0105303D01*
X0195450Y0103705D02*
X0192587Y0103705D01*
X0191753Y0102106D02*
X0195450Y0102106D01*
X0195450Y0100508D02*
X0189334Y0100508D01*
X0186852Y0100508D02*
X0160266Y0100508D01*
X0161265Y0102106D02*
X0165762Y0102106D01*
X0165311Y0102293D02*
X0166631Y0101746D01*
X0168059Y0101746D01*
X0169379Y0102293D01*
X0169707Y0102621D01*
X0170035Y0102293D01*
X0171355Y0101746D01*
X0172783Y0101746D01*
X0174103Y0102293D01*
X0175113Y0103303D01*
X0175660Y0104623D01*
X0175660Y0106051D01*
X0175113Y0107371D01*
X0174103Y0108381D01*
X0172783Y0108928D01*
X0171355Y0108928D01*
X0171347Y0108924D01*
X0168067Y0108924D01*
X0168059Y0108928D01*
X0166631Y0108928D01*
X0165311Y0108381D01*
X0164301Y0107371D01*
X0163754Y0106051D01*
X0163754Y0104623D01*
X0164301Y0103303D01*
X0165311Y0102293D01*
X0164135Y0103705D02*
X0162907Y0103705D01*
X0163288Y0105303D02*
X0163754Y0105303D01*
X0164107Y0106902D02*
X0162935Y0106902D01*
X0161428Y0108500D02*
X0165599Y0108500D01*
X0161576Y0110099D02*
X0158741Y0110099D01*
X0159102Y0116493D02*
X0180706Y0116493D01*
X0183350Y0110099D02*
X0183429Y0110099D01*
X0180742Y0108500D02*
X0173815Y0108500D01*
X0175308Y0106902D02*
X0179235Y0106902D01*
X0178882Y0105303D02*
X0175660Y0105303D01*
X0175280Y0103705D02*
X0179263Y0103705D01*
X0180905Y0102106D02*
X0173652Y0102106D01*
X0170487Y0102106D02*
X0168928Y0102106D01*
X0159105Y0098909D02*
X0195450Y0098909D01*
X0195450Y0097311D02*
X0189155Y0097311D01*
X0188981Y0097383D02*
X0187204Y0097383D01*
X0185563Y0096703D01*
X0184306Y0095446D01*
X0183626Y0093804D01*
X0183626Y0087893D01*
X0184306Y0086252D01*
X0185563Y0084995D01*
X0187204Y0084315D01*
X0188981Y0084315D01*
X0190623Y0084995D01*
X0191880Y0086252D01*
X0192560Y0087893D01*
X0192560Y0093804D01*
X0191880Y0095446D01*
X0190623Y0096703D01*
X0188981Y0097383D01*
X0187031Y0097311D02*
X0155139Y0097311D01*
X0154966Y0097383D02*
X0153189Y0097383D01*
X0151547Y0096703D01*
X0150290Y0095446D01*
X0149610Y0093804D01*
X0149610Y0087893D01*
X0150290Y0086252D01*
X0151547Y0084995D01*
X0153189Y0084315D01*
X0154966Y0084315D01*
X0156607Y0084995D01*
X0157864Y0086252D01*
X0158544Y0087893D01*
X0158544Y0093804D01*
X0157864Y0095446D01*
X0156607Y0096703D01*
X0154966Y0097383D01*
X0153015Y0097311D02*
X0147185Y0097311D01*
X0147507Y0098909D02*
X0149207Y0098909D01*
X0148046Y0100508D02*
X0147507Y0100508D01*
X0147507Y0102106D02*
X0147809Y0102106D01*
X0147507Y0103705D02*
X0148305Y0103705D01*
X0147507Y0105303D02*
X0149413Y0105303D01*
X0149413Y0106902D02*
X0147507Y0106902D01*
X0147507Y0108500D02*
X0149413Y0108500D01*
X0149413Y0110099D02*
X0147507Y0110099D01*
X0147507Y0111697D02*
X0149911Y0111697D01*
X0150263Y0113296D02*
X0151208Y0113296D01*
X0151054Y0114894D02*
X0152534Y0114894D01*
X0152028Y0116493D02*
X0153147Y0116493D01*
X0162351Y0127682D02*
X0175601Y0127682D01*
X0174677Y0129281D02*
X0163949Y0129281D01*
X0153810Y0138872D02*
X0138061Y0138872D01*
X0138061Y0138481D02*
X0138061Y0139909D01*
X0137705Y0140770D01*
X0138061Y0141631D01*
X0138061Y0143059D01*
X0137515Y0144379D01*
X0136505Y0145389D01*
X0135185Y0145935D01*
X0133757Y0145935D01*
X0132437Y0145389D01*
X0131427Y0144379D01*
X0130880Y0143059D01*
X0130880Y0142714D01*
X0128160Y0139994D01*
X0127373Y0139207D01*
X0126946Y0138177D01*
X0126946Y0133268D01*
X0105049Y0111371D01*
X0104484Y0111137D01*
X0103474Y0110127D01*
X0102928Y0108807D01*
X0102928Y0107379D01*
X0103474Y0106059D01*
X0104484Y0105049D01*
X0105804Y0104502D01*
X0107232Y0104502D01*
X0107624Y0104665D01*
X0107634Y0104655D01*
X0108833Y0104159D01*
X0108833Y0103442D01*
X0109380Y0102122D01*
X0110390Y0101112D01*
X0111709Y0100565D01*
X0113138Y0100565D01*
X0114458Y0101112D01*
X0115468Y0102122D01*
X0116014Y0103442D01*
X0116014Y0104870D01*
X0115468Y0106190D01*
X0115224Y0106434D01*
X0115224Y0108902D01*
X0136057Y0129735D01*
X0136845Y0130523D01*
X0137271Y0131552D01*
X0137271Y0136917D01*
X0137515Y0137161D01*
X0138061Y0138481D01*
X0137561Y0137273D02*
X0152211Y0137273D01*
X0150613Y0135675D02*
X0137271Y0135675D01*
X0137271Y0134076D02*
X0149014Y0134076D01*
X0147416Y0132478D02*
X0137271Y0132478D01*
X0136992Y0130879D02*
X0145817Y0130879D01*
X0144219Y0129281D02*
X0135603Y0129281D01*
X0134004Y0127682D02*
X0141439Y0127682D01*
X0139841Y0126084D02*
X0132406Y0126084D01*
X0130807Y0124485D02*
X0138242Y0124485D01*
X0137209Y0122887D02*
X0129209Y0122887D01*
X0127610Y0121288D02*
X0137183Y0121288D01*
X0137183Y0119690D02*
X0126012Y0119690D01*
X0124413Y0118091D02*
X0134667Y0118091D01*
X0134030Y0116493D02*
X0122815Y0116493D01*
X0121216Y0114894D02*
X0134178Y0114894D01*
X0134820Y0113296D02*
X0119618Y0113296D01*
X0118019Y0111697D02*
X0134820Y0111697D01*
X0134820Y0110099D02*
X0116421Y0110099D01*
X0115224Y0108500D02*
X0134525Y0108500D01*
X0133432Y0106902D02*
X0115224Y0106902D01*
X0115835Y0105303D02*
X0133243Y0105303D01*
X0133786Y0103705D02*
X0116014Y0103705D01*
X0115452Y0102106D02*
X0135217Y0102106D01*
X0134424Y0100508D02*
X0095622Y0100508D01*
X0095145Y0100985D02*
X0095145Y0105028D01*
X0095389Y0105272D01*
X0095935Y0106591D01*
X0095935Y0108020D01*
X0095389Y0109339D01*
X0094379Y0110349D01*
X0093059Y0110896D01*
X0091631Y0110896D01*
X0090311Y0110349D01*
X0089301Y0109339D01*
X0088754Y0108020D01*
X0088754Y0106591D01*
X0089301Y0105272D01*
X0089545Y0105028D01*
X0089545Y0099268D01*
X0089971Y0098239D01*
X0090759Y0097451D01*
X0094302Y0093908D01*
X0095331Y0093482D01*
X0100697Y0093482D01*
X0100941Y0093238D01*
X0102261Y0092691D01*
X0103689Y0092691D01*
X0105009Y0093238D01*
X0106019Y0094248D01*
X0106565Y0095568D01*
X0106565Y0096996D01*
X0106019Y0098316D01*
X0105009Y0099326D01*
X0103689Y0099872D01*
X0102261Y0099872D01*
X0100941Y0099326D01*
X0100697Y0099082D01*
X0097048Y0099082D01*
X0095145Y0100985D01*
X0095145Y0102106D02*
X0109395Y0102106D01*
X0108833Y0103705D02*
X0095145Y0103705D01*
X0095402Y0105303D02*
X0104230Y0105303D01*
X0103125Y0106902D02*
X0095935Y0106902D01*
X0095736Y0108500D02*
X0102928Y0108500D01*
X0103463Y0110099D02*
X0094629Y0110099D01*
X0090060Y0110099D02*
X0082940Y0110099D01*
X0082940Y0111697D02*
X0105375Y0111697D01*
X0106974Y0113296D02*
X0082940Y0113296D01*
X0082940Y0114894D02*
X0108572Y0114894D01*
X0110171Y0116493D02*
X0082940Y0116493D01*
X0082940Y0118091D02*
X0111769Y0118091D01*
X0113368Y0119690D02*
X0082940Y0119690D01*
X0082940Y0121288D02*
X0114966Y0121288D01*
X0116565Y0122887D02*
X0082940Y0122887D01*
X0082940Y0124485D02*
X0118163Y0124485D01*
X0119762Y0126084D02*
X0082940Y0126084D01*
X0082940Y0127682D02*
X0121360Y0127682D01*
X0122959Y0129281D02*
X0082940Y0129281D01*
X0082940Y0130879D02*
X0124557Y0130879D01*
X0126156Y0132478D02*
X0082940Y0132478D01*
X0082940Y0134076D02*
X0126946Y0134076D01*
X0126946Y0135675D02*
X0082940Y0135675D01*
X0082940Y0137273D02*
X0126946Y0137273D01*
X0127234Y0138872D02*
X0082940Y0138872D01*
X0082940Y0140470D02*
X0128637Y0140470D01*
X0130235Y0142069D02*
X0082940Y0142069D01*
X0082940Y0143668D02*
X0131132Y0143668D01*
X0132314Y0145266D02*
X0082940Y0145266D01*
X0082940Y0146865D02*
X0150959Y0146865D01*
X0151247Y0145266D02*
X0136628Y0145266D01*
X0137809Y0143668D02*
X0152480Y0143668D01*
X0154112Y0142069D02*
X0138061Y0142069D01*
X0137829Y0140470D02*
X0154112Y0140470D01*
X0158320Y0146865D02*
X0160621Y0146865D01*
X0162220Y0148463D02*
X0157696Y0148463D01*
X0155758Y0150062D02*
X0163061Y0150062D01*
X0164299Y0151660D02*
X0082940Y0151660D01*
X0082940Y0150062D02*
X0153342Y0150062D01*
X0151404Y0148463D02*
X0082940Y0148463D01*
X0082940Y0156456D02*
X0115573Y0156456D01*
X0115573Y0158054D02*
X0082940Y0158054D01*
X0082940Y0159653D02*
X0115573Y0159653D01*
X0115573Y0161251D02*
X0082940Y0161251D01*
X0082940Y0162850D02*
X0115573Y0162850D01*
X0115573Y0164448D02*
X0082940Y0164448D01*
X0082940Y0166047D02*
X0115573Y0166047D01*
X0115529Y0167645D02*
X0082940Y0167645D01*
X0082940Y0169244D02*
X0115529Y0169244D01*
X0115529Y0170842D02*
X0082940Y0170842D01*
X0082940Y0172441D02*
X0115529Y0172441D01*
X0115529Y0174039D02*
X0082940Y0174039D01*
X0082940Y0175638D02*
X0115529Y0175638D01*
X0115529Y0177236D02*
X0082940Y0177236D01*
X0082940Y0178835D02*
X0115529Y0178835D01*
X0115529Y0180433D02*
X0082940Y0180433D01*
X0082940Y0182032D02*
X0115529Y0182032D01*
X0115529Y0183630D02*
X0082940Y0183630D01*
X0082940Y0185229D02*
X0115529Y0185229D01*
X0115529Y0186827D02*
X0082940Y0186827D01*
X0082940Y0188426D02*
X0114761Y0188426D01*
X0114786Y0190024D02*
X0082940Y0190024D01*
X0082940Y0191623D02*
X0115573Y0191623D01*
X0115573Y0193221D02*
X0082940Y0193221D01*
X0082940Y0194820D02*
X0115573Y0194820D01*
X0168422Y0151660D02*
X0170204Y0151660D01*
X0184021Y0102106D02*
X0184433Y0102106D01*
X0184572Y0095712D02*
X0157598Y0095712D01*
X0158416Y0094114D02*
X0183754Y0094114D01*
X0183626Y0092515D02*
X0158544Y0092515D01*
X0158544Y0090917D02*
X0183626Y0090917D01*
X0183626Y0089318D02*
X0158544Y0089318D01*
X0158472Y0087720D02*
X0183698Y0087720D01*
X0184437Y0086121D02*
X0157734Y0086121D01*
X0155467Y0084523D02*
X0186703Y0084523D01*
X0189483Y0084523D02*
X0195450Y0084523D01*
X0195450Y0086121D02*
X0191749Y0086121D01*
X0192488Y0087720D02*
X0195450Y0087720D01*
X0195450Y0089318D02*
X0192560Y0089318D01*
X0192560Y0090917D02*
X0195450Y0090917D01*
X0195450Y0092515D02*
X0192560Y0092515D01*
X0192432Y0094114D02*
X0195450Y0094114D01*
X0195450Y0095712D02*
X0191614Y0095712D01*
X0152687Y0084523D02*
X0082940Y0084523D01*
X0082940Y0086121D02*
X0150421Y0086121D01*
X0149682Y0087720D02*
X0082940Y0087720D01*
X0082940Y0089318D02*
X0135569Y0089318D01*
X0134556Y0090917D02*
X0082940Y0090917D01*
X0082940Y0092515D02*
X0134424Y0092515D01*
X0134700Y0094114D02*
X0105884Y0094114D01*
X0106565Y0095712D02*
X0134424Y0095712D01*
X0134880Y0097311D02*
X0106435Y0097311D01*
X0105425Y0098909D02*
X0134507Y0098909D01*
X0142538Y0092515D02*
X0149610Y0092515D01*
X0149610Y0090917D02*
X0141472Y0090917D01*
X0140459Y0089318D02*
X0149610Y0089318D01*
X0149738Y0094114D02*
X0144136Y0094114D01*
X0145735Y0095712D02*
X0150556Y0095712D01*
X0094097Y0094114D02*
X0082940Y0094114D01*
X0082940Y0095712D02*
X0092498Y0095712D01*
X0090900Y0097311D02*
X0082940Y0097311D01*
X0082940Y0098909D02*
X0089694Y0098909D01*
X0089545Y0100508D02*
X0082940Y0100508D01*
X0082940Y0102106D02*
X0089545Y0102106D01*
X0089545Y0103705D02*
X0082940Y0103705D01*
X0082940Y0105303D02*
X0089288Y0105303D01*
X0088754Y0106902D02*
X0082940Y0106902D01*
X0082940Y0108500D02*
X0088953Y0108500D01*
D17*
X0092345Y0107306D03*
X0097857Y0107306D03*
X0106518Y0108093D03*
X0109668Y0107699D03*
X0112424Y0104156D03*
X0102975Y0096282D03*
X0107306Y0088408D03*
X0096676Y0088408D03*
X0086439Y0088408D03*
X0083290Y0095494D03*
X0102975Y0114786D03*
X0088802Y0122266D03*
X0082896Y0122266D03*
X0082896Y0131321D03*
X0088802Y0131321D03*
X0085258Y0137620D03*
X0095494Y0131321D03*
X0101794Y0131321D03*
X0108880Y0131321D03*
X0114392Y0133290D03*
X0117935Y0137620D03*
X0121085Y0133290D03*
X0132109Y0136833D03*
X0134471Y0139195D03*
X0134471Y0142345D03*
X0137227Y0154550D03*
X0154550Y0146676D03*
X0160849Y0139983D03*
X0166361Y0148644D03*
X0172266Y0148644D03*
X0172266Y0143920D03*
X0180534Y0131715D03*
X0178959Y0128959D03*
X0183683Y0132896D03*
X0180928Y0124235D03*
X0179353Y0118723D03*
X0183683Y0114392D03*
X0188014Y0114392D03*
X0195101Y0111636D03*
X0195101Y0101006D03*
X0195101Y0089589D03*
X0190770Y0084471D03*
X0182896Y0084471D03*
X0175022Y0084471D03*
X0167148Y0084471D03*
X0159274Y0084471D03*
X0163211Y0094707D03*
X0156912Y0101794D03*
X0151400Y0101794D03*
X0149431Y0111636D03*
X0147463Y0115573D03*
X0147069Y0118723D03*
X0137620Y0115967D03*
X0132896Y0122266D03*
X0129746Y0111636D03*
X0123054Y0115967D03*
X0136833Y0105731D03*
X0138802Y0102975D03*
X0138014Y0099825D03*
X0138014Y0095494D03*
X0138014Y0091951D03*
X0156124Y0114392D03*
X0166754Y0115573D03*
X0167345Y0105337D03*
X0172069Y0105337D03*
X0171085Y0094707D03*
X0178959Y0094707D03*
X0195101Y0123447D03*
X0195101Y0135258D03*
X0195101Y0147069D03*
X0176597Y0156912D03*
X0176597Y0162030D03*
X0166361Y0160061D03*
X0184077Y0173054D03*
X0146282Y0132896D03*
X0114392Y0175022D03*
X0114392Y0186439D03*
X0118329Y0189195D03*
X0101794Y0175022D03*
X0088802Y0175022D03*
X0088802Y0186439D03*
X0083290Y0195101D03*
M02*
