G75*
%MOIN*%
%OFA0B0*%
%FSLAX25Y25*%
%IPPOS*%
%LPD*%
%AMOC8*
5,1,8,0,0,1.08239X$1,22.5*
%
%ADD10C,0.00800*%
%ADD11C,0.00000*%
%ADD12C,0.02762*%
%ADD13C,0.04928*%
%ADD14C,0.04534*%
%ADD15R,0.06900X0.06900*%
%ADD16C,0.06900*%
D10*
X0001400Y0001400D02*
X0080140Y0001400D01*
X0080140Y0276991D01*
X0198250Y0276991D01*
X0198250Y0001400D01*
X0080140Y0001400D01*
X0001400Y0001400D02*
X0001400Y0080140D01*
X0276991Y0080140D01*
X0276991Y0001400D01*
X0198250Y0001400D01*
X0276991Y0080140D02*
X0276991Y0198250D01*
X0001400Y0198250D01*
X0001400Y0276991D01*
X0080140Y0276991D01*
X0001400Y0198250D02*
X0001400Y0080140D01*
X0198250Y0276991D02*
X0276991Y0276991D01*
X0276991Y0198250D01*
D11*
X0181282Y0105337D02*
X0181284Y0105406D01*
X0181290Y0105474D01*
X0181300Y0105542D01*
X0181314Y0105609D01*
X0181332Y0105676D01*
X0181353Y0105741D01*
X0181379Y0105805D01*
X0181408Y0105867D01*
X0181440Y0105927D01*
X0181476Y0105986D01*
X0181516Y0106042D01*
X0181558Y0106096D01*
X0181604Y0106147D01*
X0181653Y0106196D01*
X0181704Y0106242D01*
X0181758Y0106284D01*
X0181814Y0106324D01*
X0181872Y0106360D01*
X0181933Y0106392D01*
X0181995Y0106421D01*
X0182059Y0106447D01*
X0182124Y0106468D01*
X0182191Y0106486D01*
X0182258Y0106500D01*
X0182326Y0106510D01*
X0182394Y0106516D01*
X0182463Y0106518D01*
X0182532Y0106516D01*
X0182600Y0106510D01*
X0182668Y0106500D01*
X0182735Y0106486D01*
X0182802Y0106468D01*
X0182867Y0106447D01*
X0182931Y0106421D01*
X0182993Y0106392D01*
X0183053Y0106360D01*
X0183112Y0106324D01*
X0183168Y0106284D01*
X0183222Y0106242D01*
X0183273Y0106196D01*
X0183322Y0106147D01*
X0183368Y0106096D01*
X0183410Y0106042D01*
X0183450Y0105986D01*
X0183486Y0105927D01*
X0183518Y0105867D01*
X0183547Y0105805D01*
X0183573Y0105741D01*
X0183594Y0105676D01*
X0183612Y0105609D01*
X0183626Y0105542D01*
X0183636Y0105474D01*
X0183642Y0105406D01*
X0183644Y0105337D01*
X0183642Y0105268D01*
X0183636Y0105200D01*
X0183626Y0105132D01*
X0183612Y0105065D01*
X0183594Y0104998D01*
X0183573Y0104933D01*
X0183547Y0104869D01*
X0183518Y0104807D01*
X0183486Y0104746D01*
X0183450Y0104688D01*
X0183410Y0104632D01*
X0183368Y0104578D01*
X0183322Y0104527D01*
X0183273Y0104478D01*
X0183222Y0104432D01*
X0183168Y0104390D01*
X0183112Y0104350D01*
X0183054Y0104314D01*
X0182993Y0104282D01*
X0182931Y0104253D01*
X0182867Y0104227D01*
X0182802Y0104206D01*
X0182735Y0104188D01*
X0182668Y0104174D01*
X0182600Y0104164D01*
X0182532Y0104158D01*
X0182463Y0104156D01*
X0182394Y0104158D01*
X0182326Y0104164D01*
X0182258Y0104174D01*
X0182191Y0104188D01*
X0182124Y0104206D01*
X0182059Y0104227D01*
X0181995Y0104253D01*
X0181933Y0104282D01*
X0181872Y0104314D01*
X0181814Y0104350D01*
X0181758Y0104390D01*
X0181704Y0104432D01*
X0181653Y0104478D01*
X0181604Y0104527D01*
X0181558Y0104578D01*
X0181516Y0104632D01*
X0181476Y0104688D01*
X0181440Y0104746D01*
X0181408Y0104807D01*
X0181379Y0104869D01*
X0181353Y0104933D01*
X0181332Y0104998D01*
X0181314Y0105065D01*
X0181300Y0105132D01*
X0181290Y0105200D01*
X0181284Y0105268D01*
X0181282Y0105337D01*
X0158526Y0105337D02*
X0158528Y0105406D01*
X0158534Y0105474D01*
X0158544Y0105542D01*
X0158558Y0105609D01*
X0158576Y0105676D01*
X0158597Y0105741D01*
X0158623Y0105805D01*
X0158652Y0105867D01*
X0158684Y0105927D01*
X0158720Y0105986D01*
X0158760Y0106042D01*
X0158802Y0106096D01*
X0158848Y0106147D01*
X0158897Y0106196D01*
X0158948Y0106242D01*
X0159002Y0106284D01*
X0159058Y0106324D01*
X0159116Y0106360D01*
X0159177Y0106392D01*
X0159239Y0106421D01*
X0159303Y0106447D01*
X0159368Y0106468D01*
X0159435Y0106486D01*
X0159502Y0106500D01*
X0159570Y0106510D01*
X0159638Y0106516D01*
X0159707Y0106518D01*
X0159776Y0106516D01*
X0159844Y0106510D01*
X0159912Y0106500D01*
X0159979Y0106486D01*
X0160046Y0106468D01*
X0160111Y0106447D01*
X0160175Y0106421D01*
X0160237Y0106392D01*
X0160297Y0106360D01*
X0160356Y0106324D01*
X0160412Y0106284D01*
X0160466Y0106242D01*
X0160517Y0106196D01*
X0160566Y0106147D01*
X0160612Y0106096D01*
X0160654Y0106042D01*
X0160694Y0105986D01*
X0160730Y0105927D01*
X0160762Y0105867D01*
X0160791Y0105805D01*
X0160817Y0105741D01*
X0160838Y0105676D01*
X0160856Y0105609D01*
X0160870Y0105542D01*
X0160880Y0105474D01*
X0160886Y0105406D01*
X0160888Y0105337D01*
X0160886Y0105268D01*
X0160880Y0105200D01*
X0160870Y0105132D01*
X0160856Y0105065D01*
X0160838Y0104998D01*
X0160817Y0104933D01*
X0160791Y0104869D01*
X0160762Y0104807D01*
X0160730Y0104746D01*
X0160694Y0104688D01*
X0160654Y0104632D01*
X0160612Y0104578D01*
X0160566Y0104527D01*
X0160517Y0104478D01*
X0160466Y0104432D01*
X0160412Y0104390D01*
X0160356Y0104350D01*
X0160298Y0104314D01*
X0160237Y0104282D01*
X0160175Y0104253D01*
X0160111Y0104227D01*
X0160046Y0104206D01*
X0159979Y0104188D01*
X0159912Y0104174D01*
X0159844Y0104164D01*
X0159776Y0104158D01*
X0159707Y0104156D01*
X0159638Y0104158D01*
X0159570Y0104164D01*
X0159502Y0104174D01*
X0159435Y0104188D01*
X0159368Y0104206D01*
X0159303Y0104227D01*
X0159239Y0104253D01*
X0159177Y0104282D01*
X0159116Y0104314D01*
X0159058Y0104350D01*
X0159002Y0104390D01*
X0158948Y0104432D01*
X0158897Y0104478D01*
X0158848Y0104527D01*
X0158802Y0104578D01*
X0158760Y0104632D01*
X0158720Y0104688D01*
X0158684Y0104746D01*
X0158652Y0104807D01*
X0158623Y0104869D01*
X0158597Y0104933D01*
X0158576Y0104998D01*
X0158558Y0105065D01*
X0158544Y0105132D01*
X0158534Y0105200D01*
X0158528Y0105268D01*
X0158526Y0105337D01*
D12*
X0159707Y0105337D03*
X0182463Y0105337D03*
D13*
X0188093Y0105042D02*
X0188093Y0109569D01*
X0154077Y0109569D02*
X0154077Y0105042D01*
D14*
X0154077Y0092916D02*
X0154077Y0088782D01*
X0188093Y0088782D02*
X0188093Y0092916D01*
D15*
X0189983Y0141754D03*
D16*
X0189983Y0151754D03*
X0189983Y0161754D03*
X0189983Y0171754D03*
X0189983Y0181754D03*
X0189983Y0191754D03*
M02*
