G75*
%MOIN*%
%OFA0B0*%
%FSLAX25Y25*%
%IPPOS*%
%LPD*%
%AMOC8*
5,1,8,0,0,1.08239X$1,22.5*
%
%ADD10C,0.00800*%
%ADD11R,0.06306X0.03156*%
%ADD12C,0.02762*%
%ADD13R,0.02762X0.02762*%
%ADD14R,0.06306X0.06306*%
%ADD15R,0.04652X0.04534*%
%ADD16R,0.02565X0.02565*%
%ADD17R,0.04528X0.02953*%
%ADD18R,0.03313X0.04042*%
%ADD19R,0.04534X0.04652*%
%ADD20R,0.04042X0.03313*%
%ADD21R,0.04337X0.06069*%
%ADD22R,0.05124X0.06069*%
%ADD23R,0.03156X0.03943*%
%ADD24R,0.03550X0.03550*%
%ADD25R,0.04337X0.05124*%
%ADD26C,0.40400*%
%ADD27R,0.20400X0.10400*%
%ADD28C,0.00000*%
%ADD29R,0.02756X0.04528*%
%ADD30R,0.01575X0.04921*%
%ADD31C,0.04928*%
%ADD32C,0.04534*%
%ADD33R,0.02362X0.03543*%
%ADD34R,0.03943X0.03156*%
%ADD35R,0.06900X0.06900*%
%ADD36C,0.06900*%
%ADD37R,0.05912X0.04337*%
D10*
X0001400Y0001400D02*
X0080140Y0001400D01*
X0080140Y0276991D01*
X0198250Y0276991D01*
X0198250Y0001400D01*
X0080140Y0001400D01*
X0001400Y0001400D02*
X0001400Y0080140D01*
X0276991Y0080140D01*
X0276991Y0001400D01*
X0198250Y0001400D01*
X0276991Y0080140D02*
X0276991Y0198250D01*
X0001400Y0198250D01*
X0001400Y0276991D01*
X0080140Y0276991D01*
X0001400Y0198250D02*
X0001400Y0080140D01*
X0198250Y0276991D02*
X0276991Y0276991D01*
X0276991Y0198250D01*
D11*
X0182109Y0169510D03*
X0182109Y0165180D03*
X0182109Y0160849D03*
X0182109Y0156518D03*
X0182109Y0152187D03*
X0182109Y0147857D03*
X0182109Y0143526D03*
X0182109Y0139195D03*
X0126991Y0139195D03*
X0126991Y0143526D03*
X0126991Y0147857D03*
X0126991Y0152187D03*
X0126991Y0156518D03*
X0126991Y0160849D03*
X0126991Y0165180D03*
X0126991Y0169510D03*
D12*
X0139786Y0166361D03*
X0139786Y0161636D03*
X0139786Y0156912D03*
X0139786Y0152187D03*
X0139786Y0147463D03*
X0139786Y0142739D03*
X0139786Y0138014D03*
X0145691Y0138014D03*
X0145691Y0142739D03*
X0145691Y0147463D03*
X0145691Y0152187D03*
X0145691Y0156912D03*
X0145691Y0161636D03*
X0145691Y0166361D03*
X0151597Y0166361D03*
X0151597Y0161636D03*
X0151597Y0156912D03*
X0151597Y0152187D03*
X0151597Y0147463D03*
X0151597Y0142739D03*
X0151597Y0138014D03*
X0157502Y0138014D03*
X0157502Y0142739D03*
X0157502Y0147463D03*
X0157502Y0152187D03*
X0157502Y0156912D03*
X0157502Y0161636D03*
X0157502Y0166361D03*
X0163408Y0166361D03*
X0163408Y0161636D03*
X0163408Y0156912D03*
X0163408Y0152187D03*
X0163408Y0147463D03*
X0163408Y0142739D03*
X0163408Y0138014D03*
X0169313Y0138014D03*
X0169313Y0142739D03*
X0169313Y0147463D03*
X0169313Y0152187D03*
X0169313Y0156912D03*
X0169313Y0161636D03*
X0169313Y0166361D03*
X0175219Y0152187D03*
X0175219Y0147463D03*
X0175219Y0142739D03*
X0182463Y0105337D03*
X0159707Y0105337D03*
D13*
X0175219Y0138014D03*
D14*
X0167837Y0174235D03*
X0158979Y0174235D03*
X0150120Y0174235D03*
X0141262Y0174235D03*
D15*
X0186046Y0129254D03*
X0186046Y0122365D03*
D16*
X0107010Y0191656D03*
X0107010Y0194609D03*
X0096577Y0194609D03*
X0096577Y0191656D03*
D17*
X0088506Y0092640D03*
X0088506Y0084176D03*
X0104845Y0084176D03*
X0104845Y0092640D03*
D18*
X0088408Y0108290D03*
X0088408Y0113408D03*
X0144707Y0096872D03*
X0149431Y0096872D03*
X0149431Y0091754D03*
X0144707Y0091754D03*
X0148250Y0102384D03*
X0148250Y0107502D03*
X0191164Y0117345D03*
X0191164Y0122463D03*
X0191951Y0100809D03*
X0191951Y0095691D03*
D19*
X0159963Y0124628D03*
X0153073Y0124628D03*
X0128073Y0128959D03*
X0121183Y0128959D03*
X0118428Y0110455D03*
X0125317Y0110455D03*
D20*
X0138211Y0111636D03*
X0143329Y0111636D03*
X0155140Y0130140D03*
X0160258Y0130140D03*
D21*
X0165770Y0128565D03*
X0173250Y0128565D03*
X0173250Y0119904D03*
D22*
X0166557Y0119904D03*
D23*
X0161439Y0119117D03*
X0156321Y0119117D03*
X0134668Y0101006D03*
X0129550Y0101006D03*
X0129550Y0095494D03*
X0134668Y0095494D03*
X0134668Y0089983D03*
X0129550Y0089983D03*
X0129550Y0084471D03*
X0134668Y0084471D03*
X0113408Y0111636D03*
X0108290Y0111636D03*
X0097660Y0114786D03*
X0092542Y0114786D03*
D24*
X0118723Y0101006D03*
X0118723Y0095494D03*
X0118723Y0089983D03*
X0118723Y0084471D03*
X0125022Y0084471D03*
X0125022Y0089983D03*
X0125022Y0095494D03*
X0125022Y0101006D03*
D25*
X0133683Y0117148D03*
X0143132Y0117148D03*
X0143132Y0127384D03*
X0133683Y0127384D03*
D26*
X0101794Y0152975D03*
D27*
X0101794Y0122975D03*
X0101794Y0182975D03*
D28*
X0158526Y0105337D02*
X0158528Y0105406D01*
X0158534Y0105474D01*
X0158544Y0105542D01*
X0158558Y0105609D01*
X0158576Y0105676D01*
X0158597Y0105741D01*
X0158623Y0105805D01*
X0158652Y0105867D01*
X0158684Y0105927D01*
X0158720Y0105986D01*
X0158760Y0106042D01*
X0158802Y0106096D01*
X0158848Y0106147D01*
X0158897Y0106196D01*
X0158948Y0106242D01*
X0159002Y0106284D01*
X0159058Y0106324D01*
X0159116Y0106360D01*
X0159177Y0106392D01*
X0159239Y0106421D01*
X0159303Y0106447D01*
X0159368Y0106468D01*
X0159435Y0106486D01*
X0159502Y0106500D01*
X0159570Y0106510D01*
X0159638Y0106516D01*
X0159707Y0106518D01*
X0159776Y0106516D01*
X0159844Y0106510D01*
X0159912Y0106500D01*
X0159979Y0106486D01*
X0160046Y0106468D01*
X0160111Y0106447D01*
X0160175Y0106421D01*
X0160237Y0106392D01*
X0160297Y0106360D01*
X0160356Y0106324D01*
X0160412Y0106284D01*
X0160466Y0106242D01*
X0160517Y0106196D01*
X0160566Y0106147D01*
X0160612Y0106096D01*
X0160654Y0106042D01*
X0160694Y0105986D01*
X0160730Y0105927D01*
X0160762Y0105867D01*
X0160791Y0105805D01*
X0160817Y0105741D01*
X0160838Y0105676D01*
X0160856Y0105609D01*
X0160870Y0105542D01*
X0160880Y0105474D01*
X0160886Y0105406D01*
X0160888Y0105337D01*
X0160886Y0105268D01*
X0160880Y0105200D01*
X0160870Y0105132D01*
X0160856Y0105065D01*
X0160838Y0104998D01*
X0160817Y0104933D01*
X0160791Y0104869D01*
X0160762Y0104807D01*
X0160730Y0104746D01*
X0160694Y0104688D01*
X0160654Y0104632D01*
X0160612Y0104578D01*
X0160566Y0104527D01*
X0160517Y0104478D01*
X0160466Y0104432D01*
X0160412Y0104390D01*
X0160356Y0104350D01*
X0160298Y0104314D01*
X0160237Y0104282D01*
X0160175Y0104253D01*
X0160111Y0104227D01*
X0160046Y0104206D01*
X0159979Y0104188D01*
X0159912Y0104174D01*
X0159844Y0104164D01*
X0159776Y0104158D01*
X0159707Y0104156D01*
X0159638Y0104158D01*
X0159570Y0104164D01*
X0159502Y0104174D01*
X0159435Y0104188D01*
X0159368Y0104206D01*
X0159303Y0104227D01*
X0159239Y0104253D01*
X0159177Y0104282D01*
X0159116Y0104314D01*
X0159058Y0104350D01*
X0159002Y0104390D01*
X0158948Y0104432D01*
X0158897Y0104478D01*
X0158848Y0104527D01*
X0158802Y0104578D01*
X0158760Y0104632D01*
X0158720Y0104688D01*
X0158684Y0104746D01*
X0158652Y0104807D01*
X0158623Y0104869D01*
X0158597Y0104933D01*
X0158576Y0104998D01*
X0158558Y0105065D01*
X0158544Y0105132D01*
X0158534Y0105200D01*
X0158528Y0105268D01*
X0158526Y0105337D01*
X0181282Y0105337D02*
X0181284Y0105406D01*
X0181290Y0105474D01*
X0181300Y0105542D01*
X0181314Y0105609D01*
X0181332Y0105676D01*
X0181353Y0105741D01*
X0181379Y0105805D01*
X0181408Y0105867D01*
X0181440Y0105927D01*
X0181476Y0105986D01*
X0181516Y0106042D01*
X0181558Y0106096D01*
X0181604Y0106147D01*
X0181653Y0106196D01*
X0181704Y0106242D01*
X0181758Y0106284D01*
X0181814Y0106324D01*
X0181872Y0106360D01*
X0181933Y0106392D01*
X0181995Y0106421D01*
X0182059Y0106447D01*
X0182124Y0106468D01*
X0182191Y0106486D01*
X0182258Y0106500D01*
X0182326Y0106510D01*
X0182394Y0106516D01*
X0182463Y0106518D01*
X0182532Y0106516D01*
X0182600Y0106510D01*
X0182668Y0106500D01*
X0182735Y0106486D01*
X0182802Y0106468D01*
X0182867Y0106447D01*
X0182931Y0106421D01*
X0182993Y0106392D01*
X0183053Y0106360D01*
X0183112Y0106324D01*
X0183168Y0106284D01*
X0183222Y0106242D01*
X0183273Y0106196D01*
X0183322Y0106147D01*
X0183368Y0106096D01*
X0183410Y0106042D01*
X0183450Y0105986D01*
X0183486Y0105927D01*
X0183518Y0105867D01*
X0183547Y0105805D01*
X0183573Y0105741D01*
X0183594Y0105676D01*
X0183612Y0105609D01*
X0183626Y0105542D01*
X0183636Y0105474D01*
X0183642Y0105406D01*
X0183644Y0105337D01*
X0183642Y0105268D01*
X0183636Y0105200D01*
X0183626Y0105132D01*
X0183612Y0105065D01*
X0183594Y0104998D01*
X0183573Y0104933D01*
X0183547Y0104869D01*
X0183518Y0104807D01*
X0183486Y0104746D01*
X0183450Y0104688D01*
X0183410Y0104632D01*
X0183368Y0104578D01*
X0183322Y0104527D01*
X0183273Y0104478D01*
X0183222Y0104432D01*
X0183168Y0104390D01*
X0183112Y0104350D01*
X0183054Y0104314D01*
X0182993Y0104282D01*
X0182931Y0104253D01*
X0182867Y0104227D01*
X0182802Y0104206D01*
X0182735Y0104188D01*
X0182668Y0104174D01*
X0182600Y0104164D01*
X0182532Y0104158D01*
X0182463Y0104156D01*
X0182394Y0104158D01*
X0182326Y0104164D01*
X0182258Y0104174D01*
X0182191Y0104188D01*
X0182124Y0104206D01*
X0182059Y0104227D01*
X0181995Y0104253D01*
X0181933Y0104282D01*
X0181872Y0104314D01*
X0181814Y0104350D01*
X0181758Y0104390D01*
X0181704Y0104432D01*
X0181653Y0104478D01*
X0181604Y0104527D01*
X0181558Y0104578D01*
X0181516Y0104632D01*
X0181476Y0104688D01*
X0181440Y0104746D01*
X0181408Y0104807D01*
X0181379Y0104869D01*
X0181353Y0104933D01*
X0181332Y0104998D01*
X0181314Y0105065D01*
X0181300Y0105132D01*
X0181290Y0105200D01*
X0181284Y0105268D01*
X0181282Y0105337D01*
D29*
X0180534Y0109766D03*
X0183683Y0109766D03*
X0161636Y0109766D03*
X0158487Y0109766D03*
D30*
X0164195Y0109569D03*
X0166164Y0109569D03*
X0168132Y0109569D03*
X0170101Y0109569D03*
X0172069Y0109569D03*
X0174038Y0109569D03*
X0176006Y0109569D03*
X0177975Y0109569D03*
D31*
X0188093Y0109569D02*
X0188093Y0105042D01*
X0154077Y0105042D02*
X0154077Y0109569D01*
D32*
X0154077Y0092916D02*
X0154077Y0088782D01*
X0188093Y0088782D02*
X0188093Y0092916D01*
D33*
X0097660Y0099038D03*
X0094117Y0099038D03*
X0090573Y0099038D03*
X0087030Y0099038D03*
X0087030Y0103762D03*
X0090573Y0103762D03*
X0094117Y0103762D03*
X0097660Y0103762D03*
D34*
X0106518Y0102384D03*
X0106518Y0097266D03*
X0084077Y0107896D03*
X0084077Y0113014D03*
D35*
X0189983Y0141754D03*
D36*
X0189983Y0151754D03*
X0189983Y0161754D03*
X0189983Y0171754D03*
X0189983Y0181754D03*
X0189983Y0191754D03*
D37*
X0127384Y0123644D03*
X0127384Y0116164D03*
X0118723Y0119904D03*
M02*
