G75*
%MOIN*%
%OFA0B0*%
%FSLAX25Y25*%
%IPPOS*%
%LPD*%
%AMOC8*
5,1,8,0,0,1.08239X$1,22.5*
%
%ADD10C,0.00800*%
%ADD11R,0.05906X0.02756*%
%ADD12C,0.02362*%
%ADD13R,0.02362X0.02362*%
%ADD14R,0.05906X0.05906*%
%ADD15R,0.04252X0.04134*%
%ADD16R,0.02165X0.02165*%
%ADD17R,0.04134X0.02559*%
%ADD18R,0.02913X0.03642*%
%ADD19R,0.04134X0.04252*%
%ADD20R,0.03642X0.02913*%
%ADD21R,0.03937X0.05669*%
%ADD22R,0.04724X0.05669*%
%ADD23R,0.02756X0.03543*%
%ADD24R,0.03150X0.03150*%
%ADD25R,0.03937X0.04724*%
%ADD26C,0.40000*%
%ADD27R,0.20000X0.10000*%
%ADD28C,0.00000*%
%ADD29R,0.02283X0.04134*%
%ADD30R,0.01102X0.04528*%
%ADD31C,0.04528*%
%ADD32C,0.04134*%
%ADD33R,0.01969X0.03150*%
%ADD34R,0.03543X0.02756*%
%ADD35R,0.06500X0.06500*%
%ADD36C,0.06500*%
%ADD37R,0.05512X0.03937*%
%ADD38C,0.01600*%
%ADD39C,0.02381*%
%ADD40C,0.00600*%
D10*
X0001400Y0001400D02*
X0080140Y0001400D01*
X0080140Y0276991D01*
X0198250Y0276991D01*
X0198250Y0001400D01*
X0080140Y0001400D01*
X0001400Y0001400D02*
X0001400Y0080140D01*
X0276991Y0080140D01*
X0276991Y0001400D01*
X0198250Y0001400D01*
X0276991Y0080140D02*
X0276991Y0198250D01*
X0001400Y0198250D01*
X0001400Y0276991D01*
X0080140Y0276991D01*
X0001400Y0198250D02*
X0001400Y0080140D01*
X0084077Y0104943D02*
X0084077Y0107896D01*
X0084077Y0104943D02*
X0085258Y0103762D01*
X0087030Y0103762D01*
X0090573Y0103762D02*
X0090573Y0105534D01*
X0088408Y0107699D01*
X0088408Y0108290D01*
X0090573Y0105534D02*
X0092345Y0107306D01*
X0094117Y0105928D02*
X0094707Y0106518D01*
X0094707Y0108487D01*
X0092542Y0110652D01*
X0092542Y0114786D01*
X0098841Y0120809D02*
X0101794Y0122975D01*
X0102660Y0123841D01*
X0121872Y0123841D01*
X0123054Y0122660D01*
X0123054Y0120691D01*
X0123841Y0119904D01*
X0130534Y0119904D01*
X0132896Y0117542D01*
X0133290Y0117542D01*
X0133683Y0117148D01*
X0137620Y0115967D02*
X0138802Y0117148D01*
X0143132Y0117148D01*
X0145494Y0117148D01*
X0147069Y0118723D01*
X0147463Y0115573D02*
X0147463Y0114392D01*
X0144707Y0111636D01*
X0143329Y0111636D01*
X0143329Y0109471D01*
X0145298Y0107502D01*
X0148250Y0107502D01*
X0148250Y0102384D02*
X0150809Y0102384D01*
X0151400Y0101794D01*
X0151400Y0098841D01*
X0149431Y0096872D01*
X0144707Y0092148D01*
X0144707Y0091754D01*
X0140376Y0090376D02*
X0140376Y0101400D01*
X0138802Y0102975D01*
X0136833Y0101006D02*
X0138014Y0099825D01*
X0136833Y0101006D02*
X0134668Y0101006D01*
X0135652Y0104550D02*
X0115967Y0104550D01*
X0118723Y0101794D01*
X0118723Y0101006D01*
X0118723Y0095494D01*
X0118723Y0089983D01*
X0118723Y0084471D01*
X0125022Y0084471D02*
X0129550Y0084471D01*
X0134668Y0084471D02*
X0134668Y0084668D01*
X0140376Y0090376D01*
X0138014Y0091951D02*
X0136046Y0089983D01*
X0134668Y0089983D01*
X0129550Y0089983D02*
X0125022Y0089983D01*
X0125022Y0095494D02*
X0129550Y0095494D01*
X0134668Y0095494D02*
X0138014Y0095494D01*
X0144707Y0096872D02*
X0144707Y0101794D01*
X0138408Y0108093D01*
X0135258Y0108093D01*
X0133683Y0106518D01*
X0122365Y0106518D01*
X0118428Y0110455D01*
X0118428Y0119609D01*
X0118723Y0119904D01*
X0123054Y0115967D02*
X0127778Y0115967D01*
X0127975Y0116164D01*
X0127384Y0116164D01*
X0125317Y0110455D02*
X0126105Y0109668D01*
X0125022Y0101006D02*
X0129550Y0101006D01*
X0135652Y0104550D02*
X0136833Y0105731D01*
X0143132Y0117148D02*
X0143132Y0127384D01*
X0143132Y0128172D01*
X0133683Y0127384D02*
X0129943Y0123644D01*
X0127384Y0123644D01*
X0127384Y0128270D01*
X0128073Y0128959D01*
X0132109Y0136833D02*
X0132109Y0163605D01*
X0130534Y0165180D01*
X0126991Y0165180D01*
X0126991Y0169510D02*
X0130534Y0169510D01*
X0133683Y0166361D01*
X0133683Y0144707D01*
X0134471Y0143920D01*
X0134471Y0142345D01*
X0135652Y0140376D02*
X0153762Y0140376D01*
X0154943Y0141557D01*
X0154943Y0143526D01*
X0157502Y0146085D01*
X0157502Y0147463D01*
X0154550Y0146676D02*
X0154550Y0158683D01*
X0157502Y0161636D01*
X0157502Y0166361D02*
X0151597Y0166361D01*
X0145691Y0166361D01*
X0141262Y0170790D01*
X0141262Y0174235D01*
X0150120Y0174235D01*
X0158979Y0174235D01*
X0157502Y0166361D02*
X0163408Y0166361D01*
X0166361Y0160061D02*
X0165573Y0159274D01*
X0162030Y0159274D01*
X0160061Y0157306D01*
X0160061Y0145298D01*
X0157502Y0142739D01*
X0160849Y0143526D02*
X0160849Y0139983D01*
X0160849Y0143526D02*
X0163408Y0146085D01*
X0163408Y0147463D01*
X0166361Y0148644D02*
X0166361Y0149235D01*
X0163408Y0152187D01*
X0169313Y0147463D02*
X0166754Y0144904D01*
X0166754Y0134471D01*
X0168329Y0132896D01*
X0172266Y0132896D01*
X0173250Y0131912D01*
X0173250Y0128565D01*
X0170101Y0125416D01*
X0170101Y0109569D01*
X0170101Y0107109D01*
X0169707Y0106715D01*
X0169707Y0104353D01*
X0171085Y0102975D01*
X0173054Y0102975D01*
X0174628Y0104550D01*
X0174628Y0106518D01*
X0174038Y0107109D01*
X0174038Y0109569D01*
X0172069Y0109569D02*
X0172069Y0118723D01*
X0173250Y0119904D01*
X0176597Y0123250D01*
X0176597Y0132109D01*
X0171872Y0136833D01*
X0171872Y0140180D01*
X0169313Y0142739D01*
X0172266Y0143920D02*
X0172266Y0144510D01*
X0175219Y0147463D01*
X0172266Y0148644D02*
X0172266Y0156124D01*
X0175809Y0159668D01*
X0177384Y0159668D01*
X0180534Y0156518D01*
X0182109Y0156518D01*
X0182109Y0160849D02*
X0178565Y0160849D01*
X0177384Y0162030D01*
X0176597Y0162030D01*
X0176597Y0156912D02*
X0177778Y0155731D01*
X0177778Y0140376D01*
X0179746Y0138408D01*
X0180140Y0138408D01*
X0181321Y0138408D01*
X0182109Y0139195D01*
X0182896Y0138408D01*
X0184471Y0138408D01*
X0180140Y0138408D02*
X0179746Y0138014D01*
X0179746Y0132502D01*
X0180534Y0131715D01*
X0178172Y0132896D02*
X0178172Y0129746D01*
X0178959Y0128959D01*
X0178172Y0132896D02*
X0175219Y0135849D01*
X0175219Y0138014D01*
X0182109Y0143526D02*
X0188211Y0143526D01*
X0189983Y0141754D01*
X0183683Y0132896D02*
X0186046Y0130534D01*
X0186046Y0129254D01*
X0186636Y0117345D02*
X0183683Y0114392D01*
X0184471Y0115180D01*
X0183683Y0114392D02*
X0183683Y0109766D01*
X0180534Y0109766D02*
X0180534Y0107404D01*
X0179746Y0106617D01*
X0179746Y0103762D01*
X0177384Y0101400D01*
X0164786Y0101400D01*
X0162424Y0103762D01*
X0160849Y0102187D01*
X0157306Y0102187D01*
X0156912Y0101794D01*
X0156046Y0099431D02*
X0154077Y0101400D01*
X0154077Y0090849D01*
X0156046Y0099431D02*
X0180219Y0099431D01*
X0188093Y0107306D01*
X0188093Y0090849D01*
X0188093Y0091833D01*
X0191951Y0095691D01*
X0172069Y0105337D02*
X0172069Y0109569D01*
X0168132Y0109569D02*
X0168132Y0106124D01*
X0167345Y0105337D01*
X0166164Y0109569D02*
X0166164Y0112227D01*
X0165180Y0113211D01*
X0163211Y0113211D01*
X0161439Y0114983D01*
X0161439Y0119117D01*
X0158880Y0114786D02*
X0158880Y0123546D01*
X0159963Y0124628D01*
X0160258Y0124924D01*
X0160258Y0130140D01*
X0164195Y0130140D01*
X0165770Y0128565D01*
X0156321Y0119117D02*
X0156124Y0118920D01*
X0156124Y0114392D01*
X0158487Y0112030D01*
X0158487Y0109766D01*
X0154077Y0107306D02*
X0154077Y0106991D01*
X0154077Y0107306D02*
X0154077Y0101400D01*
X0162424Y0103762D02*
X0162424Y0106617D01*
X0161636Y0107404D01*
X0161636Y0109766D01*
X0161636Y0112030D01*
X0158880Y0114786D01*
X0134471Y0139195D02*
X0135652Y0140376D01*
X0137227Y0154550D02*
X0141164Y0154550D01*
X0142345Y0155731D01*
X0142345Y0163014D01*
X0145691Y0166361D01*
X0118329Y0189195D02*
X0115869Y0191656D01*
X0107010Y0191656D01*
X0107010Y0194609D02*
X0112916Y0194609D01*
X0118329Y0189195D01*
X0182109Y0169510D02*
X0184077Y0171479D01*
X0184077Y0173054D01*
X0189983Y0171754D02*
X0189983Y0168329D01*
X0186833Y0165180D01*
X0182109Y0165180D01*
X0186636Y0117345D02*
X0191164Y0117345D01*
X0119117Y0101006D02*
X0118723Y0101006D01*
X0115967Y0104550D02*
X0112817Y0107699D01*
X0112817Y0111046D01*
X0113408Y0111636D01*
X0112817Y0107699D02*
X0109668Y0104550D01*
X0109668Y0100416D01*
X0106518Y0097266D01*
X0105534Y0096282D01*
X0102975Y0096282D01*
X0102187Y0099038D02*
X0102187Y0104156D01*
X0103369Y0105337D01*
X0107306Y0105337D01*
X0109668Y0107699D01*
X0108290Y0109865D02*
X0106518Y0108093D01*
X0105337Y0106912D01*
X0102581Y0106912D01*
X0100613Y0104943D01*
X0100613Y0100613D01*
X0099038Y0099038D01*
X0097660Y0099038D01*
X0099038Y0095888D02*
X0095101Y0095888D01*
X0094117Y0096872D01*
X0094117Y0099038D01*
X0094117Y0103762D02*
X0094117Y0105928D01*
X0102187Y0099038D02*
X0099038Y0095888D01*
X0104845Y0092640D02*
X0107207Y0092640D01*
X0109668Y0095101D01*
X0109668Y0098250D01*
X0112424Y0101006D01*
X0112424Y0104156D01*
X0107306Y0105337D02*
X0105731Y0103762D01*
X0106518Y0102384D01*
X0108290Y0109865D02*
X0108290Y0111636D01*
X0104845Y0092640D02*
X0088506Y0092640D01*
X0198250Y0276991D02*
X0276991Y0276991D01*
X0276991Y0198250D01*
D11*
X0182109Y0169510D03*
X0182109Y0165180D03*
X0182109Y0160849D03*
X0182109Y0156518D03*
X0182109Y0152187D03*
X0182109Y0147857D03*
X0182109Y0143526D03*
X0182109Y0139195D03*
X0126991Y0139195D03*
X0126991Y0143526D03*
X0126991Y0147857D03*
X0126991Y0152187D03*
X0126991Y0156518D03*
X0126991Y0160849D03*
X0126991Y0165180D03*
X0126991Y0169510D03*
D12*
X0139786Y0166361D03*
X0139786Y0161636D03*
X0139786Y0156912D03*
X0139786Y0152187D03*
X0139786Y0147463D03*
X0139786Y0142739D03*
X0139786Y0138014D03*
X0145691Y0138014D03*
X0145691Y0142739D03*
X0145691Y0147463D03*
X0145691Y0152187D03*
X0145691Y0156912D03*
X0145691Y0161636D03*
X0145691Y0166361D03*
X0151597Y0166361D03*
X0151597Y0161636D03*
X0151597Y0156912D03*
X0151597Y0152187D03*
X0151597Y0147463D03*
X0151597Y0142739D03*
X0151597Y0138014D03*
X0157502Y0138014D03*
X0157502Y0142739D03*
X0157502Y0147463D03*
X0157502Y0152187D03*
X0157502Y0156912D03*
X0157502Y0161636D03*
X0157502Y0166361D03*
X0163408Y0166361D03*
X0163408Y0161636D03*
X0163408Y0156912D03*
X0163408Y0152187D03*
X0163408Y0147463D03*
X0163408Y0142739D03*
X0163408Y0138014D03*
X0169313Y0138014D03*
X0169313Y0142739D03*
X0169313Y0147463D03*
X0169313Y0152187D03*
X0169313Y0156912D03*
X0169313Y0161636D03*
X0169313Y0166361D03*
X0175219Y0152187D03*
X0175219Y0147463D03*
X0175219Y0142739D03*
D13*
X0175219Y0138014D03*
D14*
X0167837Y0174235D03*
X0158979Y0174235D03*
X0150120Y0174235D03*
X0141262Y0174235D03*
D15*
X0186046Y0129254D03*
X0186046Y0122365D03*
D16*
X0107010Y0191656D03*
X0107010Y0194609D03*
X0096577Y0194609D03*
X0096577Y0191656D03*
D17*
X0088506Y0092640D03*
X0088506Y0084176D03*
X0104845Y0084176D03*
X0104845Y0092640D03*
D18*
X0088408Y0108290D03*
X0088408Y0113408D03*
X0144707Y0096872D03*
X0149431Y0096872D03*
X0149431Y0091754D03*
X0144707Y0091754D03*
X0148250Y0102384D03*
X0148250Y0107502D03*
X0191164Y0117345D03*
X0191164Y0122463D03*
X0191951Y0100809D03*
X0191951Y0095691D03*
D19*
X0159963Y0124628D03*
X0153073Y0124628D03*
X0128073Y0128959D03*
X0121183Y0128959D03*
X0118428Y0110455D03*
X0125317Y0110455D03*
D20*
X0138211Y0111636D03*
X0143329Y0111636D03*
X0155140Y0130140D03*
X0160258Y0130140D03*
D21*
X0165770Y0128565D03*
X0173250Y0128565D03*
X0173250Y0119904D03*
D22*
X0166557Y0119904D03*
D23*
X0161439Y0119117D03*
X0156321Y0119117D03*
X0134668Y0101006D03*
X0129550Y0101006D03*
X0129550Y0095494D03*
X0134668Y0095494D03*
X0134668Y0089983D03*
X0129550Y0089983D03*
X0129550Y0084471D03*
X0134668Y0084471D03*
X0113408Y0111636D03*
X0108290Y0111636D03*
X0097660Y0114786D03*
X0092542Y0114786D03*
D24*
X0118723Y0101006D03*
X0118723Y0095494D03*
X0118723Y0089983D03*
X0118723Y0084471D03*
X0125022Y0084471D03*
X0125022Y0089983D03*
X0125022Y0095494D03*
X0125022Y0101006D03*
D25*
X0133683Y0117148D03*
X0143132Y0117148D03*
X0143132Y0127384D03*
X0133683Y0127384D03*
D26*
X0101794Y0152975D03*
D27*
X0101794Y0122975D03*
X0101794Y0182975D03*
D28*
X0158526Y0105337D02*
X0158528Y0105406D01*
X0158534Y0105474D01*
X0158544Y0105542D01*
X0158558Y0105609D01*
X0158576Y0105676D01*
X0158597Y0105741D01*
X0158623Y0105805D01*
X0158652Y0105867D01*
X0158684Y0105927D01*
X0158720Y0105986D01*
X0158760Y0106042D01*
X0158802Y0106096D01*
X0158848Y0106147D01*
X0158897Y0106196D01*
X0158948Y0106242D01*
X0159002Y0106284D01*
X0159058Y0106324D01*
X0159116Y0106360D01*
X0159177Y0106392D01*
X0159239Y0106421D01*
X0159303Y0106447D01*
X0159368Y0106468D01*
X0159435Y0106486D01*
X0159502Y0106500D01*
X0159570Y0106510D01*
X0159638Y0106516D01*
X0159707Y0106518D01*
X0159776Y0106516D01*
X0159844Y0106510D01*
X0159912Y0106500D01*
X0159979Y0106486D01*
X0160046Y0106468D01*
X0160111Y0106447D01*
X0160175Y0106421D01*
X0160237Y0106392D01*
X0160297Y0106360D01*
X0160356Y0106324D01*
X0160412Y0106284D01*
X0160466Y0106242D01*
X0160517Y0106196D01*
X0160566Y0106147D01*
X0160612Y0106096D01*
X0160654Y0106042D01*
X0160694Y0105986D01*
X0160730Y0105927D01*
X0160762Y0105867D01*
X0160791Y0105805D01*
X0160817Y0105741D01*
X0160838Y0105676D01*
X0160856Y0105609D01*
X0160870Y0105542D01*
X0160880Y0105474D01*
X0160886Y0105406D01*
X0160888Y0105337D01*
X0160886Y0105268D01*
X0160880Y0105200D01*
X0160870Y0105132D01*
X0160856Y0105065D01*
X0160838Y0104998D01*
X0160817Y0104933D01*
X0160791Y0104869D01*
X0160762Y0104807D01*
X0160730Y0104746D01*
X0160694Y0104688D01*
X0160654Y0104632D01*
X0160612Y0104578D01*
X0160566Y0104527D01*
X0160517Y0104478D01*
X0160466Y0104432D01*
X0160412Y0104390D01*
X0160356Y0104350D01*
X0160298Y0104314D01*
X0160237Y0104282D01*
X0160175Y0104253D01*
X0160111Y0104227D01*
X0160046Y0104206D01*
X0159979Y0104188D01*
X0159912Y0104174D01*
X0159844Y0104164D01*
X0159776Y0104158D01*
X0159707Y0104156D01*
X0159638Y0104158D01*
X0159570Y0104164D01*
X0159502Y0104174D01*
X0159435Y0104188D01*
X0159368Y0104206D01*
X0159303Y0104227D01*
X0159239Y0104253D01*
X0159177Y0104282D01*
X0159116Y0104314D01*
X0159058Y0104350D01*
X0159002Y0104390D01*
X0158948Y0104432D01*
X0158897Y0104478D01*
X0158848Y0104527D01*
X0158802Y0104578D01*
X0158760Y0104632D01*
X0158720Y0104688D01*
X0158684Y0104746D01*
X0158652Y0104807D01*
X0158623Y0104869D01*
X0158597Y0104933D01*
X0158576Y0104998D01*
X0158558Y0105065D01*
X0158544Y0105132D01*
X0158534Y0105200D01*
X0158528Y0105268D01*
X0158526Y0105337D01*
X0181282Y0105337D02*
X0181284Y0105406D01*
X0181290Y0105474D01*
X0181300Y0105542D01*
X0181314Y0105609D01*
X0181332Y0105676D01*
X0181353Y0105741D01*
X0181379Y0105805D01*
X0181408Y0105867D01*
X0181440Y0105927D01*
X0181476Y0105986D01*
X0181516Y0106042D01*
X0181558Y0106096D01*
X0181604Y0106147D01*
X0181653Y0106196D01*
X0181704Y0106242D01*
X0181758Y0106284D01*
X0181814Y0106324D01*
X0181872Y0106360D01*
X0181933Y0106392D01*
X0181995Y0106421D01*
X0182059Y0106447D01*
X0182124Y0106468D01*
X0182191Y0106486D01*
X0182258Y0106500D01*
X0182326Y0106510D01*
X0182394Y0106516D01*
X0182463Y0106518D01*
X0182532Y0106516D01*
X0182600Y0106510D01*
X0182668Y0106500D01*
X0182735Y0106486D01*
X0182802Y0106468D01*
X0182867Y0106447D01*
X0182931Y0106421D01*
X0182993Y0106392D01*
X0183053Y0106360D01*
X0183112Y0106324D01*
X0183168Y0106284D01*
X0183222Y0106242D01*
X0183273Y0106196D01*
X0183322Y0106147D01*
X0183368Y0106096D01*
X0183410Y0106042D01*
X0183450Y0105986D01*
X0183486Y0105927D01*
X0183518Y0105867D01*
X0183547Y0105805D01*
X0183573Y0105741D01*
X0183594Y0105676D01*
X0183612Y0105609D01*
X0183626Y0105542D01*
X0183636Y0105474D01*
X0183642Y0105406D01*
X0183644Y0105337D01*
X0183642Y0105268D01*
X0183636Y0105200D01*
X0183626Y0105132D01*
X0183612Y0105065D01*
X0183594Y0104998D01*
X0183573Y0104933D01*
X0183547Y0104869D01*
X0183518Y0104807D01*
X0183486Y0104746D01*
X0183450Y0104688D01*
X0183410Y0104632D01*
X0183368Y0104578D01*
X0183322Y0104527D01*
X0183273Y0104478D01*
X0183222Y0104432D01*
X0183168Y0104390D01*
X0183112Y0104350D01*
X0183054Y0104314D01*
X0182993Y0104282D01*
X0182931Y0104253D01*
X0182867Y0104227D01*
X0182802Y0104206D01*
X0182735Y0104188D01*
X0182668Y0104174D01*
X0182600Y0104164D01*
X0182532Y0104158D01*
X0182463Y0104156D01*
X0182394Y0104158D01*
X0182326Y0104164D01*
X0182258Y0104174D01*
X0182191Y0104188D01*
X0182124Y0104206D01*
X0182059Y0104227D01*
X0181995Y0104253D01*
X0181933Y0104282D01*
X0181872Y0104314D01*
X0181814Y0104350D01*
X0181758Y0104390D01*
X0181704Y0104432D01*
X0181653Y0104478D01*
X0181604Y0104527D01*
X0181558Y0104578D01*
X0181516Y0104632D01*
X0181476Y0104688D01*
X0181440Y0104746D01*
X0181408Y0104807D01*
X0181379Y0104869D01*
X0181353Y0104933D01*
X0181332Y0104998D01*
X0181314Y0105065D01*
X0181300Y0105132D01*
X0181290Y0105200D01*
X0181284Y0105268D01*
X0181282Y0105337D01*
D29*
X0180534Y0109766D03*
X0183683Y0109766D03*
X0161636Y0109766D03*
X0158487Y0109766D03*
D30*
X0164195Y0109569D03*
X0166164Y0109569D03*
X0168132Y0109569D03*
X0170101Y0109569D03*
X0172069Y0109569D03*
X0174038Y0109569D03*
X0176006Y0109569D03*
X0177975Y0109569D03*
D31*
X0188093Y0109569D02*
X0188093Y0105042D01*
X0154077Y0105042D02*
X0154077Y0109569D01*
D32*
X0154077Y0092916D02*
X0154077Y0088782D01*
X0188093Y0088782D02*
X0188093Y0092916D01*
D33*
X0097660Y0099038D03*
X0094117Y0099038D03*
X0090573Y0099038D03*
X0087030Y0099038D03*
X0087030Y0103762D03*
X0090573Y0103762D03*
X0094117Y0103762D03*
X0097660Y0103762D03*
D34*
X0106518Y0102384D03*
X0106518Y0097266D03*
X0084077Y0107896D03*
X0084077Y0113014D03*
D35*
X0189983Y0141754D03*
D36*
X0189983Y0151754D03*
X0189983Y0161754D03*
X0189983Y0171754D03*
X0189983Y0181754D03*
X0189983Y0191754D03*
D37*
X0127384Y0123644D03*
X0127384Y0116164D03*
X0118723Y0119904D03*
D38*
X0117317Y0126641D02*
X0114194Y0126641D01*
X0114194Y0128452D01*
X0113828Y0129334D01*
X0113153Y0130009D01*
X0112271Y0130375D01*
X0091316Y0130375D01*
X0090434Y0130009D01*
X0089759Y0129334D01*
X0089394Y0128452D01*
X0089394Y0118182D01*
X0089129Y0117917D01*
X0088764Y0117035D01*
X0088764Y0117029D01*
X0088408Y0117029D01*
X0088408Y0113408D01*
X0088408Y0113408D01*
X0088408Y0117029D01*
X0086714Y0117029D01*
X0086256Y0116906D01*
X0085846Y0116669D01*
X0085511Y0116334D01*
X0085429Y0116192D01*
X0084077Y0116192D01*
X0082940Y0116192D01*
X0082940Y0142018D01*
X0083654Y0140854D01*
X0084661Y0139468D01*
X0085773Y0138166D01*
X0086984Y0136954D01*
X0088287Y0135842D01*
X0089673Y0134835D01*
X0091134Y0133940D01*
X0092660Y0133162D01*
X0094243Y0132506D01*
X0095872Y0131977D01*
X0097537Y0131577D01*
X0099229Y0131309D01*
X0100937Y0131175D01*
X0100994Y0131175D01*
X0100994Y0152175D01*
X0102594Y0152175D01*
X0102594Y0131175D01*
X0102650Y0131175D01*
X0104358Y0131309D01*
X0106050Y0131577D01*
X0107716Y0131977D01*
X0109345Y0132506D01*
X0110928Y0133162D01*
X0112454Y0133940D01*
X0113914Y0134835D01*
X0115300Y0135842D01*
X0116603Y0136954D01*
X0117814Y0138166D01*
X0118927Y0139468D01*
X0119934Y0140854D01*
X0120829Y0142315D01*
X0121606Y0143841D01*
X0121638Y0143917D01*
X0121638Y0141671D01*
X0121766Y0141361D01*
X0121638Y0141051D01*
X0121638Y0137340D01*
X0122003Y0136458D01*
X0122678Y0135783D01*
X0123560Y0135417D01*
X0128809Y0135417D01*
X0129065Y0134799D01*
X0130075Y0133789D01*
X0131394Y0133243D01*
X0132823Y0133243D01*
X0134143Y0133789D01*
X0135153Y0134799D01*
X0135549Y0135755D01*
X0136505Y0136151D01*
X0136630Y0136276D01*
X0136750Y0135986D01*
X0137757Y0134978D01*
X0139073Y0134433D01*
X0140498Y0134433D01*
X0141814Y0134978D01*
X0142739Y0135902D01*
X0143663Y0134978D01*
X0144979Y0134433D01*
X0146404Y0134433D01*
X0147720Y0134978D01*
X0148644Y0135902D01*
X0149568Y0134978D01*
X0150885Y0134433D01*
X0152309Y0134433D01*
X0153625Y0134978D01*
X0154550Y0135902D01*
X0155474Y0134978D01*
X0156790Y0134433D01*
X0158215Y0134433D01*
X0159531Y0134978D01*
X0160455Y0135902D01*
X0161379Y0134978D01*
X0162696Y0134433D01*
X0163954Y0134433D01*
X0163954Y0133914D01*
X0164002Y0133800D01*
X0163324Y0133800D01*
X0163178Y0133739D01*
X0162557Y0133997D01*
X0157960Y0133997D01*
X0157078Y0133631D01*
X0156843Y0133397D01*
X0155140Y0133397D01*
X0153082Y0133397D01*
X0152625Y0133274D01*
X0152214Y0133037D01*
X0151879Y0132702D01*
X0151642Y0132292D01*
X0151519Y0131834D01*
X0151519Y0130140D01*
X0151519Y0128554D01*
X0150769Y0128554D01*
X0150312Y0128432D01*
X0149901Y0128195D01*
X0149566Y0127860D01*
X0149329Y0127449D01*
X0149206Y0126991D01*
X0149206Y0124862D01*
X0152840Y0124862D01*
X0152840Y0124395D01*
X0149206Y0124395D01*
X0149206Y0122265D01*
X0149329Y0121808D01*
X0149566Y0121397D01*
X0149901Y0121062D01*
X0150312Y0120825D01*
X0150769Y0120702D01*
X0152543Y0120702D01*
X0152543Y0116867D01*
X0152903Y0115998D01*
X0152534Y0115106D01*
X0152534Y0113978D01*
X0151435Y0113523D01*
X0150123Y0112211D01*
X0149921Y0111723D01*
X0148754Y0111723D01*
X0149837Y0112806D01*
X0149881Y0112914D01*
X0150507Y0113539D01*
X0151054Y0114859D01*
X0151054Y0116287D01*
X0150507Y0117607D01*
X0150497Y0117617D01*
X0150660Y0118009D01*
X0150660Y0119437D01*
X0150113Y0120757D01*
X0149103Y0121767D01*
X0147783Y0122313D01*
X0146355Y0122313D01*
X0145932Y0122138D01*
X0145932Y0122769D01*
X0146460Y0122987D01*
X0147135Y0123663D01*
X0147501Y0124545D01*
X0147501Y0130224D01*
X0147135Y0131106D01*
X0146460Y0131781D01*
X0145578Y0132146D01*
X0140686Y0132146D01*
X0139804Y0131781D01*
X0139129Y0131106D01*
X0138764Y0130224D01*
X0138764Y0124545D01*
X0139129Y0123663D01*
X0139804Y0122987D01*
X0140332Y0122769D01*
X0140332Y0121764D01*
X0139804Y0121545D01*
X0139129Y0120870D01*
X0138764Y0119988D01*
X0138764Y0119948D01*
X0138245Y0119948D01*
X0138052Y0119868D01*
X0138052Y0119988D01*
X0137687Y0120870D01*
X0137011Y0121545D01*
X0136129Y0121910D01*
X0132540Y0121910D01*
X0132540Y0122281D01*
X0132881Y0122622D01*
X0136129Y0122622D01*
X0137011Y0122987D01*
X0137687Y0123663D01*
X0138052Y0124545D01*
X0138052Y0130224D01*
X0137687Y0131106D01*
X0137011Y0131781D01*
X0136129Y0132146D01*
X0132298Y0132146D01*
X0132175Y0132445D01*
X0131500Y0133120D01*
X0130618Y0133485D01*
X0125529Y0133485D01*
X0124647Y0133120D01*
X0124163Y0132636D01*
X0123945Y0132762D01*
X0123487Y0132885D01*
X0121417Y0132885D01*
X0121417Y0129193D01*
X0120950Y0129193D01*
X0120950Y0132885D01*
X0118880Y0132885D01*
X0118422Y0132762D01*
X0118011Y0132525D01*
X0117676Y0132190D01*
X0117439Y0131780D01*
X0117317Y0131322D01*
X0117317Y0129193D01*
X0120950Y0129193D01*
X0120950Y0128726D01*
X0117317Y0128726D01*
X0117317Y0126641D01*
X0117317Y0127682D02*
X0114194Y0127682D01*
X0113850Y0129281D02*
X0117317Y0129281D01*
X0117317Y0130879D02*
X0082940Y0130879D01*
X0082940Y0129281D02*
X0089737Y0129281D01*
X0089394Y0127682D02*
X0082940Y0127682D01*
X0082940Y0126084D02*
X0089394Y0126084D01*
X0089394Y0124485D02*
X0082940Y0124485D01*
X0082940Y0122887D02*
X0089394Y0122887D01*
X0089394Y0121288D02*
X0082940Y0121288D01*
X0082940Y0119690D02*
X0089394Y0119690D01*
X0089304Y0118091D02*
X0082940Y0118091D01*
X0082940Y0116493D02*
X0085670Y0116493D01*
X0084077Y0116192D02*
X0084077Y0113014D01*
X0084077Y0116192D01*
X0084077Y0114894D02*
X0084077Y0114894D01*
X0084077Y0113296D02*
X0084077Y0113296D01*
X0084077Y0113014D02*
X0084077Y0113014D01*
X0088408Y0114894D02*
X0088408Y0114894D01*
X0088408Y0116493D02*
X0088408Y0116493D01*
X0095901Y0111253D02*
X0096045Y0111214D01*
X0097660Y0111214D01*
X0099275Y0111214D01*
X0099733Y0111337D01*
X0100143Y0111574D01*
X0100478Y0111909D01*
X0100715Y0112319D01*
X0100838Y0112777D01*
X0100838Y0114786D01*
X0100838Y0115575D01*
X0105872Y0115575D01*
X0105552Y0115442D01*
X0104877Y0114767D01*
X0104512Y0113885D01*
X0104512Y0111148D01*
X0104484Y0111137D01*
X0103474Y0110127D01*
X0103302Y0109712D01*
X0102024Y0109712D01*
X0100995Y0109286D01*
X0099027Y0107317D01*
X0098846Y0107137D01*
X0097660Y0107137D01*
X0097660Y0103762D01*
X0097660Y0103762D01*
X0097660Y0107137D01*
X0097507Y0107137D01*
X0097507Y0109044D01*
X0097081Y0110073D01*
X0095901Y0111253D01*
X0097055Y0110099D02*
X0103463Y0110099D01*
X0104512Y0111697D02*
X0100266Y0111697D01*
X0100838Y0113296D02*
X0104512Y0113296D01*
X0105004Y0114894D02*
X0100838Y0114894D01*
X0100838Y0114786D02*
X0097660Y0114786D01*
X0097660Y0114786D01*
X0100838Y0114786D01*
X0097660Y0114786D02*
X0097660Y0111214D01*
X0097660Y0114786D01*
X0097660Y0114786D01*
X0097660Y0113296D02*
X0097660Y0113296D01*
X0097660Y0111697D02*
X0097660Y0111697D01*
X0097507Y0108500D02*
X0100210Y0108500D01*
X0097660Y0106902D02*
X0097660Y0106902D01*
X0097660Y0105303D02*
X0097660Y0105303D01*
X0111042Y0092515D02*
X0114947Y0092515D01*
X0115040Y0092739D02*
X0114748Y0092035D01*
X0114748Y0087930D01*
X0115040Y0087227D01*
X0114748Y0086523D01*
X0114748Y0082940D01*
X0108712Y0082940D01*
X0108712Y0084176D01*
X0108712Y0085692D01*
X0108589Y0086150D01*
X0108352Y0086560D01*
X0108017Y0086895D01*
X0107607Y0087132D01*
X0107149Y0087255D01*
X0104845Y0087255D01*
X0104845Y0084176D01*
X0104845Y0084176D01*
X0104845Y0087255D01*
X0102541Y0087255D01*
X0102083Y0087132D01*
X0101673Y0086895D01*
X0101338Y0086560D01*
X0101101Y0086150D01*
X0100978Y0085692D01*
X0100978Y0084176D01*
X0104845Y0084176D01*
X0108712Y0084176D01*
X0104845Y0084176D01*
X0104845Y0084176D01*
X0104845Y0084176D01*
X0100978Y0084176D01*
X0100978Y0082940D01*
X0092373Y0082940D01*
X0092373Y0084176D01*
X0092373Y0085692D01*
X0092251Y0086150D01*
X0092014Y0086560D01*
X0091678Y0086895D01*
X0091268Y0087132D01*
X0090810Y0087255D01*
X0088506Y0087255D01*
X0086202Y0087255D01*
X0085745Y0087132D01*
X0085334Y0086895D01*
X0084999Y0086560D01*
X0084762Y0086150D01*
X0084639Y0085692D01*
X0084639Y0084176D01*
X0088506Y0084176D01*
X0088506Y0087255D01*
X0088506Y0084176D01*
X0088506Y0084176D01*
X0088506Y0084176D01*
X0084639Y0084176D01*
X0084639Y0082940D01*
X0082940Y0082940D01*
X0082940Y0102121D01*
X0083672Y0101388D01*
X0083755Y0101354D01*
X0083646Y0101090D01*
X0083646Y0096986D01*
X0084011Y0096103D01*
X0084620Y0095494D01*
X0084405Y0095279D01*
X0084039Y0094397D01*
X0084039Y0090883D01*
X0084405Y0090001D01*
X0085080Y0089326D01*
X0085962Y0088961D01*
X0091051Y0088961D01*
X0091933Y0089326D01*
X0092447Y0089840D01*
X0100904Y0089840D01*
X0101418Y0089326D01*
X0102301Y0088961D01*
X0107389Y0088961D01*
X0108271Y0089326D01*
X0108946Y0090001D01*
X0109242Y0090716D01*
X0111254Y0092727D01*
X0112041Y0093515D01*
X0112468Y0094544D01*
X0112468Y0097091D01*
X0114010Y0098633D01*
X0114748Y0099371D01*
X0114748Y0098954D01*
X0115040Y0098250D01*
X0114748Y0097547D01*
X0114748Y0093442D01*
X0115040Y0092739D01*
X0114748Y0094114D02*
X0112290Y0094114D01*
X0112468Y0095712D02*
X0114748Y0095712D01*
X0114748Y0097311D02*
X0112688Y0097311D01*
X0114286Y0098909D02*
X0114767Y0098909D01*
X0114748Y0090917D02*
X0109443Y0090917D01*
X0108252Y0089318D02*
X0114748Y0089318D01*
X0114835Y0087720D02*
X0082940Y0087720D01*
X0082940Y0089318D02*
X0085099Y0089318D01*
X0084039Y0090917D02*
X0082940Y0090917D01*
X0082940Y0092515D02*
X0084039Y0092515D01*
X0084039Y0094114D02*
X0082940Y0094114D01*
X0082940Y0095712D02*
X0084402Y0095712D01*
X0083646Y0097311D02*
X0082940Y0097311D01*
X0082940Y0098909D02*
X0083646Y0098909D01*
X0083646Y0100508D02*
X0082940Y0100508D01*
X0082940Y0102106D02*
X0082954Y0102106D01*
X0091914Y0089318D02*
X0101437Y0089318D01*
X0101093Y0086121D02*
X0092258Y0086121D01*
X0092373Y0084523D02*
X0100978Y0084523D01*
X0104845Y0084523D02*
X0104845Y0084523D01*
X0104845Y0086121D02*
X0104845Y0086121D01*
X0108597Y0086121D02*
X0114748Y0086121D01*
X0114748Y0084523D02*
X0108712Y0084523D01*
X0092373Y0084176D02*
X0088506Y0084176D01*
X0088506Y0084176D01*
X0092373Y0084176D01*
X0088506Y0084523D02*
X0088506Y0084523D01*
X0088506Y0086121D02*
X0088506Y0086121D01*
X0084754Y0086121D02*
X0082940Y0086121D01*
X0082940Y0084523D02*
X0084639Y0084523D01*
X0125551Y0110222D02*
X0125551Y0110689D01*
X0129184Y0110689D01*
X0129184Y0112395D01*
X0130377Y0112395D01*
X0130835Y0112518D01*
X0130870Y0112538D01*
X0131238Y0112386D01*
X0134590Y0112386D01*
X0134590Y0111636D01*
X0134590Y0110847D01*
X0133672Y0110467D01*
X0132885Y0109679D01*
X0132524Y0109318D01*
X0129184Y0109318D01*
X0129184Y0110222D01*
X0125551Y0110222D01*
X0129184Y0110099D02*
X0133304Y0110099D01*
X0134590Y0111636D02*
X0138211Y0111636D01*
X0138211Y0111636D01*
X0134590Y0111636D01*
X0134590Y0111697D02*
X0129184Y0111697D01*
X0129315Y0115980D02*
X0127569Y0115980D01*
X0127569Y0116348D01*
X0129315Y0116348D01*
X0129315Y0115980D01*
X0137268Y0121288D02*
X0139548Y0121288D01*
X0140047Y0122887D02*
X0136769Y0122887D01*
X0138027Y0124485D02*
X0138788Y0124485D01*
X0138764Y0126084D02*
X0138052Y0126084D01*
X0138052Y0127682D02*
X0138764Y0127682D01*
X0138764Y0129281D02*
X0138052Y0129281D01*
X0137780Y0130879D02*
X0139035Y0130879D01*
X0137061Y0135675D02*
X0135515Y0135675D01*
X0134430Y0134076D02*
X0163954Y0134076D01*
X0160683Y0135675D02*
X0160228Y0135675D01*
X0154777Y0135675D02*
X0154322Y0135675D01*
X0155140Y0133397D02*
X0155140Y0130140D01*
X0151519Y0130140D01*
X0155140Y0130140D01*
X0155140Y0130140D01*
X0155140Y0130140D01*
X0155140Y0133397D01*
X0155140Y0132478D02*
X0155140Y0132478D01*
X0155140Y0130879D02*
X0155140Y0130879D01*
X0151519Y0130879D02*
X0147229Y0130879D01*
X0147501Y0129281D02*
X0151519Y0129281D01*
X0149464Y0127682D02*
X0147501Y0127682D01*
X0147501Y0126084D02*
X0149206Y0126084D01*
X0147476Y0124485D02*
X0152840Y0124485D01*
X0149206Y0122887D02*
X0146217Y0122887D01*
X0149582Y0121288D02*
X0149675Y0121288D01*
X0150555Y0119690D02*
X0152543Y0119690D01*
X0152543Y0118091D02*
X0150660Y0118091D01*
X0150968Y0116493D02*
X0152698Y0116493D01*
X0152534Y0114894D02*
X0151054Y0114894D01*
X0151208Y0113296D02*
X0150263Y0113296D01*
X0166176Y0115829D02*
X0166176Y0119523D01*
X0166939Y0119523D01*
X0166939Y0115412D01*
X0166766Y0115585D01*
X0166176Y0115829D01*
X0166176Y0116493D02*
X0166939Y0116493D01*
X0166939Y0118091D02*
X0166176Y0118091D01*
X0174869Y0114669D02*
X0175696Y0114669D01*
X0176578Y0115035D01*
X0177254Y0115710D01*
X0177619Y0116592D01*
X0177619Y0120313D01*
X0178971Y0121664D01*
X0179397Y0122693D01*
X0179397Y0125369D01*
X0179673Y0125369D01*
X0180993Y0125915D01*
X0181598Y0126520D01*
X0181885Y0125828D01*
X0182368Y0125345D01*
X0182242Y0125126D01*
X0182120Y0124668D01*
X0182120Y0122598D01*
X0185812Y0122598D01*
X0185812Y0122131D01*
X0182120Y0122131D01*
X0182120Y0120061D01*
X0182242Y0119603D01*
X0182479Y0119192D01*
X0182814Y0118857D01*
X0183225Y0118620D01*
X0183683Y0118498D01*
X0183829Y0118498D01*
X0183314Y0117983D01*
X0182969Y0117983D01*
X0181650Y0117436D01*
X0180640Y0116426D01*
X0180093Y0115106D01*
X0180093Y0114233D01*
X0174869Y0114233D01*
X0174869Y0114669D01*
X0176240Y0114894D02*
X0180093Y0114894D01*
X0180706Y0116493D02*
X0177578Y0116493D01*
X0177619Y0118091D02*
X0183423Y0118091D01*
X0182219Y0119690D02*
X0177619Y0119690D01*
X0178595Y0121288D02*
X0182120Y0121288D01*
X0182120Y0122887D02*
X0179397Y0122887D01*
X0179397Y0124485D02*
X0182120Y0124485D01*
X0181779Y0126084D02*
X0181162Y0126084D01*
X0186279Y0122598D02*
X0187907Y0122598D01*
X0187907Y0122463D01*
X0191164Y0122463D01*
X0194420Y0122463D01*
X0194420Y0124521D01*
X0194298Y0124979D01*
X0194061Y0125389D01*
X0193726Y0125724D01*
X0193315Y0125961D01*
X0192857Y0126084D01*
X0191164Y0126084D01*
X0191164Y0122463D01*
X0191164Y0122463D01*
X0194420Y0122463D01*
X0194420Y0120760D01*
X0194655Y0120525D01*
X0195020Y0119643D01*
X0195020Y0115047D01*
X0194655Y0114165D01*
X0193980Y0113489D01*
X0193098Y0113124D01*
X0191134Y0113124D01*
X0192047Y0112211D01*
X0192757Y0110497D01*
X0192757Y0104430D01*
X0193645Y0104430D01*
X0194103Y0104308D01*
X0194513Y0104071D01*
X0194848Y0103736D01*
X0195085Y0103325D01*
X0195208Y0102867D01*
X0195208Y0100809D01*
X0191951Y0100809D01*
X0191951Y0100809D01*
X0195208Y0100809D01*
X0195208Y0099106D01*
X0195442Y0098872D01*
X0195450Y0098853D01*
X0195450Y0150190D01*
X0194773Y0148554D01*
X0193183Y0146964D01*
X0192796Y0146804D01*
X0193470Y0146804D01*
X0193927Y0146682D01*
X0194338Y0146445D01*
X0194673Y0146110D01*
X0194910Y0145699D01*
X0195033Y0145241D01*
X0195033Y0141829D01*
X0190058Y0141829D01*
X0190058Y0141679D01*
X0195033Y0141679D01*
X0195033Y0138267D01*
X0194910Y0137810D01*
X0194673Y0137399D01*
X0194338Y0137064D01*
X0193927Y0136827D01*
X0193470Y0136704D01*
X0190058Y0136704D01*
X0190058Y0141679D01*
X0189908Y0141679D01*
X0189908Y0136704D01*
X0187198Y0136704D01*
X0187096Y0136458D01*
X0186421Y0135783D01*
X0186035Y0135623D01*
X0186727Y0134930D01*
X0187228Y0133721D01*
X0188649Y0133721D01*
X0189531Y0133356D01*
X0190206Y0132681D01*
X0190572Y0131799D01*
X0190572Y0126710D01*
X0190312Y0126084D01*
X0195450Y0126084D01*
X0195450Y0127682D02*
X0190572Y0127682D01*
X0190572Y0129281D02*
X0195450Y0129281D01*
X0195450Y0130879D02*
X0190572Y0130879D01*
X0190290Y0132478D02*
X0195450Y0132478D01*
X0195450Y0134076D02*
X0187081Y0134076D01*
X0186161Y0135675D02*
X0195450Y0135675D01*
X0195450Y0137273D02*
X0194547Y0137273D01*
X0195033Y0138872D02*
X0195450Y0138872D01*
X0195450Y0140470D02*
X0195033Y0140470D01*
X0195033Y0142069D02*
X0195450Y0142069D01*
X0195450Y0143668D02*
X0195033Y0143668D01*
X0195026Y0145266D02*
X0195450Y0145266D01*
X0195450Y0146865D02*
X0192942Y0146865D01*
X0194682Y0148463D02*
X0195450Y0148463D01*
X0195397Y0150062D02*
X0195450Y0150062D01*
X0190058Y0140470D02*
X0189908Y0140470D01*
X0189908Y0138872D02*
X0190058Y0138872D01*
X0190058Y0137273D02*
X0189908Y0137273D01*
X0190312Y0126084D02*
X0191164Y0126084D01*
X0191164Y0122463D01*
X0191164Y0122463D01*
X0187907Y0122463D01*
X0187907Y0122131D01*
X0186279Y0122131D01*
X0186279Y0122598D01*
X0191164Y0122463D02*
X0191164Y0122463D01*
X0191164Y0122887D02*
X0191164Y0122887D01*
X0191164Y0124485D02*
X0191164Y0124485D01*
X0194420Y0124485D02*
X0195450Y0124485D01*
X0195450Y0122887D02*
X0194420Y0122887D01*
X0194420Y0121288D02*
X0195450Y0121288D01*
X0195450Y0119690D02*
X0195001Y0119690D01*
X0195020Y0118091D02*
X0195450Y0118091D01*
X0195450Y0116493D02*
X0195020Y0116493D01*
X0194957Y0114894D02*
X0195450Y0114894D01*
X0195450Y0113296D02*
X0193513Y0113296D01*
X0192259Y0111697D02*
X0195450Y0111697D01*
X0195450Y0110099D02*
X0192757Y0110099D01*
X0192757Y0108500D02*
X0195450Y0108500D01*
X0195450Y0106902D02*
X0192757Y0106902D01*
X0192757Y0105303D02*
X0195450Y0105303D01*
X0195450Y0103705D02*
X0194866Y0103705D01*
X0195208Y0102106D02*
X0195450Y0102106D01*
X0195450Y0100508D02*
X0195208Y0100508D01*
X0195405Y0098909D02*
X0195450Y0098909D01*
X0195450Y0092530D02*
X0195450Y0082940D01*
X0138446Y0082940D01*
X0138446Y0084486D01*
X0141875Y0087915D01*
X0141891Y0087899D01*
X0142773Y0087533D01*
X0146641Y0087533D01*
X0147523Y0087899D01*
X0147758Y0088133D01*
X0149431Y0088133D01*
X0149431Y0091754D01*
X0149432Y0091754D01*
X0149432Y0088133D01*
X0149610Y0088133D01*
X0149610Y0087893D01*
X0150290Y0086252D01*
X0151547Y0084995D01*
X0153189Y0084315D01*
X0154966Y0084315D01*
X0156607Y0084995D01*
X0157864Y0086252D01*
X0158544Y0087893D01*
X0158544Y0093804D01*
X0157864Y0095446D01*
X0156877Y0096433D01*
X0156877Y0096631D01*
X0180776Y0096631D01*
X0181805Y0097058D01*
X0182593Y0097845D01*
X0185293Y0100546D01*
X0185293Y0096433D01*
X0184306Y0095446D01*
X0183626Y0093804D01*
X0183626Y0087893D01*
X0184306Y0086252D01*
X0185563Y0084995D01*
X0187204Y0084315D01*
X0188981Y0084315D01*
X0190623Y0084995D01*
X0191880Y0086252D01*
X0192560Y0087893D01*
X0192560Y0091470D01*
X0193885Y0091470D01*
X0194767Y0091836D01*
X0195442Y0092511D01*
X0195450Y0092530D01*
X0195450Y0092515D02*
X0195444Y0092515D01*
X0195450Y0090917D02*
X0192560Y0090917D01*
X0192560Y0089318D02*
X0195450Y0089318D01*
X0195450Y0087720D02*
X0192488Y0087720D01*
X0191749Y0086121D02*
X0195450Y0086121D01*
X0195450Y0084523D02*
X0189483Y0084523D01*
X0186703Y0084523D02*
X0155467Y0084523D01*
X0157734Y0086121D02*
X0184437Y0086121D01*
X0183698Y0087720D02*
X0158472Y0087720D01*
X0158544Y0089318D02*
X0183626Y0089318D01*
X0183626Y0090917D02*
X0158544Y0090917D01*
X0158544Y0092515D02*
X0183626Y0092515D01*
X0183754Y0094114D02*
X0158416Y0094114D01*
X0157598Y0095712D02*
X0184572Y0095712D01*
X0185293Y0097311D02*
X0182058Y0097311D01*
X0182593Y0097845D02*
X0182593Y0097845D01*
X0183656Y0098909D02*
X0185293Y0098909D01*
X0185255Y0100508D02*
X0185293Y0100508D01*
X0152687Y0084523D02*
X0138482Y0084523D01*
X0140081Y0086121D02*
X0150421Y0086121D01*
X0149682Y0087720D02*
X0147091Y0087720D01*
X0149431Y0089318D02*
X0149432Y0089318D01*
X0149431Y0090917D02*
X0149432Y0090917D01*
X0142324Y0087720D02*
X0141679Y0087720D01*
X0121417Y0129281D02*
X0120950Y0129281D01*
X0120950Y0130879D02*
X0121417Y0130879D01*
X0121417Y0132478D02*
X0120950Y0132478D01*
X0117964Y0132478D02*
X0109257Y0132478D01*
X0112677Y0134076D02*
X0129787Y0134076D01*
X0132141Y0132478D02*
X0151750Y0132478D01*
X0148872Y0135675D02*
X0148417Y0135675D01*
X0142966Y0135675D02*
X0142511Y0135675D01*
X0122938Y0135675D02*
X0115071Y0135675D01*
X0116922Y0137273D02*
X0121665Y0137273D01*
X0121638Y0138872D02*
X0118418Y0138872D01*
X0119655Y0140470D02*
X0121638Y0140470D01*
X0121638Y0142069D02*
X0120678Y0142069D01*
X0121518Y0143668D02*
X0121638Y0143668D01*
X0102594Y0143668D02*
X0100994Y0143668D01*
X0100994Y0145266D02*
X0102594Y0145266D01*
X0102594Y0146865D02*
X0100994Y0146865D01*
X0100994Y0148463D02*
X0102594Y0148463D01*
X0102594Y0150062D02*
X0100994Y0150062D01*
X0100994Y0151660D02*
X0102594Y0151660D01*
X0102594Y0153775D02*
X0100994Y0153775D01*
X0100994Y0174775D01*
X0100937Y0174775D01*
X0099229Y0174640D01*
X0097537Y0174372D01*
X0095872Y0173973D01*
X0094243Y0173443D01*
X0092660Y0172788D01*
X0091134Y0172010D01*
X0089673Y0171115D01*
X0088287Y0170108D01*
X0086984Y0168995D01*
X0085773Y0167784D01*
X0084661Y0166481D01*
X0083654Y0165096D01*
X0082940Y0163931D01*
X0082940Y0195450D01*
X0093694Y0195450D01*
X0093694Y0194609D01*
X0096577Y0194609D01*
X0096577Y0194609D01*
X0099460Y0194609D01*
X0099460Y0195450D01*
X0103528Y0195450D01*
X0103528Y0190375D01*
X0099460Y0190375D01*
X0099460Y0191656D01*
X0099460Y0192976D01*
X0099418Y0193132D01*
X0099460Y0193289D01*
X0099460Y0194609D01*
X0096577Y0194609D01*
X0096577Y0194609D01*
X0093694Y0194609D01*
X0093694Y0193289D01*
X0093736Y0193132D01*
X0093694Y0192976D01*
X0093694Y0191656D01*
X0096577Y0191656D01*
X0096577Y0191656D01*
X0096577Y0194539D01*
X0096577Y0194609D01*
X0096577Y0194609D01*
X0096577Y0191656D01*
X0096577Y0191656D01*
X0093694Y0191656D01*
X0093694Y0190375D01*
X0091316Y0190375D01*
X0090434Y0190009D01*
X0089759Y0189334D01*
X0089394Y0188452D01*
X0089394Y0177497D01*
X0089759Y0176615D01*
X0090434Y0175940D01*
X0091316Y0175575D01*
X0112271Y0175575D01*
X0113153Y0175940D01*
X0113828Y0176615D01*
X0114194Y0177497D01*
X0114194Y0188452D01*
X0114026Y0188856D01*
X0114709Y0188856D01*
X0114739Y0188826D01*
X0114739Y0188481D01*
X0115285Y0187161D01*
X0115573Y0186873D01*
X0115573Y0169875D01*
X0115300Y0170108D01*
X0113914Y0171115D01*
X0112454Y0172010D01*
X0110928Y0172788D01*
X0109345Y0173443D01*
X0107716Y0173973D01*
X0106050Y0174372D01*
X0104358Y0174640D01*
X0102650Y0174775D01*
X0102594Y0174775D01*
X0102594Y0153775D01*
X0102594Y0154857D02*
X0100994Y0154857D01*
X0100994Y0156456D02*
X0102594Y0156456D01*
X0102594Y0158054D02*
X0100994Y0158054D01*
X0100994Y0159653D02*
X0102594Y0159653D01*
X0102594Y0161251D02*
X0100994Y0161251D01*
X0100994Y0162850D02*
X0102594Y0162850D01*
X0102594Y0164448D02*
X0100994Y0164448D01*
X0100994Y0166047D02*
X0102594Y0166047D01*
X0102594Y0167645D02*
X0100994Y0167645D01*
X0100994Y0169244D02*
X0102594Y0169244D01*
X0102594Y0170842D02*
X0100994Y0170842D01*
X0100994Y0172441D02*
X0102594Y0172441D01*
X0102594Y0174039D02*
X0100994Y0174039D01*
X0096150Y0174039D02*
X0082940Y0174039D01*
X0082940Y0172441D02*
X0091979Y0172441D01*
X0089298Y0170842D02*
X0082940Y0170842D01*
X0082940Y0169244D02*
X0087275Y0169244D01*
X0085655Y0167645D02*
X0082940Y0167645D01*
X0082940Y0166047D02*
X0084345Y0166047D01*
X0083257Y0164448D02*
X0082940Y0164448D01*
X0082940Y0175638D02*
X0091164Y0175638D01*
X0089502Y0177236D02*
X0082940Y0177236D01*
X0082940Y0178835D02*
X0089394Y0178835D01*
X0089394Y0180433D02*
X0082940Y0180433D01*
X0082940Y0182032D02*
X0089394Y0182032D01*
X0089394Y0183630D02*
X0082940Y0183630D01*
X0082940Y0185229D02*
X0089394Y0185229D01*
X0089394Y0186827D02*
X0082940Y0186827D01*
X0082940Y0188426D02*
X0089394Y0188426D01*
X0090470Y0190024D02*
X0082940Y0190024D01*
X0082940Y0191623D02*
X0093694Y0191623D01*
X0093713Y0193221D02*
X0082940Y0193221D01*
X0082940Y0194820D02*
X0093694Y0194820D01*
X0096577Y0193221D02*
X0096577Y0193221D01*
X0096577Y0191656D02*
X0099460Y0191656D01*
X0096577Y0191656D01*
X0096577Y0191656D01*
X0099460Y0191623D02*
X0103528Y0191623D01*
X0103528Y0193221D02*
X0099442Y0193221D01*
X0099460Y0194820D02*
X0103528Y0194820D01*
X0114194Y0188426D02*
X0114761Y0188426D01*
X0114194Y0186827D02*
X0115573Y0186827D01*
X0115573Y0185229D02*
X0114194Y0185229D01*
X0114194Y0183630D02*
X0115573Y0183630D01*
X0115573Y0182032D02*
X0114194Y0182032D01*
X0114194Y0180433D02*
X0115573Y0180433D01*
X0115573Y0178835D02*
X0114194Y0178835D01*
X0114086Y0177236D02*
X0115573Y0177236D01*
X0115573Y0175638D02*
X0112423Y0175638D01*
X0115573Y0174039D02*
X0107438Y0174039D01*
X0111608Y0172441D02*
X0115573Y0172441D01*
X0115573Y0170842D02*
X0114290Y0170842D01*
X0102594Y0142069D02*
X0100994Y0142069D01*
X0100994Y0140470D02*
X0102594Y0140470D01*
X0102594Y0138872D02*
X0100994Y0138872D01*
X0100994Y0137273D02*
X0102594Y0137273D01*
X0102594Y0135675D02*
X0100994Y0135675D01*
X0100994Y0134076D02*
X0102594Y0134076D01*
X0102594Y0132478D02*
X0100994Y0132478D01*
X0094330Y0132478D02*
X0082940Y0132478D01*
X0082940Y0134076D02*
X0090910Y0134076D01*
X0088517Y0135675D02*
X0082940Y0135675D01*
X0082940Y0137273D02*
X0086665Y0137273D01*
X0085170Y0138872D02*
X0082940Y0138872D01*
X0082940Y0140470D02*
X0083932Y0140470D01*
D39*
X0085258Y0137620D03*
X0082896Y0131321D03*
X0088802Y0131321D03*
X0095494Y0131321D03*
X0101794Y0131321D03*
X0108880Y0131321D03*
X0114392Y0133290D03*
X0117935Y0137620D03*
X0121085Y0133290D03*
X0132109Y0136833D03*
X0134471Y0139195D03*
X0134471Y0142345D03*
X0137227Y0154550D03*
X0154550Y0146676D03*
X0160849Y0139983D03*
X0166361Y0148644D03*
X0172266Y0148644D03*
X0172266Y0143920D03*
X0180534Y0131715D03*
X0178959Y0128959D03*
X0183683Y0132896D03*
X0180928Y0124235D03*
X0179353Y0118723D03*
X0183683Y0114392D03*
X0188014Y0114392D03*
X0195101Y0111636D03*
X0195101Y0101006D03*
X0195101Y0089589D03*
X0190770Y0084471D03*
X0182896Y0084471D03*
X0175022Y0084471D03*
X0167148Y0084471D03*
X0159274Y0084471D03*
X0163211Y0094707D03*
X0156912Y0101794D03*
X0151400Y0101794D03*
X0149431Y0111636D03*
X0147463Y0115573D03*
X0147069Y0118723D03*
X0137620Y0115967D03*
X0132896Y0122266D03*
X0129746Y0111636D03*
X0123054Y0115967D03*
X0112424Y0104156D03*
X0109668Y0107699D03*
X0106518Y0108093D03*
X0102975Y0114786D03*
X0097857Y0107306D03*
X0092345Y0107306D03*
X0083290Y0095494D03*
X0086439Y0088408D03*
X0096676Y0088408D03*
X0102975Y0096282D03*
X0107306Y0088408D03*
X0138014Y0091951D03*
X0138014Y0095494D03*
X0138014Y0099825D03*
X0138802Y0102975D03*
X0136833Y0105731D03*
X0156124Y0114392D03*
X0166754Y0115573D03*
X0167345Y0105337D03*
X0172069Y0105337D03*
X0171085Y0094707D03*
X0178959Y0094707D03*
X0195101Y0123447D03*
X0195101Y0135258D03*
X0195101Y0147069D03*
X0176597Y0156912D03*
X0176597Y0162030D03*
X0166361Y0160061D03*
X0184077Y0173054D03*
X0146282Y0132896D03*
X0114392Y0175022D03*
X0114392Y0186439D03*
X0118329Y0189195D03*
X0101794Y0175022D03*
X0088802Y0175022D03*
X0088802Y0186439D03*
X0083290Y0195101D03*
X0082896Y0122266D03*
X0088802Y0122266D03*
D40*
X0143132Y0117148D02*
X0143132Y0115967D01*
X0158979Y0174235D02*
X0167837Y0174235D01*
M02*
