G75*
%MOIN*%
%OFA0B0*%
%FSLAX25Y25*%
%IPPOS*%
%LPD*%
%AMOC8*
5,1,8,0,0,1.08239X$1,22.5*
%
%ADD10C,0.00000*%
%ADD11C,0.00500*%
D10*
X0022622Y0058041D02*
X0022622Y0210541D01*
X0112622Y0210541D01*
X0112622Y0058041D01*
X0022622Y0058041D01*
X0056795Y0070541D02*
X0056797Y0070629D01*
X0056803Y0070717D01*
X0056813Y0070805D01*
X0056827Y0070893D01*
X0056844Y0070979D01*
X0056866Y0071065D01*
X0056891Y0071149D01*
X0056921Y0071233D01*
X0056953Y0071315D01*
X0056990Y0071395D01*
X0057030Y0071474D01*
X0057074Y0071551D01*
X0057121Y0071626D01*
X0057171Y0071698D01*
X0057225Y0071769D01*
X0057281Y0071836D01*
X0057341Y0071902D01*
X0057403Y0071964D01*
X0057469Y0072024D01*
X0057536Y0072080D01*
X0057607Y0072134D01*
X0057679Y0072184D01*
X0057754Y0072231D01*
X0057831Y0072275D01*
X0057910Y0072315D01*
X0057990Y0072352D01*
X0058072Y0072384D01*
X0058156Y0072414D01*
X0058240Y0072439D01*
X0058326Y0072461D01*
X0058412Y0072478D01*
X0058500Y0072492D01*
X0058588Y0072502D01*
X0058676Y0072508D01*
X0058764Y0072510D01*
X0058852Y0072508D01*
X0058940Y0072502D01*
X0059028Y0072492D01*
X0059116Y0072478D01*
X0059202Y0072461D01*
X0059288Y0072439D01*
X0059372Y0072414D01*
X0059456Y0072384D01*
X0059538Y0072352D01*
X0059618Y0072315D01*
X0059697Y0072275D01*
X0059774Y0072231D01*
X0059849Y0072184D01*
X0059921Y0072134D01*
X0059992Y0072080D01*
X0060059Y0072024D01*
X0060125Y0071964D01*
X0060187Y0071902D01*
X0060247Y0071836D01*
X0060303Y0071769D01*
X0060357Y0071698D01*
X0060407Y0071626D01*
X0060454Y0071551D01*
X0060498Y0071474D01*
X0060538Y0071395D01*
X0060575Y0071315D01*
X0060607Y0071233D01*
X0060637Y0071149D01*
X0060662Y0071065D01*
X0060684Y0070979D01*
X0060701Y0070893D01*
X0060715Y0070805D01*
X0060725Y0070717D01*
X0060731Y0070629D01*
X0060733Y0070541D01*
X0060731Y0070453D01*
X0060725Y0070365D01*
X0060715Y0070277D01*
X0060701Y0070189D01*
X0060684Y0070103D01*
X0060662Y0070017D01*
X0060637Y0069933D01*
X0060607Y0069849D01*
X0060575Y0069767D01*
X0060538Y0069687D01*
X0060498Y0069608D01*
X0060454Y0069531D01*
X0060407Y0069456D01*
X0060357Y0069384D01*
X0060303Y0069313D01*
X0060247Y0069246D01*
X0060187Y0069180D01*
X0060125Y0069118D01*
X0060059Y0069058D01*
X0059992Y0069002D01*
X0059921Y0068948D01*
X0059849Y0068898D01*
X0059774Y0068851D01*
X0059697Y0068807D01*
X0059618Y0068767D01*
X0059538Y0068730D01*
X0059456Y0068698D01*
X0059372Y0068668D01*
X0059288Y0068643D01*
X0059202Y0068621D01*
X0059116Y0068604D01*
X0059028Y0068590D01*
X0058940Y0068580D01*
X0058852Y0068574D01*
X0058764Y0068572D01*
X0058676Y0068574D01*
X0058588Y0068580D01*
X0058500Y0068590D01*
X0058412Y0068604D01*
X0058326Y0068621D01*
X0058240Y0068643D01*
X0058156Y0068668D01*
X0058072Y0068698D01*
X0057990Y0068730D01*
X0057910Y0068767D01*
X0057831Y0068807D01*
X0057754Y0068851D01*
X0057679Y0068898D01*
X0057607Y0068948D01*
X0057536Y0069002D01*
X0057469Y0069058D01*
X0057403Y0069118D01*
X0057341Y0069180D01*
X0057281Y0069246D01*
X0057225Y0069313D01*
X0057171Y0069384D01*
X0057121Y0069456D01*
X0057074Y0069531D01*
X0057030Y0069608D01*
X0056990Y0069687D01*
X0056953Y0069767D01*
X0056921Y0069849D01*
X0056891Y0069933D01*
X0056866Y0070017D01*
X0056844Y0070103D01*
X0056827Y0070189D01*
X0056813Y0070277D01*
X0056803Y0070365D01*
X0056797Y0070453D01*
X0056795Y0070541D01*
X0074511Y0070541D02*
X0074513Y0070629D01*
X0074519Y0070717D01*
X0074529Y0070805D01*
X0074543Y0070893D01*
X0074560Y0070979D01*
X0074582Y0071065D01*
X0074607Y0071149D01*
X0074637Y0071233D01*
X0074669Y0071315D01*
X0074706Y0071395D01*
X0074746Y0071474D01*
X0074790Y0071551D01*
X0074837Y0071626D01*
X0074887Y0071698D01*
X0074941Y0071769D01*
X0074997Y0071836D01*
X0075057Y0071902D01*
X0075119Y0071964D01*
X0075185Y0072024D01*
X0075252Y0072080D01*
X0075323Y0072134D01*
X0075395Y0072184D01*
X0075470Y0072231D01*
X0075547Y0072275D01*
X0075626Y0072315D01*
X0075706Y0072352D01*
X0075788Y0072384D01*
X0075872Y0072414D01*
X0075956Y0072439D01*
X0076042Y0072461D01*
X0076128Y0072478D01*
X0076216Y0072492D01*
X0076304Y0072502D01*
X0076392Y0072508D01*
X0076480Y0072510D01*
X0076568Y0072508D01*
X0076656Y0072502D01*
X0076744Y0072492D01*
X0076832Y0072478D01*
X0076918Y0072461D01*
X0077004Y0072439D01*
X0077088Y0072414D01*
X0077172Y0072384D01*
X0077254Y0072352D01*
X0077334Y0072315D01*
X0077413Y0072275D01*
X0077490Y0072231D01*
X0077565Y0072184D01*
X0077637Y0072134D01*
X0077708Y0072080D01*
X0077775Y0072024D01*
X0077841Y0071964D01*
X0077903Y0071902D01*
X0077963Y0071836D01*
X0078019Y0071769D01*
X0078073Y0071698D01*
X0078123Y0071626D01*
X0078170Y0071551D01*
X0078214Y0071474D01*
X0078254Y0071395D01*
X0078291Y0071315D01*
X0078323Y0071233D01*
X0078353Y0071149D01*
X0078378Y0071065D01*
X0078400Y0070979D01*
X0078417Y0070893D01*
X0078431Y0070805D01*
X0078441Y0070717D01*
X0078447Y0070629D01*
X0078449Y0070541D01*
X0078447Y0070453D01*
X0078441Y0070365D01*
X0078431Y0070277D01*
X0078417Y0070189D01*
X0078400Y0070103D01*
X0078378Y0070017D01*
X0078353Y0069933D01*
X0078323Y0069849D01*
X0078291Y0069767D01*
X0078254Y0069687D01*
X0078214Y0069608D01*
X0078170Y0069531D01*
X0078123Y0069456D01*
X0078073Y0069384D01*
X0078019Y0069313D01*
X0077963Y0069246D01*
X0077903Y0069180D01*
X0077841Y0069118D01*
X0077775Y0069058D01*
X0077708Y0069002D01*
X0077637Y0068948D01*
X0077565Y0068898D01*
X0077490Y0068851D01*
X0077413Y0068807D01*
X0077334Y0068767D01*
X0077254Y0068730D01*
X0077172Y0068698D01*
X0077088Y0068668D01*
X0077004Y0068643D01*
X0076918Y0068621D01*
X0076832Y0068604D01*
X0076744Y0068590D01*
X0076656Y0068580D01*
X0076568Y0068574D01*
X0076480Y0068572D01*
X0076392Y0068574D01*
X0076304Y0068580D01*
X0076216Y0068590D01*
X0076128Y0068604D01*
X0076042Y0068621D01*
X0075956Y0068643D01*
X0075872Y0068668D01*
X0075788Y0068698D01*
X0075706Y0068730D01*
X0075626Y0068767D01*
X0075547Y0068807D01*
X0075470Y0068851D01*
X0075395Y0068898D01*
X0075323Y0068948D01*
X0075252Y0069002D01*
X0075185Y0069058D01*
X0075119Y0069118D01*
X0075057Y0069180D01*
X0074997Y0069246D01*
X0074941Y0069313D01*
X0074887Y0069384D01*
X0074837Y0069456D01*
X0074790Y0069531D01*
X0074746Y0069608D01*
X0074706Y0069687D01*
X0074669Y0069767D01*
X0074637Y0069849D01*
X0074607Y0069933D01*
X0074582Y0070017D01*
X0074560Y0070103D01*
X0074543Y0070189D01*
X0074529Y0070277D01*
X0074519Y0070365D01*
X0074513Y0070453D01*
X0074511Y0070541D01*
D11*
X0072435Y0168166D02*
X0079435Y0168166D01*
X0085435Y0174166D01*
X0085435Y0198166D02*
X0085208Y0198489D01*
X0084973Y0198806D01*
X0084731Y0199118D01*
X0084481Y0199423D01*
X0084224Y0199723D01*
X0083960Y0200016D01*
X0083688Y0200303D01*
X0083410Y0200583D01*
X0083125Y0200856D01*
X0082834Y0201122D01*
X0082536Y0201381D01*
X0082232Y0201632D01*
X0081922Y0201877D01*
X0081606Y0202113D01*
X0081284Y0202342D01*
X0080957Y0202563D01*
X0080625Y0202776D01*
X0080288Y0202981D01*
X0079945Y0203178D01*
X0079599Y0203366D01*
X0079247Y0203546D01*
X0078892Y0203717D01*
X0078532Y0203880D01*
X0078169Y0204033D01*
X0077801Y0204178D01*
X0077431Y0204314D01*
X0077057Y0204441D01*
X0076680Y0204559D01*
X0076301Y0204668D01*
X0075919Y0204767D01*
X0075535Y0204857D01*
X0075148Y0204938D01*
X0074760Y0205009D01*
X0074371Y0205071D01*
X0073979Y0205124D01*
X0073587Y0205167D01*
X0073194Y0205200D01*
X0072800Y0205224D01*
X0072405Y0205238D01*
X0072011Y0205243D01*
X0071616Y0205238D01*
X0071222Y0205224D01*
X0070828Y0205200D01*
X0070434Y0205166D01*
X0050435Y0205166D02*
X0050041Y0205200D01*
X0049647Y0205224D01*
X0049253Y0205238D01*
X0048858Y0205243D01*
X0048464Y0205238D01*
X0048069Y0205224D01*
X0047675Y0205200D01*
X0047282Y0205167D01*
X0046890Y0205124D01*
X0046498Y0205071D01*
X0046109Y0205009D01*
X0045721Y0204938D01*
X0045334Y0204857D01*
X0044950Y0204767D01*
X0044568Y0204668D01*
X0044189Y0204559D01*
X0043812Y0204441D01*
X0043438Y0204314D01*
X0043068Y0204178D01*
X0042700Y0204033D01*
X0042337Y0203880D01*
X0041977Y0203717D01*
X0041622Y0203546D01*
X0041270Y0203366D01*
X0040924Y0203178D01*
X0040581Y0202981D01*
X0040244Y0202776D01*
X0039912Y0202563D01*
X0039585Y0202342D01*
X0039263Y0202113D01*
X0038947Y0201877D01*
X0038637Y0201632D01*
X0038333Y0201381D01*
X0038035Y0201122D01*
X0037744Y0200856D01*
X0037459Y0200583D01*
X0037181Y0200303D01*
X0036909Y0200016D01*
X0036645Y0199723D01*
X0036388Y0199423D01*
X0036138Y0199118D01*
X0035896Y0198806D01*
X0035661Y0198489D01*
X0035434Y0198166D01*
X0035435Y0174166D02*
X0041435Y0168166D01*
X0048435Y0168166D01*
M02*
