G75*
%MOIN*%
%OFA0B0*%
%FSLAX25Y25*%
%IPPOS*%
%LPD*%
%AMOC8*
5,1,8,0,0,1.08239X$1,22.5*
%
%ADD10C,0.00000*%
%ADD11C,0.00200*%
%ADD12C,0.00500*%
%ADD13C,0.00400*%
%ADD14C,0.01378*%
%ADD15C,0.00300*%
%ADD16R,0.00984X0.00984*%
%ADD17R,0.01575X0.01575*%
D10*
X0022622Y0058041D02*
X0022622Y0210541D01*
X0112622Y0210541D01*
X0112622Y0058041D01*
X0022622Y0058041D01*
X0056795Y0070541D02*
X0056797Y0070629D01*
X0056803Y0070717D01*
X0056813Y0070805D01*
X0056827Y0070893D01*
X0056844Y0070979D01*
X0056866Y0071065D01*
X0056891Y0071149D01*
X0056921Y0071233D01*
X0056953Y0071315D01*
X0056990Y0071395D01*
X0057030Y0071474D01*
X0057074Y0071551D01*
X0057121Y0071626D01*
X0057171Y0071698D01*
X0057225Y0071769D01*
X0057281Y0071836D01*
X0057341Y0071902D01*
X0057403Y0071964D01*
X0057469Y0072024D01*
X0057536Y0072080D01*
X0057607Y0072134D01*
X0057679Y0072184D01*
X0057754Y0072231D01*
X0057831Y0072275D01*
X0057910Y0072315D01*
X0057990Y0072352D01*
X0058072Y0072384D01*
X0058156Y0072414D01*
X0058240Y0072439D01*
X0058326Y0072461D01*
X0058412Y0072478D01*
X0058500Y0072492D01*
X0058588Y0072502D01*
X0058676Y0072508D01*
X0058764Y0072510D01*
X0058852Y0072508D01*
X0058940Y0072502D01*
X0059028Y0072492D01*
X0059116Y0072478D01*
X0059202Y0072461D01*
X0059288Y0072439D01*
X0059372Y0072414D01*
X0059456Y0072384D01*
X0059538Y0072352D01*
X0059618Y0072315D01*
X0059697Y0072275D01*
X0059774Y0072231D01*
X0059849Y0072184D01*
X0059921Y0072134D01*
X0059992Y0072080D01*
X0060059Y0072024D01*
X0060125Y0071964D01*
X0060187Y0071902D01*
X0060247Y0071836D01*
X0060303Y0071769D01*
X0060357Y0071698D01*
X0060407Y0071626D01*
X0060454Y0071551D01*
X0060498Y0071474D01*
X0060538Y0071395D01*
X0060575Y0071315D01*
X0060607Y0071233D01*
X0060637Y0071149D01*
X0060662Y0071065D01*
X0060684Y0070979D01*
X0060701Y0070893D01*
X0060715Y0070805D01*
X0060725Y0070717D01*
X0060731Y0070629D01*
X0060733Y0070541D01*
X0060731Y0070453D01*
X0060725Y0070365D01*
X0060715Y0070277D01*
X0060701Y0070189D01*
X0060684Y0070103D01*
X0060662Y0070017D01*
X0060637Y0069933D01*
X0060607Y0069849D01*
X0060575Y0069767D01*
X0060538Y0069687D01*
X0060498Y0069608D01*
X0060454Y0069531D01*
X0060407Y0069456D01*
X0060357Y0069384D01*
X0060303Y0069313D01*
X0060247Y0069246D01*
X0060187Y0069180D01*
X0060125Y0069118D01*
X0060059Y0069058D01*
X0059992Y0069002D01*
X0059921Y0068948D01*
X0059849Y0068898D01*
X0059774Y0068851D01*
X0059697Y0068807D01*
X0059618Y0068767D01*
X0059538Y0068730D01*
X0059456Y0068698D01*
X0059372Y0068668D01*
X0059288Y0068643D01*
X0059202Y0068621D01*
X0059116Y0068604D01*
X0059028Y0068590D01*
X0058940Y0068580D01*
X0058852Y0068574D01*
X0058764Y0068572D01*
X0058676Y0068574D01*
X0058588Y0068580D01*
X0058500Y0068590D01*
X0058412Y0068604D01*
X0058326Y0068621D01*
X0058240Y0068643D01*
X0058156Y0068668D01*
X0058072Y0068698D01*
X0057990Y0068730D01*
X0057910Y0068767D01*
X0057831Y0068807D01*
X0057754Y0068851D01*
X0057679Y0068898D01*
X0057607Y0068948D01*
X0057536Y0069002D01*
X0057469Y0069058D01*
X0057403Y0069118D01*
X0057341Y0069180D01*
X0057281Y0069246D01*
X0057225Y0069313D01*
X0057171Y0069384D01*
X0057121Y0069456D01*
X0057074Y0069531D01*
X0057030Y0069608D01*
X0056990Y0069687D01*
X0056953Y0069767D01*
X0056921Y0069849D01*
X0056891Y0069933D01*
X0056866Y0070017D01*
X0056844Y0070103D01*
X0056827Y0070189D01*
X0056813Y0070277D01*
X0056803Y0070365D01*
X0056797Y0070453D01*
X0056795Y0070541D01*
X0074511Y0070541D02*
X0074513Y0070629D01*
X0074519Y0070717D01*
X0074529Y0070805D01*
X0074543Y0070893D01*
X0074560Y0070979D01*
X0074582Y0071065D01*
X0074607Y0071149D01*
X0074637Y0071233D01*
X0074669Y0071315D01*
X0074706Y0071395D01*
X0074746Y0071474D01*
X0074790Y0071551D01*
X0074837Y0071626D01*
X0074887Y0071698D01*
X0074941Y0071769D01*
X0074997Y0071836D01*
X0075057Y0071902D01*
X0075119Y0071964D01*
X0075185Y0072024D01*
X0075252Y0072080D01*
X0075323Y0072134D01*
X0075395Y0072184D01*
X0075470Y0072231D01*
X0075547Y0072275D01*
X0075626Y0072315D01*
X0075706Y0072352D01*
X0075788Y0072384D01*
X0075872Y0072414D01*
X0075956Y0072439D01*
X0076042Y0072461D01*
X0076128Y0072478D01*
X0076216Y0072492D01*
X0076304Y0072502D01*
X0076392Y0072508D01*
X0076480Y0072510D01*
X0076568Y0072508D01*
X0076656Y0072502D01*
X0076744Y0072492D01*
X0076832Y0072478D01*
X0076918Y0072461D01*
X0077004Y0072439D01*
X0077088Y0072414D01*
X0077172Y0072384D01*
X0077254Y0072352D01*
X0077334Y0072315D01*
X0077413Y0072275D01*
X0077490Y0072231D01*
X0077565Y0072184D01*
X0077637Y0072134D01*
X0077708Y0072080D01*
X0077775Y0072024D01*
X0077841Y0071964D01*
X0077903Y0071902D01*
X0077963Y0071836D01*
X0078019Y0071769D01*
X0078073Y0071698D01*
X0078123Y0071626D01*
X0078170Y0071551D01*
X0078214Y0071474D01*
X0078254Y0071395D01*
X0078291Y0071315D01*
X0078323Y0071233D01*
X0078353Y0071149D01*
X0078378Y0071065D01*
X0078400Y0070979D01*
X0078417Y0070893D01*
X0078431Y0070805D01*
X0078441Y0070717D01*
X0078447Y0070629D01*
X0078449Y0070541D01*
X0078447Y0070453D01*
X0078441Y0070365D01*
X0078431Y0070277D01*
X0078417Y0070189D01*
X0078400Y0070103D01*
X0078378Y0070017D01*
X0078353Y0069933D01*
X0078323Y0069849D01*
X0078291Y0069767D01*
X0078254Y0069687D01*
X0078214Y0069608D01*
X0078170Y0069531D01*
X0078123Y0069456D01*
X0078073Y0069384D01*
X0078019Y0069313D01*
X0077963Y0069246D01*
X0077903Y0069180D01*
X0077841Y0069118D01*
X0077775Y0069058D01*
X0077708Y0069002D01*
X0077637Y0068948D01*
X0077565Y0068898D01*
X0077490Y0068851D01*
X0077413Y0068807D01*
X0077334Y0068767D01*
X0077254Y0068730D01*
X0077172Y0068698D01*
X0077088Y0068668D01*
X0077004Y0068643D01*
X0076918Y0068621D01*
X0076832Y0068604D01*
X0076744Y0068590D01*
X0076656Y0068580D01*
X0076568Y0068574D01*
X0076480Y0068572D01*
X0076392Y0068574D01*
X0076304Y0068580D01*
X0076216Y0068590D01*
X0076128Y0068604D01*
X0076042Y0068621D01*
X0075956Y0068643D01*
X0075872Y0068668D01*
X0075788Y0068698D01*
X0075706Y0068730D01*
X0075626Y0068767D01*
X0075547Y0068807D01*
X0075470Y0068851D01*
X0075395Y0068898D01*
X0075323Y0068948D01*
X0075252Y0069002D01*
X0075185Y0069058D01*
X0075119Y0069118D01*
X0075057Y0069180D01*
X0074997Y0069246D01*
X0074941Y0069313D01*
X0074887Y0069384D01*
X0074837Y0069456D01*
X0074790Y0069531D01*
X0074746Y0069608D01*
X0074706Y0069687D01*
X0074669Y0069767D01*
X0074637Y0069849D01*
X0074607Y0069933D01*
X0074582Y0070017D01*
X0074560Y0070103D01*
X0074543Y0070189D01*
X0074529Y0070277D01*
X0074519Y0070365D01*
X0074513Y0070453D01*
X0074511Y0070541D01*
D11*
X0079716Y0087047D02*
X0079282Y0087481D01*
X0079282Y0088349D01*
X0079716Y0088782D01*
X0079716Y0089626D02*
X0080150Y0089626D01*
X0080584Y0090059D01*
X0080584Y0090927D01*
X0081017Y0091360D01*
X0081451Y0091360D01*
X0081885Y0090927D01*
X0081885Y0090059D01*
X0081451Y0089626D01*
X0081017Y0089626D01*
X0080584Y0090059D01*
X0080584Y0090927D02*
X0080150Y0091360D01*
X0079716Y0091360D01*
X0079282Y0090927D01*
X0079282Y0090059D01*
X0079716Y0089626D01*
X0081451Y0088782D02*
X0081885Y0088349D01*
X0081885Y0087481D01*
X0081451Y0087047D01*
X0079716Y0087047D01*
X0088057Y0087506D02*
X0088491Y0087072D01*
X0090226Y0087072D01*
X0090660Y0087506D01*
X0090660Y0088374D01*
X0090226Y0088807D01*
X0090226Y0089651D02*
X0090660Y0090084D01*
X0090660Y0090952D01*
X0090226Y0091385D01*
X0089792Y0091385D01*
X0089359Y0090952D01*
X0089359Y0089651D01*
X0090226Y0089651D01*
X0089359Y0089651D02*
X0088491Y0090518D01*
X0088057Y0091385D01*
X0088491Y0088807D02*
X0088057Y0088374D01*
X0088057Y0087506D01*
X0069848Y0110016D02*
X0068113Y0110016D01*
X0068980Y0110016D02*
X0068980Y0112619D01*
X0068113Y0111751D01*
X0067269Y0112185D02*
X0066836Y0112619D01*
X0065535Y0112619D01*
X0065535Y0110016D01*
X0066836Y0110016D01*
X0067269Y0110450D01*
X0067269Y0112185D01*
X0071785Y0120954D02*
X0071785Y0123556D01*
X0073086Y0123556D01*
X0073519Y0123122D01*
X0073519Y0122255D01*
X0073086Y0121821D01*
X0071785Y0121821D01*
X0072652Y0121821D02*
X0073519Y0120954D01*
X0074363Y0120954D02*
X0076098Y0120954D01*
X0075230Y0120954D02*
X0075230Y0123556D01*
X0074363Y0122689D01*
X0093660Y0122325D02*
X0094093Y0121891D01*
X0094961Y0121891D01*
X0095394Y0122325D01*
X0096238Y0122325D02*
X0096672Y0121891D01*
X0097539Y0121891D01*
X0097973Y0122325D01*
X0097973Y0124060D01*
X0097539Y0124494D01*
X0096672Y0124494D01*
X0096238Y0124060D01*
X0096238Y0123626D01*
X0096672Y0123192D01*
X0097973Y0123192D01*
X0095394Y0124060D02*
X0094961Y0124494D01*
X0094093Y0124494D01*
X0093660Y0124060D01*
X0093660Y0122325D01*
X0108970Y0110714D02*
X0108970Y0109246D01*
X0108970Y0109980D02*
X0111172Y0109980D01*
X0110805Y0108504D02*
X0111172Y0108137D01*
X0111172Y0107403D01*
X0110805Y0107036D01*
X0110071Y0107403D02*
X0110071Y0108137D01*
X0110438Y0108504D01*
X0110805Y0108504D01*
X0110071Y0107403D02*
X0109704Y0107036D01*
X0109337Y0107036D01*
X0108970Y0107403D01*
X0108970Y0108137D01*
X0109337Y0108504D01*
X0109337Y0106294D02*
X0110071Y0106294D01*
X0110438Y0105927D01*
X0110438Y0104827D01*
X0110438Y0105560D02*
X0111172Y0106294D01*
X0111172Y0104827D02*
X0108970Y0104827D01*
X0108970Y0105927D01*
X0109337Y0106294D01*
X0109337Y0100714D02*
X0108970Y0100347D01*
X0108970Y0099246D01*
X0111172Y0099246D01*
X0111172Y0100347D01*
X0110805Y0100714D01*
X0109337Y0100714D01*
X0109337Y0098504D02*
X0108970Y0098137D01*
X0108970Y0097036D01*
X0111172Y0097036D01*
X0111172Y0098137D01*
X0110805Y0098504D01*
X0109337Y0098504D01*
X0108970Y0096294D02*
X0110438Y0096294D01*
X0111172Y0095560D01*
X0110438Y0094827D01*
X0108970Y0094827D01*
X0108970Y0091819D02*
X0110438Y0090351D01*
X0110071Y0090718D02*
X0111172Y0091819D01*
X0111172Y0090351D02*
X0108970Y0090351D01*
X0108970Y0088141D02*
X0111172Y0088141D01*
X0111172Y0089609D01*
X0110805Y0087399D02*
X0111172Y0087032D01*
X0111172Y0086298D01*
X0110805Y0085931D01*
X0109337Y0085931D01*
X0108970Y0086298D01*
X0108970Y0087032D01*
X0109337Y0087399D01*
X0109337Y0085189D02*
X0110071Y0085189D01*
X0110438Y0084823D01*
X0110438Y0083722D01*
X0111172Y0083722D02*
X0108970Y0083722D01*
X0108970Y0084823D01*
X0109337Y0085189D01*
X0109337Y0080346D02*
X0108970Y0079979D01*
X0108970Y0079245D01*
X0109337Y0078878D01*
X0110805Y0078878D01*
X0111172Y0079245D01*
X0111172Y0079979D01*
X0110805Y0080346D01*
X0109337Y0080346D01*
X0108970Y0078139D02*
X0108970Y0077405D01*
X0108970Y0077772D02*
X0111172Y0077772D01*
X0111172Y0077405D02*
X0111172Y0078139D01*
X0110071Y0076663D02*
X0110438Y0076296D01*
X0110438Y0075195D01*
X0111172Y0075195D02*
X0108970Y0075195D01*
X0108970Y0076296D01*
X0109337Y0076663D01*
X0110071Y0076663D01*
X0109337Y0070714D02*
X0108970Y0070347D01*
X0108970Y0069246D01*
X0111172Y0069246D01*
X0111172Y0070347D01*
X0110805Y0070714D01*
X0109337Y0070714D01*
X0108970Y0068504D02*
X0111172Y0068504D01*
X0108970Y0067036D01*
X0111172Y0067036D01*
X0110805Y0066294D02*
X0110071Y0066294D01*
X0110071Y0065560D01*
X0109337Y0064827D02*
X0110805Y0064827D01*
X0111172Y0065193D01*
X0111172Y0065927D01*
X0110805Y0066294D01*
X0109337Y0066294D02*
X0108970Y0065927D01*
X0108970Y0065193D01*
X0109337Y0064827D01*
X0053144Y0103656D02*
X0051410Y0103656D01*
X0052277Y0103656D02*
X0052277Y0106258D01*
X0051410Y0105390D01*
X0050566Y0105390D02*
X0050566Y0105824D01*
X0050132Y0106258D01*
X0048831Y0106258D01*
X0048831Y0103656D01*
X0050132Y0103656D01*
X0050566Y0104089D01*
X0050566Y0104523D01*
X0050132Y0104957D01*
X0048831Y0104957D01*
X0050132Y0104957D02*
X0050566Y0105390D01*
X0047988Y0106258D02*
X0046253Y0106258D01*
X0046253Y0103656D01*
X0046253Y0104957D02*
X0047121Y0104957D01*
X0046906Y0114079D02*
X0047773Y0114079D01*
X0048207Y0114513D01*
X0049050Y0114513D02*
X0049050Y0114079D01*
X0049050Y0114513D02*
X0050785Y0116247D01*
X0050785Y0116681D01*
X0049050Y0116681D01*
X0048207Y0116247D02*
X0047773Y0116681D01*
X0046906Y0116681D01*
X0046472Y0116247D01*
X0046472Y0114513D01*
X0046906Y0114079D01*
X0033754Y0112510D02*
X0033754Y0112076D01*
X0032019Y0110341D01*
X0033754Y0110341D01*
X0033754Y0112510D02*
X0033320Y0112944D01*
X0032453Y0112944D01*
X0032019Y0112510D01*
X0031176Y0112944D02*
X0031176Y0110775D01*
X0030742Y0110341D01*
X0029874Y0110341D01*
X0029441Y0110775D01*
X0029441Y0112944D01*
X0029111Y0117554D02*
X0029111Y0120156D01*
X0028244Y0119289D01*
X0028244Y0117554D02*
X0029979Y0117554D01*
X0027401Y0117554D02*
X0025666Y0117554D01*
X0026533Y0117554D02*
X0026533Y0120156D01*
X0025666Y0119289D01*
X0024822Y0119722D02*
X0024389Y0120156D01*
X0023521Y0120156D01*
X0023088Y0119722D01*
X0023088Y0117988D01*
X0023521Y0117554D01*
X0024389Y0117554D01*
X0024822Y0117988D01*
X0025499Y0126879D02*
X0026367Y0126879D01*
X0026801Y0127313D01*
X0027644Y0128180D02*
X0029379Y0128180D01*
X0028945Y0129481D02*
X0027644Y0128180D01*
X0026801Y0129047D02*
X0026367Y0129481D01*
X0025499Y0129481D01*
X0025066Y0129047D01*
X0025066Y0127313D01*
X0025499Y0126879D01*
X0028945Y0126879D02*
X0028945Y0129481D01*
X0028728Y0135629D02*
X0028294Y0136063D01*
X0028728Y0135629D02*
X0029595Y0135629D01*
X0030029Y0136063D01*
X0030029Y0136496D01*
X0029595Y0136930D01*
X0029161Y0136930D01*
X0029595Y0136930D02*
X0030029Y0137364D01*
X0030029Y0137797D01*
X0029595Y0138231D01*
X0028728Y0138231D01*
X0028294Y0137797D01*
X0027451Y0137797D02*
X0027017Y0138231D01*
X0026149Y0138231D01*
X0025716Y0137797D01*
X0025716Y0136063D01*
X0026149Y0135629D01*
X0027017Y0135629D01*
X0027451Y0136063D01*
X0027951Y0163963D02*
X0027951Y0165264D01*
X0028385Y0165698D01*
X0030120Y0165698D01*
X0030554Y0165264D01*
X0030554Y0163963D01*
X0027951Y0163963D01*
X0028385Y0166541D02*
X0027951Y0166975D01*
X0027951Y0167842D01*
X0028385Y0168276D01*
X0028819Y0168276D01*
X0030554Y0166541D01*
X0030554Y0168276D01*
X0032722Y0179391D02*
X0032722Y0181994D01*
X0034023Y0181994D01*
X0034457Y0181560D01*
X0034457Y0180692D01*
X0034023Y0180259D01*
X0032722Y0180259D01*
X0033590Y0180259D02*
X0034457Y0179391D01*
X0035300Y0179825D02*
X0035734Y0179391D01*
X0036601Y0179391D01*
X0037035Y0179825D01*
X0037035Y0180259D01*
X0036601Y0180692D01*
X0036168Y0180692D01*
X0036601Y0180692D02*
X0037035Y0181126D01*
X0037035Y0181560D01*
X0036601Y0181994D01*
X0035734Y0181994D01*
X0035300Y0181560D01*
X0034776Y0191067D02*
X0036511Y0191067D01*
X0037354Y0191067D02*
X0038655Y0191067D01*
X0039089Y0191500D01*
X0039089Y0193235D01*
X0038655Y0193669D01*
X0037354Y0193669D01*
X0037354Y0191067D01*
X0035643Y0192368D02*
X0034776Y0192368D01*
X0034776Y0193669D02*
X0034776Y0191067D01*
X0033932Y0191067D02*
X0032198Y0191067D01*
X0032198Y0193669D01*
X0034776Y0193669D02*
X0036511Y0193669D01*
X0039932Y0193235D02*
X0040366Y0193669D01*
X0041233Y0193669D01*
X0041667Y0193235D01*
X0041667Y0192801D01*
X0039932Y0191067D01*
X0041667Y0191067D01*
X0048972Y0193141D02*
X0048972Y0195744D01*
X0050273Y0195744D01*
X0050707Y0195310D01*
X0050707Y0194442D01*
X0050273Y0194009D01*
X0048972Y0194009D01*
X0049840Y0194009D02*
X0050707Y0193141D01*
X0051550Y0194442D02*
X0053285Y0194442D01*
X0052851Y0193141D02*
X0052851Y0195744D01*
X0051550Y0194442D01*
X0051550Y0184494D02*
X0051550Y0183192D01*
X0052418Y0183626D01*
X0052851Y0183626D01*
X0053285Y0183192D01*
X0053285Y0182325D01*
X0052851Y0181891D01*
X0051984Y0181891D01*
X0051550Y0182325D01*
X0050707Y0181891D02*
X0049840Y0182759D01*
X0050273Y0182759D02*
X0048972Y0182759D01*
X0048972Y0181891D02*
X0048972Y0184494D01*
X0050273Y0184494D01*
X0050707Y0184060D01*
X0050707Y0183192D01*
X0050273Y0182759D01*
X0051550Y0184494D02*
X0053285Y0184494D01*
X0053285Y0204391D02*
X0051550Y0204391D01*
X0053285Y0206126D01*
X0053285Y0206560D01*
X0052851Y0206994D01*
X0051984Y0206994D01*
X0051550Y0206560D01*
X0050707Y0206560D02*
X0050273Y0206994D01*
X0048972Y0206994D01*
X0048972Y0204391D01*
X0048972Y0205259D02*
X0050273Y0205259D01*
X0050707Y0205692D01*
X0050707Y0206560D01*
X0049840Y0205259D02*
X0050707Y0204391D01*
X0041254Y0203766D02*
X0039519Y0203766D01*
X0040387Y0203766D02*
X0040387Y0206369D01*
X0039519Y0205501D01*
X0038676Y0205935D02*
X0038242Y0206369D01*
X0036941Y0206369D01*
X0036941Y0203766D01*
X0038242Y0203766D01*
X0038676Y0204200D01*
X0038676Y0205935D01*
X0036098Y0206369D02*
X0034363Y0206369D01*
X0034363Y0203766D01*
X0036098Y0203766D01*
X0035230Y0205067D02*
X0034363Y0205067D01*
X0033519Y0203766D02*
X0031785Y0203766D01*
X0031785Y0206369D01*
X0038885Y0168195D02*
X0038451Y0167761D01*
X0038451Y0166894D01*
X0038885Y0166460D01*
X0038885Y0165617D02*
X0038451Y0165183D01*
X0038451Y0163882D01*
X0041053Y0163882D01*
X0041053Y0165183D01*
X0040619Y0165617D01*
X0038885Y0165617D01*
X0039752Y0167328D02*
X0039752Y0167761D01*
X0040186Y0168195D01*
X0040619Y0168195D01*
X0041053Y0167761D01*
X0041053Y0166894D01*
X0040619Y0166460D01*
X0039752Y0167761D02*
X0039318Y0168195D01*
X0038885Y0168195D01*
X0078425Y0190962D02*
X0078859Y0190528D01*
X0079726Y0190528D01*
X0080160Y0190962D01*
X0080160Y0191396D01*
X0079726Y0191829D01*
X0078859Y0191829D01*
X0078425Y0192263D01*
X0078425Y0192697D01*
X0078859Y0193131D01*
X0079726Y0193131D01*
X0080160Y0192697D01*
X0081003Y0193131D02*
X0081003Y0190528D01*
X0081871Y0191396D01*
X0082738Y0190528D01*
X0082738Y0193131D01*
X0083581Y0192263D02*
X0084449Y0193131D01*
X0084449Y0190528D01*
X0085316Y0190528D02*
X0083581Y0190528D01*
X0090822Y0183772D02*
X0090822Y0182038D01*
X0091256Y0181604D01*
X0092123Y0181604D01*
X0092557Y0182038D01*
X0093400Y0181604D02*
X0095135Y0181604D01*
X0094268Y0181604D02*
X0094268Y0184206D01*
X0093400Y0183339D01*
X0092557Y0183772D02*
X0092123Y0184206D01*
X0091256Y0184206D01*
X0090822Y0183772D01*
X0091256Y0174206D02*
X0090822Y0173772D01*
X0090822Y0172038D01*
X0091256Y0171604D01*
X0092123Y0171604D01*
X0092557Y0172038D01*
X0093400Y0171604D02*
X0095135Y0173339D01*
X0095135Y0173772D01*
X0094701Y0174206D01*
X0093834Y0174206D01*
X0093400Y0173772D01*
X0092557Y0173772D02*
X0092123Y0174206D01*
X0091256Y0174206D01*
X0093400Y0171604D02*
X0095135Y0171604D01*
X0108970Y0177693D02*
X0109337Y0177327D01*
X0110805Y0177327D01*
X0111172Y0177693D01*
X0111172Y0178427D01*
X0110805Y0178794D01*
X0110071Y0178794D01*
X0110071Y0178060D01*
X0109337Y0178794D02*
X0108970Y0178427D01*
X0108970Y0177693D01*
X0108970Y0179536D02*
X0111172Y0181004D01*
X0108970Y0181004D01*
X0108970Y0181746D02*
X0108970Y0182847D01*
X0109337Y0183214D01*
X0110805Y0183214D01*
X0111172Y0182847D01*
X0111172Y0181746D01*
X0108970Y0181746D01*
X0108970Y0179536D02*
X0111172Y0179536D01*
X0111172Y0185669D02*
X0108970Y0185669D01*
X0108970Y0186770D01*
X0109337Y0187137D01*
X0110071Y0187137D01*
X0110438Y0186770D01*
X0110438Y0185669D01*
X0110805Y0187879D02*
X0109337Y0187879D01*
X0108970Y0188246D01*
X0108970Y0188980D01*
X0109337Y0189347D01*
X0110805Y0187879D01*
X0111172Y0188246D01*
X0111172Y0188980D01*
X0110805Y0189347D01*
X0109337Y0189347D01*
X0109337Y0191194D02*
X0108970Y0191561D01*
X0108970Y0192295D01*
X0109337Y0192662D01*
X0110805Y0191194D01*
X0111172Y0191561D01*
X0111172Y0192295D01*
X0110805Y0192662D01*
X0109337Y0192662D01*
X0109337Y0193404D02*
X0108970Y0193771D01*
X0108970Y0194505D01*
X0109337Y0194872D01*
X0109704Y0194872D01*
X0111172Y0193404D01*
X0111172Y0194872D01*
X0111172Y0195669D02*
X0108970Y0195669D01*
X0108970Y0196770D01*
X0109337Y0197137D01*
X0110071Y0197137D01*
X0110438Y0196770D01*
X0110438Y0195669D01*
X0110805Y0197879D02*
X0109337Y0199347D01*
X0110805Y0199347D01*
X0111172Y0198980D01*
X0111172Y0198246D01*
X0110805Y0197879D01*
X0109337Y0197879D01*
X0108970Y0198246D01*
X0108970Y0198980D01*
X0109337Y0199347D01*
X0109337Y0201194D02*
X0108970Y0201561D01*
X0108970Y0202295D01*
X0109337Y0202662D01*
X0110805Y0201194D01*
X0111172Y0201561D01*
X0111172Y0202295D01*
X0110805Y0202662D01*
X0109337Y0202662D01*
X0110071Y0203404D02*
X0108970Y0204505D01*
X0111172Y0204505D01*
X0110071Y0204872D02*
X0110071Y0203404D01*
X0110805Y0201194D02*
X0109337Y0201194D01*
X0110805Y0200456D02*
X0110805Y0200089D01*
X0111172Y0200089D01*
X0111172Y0200456D01*
X0110805Y0200456D01*
X0110805Y0191194D02*
X0109337Y0191194D01*
X0110805Y0190456D02*
X0111172Y0190456D01*
X0111172Y0190089D01*
X0110805Y0190089D01*
X0110805Y0190456D01*
X0048779Y0088231D02*
X0047044Y0088231D01*
X0047044Y0086930D01*
X0047911Y0087364D01*
X0048345Y0087364D01*
X0048779Y0086930D01*
X0048779Y0086063D01*
X0048345Y0085629D01*
X0047478Y0085629D01*
X0047044Y0086063D01*
X0046201Y0086063D02*
X0045767Y0085629D01*
X0044899Y0085629D01*
X0044466Y0086063D01*
X0044466Y0087797D01*
X0044899Y0088231D01*
X0045767Y0088231D01*
X0046201Y0087797D01*
X0035029Y0084047D02*
X0035029Y0082313D01*
X0034595Y0081879D01*
X0033728Y0081879D01*
X0033294Y0082313D01*
X0035029Y0084047D01*
X0034595Y0084481D01*
X0033728Y0084481D01*
X0033294Y0084047D01*
X0033294Y0082313D01*
X0032451Y0081879D02*
X0030716Y0081879D01*
X0031583Y0081879D02*
X0031583Y0084481D01*
X0030716Y0083614D01*
X0029872Y0084047D02*
X0029439Y0084481D01*
X0028571Y0084481D01*
X0028138Y0084047D01*
X0028138Y0082313D01*
X0028571Y0081879D01*
X0029439Y0081879D01*
X0029872Y0082313D01*
X0030253Y0074708D02*
X0028519Y0074708D01*
X0028519Y0072106D01*
X0028519Y0073407D02*
X0029386Y0073407D01*
X0031097Y0073407D02*
X0032398Y0073407D01*
X0032832Y0072973D01*
X0032832Y0072539D01*
X0032398Y0072106D01*
X0031097Y0072106D01*
X0031097Y0074708D01*
X0032398Y0074708D01*
X0032832Y0074274D01*
X0032832Y0073840D01*
X0032398Y0073407D01*
X0033675Y0074274D02*
X0034109Y0074708D01*
X0034976Y0074708D01*
X0035410Y0074274D01*
X0035410Y0073840D01*
X0033675Y0072106D01*
X0035410Y0072106D01*
X0034976Y0064708D02*
X0034109Y0064708D01*
X0033675Y0064274D01*
X0032832Y0064274D02*
X0032832Y0063840D01*
X0032398Y0063407D01*
X0031097Y0063407D01*
X0031097Y0064708D02*
X0032398Y0064708D01*
X0032832Y0064274D01*
X0032398Y0063407D02*
X0032832Y0062973D01*
X0032832Y0062539D01*
X0032398Y0062106D01*
X0031097Y0062106D01*
X0031097Y0064708D01*
X0030253Y0064708D02*
X0028519Y0064708D01*
X0028519Y0062106D01*
X0028519Y0063407D02*
X0029386Y0063407D01*
X0033675Y0062539D02*
X0034109Y0062106D01*
X0034976Y0062106D01*
X0035410Y0062539D01*
X0035410Y0062973D01*
X0034976Y0063407D01*
X0034542Y0063407D01*
X0034976Y0063407D02*
X0035410Y0063840D01*
X0035410Y0064274D01*
X0034976Y0064708D01*
D12*
X0035378Y0099193D02*
X0038232Y0099193D01*
X0038232Y0102579D01*
X0033606Y0104390D02*
X0031638Y0104390D01*
X0029866Y0099193D02*
X0027012Y0099193D01*
X0027012Y0102579D01*
X0049610Y0127372D02*
X0049610Y0168711D01*
X0110634Y0168711D01*
X0110634Y0127372D01*
X0049610Y0127372D01*
X0083223Y0114941D02*
X0089522Y0114941D01*
X0084403Y0111791D02*
X0084405Y0111879D01*
X0084411Y0111967D01*
X0084421Y0112055D01*
X0084435Y0112143D01*
X0084452Y0112229D01*
X0084474Y0112315D01*
X0084499Y0112399D01*
X0084529Y0112483D01*
X0084561Y0112565D01*
X0084598Y0112645D01*
X0084638Y0112724D01*
X0084682Y0112801D01*
X0084729Y0112876D01*
X0084779Y0112948D01*
X0084833Y0113019D01*
X0084889Y0113086D01*
X0084949Y0113152D01*
X0085011Y0113214D01*
X0085077Y0113274D01*
X0085144Y0113330D01*
X0085215Y0113384D01*
X0085287Y0113434D01*
X0085362Y0113481D01*
X0085439Y0113525D01*
X0085518Y0113565D01*
X0085598Y0113602D01*
X0085680Y0113634D01*
X0085764Y0113664D01*
X0085848Y0113689D01*
X0085934Y0113711D01*
X0086020Y0113728D01*
X0086108Y0113742D01*
X0086196Y0113752D01*
X0086284Y0113758D01*
X0086372Y0113760D01*
X0086460Y0113758D01*
X0086548Y0113752D01*
X0086636Y0113742D01*
X0086724Y0113728D01*
X0086810Y0113711D01*
X0086896Y0113689D01*
X0086980Y0113664D01*
X0087064Y0113634D01*
X0087146Y0113602D01*
X0087226Y0113565D01*
X0087305Y0113525D01*
X0087382Y0113481D01*
X0087457Y0113434D01*
X0087529Y0113384D01*
X0087600Y0113330D01*
X0087667Y0113274D01*
X0087733Y0113214D01*
X0087795Y0113152D01*
X0087855Y0113086D01*
X0087911Y0113019D01*
X0087965Y0112948D01*
X0088015Y0112876D01*
X0088062Y0112801D01*
X0088106Y0112724D01*
X0088146Y0112645D01*
X0088183Y0112565D01*
X0088215Y0112483D01*
X0088245Y0112399D01*
X0088270Y0112315D01*
X0088292Y0112229D01*
X0088309Y0112143D01*
X0088323Y0112055D01*
X0088333Y0111967D01*
X0088339Y0111879D01*
X0088341Y0111791D01*
X0088339Y0111703D01*
X0088333Y0111615D01*
X0088323Y0111527D01*
X0088309Y0111439D01*
X0088292Y0111353D01*
X0088270Y0111267D01*
X0088245Y0111183D01*
X0088215Y0111099D01*
X0088183Y0111017D01*
X0088146Y0110937D01*
X0088106Y0110858D01*
X0088062Y0110781D01*
X0088015Y0110706D01*
X0087965Y0110634D01*
X0087911Y0110563D01*
X0087855Y0110496D01*
X0087795Y0110430D01*
X0087733Y0110368D01*
X0087667Y0110308D01*
X0087600Y0110252D01*
X0087529Y0110198D01*
X0087457Y0110148D01*
X0087382Y0110101D01*
X0087305Y0110057D01*
X0087226Y0110017D01*
X0087146Y0109980D01*
X0087064Y0109948D01*
X0086980Y0109918D01*
X0086896Y0109893D01*
X0086810Y0109871D01*
X0086724Y0109854D01*
X0086636Y0109840D01*
X0086548Y0109830D01*
X0086460Y0109824D01*
X0086372Y0109822D01*
X0086284Y0109824D01*
X0086196Y0109830D01*
X0086108Y0109840D01*
X0086020Y0109854D01*
X0085934Y0109871D01*
X0085848Y0109893D01*
X0085764Y0109918D01*
X0085680Y0109948D01*
X0085598Y0109980D01*
X0085518Y0110017D01*
X0085439Y0110057D01*
X0085362Y0110101D01*
X0085287Y0110148D01*
X0085215Y0110198D01*
X0085144Y0110252D01*
X0085077Y0110308D01*
X0085011Y0110368D01*
X0084949Y0110430D01*
X0084889Y0110496D01*
X0084833Y0110563D01*
X0084779Y0110634D01*
X0084729Y0110706D01*
X0084682Y0110781D01*
X0084638Y0110858D01*
X0084598Y0110937D01*
X0084561Y0111017D01*
X0084529Y0111099D01*
X0084499Y0111183D01*
X0084474Y0111267D01*
X0084452Y0111353D01*
X0084435Y0111439D01*
X0084421Y0111527D01*
X0084411Y0111615D01*
X0084405Y0111703D01*
X0084403Y0111791D01*
X0083223Y0108642D02*
X0089522Y0108642D01*
D13*
X0101547Y0121489D02*
X0100780Y0122257D01*
X0100780Y0126093D01*
X0101547Y0121489D02*
X0103082Y0121489D01*
X0103849Y0122257D01*
X0103849Y0126093D01*
X0105384Y0124559D02*
X0106918Y0126093D01*
X0106918Y0121489D01*
X0105384Y0121489D02*
X0108453Y0121489D01*
X0096172Y0088005D02*
X0096172Y0085937D01*
X0094104Y0088005D01*
X0093587Y0088005D01*
X0093070Y0087488D01*
X0093070Y0086454D01*
X0093587Y0085937D01*
X0093070Y0084783D02*
X0096172Y0084783D01*
X0093070Y0082714D01*
X0096172Y0082714D01*
X0095655Y0081560D02*
X0096172Y0081043D01*
X0096172Y0080008D01*
X0095655Y0079491D01*
X0093587Y0079491D01*
X0093070Y0080008D01*
X0093070Y0081043D01*
X0093587Y0081560D01*
X0094837Y0185741D02*
X0094320Y0186258D01*
X0094320Y0187293D01*
X0094837Y0187810D01*
X0094320Y0188964D02*
X0097422Y0191033D01*
X0094320Y0191033D01*
X0094837Y0192187D02*
X0094320Y0192704D01*
X0094320Y0193738D01*
X0094837Y0194255D01*
X0095354Y0194255D01*
X0095871Y0193738D01*
X0096388Y0194255D01*
X0096905Y0194255D01*
X0097422Y0193738D01*
X0097422Y0192704D01*
X0096905Y0192187D01*
X0095871Y0193221D02*
X0095871Y0193738D01*
X0097422Y0188964D02*
X0094320Y0188964D01*
X0096905Y0187810D02*
X0097422Y0187293D01*
X0097422Y0186258D01*
X0096905Y0185741D01*
X0094837Y0185741D01*
D14*
X0068872Y0180541D03*
D15*
X0063097Y0180126D02*
X0060195Y0178191D01*
X0060195Y0180126D02*
X0063097Y0178191D01*
X0063097Y0181138D02*
X0063097Y0183073D01*
X0063097Y0182105D02*
X0060195Y0182105D01*
X0061162Y0181138D01*
X0095064Y0117568D02*
X0094647Y0117151D01*
X0094647Y0116734D01*
X0095064Y0116317D01*
X0095898Y0116317D01*
X0096315Y0115900D01*
X0096315Y0115483D01*
X0095898Y0115066D01*
X0095064Y0115066D01*
X0094647Y0115483D01*
X0095064Y0117568D02*
X0095898Y0117568D01*
X0096315Y0117151D01*
X0097225Y0117568D02*
X0097225Y0115066D01*
X0098059Y0115900D01*
X0098893Y0115066D01*
X0098893Y0117568D01*
X0099804Y0117151D02*
X0100221Y0117568D01*
X0101055Y0117568D01*
X0101472Y0117151D01*
X0101472Y0116734D01*
X0099804Y0115066D01*
X0101472Y0115066D01*
X0047884Y0079658D02*
X0045949Y0079658D01*
X0046916Y0079658D02*
X0046916Y0082560D01*
X0045949Y0081593D01*
X0044937Y0082560D02*
X0044937Y0079658D01*
X0043002Y0082560D01*
X0043002Y0079658D01*
X0041991Y0080142D02*
X0041507Y0079658D01*
X0040539Y0079658D01*
X0040056Y0080142D01*
X0040056Y0082077D01*
X0040539Y0082560D01*
X0041507Y0082560D01*
X0041991Y0082077D01*
D16*
X0030302Y0190229D03*
X0036552Y0197416D03*
D17*
X0025004Y0156585D03*
X0046490Y0149498D03*
M02*
