G75*
%MOIN*%
%OFA0B0*%
%FSLAX25Y25*%
%IPPOS*%
%LPD*%
%AMOC8*
5,1,8,0,0,1.08239X$1,22.5*
%
%ADD10C,0.00000*%
%ADD11R,0.01575X0.02362*%
%ADD12R,0.02362X0.01575*%
%ADD13R,0.07480X0.04331*%
%ADD14R,0.04134X0.04252*%
%ADD15R,0.03642X0.02913*%
%ADD16R,0.04252X0.04134*%
%ADD17R,0.05669X0.03937*%
%ADD18R,0.05669X0.04724*%
%ADD19C,0.06600*%
%ADD20R,0.04724X0.07874*%
%ADD21R,0.03937X0.04331*%
%ADD22R,0.04134X0.02559*%
%ADD23R,0.02165X0.02165*%
%ADD24R,0.03150X0.03150*%
%ADD25R,0.01969X0.01575*%
%ADD26R,0.06500X0.06500*%
%ADD27C,0.06500*%
%ADD28R,0.03937X0.05512*%
%ADD29R,0.04724X0.05906*%
%ADD30C,0.01600*%
%ADD31C,0.03562*%
%ADD32C,0.01000*%
%ADD33C,0.01200*%
%ADD34C,0.00600*%
D10*
X0022622Y0058041D02*
X0022622Y0210541D01*
X0112622Y0210541D01*
X0112622Y0058041D01*
X0022622Y0058041D01*
X0056795Y0070541D02*
X0056797Y0070629D01*
X0056803Y0070717D01*
X0056813Y0070805D01*
X0056827Y0070893D01*
X0056844Y0070979D01*
X0056866Y0071065D01*
X0056891Y0071149D01*
X0056921Y0071233D01*
X0056953Y0071315D01*
X0056990Y0071395D01*
X0057030Y0071474D01*
X0057074Y0071551D01*
X0057121Y0071626D01*
X0057171Y0071698D01*
X0057225Y0071769D01*
X0057281Y0071836D01*
X0057341Y0071902D01*
X0057403Y0071964D01*
X0057469Y0072024D01*
X0057536Y0072080D01*
X0057607Y0072134D01*
X0057679Y0072184D01*
X0057754Y0072231D01*
X0057831Y0072275D01*
X0057910Y0072315D01*
X0057990Y0072352D01*
X0058072Y0072384D01*
X0058156Y0072414D01*
X0058240Y0072439D01*
X0058326Y0072461D01*
X0058412Y0072478D01*
X0058500Y0072492D01*
X0058588Y0072502D01*
X0058676Y0072508D01*
X0058764Y0072510D01*
X0058852Y0072508D01*
X0058940Y0072502D01*
X0059028Y0072492D01*
X0059116Y0072478D01*
X0059202Y0072461D01*
X0059288Y0072439D01*
X0059372Y0072414D01*
X0059456Y0072384D01*
X0059538Y0072352D01*
X0059618Y0072315D01*
X0059697Y0072275D01*
X0059774Y0072231D01*
X0059849Y0072184D01*
X0059921Y0072134D01*
X0059992Y0072080D01*
X0060059Y0072024D01*
X0060125Y0071964D01*
X0060187Y0071902D01*
X0060247Y0071836D01*
X0060303Y0071769D01*
X0060357Y0071698D01*
X0060407Y0071626D01*
X0060454Y0071551D01*
X0060498Y0071474D01*
X0060538Y0071395D01*
X0060575Y0071315D01*
X0060607Y0071233D01*
X0060637Y0071149D01*
X0060662Y0071065D01*
X0060684Y0070979D01*
X0060701Y0070893D01*
X0060715Y0070805D01*
X0060725Y0070717D01*
X0060731Y0070629D01*
X0060733Y0070541D01*
X0060731Y0070453D01*
X0060725Y0070365D01*
X0060715Y0070277D01*
X0060701Y0070189D01*
X0060684Y0070103D01*
X0060662Y0070017D01*
X0060637Y0069933D01*
X0060607Y0069849D01*
X0060575Y0069767D01*
X0060538Y0069687D01*
X0060498Y0069608D01*
X0060454Y0069531D01*
X0060407Y0069456D01*
X0060357Y0069384D01*
X0060303Y0069313D01*
X0060247Y0069246D01*
X0060187Y0069180D01*
X0060125Y0069118D01*
X0060059Y0069058D01*
X0059992Y0069002D01*
X0059921Y0068948D01*
X0059849Y0068898D01*
X0059774Y0068851D01*
X0059697Y0068807D01*
X0059618Y0068767D01*
X0059538Y0068730D01*
X0059456Y0068698D01*
X0059372Y0068668D01*
X0059288Y0068643D01*
X0059202Y0068621D01*
X0059116Y0068604D01*
X0059028Y0068590D01*
X0058940Y0068580D01*
X0058852Y0068574D01*
X0058764Y0068572D01*
X0058676Y0068574D01*
X0058588Y0068580D01*
X0058500Y0068590D01*
X0058412Y0068604D01*
X0058326Y0068621D01*
X0058240Y0068643D01*
X0058156Y0068668D01*
X0058072Y0068698D01*
X0057990Y0068730D01*
X0057910Y0068767D01*
X0057831Y0068807D01*
X0057754Y0068851D01*
X0057679Y0068898D01*
X0057607Y0068948D01*
X0057536Y0069002D01*
X0057469Y0069058D01*
X0057403Y0069118D01*
X0057341Y0069180D01*
X0057281Y0069246D01*
X0057225Y0069313D01*
X0057171Y0069384D01*
X0057121Y0069456D01*
X0057074Y0069531D01*
X0057030Y0069608D01*
X0056990Y0069687D01*
X0056953Y0069767D01*
X0056921Y0069849D01*
X0056891Y0069933D01*
X0056866Y0070017D01*
X0056844Y0070103D01*
X0056827Y0070189D01*
X0056813Y0070277D01*
X0056803Y0070365D01*
X0056797Y0070453D01*
X0056795Y0070541D01*
X0074511Y0070541D02*
X0074513Y0070629D01*
X0074519Y0070717D01*
X0074529Y0070805D01*
X0074543Y0070893D01*
X0074560Y0070979D01*
X0074582Y0071065D01*
X0074607Y0071149D01*
X0074637Y0071233D01*
X0074669Y0071315D01*
X0074706Y0071395D01*
X0074746Y0071474D01*
X0074790Y0071551D01*
X0074837Y0071626D01*
X0074887Y0071698D01*
X0074941Y0071769D01*
X0074997Y0071836D01*
X0075057Y0071902D01*
X0075119Y0071964D01*
X0075185Y0072024D01*
X0075252Y0072080D01*
X0075323Y0072134D01*
X0075395Y0072184D01*
X0075470Y0072231D01*
X0075547Y0072275D01*
X0075626Y0072315D01*
X0075706Y0072352D01*
X0075788Y0072384D01*
X0075872Y0072414D01*
X0075956Y0072439D01*
X0076042Y0072461D01*
X0076128Y0072478D01*
X0076216Y0072492D01*
X0076304Y0072502D01*
X0076392Y0072508D01*
X0076480Y0072510D01*
X0076568Y0072508D01*
X0076656Y0072502D01*
X0076744Y0072492D01*
X0076832Y0072478D01*
X0076918Y0072461D01*
X0077004Y0072439D01*
X0077088Y0072414D01*
X0077172Y0072384D01*
X0077254Y0072352D01*
X0077334Y0072315D01*
X0077413Y0072275D01*
X0077490Y0072231D01*
X0077565Y0072184D01*
X0077637Y0072134D01*
X0077708Y0072080D01*
X0077775Y0072024D01*
X0077841Y0071964D01*
X0077903Y0071902D01*
X0077963Y0071836D01*
X0078019Y0071769D01*
X0078073Y0071698D01*
X0078123Y0071626D01*
X0078170Y0071551D01*
X0078214Y0071474D01*
X0078254Y0071395D01*
X0078291Y0071315D01*
X0078323Y0071233D01*
X0078353Y0071149D01*
X0078378Y0071065D01*
X0078400Y0070979D01*
X0078417Y0070893D01*
X0078431Y0070805D01*
X0078441Y0070717D01*
X0078447Y0070629D01*
X0078449Y0070541D01*
X0078447Y0070453D01*
X0078441Y0070365D01*
X0078431Y0070277D01*
X0078417Y0070189D01*
X0078400Y0070103D01*
X0078378Y0070017D01*
X0078353Y0069933D01*
X0078323Y0069849D01*
X0078291Y0069767D01*
X0078254Y0069687D01*
X0078214Y0069608D01*
X0078170Y0069531D01*
X0078123Y0069456D01*
X0078073Y0069384D01*
X0078019Y0069313D01*
X0077963Y0069246D01*
X0077903Y0069180D01*
X0077841Y0069118D01*
X0077775Y0069058D01*
X0077708Y0069002D01*
X0077637Y0068948D01*
X0077565Y0068898D01*
X0077490Y0068851D01*
X0077413Y0068807D01*
X0077334Y0068767D01*
X0077254Y0068730D01*
X0077172Y0068698D01*
X0077088Y0068668D01*
X0077004Y0068643D01*
X0076918Y0068621D01*
X0076832Y0068604D01*
X0076744Y0068590D01*
X0076656Y0068580D01*
X0076568Y0068574D01*
X0076480Y0068572D01*
X0076392Y0068574D01*
X0076304Y0068580D01*
X0076216Y0068590D01*
X0076128Y0068604D01*
X0076042Y0068621D01*
X0075956Y0068643D01*
X0075872Y0068668D01*
X0075788Y0068698D01*
X0075706Y0068730D01*
X0075626Y0068767D01*
X0075547Y0068807D01*
X0075470Y0068851D01*
X0075395Y0068898D01*
X0075323Y0068948D01*
X0075252Y0069002D01*
X0075185Y0069058D01*
X0075119Y0069118D01*
X0075057Y0069180D01*
X0074997Y0069246D01*
X0074941Y0069313D01*
X0074887Y0069384D01*
X0074837Y0069456D01*
X0074790Y0069531D01*
X0074746Y0069608D01*
X0074706Y0069687D01*
X0074669Y0069767D01*
X0074637Y0069849D01*
X0074607Y0069933D01*
X0074582Y0070017D01*
X0074560Y0070103D01*
X0074543Y0070189D01*
X0074529Y0070277D01*
X0074519Y0070365D01*
X0074513Y0070453D01*
X0074511Y0070541D01*
D11*
X0074807Y0129734D03*
X0077957Y0129734D03*
X0079532Y0133278D03*
X0076382Y0133278D03*
X0073232Y0133278D03*
X0070083Y0133278D03*
X0068508Y0129734D03*
X0066933Y0133278D03*
X0063784Y0133278D03*
X0065358Y0129734D03*
X0062209Y0129734D03*
X0059059Y0129734D03*
X0060634Y0133278D03*
X0055910Y0129734D03*
X0066933Y0162805D03*
X0065358Y0166348D03*
X0068508Y0166348D03*
X0070083Y0162805D03*
X0071658Y0166348D03*
X0073232Y0162805D03*
X0074807Y0166348D03*
X0076382Y0162805D03*
X0077957Y0166348D03*
X0079532Y0162805D03*
X0081106Y0166348D03*
X0087406Y0166348D03*
X0090555Y0166348D03*
X0094886Y0166348D03*
X0092130Y0133278D03*
X0090555Y0129734D03*
X0087406Y0129734D03*
X0088980Y0133278D03*
X0085831Y0133278D03*
X0082681Y0133278D03*
X0081106Y0129734D03*
X0094886Y0129734D03*
D12*
X0077957Y0140167D03*
X0077957Y0143317D03*
X0077957Y0146467D03*
X0077957Y0149616D03*
X0077957Y0152766D03*
X0077957Y0155915D03*
X0055516Y0155915D03*
X0055516Y0152766D03*
X0055516Y0149616D03*
X0055516Y0146467D03*
X0055516Y0143317D03*
X0055516Y0140167D03*
X0051973Y0138593D03*
X0051973Y0135443D03*
X0051973Y0132293D03*
X0051973Y0129144D03*
X0051973Y0141742D03*
X0051973Y0144892D03*
X0051973Y0148041D03*
X0051973Y0151191D03*
X0051973Y0154341D03*
X0051973Y0157490D03*
X0051973Y0160640D03*
X0051973Y0163789D03*
X0051973Y0166939D03*
D13*
X0068872Y0175620D03*
X0068872Y0185463D03*
D14*
X0080427Y0185541D03*
X0080427Y0175541D03*
X0087317Y0175541D03*
X0087317Y0185541D03*
X0089817Y0120541D03*
X0082927Y0120541D03*
X0052317Y0110541D03*
X0045427Y0110541D03*
X0041067Y0119291D03*
X0041067Y0128041D03*
X0041067Y0136791D03*
X0034177Y0136791D03*
X0034177Y0128041D03*
X0034177Y0119291D03*
X0045427Y0091791D03*
X0052317Y0091791D03*
X0036067Y0088041D03*
X0029177Y0088041D03*
D15*
X0030260Y0078041D03*
X0034984Y0078041D03*
X0034984Y0068041D03*
X0030260Y0068041D03*
X0046510Y0100541D03*
X0051234Y0100541D03*
D16*
X0082622Y0102736D03*
X0082622Y0095846D03*
X0091372Y0095846D03*
X0091372Y0102736D03*
D17*
X0071953Y0099301D03*
X0071953Y0106781D03*
X0063291Y0099301D03*
D18*
X0063291Y0105994D03*
D19*
X0045181Y0073841D02*
X0045181Y0067241D01*
X0090063Y0067241D02*
X0090063Y0073841D01*
D20*
X0081402Y0080778D03*
X0071559Y0080778D03*
X0063685Y0080778D03*
X0053843Y0080778D03*
D21*
X0064276Y0116791D03*
X0070969Y0116791D03*
X0038469Y0175541D03*
X0031776Y0175541D03*
X0048026Y0178041D03*
X0054719Y0178041D03*
X0054719Y0189291D03*
X0048026Y0189291D03*
X0048026Y0200541D03*
X0054719Y0200541D03*
D22*
X0069453Y0196309D03*
X0069453Y0204774D03*
X0085791Y0204774D03*
X0085791Y0196309D03*
D23*
X0081156Y0113268D03*
X0081156Y0110315D03*
X0091589Y0110315D03*
X0091589Y0113268D03*
D24*
X0038075Y0200541D03*
X0032169Y0200541D03*
D25*
X0032563Y0188169D03*
X0032563Y0185413D03*
X0037681Y0185413D03*
X0037681Y0188169D03*
D26*
X0102622Y0180541D03*
X0102622Y0068041D03*
D27*
X0102622Y0078041D03*
X0102622Y0088041D03*
X0102622Y0098041D03*
X0102622Y0108041D03*
X0102622Y0190541D03*
X0102622Y0200541D03*
D28*
X0036362Y0106122D03*
X0032622Y0097461D03*
X0028882Y0106122D03*
D29*
X0030122Y0147333D03*
X0030122Y0158750D03*
X0041372Y0158750D03*
X0041372Y0147333D03*
D30*
X0033944Y0137025D02*
X0033944Y0136558D01*
X0034411Y0136558D01*
X0034411Y0132865D01*
X0034722Y0132865D01*
X0034722Y0131967D01*
X0034411Y0131967D01*
X0034411Y0128275D01*
X0033944Y0128275D01*
X0033944Y0131967D01*
X0031873Y0131967D01*
X0031416Y0131845D01*
X0031005Y0131608D01*
X0030670Y0131273D01*
X0030433Y0130862D01*
X0030310Y0130404D01*
X0030310Y0128275D01*
X0033944Y0128275D01*
X0033944Y0127808D01*
X0030310Y0127808D01*
X0030310Y0125678D01*
X0030433Y0125221D01*
X0030670Y0124810D01*
X0031005Y0124475D01*
X0031416Y0124238D01*
X0031873Y0124115D01*
X0033032Y0124115D01*
X0032734Y0123817D01*
X0031633Y0123817D01*
X0030751Y0123452D01*
X0030076Y0122777D01*
X0029710Y0121895D01*
X0029710Y0118926D01*
X0026424Y0115639D01*
X0025982Y0114573D01*
X0025982Y0111090D01*
X0025554Y0110913D01*
X0025022Y0110381D01*
X0025022Y0208141D01*
X0110222Y0208141D01*
X0110222Y0174291D01*
X0091184Y0174291D01*
X0091184Y0175308D01*
X0087551Y0175308D01*
X0087551Y0175775D01*
X0091184Y0175775D01*
X0091184Y0177904D01*
X0091061Y0178362D01*
X0090824Y0178773D01*
X0090489Y0179108D01*
X0090079Y0179345D01*
X0089621Y0179467D01*
X0087551Y0179467D01*
X0087551Y0175775D01*
X0087084Y0175775D01*
X0087084Y0179467D01*
X0086772Y0179467D01*
X0086772Y0181615D01*
X0087084Y0181615D01*
X0087084Y0185308D01*
X0087551Y0185308D01*
X0087551Y0185775D01*
X0091184Y0185775D01*
X0091184Y0187904D01*
X0091061Y0188362D01*
X0090824Y0188773D01*
X0090489Y0189108D01*
X0090079Y0189345D01*
X0089621Y0189467D01*
X0087551Y0189467D01*
X0087551Y0185775D01*
X0087084Y0185775D01*
X0087084Y0189467D01*
X0086772Y0189467D01*
X0086772Y0192630D01*
X0088336Y0192630D01*
X0089218Y0192995D01*
X0089893Y0193670D01*
X0090258Y0194552D01*
X0090258Y0198066D01*
X0089893Y0198948D01*
X0089218Y0199623D01*
X0088336Y0199989D01*
X0083247Y0199989D01*
X0082365Y0199623D01*
X0081951Y0199209D01*
X0073293Y0199209D01*
X0072879Y0199623D01*
X0071997Y0199989D01*
X0066909Y0199989D01*
X0066026Y0199623D01*
X0065351Y0198948D01*
X0064986Y0198066D01*
X0064986Y0194552D01*
X0065351Y0193670D01*
X0066026Y0192995D01*
X0066909Y0192630D01*
X0071997Y0192630D01*
X0072879Y0192995D01*
X0073293Y0193409D01*
X0080972Y0193409D01*
X0080972Y0190067D01*
X0077883Y0190067D01*
X0077001Y0189702D01*
X0076326Y0189027D01*
X0076092Y0188463D01*
X0074864Y0188463D01*
X0074647Y0188987D01*
X0073972Y0189663D01*
X0073090Y0190028D01*
X0064655Y0190028D01*
X0064272Y0189870D01*
X0064272Y0194465D01*
X0063831Y0195531D01*
X0059087Y0200274D01*
X0059087Y0203184D01*
X0058722Y0204066D01*
X0058047Y0204741D01*
X0057165Y0205107D01*
X0052273Y0205107D01*
X0051391Y0204741D01*
X0051372Y0204723D01*
X0051354Y0204741D01*
X0050472Y0205107D01*
X0045580Y0205107D01*
X0044698Y0204741D01*
X0044023Y0204066D01*
X0043764Y0203441D01*
X0041699Y0203441D01*
X0041684Y0203476D01*
X0041009Y0204151D01*
X0040127Y0204516D01*
X0036023Y0204516D01*
X0035141Y0204151D01*
X0035122Y0204132D01*
X0035104Y0204151D01*
X0034222Y0204516D01*
X0030117Y0204516D01*
X0029235Y0204151D01*
X0028560Y0203476D01*
X0028195Y0202594D01*
X0028195Y0198489D01*
X0028560Y0197607D01*
X0029235Y0196932D01*
X0030117Y0196567D01*
X0032043Y0196567D01*
X0032222Y0196387D01*
X0032222Y0191357D01*
X0031101Y0191357D01*
X0030219Y0190991D01*
X0029544Y0190316D01*
X0029179Y0189434D01*
X0029179Y0186904D01*
X0029226Y0186791D01*
X0029179Y0186678D01*
X0029179Y0184149D01*
X0029544Y0183266D01*
X0029663Y0183148D01*
X0029663Y0180107D01*
X0029330Y0180107D01*
X0028448Y0179741D01*
X0027773Y0179066D01*
X0027407Y0178184D01*
X0027407Y0172899D01*
X0027773Y0172016D01*
X0028448Y0171341D01*
X0029330Y0170976D01*
X0029893Y0170976D01*
X0027664Y0168747D01*
X0027222Y0167681D01*
X0027222Y0164078D01*
X0026400Y0163737D01*
X0025725Y0163062D01*
X0025360Y0162180D01*
X0025360Y0155320D01*
X0025725Y0154438D01*
X0026400Y0153763D01*
X0027283Y0153397D01*
X0031206Y0153397D01*
X0031918Y0152685D01*
X0027283Y0152685D01*
X0026400Y0152320D01*
X0025725Y0151645D01*
X0025360Y0150763D01*
X0025360Y0143903D01*
X0025725Y0143020D01*
X0026400Y0142345D01*
X0027283Y0141980D01*
X0031374Y0141980D01*
X0032636Y0140717D01*
X0031873Y0140717D01*
X0031416Y0140595D01*
X0031005Y0140358D01*
X0030670Y0140023D01*
X0030433Y0139612D01*
X0030310Y0139154D01*
X0030310Y0137025D01*
X0033944Y0137025D01*
X0033944Y0136558D02*
X0030310Y0136558D01*
X0030310Y0134428D01*
X0030433Y0133971D01*
X0030670Y0133560D01*
X0031005Y0133225D01*
X0031416Y0132988D01*
X0031873Y0132865D01*
X0033944Y0132865D01*
X0033944Y0136558D01*
X0033944Y0136368D02*
X0034411Y0136368D01*
X0034411Y0134770D02*
X0033944Y0134770D01*
X0033944Y0133171D02*
X0034411Y0133171D01*
X0034411Y0131573D02*
X0033944Y0131573D01*
X0033944Y0129974D02*
X0034411Y0129974D01*
X0034411Y0128376D02*
X0033944Y0128376D01*
X0030310Y0128376D02*
X0025022Y0128376D01*
X0025022Y0129974D02*
X0030310Y0129974D01*
X0030970Y0131573D02*
X0025022Y0131573D01*
X0025022Y0133171D02*
X0031098Y0133171D01*
X0030310Y0134770D02*
X0025022Y0134770D01*
X0025022Y0136368D02*
X0030310Y0136368D01*
X0030310Y0137967D02*
X0025022Y0137967D01*
X0025022Y0139565D02*
X0030421Y0139565D01*
X0032190Y0141164D02*
X0025022Y0141164D01*
X0025022Y0142762D02*
X0025983Y0142762D01*
X0025360Y0144361D02*
X0025022Y0144361D01*
X0025022Y0145959D02*
X0025360Y0145959D01*
X0025360Y0147558D02*
X0025022Y0147558D01*
X0025022Y0149156D02*
X0025360Y0149156D01*
X0025360Y0150755D02*
X0025022Y0150755D01*
X0025022Y0152354D02*
X0026481Y0152354D01*
X0026211Y0153952D02*
X0025022Y0153952D01*
X0025022Y0155551D02*
X0025360Y0155551D01*
X0025360Y0157149D02*
X0025022Y0157149D01*
X0025022Y0158748D02*
X0025360Y0158748D01*
X0025360Y0160346D02*
X0025022Y0160346D01*
X0025022Y0161945D02*
X0025360Y0161945D01*
X0025022Y0163543D02*
X0026206Y0163543D01*
X0027222Y0165142D02*
X0025022Y0165142D01*
X0025022Y0166740D02*
X0027222Y0166740D01*
X0027495Y0168339D02*
X0025022Y0168339D01*
X0025022Y0169937D02*
X0028854Y0169937D01*
X0028253Y0171536D02*
X0025022Y0171536D01*
X0025022Y0173134D02*
X0027407Y0173134D01*
X0027407Y0174733D02*
X0025022Y0174733D01*
X0025022Y0176331D02*
X0027407Y0176331D01*
X0027407Y0177930D02*
X0025022Y0177930D01*
X0025022Y0179528D02*
X0028235Y0179528D01*
X0029663Y0181127D02*
X0025022Y0181127D01*
X0025022Y0182725D02*
X0029663Y0182725D01*
X0029179Y0184324D02*
X0025022Y0184324D01*
X0025022Y0185922D02*
X0029179Y0185922D01*
X0029179Y0187521D02*
X0025022Y0187521D01*
X0025022Y0189119D02*
X0029179Y0189119D01*
X0029946Y0190718D02*
X0025022Y0190718D01*
X0025022Y0192316D02*
X0032222Y0192316D01*
X0032222Y0193915D02*
X0025022Y0193915D01*
X0025022Y0195513D02*
X0032222Y0195513D01*
X0029055Y0197112D02*
X0025022Y0197112D01*
X0025022Y0198710D02*
X0028195Y0198710D01*
X0028195Y0200309D02*
X0025022Y0200309D01*
X0025022Y0201907D02*
X0028195Y0201907D01*
X0028590Y0203506D02*
X0025022Y0203506D01*
X0025022Y0205104D02*
X0045574Y0205104D01*
X0043791Y0203506D02*
X0041654Y0203506D01*
X0050477Y0205104D02*
X0052267Y0205104D01*
X0057170Y0205104D02*
X0065586Y0205104D01*
X0065586Y0204774D02*
X0069453Y0204774D01*
X0069453Y0204774D01*
X0069453Y0207853D01*
X0071757Y0207853D01*
X0072215Y0207730D01*
X0072625Y0207494D01*
X0072960Y0207158D01*
X0073197Y0206748D01*
X0073320Y0206290D01*
X0073320Y0204774D01*
X0069453Y0204774D01*
X0069453Y0207853D01*
X0067149Y0207853D01*
X0066691Y0207730D01*
X0066281Y0207494D01*
X0065946Y0207158D01*
X0065709Y0206748D01*
X0065586Y0206290D01*
X0065586Y0204774D01*
X0065586Y0203257D01*
X0065709Y0202799D01*
X0065946Y0202389D01*
X0066281Y0202054D01*
X0066691Y0201817D01*
X0067149Y0201694D01*
X0069453Y0201694D01*
X0071757Y0201694D01*
X0072215Y0201817D01*
X0072625Y0202054D01*
X0072960Y0202389D01*
X0073197Y0202799D01*
X0073320Y0203257D01*
X0073320Y0204774D01*
X0069453Y0204774D01*
X0069453Y0204774D01*
X0069453Y0204774D01*
X0065586Y0204774D01*
X0065586Y0203506D02*
X0058954Y0203506D01*
X0059087Y0201907D02*
X0066534Y0201907D01*
X0065253Y0198710D02*
X0060651Y0198710D01*
X0059087Y0200309D02*
X0096972Y0200309D01*
X0096972Y0199417D02*
X0096972Y0201665D01*
X0097832Y0203742D01*
X0099422Y0205331D01*
X0101498Y0206191D01*
X0103746Y0206191D01*
X0105823Y0205331D01*
X0107412Y0203742D01*
X0108272Y0201665D01*
X0108272Y0199417D01*
X0107412Y0197341D01*
X0105823Y0195752D01*
X0105315Y0195541D01*
X0105823Y0195331D01*
X0107412Y0193742D01*
X0108272Y0191665D01*
X0108272Y0189417D01*
X0107412Y0187341D01*
X0105823Y0185752D01*
X0105436Y0185591D01*
X0106109Y0185591D01*
X0106567Y0185469D01*
X0106977Y0185232D01*
X0107313Y0184897D01*
X0107549Y0184486D01*
X0107672Y0184028D01*
X0107672Y0180616D01*
X0102697Y0180616D01*
X0102697Y0180466D01*
X0102697Y0175491D01*
X0106109Y0175491D01*
X0106567Y0175614D01*
X0106977Y0175851D01*
X0107313Y0176186D01*
X0107549Y0176597D01*
X0107672Y0177054D01*
X0107672Y0180466D01*
X0102697Y0180466D01*
X0102547Y0180466D01*
X0102547Y0175491D01*
X0099135Y0175491D01*
X0098677Y0175614D01*
X0098267Y0175851D01*
X0097932Y0176186D01*
X0097695Y0176597D01*
X0097572Y0177054D01*
X0097572Y0180466D01*
X0102547Y0180466D01*
X0102547Y0180616D01*
X0097572Y0180616D01*
X0097572Y0184028D01*
X0097695Y0184486D01*
X0097932Y0184897D01*
X0098267Y0185232D01*
X0098677Y0185469D01*
X0099135Y0185591D01*
X0099808Y0185591D01*
X0099422Y0185752D01*
X0097832Y0187341D01*
X0096972Y0189417D01*
X0096972Y0191665D01*
X0097832Y0193742D01*
X0099422Y0195331D01*
X0099929Y0195541D01*
X0099422Y0195752D01*
X0097832Y0197341D01*
X0096972Y0199417D01*
X0097265Y0198710D02*
X0089991Y0198710D01*
X0090258Y0197112D02*
X0098061Y0197112D01*
X0098005Y0193915D02*
X0089994Y0193915D01*
X0090258Y0195513D02*
X0099861Y0195513D01*
X0097242Y0192316D02*
X0086772Y0192316D01*
X0086772Y0190718D02*
X0096972Y0190718D01*
X0097096Y0189119D02*
X0090469Y0189119D01*
X0091184Y0187521D02*
X0097758Y0187521D01*
X0099251Y0185922D02*
X0091184Y0185922D01*
X0091184Y0185308D02*
X0087551Y0185308D01*
X0087551Y0181615D01*
X0089621Y0181615D01*
X0090079Y0181738D01*
X0090489Y0181975D01*
X0090824Y0182310D01*
X0091061Y0182721D01*
X0091184Y0183178D01*
X0091184Y0185308D01*
X0091184Y0184324D02*
X0097651Y0184324D01*
X0097572Y0182725D02*
X0091063Y0182725D01*
X0091177Y0177930D02*
X0097572Y0177930D01*
X0097572Y0179528D02*
X0086772Y0179528D01*
X0086772Y0181127D02*
X0097572Y0181127D01*
X0097848Y0176331D02*
X0091184Y0176331D01*
X0091184Y0174733D02*
X0110222Y0174733D01*
X0110222Y0176331D02*
X0107396Y0176331D01*
X0107672Y0177930D02*
X0110222Y0177930D01*
X0110222Y0179528D02*
X0107672Y0179528D01*
X0107672Y0181127D02*
X0110222Y0181127D01*
X0110222Y0182725D02*
X0107672Y0182725D01*
X0107593Y0184324D02*
X0110222Y0184324D01*
X0110222Y0185922D02*
X0105993Y0185922D01*
X0107487Y0187521D02*
X0110222Y0187521D01*
X0110222Y0189119D02*
X0108149Y0189119D01*
X0108272Y0190718D02*
X0110222Y0190718D01*
X0110222Y0192316D02*
X0108002Y0192316D01*
X0107239Y0193915D02*
X0110222Y0193915D01*
X0110222Y0195513D02*
X0105383Y0195513D01*
X0107183Y0197112D02*
X0110222Y0197112D01*
X0110222Y0198710D02*
X0107979Y0198710D01*
X0108272Y0200309D02*
X0110222Y0200309D01*
X0110222Y0201907D02*
X0108172Y0201907D01*
X0107510Y0203506D02*
X0110222Y0203506D01*
X0110222Y0205104D02*
X0106049Y0205104D01*
X0110222Y0206703D02*
X0089548Y0206703D01*
X0089536Y0206748D02*
X0089299Y0207158D01*
X0088964Y0207494D01*
X0088553Y0207730D01*
X0088095Y0207853D01*
X0085792Y0207853D01*
X0085792Y0204774D01*
X0089658Y0204774D01*
X0089658Y0206290D01*
X0089536Y0206748D01*
X0089658Y0205104D02*
X0099195Y0205104D01*
X0097735Y0203506D02*
X0089658Y0203506D01*
X0089658Y0203257D02*
X0089658Y0204774D01*
X0085792Y0204774D01*
X0085792Y0204774D01*
X0085791Y0204774D01*
X0085791Y0204774D01*
X0081925Y0204774D01*
X0081925Y0206290D01*
X0082047Y0206748D01*
X0082284Y0207158D01*
X0082619Y0207494D01*
X0083030Y0207730D01*
X0083488Y0207853D01*
X0085791Y0207853D01*
X0085791Y0204774D01*
X0081925Y0204774D01*
X0081925Y0203257D01*
X0082047Y0202799D01*
X0082284Y0202389D01*
X0082619Y0202054D01*
X0083030Y0201817D01*
X0083488Y0201694D01*
X0085791Y0201694D01*
X0085791Y0204773D01*
X0085792Y0204773D01*
X0085792Y0201694D01*
X0088095Y0201694D01*
X0088553Y0201817D01*
X0088964Y0202054D01*
X0089299Y0202389D01*
X0089536Y0202799D01*
X0089658Y0203257D01*
X0088710Y0201907D02*
X0097072Y0201907D01*
X0087551Y0189119D02*
X0087084Y0189119D01*
X0087084Y0187521D02*
X0087551Y0187521D01*
X0087551Y0185922D02*
X0087084Y0185922D01*
X0087084Y0184324D02*
X0087551Y0184324D01*
X0087551Y0182725D02*
X0087084Y0182725D01*
X0087084Y0177930D02*
X0087551Y0177930D01*
X0087551Y0176331D02*
X0087084Y0176331D01*
X0080972Y0190718D02*
X0064272Y0190718D01*
X0064272Y0192316D02*
X0080972Y0192316D01*
X0076418Y0189119D02*
X0074515Y0189119D01*
X0072371Y0201907D02*
X0082873Y0201907D01*
X0081925Y0203506D02*
X0073320Y0203506D01*
X0073320Y0205104D02*
X0081925Y0205104D01*
X0082035Y0206703D02*
X0073209Y0206703D01*
X0069453Y0206703D02*
X0069453Y0206703D01*
X0069453Y0205104D02*
X0069453Y0205104D01*
X0069453Y0204773D02*
X0069453Y0201694D01*
X0069453Y0204773D01*
X0069453Y0204773D01*
X0069453Y0203506D02*
X0069453Y0203506D01*
X0069453Y0201907D02*
X0069453Y0201907D01*
X0065697Y0206703D02*
X0025022Y0206703D01*
X0062249Y0197112D02*
X0064986Y0197112D01*
X0064986Y0195513D02*
X0063838Y0195513D01*
X0064272Y0193915D02*
X0065250Y0193915D01*
X0085791Y0201907D02*
X0085792Y0201907D01*
X0085791Y0203506D02*
X0085792Y0203506D01*
X0085791Y0205104D02*
X0085792Y0205104D01*
X0085791Y0206703D02*
X0085792Y0206703D01*
X0102547Y0179528D02*
X0102697Y0179528D01*
X0102697Y0177930D02*
X0102547Y0177930D01*
X0102547Y0176331D02*
X0102697Y0176331D01*
X0099897Y0121791D02*
X0110222Y0121791D01*
X0110222Y0060441D01*
X0025022Y0060441D01*
X0025022Y0101863D01*
X0025554Y0101332D01*
X0026436Y0100966D01*
X0028366Y0100966D01*
X0028254Y0100694D01*
X0028254Y0094227D01*
X0028619Y0093345D01*
X0029294Y0092670D01*
X0029722Y0092493D01*
X0029722Y0091967D01*
X0029411Y0091967D01*
X0029411Y0088275D01*
X0028944Y0088275D01*
X0028944Y0091967D01*
X0026873Y0091967D01*
X0026416Y0091845D01*
X0026005Y0091608D01*
X0025670Y0091273D01*
X0025433Y0090862D01*
X0025310Y0090404D01*
X0025310Y0088275D01*
X0028944Y0088275D01*
X0028944Y0087808D01*
X0029411Y0087808D01*
X0029411Y0084115D01*
X0031481Y0084115D01*
X0031939Y0084238D01*
X0032157Y0084364D01*
X0032641Y0083881D01*
X0033523Y0083515D01*
X0038611Y0083515D01*
X0039493Y0083881D01*
X0040169Y0084556D01*
X0040534Y0085438D01*
X0040534Y0090645D01*
X0040169Y0091527D01*
X0039493Y0092202D01*
X0038611Y0092567D01*
X0035702Y0092567D01*
X0035950Y0092670D01*
X0036625Y0093345D01*
X0036991Y0094227D01*
X0036991Y0097541D01*
X0042838Y0097541D01*
X0043330Y0097050D01*
X0044212Y0096685D01*
X0048234Y0096685D01*
X0048234Y0095568D01*
X0048189Y0095595D01*
X0047731Y0095717D01*
X0045661Y0095717D01*
X0045661Y0092025D01*
X0045194Y0092025D01*
X0045194Y0095717D01*
X0043123Y0095717D01*
X0042666Y0095595D01*
X0042255Y0095358D01*
X0041920Y0095023D01*
X0041683Y0094612D01*
X0041560Y0094154D01*
X0041560Y0092025D01*
X0045194Y0092025D01*
X0045194Y0091558D01*
X0045661Y0091558D01*
X0045661Y0087865D01*
X0047731Y0087865D01*
X0048189Y0087988D01*
X0048407Y0088114D01*
X0048891Y0087631D01*
X0049773Y0087265D01*
X0054861Y0087265D01*
X0055743Y0087631D01*
X0055872Y0087759D01*
X0055872Y0087115D01*
X0051003Y0087115D01*
X0050121Y0086749D01*
X0049446Y0086074D01*
X0049080Y0085192D01*
X0049080Y0083441D01*
X0036908Y0083441D01*
X0035842Y0083000D01*
X0034740Y0081898D01*
X0032686Y0081898D01*
X0031804Y0081533D01*
X0031569Y0081298D01*
X0030260Y0081298D01*
X0030260Y0078041D01*
X0030260Y0074785D01*
X0031569Y0074785D01*
X0031804Y0074550D01*
X0032686Y0074185D01*
X0037283Y0074185D01*
X0038165Y0074550D01*
X0038840Y0075225D01*
X0039205Y0076107D01*
X0039205Y0077641D01*
X0040920Y0077641D01*
X0040349Y0077070D01*
X0039481Y0074975D01*
X0039481Y0073441D01*
X0036908Y0073441D01*
X0035842Y0073000D01*
X0034740Y0071898D01*
X0032686Y0071898D01*
X0031804Y0071533D01*
X0031569Y0071298D01*
X0030260Y0071298D01*
X0030260Y0068041D01*
X0030260Y0064785D01*
X0031569Y0064785D01*
X0031804Y0064550D01*
X0032686Y0064185D01*
X0037283Y0064185D01*
X0038165Y0064550D01*
X0038840Y0065225D01*
X0039205Y0066107D01*
X0039205Y0067641D01*
X0039481Y0067641D01*
X0039481Y0066108D01*
X0040349Y0064013D01*
X0041952Y0062409D01*
X0044047Y0061541D01*
X0046315Y0061541D01*
X0048410Y0062409D01*
X0050013Y0064013D01*
X0050881Y0066108D01*
X0050881Y0067641D01*
X0052046Y0067641D01*
X0054851Y0064836D01*
X0055667Y0064020D01*
X0056733Y0063579D01*
X0085665Y0063579D01*
X0086834Y0062409D01*
X0088929Y0061541D01*
X0091197Y0061541D01*
X0093292Y0062409D01*
X0094895Y0064013D01*
X0095763Y0066108D01*
X0095763Y0074975D01*
X0094895Y0077070D01*
X0093292Y0078674D01*
X0091197Y0079541D01*
X0088929Y0079541D01*
X0086834Y0078674D01*
X0086164Y0078003D01*
X0086164Y0085192D01*
X0085799Y0086074D01*
X0085123Y0086749D01*
X0084402Y0087048D01*
X0084402Y0089546D01*
X0083945Y0090649D01*
X0082389Y0092205D01*
X0082389Y0095613D01*
X0082856Y0095613D01*
X0082856Y0096080D01*
X0086548Y0096080D01*
X0086548Y0098150D01*
X0086425Y0098608D01*
X0086299Y0098826D01*
X0086783Y0099310D01*
X0086959Y0099736D01*
X0087035Y0099736D01*
X0087212Y0099310D01*
X0087695Y0098826D01*
X0087569Y0098608D01*
X0087446Y0098150D01*
X0087446Y0096080D01*
X0091139Y0096080D01*
X0091139Y0095613D01*
X0091606Y0095613D01*
X0091606Y0091980D01*
X0092222Y0091980D01*
X0092222Y0084964D01*
X0092664Y0083899D01*
X0093479Y0083083D01*
X0097097Y0079466D01*
X0096972Y0079165D01*
X0096972Y0076917D01*
X0097832Y0074841D01*
X0099422Y0073252D01*
X0099808Y0073091D01*
X0099135Y0073091D01*
X0098677Y0072969D01*
X0098267Y0072732D01*
X0097932Y0072397D01*
X0097695Y0071986D01*
X0097572Y0071528D01*
X0097572Y0068116D01*
X0102547Y0068116D01*
X0102547Y0067966D01*
X0102697Y0067966D01*
X0102697Y0062991D01*
X0106109Y0062991D01*
X0106567Y0063114D01*
X0106977Y0063351D01*
X0107313Y0063686D01*
X0107549Y0064097D01*
X0107672Y0064554D01*
X0107672Y0067966D01*
X0102697Y0067966D01*
X0102697Y0068116D01*
X0107672Y0068116D01*
X0107672Y0071528D01*
X0107549Y0071986D01*
X0107313Y0072397D01*
X0106977Y0072732D01*
X0106567Y0072969D01*
X0106109Y0073091D01*
X0105436Y0073091D01*
X0105823Y0073252D01*
X0107412Y0074841D01*
X0108272Y0076917D01*
X0108272Y0079165D01*
X0107412Y0081242D01*
X0105823Y0082831D01*
X0105315Y0083041D01*
X0105823Y0083252D01*
X0107412Y0084841D01*
X0108272Y0086917D01*
X0108272Y0089165D01*
X0107412Y0091242D01*
X0105823Y0092831D01*
X0105315Y0093041D01*
X0105823Y0093252D01*
X0107412Y0094841D01*
X0108272Y0096917D01*
X0108272Y0099165D01*
X0107412Y0101242D01*
X0105823Y0102831D01*
X0105315Y0103041D01*
X0105823Y0103252D01*
X0107412Y0104841D01*
X0108272Y0106917D01*
X0108272Y0109165D01*
X0107412Y0111242D01*
X0105823Y0112831D01*
X0103746Y0113691D01*
X0101498Y0113691D01*
X0099897Y0113028D01*
X0099897Y0121791D01*
X0099897Y0120383D02*
X0110222Y0120383D01*
X0110222Y0118785D02*
X0099897Y0118785D01*
X0099897Y0117186D02*
X0110222Y0117186D01*
X0110222Y0115588D02*
X0099897Y0115588D01*
X0099897Y0113989D02*
X0110222Y0113989D01*
X0110222Y0112391D02*
X0106263Y0112391D01*
X0107598Y0110792D02*
X0110222Y0110792D01*
X0110222Y0109194D02*
X0108260Y0109194D01*
X0108272Y0107595D02*
X0110222Y0107595D01*
X0110222Y0105997D02*
X0107891Y0105997D01*
X0106969Y0104398D02*
X0110222Y0104398D01*
X0110222Y0102800D02*
X0105854Y0102800D01*
X0107429Y0101201D02*
X0110222Y0101201D01*
X0110222Y0099603D02*
X0108091Y0099603D01*
X0108272Y0098004D02*
X0110222Y0098004D01*
X0110222Y0096406D02*
X0108060Y0096406D01*
X0107378Y0094807D02*
X0110222Y0094807D01*
X0110222Y0093209D02*
X0105719Y0093209D01*
X0107044Y0091610D02*
X0110222Y0091610D01*
X0110222Y0090012D02*
X0107922Y0090012D01*
X0108272Y0088413D02*
X0110222Y0088413D01*
X0110222Y0086815D02*
X0108230Y0086815D01*
X0107567Y0085216D02*
X0110222Y0085216D01*
X0110222Y0083618D02*
X0106189Y0083618D01*
X0106635Y0082019D02*
X0110222Y0082019D01*
X0110222Y0080420D02*
X0107752Y0080420D01*
X0108272Y0078822D02*
X0110222Y0078822D01*
X0110222Y0077223D02*
X0108272Y0077223D01*
X0107737Y0075625D02*
X0110222Y0075625D01*
X0110222Y0074026D02*
X0106598Y0074026D01*
X0107281Y0072428D02*
X0110222Y0072428D01*
X0110222Y0070829D02*
X0107672Y0070829D01*
X0107672Y0069231D02*
X0110222Y0069231D01*
X0110222Y0067632D02*
X0107672Y0067632D01*
X0107672Y0066034D02*
X0110222Y0066034D01*
X0110222Y0064435D02*
X0107640Y0064435D01*
X0110222Y0062837D02*
X0093720Y0062837D01*
X0095070Y0064435D02*
X0097604Y0064435D01*
X0097572Y0064554D02*
X0097695Y0064097D01*
X0097932Y0063686D01*
X0098267Y0063351D01*
X0098677Y0063114D01*
X0099135Y0062991D01*
X0102547Y0062991D01*
X0102547Y0067966D01*
X0097572Y0067966D01*
X0097572Y0064554D01*
X0097572Y0066034D02*
X0095733Y0066034D01*
X0095763Y0067632D02*
X0097572Y0067632D01*
X0097572Y0069231D02*
X0095763Y0069231D01*
X0095763Y0070829D02*
X0097572Y0070829D01*
X0097963Y0072428D02*
X0095763Y0072428D01*
X0095763Y0074026D02*
X0098647Y0074026D01*
X0097508Y0075625D02*
X0095494Y0075625D01*
X0094742Y0077223D02*
X0096972Y0077223D01*
X0096972Y0078822D02*
X0092934Y0078822D01*
X0094543Y0082019D02*
X0086164Y0082019D01*
X0086164Y0080420D02*
X0096142Y0080420D01*
X0092945Y0083618D02*
X0086164Y0083618D01*
X0086154Y0085216D02*
X0092222Y0085216D01*
X0092222Y0086815D02*
X0084966Y0086815D01*
X0084402Y0088413D02*
X0092222Y0088413D01*
X0092222Y0090012D02*
X0084209Y0090012D01*
X0082984Y0091610D02*
X0092222Y0091610D01*
X0091139Y0091980D02*
X0091139Y0095613D01*
X0087446Y0095613D01*
X0087446Y0093543D01*
X0087569Y0093085D01*
X0087806Y0092674D01*
X0088141Y0092339D01*
X0088551Y0092102D01*
X0089009Y0091980D01*
X0091139Y0091980D01*
X0091139Y0093209D02*
X0091606Y0093209D01*
X0091606Y0094807D02*
X0091139Y0094807D01*
X0087446Y0094807D02*
X0086548Y0094807D01*
X0086548Y0095613D02*
X0082856Y0095613D01*
X0082856Y0091980D01*
X0084985Y0091980D01*
X0085443Y0092102D01*
X0085853Y0092339D01*
X0086189Y0092674D01*
X0086425Y0093085D01*
X0086548Y0093543D01*
X0086548Y0095613D01*
X0086548Y0096406D02*
X0087446Y0096406D01*
X0087446Y0098004D02*
X0086548Y0098004D01*
X0086904Y0099603D02*
X0087090Y0099603D01*
X0087035Y0105736D02*
X0086959Y0105736D01*
X0086783Y0106163D01*
X0086108Y0106838D01*
X0085226Y0107203D01*
X0084891Y0107203D01*
X0084322Y0107772D01*
X0083784Y0108310D01*
X0083916Y0108537D01*
X0084038Y0108995D01*
X0084038Y0110315D01*
X0084038Y0111635D01*
X0083996Y0111791D01*
X0084038Y0111948D01*
X0084038Y0113268D01*
X0084038Y0114587D01*
X0083916Y0115045D01*
X0083679Y0115456D01*
X0083344Y0115791D01*
X0082933Y0116028D01*
X0082475Y0116150D01*
X0081156Y0116150D01*
X0081156Y0113268D01*
X0084038Y0113268D01*
X0081156Y0113268D01*
X0081156Y0113268D01*
X0081156Y0113268D01*
X0081156Y0116150D01*
X0079836Y0116150D01*
X0079378Y0116028D01*
X0078968Y0115791D01*
X0078633Y0115456D01*
X0078396Y0115045D01*
X0078273Y0114587D01*
X0078273Y0113268D01*
X0081155Y0113268D01*
X0081155Y0113268D01*
X0078273Y0113268D01*
X0078273Y0111948D01*
X0078315Y0111791D01*
X0078273Y0111635D01*
X0078273Y0110315D01*
X0081155Y0110315D01*
X0078273Y0110315D01*
X0078273Y0109781D01*
X0076958Y0109781D01*
X0076822Y0110109D01*
X0076147Y0110785D01*
X0075265Y0111150D01*
X0068641Y0111150D01*
X0067759Y0110785D01*
X0067084Y0110109D01*
X0067008Y0109926D01*
X0066821Y0110034D01*
X0066363Y0110156D01*
X0063673Y0110156D01*
X0063673Y0106375D01*
X0062910Y0106375D01*
X0062910Y0105613D01*
X0058657Y0105613D01*
X0058657Y0103395D01*
X0058769Y0102976D01*
X0058422Y0102629D01*
X0058057Y0101747D01*
X0058057Y0096855D01*
X0058422Y0095973D01*
X0059097Y0095298D01*
X0059133Y0095283D01*
X0059066Y0095123D01*
X0059066Y0093460D01*
X0059151Y0093255D01*
X0058915Y0093491D01*
X0058072Y0094335D01*
X0056969Y0094791D01*
X0056620Y0094791D01*
X0056419Y0095277D01*
X0055743Y0095952D01*
X0054861Y0096317D01*
X0054234Y0096317D01*
X0054234Y0096975D01*
X0054415Y0097050D01*
X0055090Y0097725D01*
X0055455Y0098607D01*
X0055455Y0102475D01*
X0055090Y0103358D01*
X0054415Y0104033D01*
X0053533Y0104398D01*
X0049410Y0104398D01*
X0049410Y0106822D01*
X0049555Y0106738D01*
X0050013Y0106615D01*
X0052084Y0106615D01*
X0052084Y0110308D01*
X0052551Y0110308D01*
X0052551Y0110775D01*
X0056184Y0110775D01*
X0056184Y0112904D01*
X0056061Y0113362D01*
X0055824Y0113773D01*
X0055489Y0114108D01*
X0055079Y0114345D01*
X0054621Y0114467D01*
X0052551Y0114467D01*
X0052551Y0110775D01*
X0052084Y0110775D01*
X0052084Y0114467D01*
X0050013Y0114467D01*
X0049555Y0114345D01*
X0049337Y0114219D01*
X0048854Y0114702D01*
X0048327Y0114920D01*
X0048327Y0121791D01*
X0052334Y0121791D01*
X0052754Y0121372D01*
X0054290Y0120735D01*
X0055954Y0120735D01*
X0057466Y0121362D01*
X0058978Y0120735D01*
X0060641Y0120735D01*
X0060727Y0120771D01*
X0060273Y0120316D01*
X0059907Y0119434D01*
X0059907Y0114149D01*
X0060273Y0113266D01*
X0060948Y0112591D01*
X0061830Y0112226D01*
X0066722Y0112226D01*
X0067604Y0112591D01*
X0067622Y0112610D01*
X0067641Y0112591D01*
X0068523Y0112226D01*
X0073415Y0112226D01*
X0074297Y0112591D01*
X0074972Y0113266D01*
X0075337Y0114149D01*
X0075337Y0119434D01*
X0074972Y0120316D01*
X0074297Y0120991D01*
X0073869Y0121169D01*
X0073869Y0121791D01*
X0079060Y0121791D01*
X0079060Y0120775D01*
X0082694Y0120775D01*
X0082694Y0120308D01*
X0083161Y0120308D01*
X0083161Y0116615D01*
X0085231Y0116615D01*
X0085689Y0116738D01*
X0085907Y0116864D01*
X0085972Y0116799D01*
X0085972Y0110902D01*
X0086414Y0109836D01*
X0087229Y0109020D01*
X0088393Y0107856D01*
X0088555Y0107790D01*
X0089141Y0107203D01*
X0088769Y0107203D01*
X0087887Y0106838D01*
X0087212Y0106163D01*
X0087035Y0105736D01*
X0087143Y0105997D02*
X0086852Y0105997D01*
X0087056Y0109194D02*
X0084038Y0109194D01*
X0084038Y0110315D02*
X0081156Y0110315D01*
X0084038Y0110315D01*
X0084038Y0110792D02*
X0086018Y0110792D01*
X0085972Y0112391D02*
X0084038Y0112391D01*
X0084038Y0113989D02*
X0085972Y0113989D01*
X0085972Y0115588D02*
X0083547Y0115588D01*
X0082694Y0116615D02*
X0082694Y0120308D01*
X0079060Y0120308D01*
X0079060Y0118178D01*
X0079183Y0117721D01*
X0079420Y0117310D01*
X0079755Y0116975D01*
X0080166Y0116738D01*
X0080623Y0116615D01*
X0082694Y0116615D01*
X0082694Y0117186D02*
X0083161Y0117186D01*
X0083161Y0118785D02*
X0082694Y0118785D01*
X0082694Y0120383D02*
X0074905Y0120383D01*
X0075337Y0118785D02*
X0079060Y0118785D01*
X0079544Y0117186D02*
X0075337Y0117186D01*
X0075337Y0115588D02*
X0078765Y0115588D01*
X0078273Y0113989D02*
X0075271Y0113989D01*
X0073812Y0112391D02*
X0078273Y0112391D01*
X0078273Y0110792D02*
X0076129Y0110792D01*
X0081156Y0110792D02*
X0081156Y0110792D01*
X0081156Y0110315D02*
X0081156Y0113198D01*
X0081156Y0113268D01*
X0081156Y0110315D01*
X0081156Y0110315D01*
X0081156Y0110315D01*
X0081155Y0110315D02*
X0081155Y0110315D01*
X0081156Y0112391D02*
X0081156Y0112391D01*
X0081156Y0113268D02*
X0081156Y0113268D01*
X0081156Y0113989D02*
X0081156Y0113989D01*
X0081156Y0115588D02*
X0081156Y0115588D01*
X0084498Y0107595D02*
X0088749Y0107595D01*
X0082856Y0094807D02*
X0082389Y0094807D01*
X0082389Y0093209D02*
X0082856Y0093209D01*
X0086459Y0093209D02*
X0087536Y0093209D01*
X0087193Y0078822D02*
X0086164Y0078822D01*
X0086407Y0062837D02*
X0048838Y0062837D01*
X0050189Y0064435D02*
X0055252Y0064435D01*
X0053653Y0066034D02*
X0050851Y0066034D01*
X0050881Y0067632D02*
X0052055Y0067632D01*
X0049080Y0083618D02*
X0038858Y0083618D01*
X0040442Y0085216D02*
X0049090Y0085216D01*
X0050279Y0086815D02*
X0040534Y0086815D01*
X0040534Y0088413D02*
X0042067Y0088413D01*
X0041920Y0088560D02*
X0042255Y0088225D01*
X0042666Y0087988D01*
X0043123Y0087865D01*
X0045194Y0087865D01*
X0045194Y0091558D01*
X0041560Y0091558D01*
X0041560Y0089428D01*
X0041683Y0088971D01*
X0041920Y0088560D01*
X0041560Y0090012D02*
X0040534Y0090012D01*
X0040085Y0091610D02*
X0045194Y0091610D01*
X0045194Y0090012D02*
X0045661Y0090012D01*
X0045661Y0088413D02*
X0045194Y0088413D01*
X0045194Y0093209D02*
X0045661Y0093209D01*
X0045661Y0094807D02*
X0045194Y0094807D01*
X0048234Y0096406D02*
X0036991Y0096406D01*
X0036991Y0094807D02*
X0041796Y0094807D01*
X0041560Y0093209D02*
X0036489Y0093209D01*
X0033276Y0083618D02*
X0025022Y0083618D01*
X0026005Y0084475D02*
X0026416Y0084238D01*
X0026873Y0084115D01*
X0028944Y0084115D01*
X0028944Y0087808D01*
X0025310Y0087808D01*
X0025310Y0085678D01*
X0025433Y0085221D01*
X0025670Y0084810D01*
X0026005Y0084475D01*
X0025436Y0085216D02*
X0025022Y0085216D01*
X0025022Y0086815D02*
X0025310Y0086815D01*
X0025310Y0088413D02*
X0025022Y0088413D01*
X0025022Y0090012D02*
X0025310Y0090012D01*
X0025022Y0091610D02*
X0026009Y0091610D01*
X0025022Y0093209D02*
X0028756Y0093209D01*
X0028944Y0091610D02*
X0029411Y0091610D01*
X0029411Y0090012D02*
X0028944Y0090012D01*
X0028944Y0088413D02*
X0029411Y0088413D01*
X0029411Y0086815D02*
X0028944Y0086815D01*
X0028944Y0085216D02*
X0029411Y0085216D01*
X0030260Y0081298D02*
X0028202Y0081298D01*
X0027744Y0081175D01*
X0027334Y0080938D01*
X0026999Y0080603D01*
X0026762Y0080193D01*
X0026639Y0079735D01*
X0026639Y0078041D01*
X0026639Y0076348D01*
X0026762Y0075890D01*
X0026999Y0075479D01*
X0027334Y0075144D01*
X0027744Y0074907D01*
X0028202Y0074785D01*
X0030260Y0074785D01*
X0030260Y0078041D01*
X0030260Y0078041D01*
X0026639Y0078041D01*
X0030260Y0078041D01*
X0030260Y0078041D01*
X0030260Y0078041D01*
X0030260Y0081298D01*
X0030260Y0080420D02*
X0030260Y0080420D01*
X0030260Y0078822D02*
X0030260Y0078822D01*
X0030260Y0077223D02*
X0030260Y0077223D01*
X0030260Y0075625D02*
X0030260Y0075625D01*
X0030260Y0071298D02*
X0028202Y0071298D01*
X0027744Y0071175D01*
X0027334Y0070938D01*
X0026999Y0070603D01*
X0026762Y0070193D01*
X0026639Y0069735D01*
X0026639Y0068041D01*
X0026639Y0066348D01*
X0026762Y0065890D01*
X0026999Y0065479D01*
X0027334Y0065144D01*
X0027744Y0064907D01*
X0028202Y0064785D01*
X0030260Y0064785D01*
X0030260Y0068041D01*
X0030260Y0068041D01*
X0026639Y0068041D01*
X0030260Y0068041D01*
X0030260Y0068041D01*
X0030260Y0068041D01*
X0030260Y0071298D01*
X0030260Y0070829D02*
X0030260Y0070829D01*
X0030260Y0069231D02*
X0030260Y0069231D01*
X0030260Y0067632D02*
X0030260Y0067632D01*
X0030260Y0066034D02*
X0030260Y0066034D01*
X0032081Y0064435D02*
X0025022Y0064435D01*
X0025022Y0062837D02*
X0041525Y0062837D01*
X0040174Y0064435D02*
X0037888Y0064435D01*
X0039175Y0066034D02*
X0039512Y0066034D01*
X0039481Y0067632D02*
X0039205Y0067632D01*
X0039481Y0074026D02*
X0025022Y0074026D01*
X0025022Y0072428D02*
X0035270Y0072428D01*
X0039005Y0075625D02*
X0039750Y0075625D01*
X0039205Y0077223D02*
X0040502Y0077223D01*
X0034861Y0082019D02*
X0025022Y0082019D01*
X0025022Y0080420D02*
X0026893Y0080420D01*
X0026639Y0078822D02*
X0025022Y0078822D01*
X0025022Y0077223D02*
X0026639Y0077223D01*
X0026915Y0075625D02*
X0025022Y0075625D01*
X0025022Y0070829D02*
X0027225Y0070829D01*
X0026639Y0069231D02*
X0025022Y0069231D01*
X0025022Y0067632D02*
X0026639Y0067632D01*
X0026723Y0066034D02*
X0025022Y0066034D01*
X0025022Y0061238D02*
X0110222Y0061238D01*
X0102697Y0064435D02*
X0102547Y0064435D01*
X0102547Y0066034D02*
X0102697Y0066034D01*
X0102697Y0067632D02*
X0102547Y0067632D01*
X0067777Y0110792D02*
X0056184Y0110792D01*
X0056184Y0110308D02*
X0052551Y0110308D01*
X0052551Y0106615D01*
X0054621Y0106615D01*
X0055079Y0106738D01*
X0055489Y0106975D01*
X0055824Y0107310D01*
X0056061Y0107721D01*
X0056184Y0108178D01*
X0056184Y0110308D01*
X0056184Y0109194D02*
X0058862Y0109194D01*
X0058779Y0109051D02*
X0058657Y0108593D01*
X0058657Y0106375D01*
X0062910Y0106375D01*
X0062910Y0110156D01*
X0060220Y0110156D01*
X0059762Y0110034D01*
X0059352Y0109797D01*
X0059016Y0109462D01*
X0058779Y0109051D01*
X0058657Y0107595D02*
X0055989Y0107595D01*
X0052551Y0107595D02*
X0052084Y0107595D01*
X0052084Y0109194D02*
X0052551Y0109194D01*
X0052551Y0110792D02*
X0052084Y0110792D01*
X0052084Y0112391D02*
X0052551Y0112391D01*
X0052551Y0113989D02*
X0052084Y0113989D01*
X0055608Y0113989D02*
X0059973Y0113989D01*
X0059907Y0115588D02*
X0048327Y0115588D01*
X0048327Y0117186D02*
X0059907Y0117186D01*
X0059907Y0118785D02*
X0048327Y0118785D01*
X0048327Y0120383D02*
X0060340Y0120383D01*
X0061432Y0112391D02*
X0056184Y0112391D01*
X0058657Y0104398D02*
X0049410Y0104398D01*
X0049410Y0105997D02*
X0062910Y0105997D01*
X0062910Y0107595D02*
X0063673Y0107595D01*
X0063673Y0109194D02*
X0062910Y0109194D01*
X0067119Y0112391D02*
X0068125Y0112391D01*
X0058593Y0102800D02*
X0055321Y0102800D01*
X0055455Y0101201D02*
X0058057Y0101201D01*
X0058057Y0099603D02*
X0055455Y0099603D01*
X0055205Y0098004D02*
X0058057Y0098004D01*
X0058243Y0096406D02*
X0054234Y0096406D01*
X0056613Y0094807D02*
X0059066Y0094807D01*
X0058915Y0093491D02*
X0058915Y0093491D01*
X0043610Y0104149D02*
X0043330Y0104033D01*
X0042838Y0103541D01*
X0040131Y0103541D01*
X0040131Y0105938D01*
X0036547Y0105938D01*
X0036547Y0106306D01*
X0040131Y0106306D01*
X0040131Y0109115D01*
X0040008Y0109573D01*
X0039771Y0109983D01*
X0039436Y0110318D01*
X0039026Y0110555D01*
X0038568Y0110678D01*
X0036547Y0110678D01*
X0036547Y0106306D01*
X0036178Y0106306D01*
X0036178Y0110678D01*
X0034157Y0110678D01*
X0033699Y0110555D01*
X0033289Y0110318D01*
X0032980Y0110009D01*
X0032885Y0110237D01*
X0032210Y0110913D01*
X0031782Y0111090D01*
X0031782Y0112795D01*
X0033753Y0114765D01*
X0036722Y0114765D01*
X0037604Y0115131D01*
X0038087Y0115614D01*
X0038305Y0115488D01*
X0038763Y0115365D01*
X0040834Y0115365D01*
X0040834Y0119058D01*
X0041301Y0119058D01*
X0041301Y0115365D01*
X0042527Y0115365D01*
X0042527Y0114920D01*
X0042001Y0114702D01*
X0041326Y0114027D01*
X0040960Y0113145D01*
X0040960Y0107938D01*
X0041326Y0107056D01*
X0042001Y0106381D01*
X0042883Y0106015D01*
X0043610Y0106015D01*
X0043610Y0104149D01*
X0043610Y0104398D02*
X0040131Y0104398D01*
X0040131Y0107595D02*
X0041102Y0107595D01*
X0040960Y0109194D02*
X0040110Y0109194D01*
X0040960Y0110792D02*
X0032330Y0110792D01*
X0031782Y0112391D02*
X0040960Y0112391D01*
X0041310Y0113989D02*
X0032976Y0113989D01*
X0036178Y0109194D02*
X0036547Y0109194D01*
X0036547Y0107595D02*
X0036178Y0107595D01*
X0036547Y0105997D02*
X0043610Y0105997D01*
X0041301Y0115588D02*
X0040834Y0115588D01*
X0040834Y0117186D02*
X0041301Y0117186D01*
X0041301Y0118785D02*
X0040834Y0118785D01*
X0038133Y0115588D02*
X0038061Y0115588D01*
X0031061Y0123580D02*
X0025022Y0123580D01*
X0025022Y0121982D02*
X0029746Y0121982D01*
X0029710Y0120383D02*
X0025022Y0120383D01*
X0025022Y0118785D02*
X0029570Y0118785D01*
X0027971Y0117186D02*
X0025022Y0117186D01*
X0025022Y0115588D02*
X0026402Y0115588D01*
X0025982Y0113989D02*
X0025022Y0113989D01*
X0025022Y0112391D02*
X0025982Y0112391D01*
X0025434Y0110792D02*
X0025022Y0110792D01*
X0025022Y0101201D02*
X0025869Y0101201D01*
X0025022Y0099603D02*
X0028254Y0099603D01*
X0028254Y0098004D02*
X0025022Y0098004D01*
X0025022Y0096406D02*
X0028254Y0096406D01*
X0028254Y0094807D02*
X0025022Y0094807D01*
X0025022Y0125179D02*
X0030457Y0125179D01*
X0030310Y0126777D02*
X0025022Y0126777D01*
D31*
X0027622Y0123666D03*
X0027622Y0133041D03*
X0037622Y0113041D03*
X0038872Y0095541D03*
X0055122Y0116791D03*
X0055122Y0124916D03*
X0059810Y0124916D03*
X0064497Y0124916D03*
X0069185Y0124916D03*
X0066997Y0137416D03*
X0059497Y0149291D03*
X0056372Y0136166D03*
X0049497Y0124916D03*
X0056372Y0105541D03*
X0063247Y0094291D03*
X0069810Y0087729D03*
X0071997Y0094291D03*
X0077622Y0116791D03*
X0090435Y0137416D03*
X0106997Y0117416D03*
X0089497Y0083666D03*
X0080122Y0061791D03*
X0067622Y0061791D03*
X0055122Y0061791D03*
X0048247Y0149291D03*
X0056372Y0163666D03*
X0044185Y0165541D03*
X0044185Y0169916D03*
X0035122Y0167104D03*
X0063122Y0200541D03*
X0068872Y0158666D03*
X0073872Y0158666D03*
X0093122Y0200541D03*
D32*
X0085791Y0196309D02*
X0069453Y0196309D01*
X0068872Y0185463D02*
X0063247Y0179838D01*
X0063247Y0173041D01*
X0059497Y0169291D01*
X0059497Y0162104D01*
X0058033Y0160640D01*
X0051973Y0160640D01*
X0054497Y0158979D02*
X0053008Y0157490D01*
X0051973Y0157490D01*
X0054497Y0158979D02*
X0058872Y0158979D01*
X0061372Y0161479D01*
X0061372Y0168120D01*
X0068872Y0175620D01*
X0061372Y0173666D02*
X0061372Y0193888D01*
X0054719Y0200541D01*
X0048026Y0200541D02*
X0038075Y0200541D01*
X0035122Y0197589D02*
X0032169Y0200541D01*
X0035122Y0197589D02*
X0035122Y0188979D01*
X0034369Y0188226D01*
X0032620Y0188226D01*
X0032563Y0188169D01*
X0034369Y0188169D02*
X0034369Y0188226D01*
X0034369Y0188169D02*
X0035122Y0187416D01*
X0035122Y0172104D01*
X0030122Y0167104D01*
X0030122Y0158750D01*
X0030122Y0158583D01*
X0041372Y0147333D01*
X0041372Y0146388D01*
X0046018Y0141742D01*
X0042868Y0138593D01*
X0041067Y0136791D01*
X0042868Y0138593D02*
X0051973Y0138593D01*
X0052696Y0138593D01*
X0055122Y0136166D01*
X0056372Y0136166D01*
X0056623Y0140167D02*
X0055516Y0140167D01*
X0056623Y0140167D02*
X0059497Y0143041D01*
X0059497Y0149291D01*
X0051973Y0148041D02*
X0049497Y0148041D01*
X0048247Y0149291D01*
X0050723Y0151191D02*
X0049497Y0152416D01*
X0049497Y0168354D01*
X0050747Y0169604D01*
X0057310Y0169604D01*
X0061372Y0173666D01*
X0059497Y0174604D02*
X0059497Y0184513D01*
X0054719Y0189291D01*
X0048026Y0189291D02*
X0046904Y0188169D01*
X0037681Y0188169D01*
X0037681Y0185413D02*
X0040654Y0185413D01*
X0048026Y0178041D01*
X0046372Y0173354D02*
X0052622Y0173354D01*
X0054810Y0175541D01*
X0054810Y0177950D01*
X0054719Y0178041D01*
X0059497Y0174604D02*
X0056372Y0171479D01*
X0049810Y0171479D01*
X0047310Y0168979D01*
X0047310Y0152729D01*
X0045122Y0150541D01*
X0045122Y0147729D01*
X0047959Y0144892D01*
X0051973Y0144892D01*
X0051973Y0141742D02*
X0046018Y0141742D01*
X0050723Y0151191D02*
X0051973Y0151191D01*
X0056372Y0163666D02*
X0056372Y0165854D01*
X0055287Y0166939D01*
X0051973Y0166939D01*
X0046372Y0173354D02*
X0044185Y0171166D01*
X0044185Y0169916D01*
X0044185Y0165541D02*
X0038469Y0171257D01*
X0038469Y0175541D01*
X0032563Y0176329D02*
X0032563Y0185413D01*
X0032563Y0176329D02*
X0031776Y0175541D01*
X0035122Y0167104D02*
X0041372Y0160854D01*
X0041372Y0158750D01*
X0030122Y0147333D02*
X0037622Y0139833D01*
X0037622Y0124604D01*
X0034177Y0121159D01*
X0034177Y0119291D01*
X0028882Y0113996D01*
X0028882Y0106122D01*
X0032622Y0097461D02*
X0032622Y0091486D01*
X0036067Y0088041D01*
X0037484Y0080541D02*
X0034984Y0078041D01*
X0037484Y0080541D02*
X0053606Y0080541D01*
X0053247Y0070541D02*
X0057310Y0066479D01*
X0086001Y0066479D01*
X0090063Y0070541D01*
X0102622Y0078041D02*
X0095122Y0085541D01*
X0095122Y0121791D01*
X0092622Y0124291D01*
X0090435Y0124291D01*
X0087406Y0127320D01*
X0087406Y0129734D01*
X0090555Y0129734D02*
X0090555Y0126983D01*
X0091372Y0126166D01*
X0093247Y0126166D01*
X0096997Y0122416D01*
X0096997Y0093666D01*
X0102622Y0088041D01*
X0091589Y0110315D02*
X0090036Y0110315D01*
X0088872Y0111479D01*
X0088872Y0119596D01*
X0089817Y0120541D01*
X0091589Y0118770D01*
X0091589Y0113268D01*
X0089817Y0120541D02*
X0089817Y0121159D01*
X0086060Y0124916D01*
X0069185Y0124916D01*
X0070969Y0123132D01*
X0070969Y0116791D01*
X0064497Y0117013D02*
X0064276Y0116791D01*
X0064497Y0117013D02*
X0064497Y0124916D01*
X0059810Y0124916D02*
X0059810Y0127104D01*
X0059059Y0127854D01*
X0059059Y0129734D01*
X0055910Y0129734D02*
X0055910Y0127891D01*
X0055122Y0127104D01*
X0055122Y0124916D01*
X0051973Y0127392D02*
X0049497Y0124916D01*
X0051973Y0127392D02*
X0051973Y0129144D01*
X0051973Y0132293D02*
X0045319Y0132293D01*
X0041067Y0128041D01*
X0045427Y0128034D02*
X0049687Y0132293D01*
X0051973Y0132293D01*
X0045427Y0128034D02*
X0045427Y0110541D01*
X0046510Y0109459D01*
X0046510Y0100541D01*
X0063291Y0099301D02*
X0063291Y0094336D01*
X0063247Y0094291D01*
X0063685Y0085979D02*
X0071997Y0094291D01*
X0071953Y0094336D01*
X0071953Y0099301D01*
X0069810Y0087729D02*
X0071559Y0085979D01*
X0071559Y0080778D01*
X0063685Y0080778D02*
X0063685Y0085979D01*
X0053247Y0070541D02*
X0045181Y0070541D01*
X0037484Y0070541D01*
X0034984Y0068041D01*
X0066933Y0133278D02*
X0066997Y0133342D01*
X0066997Y0137416D01*
X0077957Y0152766D02*
X0080784Y0152766D01*
X0083872Y0155854D01*
X0083872Y0194390D01*
X0085791Y0196309D01*
X0097622Y0180541D02*
X0094886Y0177805D01*
X0094886Y0172805D01*
X0090555Y0168474D01*
X0090555Y0166348D01*
X0094886Y0166348D02*
X0094886Y0172805D01*
X0097622Y0180541D02*
X0102622Y0180541D01*
X0092935Y0137416D02*
X0090435Y0137416D01*
X0092935Y0137416D02*
X0094886Y0135465D01*
X0094886Y0129734D01*
X0073872Y0158666D02*
X0073232Y0159306D01*
X0073232Y0162805D01*
X0070083Y0162805D02*
X0070083Y0159877D01*
X0068872Y0158666D01*
D33*
X0068872Y0175620D02*
X0080349Y0175620D01*
X0080427Y0175541D01*
X0080349Y0185463D02*
X0080427Y0185541D01*
X0080349Y0185463D02*
X0068872Y0185463D01*
X0071953Y0106781D02*
X0075435Y0106781D01*
X0077300Y0104916D01*
X0077310Y0104916D01*
X0077935Y0104291D01*
X0077935Y0092416D01*
X0081402Y0088949D01*
X0081402Y0080778D01*
X0081402Y0075571D01*
X0080122Y0074291D01*
X0060122Y0074291D01*
X0058872Y0075541D01*
X0058872Y0089291D01*
X0056372Y0091791D01*
X0052317Y0091791D01*
X0051234Y0092874D01*
X0051234Y0100541D01*
X0046510Y0100541D02*
X0035703Y0100541D01*
X0032622Y0097461D01*
X0075435Y0106781D02*
X0081070Y0106781D01*
X0082622Y0105229D01*
X0082622Y0102736D01*
X0082302Y0102736D01*
X0082622Y0102736D02*
X0091372Y0102736D01*
D34*
X0053843Y0080778D02*
X0053606Y0080541D01*
M02*
