G75*
%MOIN*%
%OFA0B0*%
%FSLAX25Y25*%
%IPPOS*%
%LPD*%
%AMOC8*
5,1,8,0,0,1.08239X$1,22.5*
%
%ADD10C,0.00000*%
%ADD11C,0.03543*%
%ADD12C,0.05906*%
%ADD13C,0.06457*%
%ADD14R,0.06500X0.06500*%
%ADD15C,0.06500*%
%ADD16C,0.01600*%
%ADD17C,0.01575*%
%ADD18C,0.00600*%
%ADD19C,0.00800*%
D10*
X0032280Y0051256D02*
X0032280Y0169366D01*
X0150390Y0169366D01*
X0150390Y0051256D01*
X0032280Y0051256D01*
D11*
X0076768Y0058539D02*
X0076768Y0062083D01*
X0105902Y0062083D02*
X0105902Y0058539D01*
D12*
X0105115Y0111295D02*
X0105115Y0117201D01*
X0095272Y0117201D02*
X0095272Y0111295D01*
X0087398Y0111295D02*
X0087398Y0117201D01*
X0077556Y0117201D02*
X0077556Y0111295D01*
D13*
X0065469Y0121650D02*
X0065469Y0128106D01*
X0117201Y0128106D02*
X0117201Y0121650D01*
D14*
X0106296Y0090626D03*
D15*
X0096296Y0090626D03*
X0086296Y0090626D03*
X0076296Y0090626D03*
X0066296Y0090626D03*
D16*
X0070083Y0086423D02*
X0072508Y0086423D01*
X0073095Y0085836D02*
X0071506Y0087426D01*
X0071296Y0087933D01*
X0071086Y0087426D01*
X0069496Y0085836D01*
X0067420Y0084976D01*
X0065172Y0084976D01*
X0063095Y0085836D01*
X0061506Y0087426D01*
X0060646Y0089502D01*
X0060646Y0091750D01*
X0061506Y0093826D01*
X0063095Y0095416D01*
X0065172Y0096276D01*
X0067420Y0096276D01*
X0067820Y0096110D01*
X0072584Y0100874D01*
X0073613Y0101300D01*
X0095294Y0101300D01*
X0097197Y0103203D01*
X0097197Y0106299D01*
X0096337Y0105943D01*
X0094208Y0105943D01*
X0092240Y0106757D01*
X0091335Y0107662D01*
X0090430Y0106757D01*
X0088463Y0105943D01*
X0086334Y0105943D01*
X0084366Y0106757D01*
X0082860Y0108263D01*
X0082136Y0110012D01*
X0081960Y0109471D01*
X0081621Y0108804D01*
X0081181Y0108199D01*
X0080652Y0107670D01*
X0080047Y0107230D01*
X0079380Y0106891D01*
X0078669Y0106660D01*
X0077930Y0106543D01*
X0077661Y0106543D01*
X0077661Y0114142D01*
X0077450Y0114142D01*
X0077450Y0106543D01*
X0077182Y0106543D01*
X0076443Y0106660D01*
X0075731Y0106891D01*
X0075065Y0107230D01*
X0074460Y0107670D01*
X0073931Y0108199D01*
X0073491Y0108804D01*
X0073151Y0109471D01*
X0072920Y0110182D01*
X0072803Y0110921D01*
X0072803Y0114142D01*
X0077450Y0114142D01*
X0077450Y0114354D01*
X0077450Y0121954D01*
X0077182Y0121954D01*
X0076443Y0121837D01*
X0075731Y0121605D01*
X0075065Y0121266D01*
X0074460Y0120826D01*
X0073931Y0120297D01*
X0073491Y0119692D01*
X0073151Y0119025D01*
X0072920Y0118314D01*
X0072803Y0117575D01*
X0072803Y0114354D01*
X0077450Y0114354D01*
X0077661Y0114354D01*
X0077661Y0121954D01*
X0077930Y0121954D01*
X0078669Y0121837D01*
X0079380Y0121605D01*
X0080047Y0121266D01*
X0080652Y0120826D01*
X0081181Y0120297D01*
X0081621Y0119692D01*
X0081960Y0119025D01*
X0082136Y0118484D01*
X0082860Y0120233D01*
X0084366Y0121739D01*
X0086334Y0122554D01*
X0088463Y0122554D01*
X0090430Y0121739D01*
X0091335Y0120834D01*
X0092240Y0121739D01*
X0094208Y0122554D01*
X0096337Y0122554D01*
X0097822Y0121938D01*
X0102347Y0126464D01*
X0103135Y0127252D01*
X0104164Y0127678D01*
X0111573Y0127678D01*
X0111573Y0129226D01*
X0112430Y0131295D01*
X0114013Y0132878D01*
X0116082Y0133735D01*
X0118321Y0133735D01*
X0120390Y0132878D01*
X0121973Y0131295D01*
X0122830Y0129226D01*
X0122830Y0120530D01*
X0121973Y0118461D01*
X0120390Y0116878D01*
X0118321Y0116021D01*
X0116082Y0116021D01*
X0114013Y0116878D01*
X0112430Y0118461D01*
X0111573Y0120530D01*
X0111573Y0122078D01*
X0107328Y0122078D01*
X0108147Y0121739D01*
X0109653Y0120233D01*
X0110468Y0118266D01*
X0110468Y0110231D01*
X0109653Y0108263D01*
X0108147Y0106757D01*
X0107915Y0106661D01*
X0107915Y0103849D01*
X0107489Y0102819D01*
X0099791Y0095122D01*
X0101086Y0093826D01*
X0101246Y0093440D01*
X0101246Y0094113D01*
X0101369Y0094571D01*
X0101606Y0094981D01*
X0101941Y0095316D01*
X0102351Y0095553D01*
X0102809Y0095676D01*
X0106221Y0095676D01*
X0106221Y0090701D01*
X0106371Y0090701D01*
X0111346Y0090701D01*
X0111346Y0094113D01*
X0111223Y0094571D01*
X0110986Y0094981D01*
X0110651Y0095316D01*
X0110241Y0095553D01*
X0109783Y0095676D01*
X0106371Y0095676D01*
X0106371Y0090701D01*
X0106371Y0090551D01*
X0111346Y0090551D01*
X0111346Y0087139D01*
X0111223Y0086681D01*
X0110986Y0086271D01*
X0110651Y0085936D01*
X0110241Y0085699D01*
X0109783Y0085576D01*
X0106371Y0085576D01*
X0106371Y0090551D01*
X0106221Y0090551D01*
X0106221Y0085576D01*
X0102809Y0085576D01*
X0102351Y0085699D01*
X0101941Y0085936D01*
X0101606Y0086271D01*
X0101369Y0086681D01*
X0101246Y0087139D01*
X0101246Y0087812D01*
X0101086Y0087426D01*
X0099496Y0085836D01*
X0097420Y0084976D01*
X0095172Y0084976D01*
X0093095Y0085836D01*
X0091506Y0087426D01*
X0091296Y0087933D01*
X0091086Y0087426D01*
X0089496Y0085836D01*
X0087420Y0084976D01*
X0085172Y0084976D01*
X0083095Y0085836D01*
X0081506Y0087426D01*
X0081296Y0087933D01*
X0081086Y0087426D01*
X0079496Y0085836D01*
X0077420Y0084976D01*
X0075172Y0084976D01*
X0073095Y0085836D01*
X0080083Y0086423D02*
X0082508Y0086423D01*
X0090083Y0086423D02*
X0092508Y0086423D01*
X0100083Y0086423D02*
X0101518Y0086423D01*
X0106221Y0086423D02*
X0106371Y0086423D01*
X0106371Y0088022D02*
X0106221Y0088022D01*
X0106221Y0089620D02*
X0106371Y0089620D01*
X0106371Y0091219D02*
X0106221Y0091219D01*
X0106221Y0092817D02*
X0106371Y0092817D01*
X0106371Y0094416D02*
X0106221Y0094416D01*
X0102282Y0097613D02*
X0147990Y0097613D01*
X0147990Y0099211D02*
X0103880Y0099211D01*
X0105479Y0100810D02*
X0147990Y0100810D01*
X0147990Y0102408D02*
X0107077Y0102408D01*
X0107915Y0104007D02*
X0147990Y0104007D01*
X0147990Y0105605D02*
X0107915Y0105605D01*
X0108593Y0107204D02*
X0147990Y0107204D01*
X0147990Y0108802D02*
X0109876Y0108802D01*
X0110468Y0110401D02*
X0147990Y0110401D01*
X0147990Y0111999D02*
X0110468Y0111999D01*
X0110468Y0113598D02*
X0147990Y0113598D01*
X0147990Y0115196D02*
X0110468Y0115196D01*
X0110468Y0116795D02*
X0114214Y0116795D01*
X0112498Y0118393D02*
X0110415Y0118393D01*
X0109752Y0119992D02*
X0111796Y0119992D01*
X0111573Y0121590D02*
X0108295Y0121590D01*
X0102269Y0126386D02*
X0071097Y0126386D01*
X0071097Y0127984D02*
X0111573Y0127984D01*
X0111721Y0129583D02*
X0070950Y0129583D01*
X0071097Y0129226D02*
X0070241Y0131295D01*
X0068657Y0132878D01*
X0066589Y0133735D01*
X0064350Y0133735D01*
X0062281Y0132878D01*
X0060698Y0131295D01*
X0059841Y0129226D01*
X0059841Y0120530D01*
X0060698Y0118461D01*
X0062281Y0116878D01*
X0064350Y0116021D01*
X0066589Y0116021D01*
X0068657Y0116878D01*
X0070241Y0118461D01*
X0071097Y0120530D01*
X0071097Y0129226D01*
X0070287Y0131181D02*
X0112383Y0131181D01*
X0113915Y0132780D02*
X0068755Y0132780D01*
X0062183Y0132780D02*
X0034680Y0132780D01*
X0034680Y0134378D02*
X0147990Y0134378D01*
X0147990Y0132780D02*
X0120487Y0132780D01*
X0122020Y0131181D02*
X0147990Y0131181D01*
X0147990Y0129583D02*
X0122682Y0129583D01*
X0122830Y0127984D02*
X0147990Y0127984D01*
X0147990Y0126386D02*
X0122830Y0126386D01*
X0122830Y0124787D02*
X0147990Y0124787D01*
X0147990Y0123189D02*
X0122830Y0123189D01*
X0122830Y0121590D02*
X0147990Y0121590D01*
X0147990Y0119992D02*
X0122607Y0119992D01*
X0121905Y0118393D02*
X0147990Y0118393D01*
X0147990Y0116795D02*
X0120189Y0116795D01*
X0100671Y0124787D02*
X0071097Y0124787D01*
X0071097Y0123189D02*
X0099072Y0123189D01*
X0092092Y0121590D02*
X0090579Y0121590D01*
X0084218Y0121590D02*
X0079409Y0121590D01*
X0077661Y0121590D02*
X0077450Y0121590D01*
X0077450Y0119992D02*
X0077661Y0119992D01*
X0077661Y0118393D02*
X0077450Y0118393D01*
X0077450Y0116795D02*
X0077661Y0116795D01*
X0077661Y0115196D02*
X0077450Y0115196D01*
X0077450Y0113598D02*
X0077661Y0113598D01*
X0077661Y0111999D02*
X0077450Y0111999D01*
X0077450Y0110401D02*
X0077661Y0110401D01*
X0077661Y0108802D02*
X0077450Y0108802D01*
X0077450Y0107204D02*
X0077661Y0107204D01*
X0075117Y0107204D02*
X0034680Y0107204D01*
X0034680Y0108802D02*
X0073492Y0108802D01*
X0072885Y0110401D02*
X0034680Y0110401D01*
X0034680Y0111999D02*
X0072803Y0111999D01*
X0072803Y0113598D02*
X0034680Y0113598D01*
X0034680Y0115196D02*
X0072803Y0115196D01*
X0072803Y0116795D02*
X0068456Y0116795D01*
X0070173Y0118393D02*
X0072946Y0118393D01*
X0073709Y0119992D02*
X0070875Y0119992D01*
X0071097Y0121590D02*
X0075702Y0121590D01*
X0081403Y0119992D02*
X0082761Y0119992D01*
X0082637Y0108802D02*
X0081619Y0108802D01*
X0079995Y0107204D02*
X0083920Y0107204D01*
X0090877Y0107204D02*
X0091794Y0107204D01*
X0096402Y0102408D02*
X0034680Y0102408D01*
X0034680Y0100810D02*
X0072520Y0100810D01*
X0070921Y0099211D02*
X0034680Y0099211D01*
X0034680Y0097613D02*
X0069323Y0097613D01*
X0064540Y0096014D02*
X0034680Y0096014D01*
X0034680Y0094416D02*
X0062095Y0094416D01*
X0061088Y0092817D02*
X0034680Y0092817D01*
X0034680Y0091219D02*
X0060646Y0091219D01*
X0060646Y0089620D02*
X0034680Y0089620D01*
X0034680Y0088022D02*
X0061259Y0088022D01*
X0062508Y0086423D02*
X0034680Y0086423D01*
X0034680Y0084825D02*
X0147990Y0084825D01*
X0147990Y0086423D02*
X0111074Y0086423D01*
X0111346Y0088022D02*
X0147990Y0088022D01*
X0147990Y0089620D02*
X0111346Y0089620D01*
X0111346Y0091219D02*
X0147990Y0091219D01*
X0147990Y0092817D02*
X0111346Y0092817D01*
X0111265Y0094416D02*
X0147990Y0094416D01*
X0147990Y0096014D02*
X0100683Y0096014D01*
X0100496Y0094416D02*
X0101327Y0094416D01*
X0097197Y0104007D02*
X0034680Y0104007D01*
X0034680Y0105605D02*
X0097197Y0105605D01*
X0078574Y0075218D02*
X0077402Y0075703D01*
X0076134Y0075703D01*
X0074963Y0075218D01*
X0074066Y0074321D01*
X0073581Y0073150D01*
X0073581Y0071882D01*
X0074066Y0070710D01*
X0074963Y0069814D01*
X0075898Y0069426D01*
X0079513Y0065811D01*
X0080542Y0065385D01*
X0081455Y0065385D01*
X0081455Y0065189D01*
X0081940Y0064017D01*
X0082730Y0063228D01*
X0082730Y0059461D01*
X0082353Y0059085D01*
X0082145Y0058581D01*
X0081940Y0058376D01*
X0081577Y0057499D01*
X0080853Y0057499D01*
X0080940Y0057710D01*
X0080940Y0062912D01*
X0080305Y0064446D01*
X0079131Y0065619D01*
X0077598Y0066254D01*
X0075939Y0066254D01*
X0074405Y0065619D01*
X0073232Y0064446D01*
X0072597Y0062912D01*
X0072597Y0059861D01*
X0071120Y0059861D01*
X0070790Y0060659D01*
X0070002Y0061447D01*
X0069243Y0062206D01*
X0068250Y0062617D01*
X0064403Y0062617D01*
X0064401Y0062619D01*
X0063229Y0063105D01*
X0061961Y0063105D01*
X0060790Y0062619D01*
X0059893Y0061723D01*
X0059408Y0060551D01*
X0059408Y0059283D01*
X0059893Y0058112D01*
X0060790Y0057215D01*
X0061961Y0056730D01*
X0063229Y0056730D01*
X0063535Y0056856D01*
X0063830Y0056143D01*
X0064727Y0055247D01*
X0065898Y0054761D01*
X0065901Y0054761D01*
X0066605Y0054057D01*
X0067007Y0053656D01*
X0034680Y0053656D01*
X0034680Y0166966D01*
X0147990Y0166966D01*
X0147990Y0053656D01*
X0098336Y0053656D01*
X0098849Y0053869D01*
X0099746Y0054765D01*
X0100231Y0055937D01*
X0100231Y0056114D01*
X0100434Y0056604D01*
X0100434Y0057588D01*
X0100621Y0057511D01*
X0101813Y0057511D01*
X0102366Y0056176D01*
X0103539Y0055003D01*
X0105072Y0054368D01*
X0106732Y0054368D01*
X0108265Y0055003D01*
X0109439Y0056176D01*
X0110074Y0057710D01*
X0110074Y0062912D01*
X0109439Y0064446D01*
X0108265Y0065619D01*
X0106732Y0066254D01*
X0105072Y0066254D01*
X0103539Y0065619D01*
X0102403Y0064483D01*
X0102403Y0065986D01*
X0101977Y0067015D01*
X0099221Y0069771D01*
X0098433Y0070559D01*
X0097404Y0070985D01*
X0082259Y0070985D01*
X0079858Y0073386D01*
X0079471Y0074321D01*
X0078574Y0075218D01*
X0078536Y0075234D02*
X0147990Y0075234D01*
X0147990Y0076832D02*
X0034680Y0076832D01*
X0034680Y0075234D02*
X0075001Y0075234D01*
X0073782Y0073635D02*
X0034680Y0073635D01*
X0034680Y0072037D02*
X0073581Y0072037D01*
X0074338Y0070438D02*
X0034680Y0070438D01*
X0034680Y0068840D02*
X0076485Y0068840D01*
X0078083Y0067241D02*
X0034680Y0067241D01*
X0034680Y0065643D02*
X0074462Y0065643D01*
X0073065Y0064044D02*
X0034680Y0064044D01*
X0034680Y0062445D02*
X0060616Y0062445D01*
X0059530Y0060847D02*
X0034680Y0060847D01*
X0034680Y0059248D02*
X0059422Y0059248D01*
X0060355Y0057650D02*
X0034680Y0057650D01*
X0034680Y0056051D02*
X0063922Y0056051D01*
X0066210Y0054453D02*
X0034680Y0054453D01*
X0034680Y0078431D02*
X0147990Y0078431D01*
X0147990Y0080029D02*
X0034680Y0080029D01*
X0034680Y0081628D02*
X0147990Y0081628D01*
X0147990Y0083226D02*
X0034680Y0083226D01*
X0034680Y0116795D02*
X0062482Y0116795D01*
X0060766Y0118393D02*
X0034680Y0118393D01*
X0034680Y0119992D02*
X0060064Y0119992D01*
X0059841Y0121590D02*
X0034680Y0121590D01*
X0034680Y0123189D02*
X0059841Y0123189D01*
X0059841Y0124787D02*
X0034680Y0124787D01*
X0034680Y0126386D02*
X0059841Y0126386D01*
X0059841Y0127984D02*
X0034680Y0127984D01*
X0034680Y0129583D02*
X0059989Y0129583D01*
X0060651Y0131181D02*
X0034680Y0131181D01*
X0034680Y0135977D02*
X0147990Y0135977D01*
X0147990Y0137576D02*
X0034680Y0137576D01*
X0034680Y0139174D02*
X0147990Y0139174D01*
X0147990Y0140773D02*
X0034680Y0140773D01*
X0034680Y0142371D02*
X0147990Y0142371D01*
X0147990Y0143970D02*
X0034680Y0143970D01*
X0034680Y0145568D02*
X0147990Y0145568D01*
X0147990Y0147167D02*
X0034680Y0147167D01*
X0034680Y0148765D02*
X0147990Y0148765D01*
X0147990Y0150364D02*
X0034680Y0150364D01*
X0034680Y0151962D02*
X0147990Y0151962D01*
X0147990Y0153561D02*
X0034680Y0153561D01*
X0034680Y0155159D02*
X0147990Y0155159D01*
X0147990Y0156758D02*
X0034680Y0156758D01*
X0034680Y0158356D02*
X0147990Y0158356D01*
X0147990Y0159955D02*
X0034680Y0159955D01*
X0034680Y0161553D02*
X0147990Y0161553D01*
X0147990Y0163152D02*
X0034680Y0163152D01*
X0034680Y0164750D02*
X0147990Y0164750D01*
X0147990Y0166349D02*
X0034680Y0166349D01*
X0079755Y0073635D02*
X0147990Y0073635D01*
X0147990Y0072037D02*
X0081207Y0072037D01*
X0079921Y0065643D02*
X0079075Y0065643D01*
X0080471Y0064044D02*
X0081929Y0064044D01*
X0082730Y0062445D02*
X0080940Y0062445D01*
X0080940Y0060847D02*
X0082730Y0060847D01*
X0082517Y0059248D02*
X0080940Y0059248D01*
X0080915Y0057650D02*
X0081639Y0057650D01*
X0072597Y0060847D02*
X0070602Y0060847D01*
X0068665Y0062445D02*
X0072597Y0062445D01*
X0098554Y0070438D02*
X0147990Y0070438D01*
X0147990Y0068840D02*
X0100152Y0068840D01*
X0101751Y0067241D02*
X0147990Y0067241D01*
X0147990Y0065643D02*
X0108209Y0065643D01*
X0109605Y0064044D02*
X0147990Y0064044D01*
X0147990Y0062445D02*
X0110074Y0062445D01*
X0110074Y0060847D02*
X0147990Y0060847D01*
X0147990Y0059248D02*
X0110074Y0059248D01*
X0110049Y0057650D02*
X0147990Y0057650D01*
X0147990Y0056051D02*
X0109314Y0056051D01*
X0106938Y0054453D02*
X0147990Y0054453D01*
X0104867Y0054453D02*
X0099434Y0054453D01*
X0100231Y0056051D02*
X0102491Y0056051D01*
X0102403Y0065643D02*
X0103595Y0065643D01*
D17*
X0101572Y0056571D03*
X0097044Y0056571D03*
X0093501Y0056571D03*
X0089170Y0056571D03*
X0087005Y0056571D03*
X0084642Y0056571D03*
X0081099Y0056571D03*
X0081886Y0063657D03*
X0084642Y0065823D03*
X0089170Y0063854D03*
X0095272Y0063461D03*
X0076768Y0072516D03*
X0066532Y0057949D03*
X0062595Y0059917D03*
D18*
X0067713Y0059917D01*
X0068501Y0059130D01*
X0068501Y0057949D01*
X0069288Y0057161D01*
X0073225Y0057161D01*
X0075587Y0054799D01*
X0085823Y0054799D01*
X0087005Y0055980D01*
X0087005Y0056571D01*
X0087792Y0054602D02*
X0094288Y0054602D01*
X0095272Y0055587D01*
X0095272Y0063461D01*
X0089170Y0063854D02*
X0089170Y0060902D01*
X0093501Y0056571D01*
X0089170Y0056571D02*
X0089170Y0060902D01*
X0085430Y0058343D02*
X0085430Y0065035D01*
X0084642Y0065823D01*
X0085430Y0058343D02*
X0084642Y0057555D01*
X0084642Y0056571D01*
X0086611Y0053421D02*
X0087792Y0054602D01*
X0086611Y0053421D02*
X0074603Y0053421D01*
X0072438Y0055587D01*
X0068894Y0055587D01*
X0066532Y0057949D01*
D19*
X0081099Y0068185D02*
X0076768Y0072516D01*
X0081099Y0068185D02*
X0096847Y0068185D01*
X0099603Y0065429D01*
X0099603Y0061886D01*
X0101178Y0060311D01*
X0105902Y0060311D01*
X0097635Y0057161D02*
X0097635Y0064248D01*
X0096060Y0065823D01*
X0084642Y0065823D01*
X0097044Y0056571D02*
X0097635Y0057161D01*
X0076296Y0090626D02*
X0076296Y0093303D01*
X0079524Y0096531D01*
X0097241Y0096531D01*
X0105115Y0104406D01*
X0105115Y0114248D01*
X0099997Y0120154D02*
X0104721Y0124878D01*
X0117201Y0124878D01*
X0099997Y0120154D02*
X0099997Y0102043D01*
X0096453Y0098500D01*
X0074170Y0098500D01*
X0066296Y0090626D01*
M02*
