%
M48
M72
T01C0.00787
T02C0.01969
T03C0.03150
T04C0.03500
T05C0.03622
%
T01
X62595Y59917
X66532Y57949
X81099Y56571
X84642Y56571
X87005Y56571
X89170Y56571
X93501Y56571
X97044Y56571
X101572Y56571
X95272Y63461
X89170Y63854
X84642Y65823
X81886Y63657
X76768Y72516
T02
X76768Y60311
X105902Y60311
T03
X65469Y124878
X117201Y124878
T04
X66296Y90626
X76296Y90626
X86296Y90626
X96296Y90626
X106296Y90626
T05
X77556Y114248
X87398Y114248
X95272Y114248
X105115Y114248
M30
